<svg id="Layer_1" data-name="Layer 1" xmlns="http://www.w3.org/2000/svg" xmlns:xlink="http://www.w3.org/1999/xlink" viewBox="0 0 600 355.98"><defs><style>.cls-1{fill:#fff;}.cls-2{fill:#8d4fda;}.cls-3{mask:url(#mask);}.cls-4{fill:#565656;}.cls-5{mask:url(#mask-2-2);}.cls-6{fill:#d6d6d6;}.cls-7{fill:#eff0f0;}.cls-8{fill:#e0e0e0;}.cls-9{fill:#f5f6f6;}.cls-10{fill:#c9c9c9;}.cls-11{fill:#e2e2e2;}.cls-12{fill:#4c4c4c;}.cls-13{fill:#141414;}.cls-14{mask:url(#mask-3);}.cls-15{fill:#b7b7b7;}.cls-16{fill:#848484;}.cls-17{fill:#353535;}.cls-18{fill:#9ffffa;}.cls-19{fill:#5a5a5a;}.cls-20{fill:#ebebeb;}.cls-21,.cls-26{fill:none;}.cls-21{stroke:#cbcbcb;}.cls-22{fill:#aaa;}.cls-23{fill:#282828;}.cls-24{fill:#29a5f4;}.cls-25{fill:#e7eef5;}.cls-26{stroke:#282828;stroke-linecap:round;}.cls-27{fill:#f932bb;}.cls-28{fill:#2c011f;}.cls-29{isolation:isolate;font-size:6.23px;fill:#fddbf2;font-family:Arial-BoldMT, Arial;font-weight:700;letter-spacing:0em;}.cls-30{fill:#0d5d90;}.cls-31{fill:#1ba9df;}.cls-32{fill:#fdfdfd;}.cls-33{fill:#4d4d4d;}.cls-34{mask:url(#mask-25);}.cls-35{fill:#4f4f4f;fill-opacity:0.44;}</style><mask id="mask" x="91.92" y="292.85" width="276.08" height="13.68" maskUnits="userSpaceOnUse"><g id="mask-2"><polygon id="path-1" class="cls-1" points="91.92 292.85 368 292.85 368 306.52 91.92 306.52 91.92 292.85"/></g></mask><mask id="mask-2-2" x="91.03" y="283.64" width="277.87" height="20.6" maskUnits="userSpaceOnUse"><g id="mask-4"><polygon id="path-3" class="cls-1" points="91.03 283.63 368.9 283.63 368.9 304.24 91.03 304.24 91.03 283.63"/></g></mask><mask id="mask-3" x="91.03" y="49.45" width="280.52" height="257.07" maskUnits="userSpaceOnUse"><g id="mask-6"><polygon id="path-5" class="cls-1" points="91.03 306.52 371.55 306.52 371.55 49.45 91.03 49.45 91.03 306.52"/></g></mask><mask id="mask-25" x="91.03" y="106.91" width="280.52" height="42.32" maskUnits="userSpaceOnUse"><g id="mask-8-2" data-name="mask-8"><polygon id="path-7" class="cls-1" points="91.03 106.91 371.55 106.91 371.55 149.23 91.03 149.23 91.03 106.91"/></g></mask></defs><title>bcourse_splash</title><g id="Group-2"><rect id="Rectangle-4" class="cls-2" width="600" height="355.98"/></g><g class="cls-3"><path id="Fill-1" class="cls-4" d="M368,292.85v6.62c0,3.9-3.43,7-7.66,7H99.59c-4.23,0-7.67-3.15-7.67-7v-6.62Z"/></g><g class="cls-5"><path id="Fill-4" class="cls-6" d="M368.9,283.64v10c0,5.86-3.45,10.62-7.72,10.62H98.74c-4.26,0-7.71-4.76-7.71-10.62v-10Z"/></g><path id="Fill-7" class="cls-7" d="M357.37,297.61H102.55A11.52,11.52,0,0,1,91,286.09V117.84a11.52,11.52,0,0,1,11.52-11.52H357.37a11.53,11.53,0,0,1,11.53,11.52V286.09a11.53,11.53,0,0,1-11.53,11.52"/><path id="Fill-9" class="cls-8" d="M270.09,288.66H191.71a5.82,5.82,0,0,1-5.83-5.82V230.15a5.82,5.82,0,0,1,5.83-5.82h78.38a5.82,5.82,0,0,1,5.83,5.82v52.69a5.82,5.82,0,0,1-5.83,5.82"/><path id="Fill-11" class="cls-9" d="M268.56,287.57H193.24a5.83,5.83,0,0,1-5.83-5.82V231.24a5.83,5.83,0,0,1,5.83-5.82h75.32a5.83,5.83,0,0,1,5.83,5.82v50.51a5.83,5.83,0,0,1-5.83,5.82"/><path id="Fill-13" class="cls-10" d="M350.1,218.35H109.82a3.56,3.56,0,0,1-3.56-3.57V124.17a3.56,3.56,0,0,1,3.56-3.56H350.1a3.56,3.56,0,0,1,3.57,3.56v90.61a3.57,3.57,0,0,1-3.57,3.57"/><path id="Fill-15" class="cls-11" d="M348.66,217H111.27a3.56,3.56,0,0,1-3.57-3.56v-88a3.57,3.57,0,0,1,3.57-3.56H348.66a3.57,3.57,0,0,1,3.57,3.56v88a3.56,3.56,0,0,1-3.57,3.56"/><path id="Fill-17" class="cls-12" d="M174.34,183.93a2.22,2.22,0,0,1,2.31,2.11v9.7a2.22,2.22,0,0,1-2.31,2.11H163.73a2.22,2.22,0,0,1-2.31-2.11V186a2.22,2.22,0,0,1,2.31-2.11Z"/><path id="Fill-19" class="cls-12" d="M141,186v9.7a2.22,2.22,0,0,1-2.31,2.11H113.27a2.23,2.23,0,0,1-2.32-2.11V186a2.23,2.23,0,0,1,2.32-2.11h25.46A2.22,2.22,0,0,1,141,186"/><path id="Fill-21" class="cls-12" d="M350.39,186v9.7a2.22,2.22,0,0,1-2.31,2.11H322.62a2.22,2.22,0,0,1-2.31-2.11V186a2.22,2.22,0,0,1,2.31-2.11h25.46a2.22,2.22,0,0,1,2.31,2.11"/><path id="Fill-23" class="cls-12" d="M158.91,186v9.7a2.22,2.22,0,0,1-2.31,2.11H146a2.22,2.22,0,0,1-2.31-2.11V186a2.22,2.22,0,0,1,2.31-2.11H156.6a2.22,2.22,0,0,1,2.31,2.11"/><path id="Fill-25" class="cls-12" d="M194.27,186v9.7a2.22,2.22,0,0,1-2.31,2.11H181.35a2.23,2.23,0,0,1-2.32-2.11V186a2.23,2.23,0,0,1,2.32-2.11H192a2.22,2.22,0,0,1,2.31,2.11"/><path id="Fill-27" class="cls-12" d="M211.88,186v9.7a2.22,2.22,0,0,1-2.31,2.11H199a2.23,2.23,0,0,1-2.32-2.11V186a2.23,2.23,0,0,1,2.32-2.11h10.61a2.22,2.22,0,0,1,2.31,2.11"/><path id="Fill-29" class="cls-12" d="M229.62,186v9.7a2.22,2.22,0,0,1-2.31,2.11H216.7a2.22,2.22,0,0,1-2.31-2.11V186a2.22,2.22,0,0,1,2.31-2.11h10.61a2.22,2.22,0,0,1,2.31,2.11"/><path id="Fill-31" class="cls-12" d="M247.23,186v9.7a2.22,2.22,0,0,1-2.31,2.11H234.31a2.22,2.22,0,0,1-2.31-2.11V186a2.22,2.22,0,0,1,2.31-2.11h10.61a2.22,2.22,0,0,1,2.31,2.11"/><path id="Fill-33" class="cls-12" d="M264.85,186v9.7a2.23,2.23,0,0,1-2.32,2.11H251.92a2.22,2.22,0,0,1-2.31-2.11V186a2.22,2.22,0,0,1,2.31-2.11h10.61a2.23,2.23,0,0,1,2.32,2.11"/><path id="Fill-35" class="cls-12" d="M282.59,186v9.7a2.22,2.22,0,0,1-2.31,2.11H269.66a2.22,2.22,0,0,1-2.31-2.11V186a2.22,2.22,0,0,1,2.31-2.11h10.62a2.22,2.22,0,0,1,2.31,2.11"/><path id="Fill-37" class="cls-12" d="M300.2,186v9.7a2.23,2.23,0,0,1-2.32,2.11h-10.6a2.23,2.23,0,0,1-2.32-2.11V186a2.23,2.23,0,0,1,2.32-2.11h10.6A2.23,2.23,0,0,1,300.2,186"/><path id="Fill-39" class="cls-12" d="M317.81,186v9.7a2.22,2.22,0,0,1-2.31,2.11H304.89a2.22,2.22,0,0,1-2.31-2.11V186a2.22,2.22,0,0,1,2.31-2.11H315.5a2.22,2.22,0,0,1,2.31,2.11"/><path id="Fill-41" class="cls-12" d="M149.39,169.75v9.69a2.21,2.21,0,0,1-2.31,2.11H136.47a2.22,2.22,0,0,1-2.31-2.11v-9.69a2.22,2.22,0,0,1,2.31-2.11h10.61a2.21,2.21,0,0,1,2.31,2.11"/><path id="Fill-43" class="cls-12" d="M167.14,169.75v9.69a2.22,2.22,0,0,1-2.32,2.11H154.21a2.22,2.22,0,0,1-2.31-2.11v-9.69a2.22,2.22,0,0,1,2.31-2.11h10.61a2.22,2.22,0,0,1,2.32,2.11"/><path id="Fill-45" class="cls-12" d="M184.75,169.75v9.69a2.22,2.22,0,0,1-2.32,2.11h-10.6a2.22,2.22,0,0,1-2.32-2.11v-9.69a2.22,2.22,0,0,1,2.32-2.11h10.6a2.22,2.22,0,0,1,2.32,2.11"/><path id="Fill-47" class="cls-12" d="M202.36,169.75v9.69a2.21,2.21,0,0,1-2.31,2.11H189.44a2.21,2.21,0,0,1-2.31-2.11v-9.69a2.21,2.21,0,0,1,2.31-2.11h10.61a2.21,2.21,0,0,1,2.31,2.11"/><path id="Fill-49" class="cls-12" d="M220.1,169.75v9.69a2.21,2.21,0,0,1-2.31,2.11H207.18a2.21,2.21,0,0,1-2.31-2.11v-9.69a2.21,2.21,0,0,1,2.31-2.11h10.61a2.21,2.21,0,0,1,2.31,2.11"/><path id="Fill-51" class="cls-12" d="M237.71,169.75v9.69a2.21,2.21,0,0,1-2.31,2.11H224.79a2.21,2.21,0,0,1-2.31-2.11v-9.69a2.21,2.21,0,0,1,2.31-2.11H235.4a2.21,2.21,0,0,1,2.31,2.11"/><path id="Fill-53" class="cls-12" d="M255.33,169.75v9.69a2.22,2.22,0,0,1-2.31,2.11H242.41a2.21,2.21,0,0,1-2.31-2.11v-9.69a2.21,2.21,0,0,1,2.31-2.11H253a2.22,2.22,0,0,1,2.31,2.11"/><path id="Fill-55" class="cls-12" d="M273.07,169.75v9.69a2.22,2.22,0,0,1-2.32,2.11H260.14a2.22,2.22,0,0,1-2.31-2.11v-9.69a2.22,2.22,0,0,1,2.31-2.11h10.61a2.22,2.22,0,0,1,2.32,2.11"/><path id="Fill-57" class="cls-12" d="M290.68,169.75v9.69a2.22,2.22,0,0,1-2.31,2.11H277.76a2.22,2.22,0,0,1-2.32-2.11v-9.69a2.22,2.22,0,0,1,2.32-2.11h10.61a2.22,2.22,0,0,1,2.31,2.11"/><path id="Fill-59" class="cls-12" d="M308.29,169.75v9.69a2.21,2.21,0,0,1-2.31,2.11H295.37a2.21,2.21,0,0,1-2.31-2.11v-9.69a2.21,2.21,0,0,1,2.31-2.11H306a2.21,2.21,0,0,1,2.31,2.11"/><path id="Fill-61" class="cls-12" d="M325.9,169.75v9.69a2.21,2.21,0,0,1-2.31,2.11H313a2.22,2.22,0,0,1-2.31-2.11v-9.69a2.22,2.22,0,0,1,2.31-2.11h10.61a2.21,2.21,0,0,1,2.31,2.11"/><path id="Fill-63" class="cls-12" d="M350.39,169.75v9.69a2.21,2.21,0,0,1-2.31,2.11H330.6a2.21,2.21,0,0,1-2.31-2.11v-9.69a2.21,2.21,0,0,1,2.31-2.11h17.48a2.21,2.21,0,0,1,2.31,2.11"/><path id="Fill-65" class="cls-12" d="M131.78,169.75v9.69a2.21,2.21,0,0,1-2.31,2.11h-16.2a2.22,2.22,0,0,1-2.32-2.11v-9.69a2.22,2.22,0,0,1,2.32-2.11h16.2a2.21,2.21,0,0,1,2.31,2.11"/><path id="Fill-67" class="cls-12" d="M138.45,153.36v9.7a2.23,2.23,0,0,1-2.32,2.11H125.52a2.22,2.22,0,0,1-2.31-2.11v-9.7a2.22,2.22,0,0,1,2.31-2.11h10.61a2.22,2.22,0,0,1,2.32,2.11"/><path id="Fill-69" class="cls-12" d="M156.19,153.36v9.7a2.22,2.22,0,0,1-2.31,2.11H143.26a2.22,2.22,0,0,1-2.31-2.11v-9.7a2.22,2.22,0,0,1,2.31-2.11h10.62a2.22,2.22,0,0,1,2.31,2.11"/><path id="Fill-71" class="cls-12" d="M173.8,153.36v9.7a2.22,2.22,0,0,1-2.31,2.11H160.88a2.22,2.22,0,0,1-2.31-2.11v-9.7a2.21,2.21,0,0,1,2.31-2.11h10.61a2.21,2.21,0,0,1,2.31,2.11"/><path id="Fill-73" class="cls-12" d="M191.41,153.36v9.7a2.22,2.22,0,0,1-2.31,2.11H178.49a2.22,2.22,0,0,1-2.31-2.11v-9.7a2.22,2.22,0,0,1,2.31-2.11H189.1a2.21,2.21,0,0,1,2.31,2.11"/><path id="Fill-75" class="cls-12" d="M209.15,153.36v9.7a2.22,2.22,0,0,1-2.31,2.11H196.23a2.22,2.22,0,0,1-2.31-2.11v-9.7a2.22,2.22,0,0,1,2.31-2.11h10.61a2.21,2.21,0,0,1,2.31,2.11"/><path id="Fill-77" class="cls-12" d="M226.77,153.36v9.7a2.23,2.23,0,0,1-2.32,2.11h-10.6a2.23,2.23,0,0,1-2.32-2.11v-9.7a2.22,2.22,0,0,1,2.32-2.11h10.6a2.22,2.22,0,0,1,2.32,2.11"/><path id="Fill-79" class="cls-12" d="M244.38,153.36v9.7a2.22,2.22,0,0,1-2.31,2.11H231.46a2.22,2.22,0,0,1-2.31-2.11v-9.7a2.21,2.21,0,0,1,2.31-2.11h10.61a2.22,2.22,0,0,1,2.31,2.11"/><path id="Fill-81" class="cls-12" d="M262.12,153.36v9.7a2.22,2.22,0,0,1-2.31,2.11H249.2a2.22,2.22,0,0,1-2.31-2.11v-9.7a2.21,2.21,0,0,1,2.31-2.11h10.61a2.21,2.21,0,0,1,2.31,2.11"/><path id="Fill-83" class="cls-12" d="M279.73,153.36v9.7a2.22,2.22,0,0,1-2.31,2.11H266.81a2.22,2.22,0,0,1-2.31-2.11v-9.7a2.21,2.21,0,0,1,2.31-2.11h10.61a2.21,2.21,0,0,1,2.31,2.11"/><path id="Fill-85" class="cls-12" d="M297.35,153.36v9.7a2.22,2.22,0,0,1-2.31,2.11H284.42a2.22,2.22,0,0,1-2.31-2.11v-9.7a2.22,2.22,0,0,1,2.31-2.11H295a2.22,2.22,0,0,1,2.31,2.11"/><path id="Fill-87" class="cls-12" d="M315,153.36v9.7a2.22,2.22,0,0,1-2.31,2.11H302a2.23,2.23,0,0,1-2.32-2.11v-9.7a2.22,2.22,0,0,1,2.32-2.11h10.61a2.21,2.21,0,0,1,2.31,2.11"/><path id="Fill-89" class="cls-12" d="M332.57,153.36v9.7a2.22,2.22,0,0,1-2.31,2.11H319.65a2.22,2.22,0,0,1-2.31-2.11v-9.7a2.22,2.22,0,0,1,2.31-2.11h10.61a2.21,2.21,0,0,1,2.31,2.11"/><path id="Fill-91" class="cls-12" d="M350.19,153.36v9.7a2.23,2.23,0,0,1-2.32,2.11h-10.6a2.23,2.23,0,0,1-2.32-2.11v-9.7a2.22,2.22,0,0,1,2.32-2.11h10.6a2.22,2.22,0,0,1,2.32,2.11"/><path id="Fill-93" class="cls-12" d="M121.37,153.36v9.7a2.22,2.22,0,0,1-2.31,2.11h-5.79a2.23,2.23,0,0,1-2.32-2.11v-9.7a2.22,2.22,0,0,1,2.32-2.11h5.79a2.22,2.22,0,0,1,2.31,2.11"/><path id="Fill-95" class="cls-12" d="M126.19,137.26V147a2.22,2.22,0,0,1-2.32,2.11h-10.6A2.22,2.22,0,0,1,111,147v-9.7a2.23,2.23,0,0,1,2.32-2.11h10.6a2.23,2.23,0,0,1,2.32,2.11"/><path id="Fill-97" class="cls-12" d="M142.73,137.26V147a2.21,2.21,0,0,1-2.31,2.11H129.81A2.21,2.21,0,0,1,127.5,147v-9.7a2.22,2.22,0,0,1,2.31-2.11h10.61a2.22,2.22,0,0,1,2.31,2.11"/><path id="Fill-99" class="cls-12" d="M159.7,137.26V147a2.22,2.22,0,0,1-2.32,2.11H146.77a2.22,2.22,0,0,1-2.31-2.11v-9.7a2.22,2.22,0,0,1,2.31-2.11h10.61a2.23,2.23,0,0,1,2.32,2.11"/><path id="Fill-101" class="cls-12" d="M176.18,137v9.7a2.22,2.22,0,0,1-2.31,2.11H163.26a2.22,2.22,0,0,1-2.31-2.11V137a2.22,2.22,0,0,1,2.31-2.11h10.61a2.22,2.22,0,0,1,2.31,2.11"/><path id="Fill-103" class="cls-12" d="M192.84,137.26V147a2.21,2.21,0,0,1-2.31,2.11H179.92a2.22,2.22,0,0,1-2.31-2.11v-9.7a2.22,2.22,0,0,1,2.31-2.11h10.61a2.22,2.22,0,0,1,2.31,2.11"/><path id="Fill-105" class="cls-12" d="M209.63,137v9.7a2.22,2.22,0,0,1-2.31,2.11H196.71a2.22,2.22,0,0,1-2.31-2.11V137a2.22,2.22,0,0,1,2.31-2.11h10.61a2.22,2.22,0,0,1,2.31,2.11"/><path id="Fill-107" class="cls-12" d="M226.29,137.26V147a2.22,2.22,0,0,1-2.31,2.11H213.37a2.22,2.22,0,0,1-2.32-2.11v-9.7a2.23,2.23,0,0,1,2.32-2.11H224a2.22,2.22,0,0,1,2.31,2.11"/><path id="Fill-109" class="cls-12" d="M243,137.26V147a2.22,2.22,0,0,1-2.32,2.11H230a2.22,2.22,0,0,1-2.32-2.11v-9.7a2.23,2.23,0,0,1,2.32-2.11h10.6a2.23,2.23,0,0,1,2.32,2.11"/><path id="Fill-111" class="cls-12" d="M259.61,137v9.7a2.22,2.22,0,0,1-2.31,2.11H246.69a2.22,2.22,0,0,1-2.31-2.11V137a2.22,2.22,0,0,1,2.31-2.11H257.3a2.22,2.22,0,0,1,2.31,2.11"/><path id="Fill-113" class="cls-12" d="M276.53,137.26V147a2.22,2.22,0,0,1-2.31,2.11H263.6a2.22,2.22,0,0,1-2.31-2.11v-9.7a2.22,2.22,0,0,1,2.31-2.11h10.62a2.22,2.22,0,0,1,2.31,2.11"/><path id="Fill-115" class="cls-12" d="M293.54,137.26V147a2.22,2.22,0,0,1-2.31,2.11H280.61A2.22,2.22,0,0,1,278.3,147v-9.7a2.22,2.22,0,0,1,2.31-2.11h10.62a2.22,2.22,0,0,1,2.31,2.11"/><path id="Fill-117" class="cls-12" d="M310.54,137.26V147a2.21,2.21,0,0,1-2.31,2.11H297.62a2.22,2.22,0,0,1-2.31-2.11v-9.7a2.22,2.22,0,0,1,2.31-2.11h10.61a2.22,2.22,0,0,1,2.31,2.11"/><path id="Fill-119" class="cls-12" d="M327.92,137v9.7a2.22,2.22,0,0,1-2.31,2.11H315a2.22,2.22,0,0,1-2.31-2.11V137a2.22,2.22,0,0,1,2.31-2.11h10.61a2.22,2.22,0,0,1,2.31,2.11"/><path id="Fill-121" class="cls-12" d="M125.62,126.36v5c0,.6-1.06,1.08-2.37,1.08H112.38c-1.31,0-2.37-.48-2.37-1.08v-5c0-.59,1.06-1.07,2.37-1.07h10.87c1.31,0,2.37.48,2.37,1.07"/><path id="Fill-123" class="cls-12" d="M142.58,126.36v5c0,.6-1.07,1.08-2.37,1.08H129.33c-1.31,0-2.37-.48-2.37-1.08v-5c0-.59,1.06-1.07,2.37-1.07h10.88c1.3,0,2.37.48,2.37,1.07"/><path id="Fill-125" class="cls-12" d="M160,126.36v5c0,.6-1.06,1.08-2.37,1.08H146.72c-1.31,0-2.37-.48-2.37-1.08v-5c0-.59,1.06-1.07,2.37-1.07h10.87c1.31,0,2.37.48,2.37,1.07"/><path id="Fill-127" class="cls-12" d="M176.86,126.21v5c0,.6-1.06,1.08-2.37,1.08H163.61c-1.3,0-2.36-.48-2.36-1.08v-5c0-.59,1.06-1.07,2.36-1.07h10.88c1.31,0,2.37.48,2.37,1.07"/><path id="Fill-129" class="cls-12" d="M193.93,126.36v5c0,.6-1.06,1.08-2.37,1.08H180.69c-1.31,0-2.37-.48-2.37-1.08v-5c0-.59,1.06-1.07,2.37-1.07h10.87c1.31,0,2.37.48,2.37,1.07"/><path id="Fill-131" class="cls-12" d="M211.14,126.21v5c0,.6-1.06,1.08-2.37,1.08H197.89c-1.31,0-2.37-.48-2.37-1.08v-5c0-.59,1.06-1.07,2.37-1.07h10.88c1.31,0,2.37.48,2.37,1.07"/><path id="Fill-133" class="cls-12" d="M228.21,126.36v5c0,.6-1.06,1.08-2.37,1.08H215c-1.31,0-2.37-.48-2.37-1.08v-5c0-.59,1.06-1.07,2.37-1.07h10.87c1.31,0,2.37.48,2.37,1.07"/><path id="Fill-135" class="cls-12" d="M245.28,126.36v5c0,.6-1.05,1.08-2.37,1.08H232c-1.31,0-2.37-.48-2.37-1.08v-5c0-.59,1.06-1.07,2.37-1.07h10.87c1.32,0,2.37.48,2.37,1.07"/><path id="Fill-137" class="cls-12" d="M262.36,126.21v5c0,.6-1.06,1.08-2.37,1.08H249.12c-1.31,0-2.37-.48-2.37-1.08v-5c0-.59,1.06-1.07,2.37-1.07H260c1.31,0,2.37.48,2.37,1.07"/><path id="Fill-139" class="cls-12" d="M279.7,126.36v5c0,.6-1.06,1.08-2.37,1.08H266.45c-1.3,0-2.37-.48-2.37-1.08v-5c0-.59,1.07-1.07,2.37-1.07h10.88c1.31,0,2.37.48,2.37,1.07"/><path id="Fill-141" class="cls-12" d="M297.13,126.36v5c0,.6-1.06,1.08-2.36,1.08H283.89c-1.31,0-2.37-.48-2.37-1.08v-5c0-.59,1.06-1.07,2.37-1.07h10.88c1.3,0,2.36.48,2.36,1.07"/><path id="Fill-143" class="cls-12" d="M314.56,126.36v5c0,.6-1.05,1.08-2.36,1.08H301.32c-1.3,0-2.37-.48-2.37-1.08v-5c0-.59,1.07-1.07,2.37-1.07H312.2c1.31,0,2.36.48,2.36,1.07"/><path id="Fill-145" class="cls-12" d="M332.38,126.21v5c0,.6-1.06,1.08-2.37,1.08H319.13c-1.31,0-2.37-.48-2.37-1.08v-5c0-.59,1.06-1.07,2.37-1.07H330c1.31,0,2.37.48,2.37,1.07"/><path id="Fill-147" class="cls-12" d="M350.19,126.21v5c0,.6-1.06,1.08-2.37,1.08H336.94c-1.31,0-2.36-.48-2.36-1.08v-5c0-.59,1.05-1.07,2.36-1.07h10.88c1.31,0,2.37.48,2.37,1.07"/><path id="Fill-149" class="cls-12" d="M350.19,137v9.7c0,1.16-1.37,2.11-3.06,2.11h-14c-1.69,0-3.05-.95-3.05-2.11V137c0-1.16,1.36-2.11,3.05-2.11h14c1.69,0,3.06.95,3.06,2.11"/><path id="Fill-151" class="cls-12" d="M121.37,202.34V212a2.22,2.22,0,0,1-2.31,2.11h-5.79A2.22,2.22,0,0,1,111,212v-9.69a2.22,2.22,0,0,1,2.32-2.11h5.79a2.22,2.22,0,0,1,2.31,2.11"/><path id="Fill-153" class="cls-12" d="M134.22,202.34V212a2.22,2.22,0,0,1-2.31,2.11h-5.79A2.22,2.22,0,0,1,123.8,212v-9.69a2.22,2.22,0,0,1,2.32-2.11h5.79a2.22,2.22,0,0,1,2.31,2.11"/><path id="Fill-155" class="cls-12" d="M147.07,202.34V212a2.22,2.22,0,0,1-2.31,2.11H139a2.22,2.22,0,0,1-2.31-2.11v-9.69a2.22,2.22,0,0,1,2.31-2.11h5.8a2.22,2.22,0,0,1,2.31,2.11"/><path id="Fill-157" class="cls-12" d="M296.33,202.34V212a2.21,2.21,0,0,1-2.31,2.11h-5.79a2.21,2.21,0,0,1-2.31-2.11v-9.69a2.21,2.21,0,0,1,2.31-2.11H294a2.21,2.21,0,0,1,2.31,2.11"/><path id="Fill-159" class="cls-12" d="M168.21,202.34V212a2.21,2.21,0,0,1-2.31,2.11H151.81A2.22,2.22,0,0,1,149.5,212v-9.69a2.22,2.22,0,0,1,2.31-2.11H165.9a2.21,2.21,0,0,1,2.31,2.11"/><path id="Fill-161" class="cls-12" d="M283.38,202.34V212a2.22,2.22,0,0,1-2.32,2.11H267a2.21,2.21,0,0,1-2.31-2.11v-9.69a2.21,2.21,0,0,1,2.31-2.11h14.08a2.22,2.22,0,0,1,2.32,2.11"/><path id="Fill-163" class="cls-12" d="M350.25,209.3V212a2.21,2.21,0,0,1-2.31,2.11H337.22a2.22,2.22,0,0,1-2.31-2.11V209.3a2.22,2.22,0,0,1,2.31-2.11h10.72a2.21,2.21,0,0,1,2.31,2.11"/><path id="Fill-165" class="cls-12" d="M332.53,209.3V212a2.21,2.21,0,0,1-2.31,2.11H319.5a2.22,2.22,0,0,1-2.31-2.11V209.3a2.22,2.22,0,0,1,2.31-2.11h10.72a2.21,2.21,0,0,1,2.31,2.11"/><path id="Fill-167" class="cls-12" d="M332.53,202.34v2.73a2.22,2.22,0,0,1-2.31,2.12H319.5a2.23,2.23,0,0,1-2.31-2.12v-2.73a2.22,2.22,0,0,1,2.31-2.11h10.72a2.21,2.21,0,0,1,2.31,2.11"/><path id="Fill-169" class="cls-12" d="M314.45,209.3V212a2.22,2.22,0,0,1-2.31,2.11H301.42a2.21,2.21,0,0,1-2.31-2.11V209.3a2.21,2.21,0,0,1,2.31-2.11h10.72a2.22,2.22,0,0,1,2.31,2.11"/><path id="Fill-171" class="cls-12" d="M262.12,202.34V212a2.21,2.21,0,0,1-2.31,2.11h-87a2.21,2.21,0,0,1-2.31-2.11v-9.69a2.21,2.21,0,0,1,2.31-2.11h87a2.21,2.21,0,0,1,2.31,2.11"/><path id="Fill-174" class="cls-13" d="M173.86,183.31a2.23,2.23,0,0,1,2.32,2.12v9.69a2.23,2.23,0,0,1-2.32,2.11H163.25a2.22,2.22,0,0,1-2.31-2.11v-9.69a2.23,2.23,0,0,1,2.31-2.12Z"/><path id="Fill-176" class="cls-13" d="M140.57,185.43v9.69a2.22,2.22,0,0,1-2.31,2.11H112.79a2.21,2.21,0,0,1-2.31-2.11v-9.69a2.22,2.22,0,0,1,2.31-2.12h25.47a2.23,2.23,0,0,1,2.31,2.12"/><path id="Fill-178" class="cls-13" d="M349.92,185.43v9.69a2.21,2.21,0,0,1-2.31,2.11H322.14a2.22,2.22,0,0,1-2.31-2.11v-9.69a2.23,2.23,0,0,1,2.31-2.12h25.47a2.22,2.22,0,0,1,2.31,2.12"/><path id="Fill-180" class="cls-13" d="M158.44,185.43v9.69a2.22,2.22,0,0,1-2.31,2.11H145.52a2.21,2.21,0,0,1-2.31-2.11v-9.69a2.22,2.22,0,0,1,2.31-2.12h10.61a2.23,2.23,0,0,1,2.31,2.12"/><path id="Fill-182" class="cls-13" d="M193.79,185.43v9.69a2.22,2.22,0,0,1-2.31,2.11H180.87a2.21,2.21,0,0,1-2.31-2.11v-9.69a2.22,2.22,0,0,1,2.31-2.12h10.61a2.23,2.23,0,0,1,2.31,2.12"/><path id="Fill-184" class="cls-13" d="M211.4,185.43v9.69a2.21,2.21,0,0,1-2.31,2.11H198.48a2.21,2.21,0,0,1-2.31-2.11v-9.69a2.22,2.22,0,0,1,2.31-2.12h10.61a2.22,2.22,0,0,1,2.31,2.12"/><path id="Fill-186" class="cls-13" d="M229.14,185.43v9.69a2.21,2.21,0,0,1-2.31,2.11H216.22a2.21,2.21,0,0,1-2.31-2.11v-9.69a2.22,2.22,0,0,1,2.31-2.12h10.61a2.22,2.22,0,0,1,2.31,2.12"/><path id="Fill-188" class="cls-13" d="M246.76,185.43v9.69a2.22,2.22,0,0,1-2.31,2.11H233.83a2.22,2.22,0,0,1-2.31-2.11v-9.69a2.23,2.23,0,0,1,2.31-2.12h10.62a2.23,2.23,0,0,1,2.31,2.12"/><path id="Fill-190" class="cls-13" d="M264.37,185.43v9.69a2.21,2.21,0,0,1-2.31,2.11H251.45a2.21,2.21,0,0,1-2.31-2.11v-9.69a2.22,2.22,0,0,1,2.31-2.12h10.61a2.22,2.22,0,0,1,2.31,2.12"/><path id="Fill-192" class="cls-13" d="M282.11,185.43v9.69a2.22,2.22,0,0,1-2.31,2.11H269.18a2.22,2.22,0,0,1-2.31-2.11v-9.69a2.23,2.23,0,0,1,2.31-2.12H279.8a2.23,2.23,0,0,1,2.31,2.12"/><path id="Fill-194" class="cls-13" d="M299.72,185.43v9.69a2.21,2.21,0,0,1-2.31,2.11H286.8a2.22,2.22,0,0,1-2.31-2.11v-9.69a2.23,2.23,0,0,1,2.31-2.12h10.61a2.22,2.22,0,0,1,2.31,2.12"/><path id="Fill-196" class="cls-13" d="M317.33,185.43v9.69a2.21,2.21,0,0,1-2.31,2.11H304.41a2.21,2.21,0,0,1-2.31-2.11v-9.69a2.22,2.22,0,0,1,2.31-2.12H315a2.22,2.22,0,0,1,2.31,2.12"/><path id="Fill-198" class="cls-13" d="M148.92,169.13v9.69a2.21,2.21,0,0,1-2.31,2.11H136a2.21,2.21,0,0,1-2.31-2.11v-9.69A2.21,2.21,0,0,1,136,167h10.61a2.21,2.21,0,0,1,2.31,2.11"/><path id="Fill-200" class="cls-13" d="M166.66,169.13v9.69a2.22,2.22,0,0,1-2.32,2.11H153.73a2.22,2.22,0,0,1-2.31-2.11v-9.69a2.22,2.22,0,0,1,2.31-2.11h10.61a2.22,2.22,0,0,1,2.32,2.11"/><path id="Fill-202" class="cls-13" d="M184.27,169.13v9.69a2.21,2.21,0,0,1-2.31,2.11H171.35a2.21,2.21,0,0,1-2.31-2.11v-9.69a2.21,2.21,0,0,1,2.31-2.11H182a2.21,2.21,0,0,1,2.31,2.11"/><path id="Fill-204" class="cls-13" d="M201.88,169.13v9.69a2.21,2.21,0,0,1-2.31,2.11H189a2.21,2.21,0,0,1-2.31-2.11v-9.69A2.21,2.21,0,0,1,189,167h10.61a2.21,2.21,0,0,1,2.31,2.11"/><path id="Fill-206" class="cls-13" d="M219.62,169.13v9.69a2.21,2.21,0,0,1-2.31,2.11H206.7a2.22,2.22,0,0,1-2.31-2.11v-9.69A2.22,2.22,0,0,1,206.7,167h10.61a2.21,2.21,0,0,1,2.31,2.11"/><path id="Fill-208" class="cls-13" d="M237.24,169.13v9.69a2.22,2.22,0,0,1-2.31,2.11H224.32a2.21,2.21,0,0,1-2.31-2.11v-9.69a2.21,2.21,0,0,1,2.31-2.11h10.61a2.22,2.22,0,0,1,2.31,2.11"/><path id="Fill-210" class="cls-13" d="M254.85,169.13v9.69a2.22,2.22,0,0,1-2.31,2.11H241.93a2.21,2.21,0,0,1-2.31-2.11v-9.69a2.21,2.21,0,0,1,2.31-2.11h10.61a2.22,2.22,0,0,1,2.31,2.11"/><path id="Fill-212" class="cls-13" d="M272.59,169.13v9.69a2.22,2.22,0,0,1-2.31,2.11H259.67a2.21,2.21,0,0,1-2.31-2.11v-9.69a2.21,2.21,0,0,1,2.31-2.11h10.61a2.22,2.22,0,0,1,2.31,2.11"/><path id="Fill-214" class="cls-13" d="M290.2,169.13v9.69a2.21,2.21,0,0,1-2.31,2.11H277.28a2.21,2.21,0,0,1-2.31-2.11v-9.69a2.21,2.21,0,0,1,2.31-2.11h10.61a2.21,2.21,0,0,1,2.31,2.11"/><path id="Fill-216" class="cls-13" d="M307.82,169.13v9.69a2.22,2.22,0,0,1-2.31,2.11H294.89a2.22,2.22,0,0,1-2.31-2.11v-9.69a2.22,2.22,0,0,1,2.31-2.11h10.62a2.22,2.22,0,0,1,2.31,2.11"/><path id="Fill-218" class="cls-13" d="M325.43,169.13v9.69a2.21,2.21,0,0,1-2.31,2.11H312.51a2.21,2.21,0,0,1-2.31-2.11v-9.69a2.21,2.21,0,0,1,2.31-2.11h10.61a2.21,2.21,0,0,1,2.31,2.11"/><path id="Fill-220" class="cls-13" d="M349.92,169.13v9.69a2.21,2.21,0,0,1-2.31,2.11H330.12a2.22,2.22,0,0,1-2.31-2.11v-9.69a2.22,2.22,0,0,1,2.31-2.11h17.49a2.21,2.21,0,0,1,2.31,2.11"/><path id="Fill-222" class="cls-13" d="M131.31,169.13v9.69a2.22,2.22,0,0,1-2.31,2.11H112.79a2.21,2.21,0,0,1-2.31-2.11v-9.69a2.21,2.21,0,0,1,2.31-2.11H129a2.22,2.22,0,0,1,2.31,2.11"/><path id="Fill-224" class="cls-13" d="M138,152.74v9.7a2.23,2.23,0,0,1-2.32,2.11H125.05a2.22,2.22,0,0,1-2.31-2.11v-9.7a2.22,2.22,0,0,1,2.31-2.11h10.61a2.23,2.23,0,0,1,2.32,2.11"/><path id="Fill-226" class="cls-13" d="M155.71,152.74v9.7a2.22,2.22,0,0,1-2.31,2.11H142.79a2.22,2.22,0,0,1-2.31-2.11v-9.7a2.22,2.22,0,0,1,2.31-2.11H153.4a2.22,2.22,0,0,1,2.31,2.11"/><path id="Fill-228" class="cls-13" d="M173.33,152.74v9.7a2.23,2.23,0,0,1-2.32,2.11H160.4a2.22,2.22,0,0,1-2.31-2.11v-9.7a2.22,2.22,0,0,1,2.31-2.11H171a2.23,2.23,0,0,1,2.32,2.11"/><path id="Fill-230" class="cls-13" d="M190.94,152.74v9.7a2.22,2.22,0,0,1-2.31,2.11H178a2.22,2.22,0,0,1-2.31-2.11v-9.7a2.22,2.22,0,0,1,2.31-2.11h10.61a2.22,2.22,0,0,1,2.31,2.11"/><path id="Fill-232" class="cls-13" d="M208.68,152.74v9.7a2.23,2.23,0,0,1-2.32,2.11h-10.6a2.23,2.23,0,0,1-2.32-2.11v-9.7a2.23,2.23,0,0,1,2.32-2.11h10.6a2.23,2.23,0,0,1,2.32,2.11"/><path id="Fill-234" class="cls-13" d="M226.29,152.74v9.7a2.22,2.22,0,0,1-2.31,2.11H213.37a2.22,2.22,0,0,1-2.31-2.11v-9.7a2.22,2.22,0,0,1,2.31-2.11H224a2.22,2.22,0,0,1,2.31,2.11"/><path id="Fill-236" class="cls-13" d="M243.9,152.74v9.7a2.22,2.22,0,0,1-2.31,2.11H231a2.22,2.22,0,0,1-2.31-2.11v-9.7a2.22,2.22,0,0,1,2.31-2.11h10.61a2.22,2.22,0,0,1,2.31,2.11"/><path id="Fill-238" class="cls-13" d="M261.64,152.74v9.7a2.22,2.22,0,0,1-2.31,2.11H248.72a2.22,2.22,0,0,1-2.31-2.11v-9.7a2.22,2.22,0,0,1,2.31-2.11h10.61a2.22,2.22,0,0,1,2.31,2.11"/><path id="Fill-240" class="cls-13" d="M279.26,152.74v9.7a2.22,2.22,0,0,1-2.31,2.11H266.34a2.22,2.22,0,0,1-2.31-2.11v-9.7a2.22,2.22,0,0,1,2.31-2.11H277a2.22,2.22,0,0,1,2.31,2.11"/><path id="Fill-242" class="cls-13" d="M296.87,152.74v9.7a2.22,2.22,0,0,1-2.31,2.11H284a2.22,2.22,0,0,1-2.31-2.11v-9.7a2.22,2.22,0,0,1,2.31-2.11h10.61a2.22,2.22,0,0,1,2.31,2.11"/><path id="Fill-244" class="cls-13" d="M314.49,152.74v9.7a2.23,2.23,0,0,1-2.32,2.11H301.56a2.22,2.22,0,0,1-2.31-2.11v-9.7a2.22,2.22,0,0,1,2.31-2.11h10.61a2.23,2.23,0,0,1,2.32,2.11"/><path id="Fill-246" class="cls-13" d="M332.1,152.74v9.7a2.23,2.23,0,0,1-2.32,2.11h-10.6a2.23,2.23,0,0,1-2.32-2.11v-9.7a2.23,2.23,0,0,1,2.32-2.11h10.6a2.23,2.23,0,0,1,2.32,2.11"/><path id="Fill-248" class="cls-13" d="M349.71,152.74v9.7a2.22,2.22,0,0,1-2.31,2.11H336.79a2.22,2.22,0,0,1-2.31-2.11v-9.7a2.22,2.22,0,0,1,2.31-2.11H347.4a2.22,2.22,0,0,1,2.31,2.11"/><path id="Fill-250" class="cls-13" d="M120.89,152.74v9.7a2.22,2.22,0,0,1-2.31,2.11h-5.79a2.22,2.22,0,0,1-2.31-2.11v-9.7a2.22,2.22,0,0,1,2.31-2.11h5.79a2.22,2.22,0,0,1,2.31,2.11"/><path id="Fill-252" class="cls-13" d="M125.71,136.65v9.69a2.22,2.22,0,0,1-2.31,2.12H112.79a2.22,2.22,0,0,1-2.31-2.12v-9.69a2.22,2.22,0,0,1,2.31-2.12H123.4a2.22,2.22,0,0,1,2.31,2.12"/><path id="Fill-254" class="cls-13" d="M142.26,136.65v9.69a2.23,2.23,0,0,1-2.32,2.12H129.33a2.23,2.23,0,0,1-2.31-2.12v-9.69a2.23,2.23,0,0,1,2.31-2.12h10.61a2.23,2.23,0,0,1,2.32,2.12"/><path id="Fill-256" class="cls-13" d="M159.22,136.65v9.69a2.23,2.23,0,0,1-2.32,2.12H146.29a2.23,2.23,0,0,1-2.31-2.12v-9.69a2.23,2.23,0,0,1,2.31-2.12H156.9a2.23,2.23,0,0,1,2.32,2.12"/><path id="Fill-258" class="cls-13" d="M175.7,136.35v9.7a2.22,2.22,0,0,1-2.31,2.11H162.78a2.22,2.22,0,0,1-2.31-2.11v-9.7a2.22,2.22,0,0,1,2.31-2.11h10.61a2.22,2.22,0,0,1,2.31,2.11"/><path id="Fill-260" class="cls-13" d="M192.36,136.65v9.69a2.22,2.22,0,0,1-2.31,2.12H179.44a2.23,2.23,0,0,1-2.31-2.12v-9.69a2.23,2.23,0,0,1,2.31-2.12h10.61a2.22,2.22,0,0,1,2.31,2.12"/><path id="Fill-262" class="cls-13" d="M209.15,136.35v9.7a2.22,2.22,0,0,1-2.31,2.11H196.23a2.22,2.22,0,0,1-2.31-2.11v-9.7a2.22,2.22,0,0,1,2.31-2.11h10.61a2.22,2.22,0,0,1,2.31,2.11"/><path id="Fill-264" class="cls-13" d="M225.81,136.65v9.69a2.23,2.23,0,0,1-2.31,2.12H212.89a2.22,2.22,0,0,1-2.31-2.12v-9.69a2.22,2.22,0,0,1,2.31-2.12H223.5a2.23,2.23,0,0,1,2.31,2.12"/><path id="Fill-266" class="cls-13" d="M242.47,136.65v9.69a2.22,2.22,0,0,1-2.31,2.12H229.55a2.22,2.22,0,0,1-2.31-2.12v-9.69a2.22,2.22,0,0,1,2.31-2.12h10.61a2.22,2.22,0,0,1,2.31,2.12"/><path id="Fill-268" class="cls-13" d="M259.13,136.35v9.7a2.22,2.22,0,0,1-2.31,2.11H246.21a2.22,2.22,0,0,1-2.31-2.11v-9.7a2.22,2.22,0,0,1,2.31-2.11h10.61a2.22,2.22,0,0,1,2.31,2.11"/><path id="Fill-270" class="cls-13" d="M276.05,136.65v9.69a2.22,2.22,0,0,1-2.31,2.12H263.13a2.23,2.23,0,0,1-2.32-2.12v-9.69a2.23,2.23,0,0,1,2.32-2.12h10.61a2.22,2.22,0,0,1,2.31,2.12"/><path id="Fill-272" class="cls-13" d="M293.06,136.65v9.69a2.22,2.22,0,0,1-2.31,2.12H280.14a2.22,2.22,0,0,1-2.31-2.12v-9.69a2.22,2.22,0,0,1,2.31-2.12h10.61a2.22,2.22,0,0,1,2.31,2.12"/><path id="Fill-274" class="cls-13" d="M310.07,136.65v9.69a2.22,2.22,0,0,1-2.31,2.12H297.15a2.22,2.22,0,0,1-2.31-2.12v-9.69a2.22,2.22,0,0,1,2.31-2.12h10.61a2.22,2.22,0,0,1,2.31,2.12"/><path id="Fill-276" class="cls-13" d="M327.45,136.35v9.7a2.22,2.22,0,0,1-2.31,2.11H314.53a2.22,2.22,0,0,1-2.31-2.11v-9.7a2.22,2.22,0,0,1,2.31-2.11h10.61a2.22,2.22,0,0,1,2.31,2.11"/><path id="Fill-278" class="cls-13" d="M125.15,125.75v4.95c0,.59-1.06,1.07-2.38,1.07H111.9c-1.31,0-2.37-.48-2.37-1.07v-4.95c0-.6,1.06-1.08,2.37-1.08h10.87c1.32,0,2.38.48,2.38,1.08"/><path id="Fill-280" class="cls-13" d="M142.1,125.75v4.95c0,.59-1.06,1.07-2.37,1.07H128.85c-1.3,0-2.37-.48-2.37-1.07v-4.95c0-.6,1.07-1.08,2.37-1.08h10.88c1.31,0,2.37.48,2.37,1.08"/><path id="Fill-282" class="cls-13" d="M159.49,125.75v4.95c0,.59-1.07,1.07-2.38,1.07H146.24c-1.31,0-2.37-.48-2.37-1.07v-4.95c0-.6,1.06-1.08,2.37-1.08h10.87c1.31,0,2.38.48,2.38,1.08"/><path id="Fill-284" class="cls-13" d="M176.38,125.6v5c0,.59-1.06,1.07-2.37,1.07H163.14c-1.31,0-2.37-.48-2.37-1.07v-5c0-.6,1.06-1.08,2.37-1.08H174c1.31,0,2.37.48,2.37,1.08"/><path id="Fill-286" class="cls-13" d="M193.46,125.75v4.95c0,.59-1.06,1.07-2.37,1.07H180.21c-1.3,0-2.37-.48-2.37-1.07v-4.95c0-.6,1.07-1.08,2.37-1.08h10.88c1.31,0,2.37.48,2.37,1.08"/><path id="Fill-288" class="cls-13" d="M210.66,125.6v5c0,.59-1.06,1.07-2.37,1.07H197.42c-1.31,0-2.37-.48-2.37-1.07v-5c0-.6,1.06-1.08,2.37-1.08h10.87c1.31,0,2.37.48,2.37,1.08"/><path id="Fill-290" class="cls-13" d="M227.73,125.75v4.95c0,.59-1.06,1.07-2.37,1.07H214.49c-1.31,0-2.37-.48-2.37-1.07v-4.95c0-.6,1.06-1.08,2.37-1.08h10.87c1.31,0,2.37.48,2.37,1.08"/><path id="Fill-292" class="cls-13" d="M244.81,125.75v4.95c0,.59-1.06,1.07-2.37,1.07H231.57c-1.32,0-2.37-.48-2.37-1.07v-4.95c0-.6,1.05-1.08,2.37-1.08h10.87c1.31,0,2.37.48,2.37,1.08"/><path id="Fill-294" class="cls-13" d="M261.88,125.6v5c0,.59-1.06,1.07-2.37,1.07H248.64c-1.31,0-2.37-.48-2.37-1.07v-5c0-.6,1.06-1.08,2.37-1.08h10.87c1.31,0,2.37.48,2.37,1.08"/><path id="Fill-296" class="cls-13" d="M279.23,125.75v4.95c0,.59-1.07,1.07-2.37,1.07H266c-1.31,0-2.37-.48-2.37-1.07v-4.95c0-.6,1.06-1.08,2.37-1.08h10.88c1.3,0,2.37.48,2.37,1.08"/><path id="Fill-298" class="cls-13" d="M296.66,125.75v4.95c0,.59-1.06,1.07-2.37,1.07H283.41c-1.3,0-2.37-.48-2.37-1.07v-4.95c0-.6,1.07-1.08,2.37-1.08h10.88c1.31,0,2.37.48,2.37,1.08"/><path id="Fill-300" class="cls-13" d="M314.09,125.75v4.95c0,.59-1.06,1.07-2.37,1.07H300.85c-1.31,0-2.37-.48-2.37-1.07v-4.95c0-.6,1.06-1.08,2.37-1.08h10.87c1.31,0,2.37.48,2.37,1.08"/><path id="Fill-302" class="cls-13" d="M331.9,125.6v5c0,.59-1.06,1.07-2.37,1.07H318.66c-1.31,0-2.37-.48-2.37-1.07v-5c0-.6,1.06-1.08,2.37-1.08h10.87c1.31,0,2.37.48,2.37,1.08"/><path id="Fill-304" class="cls-13" d="M349.71,125.6v5c0,.59-1.06,1.07-2.37,1.07H336.47c-1.31,0-2.37-.48-2.37-1.07v-5c0-.6,1.06-1.08,2.37-1.08h10.87c1.31,0,2.37.48,2.37,1.08"/><path id="Fill-306" class="cls-13" d="M349.71,136.35v9.7c0,1.16-1.36,2.11-3,2.11h-14c-1.69,0-3.06-.95-3.06-2.11v-9.7c0-1.16,1.37-2.11,3.06-2.11h14c1.69,0,3,.95,3,2.11"/><path id="Fill-308" class="cls-13" d="M120.89,201.72v9.69a2.22,2.22,0,0,1-2.31,2.12h-5.79a2.22,2.22,0,0,1-2.31-2.12v-9.69a2.22,2.22,0,0,1,2.31-2.11h5.79a2.22,2.22,0,0,1,2.31,2.11"/><path id="Fill-310" class="cls-13" d="M133.74,201.72v9.69a2.22,2.22,0,0,1-2.31,2.12h-5.79a2.22,2.22,0,0,1-2.31-2.12v-9.69a2.22,2.22,0,0,1,2.31-2.11h5.79a2.22,2.22,0,0,1,2.31,2.11"/><path id="Fill-312" class="cls-13" d="M146.59,201.72v9.69a2.23,2.23,0,0,1-2.31,2.12h-5.79a2.22,2.22,0,0,1-2.31-2.12v-9.69a2.22,2.22,0,0,1,2.31-2.11h5.79a2.22,2.22,0,0,1,2.31,2.11"/><path id="Fill-314" class="cls-13" d="M295.86,201.72v9.69a2.23,2.23,0,0,1-2.32,2.12h-5.78a2.23,2.23,0,0,1-2.32-2.12v-9.69a2.23,2.23,0,0,1,2.32-2.11h5.78a2.23,2.23,0,0,1,2.32,2.11"/><path id="Fill-316" class="cls-13" d="M167.73,201.72v9.69a2.22,2.22,0,0,1-2.31,2.12H151.34a2.22,2.22,0,0,1-2.31-2.12v-9.69a2.22,2.22,0,0,1,2.31-2.11h14.08a2.22,2.22,0,0,1,2.31,2.11"/><path id="Fill-318" class="cls-13" d="M282.9,201.72v9.69a2.23,2.23,0,0,1-2.31,2.12H266.5a2.22,2.22,0,0,1-2.31-2.12v-9.69a2.22,2.22,0,0,1,2.31-2.11h14.09a2.22,2.22,0,0,1,2.31,2.11"/><path id="Fill-320" class="cls-13" d="M349.78,208.68v2.73a2.22,2.22,0,0,1-2.31,2.11H336.75a2.21,2.21,0,0,1-2.31-2.11v-2.73a2.21,2.21,0,0,1,2.31-2.11h10.72a2.22,2.22,0,0,1,2.31,2.11"/><path id="Fill-322" class="cls-13" d="M332.06,208.68v2.73a2.22,2.22,0,0,1-2.31,2.11H319a2.21,2.21,0,0,1-2.31-2.11v-2.73a2.21,2.21,0,0,1,2.31-2.11h10.72a2.22,2.22,0,0,1,2.31,2.11"/><path id="Fill-324" class="cls-13" d="M332.06,201.72v2.74a2.22,2.22,0,0,1-2.31,2.11H319a2.22,2.22,0,0,1-2.31-2.11v-2.74a2.22,2.22,0,0,1,2.31-2.11h10.72a2.22,2.22,0,0,1,2.31,2.11"/><path id="Fill-326" class="cls-13" d="M314,208.68v2.73a2.21,2.21,0,0,1-2.31,2.11H300.94a2.22,2.22,0,0,1-2.31-2.11v-2.73a2.22,2.22,0,0,1,2.31-2.11h10.72a2.21,2.21,0,0,1,2.31,2.11"/><path id="Fill-328" class="cls-13" d="M261.64,201.72v9.69a2.22,2.22,0,0,1-2.31,2.12h-87a2.22,2.22,0,0,1-2.31-2.12v-9.69a2.22,2.22,0,0,1,2.31-2.11h87a2.22,2.22,0,0,1,2.31,2.11"/><g class="cls-14"><polygon id="Fill-330" class="cls-15" points="127 114.82 332.93 114.82 332.93 106.32 127 106.32 127 114.82"/></g><g class="cls-14"><path id="Fill-332" class="cls-16" d="M328.73,100.12H131.22a4.2,4.2,0,0,0-4.2,4.2v4.11H332.93v-4.11a4.2,4.2,0,0,0-4.2-4.2"/></g><g class="cls-14"><polyline id="Fill-333" class="cls-17" points="333.85 49.45 333.85 59.56 333.85 59.63 333.85 61.64 174.33 61.64 174.33 59.63 174.33 59.56 174.33 49.45"/></g><g class="cls-14"><path id="Fill-334" class="cls-17" d="M91,49.45v47c0,5,4.07,9.12,9.34,9.76h0a10.89,10.89,0,0,0,1.41.09H358.12c5.95,0,10.78-4.41,10.78-9.85v-47"/></g><g class="cls-14"><path id="Fill-335" d="M168.09,61.64H342.58M368.9,49.45H91V91.24a5.65,5.65,0,0,0,5.88,5.38H363a5.66,5.66,0,0,0,5.89-5.38"/></g><g class="cls-14"><polygon id="Fill-336" class="cls-18" points="174.33 59.16 333.85 59.16 333.85 49.46 174.33 49.46 174.33 59.16"/></g><g class="cls-14"><polyline id="Fill-337" class="cls-18" points="356.2 49.46 356.2 86.89 103.72 86.89 103.72 49.46 168.09 49.45"/></g><g class="cls-14"><path id="Fill-338" class="cls-19" d="M255.89,71.33H205.44A1.42,1.42,0,0,0,204,72.75V85.48a1.42,1.42,0,0,0,1.42,1.42h50.45a1.43,1.43,0,0,0,1.42-1.42V72.75a1.43,1.43,0,0,0-1.42-1.42"/></g><g class="cls-14"><polygon id="Fill-339" class="cls-1" points="170.72 59.11 342.79 59.11 342.79 49.46 170.72 49.46 170.72 59.11"/></g><g class="cls-14"><path id="Fill-340" class="cls-20" d="M115.69,49.45V66.18a2.81,2.81,0,0,0,3,2.58h220.9a2.82,2.82,0,0,0,3-2.58V59.63H174.33V49.45"/></g><g class="cls-14"><path id="Stroke-341" class="cls-21" d="M342.58,59.56H116.16"/></g><g class="cls-14"><polyline id="Stroke-342" class="cls-21" points="174.33 59.63 174.33 59.56 174.33 49.45"/></g><g class="cls-14"><path id="Fill-343" class="cls-22" d="M209,297.63c0-1.2,1.92-2.16,4.28-2.16h37.3c2.36,0,4.28,1,4.28,2.16Z"/></g><g class="cls-14"><path id="Fill-344" class="cls-4" d="M254.81,297.66c0,1.19-1.92,2.16-4.28,2.16h-37.3c-2.36,0-4.28-1-4.28-2.16Z"/></g><g class="cls-14"><path id="Fill-345" class="cls-23" d="M217.73,85.12a.48.48,0,1,1-.48-.49.48.48,0,0,1,.48.49"/></g><g class="cls-14"><path id="Fill-346" class="cls-24" d="M218.4,82.57h-4.57a.82.82,0,0,1-.85-.78V74.38a.82.82,0,0,1,.85-.78h3.34L216,76.69c-.11.31.15.62.54.62h.65a.6.6,0,0,1,.5.26h0a.85.85,0,0,1,.06.17Z"/></g><g class="cls-14"><path id="Fill-347" class="cls-25" d="M221.9,74.38v7.41a.85.85,0,0,1-.9.78h-2.6l-.62-4.83a.85.85,0,0,0-.06-.17h0a.6.6,0,0,0-.5-.26h-.65c-.39,0-.65-.31-.54-.62l1.14-3.09H221a.85.85,0,0,1,.9.78"/></g><g class="cls-14"><path id="Stroke-348" class="cls-26" d="M214.86,76.74V75.29"/></g><g class="cls-14"><path id="Stroke-349" class="cls-26" d="M219.3,76.74V75.29"/></g><g class="cls-14"><path id="Stroke-350" class="cls-26" d="M214.86,79.75s2.51,1.7,4.78,0"/></g><g class="cls-14"><path id="Fill-351" class="cls-27" d="M234.19,82.57h-6.54a1.26,1.26,0,0,1-1.27-1.26V74.77a1.26,1.26,0,0,1,1.27-1.26h6.54a1.25,1.25,0,0,1,1.26,1.26v6.54a1.25,1.25,0,0,1-1.26,1.26"/></g><g class="cls-14"><path id="Fill-352" class="cls-28" d="M233.85,82.24H228A1.26,1.26,0,0,1,226.72,81V75.1A1.26,1.26,0,0,1,228,73.84h5.87a1.27,1.27,0,0,1,1.27,1.26V81a1.27,1.27,0,0,1-1.27,1.26"/></g><text class="cls-29" transform="translate(227.5 79.35)">Xd</text><path id="Fill-354" class="cls-30" d="M247.55,83.38h-6.32A1.26,1.26,0,0,1,240,82.11V75.76a1.26,1.26,0,0,1,1.26-1.27h6.32a1.27,1.27,0,0,1,1.27,1.27v6.35a1.27,1.27,0,0,1-1.27,1.27"/><path id="Fill-356" class="cls-31" d="M247.55,82.7h-6.32A1.26,1.26,0,0,1,240,81.43V75.09a1.26,1.26,0,0,1,1.26-1.27h6.32a1.27,1.27,0,0,1,1.27,1.27v6.34a1.27,1.27,0,0,1-1.27,1.27"/><path id="Fill-358" class="cls-32" d="M246.57,81.71h-4.35A1.26,1.26,0,0,1,241,80.44V76.08a1.26,1.26,0,0,1,1.26-1.27h4.35a1.27,1.27,0,0,1,1.26,1.27v4.36a1.27,1.27,0,0,1-1.26,1.27"/><polygon id="Fill-360" class="cls-33" points="243.95 75.41 241.56 75.41 241.56 81 243.95 81 243.95 80.05 242.75 80.05 242.75 76.3 243.95 76.3 243.95 75.41"/><polygon id="Fill-362" class="cls-33" points="244.82 81 247.34 81 247.34 75.41 244.82 75.41 244.82 76.36 246.07 76.36 246.07 80.11 244.82 80.11 244.82 81"/><g class="cls-34"><path id="Fill-364" class="cls-35" d="M101.91,107S92,105.57,91,114.07l49.38,35.16H371.55V114.07s.3-6.36-7.79-7.07c-8.46.06-261.85,0-261.85,0"/></g></svg>