<svg id="Layer_1" data-name="Layer 1" xmlns="http://www.w3.org/2000/svg" viewBox="0 0 1892 595"><defs><style>.cls-1,.cls-11{font-size:21px;}.cls-1,.cls-44,.cls-59{fill:#2f76c9;}.cls-1,.cls-11,.cls-22,.cls-59{font-family:CircularStd-Medium, Circular Std;}.cls-2{letter-spacing:-0.01em;}.cls-3{letter-spacing:0em;}.cls-4{letter-spacing:0em;}.cls-5{letter-spacing:-0.01em;}.cls-6{letter-spacing:0em;}.cls-7{letter-spacing:-0.03em;}.cls-8{letter-spacing:0em;}.cls-9{letter-spacing:0em;}.cls-10{letter-spacing:0em;}.cls-12{letter-spacing:0em;}.cls-13{letter-spacing:-0.01em;}.cls-14{letter-spacing:0em;}.cls-15{letter-spacing:0em;}.cls-16{letter-spacing:-0.01em;}.cls-17{letter-spacing:0.01em;}.cls-18{letter-spacing:-0.05em;}.cls-19{letter-spacing:0em;}.cls-20{letter-spacing:-0.01em;}.cls-21{letter-spacing:-0.01em;}.cls-22,.cls-59{font-size:18px;}.cls-22{fill:#acacac;}.cls-23{letter-spacing:0em;}.cls-24{letter-spacing:0em;}.cls-25{letter-spacing:0em;}.cls-26{letter-spacing:0em;}.cls-27{letter-spacing:-0.01em;}.cls-28{letter-spacing:0em;}.cls-29{letter-spacing:0.01em;}.cls-30{letter-spacing:0em;}.cls-31{letter-spacing:0em;}.cls-32{letter-spacing:-0.01em;}.cls-33{letter-spacing:0em;}.cls-34{letter-spacing:-0.02em;}.cls-35{letter-spacing:0.01em;}.cls-36{letter-spacing:-0.02em;}.cls-37{letter-spacing:-0.03em;}.cls-38{letter-spacing:-0.01em;}.cls-39{letter-spacing:-0.01em;}.cls-40{letter-spacing:-0.01em;}.cls-41{letter-spacing:0em;}.cls-42{letter-spacing:-0.05em;}.cls-43{letter-spacing:-0.05em;}.cls-45{fill:none;stroke:#2f76c9;stroke-miterlimit:10;stroke-width:2px;}.cls-46{letter-spacing:0.01em;}.cls-47{letter-spacing:-0.05em;}.cls-48{letter-spacing:-0.06em;}.cls-49{letter-spacing:0em;}.cls-50{letter-spacing:-0.02em;}.cls-51{letter-spacing:0em;}.cls-52{letter-spacing:0em;}.cls-53{letter-spacing:-0.02em;}.cls-54{letter-spacing:-0.01em;}.cls-55{letter-spacing:0em;}.cls-56{letter-spacing:-0.03em;}.cls-57{letter-spacing:0.01em;}.cls-58{letter-spacing:-0.01em;}.cls-60{letter-spacing:-0.04em;}.cls-61{letter-spacing:0.01em;}.cls-62{letter-spacing:-0.1em;}.cls-63{letter-spacing:0em;}.cls-64{letter-spacing:-0.01em;}.cls-65{letter-spacing:0.02em;}.cls-66{letter-spacing:0.01em;}.cls-67{letter-spacing:-0.02em;}.cls-68{letter-spacing:-0.05em;}.cls-69{letter-spacing:-0.02em;}.cls-70{letter-spacing:-0.01em;}.cls-71{letter-spacing:-0.02em;}.cls-72{letter-spacing:-0.01em;}.cls-73{letter-spacing:-0.05em;}</style></defs><title>bCourse Insights</title><text class="cls-1" transform="translate(569.56 382.4)">E<tspan class="cls-2" x="12.22" y="0">x</tspan><tspan class="cls-3" x="22.68" y="0">c</tspan><tspan x="33.94" y="0">essi</tspan><tspan class="cls-2" x="70.2" y="0">v</tspan><tspan x="80.91" y="0">e </tspan><tspan class="cls-4" x="97.63" y="0">U</tspan><tspan class="cls-5" x="111.86" y="0">n</tspan><tspan x="123.77" y="0">u</tspan><tspan class="cls-6" x="135.89" y="0">s</tspan><tspan x="145.42" y="0">ed </tspan><tspan class="cls-7" x="174.78" y="0">F</tspan><tspan x="185.78" y="0">e</tspan><tspan class="cls-8" x="197.29" y="0">a</tspan><tspan class="cls-9" x="208.42" y="0">t</tspan><tspan x="216.15" y="0">u</tspan><tspan class="cls-10" x="228.26" y="0">r</tspan><tspan x="236.18" y="0">es</tspan></text><text class="cls-11" transform="translate(513.6 433.4)"><tspan class="cls-8">U</tspan><tspan class="cls-6" x="14.3" y="0">s</tspan><tspan x="23.83" y="0">e</tspan><tspan class="cls-12" x="35.34" y="0">r</tspan><tspan x="43.39" y="0">s </tspan><tspan class="cls-2" x="58.19" y="0">f</tspan><tspan class="cls-6" x="65.22" y="0">o</tspan><tspan x="77.32" y="0">und </tspan><tspan class="cls-13" x="119.34" y="0">t</tspan><tspan x="126.75" y="0">h</tspan><tspan class="cls-14" x="138.81" y="0">a</tspan><tspan x="149.94" y="0">t </tspan><tspan class="cls-13" x="162.81" y="0">t</tspan><tspan x="170.22" y="0">he </tspan><tspan class="cls-5" x="198.99" y="0">e</tspan><tspan class="cls-2" x="210.35" y="0">x</tspan><tspan class="cls-3" x="220.81" y="0">c</tspan><tspan x="232.06" y="0">essi</tspan><tspan class="cls-2" x="268.33" y="0">v</tspan><tspan x="279.04" y="0">e am</tspan><tspan class="cls-10" x="325.26" y="0">o</tspan><tspan x="337.36" y="0">unt </tspan><tspan x="30.09" y="30">of u</tspan><tspan class="cls-5" x="66.93" y="30">n</tspan><tspan x="78.83" y="30">u</tspan><tspan class="cls-10" x="90.95" y="30">s</tspan><tspan x="100.48" y="30">ed </tspan><tspan class="cls-2" x="129.84" y="30">f</tspan><tspan x="136.87" y="30">e</tspan><tspan class="cls-8" x="148.38" y="30">a</tspan><tspan class="cls-9" x="159.51" y="30">t</tspan><tspan x="167.24" y="30">u</tspan><tspan class="cls-10" x="179.36" y="30">r</tspan><tspan x="187.27" y="30">es (mes</tspan><tspan class="cls-5" x="259.68" y="30">s</tspan><tspan class="cls-15" x="269.13" y="30">a</tspan><tspan x="280.28" y="30">ges or </tspan><tspan class="cls-6" x="6.75" y="60">c</tspan><tspan x="18.05" y="60">alen</tspan><tspan class="cls-8" x="58.37" y="60">d</tspan><tspan x="70.97" y="60">a</tspan><tspan class="cls-16" x="82.14" y="60">r</tspan><tspan x="89.97" y="60">) and blo</tspan><tspan class="cls-8" x="173.34" y="60">a</tspan><tspan class="cls-17" x="184.47" y="60">t</tspan><tspan class="cls-10" x="192.28" y="60">w</tspan><tspan x="209.31" y="60">a</tspan><tspan class="cls-6" x="220.49" y="60">r</tspan><tspan x="228.4" y="60">e </tspan><tspan class="cls-10" x="245.12" y="60">r</tspan><tspan x="253.04" y="60">e</tspan><tspan class="cls-3" x="264.54" y="60">s</tspan><tspan x="274.03" y="60">ul</tspan><tspan class="cls-6" x="291.74" y="60">t</tspan><tspan x="299.34" y="60">ed in </tspan><tspan class="cls-18" x="351.52" y="60" xml:space="preserve"> -</tspan><tspan x="362.44" y="60" xml:space="preserve">  </tspan><tspan x="12.86" y="90">n</tspan><tspan class="cls-6" x="24.92" y="90">o</tspan><tspan class="cls-19" x="37.01" y="90">t</tspan><tspan x="44.72" y="90">ing </tspan><tspan class="cls-20" x="79.91" y="90">t</tspan><tspan x="87.33" y="90">h</tspan><tspan class="cls-8" x="99.38" y="90">a</tspan><tspan x="110.51" y="90">t </tspan><tspan class="cls-13" x="123.38" y="90">t</tspan><tspan x="130.79" y="90">h</tspan><tspan class="cls-21" x="142.85" y="90">e</tspan><tspan x="154.19" y="90">y u</tspan><tspan class="cls-6" x="182.92" y="90">s</tspan><tspan x="192.45" y="90">ed mo</tspan><tspan class="cls-10" x="252.3" y="90">r</tspan><tspan x="260.21" y="90">e efficient </tspan><tspan x="125.41" y="120">al</tspan><tspan class="cls-6" x="142.17" y="120">t</tspan><tspan x="149.77" y="120">e</tspan><tspan class="cls-19" x="161.28" y="120">r</tspan><tspan x="169.3" y="120">n</tspan><tspan class="cls-8" x="181.35" y="120">a</tspan><tspan class="cls-19" x="192.48" y="120">t</tspan><tspan x="200.19" y="120">i</tspan><tspan class="cls-2" x="205.75" y="120">v</tspan><tspan x="216.46" y="120">es.</tspan></text><text class="cls-22" transform="translate(530.18 72.23)"><tspan class="cls-23">N</tspan><tspan class="cls-24" x="13.72" y="0">a</tspan><tspan x="23.2" y="0">vi</tspan><tspan class="cls-24" x="37.42" y="0">g</tspan><tspan class="cls-25" x="47.93" y="0">a</tspan><tspan class="cls-26" x="57.47" y="0">t</tspan><tspan x="64.08" y="0">ing </tspan><tspan class="cls-27" x="94.25" y="0">t</tspan><tspan x="100.6" y="0">he si</tspan><tspan class="cls-23" x="138.26" y="0">t</tspan><tspan class="cls-28" x="144.77" y="0">e ge</tspan><tspan class="cls-29" x="179.57" y="0">t</tspan><tspan x="186.32" y="0">s </tspan><tspan class="cls-23" x="199.01" y="0">r</tspan><tspan x="205.79" y="0">eally f</tspan><tspan class="cls-30" x="255.35" y="0">r</tspan><tspan x="262.24" y="0">us</tspan><tspan class="cls-5" x="280.85" y="0">t</tspan><tspan class="cls-31" x="287.29" y="0">r</tspan><tspan class="cls-25" x="294.19" y="0">a</tspan><tspan class="cls-26" x="303.73" y="0">t</tspan><tspan x="310.33" y="0">ing </tspan><tspan x="-20.23" y="21.6">be</tspan><tspan class="cls-23" x="0.5" y="21.6">c</tspan><tspan class="cls-32" x="10.19" y="21.6">a</tspan><tspan x="19.62" y="21.6">u</tspan><tspan class="cls-23" x="30.01" y="21.6">s</tspan><tspan x="38.18" y="21.6">e </tspan><tspan class="cls-27" x="52.5" y="21.6">t</tspan><tspan x="58.86" y="21.6">he</tspan><tspan class="cls-33" x="79.05" y="21.6">r</tspan><tspan x="85.84" y="21.6">e a</tspan><tspan class="cls-23" x="109.74" y="21.6">r</tspan><tspan x="116.53" y="21.6">e </tspan><tspan class="cls-23" x="130.86" y="21.6">s</tspan><tspan x="139.03" y="21.6">o ma</tspan><tspan class="cls-24" x="179.21" y="21.6">n</tspan><tspan x="189.45" y="21.6">y diffe</tspan><tspan class="cls-23" x="241.22" y="21.6">r</tspan><tspan x="248" y="21.6">ent </tspan><tspan class="cls-34" x="279.23" y="21.6">f</tspan><tspan x="285.26" y="21.6">e</tspan><tspan class="cls-25" x="295.12" y="21.6">a</tspan><tspan class="cls-30" x="304.66" y="21.6">t</tspan><tspan x="311.29" y="21.6">u</tspan><tspan class="cls-23" x="321.67" y="21.6">r</tspan><tspan x="328.46" y="21.6">es I </tspan><tspan x="-16.81" y="43.2">need </tspan><tspan class="cls-23" x="28.55" y="43.2">t</tspan><tspan x="35.06" y="43.2">o si</tspan><tspan class="cls-35" x="62.95" y="43.2">f</tspan><tspan x="69.46" y="43.2">t </tspan><tspan class="cls-27" x="80.49" y="43.2">t</tspan><tspan x="86.85" y="43.2">h</tspan><tspan class="cls-23" x="97.18" y="43.2">rou</tspan><tspan x="124.67" y="43.2">gh </tspan><tspan class="cls-23" x="150.06" y="43.2">t</tspan><tspan x="156.58" y="43.2">o find wh</tspan><tspan class="cls-25" x="233.22" y="43.2">a</tspan><tspan x="242.76" y="43.2">t I </tspan><tspan class="cls-23" x="263.52" y="43.2">w</tspan><tspan x="278.11" y="43.2" xml:space="preserve">ant.  Li</tspan><tspan class="cls-36" x="333.61" y="43.2">k</tspan><tspan x="342.99" y="43.2">e </tspan><tspan x="-21.39" y="64.8">I</tspan><tspan class="cls-37" x="-16.14" y="64.8">’</tspan><tspan x="-12.59" y="64.8">m n</tspan><tspan class="cls-38" x="17.92" y="64.8">e</tspan><tspan class="cls-39" x="27.6" y="64.8">v</tspan><tspan class="cls-28" x="36.78" y="64.8">er gonna u</tspan><tspan class="cls-23" x="124.06" y="64.8">s</tspan><tspan x="132.24" y="64.8">e mes</tspan><tspan class="cls-40" x="180.37" y="64.8">s</tspan><tspan class="cls-41" x="188.47" y="64.8">a</tspan><tspan x="198.02" y="64.8">ging</tspan><tspan class="cls-42" x="234.33" y="64.8"> </tspan><tspan x="237.89" y="64.8">-</tspan><tspan class="cls-43" x="244.59" y="64.8">-</tspan><tspan x="250.39" y="64.8" xml:space="preserve"> I’ll just email </tspan><tspan class="cls-24" x="135.44" y="86.4">m</tspan><tspan x="151.06" y="86.4">y GSI.</tspan></text><path class="cls-44" d="M694.08,48.85c-2.18,0-3.71-1.66-3.71-4.21,0-5.79,3.89-8.11,6.67-8.39V38.8a4.6,4.6,0,0,0-3.66,4.13,2.35,2.35,0,0,1,1-.24,3,3,0,0,1,3.1,3.11A3.2,3.2,0,0,1,694.08,48.85Zm8.57,0c-2.13,0-3.71-1.66-3.71-4.21,0-5.79,3.94-8.11,6.67-8.39V38.8A4.59,4.59,0,0,0,702,42.93a2,2,0,0,1,.93-.24A2.94,2.94,0,0,1,706,45.8,3.2,3.2,0,0,1,702.65,48.85Z"/><line class="cls-45" x1="597.03" y1="177.75" x2="800.03" y2="177.75"/><line class="cls-45" x1="698.03" y1="177.75" x2="698.03" y2="312.75"/><circle class="cls-45" cx="698.02" cy="328.76" r="16"/><path class="cls-44" d="M694,327.29a5.76,5.76,0,0,1-.05-.66,3.86,3.86,0,0,1,4.16-3.84c2.57,0,4.1,1.68,4.1,3.68a4.2,4.2,0,0,1-2.25,3.61l-2.27,1.41a2.51,2.51,0,0,0-1.19,1.33h5.78v1.91H693.8a5.32,5.32,0,0,1,2.77-4.83l1.93-1.2a2.57,2.57,0,0,0,1.49-2.2,1.79,1.79,0,0,0-2-1.82,2,2,0,0,0-2,2.16c0,.18,0,.4,0,.6Z"/><text class="cls-11" transform="translate(17.69 433.4)"><tspan class="cls-8">S</tspan><tspan class="cls-12" x="12.54" y="0">t</tspan><tspan class="cls-6" x="20.27" y="0">u</tspan><tspan x="32.32" y="0">den</tspan><tspan class="cls-46" x="68.52" y="0">t</tspan><tspan x="76.4" y="0">s </tspan><tspan class="cls-2" x="91.2" y="0">f</tspan><tspan x="98.24" y="0">eel </tspan><tspan class="cls-13" x="132.04" y="0">t</tspan><tspan x="139.46" y="0">h</tspan><tspan class="cls-8" x="151.51" y="0">a</tspan><tspan x="162.64" y="0">t </tspan><tspan class="cls-13" x="175.51" y="0">t</tspan><tspan x="182.93" y="0">he </tspan><tspan class="cls-13" x="211.7" y="0">w</tspan><tspan x="228.54" y="0">eb appli</tspan><tspan class="cls-10" x="305.63" y="0">c</tspan><tspan class="cls-8" x="316.92" y="0">a</tspan><tspan class="cls-19" x="328.05" y="0">t</tspan><tspan x="335.76" y="0">io</tspan><tspan class="cls-47" x="353.48" y="0">n</tspan><tspan class="cls-48" x="364.55" y="0">’</tspan><tspan x="368.23" y="0">s </tspan><tspan class="cls-5" x="2.01" y="30">c</tspan><tspan x="13.22" y="30">u</tspan><tspan class="cls-19" x="25.34" y="30">r</tspan><tspan class="cls-10" x="33.36" y="30">r</tspan><tspan x="41.28" y="30">ent in</tspan><tspan class="cls-6" x="95.33" y="30">t</tspan><tspan x="102.93" y="30">e</tspan><tspan class="cls-12" x="114.44" y="30">r</tspan><tspan class="cls-49" x="122.48" y="30">a</tspan><tspan x="133.63" y="30">c</tspan><tspan class="cls-19" x="144.99" y="30">t</tspan><tspan x="152.7" y="30">ions </tspan><tspan class="cls-6" x="197.28" y="30">r</tspan><tspan x="205.2" y="30">equi</tspan><tspan class="cls-10" x="246.9" y="30">r</tspan><tspan x="254.82" y="30">e </tspan><tspan class="cls-13" x="271.54" y="30">t</tspan><tspan x="278.95" y="30">hem </tspan><tspan class="cls-6" x="326.05" y="30">t</tspan><tspan x="333.65" y="30">o do </tspan><tspan class="cls-5" x="1.03" y="60">e</tspan><tspan class="cls-2" x="12.39" y="60">x</tspan><tspan class="cls-4" x="22.85" y="60">c</tspan><tspan x="34.1" y="60">essi</tspan><tspan class="cls-2" x="70.37" y="60">v</tspan><tspan x="81.08" y="60">e am</tspan><tspan class="cls-6" x="127.3" y="60">o</tspan><tspan x="139.39" y="60">un</tspan><tspan class="cls-46" x="163.56" y="60">t</tspan><tspan x="171.44" y="60">s of </tspan><tspan class="cls-13" x="210.96" y="60">w</tspan><tspan x="227.8" y="60">o</tspan><tspan class="cls-19" x="239.96" y="60">r</tspan><tspan x="247.98" y="60">ks</tspan><tspan class="cls-18" x="269" y="60" xml:space="preserve"> -</tspan><tspan x="279.92" y="60" xml:space="preserve"> p</tspan><tspan class="cls-10" x="297.81" y="60">r</tspan><tspan class="cls-2" x="305.73" y="60">o</tspan><tspan x="317.57" y="60">viding </tspan><tspan class="cls-13" x="1.74" y="90">t</tspan><tspan x="9.16" y="90">he </tspan><tspan class="cls-16" x="37.92" y="90">e</tspan><tspan class="cls-8" x="49.29" y="90">x</tspan><tspan x="60.02" y="90">ample of h</tspan><tspan class="cls-3" x="161.27" y="90">a</tspan><tspan x="172.34" y="90">ving </tspan><tspan class="cls-6" x="218.56" y="90">t</tspan><tspan x="226.16" y="90">o open </tspan><tspan class="cls-16" x="297.14" y="90">m</tspan><tspan x="315.33" y="90">ul</tspan><tspan class="cls-19" x="333.03" y="90">t</tspan><tspan x="340.74" y="90">iple </tspan><tspan x="77.56" y="120">p</tspan><tspan class="cls-49" x="90.25" y="120">a</tspan><tspan x="101.4" y="120">ges </tspan><tspan class="cls-10" x="140.08" y="120">t</tspan><tspan x="147.68" y="120">o </tspan><tspan class="cls-6" x="165.05" y="120">f</tspan><tspan x="172.33" y="120">ulfill one </tspan><tspan class="cls-12" x="260.34" y="120">t</tspan><tspan x="268.07" y="120">ask </tspan></text><text class="cls-22" transform="translate(41.75 72.23)"><tspan class="cls-50">S</tspan><tspan x="10.46" y="0">ubmit</tspan><tspan class="cls-51" x="58.77" y="0">t</tspan><tspan class="cls-52" x="65.37" y="0">ing an assignment </tspan><tspan class="cls-23" x="218.59" y="0">c</tspan><tspan x="228.27" y="0">an get </tspan><tspan class="cls-23" x="284.15" y="0">r</tspan><tspan x="290.93" y="0">eally </tspan><tspan x="-23.95" y="21.6">ann</tspan><tspan class="cls-53" x="6.29" y="21.6">o</tspan><tspan x="16.32" y="21.6">ying be</tspan><tspan class="cls-23" x="77" y="21.6">c</tspan><tspan class="cls-32" x="86.68" y="21.6">a</tspan><tspan x="96.11" y="21.6">u</tspan><tspan class="cls-23" x="106.5" y="21.6">s</tspan><tspan x="114.67" y="21.6">e a</tspan><tspan class="cls-35" x="138.57" y="21.6">f</tspan><tspan class="cls-23" x="145.09" y="21.6">t</tspan><tspan x="151.6" y="21.6">er I open </tspan><tspan class="cls-27" x="228.44" y="21.6">t</tspan><tspan x="234.8" y="21.6">he assignment </tspan><tspan x="-21.34" y="43.2">de</tspan><tspan class="cls-23" x="-0.64" y="43.2">s</tspan><tspan x="7.53" y="43.2">c</tspan><tspan class="cls-51" x="17.27" y="43.2">r</tspan><tspan x="24.15" y="43.2">i</tspan><tspan class="cls-23" x="28.92" y="43.2">p</tspan><tspan class="cls-26" x="39.73" y="43.2">t</tspan><tspan x="46.34" y="43.2">ion p</tspan><tspan class="cls-41" x="87.2" y="43.2">a</tspan><tspan x="96.76" y="43.2">g</tspan><tspan class="cls-54" x="107.36" y="43.2">e</tspan><tspan x="116.99" y="43.2">, I need </tspan><tspan class="cls-33" x="182" y="43.2">t</tspan><tspan x="188.52" y="43.2">o open a n</tspan><tspan class="cls-40" x="273.73" y="43.2">e</tspan><tspan x="283.47" y="43.2">w </tspan><tspan class="cls-30" x="302.59" y="43.2">t</tspan><tspan x="309.21" y="43.2">ab </tspan><tspan class="cls-23" x="334.12" y="43.2">t</tspan><tspan x="340.64" y="43.2">o </tspan><tspan x="-27.2" y="64.8">open </tspan><tspan class="cls-27" x="18.76" y="64.8">t</tspan><tspan x="25.11" y="64.8">he </tspan><tspan class="cls-5" x="49.77" y="64.8">s</tspan><tspan x="57.87" y="64.8">yl</tspan><tspan class="cls-55" x="72.43" y="64.8">l</tspan><tspan x="77.18" y="64.8">a</tspan><tspan class="cls-33" x="86.76" y="64.8">b</tspan><tspan x="97.58" y="64.8">us, </tspan><tspan class="cls-27" x="126.12" y="64.8">t</tspan><tspan x="132.48" y="64.8">hen an</tspan><tspan class="cls-23" x="187.38" y="64.8">o</tspan><tspan class="cls-27" x="197.75" y="64.8">t</tspan><tspan x="204.1" y="64.8">her </tspan><tspan class="cls-5" x="235.6" y="64.8">[</tspan><tspan class="cls-30" x="240.95" y="64.8">t</tspan><tspan x="247.57" y="64.8">a</tspan><tspan class="cls-56" x="257.15" y="64.8">b</tspan><tspan x="267.53" y="64.8">] </tspan><tspan class="cls-23" x="277.47" y="64.8">t</tspan><tspan x="283.98" y="64.8">o get </tspan><tspan class="cls-27" x="330.37" y="64.8">t</tspan><tspan x="336.72" y="64.8">he </tspan><tspan x="117.67" y="86.4">files I nee</tspan><tspan class="cls-23" x="195.94" y="86.4">d</tspan><tspan x="206.72" y="86.4">.</tspan></text><path class="cls-44" d="M202.48,48.85c-2.17,0-3.7-1.66-3.7-4.21,0-5.79,3.89-8.11,6.67-8.39V38.8a4.58,4.58,0,0,0-3.66,4.13,2.29,2.29,0,0,1,1-.24,3,3,0,0,1,3.1,3.11A3.19,3.19,0,0,1,202.48,48.85Zm8.57,0c-2.13,0-3.7-1.66-3.7-4.21,0-5.79,3.93-8.11,6.67-8.39V38.8a4.6,4.6,0,0,0-3.62,4.13,2.1,2.1,0,0,1,.93-.24,2.94,2.94,0,0,1,3.1,3.11A3.19,3.19,0,0,1,211.05,48.85Z"/><text class="cls-1" transform="translate(59.74 382.4)"><tspan class="cls-8">H</tspan><tspan x="15.58" y="0">e</tspan><tspan class="cls-3" x="27.09" y="0">a</tspan><tspan class="cls-57" x="38.16" y="0">v</tspan><tspan x="49.33" y="0">y </tspan><tspan class="cls-8" x="65.94" y="0">U</tspan><tspan class="cls-6" x="80.24" y="0">s</tspan><tspan x="89.77" y="0">er In</tspan><tspan class="cls-10" x="132.65" y="0">t</tspan><tspan x="140.26" y="0">e</tspan><tspan class="cls-9" x="151.76" y="0">r</tspan><tspan class="cls-15" x="159.81" y="0">a</tspan><tspan x="170.96" y="0">c</tspan><tspan class="cls-19" x="182.32" y="0">t</tspan><tspan x="190.03" y="0">ion </tspan><tspan class="cls-58" x="225.01" y="0">B</tspan><tspan x="237.48" y="0">u</tspan><tspan class="cls-10" x="249.6" y="0">r</tspan><tspan x="257.52" y="0">den</tspan></text><line class="cls-45" x1="104.43" y1="177.75" x2="307.43" y2="177.75"/><line class="cls-45" x1="205.43" y1="177.75" x2="205.43" y2="313.75"/><circle class="cls-45" cx="205.43" cy="329.75" r="16"/><text class="cls-59" transform="translate(202.05 335.29)">1</text><text class="cls-1" transform="translate(1027.71 382.4)">Imp<tspan class="cls-6" x="37.15" y="0">r</tspan><tspan class="cls-2" x="45.06" y="0">ov</tspan><tspan x="67.62" y="0">ed Dashboa</tspan><tspan class="cls-10" x="180.97" y="0">r</tspan><tspan x="188.89" y="0">d </tspan><tspan class="cls-60" x="206.74" y="0">F</tspan><tspan x="217.56" y="0">unc</tspan><tspan class="cls-19" x="253.09" y="0">t</tspan><tspan x="260.79" y="0">ionali</tspan><tspan class="cls-61" x="312.89" y="0">t</tspan><tspan x="320.77" y="0">y</tspan></text><text class="cls-11" transform="translate(1009.2 433.4)"><tspan class="cls-8">U</tspan><tspan class="cls-6" x="14.3" y="0">s</tspan><tspan x="23.83" y="0">e</tspan><tspan class="cls-12" x="35.34" y="0">r</tspan><tspan x="43.39" y="0">s </tspan><tspan class="cls-2" x="58.19" y="0">f</tspan><tspan class="cls-6" x="65.22" y="0">o</tspan><tspan x="77.32" y="0">und </tspan><tspan class="cls-13" x="119.34" y="0">t</tspan><tspan x="126.75" y="0">h</tspan><tspan class="cls-14" x="138.81" y="0">a</tspan><tspan x="149.94" y="0">t </tspan><tspan class="cls-13" x="162.81" y="0">t</tspan><tspan x="170.22" y="0">he </tspan><tspan class="cls-5" x="198.99" y="0">e</tspan><tspan class="cls-2" x="210.35" y="0">x</tspan><tspan class="cls-3" x="220.81" y="0">c</tspan><tspan x="232.06" y="0">essi</tspan><tspan class="cls-2" x="268.33" y="0">v</tspan><tspan x="279.04" y="0">e am</tspan><tspan class="cls-10" x="325.26" y="0">o</tspan><tspan x="337.36" y="0">unt </tspan><tspan x="30.09" y="30">of u</tspan><tspan class="cls-5" x="66.93" y="30">n</tspan><tspan x="78.83" y="30">u</tspan><tspan class="cls-10" x="90.95" y="30">s</tspan><tspan x="100.48" y="30">ed </tspan><tspan class="cls-2" x="129.84" y="30">f</tspan><tspan x="136.87" y="30">e</tspan><tspan class="cls-8" x="148.38" y="30">a</tspan><tspan class="cls-9" x="159.51" y="30">t</tspan><tspan x="167.24" y="30">u</tspan><tspan class="cls-10" x="179.36" y="30">r</tspan><tspan x="187.27" y="30">es (mes</tspan><tspan class="cls-5" x="259.68" y="30">s</tspan><tspan class="cls-15" x="269.13" y="30">a</tspan><tspan x="280.28" y="30">ges or </tspan><tspan class="cls-6" x="6.63" y="60">c</tspan><tspan x="17.92" y="60">alen</tspan><tspan class="cls-8" x="58.24" y="60">d</tspan><tspan x="70.84" y="60">a</tspan><tspan class="cls-16" x="82.01" y="60">r</tspan><tspan x="89.85" y="60">) and blo</tspan><tspan class="cls-8" x="173.21" y="60">a</tspan><tspan class="cls-17" x="184.34" y="60">t</tspan><tspan class="cls-10" x="192.16" y="60">w</tspan><tspan x="209.19" y="60">a</tspan><tspan class="cls-6" x="220.36" y="60">r</tspan><tspan x="228.28" y="60">e </tspan><tspan class="cls-10" x="244.99" y="60">r</tspan><tspan x="252.91" y="60">e</tspan><tspan class="cls-3" x="264.42" y="60">s</tspan><tspan x="273.91" y="60">ul</tspan><tspan class="cls-6" x="291.61" y="60">t</tspan><tspan x="299.21" y="60">ed in a </tspan><tspan class="cls-3" x="-7.99" y="90">c</tspan><tspan x="3.27" y="90">on</tspan><tspan class="cls-10" x="27.48" y="90">f</tspan><tspan x="34.76" y="90">using </tspan><tspan class="cls-5" x="91.67" y="90">e</tspan><tspan x="103.03" y="90">xpe</tspan><tspan class="cls-19" x="138" y="90">r</tspan><tspan x="146.02" y="90">ien</tspan><tspan class="cls-4" x="175.15" y="90">c</tspan><tspan x="186.4" y="90">e </tspan><tspan class="cls-18" x="203.12" y="90" xml:space="preserve"> -</tspan><tspan x="214.04" y="90" xml:space="preserve">  n</tspan><tspan class="cls-6" x="236.51" y="90">o</tspan><tspan class="cls-19" x="248.6" y="90">t</tspan><tspan x="256.31" y="90">ing </tspan><tspan class="cls-13" x="291.5" y="90">t</tspan><tspan x="298.92" y="90">h</tspan><tspan class="cls-8" x="310.97" y="90">a</tspan><tspan x="322.1" y="90">t </tspan><tspan class="cls-20" x="334.97" y="90">t</tspan><tspan x="342.39" y="90">h</tspan><tspan class="cls-21" x="354.44" y="90">e</tspan><tspan x="365.78" y="90">y </tspan><tspan x="30.04" y="120">u</tspan><tspan class="cls-6" x="42.16" y="120">s</tspan><tspan x="51.69" y="120">ed mo</tspan><tspan class="cls-10" x="111.54" y="120">r</tspan><tspan x="119.46" y="120">e efficient al</tspan><tspan class="cls-6" x="237.54" y="120">t</tspan><tspan x="245.14" y="120">e</tspan><tspan class="cls-19" x="256.65" y="120">r</tspan><tspan x="264.67" y="120">n</tspan><tspan class="cls-8" x="276.72" y="120">a</tspan><tspan class="cls-19" x="287.85" y="120">t</tspan><tspan x="295.56" y="120">i</tspan><tspan class="cls-2" x="301.12" y="120">v</tspan><tspan x="311.83" y="120">es.</tspan></text><text class="cls-22" transform="translate(1041.86 86.23)"><tspan class="cls-25">I</tspan><tspan x="5.22" y="0">deall</tspan><tspan class="cls-62" x="45.07" y="0">y</tspan><tspan x="52.99" y="0">, if i </tspan><tspan class="cls-63" x="87.69" y="0">c</tspan><tspan class="cls-33" x="97.34" y="0">o</tspan><tspan x="107.71" y="0">uld get </tspan><tspan class="cls-64" x="169.68" y="0">e</tspan><tspan class="cls-34" x="179.37" y="0">v</tspan><tspan x="188.55" y="0">e</tspan><tspan class="cls-65" x="198.41" y="0">r</tspan><tspan class="cls-66" x="205.61" y="0">y</tspan><tspan class="cls-27" x="215.56" y="0">t</tspan><tspan x="221.92" y="0">hing done </tspan><tspan x="-18.2" y="21.6">s</tspan><tspan class="cls-5" x="-9.97" y="21.6">t</tspan><tspan class="cls-31" x="-3.53" y="21.6">r</tspan><tspan x="3.37" y="21.6">aight f</tspan><tspan class="cls-33" x="55.98" y="21.6">r</tspan><tspan x="62.77" y="21.6">om </tspan><tspan class="cls-27" x="93.36" y="21.6">t</tspan><tspan x="99.72" y="21.6">he </tspan><tspan class="cls-55" x="124.38" y="21.6">d</tspan><tspan x="135.18" y="21.6">ashboa</tspan><tspan class="cls-33" x="194.18" y="21.6">r</tspan><tspan x="200.97" y="21.6">d and n</tspan><tspan class="cls-23" x="261.81" y="21.6">o</tspan><tspan x="272.18" y="21.6">t h</tspan><tspan class="cls-24" x="293.54" y="21.6">a</tspan><tspan class="cls-34" x="303.03" y="21.6">v</tspan><tspan x="312.21" y="21.6">e </tspan><tspan class="cls-23" x="-14.12" y="43.2">t</tspan><tspan x="-7.61" y="43.2">o click </tspan><tspan class="cls-27" x="50.57" y="43.2">t</tspan><tspan x="56.92" y="43.2">h</tspan><tspan class="cls-33" x="67.26" y="43.2">rou</tspan><tspan x="94.74" y="43.2">gh </tspan><tspan class="cls-23" x="120.14" y="43.2">s</tspan><tspan x="128.31" y="43.2">o ma</tspan><tspan class="cls-24" x="168.49" y="43.2">n</tspan><tspan x="178.73" y="43.2">y wind</tspan><tspan class="cls-27" x="233.56" y="43.2">o</tspan><tspan x="243.76" y="43.2">w</tspan><tspan class="cls-42" x="258.41" y="43.2" xml:space="preserve"> —</tspan><tspan x="280.73" y="43.2"> </tspan><tspan class="cls-27" x="285.2" y="43.2">t</tspan><tspan x="291.55" y="43.2">h</tspan><tspan class="cls-25" x="301.88" y="43.2">a</tspan><tspan x="311.42" y="43.2">t </tspan><tspan class="cls-27" x="92.8" y="64.8">w</tspan><tspan class="cls-23" x="107.23" y="64.8">o</tspan><tspan x="117.6" y="64.8">uld be sic</tspan><tspan class="cls-33" x="196.01" y="64.8">k</tspan><tspan x="205.74" y="64.8">.</tspan></text><path class="cls-44" d="M1189.68,59.85c-2.18,0-3.71-1.66-3.71-4.21,0-5.79,3.89-8.11,6.67-8.39V49.8a4.58,4.58,0,0,0-3.66,4.13,2.29,2.29,0,0,1,1-.24,3,3,0,0,1,3.11,3.11A3.2,3.2,0,0,1,1189.68,59.85Zm8.57,0c-2.14,0-3.71-1.66-3.71-4.21,0-5.79,3.94-8.11,6.67-8.39V49.8a4.59,4.59,0,0,0-3.61,4.13,2,2,0,0,1,.92-.24,2.94,2.94,0,0,1,3.11,3.11A3.2,3.2,0,0,1,1198.25,59.85Z"/><line class="cls-45" x1="1092.63" y1="177.75" x2="1295.63" y2="177.75"/><line class="cls-45" x1="1193.63" y1="177.75" x2="1193.63" y2="312.75"/><circle class="cls-45" cx="1193.62" cy="328.76" r="16"/><text class="cls-59" transform="translate(1188.66 333.76)">3</text><text class="cls-1" transform="translate(1532.77 386.4)"><tspan class="cls-6">F</tspan><tspan x="11.63" y="0">ile </tspan><tspan class="cls-16" x="39.5" y="0">S</tspan><tspan x="51.93" y="0">ea</tspan><tspan class="cls-6" x="74.61" y="0">r</tspan><tspan x="82.53" y="0">ch/ </tspan><tspan class="cls-10" x="120.73" y="0">F</tspan><tspan x="132.36" y="0">il</tspan><tspan class="cls-6" x="143.51" y="0">t</tspan><tspan x="151.11" y="0">er </tspan><tspan class="cls-60" x="175.81" y="0">F</tspan><tspan x="186.62" y="0">unc</tspan><tspan class="cls-19" x="222.16" y="0">t</tspan><tspan x="229.86" y="0">ionali</tspan><tspan class="cls-46" x="281.96" y="0">t</tspan><tspan x="289.84" y="0">y</tspan></text><text class="cls-11" transform="translate(1490.95 437.4)"><tspan class="cls-8">S</tspan><tspan class="cls-12" x="12.54" y="0">t</tspan><tspan class="cls-6" x="20.27" y="0">u</tspan><tspan x="32.32" y="0">den</tspan><tspan class="cls-67" x="68.52" y="0">t</tspan><tspan class="cls-68" x="75.83" y="0">’</tspan><tspan x="79.5" y="0">s a</tspan><tspan class="cls-6" x="105.48" y="0">r</tspan><tspan x="113.4" y="0">e f</tspan><tspan class="cls-12" x="137.46" y="0">r</tspan><tspan x="145.51" y="0">us</tspan><tspan class="cls-5" x="167.22" y="0">t</tspan><tspan class="cls-12" x="174.74" y="0">r</tspan><tspan class="cls-8" x="182.78" y="0">a</tspan><tspan class="cls-6" x="193.91" y="0">t</tspan><tspan x="201.51" y="0">ed wi</tspan><tspan class="cls-20" x="253.53" y="0">t</tspan><tspan x="260.94" y="0">h </tspan><tspan class="cls-20" x="278.2" y="0">t</tspan><tspan x="285.61" y="0">he </tspan><tspan class="cls-5" x="314.38" y="0">c</tspan><tspan x="325.6" y="0">u</tspan><tspan class="cls-19" x="337.71" y="0">r</tspan><tspan class="cls-6" x="345.74" y="0">r</tspan><tspan x="353.65" y="0">ent </tspan><tspan x="1.68" y="30">file o</tspan><tspan class="cls-6" x="49.14" y="30">r</tspan><tspan class="cls-4" x="57.05" y="30">g</tspan><tspan x="69.32" y="30">ani</tspan><tspan class="cls-9" x="98.11" y="30">z</tspan><tspan class="cls-8" x="108.13" y="30">a</tspan><tspan class="cls-19" x="119.26" y="30">t</tspan><tspan x="126.96" y="30">ion </tspan><tspan class="cls-8" x="161.95" y="30">l</tspan><tspan class="cls-20" x="167.49" y="30">a</tspan><tspan class="cls-69" x="178.41" y="30">y</tspan><tspan class="cls-6" x="189.35" y="30">o</tspan><tspan x="201.45" y="30">ut and in</tspan><tspan class="cls-10" x="285.13" y="30">t</tspan><tspan x="292.73" y="30">e</tspan><tspan class="cls-9" x="304.24" y="30">r</tspan><tspan class="cls-15" x="312.28" y="30">a</tspan><tspan x="323.43" y="30">c</tspan><tspan class="cls-19" x="334.8" y="30">t</tspan><tspan x="342.5" y="30">ion</tspan><tspan class="cls-18" x="372.28" y="30" xml:space="preserve"> -</tspan><tspan x="383.2" y="30"> </tspan><tspan x="-3.62" y="60">n</tspan><tspan class="cls-6" x="8.43" y="60">o</tspan><tspan class="cls-19" x="20.53" y="60">t</tspan><tspan x="28.23" y="60">ing </tspan><tspan class="cls-20" x="63.43" y="60">t</tspan><tspan x="70.84" y="60">h</tspan><tspan class="cls-8" x="82.9" y="60">a</tspan><tspan x="94.03" y="60">t it is diffi</tspan><tspan class="cls-5" x="183.65" y="60">c</tspan><tspan x="194.86" y="60">ult </tspan><tspan class="cls-6" x="225.44" y="60">t</tspan><tspan x="233.04" y="60">o u</tspan><tspan class="cls-10" x="262.52" y="60">s</tspan><tspan x="272.06" y="60">e </tspan><tspan class="cls-13" x="288.77" y="60">t</tspan><tspan x="296.19" y="60">he </tspan><tspan class="cls-6" x="324.96" y="60">s</tspan><tspan x="334.49" y="60">ea</tspan><tspan class="cls-10" x="357.17" y="60">r</tspan><tspan x="365.09" y="60">ch </tspan><tspan x="93.37" y="90">or fil</tspan><tspan class="cls-6" x="137.31" y="90">t</tspan><tspan x="144.91" y="90">er </tspan><tspan class="cls-10" x="169.6" y="90">f</tspan><tspan x="176.89" y="90">unc</tspan><tspan class="cls-19" x="212.42" y="90">t</tspan><tspan x="220.13" y="90">ionali</tspan><tspan class="cls-46" x="272.23" y="90">t</tspan><tspan x="280.1" y="90">y </tspan></text><text class="cls-22" transform="translate(1518.27 74.97)"><tspan class="cls-25">H</tspan><tspan x="13.36" y="0">ones</tspan><tspan class="cls-27" x="52.2" y="0">t</tspan><tspan x="58.55" y="0">l</tspan><tspan class="cls-62" x="63.34" y="0">y</tspan><tspan x="71.26" y="0">, finding </tspan><tspan class="cls-27" x="143.67" y="0">t</tspan><tspan x="150.03" y="0">he file I </tspan><tspan class="cls-23" x="214.66" y="0">w</tspan><tspan x="229.26" y="0">ant is </tspan><tspan class="cls-24" x="277.66" y="0">s</tspan><tspan class="cls-23" x="285.8" y="0">u</tspan><tspan x="296.13" y="0">ch a </tspan><tspan x="1.58" y="21.6">hassl</tspan><tspan class="cls-70" x="42.72" y="21.6">e</tspan><tspan x="52.35" y="21.6" xml:space="preserve">.  Li</tspan><tspan class="cls-71" x="81.37" y="21.6">k</tspan><tspan x="90.75" y="21.6">e fi</tspan><tspan class="cls-30" x="116.21" y="21.6">r</tspan><tspan x="123.11" y="21.6">st I need </tspan><tspan class="cls-23" x="197.45" y="21.6">t</tspan><tspan x="203.96" y="21.6">o dig </tspan><tspan class="cls-72" x="249.52" y="21.6">t</tspan><tspan x="255.87" y="21.6">h</tspan><tspan class="cls-23" x="266.21" y="21.6">rou</tspan><tspan x="293.69" y="21.6">gh a </tspan><tspan class="cls-23" x="33.96" y="43.2">b</tspan><tspan x="44.77" y="43.2">unch of </tspan><tspan class="cls-34" x="111.21" y="43.2">f</tspan><tspan x="117.24" y="43.2">olde</tspan><tspan class="cls-30" x="153.15" y="43.2">r</tspan><tspan x="160.04" y="43.2">s find </tspan><tspan class="cls-27" x="209.51" y="43.2">t</tspan><tspan x="215.86" y="43.2">he pdf </tspan><tspan class="cls-34" x="272.99" y="43.2">f</tspan><tspan x="279.02" y="43.2">or </tspan><tspan class="cls-53" x="1" y="64.8">y</tspan><tspan x="10.38" y="64.8">es</tspan><tspan class="cls-23" x="28.47" y="64.8">t</tspan><tspan x="34.98" y="64.8">e</tspan><tspan class="cls-23" x="44.85" y="64.8">r</tspan><tspan class="cls-25" x="51.63" y="64.8">d</tspan><tspan class="cls-27" x="62.43" y="64.8">a</tspan><tspan x="71.79" y="64.8">y</tspan><tspan class="cls-73" x="81.57" y="64.8">’</tspan><tspan x="84.72" y="64.8">s lec</tspan><tspan class="cls-30" x="121.8" y="64.8">t</tspan><tspan x="128.42" y="64.8">u</tspan><tspan class="cls-23" x="138.8" y="64.8">r</tspan><tspan class="cls-70" x="145.59" y="64.8">e</tspan><tspan x="155.22" y="64.8">, </tspan><tspan class="cls-27" x="165.16" y="64.8">t</tspan><tspan x="171.51" y="64.8">hen it </tspan><tspan class="cls-30" x="222.31" y="64.8">t</tspan><tspan x="228.93" y="64.8">a</tspan><tspan class="cls-71" x="238.51" y="64.8">k</tspan><tspan x="247.88" y="64.8">es </tspan><tspan class="cls-34" x="270.44" y="64.8">f</tspan><tspan x="276.47" y="64.8">o</tspan><tspan class="cls-33" x="286.89" y="64.8">r</tspan><tspan class="cls-64" x="293.67" y="64.8">e</tspan><tspan class="cls-34" x="303.36" y="64.8">v</tspan><tspan x="312.54" y="64.8">er </tspan><tspan class="cls-23" x="51.09" y="86.4">t</tspan><tspan x="57.61" y="86.4">o look </tspan><tspan class="cls-34" x="112.38" y="86.4">f</tspan><tspan x="118.41" y="86.4">or </tspan><tspan class="cls-23" x="140.14" y="86.4">t</tspan><tspan x="146.65" y="86.4">o</tspan><tspan class="cls-25" x="157.07" y="86.4">d</tspan><tspan class="cls-27" x="167.87" y="86.4">a</tspan><tspan x="177.23" y="86.4">y</tspan><tspan class="cls-48" x="187.01" y="86.4">’</tspan><tspan x="190.16" y="86.4">s </tspan><tspan class="cls-23" x="202.85" y="86.4">r</tspan><tspan x="209.63" y="86.4">e</tspan><tspan class="cls-15" x="219.5" y="86.4">a</tspan><tspan x="229.06" y="86.4">dings.</tspan></text><path class="cls-44" d="M1679.27,50.85c-2.18,0-3.7-1.66-3.7-4.21,0-5.79,3.89-8.11,6.67-8.39V40.8a4.58,4.58,0,0,0-3.66,4.13,2.29,2.29,0,0,1,1-.24,3,3,0,0,1,3.1,3.11A3.19,3.19,0,0,1,1679.27,50.85Zm8.57,0c-2.13,0-3.7-1.66-3.7-4.21,0-5.79,3.93-8.11,6.67-8.39V40.8a4.6,4.6,0,0,0-3.62,4.13,2.1,2.1,0,0,1,.93-.24,2.94,2.94,0,0,1,3.1,3.11A3.19,3.19,0,0,1,1687.84,50.85Z"/><line class="cls-45" x1="1582.22" y1="181.75" x2="1785.22" y2="181.75"/><line class="cls-45" x1="1683.22" y1="181.75" x2="1683.22" y2="316.75"/><circle class="cls-45" cx="1683.22" cy="332.76" r="16"/><text class="cls-59" transform="translate(1677.93 337.76)">4</text></svg>