<?xml version="1.0" encoding="UTF-8"?>
<svg width="1224px" height="600px" viewBox="0 0 1224 600" version="1.1" xmlns="http://www.w3.org/2000/svg" xmlns:xlink="http://www.w3.org/1999/xlink">
    <!-- Generator: Sketch 51.3 (57544) - http://www.bohemiancoding.com/sketch -->
    <title>Helix Cover</title>
    <desc>Created with Sketch.</desc>
    <defs>
        <polygon id="path-1" points="0.601168627 0.822498611 115.899 0.822498611 115.899 152.02522 0.601168627 152.02522"></polygon>
        <polygon id="path-3" points="0.5186 0.823262987 80.899 0.823262987 80.899 59.3184 0.5186 59.3184"></polygon>
        <polygon id="path-5" points="0.2608 0.7336 388.9238 0.7336 388.9238 20 0.2608 20"></polygon>
        <polygon id="path-7" points="0 0.758 391.1855 0.758 391.1855 29.779 0 29.779"></polygon>
        <polygon id="path-9" points="0 363 551.899 363 551.899 0.88 0 0.88"></polygon>
    </defs>
    <g id="Page-1" stroke="none" stroke-width="1" fill="none" fill-rule="evenodd">
        <g id="Desktop-HD-Copy-5" transform="translate(-111.000000, -83.000000)">
            <g id="Helix-Cover" transform="translate(111.000000, 83.000000)">
                <g id="Group-3">
                    <g id="Group-2">
                        <rect id="Rectangle-4" fill="#9744E2" x="0" y="0" width="1224" height="600"></rect>
                        <g id="Group" transform="translate(414.000000, 475.000000)" font-family="Lato-Bold, Lato" font-size="48" font-weight="bold" letter-spacing="0.825">
                            <text id="bCourse-Redesign-Copy" fill="#401665">
                                <tspan x="2.476" y="48">bCourse Redesign</tspan>
                            </text>
                            <text id="bCourse-Redesign" fill="#FFFFFF">
                                <tspan x="0.476" y="47">bCourse Redesign</tspan>
                            </text>
                        </g>
                    </g>
                    <g id="Group-345" transform="translate(643.000000, 145.000000)" fill="#20912D">
                        <polygon id="Fill-1" points="0 0 0 0.049 0.009 0"></polygon>
                        <polygon id="Fill-2" points="0 0 0 0.049 0.009 0"></polygon>
                        <path d="M0,0 L0,0.049 L0.01,0 L0,0 Z M0,0.136 L0.01,0.136 L0,0.107 L0,0.136 Z" id="Fill-3"></path>
                        <polygon id="Fill-4" points="0 0.048 0.009 0.048 0 0"></polygon>
                        <polygon id="Fill-5" points="0 0.048 0.009 0.048 0 0"></polygon>
                        <polygon id="Fill-6" points="0 0.048 0.009 0.048 0 0"></polygon>
                        <polygon id="Fill-7" points="0 0 0 0.049 0.009 0"></polygon>
                    </g>
                </g>
                <g id="Group-383" transform="translate(333.000000, 77.000000)">
                    <g id="Group-369" transform="translate(0.000000, 0.120000)">
                        <path d="M512.583,256.1564 C505.418,272.4894 486.655,280.0524 470.683,273.0464 L455.306,266.3004 C439.33,259.2924 432.191,240.3664 439.356,224.0324 L512.583,256.1564 Z" id="Fill-1" fill="#494949"></path>
                        <g id="Group-5" transform="translate(436.000000, 122.000000)">
                            <mask id="mask-2" fill="white">
                                <use xlink:href="#path-1"></use>
                            </mask>
                            <g id="Clip-4"></g>
                            <path d="M113.1709,53.0041 L78.2119,132.6931 C71.0469,149.0271 51.9909,156.4621 35.6569,149.2971 L19.9329,142.3991 C3.5959,135.2321 -3.8351,116.1781 3.3299,99.8441 L38.2889,20.1541 C45.4549,3.8181 64.5059,-3.6149 80.8429,3.5521 L96.5669,10.4501 C112.9009,17.6151 120.3369,36.6681 113.1709,53.0041" id="Fill-3" fill="#F9F9F9" mask="url(#mask-2)"></path>
                        </g>
                        <path d="M458.6709,265.5998 L455.9329,264.3988 C439.5959,257.2318 432.1649,238.1778 439.3299,221.8438 L474.2889,142.1548 C481.4549,125.8178 500.5059,118.3848 516.8429,125.5518 L519.5809,126.7528 C503.2449,119.5868 484.1929,127.0188 477.0269,143.3558 L442.0679,223.0448 C434.9029,239.3788 442.3349,258.4328 458.6709,265.5998" id="Fill-6" fill="#FFFFFF"></path>
                        <path d="M517.0596,248.2023 L514.2896,254.5153 C507.1246,270.8483 488.0696,278.2843 471.7356,271.1183 L456.0106,264.2203 C439.6736,257.0543 432.2426,237.9993 439.4086,221.6663 L442.1776,215.3523 C435.0106,231.6883 442.4446,250.7403 458.7806,257.9063 L474.5056,264.8053 C490.8386,271.9703 509.8926,264.5383 517.0596,248.2023" id="Fill-8" fill="#EFEFEF"></path>
                        <g id="Group-12" transform="translate(471.000000, 122.000000)">
                            <mask id="mask-4" fill="white">
                                <use xlink:href="#path-3"></use>
                            </mask>
                            <g id="Clip-11"></g>
                            <path d="M0.5186,26.4684 L3.2896,20.1544 C10.4546,3.8214 29.5096,-3.6136 45.8426,3.5514 L61.5676,10.4494 C77.9046,17.6164 85.3356,36.6704 78.1706,53.0044 L75.4006,59.3184 C82.5676,42.9814 75.1346,23.9304 58.7976,16.7634 L43.0736,9.8654 C26.7396,2.7004 7.6856,10.1314 0.5186,26.4684" id="Fill-10" fill="#EFEFEF" mask="url(#mask-4)"></path>
                        </g>
                        <path d="M472.5859,243.8498 C472.4999,243.8118 472.4139,243.7748 472.3279,243.7368 C472.2579,243.6758 472.1839,243.6188 472.1169,243.5528 C471.8819,243.3208 471.7459,243.0278 471.6479,242.7188 C471.3959,241.9298 471.2629,241.1208 471.2819,240.2908 C471.3039,239.3468 471.4719,238.4318 471.8629,237.5658 C472.1449,236.9428 472.5299,236.3958 473.0839,235.9868 C473.7679,235.4808 474.5349,235.2868 475.3789,235.4438 C475.7139,235.5048 476.0369,235.6128 476.3019,235.8358 C476.5659,236.0598 476.8189,236.2968 477.0699,236.5368 C477.2879,236.7428 477.5119,236.9218 477.8349,236.9228 C478.0469,236.9238 478.2589,236.9448 478.4719,236.9568 C478.8179,236.9788 479.1659,237.0088 479.4919,237.1408 C480.1229,237.3958 480.6299,237.7998 480.9739,238.3958 C481.1149,238.6408 481.2089,238.9048 481.2589,239.1878 C481.2319,239.1938 481.2109,239.1998 481.1899,239.2038 C480.9059,239.2578 480.6349,239.3508 480.3779,239.4828 C479.6939,239.8328 479.2669,240.3888 479.0679,241.1248 C478.9309,241.6398 478.9559,242.1468 479.1409,242.6458 C479.2539,242.9518 479.4169,243.2268 479.6279,243.4738 C479.6709,243.5238 479.6859,243.5608 479.6299,243.6138 C479.5339,243.7038 479.4479,243.8028 479.3559,243.8958 C478.9569,244.2878 478.5089,244.6168 478.0269,244.8998 C477.6849,245.1008 477.3409,245.2988 476.9499,245.3968 C476.5929,245.4878 476.2519,245.4608 475.9219,245.2878 C475.6699,245.1568 475.4659,244.9698 475.2809,244.7608 C474.8759,244.3028 474.3759,244.0278 473.7679,243.9598 C473.6149,243.9438 473.4609,243.9538 473.3089,243.9388 C473.0669,243.9148 472.8269,243.8798 472.5859,243.8498" id="Fill-13" fill="#E4E4E4"></path>
                        <path d="M477.6807,236.1926 C478.0587,234.9716 479.6247,234.2056 480.9227,234.6706 C480.8827,234.7606 480.8487,234.8536 480.8037,234.9406 C480.4387,235.6446 479.8707,236.1086 479.1077,236.3156 C478.6447,236.4406 478.1797,236.4356 477.7347,236.2206 C477.7177,236.2126 477.7017,236.2036 477.6807,236.1926" id="Fill-15" fill="#E4E4E4"></path>
                        <g id="Group-19" transform="translate(1.000000, 343.000000)">
                            <mask id="mask-6" fill="white">
                                <use xlink:href="#path-5"></use>
                            </mask>
                            <g id="Clip-18"></g>
                            <path d="M388.9238,0.7336 L388.9238,10.0696 C388.9238,15.5536 384.0918,20.0006 378.1318,20.0006 L11.0538,20.0006 C5.0928,20.0006 0.2608,15.5536 0.2608,10.0696 L0.2608,0.7336 L388.9238,0.7336 Z" id="Fill-17" fill="#565656" mask="url(#mask-6)"></path>
                        </g>
                        <g id="Group-22" transform="translate(0.000000, 330.000000)">
                            <mask id="mask-8" fill="white">
                                <use xlink:href="#path-7"></use>
                            </mask>
                            <g id="Clip-21"></g>
                            <path d="M391.1855,0.758 L391.1855,14.82 C391.1855,23.081 386.3225,29.779 380.3225,29.779 L10.8635,29.779 C4.8635,29.779 -0.0005,23.081 -0.0005,14.82 L-0.0005,0.758 L391.1855,0.758 Z" id="Fill-20" fill="#D6D6D6" mask="url(#mask-8)"></path>
                        </g>
                        <path d="M374.959,350.4426 L16.226,350.4426 C7.265,350.4426 0,343.1776 0,334.2156 L0,97.2066 C0,88.2446 7.265,80.9806 16.226,80.9806 L374.959,80.9806 C383.921,80.9806 391.186,88.2446 391.186,97.2066 L391.186,334.2156 C391.186,343.1776 383.921,350.4426 374.959,350.4426" id="Fill-23" fill="#EFF0F0"></path>
                        <path d="M252.0781,337.841 L141.7421,337.841 C137.2111,337.841 133.5371,334.168 133.5371,329.637 L133.5371,255.418 C133.5371,250.887 137.2111,247.213 141.7421,247.213 L252.0781,247.213 C256.6101,247.213 260.2831,250.887 260.2831,255.418 L260.2831,329.637 C260.2831,334.168 256.6101,337.841 252.0781,337.841" id="Fill-25" fill="#E0E0E0"></path>
                        <path d="M249.9297,336.3049 L143.8917,336.3049 C139.3607,336.3049 135.6867,332.6309 135.6867,328.0999 L135.6867,256.9549 C135.6867,252.4239 139.3607,248.7499 143.8917,248.7499 L249.9297,248.7499 C254.4607,248.7499 258.1337,252.4239 258.1337,256.9549 L258.1337,328.0999 C258.1337,332.6309 254.4607,336.3049 249.9297,336.3049" id="Fill-27" fill="#F5F6F6"></path>
                        <path d="M364.7266,238.7902 L26.4586,238.7902 C23.6866,238.7902 21.4396,236.5422 21.4396,233.7702 L21.4396,106.1312 C21.4396,103.3592 23.6866,101.1112 26.4586,101.1112 L364.7266,101.1112 C367.4986,101.1112 369.7466,103.3592 369.7466,106.1312 L369.7466,233.7702 C369.7466,236.5422 367.4986,238.7902 364.7266,238.7902" id="Fill-29" fill="#C9C9C9"></path>
                        <path d="M362.6914,236.9533 L28.4944,236.9533 C25.7214,236.9533 23.4744,234.7063 23.4744,231.9333 L23.4744,107.9783 C23.4744,105.2053 25.7214,102.9583 28.4944,102.9583 L362.6914,102.9583 C365.4624,102.9583 367.7114,105.2053 367.7114,107.9783 L367.7114,231.9333 C367.7114,234.7063 365.4624,236.9533 362.6914,236.9533" id="Fill-31" fill="#E2E2E2"></path>
                        <g id="Group-189" transform="translate(26.000000, 107.000000)" fill="#4C4C4C">
                            <path d="M91.2871,83.3068 C93.0881,83.3068 94.5411,84.6408 94.5411,86.2868 L94.5411,99.9418 C94.5411,101.5818 93.0881,102.9158 91.2871,102.9158 L76.3511,102.9158 C74.5501,102.9158 73.0981,101.5818 73.0981,99.9418 L73.0981,86.2868 C73.0981,84.6408 74.5501,83.3068 76.3511,83.3068 L91.2871,83.3068 Z" id="Fill-33"></path>
                            <path d="M44.4102,86.2873 L44.4102,99.9413 C44.4102,101.5823 42.9512,102.9163 41.1562,102.9163 L5.3052,102.9163 C3.5052,102.9163 2.0522,101.5823 2.0522,99.9413 L2.0522,86.2873 C2.0522,84.6413 3.5052,83.3073 5.3052,83.3073 L41.1562,83.3073 C42.9512,83.3073 44.4102,84.6413 44.4102,86.2873" id="Fill-35"></path>
                            <path d="M339.1348,86.2873 L339.1348,99.9413 C339.1348,101.5823 337.6828,102.9163 335.8818,102.9163 L300.0308,102.9163 C298.2368,102.9163 296.7778,101.5823 296.7778,99.9413 L296.7778,86.2873 C296.7778,84.6413 298.2368,83.3073 300.0308,83.3073 L335.8818,83.3073 C337.6828,83.3073 339.1348,84.6413 339.1348,86.2873" id="Fill-37"></path>
                            <path d="M69.5694,86.2873 L69.5694,99.9413 C69.5694,101.5823 68.1094,102.9163 66.3154,102.9163 L51.3794,102.9163 C49.5784,102.9163 48.1264,101.5823 48.1264,99.9413 L48.1264,86.2873 C48.1264,84.6413 49.5784,83.3073 51.3794,83.3073 L66.3154,83.3073 C68.1094,83.3073 69.5694,84.6413 69.5694,86.2873" id="Fill-39"></path>
                            <path d="M119.3389,86.2873 L119.3389,99.9413 C119.3389,101.5823 117.8789,102.9163 116.0849,102.9163 L101.1489,102.9163 C99.3479,102.9163 97.8949,101.5823 97.8949,99.9413 L97.8949,86.2873 C97.8949,84.6413 99.3479,83.3073 101.1489,83.3073 L116.0849,83.3073 C117.8789,83.3073 119.3389,84.6413 119.3389,86.2873" id="Fill-41"></path>
                            <path d="M144.1357,86.2873 L144.1357,99.9413 C144.1357,101.5823 142.6767,102.9163 140.8817,102.9163 L125.9397,102.9163 C124.1457,102.9163 122.6857,101.5823 122.6857,99.9413 L122.6857,86.2873 C122.6857,84.6413 124.1457,83.3073 125.9397,83.3073 L140.8817,83.3073 C142.6767,83.3073 144.1357,84.6413 144.1357,86.2873" id="Fill-43"></path>
                            <path d="M169.1074,86.2873 L169.1074,99.9413 C169.1074,101.5823 167.6474,102.9163 165.8534,102.9163 L150.9184,102.9163 C149.1174,102.9163 147.6644,101.5823 147.6644,99.9413 L147.6644,86.2873 C147.6644,84.6413 149.1174,83.3073 150.9184,83.3073 L165.8534,83.3073 C167.6474,83.3073 169.1074,84.6413 169.1074,86.2873" id="Fill-45"></path>
                            <path d="M193.9053,86.2873 L193.9053,99.9413 C193.9053,101.5823 192.4453,102.9163 190.6513,102.9163 L175.7083,102.9163 C173.9143,102.9163 172.4553,101.5823 172.4553,99.9413 L172.4553,86.2873 C172.4553,84.6413 173.9143,83.3073 175.7083,83.3073 L190.6513,83.3073 C192.4453,83.3073 193.9053,84.6413 193.9053,86.2873" id="Fill-47"></path>
                            <path d="M218.7021,86.2873 L218.7021,99.9413 C218.7021,101.5823 217.2431,102.9163 215.4421,102.9163 L200.5061,102.9163 C198.7121,102.9163 197.2521,101.5823 197.2521,99.9413 L197.2521,86.2873 C197.2521,84.6413 198.7121,83.3073 200.5061,83.3073 L215.4421,83.3073 C217.2431,83.3073 218.7021,84.6413 218.7021,86.2873" id="Fill-49"></path>
                            <path d="M243.6738,86.2873 L243.6738,99.9413 C243.6738,101.5823 242.2148,102.9163 240.4208,102.9163 L225.4778,102.9163 C223.6838,102.9163 222.2238,101.5823 222.2238,99.9413 L222.2238,86.2873 C222.2238,84.6413 223.6838,83.3073 225.4778,83.3073 L240.4208,83.3073 C242.2148,83.3073 243.6738,84.6413 243.6738,86.2873" id="Fill-51"></path>
                            <path d="M268.4648,86.2873 L268.4648,99.9413 C268.4648,101.5823 267.0128,102.9163 265.2108,102.9163 L250.2758,102.9163 C248.4818,102.9163 247.0218,101.5823 247.0218,99.9413 L247.0218,86.2873 C247.0218,84.6413 248.4818,83.3073 250.2758,83.3073 L265.2108,83.3073 C267.0128,83.3073 268.4648,84.6413 268.4648,86.2873" id="Fill-53"></path>
                            <path d="M293.2627,86.2873 L293.2627,99.9413 C293.2627,101.5823 291.8097,102.9163 290.0087,102.9163 L275.0727,102.9163 C273.2717,102.9163 271.8197,101.5823 271.8197,99.9413 L271.8197,86.2873 C271.8197,84.6413 273.2717,83.3073 275.0727,83.3073 L290.0087,83.3073 C291.8097,83.3073 293.2627,84.6413 293.2627,86.2873" id="Fill-55"></path>
                            <path d="M56.166,63.3302 L56.166,76.9842 C56.166,78.6312 54.713,79.9582 52.912,79.9582 L37.977,79.9582 C36.183,79.9582 34.723,78.6312 34.723,76.9842 L34.723,63.3302 C34.723,61.6842 36.183,60.3552 37.977,60.3552 L52.912,60.3552 C54.713,60.3552 56.166,61.6842 56.166,63.3302" id="Fill-57"></path>
                            <path d="M81.1445,63.3302 L81.1445,76.9842 C81.1445,78.6312 79.6845,79.9582 77.8845,79.9582 L62.9485,79.9582 C61.1545,79.9582 59.6945,78.6312 59.6945,76.9842 L59.6945,63.3302 C59.6945,61.6842 61.1545,60.3552 62.9485,60.3552 L77.8845,60.3552 C79.6845,60.3552 81.1445,61.6842 81.1445,63.3302" id="Fill-59"></path>
                            <path d="M105.9355,63.3302 L105.9355,76.9842 C105.9355,78.6312 104.4825,79.9582 102.6815,79.9582 L87.7455,79.9582 C85.9515,79.9582 84.4925,78.6312 84.4925,76.9842 L84.4925,63.3302 C84.4925,61.6842 85.9515,60.3552 87.7455,60.3552 L102.6815,60.3552 C104.4825,60.3552 105.9355,61.6842 105.9355,63.3302" id="Fill-61"></path>
                            <path d="M130.7324,63.3302 L130.7324,76.9842 C130.7324,78.6312 129.2804,79.9582 127.4794,79.9582 L112.5434,79.9582 C110.7424,79.9582 109.2894,78.6312 109.2894,76.9842 L109.2894,63.3302 C109.2894,61.6842 110.7424,60.3552 112.5434,60.3552 L127.4794,60.3552 C129.2804,60.3552 130.7324,61.6842 130.7324,63.3302" id="Fill-63"></path>
                            <path d="M155.7041,63.3302 L155.7041,76.9842 C155.7041,78.6312 154.2521,79.9582 152.4511,79.9582 L137.5151,79.9582 C135.7211,79.9582 134.2611,78.6312 134.2611,76.9842 L134.2611,63.3302 C134.2611,61.6842 135.7211,60.3552 137.5151,60.3552 L152.4511,60.3552 C154.2521,60.3552 155.7041,61.6842 155.7041,63.3302" id="Fill-65"></path>
                            <path d="M180.502,63.3302 L180.502,76.9842 C180.502,78.6312 179.042,79.9582 177.248,79.9582 L162.313,79.9582 C160.512,79.9582 159.059,78.6312 159.059,76.9842 L159.059,63.3302 C159.059,61.6842 160.512,60.3552 162.313,60.3552 L177.248,60.3552 C179.042,60.3552 180.502,61.6842 180.502,63.3302" id="Fill-67"></path>
                            <path d="M205.2998,63.3302 L205.2998,76.9842 C205.2998,78.6312 203.8398,79.9582 202.0458,79.9582 L187.1108,79.9582 C185.3088,79.9582 183.8568,78.6312 183.8568,76.9842 L183.8568,63.3302 C183.8568,61.6842 185.3088,60.3552 187.1108,60.3552 L202.0458,60.3552 C203.8398,60.3552 205.2998,61.6842 205.2998,63.3302" id="Fill-69"></path>
                            <path d="M230.2715,63.3302 L230.2715,76.9842 C230.2715,78.6312 228.8115,79.9582 227.0175,79.9582 L212.0815,79.9582 C210.2805,79.9582 208.8285,78.6312 208.8285,76.9842 L208.8285,63.3302 C208.8285,61.6842 210.2805,60.3552 212.0815,60.3552 L227.0175,60.3552 C228.8115,60.3552 230.2715,61.6842 230.2715,63.3302" id="Fill-71"></path>
                            <path d="M255.0684,63.3302 L255.0684,76.9842 C255.0684,78.6312 253.6094,79.9582 251.8154,79.9582 L236.8794,79.9582 C235.0784,79.9582 233.6184,78.6312 233.6184,76.9842 L233.6184,63.3302 C233.6184,61.6842 235.0784,60.3552 236.8794,60.3552 L251.8154,60.3552 C253.6094,60.3552 255.0684,61.6842 255.0684,63.3302" id="Fill-73"></path>
                            <path d="M279.8662,63.3302 L279.8662,76.9842 C279.8662,78.6312 278.4062,79.9582 276.6122,79.9582 L261.6702,79.9582 C259.8762,79.9582 258.4162,78.6312 258.4162,76.9842 L258.4162,63.3302 C258.4162,61.6842 259.8762,60.3552 261.6702,60.3552 L276.6122,60.3552 C278.4062,60.3552 279.8662,61.6842 279.8662,63.3302" id="Fill-75"></path>
                            <path d="M304.6572,63.3302 L304.6572,76.9842 C304.6572,78.6312 303.2042,79.9582 301.4032,79.9582 L286.4672,79.9582 C284.6732,79.9582 283.2142,78.6312 283.2142,76.9842 L283.2142,63.3302 C283.2142,61.6842 284.6732,60.3552 286.4672,60.3552 L301.4032,60.3552 C303.2042,60.3552 304.6572,61.6842 304.6572,63.3302" id="Fill-77"></path>
                            <path d="M339.1348,63.3302 L339.1348,76.9842 C339.1348,78.6312 337.6828,79.9582 335.8818,79.9582 L311.2648,79.9582 C309.4708,79.9582 308.0108,78.6312 308.0108,76.9842 L308.0108,63.3302 C308.0108,61.6842 309.4708,60.3552 311.2648,60.3552 L335.8818,60.3552 C337.6828,60.3552 339.1348,61.6842 339.1348,63.3302" id="Fill-79"></path>
                            <path d="M31.375,63.3302 L31.375,76.9842 C31.375,78.6312 29.916,79.9582 28.122,79.9582 L5.306,79.9582 C3.505,79.9582 2.052,78.6312 2.052,76.9842 L2.052,63.3302 C2.052,61.6842 3.505,60.3552 5.306,60.3552 L28.122,60.3552 C29.916,60.3552 31.375,61.6842 31.375,63.3302" id="Fill-81"></path>
                            <path d="M40.7617,40.2443 L40.7617,53.9053 C40.7617,55.5453 39.3017,56.8793 37.5007,56.8793 L22.5647,56.8793 C20.7707,56.8793 19.3117,55.5453 19.3117,53.9053 L19.3117,40.2443 C19.3117,38.6043 20.7707,37.2693 22.5647,37.2693 L37.5007,37.2693 C39.3017,37.2693 40.7617,38.6043 40.7617,40.2443" id="Fill-83"></path>
                            <path d="M65.7334,40.2443 L65.7334,53.9053 C65.7334,55.5453 64.2734,56.8793 62.4794,56.8793 L47.5374,56.8793 C45.7424,56.8793 44.2834,55.5453 44.2834,53.9053 L44.2834,40.2443 C44.2834,38.6043 45.7424,37.2693 47.5374,37.2693 L62.4794,37.2693 C64.2734,37.2693 65.7334,38.6043 65.7334,40.2443" id="Fill-85"></path>
                            <path d="M90.5303,40.2443 L90.5303,53.9053 C90.5303,55.5453 89.0713,56.8793 87.2703,56.8793 L72.3343,56.8793 C70.5403,56.8793 69.0803,55.5453 69.0803,53.9053 L69.0803,40.2443 C69.0803,38.6043 70.5403,37.2693 72.3343,37.2693 L87.2703,37.2693 C89.0713,37.2693 90.5303,38.6043 90.5303,40.2443" id="Fill-87"></path>
                            <path d="M115.3213,40.2443 L115.3213,53.9053 C115.3213,55.5453 113.8693,56.8793 112.0673,56.8793 L97.1323,56.8793 C95.3383,56.8793 93.8783,55.5453 93.8783,53.9053 L93.8783,40.2443 C93.8783,38.6043 95.3383,37.2693 97.1323,37.2693 L112.0673,37.2693 C113.8693,37.2693 115.3213,38.6043 115.3213,40.2443" id="Fill-89"></path>
                            <path d="M140.293,40.2443 L140.293,53.9053 C140.293,55.5453 138.84,56.8793 137.039,56.8793 L122.104,56.8793 C120.309,56.8793 118.85,55.5453 118.85,53.9053 L118.85,40.2443 C118.85,38.6043 120.309,37.2693 122.104,37.2693 L137.039,37.2693 C138.84,37.2693 140.293,38.6043 140.293,40.2443" id="Fill-91"></path>
                            <path d="M165.0908,40.2443 L165.0908,53.9053 C165.0908,55.5453 163.6378,56.8793 161.8368,56.8793 L146.9018,56.8793 C145.0998,56.8793 143.6468,55.5453 143.6468,53.9053 L143.6468,40.2443 C143.6468,38.6043 145.0998,37.2693 146.9018,37.2693 L161.8368,37.2693 C163.6378,37.2693 165.0908,38.6043 165.0908,40.2443" id="Fill-93"></path>
                            <path d="M189.8877,40.2443 L189.8877,53.9053 C189.8877,55.5453 188.4287,56.8793 186.6337,56.8793 L171.6987,56.8793 C169.8977,56.8793 168.4447,55.5453 168.4447,53.9053 L168.4447,40.2443 C168.4447,38.6043 169.8977,37.2693 171.6987,37.2693 L186.6337,37.2693 C188.4287,37.2693 189.8877,38.6043 189.8877,40.2443" id="Fill-95"></path>
                            <path d="M214.8594,40.2443 L214.8594,53.9053 C214.8594,55.5453 213.4074,56.8793 211.6064,56.8793 L196.6704,56.8793 C194.8694,56.8793 193.4164,55.5453 193.4164,53.9053 L193.4164,40.2443 C193.4164,38.6043 194.8694,37.2693 196.6704,37.2693 L211.6064,37.2693 C213.4074,37.2693 214.8594,38.6043 214.8594,40.2443" id="Fill-97"></path>
                            <path d="M239.6572,40.2443 L239.6572,53.9053 C239.6572,55.5453 238.1982,56.8793 236.4032,56.8793 L221.4682,56.8793 C219.6672,56.8793 218.2142,55.5453 218.2142,53.9053 L218.2142,40.2443 C218.2142,38.6043 219.6672,37.2693 221.4682,37.2693 L236.4032,37.2693 C238.1982,37.2693 239.6572,38.6043 239.6572,40.2443" id="Fill-99"></path>
                            <path d="M264.4551,40.2443 L264.4551,53.9053 C264.4551,55.5453 262.9951,56.8793 261.2011,56.8793 L246.2591,56.8793 C244.4641,56.8793 243.0051,55.5453 243.0051,53.9053 L243.0051,40.2443 C243.0051,38.6043 244.4641,37.2693 246.2591,37.2693 L261.2011,37.2693 C262.9951,37.2693 264.4551,38.6043 264.4551,40.2443" id="Fill-101"></path>
                            <path d="M289.252,40.2443 L289.252,53.9053 C289.252,55.5453 287.793,56.8793 285.999,56.8793 L271.056,56.8793 C269.262,56.8793 267.802,55.5453 267.802,53.9053 L267.802,40.2443 C267.802,38.6043 269.262,37.2693 271.056,37.2693 L285.999,37.2693 C287.793,37.2693 289.252,38.6043 289.252,40.2443" id="Fill-103"></path>
                            <path d="M314.043,40.2443 L314.043,53.9053 C314.043,55.5453 312.59,56.8793 310.789,56.8793 L295.854,56.8793 C294.06,56.8793 292.6,55.5453 292.6,53.9053 L292.6,40.2443 C292.6,38.6043 294.06,37.2693 295.854,37.2693 L310.789,37.2693 C312.59,37.2693 314.043,38.6043 314.043,40.2443" id="Fill-105"></path>
                            <path d="M338.8408,40.2443 L338.8408,53.9053 C338.8408,55.5453 337.3878,56.8793 335.5868,56.8793 L320.6508,56.8793 C318.8498,56.8793 317.3978,55.5453 317.3978,53.9053 L317.3978,40.2443 C317.3978,38.6043 318.8498,37.2693 320.6508,37.2693 L335.5868,37.2693 C337.3878,37.2693 338.8408,38.6043 338.8408,40.2443" id="Fill-107"></path>
                            <path d="M16.7139,40.2443 L16.7139,53.9053 C16.7139,55.5453 15.2539,56.8793 13.4599,56.8793 L5.3059,56.8793 C3.5049,56.8793 2.0519,55.5453 2.0519,53.9053 L2.0519,40.2443 C2.0519,38.6043 3.5049,37.2693 5.3059,37.2693 L13.4599,37.2693 C15.2539,37.2693 16.7139,38.6043 16.7139,40.2443" id="Fill-109"></path>
                            <path d="M23.502,17.5724 L23.502,31.2324 C23.502,32.8734 22.043,34.2074 20.241,34.2074 L5.306,34.2074 C3.511,34.2074 2.052,32.8734 2.052,31.2324 L2.052,17.5724 C2.052,15.9324 3.511,14.5974 5.306,14.5974 L20.241,14.5974 C22.043,14.5974 23.502,15.9324 23.502,17.5724" id="Fill-111"></path>
                            <path d="M46.7881,17.5724 L46.7881,31.2324 C46.7881,32.8734 45.3291,34.2074 43.5341,34.2074 L28.5921,34.2074 C26.7971,34.2074 25.3381,32.8734 25.3381,31.2324 L25.3381,17.5724 C25.3381,15.9324 26.7971,14.5974 28.5921,14.5974 L43.5341,14.5974 C45.3291,14.5974 46.7881,15.9324 46.7881,17.5724" id="Fill-113"></path>
                            <path d="M70.669,17.5724 L70.669,31.2324 C70.669,32.8734 69.21,34.2074 67.409,34.2074 L52.473,34.2074 C50.679,34.2074 49.219,32.8734 49.219,31.2324 L49.219,17.5724 C49.219,15.9324 50.679,14.5974 52.473,14.5974 L67.409,14.5974 C69.21,14.5974 70.669,15.9324 70.669,17.5724" id="Fill-115"></path>
                            <path d="M93.876,17.1584 L93.876,30.8194 C93.876,32.4594 92.424,33.7934 90.622,33.7934 L75.687,33.7934 C73.893,33.7934 72.433,32.4594 72.433,30.8194 L72.433,17.1584 C72.433,15.5184 73.893,14.1844 75.687,14.1844 L90.622,14.1844 C92.424,14.1844 93.876,15.5184 93.876,17.1584" id="Fill-117"></path>
                            <path d="M117.332,17.5724 L117.332,31.2324 C117.332,32.8734 115.879,34.2074 114.078,34.2074 L99.142,34.2074 C97.348,34.2074 95.888,32.8734 95.888,31.2324 L95.888,17.5724 C95.888,15.9324 97.348,14.5974 99.142,14.5974 L114.078,14.5974 C115.879,14.5974 117.332,15.9324 117.332,17.5724" id="Fill-119"></path>
                            <path d="M140.9629,17.1584 L140.9629,30.8194 C140.9629,32.4594 139.5109,33.7934 137.7089,33.7934 L122.7739,33.7934 C120.9729,33.7934 119.5199,32.4594 119.5199,30.8194 L119.5199,17.1584 C119.5199,15.5184 120.9729,14.1844 122.7739,14.1844 L137.7089,14.1844 C139.5109,14.1844 140.9629,15.5184 140.9629,17.1584" id="Fill-121"></path>
                            <path d="M164.416,17.5724 L164.416,31.2324 C164.416,32.8734 162.956,34.2074 161.162,34.2074 L146.227,34.2074 C144.425,34.2074 142.973,32.8734 142.973,31.2324 L142.973,17.5724 C142.973,15.9324 144.425,14.5974 146.227,14.5974 L161.162,14.5974 C162.956,14.5974 164.416,15.9324 164.416,17.5724" id="Fill-123"></path>
                            <path d="M187.8691,17.5724 L187.8691,31.2324 C187.8691,32.8734 186.4161,34.2074 184.6151,34.2074 L169.6801,34.2074 C167.8791,34.2074 166.4261,32.8734 166.4261,31.2324 L166.4261,17.5724 C166.4261,15.9324 167.8791,14.5974 169.6801,14.5974 L184.6151,14.5974 C186.4161,14.5974 187.8691,15.9324 187.8691,17.5724" id="Fill-125"></path>
                            <path d="M211.3242,17.1584 L211.3242,30.8194 C211.3242,32.4594 209.8652,33.7934 208.0702,33.7934 L193.1352,33.7934 C191.3342,33.7934 189.8812,32.4594 189.8812,30.8194 L189.8812,17.1584 C189.8812,15.5184 191.3342,14.1844 193.1352,14.1844 L208.0702,14.1844 C209.8652,14.1844 211.3242,15.5184 211.3242,17.1584" id="Fill-127"></path>
                            <path d="M235.1445,17.5724 L235.1445,31.2324 C235.1445,32.8734 233.6855,34.2074 231.8915,34.2074 L216.9485,34.2074 C215.1545,34.2074 213.6945,32.8734 213.6945,31.2324 L213.6945,17.5724 C213.6945,15.9324 215.1545,14.5974 216.9485,14.5974 L231.8915,14.5974 C233.6855,14.5974 235.1445,15.9324 235.1445,17.5724" id="Fill-129"></path>
                            <path d="M259.0928,17.5724 L259.0928,31.2324 C259.0928,32.8734 257.6328,34.2074 255.8388,34.2074 L240.8958,34.2074 C239.1018,34.2074 237.6428,32.8734 237.6428,31.2324 L237.6428,17.5724 C237.6428,15.9324 239.1018,14.5974 240.8958,14.5974 L255.8388,14.5974 C257.6328,14.5974 259.0928,15.9324 259.0928,17.5724" id="Fill-131"></path>
                            <path d="M283.0332,17.5724 L283.0332,31.2324 C283.0332,32.8734 281.5802,34.2074 279.7792,34.2074 L264.8442,34.2074 C263.0502,34.2074 261.5902,32.8734 261.5902,31.2324 L261.5902,17.5724 C261.5902,15.9324 263.0502,14.5974 264.8442,14.5974 L279.7792,14.5974 C281.5802,14.5974 283.0332,15.9324 283.0332,17.5724" id="Fill-133"></path>
                            <path d="M307.499,17.1584 L307.499,30.8194 C307.499,32.4594 306.046,33.7934 304.245,33.7934 L289.31,33.7934 C287.509,33.7934 286.056,32.4594 286.056,30.8194 L286.056,17.1584 C286.056,15.5184 287.509,14.1844 289.31,14.1844 L304.245,14.1844 C306.046,14.1844 307.499,15.5184 307.499,17.1584" id="Fill-135"></path>
                            <path d="M22.7041,2.2184 L22.7041,9.1894 C22.7041,10.0274 21.2081,10.7074 19.3621,10.7074 L4.0551,10.7074 C2.2161,10.7074 0.7201,10.0274 0.7201,9.1894 L0.7201,2.2184 C0.7201,1.3814 2.2161,0.7004 4.0551,0.7004 L19.3621,0.7004 C21.2081,0.7004 22.7041,1.3814 22.7041,2.2184" id="Fill-137"></path>
                            <path d="M46.5694,2.2184 L46.5694,9.1894 C46.5694,10.0274 45.0734,10.7074 43.2344,10.7074 L27.9204,10.7074 C26.0814,10.7074 24.5854,10.0274 24.5854,9.1894 L24.5854,2.2184 C24.5854,1.3814 26.0814,0.7004 27.9204,0.7004 L43.2344,0.7004 C45.0734,0.7004 46.5694,1.3814 46.5694,2.2184" id="Fill-139"></path>
                            <path d="M71.0449,2.2184 L71.0449,9.1894 C71.0449,10.0274 69.5489,10.7074 67.7029,10.7074 L52.3959,10.7074 C50.5569,10.7074 49.0609,10.0274 49.0609,9.1894 L49.0609,2.2184 C49.0609,1.3814 50.5569,0.7004 52.3959,0.7004 L67.7029,0.7004 C69.5489,0.7004 71.0449,1.3814 71.0449,2.2184" id="Fill-141"></path>
                            <path d="M94.8291,2.007 L94.8291,8.979 C94.8291,9.816 93.3401,10.497 91.4941,10.497 L76.1861,10.497 C74.3481,10.497 72.8511,9.816 72.8511,8.979 L72.8511,2.007 C72.8511,1.17 74.3481,0.489 76.1861,0.489 L91.4941,0.489 C93.3401,0.489 94.8291,1.17 94.8291,2.007" id="Fill-143"></path>
                            <path d="M118.8682,2.2184 L118.8682,9.1894 C118.8682,10.0274 117.3792,10.7074 115.5332,10.7074 L100.2252,10.7074 C98.3872,10.7074 96.8902,10.0274 96.8902,9.1894 L96.8902,2.2184 C96.8902,1.3814 98.3872,0.7004 100.2252,0.7004 L115.5332,0.7004 C117.3792,0.7004 118.8682,1.3814 118.8682,2.2184" id="Fill-145"></path>
                            <path d="M143.0869,2.007 L143.0869,8.979 C143.0869,9.816 141.5989,10.497 139.7529,10.497 L124.4449,10.497 C122.5999,10.497 121.1099,9.816 121.1099,8.979 L121.1099,2.007 C121.1099,1.17 122.5999,0.489 124.4449,0.489 L139.7529,0.489 C141.5989,0.489 143.0869,1.17 143.0869,2.007" id="Fill-147"></path>
                            <path d="M167.123,2.2184 L167.123,9.1894 C167.123,10.0274 165.628,10.7074 163.788,10.7074 L148.481,10.7074 C146.635,10.7074 145.146,10.0274 145.146,9.1894 L145.146,2.2184 C145.146,1.3814 146.635,0.7004 148.481,0.7004 L163.788,0.7004 C165.628,0.7004 167.123,1.3814 167.123,2.2184" id="Fill-149"></path>
                            <path d="M191.1602,2.2184 L191.1602,9.1894 C191.1602,10.0274 189.6712,10.7074 187.8252,10.7074 L172.5172,10.7074 C170.6722,10.7074 169.1832,10.0274 169.1832,9.1894 L169.1832,2.2184 C169.1832,1.3814 170.6722,0.7004 172.5172,0.7004 L187.8252,0.7004 C189.6712,0.7004 191.1602,1.3814 191.1602,2.2184" id="Fill-151"></path>
                            <path d="M215.1992,2.007 L215.1992,8.979 C215.1992,9.816 213.7032,10.497 211.8642,10.497 L196.5562,10.497 C194.7112,10.497 193.2212,9.816 193.2212,8.979 L193.2212,2.007 C193.2212,1.17 194.7112,0.489 196.5562,0.489 L211.8642,0.489 C213.7032,0.489 215.1992,1.17 215.1992,2.007" id="Fill-153"></path>
                            <path d="M239.6123,2.2184 L239.6123,9.1894 C239.6123,10.0274 238.1163,10.7074 236.2773,10.7074 L220.9633,10.7074 C219.1243,10.7074 217.6283,10.0274 217.6283,9.1894 L217.6283,2.2184 C217.6283,1.3814 219.1243,0.7004 220.9633,0.7004 L236.2773,0.7004 C238.1163,0.7004 239.6123,1.3814 239.6123,2.2184" id="Fill-155"></path>
                            <path d="M264.1553,2.2184 L264.1553,9.1894 C264.1553,10.0274 262.6593,10.7074 260.8213,10.7074 L245.5063,10.7074 C243.6673,10.7074 242.1723,10.0274 242.1723,9.1894 L242.1723,2.2184 C242.1723,1.3814 243.6673,0.7004 245.5063,0.7004 L260.8213,0.7004 C262.6593,0.7004 264.1553,1.3814 264.1553,2.2184" id="Fill-157"></path>
                            <path d="M288.6924,2.2184 L288.6924,9.1894 C288.6924,10.0274 287.2034,10.7074 285.3574,10.7074 L270.0494,10.7074 C268.2114,10.7074 266.7144,10.0274 266.7144,9.1894 L266.7144,2.2184 C266.7144,1.3814 268.2114,0.7004 270.0494,0.7004 L285.3574,0.7004 C287.2034,0.7004 288.6924,1.3814 288.6924,2.2184" id="Fill-159"></path>
                            <path d="M313.7666,2.007 L313.7666,8.979 C313.7666,9.816 312.2776,10.497 310.4316,10.497 L295.1236,10.497 C293.2786,10.497 291.7896,9.816 291.7896,8.979 L291.7896,2.007 C291.7896,1.17 293.2786,0.489 295.1236,0.489 L310.4316,0.489 C312.2776,0.489 313.7666,1.17 313.7666,2.007" id="Fill-161"></path>
                            <path d="M338.8408,2.007 L338.8408,8.979 C338.8408,9.816 337.3518,10.497 335.5058,10.497 L320.1978,10.497 C318.3528,10.497 316.8638,9.816 316.8638,8.979 L316.8638,2.007 C316.8638,1.17 318.3528,0.489 320.1978,0.489 L335.5058,0.489 C337.3518,0.489 338.8408,1.17 338.8408,2.007" id="Fill-163"></path>
                            <path d="M338.8408,17.1584 L338.8408,30.8194 C338.8408,32.4594 336.9218,33.7934 334.5438,33.7934 L314.8188,33.7934 C312.4398,33.7934 310.5218,32.4594 310.5218,30.8194 L310.5218,17.1584 C310.5218,15.5184 312.4398,14.1844 314.8188,14.1844 L334.5438,14.1844 C336.9218,14.1844 338.8408,15.5184 338.8408,17.1584" id="Fill-165"></path>
                            <path d="M16.7139,109.2384 L16.7139,122.8924 C16.7139,124.5394 15.2539,125.8674 13.4599,125.8674 L5.3059,125.8674 C3.5049,125.8674 2.0519,124.5394 2.0519,122.8924 L2.0519,109.2384 C2.0519,107.5974 3.5049,106.2634 5.3059,106.2634 L13.4599,106.2634 C15.2539,106.2634 16.7139,107.5974 16.7139,109.2384" id="Fill-167"></path>
                            <path d="M34.8027,109.2384 L34.8027,122.8924 C34.8027,124.5394 33.3437,125.8674 31.5487,125.8674 L23.3957,125.8674 C21.6007,125.8674 20.1417,124.5394 20.1417,122.8924 L20.1417,109.2384 C20.1417,107.5974 21.6007,106.2634 23.3957,106.2634 L31.5487,106.2634 C33.3437,106.2634 34.8027,107.5974 34.8027,109.2384" id="Fill-169"></path>
                            <path d="M52.8926,109.2384 L52.8926,122.8924 C52.8926,124.5394 51.4326,125.8674 49.6386,125.8674 L41.4846,125.8674 C39.6906,125.8674 38.2306,124.5394 38.2306,122.8924 L38.2306,109.2384 C38.2306,107.5974 39.6906,106.2634 41.4846,106.2634 L49.6386,106.2634 C51.4326,106.2634 52.8926,107.5974 52.8926,109.2384" id="Fill-171"></path>
                            <path d="M263.0293,109.2384 L263.0293,122.8924 C263.0293,124.5394 261.5693,125.8674 259.7683,125.8674 L251.6213,125.8674 C249.8203,125.8674 248.3673,124.5394 248.3673,122.8924 L248.3673,109.2384 C248.3673,107.5974 249.8203,106.2634 251.6213,106.2634 L259.7683,106.2634 C261.5693,106.2634 263.0293,107.5974 263.0293,109.2384" id="Fill-173"></path>
                            <path d="M82.6572,109.2384 L82.6572,122.8924 C82.6572,124.5394 81.2052,125.8674 79.4032,125.8674 L59.5742,125.8674 C57.7792,125.8674 56.3202,124.5394 56.3202,122.8924 L56.3202,109.2384 C56.3202,107.5974 57.7792,106.2634 59.5742,106.2634 L79.4032,106.2634 C81.2052,106.2634 82.6572,107.5974 82.6572,109.2384" id="Fill-175"></path>
                            <path d="M244.7852,109.2384 L244.7852,122.8924 C244.7852,124.5394 243.3262,125.8674 241.5312,125.8674 L221.7022,125.8674 C219.9012,125.8674 218.4482,124.5394 218.4482,122.8924 L218.4482,109.2384 C218.4482,107.5974 219.9012,106.2634 221.7022,106.2634 L241.5312,106.2634 C243.3262,106.2634 244.7852,107.5974 244.7852,109.2384" id="Fill-177"></path>
                            <path d="M338.9346,119.0431 L338.9346,122.8931 C338.9346,124.5391 337.4756,125.8671 335.6806,125.8671 L320.5906,125.8671 C318.7966,125.8671 317.3366,124.5391 317.3366,122.8931 L317.3366,119.0431 C317.3366,117.3971 318.7966,116.0681 320.5906,116.0681 L335.6806,116.0681 C337.4756,116.0681 338.9346,117.3971 338.9346,119.0431" id="Fill-179"></path>
                            <path d="M313.9893,119.0431 L313.9893,122.8931 C313.9893,124.5391 312.5303,125.8671 310.7353,125.8671 L295.6453,125.8671 C293.8513,125.8671 292.3923,124.5391 292.3923,122.8931 L292.3923,119.0431 C292.3923,117.3971 293.8513,116.0681 295.6453,116.0681 L310.7353,116.0681 C312.5303,116.0681 313.9893,117.3971 313.9893,119.0431" id="Fill-181"></path>
                            <path d="M313.9893,109.2384 L313.9893,113.0934 C313.9893,114.7344 312.5303,116.0684 310.7353,116.0684 L295.6453,116.0684 C293.8513,116.0684 292.3923,114.7344 292.3923,113.0934 L292.3923,109.2384 C292.3923,107.5974 293.8513,106.2634 295.6453,106.2634 L310.7353,106.2634 C312.5303,106.2634 313.9893,107.5974 313.9893,109.2384" id="Fill-183"></path>
                            <path d="M288.5293,119.0431 L288.5293,122.8931 C288.5293,124.5391 287.0703,125.8671 285.2753,125.8671 L270.1853,125.8671 C268.3913,125.8671 266.9313,124.5391 266.9313,122.8931 L266.9313,119.0431 C266.9313,117.3971 268.3913,116.0681 270.1853,116.0681 L285.2753,116.0681 C287.0703,116.0681 288.5293,117.3971 288.5293,119.0431" id="Fill-185"></path>
                            <path d="M214.8594,109.2384 L214.8594,122.8924 C214.8594,124.5394 213.4074,125.8674 211.6064,125.8674 L89.0844,125.8674 C87.2834,125.8674 85.8314,124.5394 85.8314,122.8924 L85.8314,109.2384 C85.8314,107.5974 87.2834,106.2634 89.0844,106.2634 L211.6064,106.2634 C213.4074,106.2634 214.8594,107.5974 214.8594,109.2384" id="Fill-187"></path>
                        </g>
                        <path d="M116.6172,189.4367 C118.4182,189.4367 119.8712,190.7707 119.8712,192.4167 L119.8712,206.0717 C119.8712,207.7117 118.4182,209.0457 116.6172,209.0457 L101.6802,209.0457 C99.8802,209.0457 98.4272,207.7117 98.4272,206.0717 L98.4272,192.4167 C98.4272,190.7707 99.8802,189.4367 101.6802,189.4367 L116.6172,189.4367 Z" id="Fill-190" fill="#141414"></path>
                        <path d="M69.7402,192.4172 L69.7402,206.0712 C69.7402,207.7122 68.2802,209.0462 66.4862,209.0462 L30.6352,209.0462 C28.8352,209.0462 27.3822,207.7122 27.3822,206.0712 L27.3822,192.4172 C27.3822,190.7712 28.8352,189.4372 30.6352,189.4372 L66.4862,189.4372 C68.2802,189.4372 69.7402,190.7712 69.7402,192.4172" id="Fill-192" fill="#141414"></path>
                        <path d="M364.4648,192.4172 L364.4648,206.0712 C364.4648,207.7122 363.0128,209.0462 361.2118,209.0462 L325.3608,209.0462 C323.5668,209.0462 322.1078,207.7122 322.1078,206.0712 L322.1078,192.4172 C322.1078,190.7712 323.5668,189.4372 325.3608,189.4372 L361.2118,189.4372 C363.0128,189.4372 364.4648,190.7712 364.4648,192.4172" id="Fill-194" fill="#141414"></path>
                        <path d="M94.8994,192.4172 L94.8994,206.0712 C94.8994,207.7122 93.4394,209.0462 91.6454,209.0462 L76.7094,209.0462 C74.9084,209.0462 73.4564,207.7122 73.4564,206.0712 L73.4564,192.4172 C73.4564,190.7712 74.9084,189.4372 76.7094,189.4372 L91.6454,189.4372 C93.4394,189.4372 94.8994,190.7712 94.8994,192.4172" id="Fill-196" fill="#141414"></path>
                        <path d="M144.668,192.4172 L144.668,206.0712 C144.668,207.7122 143.209,209.0462 141.414,209.0462 L126.479,209.0462 C124.678,209.0462 123.225,207.7122 123.225,206.0712 L123.225,192.4172 C123.225,190.7712 124.678,189.4372 126.479,189.4372 L141.414,189.4372 C143.209,189.4372 144.668,190.7712 144.668,192.4172" id="Fill-198" fill="#141414"></path>
                        <path d="M169.4658,192.4172 L169.4658,206.0712 C169.4658,207.7122 168.0068,209.0462 166.2118,209.0462 L151.2698,209.0462 C149.4748,209.0462 148.0158,207.7122 148.0158,206.0712 L148.0158,192.4172 C148.0158,190.7712 149.4748,189.4372 151.2698,189.4372 L166.2118,189.4372 C168.0068,189.4372 169.4658,190.7712 169.4658,192.4172" id="Fill-200" fill="#141414"></path>
                        <path d="M194.4375,192.4172 L194.4375,206.0712 C194.4375,207.7122 192.9775,209.0462 191.1835,209.0462 L176.2485,209.0462 C174.4475,209.0462 172.9945,207.7122 172.9945,206.0712 L172.9945,192.4172 C172.9945,190.7712 174.4475,189.4372 176.2485,189.4372 L191.1835,189.4372 C192.9775,189.4372 194.4375,190.7712 194.4375,192.4172" id="Fill-202" fill="#141414"></path>
                        <path d="M219.2354,192.4172 L219.2354,206.0712 C219.2354,207.7122 217.7754,209.0462 215.9814,209.0462 L201.0384,209.0462 C199.2444,209.0462 197.7854,207.7122 197.7854,206.0712 L197.7854,192.4172 C197.7854,190.7712 199.2444,189.4372 201.0384,189.4372 L215.9814,189.4372 C217.7754,189.4372 219.2354,190.7712 219.2354,192.4172" id="Fill-204" fill="#141414"></path>
                        <path d="M244.0322,192.4172 L244.0322,206.0712 C244.0322,207.7122 242.5732,209.0462 240.7722,209.0462 L225.8362,209.0462 C224.0422,209.0462 222.5822,207.7122 222.5822,206.0712 L222.5822,192.4172 C222.5822,190.7712 224.0422,189.4372 225.8362,189.4372 L240.7722,189.4372 C242.5732,189.4372 244.0322,190.7712 244.0322,192.4172" id="Fill-206" fill="#141414"></path>
                        <path d="M269.0039,192.4172 L269.0039,206.0712 C269.0039,207.7122 267.5449,209.0462 265.7499,209.0462 L250.8079,209.0462 C249.0139,209.0462 247.5539,207.7122 247.5539,206.0712 L247.5539,192.4172 C247.5539,190.7712 249.0139,189.4372 250.8079,189.4372 L265.7499,189.4372 C267.5449,189.4372 269.0039,190.7712 269.0039,192.4172" id="Fill-208" fill="#141414"></path>
                        <path d="M293.7949,192.4172 L293.7949,206.0712 C293.7949,207.7122 292.3429,209.0462 290.5409,209.0462 L275.6059,209.0462 C273.8119,209.0462 272.3519,207.7122 272.3519,206.0712 L272.3519,192.4172 C272.3519,190.7712 273.8119,189.4372 275.6059,189.4372 L290.5409,189.4372 C292.3429,189.4372 293.7949,190.7712 293.7949,192.4172" id="Fill-210" fill="#141414"></path>
                        <path d="M318.5928,192.4172 L318.5928,206.0712 C318.5928,207.7122 317.1398,209.0462 315.3388,209.0462 L300.4028,209.0462 C298.6018,209.0462 297.1498,207.7122 297.1498,206.0712 L297.1498,192.4172 C297.1498,190.7712 298.6018,189.4372 300.4028,189.4372 L315.3388,189.4372 C317.1398,189.4372 318.5928,190.7712 318.5928,192.4172" id="Fill-212" fill="#141414"></path>
                        <path d="M81.4961,169.4601 L81.4961,183.1141 C81.4961,184.7611 80.0431,186.0881 78.2421,186.0881 L63.3071,186.0881 C61.5131,186.0881 60.0531,184.7611 60.0531,183.1141 L60.0531,169.4601 C60.0531,167.8141 61.5131,166.4851 63.3071,166.4851 L78.2421,166.4851 C80.0431,166.4851 81.4961,167.8141 81.4961,169.4601" id="Fill-214" fill="#141414"></path>
                        <path d="M106.4746,169.4601 L106.4746,183.1141 C106.4746,184.7611 105.0146,186.0881 103.2136,186.0881 L88.2776,186.0881 C86.4836,186.0881 85.0246,184.7611 85.0246,183.1141 L85.0246,169.4601 C85.0246,167.8141 86.4836,166.4851 88.2776,166.4851 L103.2136,166.4851 C105.0146,166.4851 106.4746,167.8141 106.4746,169.4601" id="Fill-216" fill="#141414"></path>
                        <path d="M131.2656,169.4601 L131.2656,183.1141 C131.2656,184.7611 129.8126,186.0881 128.0116,186.0881 L113.0756,186.0881 C111.2816,186.0881 109.8226,184.7611 109.8226,183.1141 L109.8226,169.4601 C109.8226,167.8141 111.2816,166.4851 113.0756,166.4851 L128.0116,166.4851 C129.8126,166.4851 131.2656,167.8141 131.2656,169.4601" id="Fill-218" fill="#141414"></path>
                        <path d="M156.0625,169.4601 L156.0625,183.1141 C156.0625,184.7611 154.6105,186.0881 152.8085,186.0881 L137.8735,186.0881 C136.0725,186.0881 134.6195,184.7611 134.6195,183.1141 L134.6195,169.4601 C134.6195,167.8141 136.0725,166.4851 137.8735,166.4851 L152.8085,166.4851 C154.6105,166.4851 156.0625,167.8141 156.0625,169.4601" id="Fill-220" fill="#141414"></path>
                        <path d="M181.0342,169.4601 L181.0342,183.1141 C181.0342,184.7611 179.5822,186.0881 177.7812,186.0881 L162.8452,186.0881 C161.0512,186.0881 159.5912,184.7611 159.5912,183.1141 L159.5912,169.4601 C159.5912,167.8141 161.0512,166.4851 162.8452,166.4851 L177.7812,166.4851 C179.5822,166.4851 181.0342,167.8141 181.0342,169.4601" id="Fill-222" fill="#141414"></path>
                        <path d="M205.832,169.4601 L205.832,183.1141 C205.832,184.7611 204.372,186.0881 202.578,186.0881 L187.643,186.0881 C185.842,186.0881 184.389,184.7611 184.389,183.1141 L184.389,169.4601 C184.389,167.8141 185.842,166.4851 187.643,166.4851 L202.578,166.4851 C204.372,166.4851 205.832,167.8141 205.832,169.4601" id="Fill-224" fill="#141414"></path>
                        <path d="M230.6299,169.4601 L230.6299,183.1141 C230.6299,184.7611 229.1699,186.0881 227.3759,186.0881 L212.4399,186.0881 C210.6389,186.0881 209.1859,184.7611 209.1859,183.1141 L209.1859,169.4601 C209.1859,167.8141 210.6389,166.4851 212.4399,166.4851 L227.3759,166.4851 C229.1699,166.4851 230.6299,167.8141 230.6299,169.4601" id="Fill-226" fill="#141414"></path>
                        <path d="M255.6006,169.4601 L255.6006,183.1141 C255.6006,184.7611 254.1416,186.0881 252.3476,186.0881 L237.4116,186.0881 C235.6106,186.0881 234.1586,184.7611 234.1586,183.1141 L234.1586,169.4601 C234.1586,167.8141 235.6106,166.4851 237.4116,166.4851 L252.3476,166.4851 C254.1416,166.4851 255.6006,167.8141 255.6006,169.4601" id="Fill-228" fill="#141414"></path>
                        <path d="M280.3984,169.4601 L280.3984,183.1141 C280.3984,184.7611 278.9394,186.0881 277.1454,186.0881 L262.2094,186.0881 C260.4084,186.0881 258.9484,184.7611 258.9484,183.1141 L258.9484,169.4601 C258.9484,167.8141 260.4084,166.4851 262.2094,166.4851 L277.1454,166.4851 C278.9394,166.4851 280.3984,167.8141 280.3984,169.4601" id="Fill-230" fill="#141414"></path>
                        <path d="M305.1963,169.4601 L305.1963,183.1141 C305.1963,184.7611 303.7363,186.0881 301.9423,186.0881 L287.0003,186.0881 C285.2063,186.0881 283.7463,184.7611 283.7463,183.1141 L283.7463,169.4601 C283.7463,167.8141 285.2063,166.4851 287.0003,166.4851 L301.9423,166.4851 C303.7363,166.4851 305.1963,167.8141 305.1963,169.4601" id="Fill-232" fill="#141414"></path>
                        <path d="M329.9873,169.4601 L329.9873,183.1141 C329.9873,184.7611 328.5343,186.0881 326.7333,186.0881 L311.7973,186.0881 C310.0033,186.0881 308.5443,184.7611 308.5443,183.1141 L308.5443,169.4601 C308.5443,167.8141 310.0033,166.4851 311.7973,166.4851 L326.7333,166.4851 C328.5343,166.4851 329.9873,167.8141 329.9873,169.4601" id="Fill-234" fill="#141414"></path>
                        <path d="M364.4648,169.4601 L364.4648,183.1141 C364.4648,184.7611 363.0128,186.0881 361.2118,186.0881 L336.5948,186.0881 C334.8008,186.0881 333.3408,184.7611 333.3408,183.1141 L333.3408,169.4601 C333.3408,167.8141 334.8008,166.4851 336.5948,166.4851 L361.2118,166.4851 C363.0128,166.4851 364.4648,167.8141 364.4648,169.4601" id="Fill-236" fill="#141414"></path>
                        <path d="M56.7051,169.4601 L56.7051,183.1141 C56.7051,184.7611 55.2461,186.0881 53.4521,186.0881 L30.6361,186.0881 C28.8351,186.0881 27.3821,184.7611 27.3821,183.1141 L27.3821,169.4601 C27.3821,167.8141 28.8351,166.4851 30.6361,166.4851 L53.4521,166.4851 C55.2461,166.4851 56.7051,167.8141 56.7051,169.4601" id="Fill-238" fill="#141414"></path>
                        <path d="M66.0918,146.3742 L66.0918,160.0352 C66.0918,161.6752 64.6318,163.0092 62.8308,163.0092 L47.8948,163.0092 C46.1008,163.0092 44.6418,161.6752 44.6418,160.0352 L44.6418,146.3742 C44.6418,144.7342 46.1008,143.3992 47.8948,143.3992 L62.8308,143.3992 C64.6318,143.3992 66.0918,144.7342 66.0918,146.3742" id="Fill-240" fill="#141414"></path>
                        <path d="M91.0625,146.3742 L91.0625,160.0352 C91.0625,161.6752 89.6035,163.0092 87.8095,163.0092 L72.8675,163.0092 C71.0725,163.0092 69.6125,161.6752 69.6125,160.0352 L69.6125,146.3742 C69.6125,144.7342 71.0725,143.3992 72.8675,143.3992 L87.8095,143.3992 C89.6035,143.3992 91.0625,144.7342 91.0625,146.3742" id="Fill-242" fill="#141414"></path>
                        <path d="M115.8604,146.3742 L115.8604,160.0352 C115.8604,161.6752 114.4014,163.0092 112.5994,163.0092 L97.6644,163.0092 C95.8704,163.0092 94.4104,161.6752 94.4104,160.0352 L94.4104,146.3742 C94.4104,144.7342 95.8704,143.3992 97.6644,143.3992 L112.5994,143.3992 C114.4014,143.3992 115.8604,144.7342 115.8604,146.3742" id="Fill-244" fill="#141414"></path>
                        <path d="M140.6514,146.3742 L140.6514,160.0352 C140.6514,161.6752 139.1994,163.0092 137.3974,163.0092 L122.4624,163.0092 C120.6684,163.0092 119.2084,161.6752 119.2084,160.0352 L119.2084,146.3742 C119.2084,144.7342 120.6684,143.3992 122.4624,143.3992 L137.3974,143.3992 C139.1994,143.3992 140.6514,144.7342 140.6514,146.3742" id="Fill-246" fill="#141414"></path>
                        <path d="M165.623,146.3742 L165.623,160.0352 C165.623,161.6752 164.17,163.0092 162.369,163.0092 L147.434,163.0092 C145.639,163.0092 144.18,161.6752 144.18,160.0352 L144.18,146.3742 C144.18,144.7342 145.639,143.3992 147.434,143.3992 L162.369,143.3992 C164.17,143.3992 165.623,144.7342 165.623,146.3742" id="Fill-248" fill="#141414"></path>
                        <path d="M190.4209,146.3742 L190.4209,160.0352 C190.4209,161.6752 188.9679,163.0092 187.1669,163.0092 L172.2309,163.0092 C170.4299,163.0092 168.9769,161.6752 168.9769,160.0352 L168.9769,146.3742 C168.9769,144.7342 170.4299,143.3992 172.2309,143.3992 L187.1669,143.3992 C188.9679,143.3992 190.4209,144.7342 190.4209,146.3742" id="Fill-250" fill="#141414"></path>
                        <path d="M215.2178,146.3742 L215.2178,160.0352 C215.2178,161.6752 213.7588,163.0092 211.9638,163.0092 L197.0288,163.0092 C195.2278,163.0092 193.7748,161.6752 193.7748,160.0352 L193.7748,146.3742 C193.7748,144.7342 195.2278,143.3992 197.0288,143.3992 L211.9638,143.3992 C213.7588,143.3992 215.2178,144.7342 215.2178,146.3742" id="Fill-252" fill="#141414"></path>
                        <path d="M240.1895,146.3742 L240.1895,160.0352 C240.1895,161.6752 238.7375,163.0092 236.9365,163.0092 L222.0005,163.0092 C220.1995,163.0092 218.7465,161.6752 218.7465,160.0352 L218.7465,146.3742 C218.7465,144.7342 220.1995,143.3992 222.0005,143.3992 L236.9365,143.3992 C238.7375,143.3992 240.1895,144.7342 240.1895,146.3742" id="Fill-254" fill="#141414"></path>
                        <path d="M264.9873,146.3742 L264.9873,160.0352 C264.9873,161.6752 263.5283,163.0092 261.7333,163.0092 L246.7983,163.0092 C244.9973,163.0092 243.5443,161.6752 243.5443,160.0352 L243.5443,146.3742 C243.5443,144.7342 244.9973,143.3992 246.7983,143.3992 L261.7333,143.3992 C263.5283,143.3992 264.9873,144.7342 264.9873,146.3742" id="Fill-256" fill="#141414"></path>
                        <path d="M289.7852,146.3742 L289.7852,160.0352 C289.7852,161.6752 288.3252,163.0092 286.5312,163.0092 L271.5892,163.0092 C269.7942,163.0092 268.3352,161.6752 268.3352,160.0352 L268.3352,146.3742 C268.3352,144.7342 269.7942,143.3992 271.5892,143.3992 L286.5312,143.3992 C288.3252,143.3992 289.7852,144.7342 289.7852,146.3742" id="Fill-258" fill="#141414"></path>
                        <path d="M314.582,146.3742 L314.582,160.0352 C314.582,161.6752 313.123,163.0092 311.329,163.0092 L296.386,163.0092 C294.592,163.0092 293.132,161.6752 293.132,160.0352 L293.132,146.3742 C293.132,144.7342 294.592,143.3992 296.386,143.3992 L311.329,143.3992 C313.123,143.3992 314.582,144.7342 314.582,146.3742" id="Fill-260" fill="#141414"></path>
                        <path d="M339.373,146.3742 L339.373,160.0352 C339.373,161.6752 337.92,163.0092 336.119,163.0092 L321.184,163.0092 C319.39,163.0092 317.93,161.6752 317.93,160.0352 L317.93,146.3742 C317.93,144.7342 319.39,143.3992 321.184,143.3992 L336.119,143.3992 C337.92,143.3992 339.373,144.7342 339.373,146.3742" id="Fill-262" fill="#141414"></path>
                        <path d="M364.1709,146.3742 L364.1709,160.0352 C364.1709,161.6752 362.7179,163.0092 360.9169,163.0092 L345.9809,163.0092 C344.1799,163.0092 342.7279,161.6752 342.7279,160.0352 L342.7279,146.3742 C342.7279,144.7342 344.1799,143.3992 345.9809,143.3992 L360.9169,143.3992 C362.7179,143.3992 364.1709,144.7342 364.1709,146.3742" id="Fill-264" fill="#141414"></path>
                        <path d="M42.0439,146.3742 L42.0439,160.0352 C42.0439,161.6752 40.5839,163.0092 38.7899,163.0092 L30.6359,163.0092 C28.8349,163.0092 27.3819,161.6752 27.3819,160.0352 L27.3819,146.3742 C27.3819,144.7342 28.8349,143.3992 30.6359,143.3992 L38.7899,143.3992 C40.5839,143.3992 42.0439,144.7342 42.0439,146.3742" id="Fill-266" fill="#141414"></path>
                        <path d="M48.832,123.7023 L48.832,137.3633 C48.832,139.0033 47.372,140.3373 45.571,140.3373 L30.636,140.3373 C28.841,140.3373 27.382,139.0033 27.382,137.3633 L27.382,123.7023 C27.382,122.0623 28.841,120.7273 30.636,120.7273 L45.571,120.7273 C47.372,120.7273 48.832,122.0623 48.832,123.7023" id="Fill-268" fill="#141414"></path>
                        <path d="M72.1182,123.7023 L72.1182,137.3633 C72.1182,139.0033 70.6582,140.3373 68.8642,140.3373 L53.9222,140.3373 C52.1272,140.3373 50.6682,139.0033 50.6682,137.3633 L50.6682,123.7023 C50.6682,122.0623 52.1272,120.7273 53.9222,120.7273 L68.8642,120.7273 C70.6582,120.7273 72.1182,122.0623 72.1182,123.7023" id="Fill-270" fill="#141414"></path>
                        <path d="M95.999,123.7023 L95.999,137.3633 C95.999,139.0033 94.54,140.3373 92.739,140.3373 L77.803,140.3373 C76.009,140.3373 74.549,139.0033 74.549,137.3633 L74.549,123.7023 C74.549,122.0623 76.009,120.7273 77.803,120.7273 L92.739,120.7273 C94.54,120.7273 95.999,122.0623 95.999,123.7023" id="Fill-272" fill="#141414"></path>
                        <path d="M119.2061,123.2887 L119.2061,136.9487 C119.2061,138.5887 117.7541,139.9237 115.9521,139.9237 L101.0171,139.9237 C99.2231,139.9237 97.7631,138.5887 97.7631,136.9487 L97.7631,123.2887 C97.7631,121.6477 99.2231,120.3137 101.0171,120.3137 L115.9521,120.3137 C117.7541,120.3137 119.2061,121.6477 119.2061,123.2887" id="Fill-274" fill="#141414"></path>
                        <path d="M142.6611,123.7023 L142.6611,137.3633 C142.6611,139.0033 141.2091,140.3373 139.4081,140.3373 L124.4721,140.3373 C122.6781,140.3373 121.2181,139.0033 121.2181,137.3633 L121.2181,123.7023 C121.2181,122.0623 122.6781,120.7273 124.4721,120.7273 L139.4081,120.7273 C141.2091,120.7273 142.6611,122.0623 142.6611,123.7023" id="Fill-276" fill="#141414"></path>
                        <path d="M166.293,123.2887 L166.293,136.9487 C166.293,138.5887 164.84,139.9237 163.039,139.9237 L148.104,139.9237 C146.303,139.9237 144.85,138.5887 144.85,136.9487 L144.85,123.2887 C144.85,121.6477 146.303,120.3137 148.104,120.3137 L163.039,120.3137 C164.84,120.3137 166.293,121.6477 166.293,123.2887" id="Fill-278" fill="#141414"></path>
                        <path d="M189.7461,123.7023 L189.7461,137.3633 C189.7461,139.0033 188.2861,140.3373 186.4921,140.3373 L171.5561,140.3373 C169.7551,140.3373 168.3021,139.0033 168.3021,137.3633 L168.3021,123.7023 C168.3021,122.0623 169.7551,120.7273 171.5561,120.7273 L186.4921,120.7273 C188.2861,120.7273 189.7461,122.0623 189.7461,123.7023" id="Fill-280" fill="#141414"></path>
                        <path d="M213.1992,123.7023 L213.1992,137.3633 C213.1992,139.0033 211.7462,140.3373 209.9452,140.3373 L195.0102,140.3373 C193.2092,140.3373 191.7562,139.0033 191.7562,137.3633 L191.7562,123.7023 C191.7562,122.0623 193.2092,120.7273 195.0102,120.7273 L209.9452,120.7273 C211.7462,120.7273 213.1992,122.0623 213.1992,123.7023" id="Fill-282" fill="#141414"></path>
                        <path d="M236.6543,123.2887 L236.6543,136.9487 C236.6543,138.5887 235.1953,139.9237 233.4003,139.9237 L218.4653,139.9237 C216.6633,139.9237 215.2113,138.5887 215.2113,136.9487 L215.2113,123.2887 C215.2113,121.6477 216.6633,120.3137 218.4653,120.3137 L233.4003,120.3137 C235.1953,120.3137 236.6543,121.6477 236.6543,123.2887" id="Fill-284" fill="#141414"></path>
                        <path d="M260.4746,123.7023 L260.4746,137.3633 C260.4746,139.0033 259.0156,140.3373 257.2206,140.3373 L242.2786,140.3373 C240.4846,140.3373 239.0246,139.0033 239.0246,137.3633 L239.0246,123.7023 C239.0246,122.0623 240.4846,120.7273 242.2786,120.7273 L257.2206,120.7273 C259.0156,120.7273 260.4746,122.0623 260.4746,123.7023" id="Fill-286" fill="#141414"></path>
                        <path d="M284.4229,123.7023 L284.4229,137.3633 C284.4229,139.0033 282.9629,140.3373 281.1689,140.3373 L266.2259,140.3373 C264.4319,140.3373 262.9729,139.0033 262.9729,137.3633 L262.9729,123.7023 C262.9729,122.0623 264.4319,120.7273 266.2259,120.7273 L281.1689,120.7273 C282.9629,120.7273 284.4229,122.0623 284.4229,123.7023" id="Fill-288" fill="#141414"></path>
                        <path d="M308.3633,123.7023 L308.3633,137.3633 C308.3633,139.0033 306.9103,140.3373 305.1093,140.3373 L290.1743,140.3373 C288.3803,140.3373 286.9203,139.0033 286.9203,137.3633 L286.9203,123.7023 C286.9203,122.0623 288.3803,120.7273 290.1743,120.7273 L305.1093,120.7273 C306.9103,120.7273 308.3633,122.0623 308.3633,123.7023" id="Fill-290" fill="#141414"></path>
                        <path d="M332.8291,123.2887 L332.8291,136.9487 C332.8291,138.5887 331.3761,139.9237 329.5751,139.9237 L314.6401,139.9237 C312.8391,139.9237 311.3861,138.5887 311.3861,136.9487 L311.3861,123.2887 C311.3861,121.6477 312.8391,120.3137 314.6401,120.3137 L329.5751,120.3137 C331.3761,120.3137 332.8291,121.6477 332.8291,123.2887" id="Fill-292" fill="#141414"></path>
                        <path d="M48.0342,108.3483 L48.0342,115.3193 C48.0342,116.1573 46.5382,116.8373 44.6922,116.8373 L29.3852,116.8373 C27.5462,116.8373 26.0502,116.1573 26.0502,115.3193 L26.0502,108.3483 C26.0502,107.5113 27.5462,106.8303 29.3852,106.8303 L44.6922,106.8303 C46.5382,106.8303 48.0342,107.5113 48.0342,108.3483" id="Fill-294" fill="#141414"></path>
                        <path d="M71.8994,108.3483 L71.8994,115.3193 C71.8994,116.1573 70.4034,116.8373 68.5644,116.8373 L53.2504,116.8373 C51.4114,116.8373 49.9154,116.1573 49.9154,115.3193 L49.9154,108.3483 C49.9154,107.5113 51.4114,106.8303 53.2504,106.8303 L68.5644,106.8303 C70.4034,106.8303 71.8994,107.5113 71.8994,108.3483" id="Fill-296" fill="#141414"></path>
                        <path d="M96.375,108.3483 L96.375,115.3193 C96.375,116.1573 94.879,116.8373 93.033,116.8373 L77.726,116.8373 C75.887,116.8373 74.391,116.1573 74.391,115.3193 L74.391,108.3483 C74.391,107.5113 75.887,106.8303 77.726,106.8303 L93.033,106.8303 C94.879,106.8303 96.375,107.5113 96.375,108.3483" id="Fill-298" fill="#141414"></path>
                        <path d="M120.1592,108.1374 L120.1592,115.1084 C120.1592,115.9454 118.6702,116.6264 116.8242,116.6264 L101.5162,116.6264 C99.6782,116.6264 98.1812,115.9454 98.1812,115.1084 L98.1812,108.1374 C98.1812,107.3004 99.6782,106.6194 101.5162,106.6194 L116.8242,106.6194 C118.6702,106.6194 120.1592,107.3004 120.1592,108.1374" id="Fill-300" fill="#141414"></path>
                        <path d="M144.1982,108.3483 L144.1982,115.3193 C144.1982,116.1573 142.7092,116.8373 140.8632,116.8373 L125.5552,116.8373 C123.7172,116.8373 122.2202,116.1573 122.2202,115.3193 L122.2202,108.3483 C122.2202,107.5113 123.7172,106.8303 125.5552,106.8303 L140.8632,106.8303 C142.7092,106.8303 144.1982,107.5113 144.1982,108.3483" id="Fill-302" fill="#141414"></path>
                        <path d="M168.417,108.1374 L168.417,115.1084 C168.417,115.9454 166.929,116.6264 165.083,116.6264 L149.774,116.6264 C147.93,116.6264 146.44,115.9454 146.44,115.1084 L146.44,108.1374 C146.44,107.3004 147.93,106.6194 149.774,106.6194 L165.083,106.6194 C166.929,106.6194 168.417,107.3004 168.417,108.1374" id="Fill-304" fill="#141414"></path>
                        <path d="M192.4531,108.3483 L192.4531,115.3193 C192.4531,116.1573 190.9571,116.8373 189.1181,116.8373 L173.8111,116.8373 C171.9651,116.8373 170.4761,116.1573 170.4761,115.3193 L170.4761,108.3483 C170.4761,107.5113 171.9651,106.8303 173.8111,106.8303 L189.1181,106.8303 C190.9571,106.8303 192.4531,107.5113 192.4531,108.3483" id="Fill-306" fill="#141414"></path>
                        <path d="M216.4902,108.3483 L216.4902,115.3193 C216.4902,116.1573 215.0012,116.8373 213.1552,116.8373 L197.8472,116.8373 C196.0022,116.8373 194.5132,116.1573 194.5132,115.3193 L194.5132,108.3483 C194.5132,107.5113 196.0022,106.8303 197.8472,106.8303 L213.1552,106.8303 C215.0012,106.8303 216.4902,107.5113 216.4902,108.3483" id="Fill-308" fill="#141414"></path>
                        <path d="M240.5283,108.1374 L240.5283,115.1084 C240.5283,115.9454 239.0333,116.6264 237.1943,116.6264 L221.8863,116.6264 C220.0413,116.6264 218.5513,115.9454 218.5513,115.1084 L218.5513,108.1374 C218.5513,107.3004 220.0413,106.6194 221.8863,106.6194 L237.1943,106.6194 C239.0333,106.6194 240.5283,107.3004 240.5283,108.1374" id="Fill-310" fill="#141414"></path>
                        <path d="M264.9424,108.3483 L264.9424,115.3193 C264.9424,116.1573 263.4464,116.8373 261.6074,116.8373 L246.2934,116.8373 C244.4544,116.8373 242.9584,116.1573 242.9584,115.3193 L242.9584,108.3483 C242.9584,107.5113 244.4544,106.8303 246.2934,106.8303 L261.6074,106.8303 C263.4464,106.8303 264.9424,107.5113 264.9424,108.3483" id="Fill-312" fill="#141414"></path>
                        <path d="M289.4854,108.3483 L289.4854,115.3193 C289.4854,116.1573 287.9894,116.8373 286.1504,116.8373 L270.8364,116.8373 C268.9974,116.8373 267.5024,116.1573 267.5024,115.3193 L267.5024,108.3483 C267.5024,107.5113 268.9974,106.8303 270.8364,106.8303 L286.1504,106.8303 C287.9894,106.8303 289.4854,107.5113 289.4854,108.3483" id="Fill-314" fill="#141414"></path>
                        <path d="M314.0225,108.3483 L314.0225,115.3193 C314.0225,116.1573 312.5335,116.8373 310.6875,116.8373 L295.3795,116.8373 C293.5415,116.8373 292.0445,116.1573 292.0445,115.3193 L292.0445,108.3483 C292.0445,107.5113 293.5415,106.8303 295.3795,106.8303 L310.6875,106.8303 C312.5335,106.8303 314.0225,107.5113 314.0225,108.3483" id="Fill-316" fill="#141414"></path>
                        <path d="M339.0967,108.1374 L339.0967,115.1084 C339.0967,115.9454 337.6077,116.6264 335.7617,116.6264 L320.4537,116.6264 C318.6087,116.6264 317.1187,115.9454 317.1187,115.1084 L317.1187,108.1374 C317.1187,107.3004 318.6087,106.6194 320.4537,106.6194 L335.7617,106.6194 C337.6077,106.6194 339.0967,107.3004 339.0967,108.1374" id="Fill-318" fill="#141414"></path>
                        <path d="M364.1709,108.1374 L364.1709,115.1084 C364.1709,115.9454 362.6819,116.6264 360.8359,116.6264 L345.5279,116.6264 C343.6829,116.6264 342.1929,115.9454 342.1929,115.1084 L342.1929,108.1374 C342.1929,107.3004 343.6829,106.6194 345.5279,106.6194 L360.8359,106.6194 C362.6819,106.6194 364.1709,107.3004 364.1709,108.1374" id="Fill-320" fill="#141414"></path>
                        <path d="M364.1709,123.2887 L364.1709,136.9487 C364.1709,138.5887 362.2519,139.9237 359.8739,139.9237 L340.1489,139.9237 C337.7699,139.9237 335.8519,138.5887 335.8519,136.9487 L335.8519,123.2887 C335.8519,121.6477 337.7699,120.3137 340.1489,120.3137 L359.8739,120.3137 C362.2519,120.3137 364.1709,121.6477 364.1709,123.2887" id="Fill-322" fill="#141414"></path>
                        <path d="M42.0439,215.3683 L42.0439,229.0223 C42.0439,230.6693 40.5839,231.9973 38.7899,231.9973 L30.6359,231.9973 C28.8349,231.9973 27.3819,230.6693 27.3819,229.0223 L27.3819,215.3683 C27.3819,213.7273 28.8349,212.3933 30.6359,212.3933 L38.7899,212.3933 C40.5839,212.3933 42.0439,213.7273 42.0439,215.3683" id="Fill-324" fill="#141414"></path>
                        <path d="M60.1328,215.3683 L60.1328,229.0223 C60.1328,230.6693 58.6738,231.9973 56.8788,231.9973 L48.7258,231.9973 C46.9308,231.9973 45.4718,230.6693 45.4718,229.0223 L45.4718,215.3683 C45.4718,213.7273 46.9308,212.3933 48.7258,212.3933 L56.8788,212.3933 C58.6738,212.3933 60.1328,213.7273 60.1328,215.3683" id="Fill-326" fill="#141414"></path>
                        <path d="M78.2227,215.3683 L78.2227,229.0223 C78.2227,230.6693 76.7627,231.9973 74.9687,231.9973 L66.8147,231.9973 C65.0207,231.9973 63.5607,230.6693 63.5607,229.0223 L63.5607,215.3683 C63.5607,213.7273 65.0207,212.3933 66.8147,212.3933 L74.9687,212.3933 C76.7627,212.3933 78.2227,213.7273 78.2227,215.3683" id="Fill-328" fill="#141414"></path>
                        <path d="M288.3584,215.3683 L288.3584,229.0223 C288.3584,230.6693 286.8994,231.9973 285.0984,231.9973 L276.9514,231.9973 C275.1504,231.9973 273.6974,230.6693 273.6974,229.0223 L273.6974,215.3683 C273.6974,213.7273 275.1504,212.3933 276.9514,212.3933 L285.0984,212.3933 C286.8994,212.3933 288.3584,213.7273 288.3584,215.3683" id="Fill-330" fill="#141414"></path>
                        <path d="M107.9873,215.3683 L107.9873,229.0223 C107.9873,230.6693 106.5353,231.9973 104.7333,231.9973 L84.9043,231.9973 C83.1093,231.9973 81.6503,230.6693 81.6503,229.0223 L81.6503,215.3683 C81.6503,213.7273 83.1093,212.3933 84.9043,212.3933 L104.7333,212.3933 C106.5353,212.3933 107.9873,213.7273 107.9873,215.3683" id="Fill-332" fill="#141414"></path>
                        <path d="M270.1152,215.3683 L270.1152,229.0223 C270.1152,230.6693 268.6562,231.9973 266.8612,231.9973 L247.0322,231.9973 C245.2312,231.9973 243.7782,230.6693 243.7782,229.0223 L243.7782,215.3683 C243.7782,213.7273 245.2312,212.3933 247.0322,212.3933 L266.8612,212.3933 C268.6562,212.3933 270.1152,213.7273 270.1152,215.3683" id="Fill-334" fill="#141414"></path>
                        <path d="M364.2646,225.173 L364.2646,229.023 C364.2646,230.669 362.8046,231.997 361.0106,231.997 L345.9206,231.997 C344.1256,231.997 342.6666,230.669 342.6666,229.023 L342.6666,225.173 C342.6666,223.527 344.1256,222.198 345.9206,222.198 L361.0106,222.198 C362.8046,222.198 364.2646,223.527 364.2646,225.173" id="Fill-336" fill="#141414"></path>
                        <path d="M339.3193,225.173 L339.3193,229.023 C339.3193,230.669 337.8603,231.997 336.0653,231.997 L320.9753,231.997 C319.1813,231.997 317.7213,230.669 317.7213,229.023 L317.7213,225.173 C317.7213,223.527 319.1813,222.198 320.9753,222.198 L336.0653,222.198 C337.8603,222.198 339.3193,223.527 339.3193,225.173" id="Fill-338" fill="#141414"></path>
                        <path d="M339.3193,215.3683 L339.3193,219.2233 C339.3193,220.8643 337.8603,222.1983 336.0653,222.1983 L320.9753,222.1983 C319.1813,222.1983 317.7213,220.8643 317.7213,219.2233 L317.7213,215.3683 C317.7213,213.7273 319.1813,212.3933 320.9753,212.3933 L336.0653,212.3933 C337.8603,212.3933 339.3193,213.7273 339.3193,215.3683" id="Fill-340" fill="#141414"></path>
                        <path d="M313.8594,225.173 L313.8594,229.023 C313.8594,230.669 312.4004,231.997 310.6054,231.997 L295.5154,231.997 C293.7214,231.997 292.2614,230.669 292.2614,229.023 L292.2614,225.173 C292.2614,223.527 293.7214,222.198 295.5154,222.198 L310.6054,222.198 C312.4004,222.198 313.8594,223.527 313.8594,225.173" id="Fill-342" fill="#141414"></path>
                        <path d="M240.1895,215.3683 L240.1895,229.0223 C240.1895,230.6693 238.7375,231.9973 236.9365,231.9973 L114.4145,231.9973 C112.6135,231.9973 111.1615,230.6693 111.1615,229.0223 L111.1615,215.3683 C111.1615,213.7273 112.6135,212.3933 114.4145,212.3933 L236.9365,212.3933 C238.7375,212.3933 240.1895,213.7273 240.1895,215.3683" id="Fill-344" fill="#141414"></path>
                        <mask id="mask-10" fill="white">
                            <use xlink:href="#path-9"></use>
                        </mask>
                        <g id="Clip-347"></g>
                        <polygon id="Fill-346" fill="#B7B7B7" mask="url(#mask-10)" points="50.64 92.961 340.545 92.961 340.545 80.981 50.64 80.981"></polygon>
                        <path d="M334.6338,72.2497 L56.5788,72.2497 C53.3148,72.2497 50.6678,74.8957 50.6678,78.1607 L50.6678,83.9507 L340.5448,83.9507 L340.5448,78.1607 C340.5448,74.8957 337.8988,72.2497 334.6338,72.2497" id="Fill-348" fill="#848484" mask="url(#mask-10)"></path>
                        <polyline id="Fill-349" fill="#353535" mask="url(#mask-10)" points="341.8477 0.8801 341.8477 15.1091 341.8477 15.2201 341.8477 18.0411 117.2757 18.0411 117.2757 15.2201 117.2757 15.1091 117.2757 0.8801"></polyline>
                        <path d="M0,0.8801 L0,59.7451 L0,67.1081 C0,74.1461 5.73,79.9601 13.155,80.8541 C13.162,80.8541 13.169,80.8541 13.183,80.8591 C13.832,80.9391 14.494,80.9821 15.171,80.9821 L50.64,80.9821 L50.666,80.9821 L340.545,80.9821 L376.007,80.9821 C384.389,80.9821 391.184,74.7701 391.184,67.1081 L391.184,59.7451 L391.184,0.8801" id="Fill-350" fill="#353535" mask="url(#mask-10)"></path>
                        <path d="M108.4824,18.0412 L354.1344,18.0412 M391.1834,0.8802 L0.0004,0.8802 L0.0004,59.7452 C0.0004,63.9312 3.7094,67.3222 8.2814,67.3222 L382.8954,67.3222 C387.4754,67.3222 391.1834,63.9312 391.1834,59.7452" id="Fill-351" fill="#000000" mask="url(#mask-10)"></path>
                        <polygon id="Fill-352" fill="#9FFFFA" mask="url(#mask-10)" points="117.272 14.557 341.849 14.557 341.849 0.881 117.272 0.881"></polygon>
                        <polyline id="Fill-353" fill="#9FFFFA" mask="url(#mask-10)" points="373.3066 0.8825 373.3066 53.6205 17.8736 53.6205 17.8736 0.8825 108.4826 0.8805"></polyline>
                        <path d="M232.0908,31.6989 L161.0668,31.6989 C159.9618,31.6989 159.0668,32.5949 159.0668,33.6989 L159.0668,51.6209 C159.0668,52.7249 159.9618,53.6209 161.0668,53.6209 L232.0908,53.6209 C233.1958,53.6209 234.0918,52.7249 234.0918,51.6209 L234.0918,33.6989 C234.0918,32.5949 233.1958,31.6989 232.0908,31.6989" id="Fill-354" fill="#5A5A5A" mask="url(#mask-10)"></path>
                        <polygon id="Fill-355" fill="#FFFFFF" mask="url(#mask-10)" points="112.188 14.476 354.427 14.476 354.427 0.882 112.188 0.882"></polygon>
                        <path d="M34.7129,0.8801 L34.7129,24.4371 C34.7129,26.4441 36.6009,28.0721 38.9309,28.0721 L349.9099,28.0721 C352.2469,28.0721 354.1349,26.4441 354.1349,24.4371 L354.1349,18.0411 L354.1349,15.2201 L117.2759,15.2201 L117.2759,0.8801" id="Fill-356" fill="#EBEBEB" mask="url(#mask-10)"></path>
                        <path d="M354.1367,15.111 L35.3837,15.111" id="Stroke-357" stroke="#CBCBCB" mask="url(#mask-10)"></path>
                        <polyline id="Stroke-358" stroke="#CBCBCB" mask="url(#mask-10)" points="117.2754 15.2199 117.2754 15.1099 117.2754 0.8799"></polyline>
                        <path d="M166.0088,350.466 C166.0088,348.788 168.7068,347.429 172.0358,347.429 L224.5388,347.429 C227.8678,347.429 230.5668,348.788 230.5668,350.466 L166.0088,350.466 Z" id="Fill-359" fill="#AAAAAA" mask="url(#mask-10)"></path>
                        <path d="M230.5664,350.5158 C230.5664,352.1938 227.8684,353.5538 224.5394,353.5538 L172.0364,353.5538 C168.7074,353.5538 166.0084,352.1938 166.0084,350.5158 L230.5664,350.5158 Z" id="Fill-360" fill="#565656" mask="url(#mask-10)"></path>
                        <path d="M178.3721,51.113 C178.3721,51.487 178.0681,51.79 177.6941,51.79 C177.3201,51.79 177.0171,51.487 177.0171,51.113 C177.0171,50.739 177.3201,50.436 177.6941,50.436 C178.0681,50.436 178.3721,50.739 178.3721,51.113" id="Fill-361" fill="#282828" mask="url(#mask-10)"></path>
                        <path d="M179.3184,47.528 L172.8824,47.528 C172.2234,47.528 171.6864,47.034 171.6864,46.428 L171.6864,35.994 C171.6864,35.388 172.2234,34.895 172.8824,34.895 L177.5854,34.895 L175.9834,39.24 C175.8224,39.676 176.1934,40.12 176.7304,40.12 L177.6584,40.12 C177.9564,40.12 178.2144,40.268 178.3514,40.484 L178.3514,40.488 C178.3904,40.56 178.4244,40.636 178.4344,40.722 L179.3184,47.528 Z" id="Fill-362" fill="#29A5F4" mask="url(#mask-10)"></path>
                        <path d="M184.2393,35.9943 L184.2393,46.4283 C184.2393,47.0343 183.6733,47.5283 182.9693,47.5283 L179.3183,47.5283 L178.4343,40.7223 C178.4253,40.6363 178.3903,40.5603 178.3513,40.4883 L178.3513,40.4843 C178.2153,40.2683 177.9563,40.1203 177.6583,40.1203 L176.7303,40.1203 C176.1933,40.1203 175.8223,39.6763 175.9833,39.2403 L177.5853,34.8943 L182.9693,34.8943 C183.6733,34.8943 184.2393,35.3883 184.2393,35.9943" id="Fill-363" fill="#E7EEF5" mask="url(#mask-10)"></path>
                        <path d="M174.3359,39.3215 L174.3359,37.2775" id="Stroke-364" stroke="#282828" stroke-linecap="round" mask="url(#mask-10)"></path>
                        <path d="M180.585,39.3215 L180.585,37.2775" id="Stroke-365" stroke="#282828" stroke-linecap="round" mask="url(#mask-10)"></path>
                        <path d="M174.3359,43.5563 C174.3359,43.5563 177.8649,45.9513 181.0529,43.5563" id="Stroke-366" stroke="#282828" stroke-linecap="round" mask="url(#mask-10)"></path>
                        <path d="M201.541,47.528 L192.329,47.528 C191.348,47.528 190.552,46.732 190.552,45.751 L190.552,36.539 C190.552,35.557 191.348,34.762 192.329,34.762 L201.541,34.762 C202.522,34.762 203.318,35.557 203.318,36.539 L203.318,45.751 C203.318,46.732 202.522,47.528 201.541,47.528" id="Fill-367" fill="#F932BB" mask="url(#mask-10)"></path>
                        <path d="M201.0703,47.0578 L192.7993,47.0578 C191.8173,47.0578 191.0213,46.2628 191.0213,45.2808 L191.0213,37.0088 C191.0213,36.0278 191.8173,35.2318 192.7993,35.2318 L201.0703,35.2318 C202.0523,35.2318 202.8473,36.0278 202.8473,37.0088 L202.8473,45.2808 C202.8473,46.2628 202.0523,47.0578 201.0703,47.0578" id="Fill-368" fill="#2C011F" mask="url(#mask-10)"></path>
                    </g>
                    <text id="Xd" font-family="MyriadPro-Bold, Myriad Pro" font-size="7.3443" font-weight="bold" letter-spacing="-0.019" fill="#FDDBF2">
                        <tspan x="192.6738" y="42.3254851">Xd</tspan>
                    </text>
                    <g id="Group-382" transform="translate(0.000000, 34.120000)">
                        <path d="M220.3564,13.9728 L211.4564,13.9728 C210.4744,13.9728 209.6794,13.1768 209.6794,12.1958 L209.6794,3.2958 C209.6794,2.3138 210.4744,1.5178 211.4564,1.5178 L220.3564,1.5178 C221.3374,1.5178 222.1334,2.3138 222.1334,3.2958 L222.1334,12.1958 C222.1334,13.1768 221.3374,13.9728 220.3564,13.9728" id="Fill-370" fill="#0D5D90"></path>
                        <path d="M220.3564,13.027 L211.4564,13.027 C210.4744,13.027 209.6794,12.231 209.6794,11.25 L209.6794,2.35 C209.6794,1.368 210.4744,0.572 211.4564,0.572 L220.3564,0.572 C221.3374,0.572 222.1334,1.368 222.1334,2.35 L222.1334,11.25 C222.1334,12.231 221.3374,13.027 220.3564,13.027" id="Fill-372" fill="#1BA9DF"></path>
                        <path d="M218.9668,11.6374 L212.8468,11.6374 C211.8638,11.6374 211.0698,10.8414 211.0698,9.8604 L211.0698,3.7394 C211.0698,2.7584 211.8638,1.9624 212.8468,1.9624 L218.9668,1.9624 C219.9478,1.9624 220.7438,2.7584 220.7438,3.7394 L220.7438,9.8604 C220.7438,10.8414 219.9478,11.6374 218.9668,11.6374" id="Fill-374" fill="#FDFDFD"></path>
                        <polygon id="Fill-376" fill="#4D4D4D" points="215.2764 2.7985 211.9204 2.7985 211.9204 10.6445 215.2764 10.6445 215.2764 9.3025 213.5984 9.3025 213.5984 4.0445 215.2764 4.0445"></polygon>
                        <polygon id="Fill-378" fill="#4D4D4D" points="216.501 10.6442 220.048 10.6442 220.048 2.7982 216.501 2.7982 216.501 4.1392 218.274 4.1392 218.274 9.3972 216.501 9.3972"></polygon>
                        <path d="M15.3174,47.1105 C15.3174,47.1105 1.3074,45.0955 0.0004,57.0185 L69.5204,106.3375 L394.918343,106.3375 L394.9164,57.0185 C394.9164,57.0185 395.3334,48.0995 383.9494,47.1095 C372.0374,47.1915 15.3174,47.1105 15.3174,47.1105" id="Fill-380" fill-opacity="0.419497283" fill="#4F4F4F"></path>
                    </g>
                </g>
            </g>
        </g>
    </g>
</svg>