<svg id="Layer_1" data-name="Layer 1" xmlns="http://www.w3.org/2000/svg" xmlns:xlink="http://www.w3.org/1999/xlink" viewBox="0 0 434.11 152.11"><defs><style>.cls-1{fill:#fff;}.cls-2{opacity:0.5;}.cls-3{mask:url(#mask);}.cls-4{fill:#565656;}.cls-5{mask:url(#mask-2-2);}.cls-6{fill:#d6d6d6;}.cls-7{fill:#eff0f0;}.cls-8{fill:#e0e0e0;}.cls-9{fill:#f5f6f6;}.cls-10{fill:#c9c9c9;}.cls-11{fill:#e2e2e2;}.cls-12{fill:#4c4c4c;}.cls-13{fill:#141414;}.cls-14{mask:url(#mask-3);}.cls-15{fill:#b7b7b7;}.cls-16{fill:#848484;}.cls-17{fill:#353535;}.cls-18{fill:#9ffffa;}.cls-19{fill:#5a5a5a;}.cls-20{fill:#ebebeb;}.cls-21,.cls-26{fill:none;}.cls-21{stroke:#cbcbcb;}.cls-22{fill:#aaa;}.cls-23{fill:#282828;}.cls-24{fill:#29a5f4;}.cls-25{fill:#e7eef5;}.cls-26{stroke:#282828;stroke-linecap:round;stroke-width:0.25px;}.cls-27{fill:#f932bb;}.cls-28{fill:#2c011f;}.cls-29{isolation:isolate;}.cls-30{fill:#fddbf2;}.cls-31{opacity:0.75;}.cls-32{fill:#0d5d90;}.cls-33{fill:#1ba9df;}.cls-34{fill:#fdfdfd;}.cls-35{fill:#4d4d4d;}.cls-36{mask:url(#mask-25);}.cls-37{fill:#4f4f4f;fill-opacity:0.44;}</style><mask id="mask" x="142.4" y="142.77" width="159.61" height="7.91" maskUnits="userSpaceOnUse"><g id="mask-2"><polygon id="path-1" class="cls-1" points="142.4 142.77 302 142.77 302 150.68 142.4 150.68 142.4 142.77"/></g></mask><mask id="mask-2-2" x="141.88" y="137.44" width="160.64" height="11.91" maskUnits="userSpaceOnUse"><g id="mask-4"><polygon id="path-3" class="cls-1" points="141.88 137.44 302.52 137.44 302.52 149.35 141.88 149.35 141.88 137.44"/></g></mask><mask id="mask-3" x="141.88" y="2.06" width="162.17" height="148.62" maskUnits="userSpaceOnUse"><g id="mask-6"><polygon id="path-5" class="cls-1" points="141.88 150.68 304.05 150.68 304.05 2.06 141.88 2.06 141.88 150.68"/></g></mask><mask id="mask-25" x="141.88" y="35.28" width="162.17" height="24.47" maskUnits="userSpaceOnUse"><g id="mask-8-2" data-name="mask-8"><polygon id="path-7" class="cls-1" points="141.88 35.28 304.05 35.28 304.05 59.74 141.88 59.74 141.88 35.28"/></g></mask></defs><title>bcourses-card-img copy 2</title><g id="Group-368"><g id="Group-3" class="cls-2"><g class="cls-3"><path id="Fill-1" class="cls-4" d="M302,142.77v3.83a4.27,4.27,0,0,1-4.43,4.08H146.83a4.27,4.27,0,0,1-4.43-4.08v-3.83Z"/></g></g><g id="Group-6"><g class="cls-5"><path id="Fill-4" class="cls-6" d="M302.52,137.44v5.77c0,3.4-2,6.14-4.46,6.14H146.34c-2.46,0-4.46-2.74-4.46-6.14v-5.77Z"/></g></g><path id="Fill-7" class="cls-7" d="M295.86,145.52H148.54a6.66,6.66,0,0,1-6.66-6.66V41.59a6.66,6.66,0,0,1,6.66-6.66H295.86a6.66,6.66,0,0,1,6.66,6.66v97.27a6.66,6.66,0,0,1-6.66,6.66"/><path id="Fill-9" class="cls-8" d="M245.4,140.35H200.09a3.37,3.37,0,0,1-3.37-3.37V106.52a3.36,3.36,0,0,1,3.37-3.36H245.4a3.36,3.36,0,0,1,3.37,3.36V137a3.37,3.37,0,0,1-3.37,3.37"/><path id="Fill-11" class="cls-9" d="M244.51,139.72H201a3.37,3.37,0,0,1-3.37-3.37v-29.2a3.37,3.37,0,0,1,3.37-3.36h43.54a3.37,3.37,0,0,1,3.37,3.36v29.2a3.37,3.37,0,0,1-3.37,3.37"/><path id="Fill-13" class="cls-10" d="M291.66,99.7H152.74a2.06,2.06,0,0,1-2.06-2.06V45.26a2.06,2.06,0,0,1,2.06-2.06H291.66a2.06,2.06,0,0,1,2.06,2.06V97.64a2.06,2.06,0,0,1-2.06,2.06"/><path id="Fill-15" class="cls-11" d="M290.82,99H153.58a2.06,2.06,0,0,1-2.06-2.06V46A2.06,2.06,0,0,1,153.58,44H290.82A2.06,2.06,0,0,1,292.88,46V96.89A2.06,2.06,0,0,1,290.82,99"/><g id="Group-173"><path id="Fill-17" class="cls-12" d="M190,79.8A1.29,1.29,0,0,1,191.38,81v5.6A1.29,1.29,0,0,1,190,87.85h-6.13a1.29,1.29,0,0,1-1.34-1.22V81a1.29,1.29,0,0,1,1.34-1.23Z"/><path id="Fill-19" class="cls-12" d="M170.79,81v5.6a1.28,1.28,0,0,1-1.33,1.22H154.73a1.28,1.28,0,0,1-1.33-1.22V81a1.29,1.29,0,0,1,1.33-1.23h14.73A1.29,1.29,0,0,1,170.79,81"/><path id="Fill-21" class="cls-12" d="M291.82,81v5.6a1.28,1.28,0,0,1-1.33,1.22H275.76a1.28,1.28,0,0,1-1.33-1.22V81a1.29,1.29,0,0,1,1.33-1.23h14.73A1.28,1.28,0,0,1,291.82,81"/><path id="Fill-23" class="cls-12" d="M181.13,81v5.6a1.29,1.29,0,0,1-1.34,1.22h-6.13a1.29,1.29,0,0,1-1.34-1.22V81a1.29,1.29,0,0,1,1.34-1.23h6.13A1.29,1.29,0,0,1,181.13,81"/><path id="Fill-25" class="cls-12" d="M201.56,81v5.6a1.28,1.28,0,0,1-1.33,1.22h-6.14a1.28,1.28,0,0,1-1.33-1.22V81a1.28,1.28,0,0,1,1.33-1.23h6.14A1.29,1.29,0,0,1,201.56,81"/><path id="Fill-27" class="cls-12" d="M211.75,81v5.6a1.29,1.29,0,0,1-1.34,1.22h-6.14a1.28,1.28,0,0,1-1.33-1.22V81a1.29,1.29,0,0,1,1.33-1.23h6.14A1.29,1.29,0,0,1,211.75,81"/><path id="Fill-29" class="cls-12" d="M222,81v5.6a1.29,1.29,0,0,1-1.34,1.22h-6.13a1.28,1.28,0,0,1-1.33-1.22V81a1.28,1.28,0,0,1,1.33-1.23h6.13A1.29,1.29,0,0,1,222,81"/><path id="Fill-31" class="cls-12" d="M232.18,81v5.6a1.28,1.28,0,0,1-1.33,1.22h-6.14a1.28,1.28,0,0,1-1.33-1.22V81a1.28,1.28,0,0,1,1.33-1.23h6.14A1.29,1.29,0,0,1,232.18,81"/><path id="Fill-33" class="cls-12" d="M242.37,81v5.6A1.29,1.29,0,0,1,241,87.85h-6.14a1.28,1.28,0,0,1-1.33-1.22V81a1.29,1.29,0,0,1,1.33-1.23H241A1.29,1.29,0,0,1,242.37,81"/><path id="Fill-35" class="cls-12" d="M252.62,81v5.6a1.28,1.28,0,0,1-1.33,1.22h-6.14a1.29,1.29,0,0,1-1.34-1.22V81a1.29,1.29,0,0,1,1.34-1.23h6.14A1.29,1.29,0,0,1,252.62,81"/><path id="Fill-37" class="cls-12" d="M262.8,81v5.6a1.28,1.28,0,0,1-1.33,1.22h-6.14A1.28,1.28,0,0,1,254,86.63V81a1.29,1.29,0,0,1,1.33-1.23h6.14A1.28,1.28,0,0,1,262.8,81"/><path id="Fill-39" class="cls-12" d="M273,81v5.6a1.29,1.29,0,0,1-1.34,1.22h-6.13a1.29,1.29,0,0,1-1.34-1.22V81a1.29,1.29,0,0,1,1.34-1.23h6.13A1.29,1.29,0,0,1,273,81"/><path id="Fill-41" class="cls-12" d="M175.62,71.6v5.61a1.29,1.29,0,0,1-1.34,1.22h-6.13a1.28,1.28,0,0,1-1.33-1.22V71.6a1.28,1.28,0,0,1,1.33-1.22h6.13a1.29,1.29,0,0,1,1.34,1.22"/><path id="Fill-43" class="cls-12" d="M185.88,71.6v5.61a1.29,1.29,0,0,1-1.34,1.22h-6.13a1.29,1.29,0,0,1-1.34-1.22V71.6a1.29,1.29,0,0,1,1.34-1.22h6.13a1.29,1.29,0,0,1,1.34,1.22"/><path id="Fill-45" class="cls-12" d="M196.06,71.6v5.61a1.29,1.29,0,0,1-1.34,1.22h-6.13a1.29,1.29,0,0,1-1.34-1.22V71.6a1.29,1.29,0,0,1,1.34-1.22h6.13a1.29,1.29,0,0,1,1.34,1.22"/><path id="Fill-47" class="cls-12" d="M206.24,71.6v5.61a1.28,1.28,0,0,1-1.33,1.22h-6.14a1.28,1.28,0,0,1-1.33-1.22V71.6a1.28,1.28,0,0,1,1.33-1.22h6.14a1.28,1.28,0,0,1,1.33,1.22"/><path id="Fill-49" class="cls-12" d="M216.5,71.6v5.61a1.29,1.29,0,0,1-1.34,1.22H209a1.29,1.29,0,0,1-1.34-1.22V71.6A1.29,1.29,0,0,1,209,70.38h6.13a1.29,1.29,0,0,1,1.34,1.22"/><path id="Fill-51" class="cls-12" d="M226.68,71.6v5.61a1.29,1.29,0,0,1-1.34,1.22h-6.13a1.29,1.29,0,0,1-1.34-1.22V71.6a1.29,1.29,0,0,1,1.34-1.22h6.13a1.29,1.29,0,0,1,1.34,1.22"/><path id="Fill-53" class="cls-12" d="M236.86,71.6v5.61a1.28,1.28,0,0,1-1.33,1.22h-6.14a1.28,1.28,0,0,1-1.33-1.22V71.6a1.28,1.28,0,0,1,1.33-1.22h6.14a1.28,1.28,0,0,1,1.33,1.22"/><path id="Fill-55" class="cls-12" d="M247.12,71.6v5.61a1.29,1.29,0,0,1-1.34,1.22h-6.13a1.29,1.29,0,0,1-1.34-1.22V71.6a1.29,1.29,0,0,1,1.34-1.22h6.13a1.29,1.29,0,0,1,1.34,1.22"/><path id="Fill-57" class="cls-12" d="M257.3,71.6v5.61A1.29,1.29,0,0,1,256,78.43h-6.13a1.29,1.29,0,0,1-1.34-1.22V71.6a1.29,1.29,0,0,1,1.34-1.22H256a1.29,1.29,0,0,1,1.34,1.22"/><path id="Fill-59" class="cls-12" d="M267.48,71.6v5.61a1.28,1.28,0,0,1-1.33,1.22H260a1.28,1.28,0,0,1-1.33-1.22V71.6A1.28,1.28,0,0,1,260,70.38h6.14a1.28,1.28,0,0,1,1.33,1.22"/><path id="Fill-61" class="cls-12" d="M277.66,71.6v5.61a1.28,1.28,0,0,1-1.33,1.22h-6.14a1.28,1.28,0,0,1-1.33-1.22V71.6a1.28,1.28,0,0,1,1.33-1.22h6.14a1.28,1.28,0,0,1,1.33,1.22"/><path id="Fill-63" class="cls-12" d="M291.82,71.6v5.61a1.28,1.28,0,0,1-1.33,1.22H280.38A1.29,1.29,0,0,1,279,77.21V71.6a1.29,1.29,0,0,1,1.34-1.22h10.11a1.28,1.28,0,0,1,1.33,1.22"/><path id="Fill-65" class="cls-12" d="M165.44,71.6v5.61a1.29,1.29,0,0,1-1.34,1.22h-9.36a1.29,1.29,0,0,1-1.34-1.22V71.6a1.29,1.29,0,0,1,1.34-1.22h9.36a1.29,1.29,0,0,1,1.34,1.22"/><path id="Fill-67" class="cls-12" d="M169.3,62.13v5.61A1.29,1.29,0,0,1,168,69h-6.14a1.28,1.28,0,0,1-1.33-1.22V62.13a1.28,1.28,0,0,1,1.33-1.22H168a1.29,1.29,0,0,1,1.34,1.22"/><path id="Fill-69" class="cls-12" d="M179.55,62.13v5.61A1.29,1.29,0,0,1,178.21,69h-6.13a1.29,1.29,0,0,1-1.34-1.22V62.13a1.29,1.29,0,0,1,1.34-1.22h6.13a1.29,1.29,0,0,1,1.34,1.22"/><path id="Fill-71" class="cls-12" d="M189.73,62.13v5.61A1.29,1.29,0,0,1,188.39,69h-6.13a1.29,1.29,0,0,1-1.34-1.22V62.13a1.29,1.29,0,0,1,1.34-1.22h6.13a1.29,1.29,0,0,1,1.34,1.22"/><path id="Fill-73" class="cls-12" d="M199.91,62.13v5.61A1.28,1.28,0,0,1,198.58,69h-6.14a1.28,1.28,0,0,1-1.33-1.22V62.13a1.28,1.28,0,0,1,1.33-1.22h6.14a1.28,1.28,0,0,1,1.33,1.22"/><path id="Fill-75" class="cls-12" d="M210.17,62.13v5.61A1.29,1.29,0,0,1,208.83,69H202.7a1.29,1.29,0,0,1-1.34-1.22V62.13a1.29,1.29,0,0,1,1.34-1.22h6.13a1.29,1.29,0,0,1,1.34,1.22"/><path id="Fill-77" class="cls-12" d="M220.35,62.13v5.61A1.28,1.28,0,0,1,219,69h-6.14a1.28,1.28,0,0,1-1.33-1.22V62.13a1.28,1.28,0,0,1,1.33-1.22H219a1.28,1.28,0,0,1,1.33,1.22"/><path id="Fill-79" class="cls-12" d="M230.53,62.13v5.61A1.28,1.28,0,0,1,229.2,69h-6.14a1.28,1.28,0,0,1-1.33-1.22V62.13a1.28,1.28,0,0,1,1.33-1.22h6.14a1.28,1.28,0,0,1,1.33,1.22"/><path id="Fill-81" class="cls-12" d="M240.79,62.13v5.61A1.29,1.29,0,0,1,239.45,69h-6.13A1.29,1.29,0,0,1,232,67.74V62.13a1.29,1.29,0,0,1,1.34-1.22h6.13a1.29,1.29,0,0,1,1.34,1.22"/><path id="Fill-83" class="cls-12" d="M251,62.13v5.61A1.28,1.28,0,0,1,249.64,69H243.5a1.28,1.28,0,0,1-1.33-1.22V62.13a1.28,1.28,0,0,1,1.33-1.22h6.14A1.28,1.28,0,0,1,251,62.13"/><path id="Fill-85" class="cls-12" d="M261.16,62.13v5.61A1.29,1.29,0,0,1,259.82,69h-6.14a1.28,1.28,0,0,1-1.33-1.22V62.13a1.28,1.28,0,0,1,1.33-1.22h6.14a1.29,1.29,0,0,1,1.34,1.22"/><path id="Fill-87" class="cls-12" d="M271.34,62.13v5.61A1.29,1.29,0,0,1,270,69h-6.13a1.29,1.29,0,0,1-1.34-1.22V62.13a1.29,1.29,0,0,1,1.34-1.22H270a1.29,1.29,0,0,1,1.34,1.22"/><path id="Fill-89" class="cls-12" d="M281.52,62.13v5.61A1.29,1.29,0,0,1,280.18,69h-6.13a1.29,1.29,0,0,1-1.34-1.22V62.13a1.29,1.29,0,0,1,1.34-1.22h6.13a1.29,1.29,0,0,1,1.34,1.22"/><path id="Fill-91" class="cls-12" d="M291.7,62.13v5.61A1.28,1.28,0,0,1,290.37,69h-6.14a1.28,1.28,0,0,1-1.33-1.22V62.13a1.28,1.28,0,0,1,1.33-1.22h6.14a1.28,1.28,0,0,1,1.33,1.22"/><path id="Fill-93" class="cls-12" d="M159.42,62.13v5.61A1.29,1.29,0,0,1,158.08,69h-3.34a1.29,1.29,0,0,1-1.34-1.22V62.13a1.29,1.29,0,0,1,1.34-1.22h3.34a1.29,1.29,0,0,1,1.34,1.22"/><path id="Fill-95" class="cls-12" d="M162.21,52.82v5.61a1.29,1.29,0,0,1-1.34,1.22h-6.13a1.29,1.29,0,0,1-1.34-1.22V52.82a1.29,1.29,0,0,1,1.34-1.22h6.13a1.29,1.29,0,0,1,1.34,1.22"/><path id="Fill-97" class="cls-12" d="M171.77,52.82v5.61a1.29,1.29,0,0,1-1.34,1.22H164.3A1.29,1.29,0,0,1,163,58.43V52.82a1.29,1.29,0,0,1,1.34-1.22h6.13a1.29,1.29,0,0,1,1.34,1.22"/><path id="Fill-99" class="cls-12" d="M181.58,52.82v5.61a1.29,1.29,0,0,1-1.34,1.22H174.1a1.28,1.28,0,0,1-1.33-1.22V52.82a1.28,1.28,0,0,1,1.33-1.22h6.14a1.29,1.29,0,0,1,1.34,1.22"/><path id="Fill-101" class="cls-12" d="M191.11,52.65v5.61a1.29,1.29,0,0,1-1.34,1.22h-6.13a1.29,1.29,0,0,1-1.34-1.22V52.65a1.29,1.29,0,0,1,1.34-1.22h6.13a1.29,1.29,0,0,1,1.34,1.22"/><path id="Fill-103" class="cls-12" d="M200.74,52.82v5.61a1.29,1.29,0,0,1-1.34,1.22h-6.13a1.29,1.29,0,0,1-1.34-1.22V52.82a1.29,1.29,0,0,1,1.34-1.22h6.13a1.29,1.29,0,0,1,1.34,1.22"/><path id="Fill-105" class="cls-12" d="M210.44,52.65v5.61a1.28,1.28,0,0,1-1.33,1.22H203a1.28,1.28,0,0,1-1.33-1.22V52.65A1.28,1.28,0,0,1,203,51.43h6.14a1.28,1.28,0,0,1,1.33,1.22"/><path id="Fill-107" class="cls-12" d="M220.07,52.82v5.61a1.28,1.28,0,0,1-1.33,1.22H212.6a1.28,1.28,0,0,1-1.33-1.22V52.82a1.28,1.28,0,0,1,1.33-1.22h6.14a1.28,1.28,0,0,1,1.33,1.22"/><path id="Fill-109" class="cls-12" d="M229.71,52.82v5.61a1.29,1.29,0,0,1-1.34,1.22h-6.13a1.29,1.29,0,0,1-1.34-1.22V52.82a1.29,1.29,0,0,1,1.34-1.22h6.13a1.29,1.29,0,0,1,1.34,1.22"/><path id="Fill-111" class="cls-12" d="M239.34,52.65v5.61A1.29,1.29,0,0,1,238,59.48h-6.13a1.29,1.29,0,0,1-1.34-1.22V52.65a1.29,1.29,0,0,1,1.34-1.22H238a1.29,1.29,0,0,1,1.34,1.22"/><path id="Fill-113" class="cls-12" d="M249.12,52.82v5.61a1.29,1.29,0,0,1-1.34,1.22h-6.13a1.29,1.29,0,0,1-1.34-1.22V52.82a1.29,1.29,0,0,1,1.34-1.22h6.13a1.29,1.29,0,0,1,1.34,1.22"/><path id="Fill-115" class="cls-12" d="M259,52.82v5.61a1.28,1.28,0,0,1-1.33,1.22h-6.14a1.29,1.29,0,0,1-1.34-1.22V52.82a1.29,1.29,0,0,1,1.34-1.22h6.14A1.28,1.28,0,0,1,259,52.82"/><path id="Fill-117" class="cls-12" d="M268.78,52.82v5.61a1.28,1.28,0,0,1-1.33,1.22h-6.13A1.29,1.29,0,0,1,260,58.43V52.82a1.29,1.29,0,0,1,1.34-1.22h6.13a1.28,1.28,0,0,1,1.33,1.22"/><path id="Fill-119" class="cls-12" d="M278.83,52.65v5.61a1.28,1.28,0,0,1-1.33,1.22h-6.14A1.28,1.28,0,0,1,270,58.26V52.65a1.28,1.28,0,0,1,1.33-1.22h6.14a1.28,1.28,0,0,1,1.33,1.22"/><path id="Fill-121" class="cls-12" d="M161.88,46.52v2.86c0,.35-.61.63-1.37.63h-6.29c-.75,0-1.37-.28-1.37-.63V46.52c0-.34.62-.62,1.37-.62h6.29c.76,0,1.37.28,1.37.62"/><path id="Fill-123" class="cls-12" d="M171.68,46.52v2.86c0,.35-.61.63-1.37.63H164c-.75,0-1.37-.28-1.37-.63V46.52c0-.34.62-.62,1.37-.62h6.29c.76,0,1.37.28,1.37.62"/><path id="Fill-125" class="cls-12" d="M181.73,46.52v2.86c0,.35-.61.63-1.37.63h-6.29c-.75,0-1.37-.28-1.37-.63V46.52c0-.34.62-.62,1.37-.62h6.29c.76,0,1.37.28,1.37.62"/><path id="Fill-127" class="cls-12" d="M191.5,46.44V49.3c0,.34-.61.62-1.37.62h-6.29c-.75,0-1.37-.28-1.37-.62V46.44c0-.35.62-.63,1.37-.63h6.29c.76,0,1.37.28,1.37.63"/><path id="Fill-129" class="cls-12" d="M201.37,46.52v2.86c0,.35-.61.63-1.37.63h-6.29c-.75,0-1.37-.28-1.37-.63V46.52c0-.34.62-.62,1.37-.62H200c.76,0,1.37.28,1.37.62"/><path id="Fill-131" class="cls-12" d="M211.32,46.44V49.3c0,.34-.62.62-1.37.62h-6.29c-.76,0-1.37-.28-1.37-.62V46.44c0-.35.61-.63,1.37-.63H210c.75,0,1.37.28,1.37.63"/><path id="Fill-133" class="cls-12" d="M221.19,46.52v2.86c0,.35-.62.63-1.37.63h-6.29c-.76,0-1.37-.28-1.37-.63V46.52c0-.34.61-.62,1.37-.62h6.29c.75,0,1.37.28,1.37.62"/><path id="Fill-135" class="cls-12" d="M231.06,46.52v2.86c0,.35-.61.63-1.37.63H223.4c-.76,0-1.37-.28-1.37-.63V46.52c0-.34.61-.62,1.37-.62h6.29c.76,0,1.37.28,1.37.62"/><path id="Fill-137" class="cls-12" d="M240.93,46.44V49.3c0,.34-.62.62-1.37.62h-6.29c-.76,0-1.37-.28-1.37-.62V46.44c0-.35.61-.63,1.37-.63h6.29c.75,0,1.37.28,1.37.63"/><path id="Fill-139" class="cls-12" d="M251,46.52v2.86c0,.35-.61.63-1.37.63H243.3c-.76,0-1.37-.28-1.37-.63V46.52c0-.34.61-.62,1.37-.62h6.28c.76,0,1.37.28,1.37.62"/><path id="Fill-141" class="cls-12" d="M261,46.52v2.86c0,.35-.61.63-1.37.63h-6.29c-.75,0-1.37-.28-1.37-.63V46.52c0-.34.62-.62,1.37-.62h6.29c.76,0,1.37.28,1.37.62"/><path id="Fill-143" class="cls-12" d="M271.11,46.52v2.86c0,.35-.61.63-1.37.63h-6.29c-.75,0-1.37-.28-1.37-.63V46.52c0-.34.62-.62,1.37-.62h6.29c.76,0,1.37.28,1.37.62"/><path id="Fill-145" class="cls-12" d="M281.41,46.44V49.3c0,.34-.62.62-1.37.62h-6.29c-.76,0-1.37-.28-1.37-.62V46.44c0-.35.61-.63,1.37-.63H280c.75,0,1.37.28,1.37.63"/><path id="Fill-147" class="cls-12" d="M291.7,46.44V49.3c0,.34-.61.62-1.37.62h-6.28c-.76,0-1.37-.28-1.37-.62V46.44c0-.35.61-.63,1.37-.63h6.28c.76,0,1.37.28,1.37.63"/><path id="Fill-149" class="cls-12" d="M291.7,52.65v5.61c0,.67-.79,1.22-1.76,1.22h-8.1c-1,0-1.77-.55-1.77-1.22V52.65c0-.67.79-1.22,1.77-1.22h8.1c1,0,1.76.55,1.76,1.22"/><path id="Fill-151" class="cls-12" d="M159.42,90.44v5.61a1.29,1.29,0,0,1-1.34,1.22h-3.34a1.29,1.29,0,0,1-1.34-1.22V90.44a1.29,1.29,0,0,1,1.34-1.22h3.34a1.29,1.29,0,0,1,1.34,1.22"/><path id="Fill-153" class="cls-12" d="M166.85,90.44v5.61a1.29,1.29,0,0,1-1.34,1.22h-3.35a1.28,1.28,0,0,1-1.33-1.22V90.44a1.28,1.28,0,0,1,1.33-1.22h3.35a1.29,1.29,0,0,1,1.34,1.22"/><path id="Fill-155" class="cls-12" d="M174.28,90.44v5.61a1.29,1.29,0,0,1-1.34,1.22h-3.35a1.28,1.28,0,0,1-1.33-1.22V90.44a1.28,1.28,0,0,1,1.33-1.22h3.35a1.29,1.29,0,0,1,1.34,1.22"/><path id="Fill-157" class="cls-12" d="M260.57,90.44v5.61a1.29,1.29,0,0,1-1.34,1.22h-3.34a1.29,1.29,0,0,1-1.34-1.22V90.44a1.29,1.29,0,0,1,1.34-1.22h3.34a1.29,1.29,0,0,1,1.34,1.22"/><path id="Fill-159" class="cls-12" d="M186.5,90.44v5.61a1.29,1.29,0,0,1-1.34,1.22H177a1.29,1.29,0,0,1-1.34-1.22V90.44A1.29,1.29,0,0,1,177,89.22h8.14a1.29,1.29,0,0,1,1.34,1.22"/><path id="Fill-161" class="cls-12" d="M253.08,90.44v5.61a1.29,1.29,0,0,1-1.34,1.22H243.6a1.29,1.29,0,0,1-1.34-1.22V90.44a1.29,1.29,0,0,1,1.34-1.22h8.14a1.29,1.29,0,0,1,1.34,1.22"/><path id="Fill-163" class="cls-12" d="M291.74,94.47v1.58a1.29,1.29,0,0,1-1.34,1.22h-6.19a1.29,1.29,0,0,1-1.34-1.22V94.47a1.28,1.28,0,0,1,1.34-1.22h6.19a1.28,1.28,0,0,1,1.34,1.22"/><path id="Fill-165" class="cls-12" d="M281.5,94.47v1.58a1.29,1.29,0,0,1-1.34,1.22H274a1.28,1.28,0,0,1-1.33-1.22V94.47A1.28,1.28,0,0,1,274,93.25h6.2a1.28,1.28,0,0,1,1.34,1.22"/><path id="Fill-167" class="cls-12" d="M281.5,90.44V92a1.29,1.29,0,0,1-1.34,1.22H274A1.28,1.28,0,0,1,272.63,92V90.44A1.28,1.28,0,0,1,274,89.22h6.2a1.29,1.29,0,0,1,1.34,1.22"/><path id="Fill-169" class="cls-12" d="M271,94.47v1.58a1.28,1.28,0,0,1-1.33,1.22h-6.2a1.29,1.29,0,0,1-1.34-1.22V94.47a1.28,1.28,0,0,1,1.34-1.22h6.2A1.28,1.28,0,0,1,271,94.47"/><path id="Fill-171" class="cls-12" d="M240.79,90.44v5.61a1.29,1.29,0,0,1-1.34,1.22H189.14a1.29,1.29,0,0,1-1.34-1.22V90.44a1.29,1.29,0,0,1,1.34-1.22h50.31a1.29,1.29,0,0,1,1.34,1.22"/></g><path id="Fill-174" class="cls-13" d="M189.77,79.45a1.27,1.27,0,0,1,1.33,1.22v5.6a1.27,1.27,0,0,1-1.33,1.22h-6.14a1.28,1.28,0,0,1-1.33-1.22v-5.6a1.28,1.28,0,0,1,1.33-1.22Z"/><path id="Fill-176" class="cls-13" d="M170.52,80.67v5.6a1.28,1.28,0,0,1-1.34,1.22H154.46a1.28,1.28,0,0,1-1.34-1.22v-5.6a1.28,1.28,0,0,1,1.34-1.22h14.72a1.28,1.28,0,0,1,1.34,1.22"/><path id="Fill-178" class="cls-13" d="M291.55,80.67v5.6a1.28,1.28,0,0,1-1.34,1.22H275.49a1.28,1.28,0,0,1-1.34-1.22v-5.6a1.28,1.28,0,0,1,1.34-1.22h14.72a1.28,1.28,0,0,1,1.34,1.22"/><path id="Fill-180" class="cls-13" d="M180.85,80.67v5.6a1.28,1.28,0,0,1-1.34,1.22h-6.13A1.28,1.28,0,0,1,172,86.27v-5.6a1.28,1.28,0,0,1,1.34-1.22h6.13a1.28,1.28,0,0,1,1.34,1.22"/><path id="Fill-182" class="cls-13" d="M201.29,80.67v5.6A1.28,1.28,0,0,1,200,87.49h-6.13a1.28,1.28,0,0,1-1.34-1.22v-5.6a1.28,1.28,0,0,1,1.34-1.22H200a1.28,1.28,0,0,1,1.34,1.22"/><path id="Fill-184" class="cls-13" d="M211.47,80.67v5.6a1.28,1.28,0,0,1-1.34,1.22H204a1.28,1.28,0,0,1-1.34-1.22v-5.6A1.28,1.28,0,0,1,204,79.45h6.13a1.28,1.28,0,0,1,1.34,1.22"/><path id="Fill-186" class="cls-13" d="M221.73,80.67v5.6a1.28,1.28,0,0,1-1.34,1.22h-6.13a1.28,1.28,0,0,1-1.34-1.22v-5.6a1.28,1.28,0,0,1,1.34-1.22h6.13a1.28,1.28,0,0,1,1.34,1.22"/><path id="Fill-188" class="cls-13" d="M231.91,80.67v5.6a1.28,1.28,0,0,1-1.34,1.22h-6.13a1.28,1.28,0,0,1-1.34-1.22v-5.6a1.28,1.28,0,0,1,1.34-1.22h6.13a1.28,1.28,0,0,1,1.34,1.22"/><path id="Fill-190" class="cls-13" d="M242.09,80.67v5.6a1.28,1.28,0,0,1-1.34,1.22h-6.13a1.28,1.28,0,0,1-1.34-1.22v-5.6a1.28,1.28,0,0,1,1.34-1.22h6.13a1.28,1.28,0,0,1,1.34,1.22"/><path id="Fill-192" class="cls-13" d="M252.35,80.67v5.6A1.28,1.28,0,0,1,251,87.49h-6.14a1.28,1.28,0,0,1-1.33-1.22v-5.6a1.28,1.28,0,0,1,1.33-1.22H251a1.28,1.28,0,0,1,1.34,1.22"/><path id="Fill-194" class="cls-13" d="M262.53,80.67v5.6a1.28,1.28,0,0,1-1.34,1.22h-6.13a1.28,1.28,0,0,1-1.34-1.22v-5.6a1.28,1.28,0,0,1,1.34-1.22h6.13a1.28,1.28,0,0,1,1.34,1.22"/><path id="Fill-196" class="cls-13" d="M272.71,80.67v5.6a1.28,1.28,0,0,1-1.34,1.22h-6.13a1.28,1.28,0,0,1-1.34-1.22v-5.6a1.28,1.28,0,0,1,1.34-1.22h6.13a1.28,1.28,0,0,1,1.34,1.22"/><path id="Fill-198" class="cls-13" d="M175.35,71.25v5.6A1.28,1.28,0,0,1,174,78.07h-6.13a1.28,1.28,0,0,1-1.34-1.22v-5.6A1.28,1.28,0,0,1,167.88,70H174a1.28,1.28,0,0,1,1.34,1.22"/><path id="Fill-200" class="cls-13" d="M185.6,71.25v5.6a1.28,1.28,0,0,1-1.34,1.22h-6.13a1.28,1.28,0,0,1-1.34-1.22v-5.6A1.28,1.28,0,0,1,178.13,70h6.13a1.28,1.28,0,0,1,1.34,1.22"/><path id="Fill-202" class="cls-13" d="M195.78,71.25v5.6a1.27,1.27,0,0,1-1.33,1.22h-6.14A1.28,1.28,0,0,1,187,76.85v-5.6A1.28,1.28,0,0,1,188.31,70h6.14a1.27,1.27,0,0,1,1.33,1.22"/><path id="Fill-204" class="cls-13" d="M206,71.25v5.6a1.28,1.28,0,0,1-1.34,1.22H198.5a1.28,1.28,0,0,1-1.34-1.22v-5.6A1.28,1.28,0,0,1,198.5,70h6.13A1.28,1.28,0,0,1,206,71.25"/><path id="Fill-206" class="cls-13" d="M216.22,71.25v5.6a1.27,1.27,0,0,1-1.33,1.22h-6.14a1.28,1.28,0,0,1-1.33-1.22v-5.6A1.28,1.28,0,0,1,208.75,70h6.14a1.27,1.27,0,0,1,1.33,1.22"/><path id="Fill-208" class="cls-13" d="M226.4,71.25v5.6a1.27,1.27,0,0,1-1.33,1.22h-6.13a1.28,1.28,0,0,1-1.34-1.22v-5.6A1.28,1.28,0,0,1,218.94,70h6.13a1.27,1.27,0,0,1,1.33,1.22"/><path id="Fill-210" class="cls-13" d="M236.59,71.25v5.6a1.28,1.28,0,0,1-1.34,1.22h-6.13a1.28,1.28,0,0,1-1.34-1.22v-5.6A1.28,1.28,0,0,1,229.12,70h6.13a1.28,1.28,0,0,1,1.34,1.22"/><path id="Fill-212" class="cls-13" d="M246.84,71.25v5.6a1.28,1.28,0,0,1-1.33,1.22h-6.14A1.27,1.27,0,0,1,238,76.85v-5.6A1.27,1.27,0,0,1,239.37,70h6.14a1.28,1.28,0,0,1,1.33,1.22"/><path id="Fill-214" class="cls-13" d="M257,71.25v5.6a1.28,1.28,0,0,1-1.34,1.22h-6.13a1.28,1.28,0,0,1-1.34-1.22v-5.6A1.28,1.28,0,0,1,249.56,70h6.13A1.28,1.28,0,0,1,257,71.25"/><path id="Fill-216" class="cls-13" d="M267.21,71.25v5.6a1.28,1.28,0,0,1-1.34,1.22h-6.13a1.28,1.28,0,0,1-1.34-1.22v-5.6A1.28,1.28,0,0,1,259.74,70h6.13a1.28,1.28,0,0,1,1.34,1.22"/><path id="Fill-218" class="cls-13" d="M277.39,71.25v5.6a1.28,1.28,0,0,1-1.34,1.22h-6.13a1.28,1.28,0,0,1-1.34-1.22v-5.6A1.28,1.28,0,0,1,269.92,70h6.13a1.28,1.28,0,0,1,1.34,1.22"/><path id="Fill-220" class="cls-13" d="M291.55,71.25v5.6a1.28,1.28,0,0,1-1.34,1.22H280.1a1.28,1.28,0,0,1-1.33-1.22v-5.6A1.28,1.28,0,0,1,280.1,70h10.11a1.28,1.28,0,0,1,1.34,1.22"/><path id="Fill-222" class="cls-13" d="M165.17,71.25v5.6a1.28,1.28,0,0,1-1.34,1.22h-9.37a1.28,1.28,0,0,1-1.34-1.22v-5.6A1.28,1.28,0,0,1,154.46,70h9.37a1.28,1.28,0,0,1,1.34,1.22"/><path id="Fill-224" class="cls-13" d="M169,61.77v5.61a1.29,1.29,0,0,1-1.34,1.22h-6.13a1.29,1.29,0,0,1-1.34-1.22V61.77a1.29,1.29,0,0,1,1.34-1.22h6.13A1.29,1.29,0,0,1,169,61.77"/><path id="Fill-226" class="cls-13" d="M179.27,61.77v5.61a1.28,1.28,0,0,1-1.33,1.22H171.8a1.28,1.28,0,0,1-1.33-1.22V61.77a1.28,1.28,0,0,1,1.33-1.22h6.14a1.28,1.28,0,0,1,1.33,1.22"/><path id="Fill-228" class="cls-13" d="M189.46,61.77v5.61a1.29,1.29,0,0,1-1.34,1.22H182a1.29,1.29,0,0,1-1.34-1.22V61.77A1.29,1.29,0,0,1,182,60.55h6.13a1.29,1.29,0,0,1,1.34,1.22"/><path id="Fill-230" class="cls-13" d="M199.64,61.77v5.61a1.29,1.29,0,0,1-1.34,1.22h-6.13a1.29,1.29,0,0,1-1.34-1.22V61.77a1.29,1.29,0,0,1,1.34-1.22h6.13a1.29,1.29,0,0,1,1.34,1.22"/><path id="Fill-232" class="cls-13" d="M209.89,61.77v5.61a1.28,1.28,0,0,1-1.33,1.22h-6.14a1.28,1.28,0,0,1-1.33-1.22V61.77a1.28,1.28,0,0,1,1.33-1.22h6.14a1.28,1.28,0,0,1,1.33,1.22"/><path id="Fill-234" class="cls-13" d="M220.08,61.77v5.61a1.29,1.29,0,0,1-1.34,1.22h-6.13a1.29,1.29,0,0,1-1.34-1.22V61.77a1.29,1.29,0,0,1,1.34-1.22h6.13a1.29,1.29,0,0,1,1.34,1.22"/><path id="Fill-236" class="cls-13" d="M230.26,61.77v5.61a1.29,1.29,0,0,1-1.34,1.22h-6.13a1.29,1.29,0,0,1-1.34-1.22V61.77a1.29,1.29,0,0,1,1.34-1.22h6.13a1.29,1.29,0,0,1,1.34,1.22"/><path id="Fill-238" class="cls-13" d="M240.51,61.77v5.61a1.28,1.28,0,0,1-1.33,1.22H233a1.28,1.28,0,0,1-1.33-1.22V61.77A1.28,1.28,0,0,1,233,60.55h6.14a1.28,1.28,0,0,1,1.33,1.22"/><path id="Fill-240" class="cls-13" d="M250.7,61.77v5.61a1.29,1.29,0,0,1-1.34,1.22h-6.13a1.29,1.29,0,0,1-1.34-1.22V61.77a1.29,1.29,0,0,1,1.34-1.22h6.13a1.29,1.29,0,0,1,1.34,1.22"/><path id="Fill-242" class="cls-13" d="M260.88,61.77v5.61a1.29,1.29,0,0,1-1.34,1.22h-6.13a1.29,1.29,0,0,1-1.34-1.22V61.77a1.29,1.29,0,0,1,1.34-1.22h6.13a1.29,1.29,0,0,1,1.34,1.22"/><path id="Fill-244" class="cls-13" d="M271.06,61.77v5.61a1.28,1.28,0,0,1-1.33,1.22h-6.14a1.29,1.29,0,0,1-1.34-1.22V61.77a1.29,1.29,0,0,1,1.34-1.22h6.14a1.28,1.28,0,0,1,1.33,1.22"/><path id="Fill-246" class="cls-13" d="M281.24,61.77v5.61a1.28,1.28,0,0,1-1.33,1.22h-6.14a1.28,1.28,0,0,1-1.33-1.22V61.77a1.28,1.28,0,0,1,1.33-1.22h6.14a1.28,1.28,0,0,1,1.33,1.22"/><path id="Fill-248" class="cls-13" d="M291.43,61.77v5.61a1.29,1.29,0,0,1-1.34,1.22H284a1.29,1.29,0,0,1-1.34-1.22V61.77A1.29,1.29,0,0,1,284,60.55h6.13a1.29,1.29,0,0,1,1.34,1.22"/><path id="Fill-250" class="cls-13" d="M159.14,61.77v5.61a1.28,1.28,0,0,1-1.33,1.22h-3.35a1.29,1.29,0,0,1-1.34-1.22V61.77a1.29,1.29,0,0,1,1.34-1.22h3.35a1.28,1.28,0,0,1,1.33,1.22"/><path id="Fill-252" class="cls-13" d="M161.93,52.47v5.6a1.28,1.28,0,0,1-1.34,1.22h-6.13a1.28,1.28,0,0,1-1.34-1.22v-5.6a1.28,1.28,0,0,1,1.34-1.22h6.13a1.28,1.28,0,0,1,1.34,1.22"/><path id="Fill-254" class="cls-13" d="M171.49,52.47v5.6a1.27,1.27,0,0,1-1.33,1.22H164a1.28,1.28,0,0,1-1.33-1.22v-5.6A1.28,1.28,0,0,1,164,51.25h6.14a1.27,1.27,0,0,1,1.33,1.22"/><path id="Fill-256" class="cls-13" d="M181.3,52.47v5.6A1.28,1.28,0,0,1,180,59.29h-6.13a1.28,1.28,0,0,1-1.34-1.22v-5.6a1.28,1.28,0,0,1,1.34-1.22H180a1.28,1.28,0,0,1,1.34,1.22"/><path id="Fill-258" class="cls-13" d="M190.83,52.3v5.6a1.27,1.27,0,0,1-1.33,1.22h-6.14A1.28,1.28,0,0,1,182,57.9V52.3a1.28,1.28,0,0,1,1.33-1.22h6.14a1.27,1.27,0,0,1,1.33,1.22"/><path id="Fill-260" class="cls-13" d="M200.46,52.47v5.6a1.27,1.27,0,0,1-1.33,1.22H193a1.28,1.28,0,0,1-1.33-1.22v-5.6A1.28,1.28,0,0,1,193,51.25h6.14a1.27,1.27,0,0,1,1.33,1.22"/><path id="Fill-262" class="cls-13" d="M210.17,52.3v5.6a1.28,1.28,0,0,1-1.34,1.22H202.7a1.28,1.28,0,0,1-1.34-1.22V52.3a1.28,1.28,0,0,1,1.34-1.22h6.13a1.28,1.28,0,0,1,1.34,1.22"/><path id="Fill-264" class="cls-13" d="M219.8,52.47v5.6a1.28,1.28,0,0,1-1.34,1.22h-6.13A1.28,1.28,0,0,1,211,58.07v-5.6a1.28,1.28,0,0,1,1.34-1.22h6.13a1.28,1.28,0,0,1,1.34,1.22"/><path id="Fill-266" class="cls-13" d="M229.43,52.47v5.6a1.28,1.28,0,0,1-1.34,1.22H222a1.28,1.28,0,0,1-1.34-1.22v-5.6A1.28,1.28,0,0,1,222,51.25h6.13a1.28,1.28,0,0,1,1.34,1.22"/><path id="Fill-268" class="cls-13" d="M239.06,52.3v5.6a1.28,1.28,0,0,1-1.33,1.22h-6.14a1.27,1.27,0,0,1-1.33-1.22V52.3a1.27,1.27,0,0,1,1.33-1.22h6.14a1.28,1.28,0,0,1,1.33,1.22"/><path id="Fill-270" class="cls-13" d="M248.84,52.47v5.6a1.28,1.28,0,0,1-1.33,1.22h-6.14A1.27,1.27,0,0,1,240,58.07v-5.6a1.27,1.27,0,0,1,1.33-1.22h6.14a1.28,1.28,0,0,1,1.33,1.22"/><path id="Fill-272" class="cls-13" d="M258.68,52.47v5.6a1.28,1.28,0,0,1-1.34,1.22h-6.13a1.28,1.28,0,0,1-1.34-1.22v-5.6a1.28,1.28,0,0,1,1.34-1.22h6.13a1.28,1.28,0,0,1,1.34,1.22"/><path id="Fill-274" class="cls-13" d="M268.51,52.47v5.6a1.28,1.28,0,0,1-1.34,1.22H261a1.28,1.28,0,0,1-1.34-1.22v-5.6A1.28,1.28,0,0,1,261,51.25h6.13a1.28,1.28,0,0,1,1.34,1.22"/><path id="Fill-276" class="cls-13" d="M278.56,52.3v5.6a1.28,1.28,0,0,1-1.34,1.22h-6.13a1.28,1.28,0,0,1-1.34-1.22V52.3a1.28,1.28,0,0,1,1.34-1.22h6.13a1.28,1.28,0,0,1,1.34,1.22"/><path id="Fill-278" class="cls-13" d="M161.6,46.17V49c0,.34-.61.62-1.37.62H154c-.76,0-1.37-.28-1.37-.62V46.17c0-.35.61-.63,1.37-.63h6.28c.76,0,1.37.28,1.37.63"/><path id="Fill-280" class="cls-13" d="M171.41,46.17V49c0,.34-.62.62-1.37.62h-6.29c-.76,0-1.37-.28-1.37-.62V46.17c0-.35.61-.63,1.37-.63H170c.75,0,1.37.28,1.37.63"/><path id="Fill-282" class="cls-13" d="M181.46,46.17V49c0,.34-.62.62-1.38.62H173.8c-.76,0-1.37-.28-1.37-.62V46.17c0-.35.61-.63,1.37-.63h6.28c.76,0,1.38.28,1.38.63"/><path id="Fill-284" class="cls-13" d="M191.22,46.08v2.86c0,.34-.61.62-1.37.62h-6.28c-.76,0-1.37-.28-1.37-.62V46.08c0-.34.61-.62,1.37-.62h6.28c.76,0,1.37.28,1.37.62"/><path id="Fill-286" class="cls-13" d="M201.09,46.17V49c0,.34-.61.62-1.36.62h-6.29c-.76,0-1.37-.28-1.37-.62V46.17c0-.35.61-.63,1.37-.63h6.29c.75,0,1.36.28,1.36.63"/><path id="Fill-288" class="cls-13" d="M211,46.08v2.86c0,.34-.61.62-1.37.62h-6.29c-.75,0-1.36-.28-1.36-.62V46.08c0-.34.61-.62,1.36-.62h6.29c.76,0,1.37.28,1.37.62"/><path id="Fill-290" class="cls-13" d="M220.91,46.17V49c0,.34-.61.62-1.37.62h-6.28c-.76,0-1.37-.28-1.37-.62V46.17c0-.35.61-.63,1.37-.63h6.28c.76,0,1.37.28,1.37.63"/><path id="Fill-292" class="cls-13" d="M230.78,46.17V49c0,.34-.61.62-1.37.62h-6.28c-.76,0-1.37-.28-1.37-.62V46.17c0-.35.61-.63,1.37-.63h6.28c.76,0,1.37.28,1.37.63"/><path id="Fill-294" class="cls-13" d="M240.65,46.08v2.86c0,.34-.61.62-1.37.62H233c-.76,0-1.37-.28-1.37-.62V46.08c0-.34.61-.62,1.37-.62h6.28c.76,0,1.37.28,1.37.62"/><path id="Fill-296" class="cls-13" d="M250.68,46.17V49c0,.34-.62.62-1.37.62H243c-.75,0-1.37-.28-1.37-.62V46.17c0-.35.62-.63,1.37-.63h6.29c.75,0,1.37.28,1.37.63"/><path id="Fill-298" class="cls-13" d="M260.76,46.17V49c0,.34-.62.62-1.37.62H253.1c-.76,0-1.37-.28-1.37-.62V46.17c0-.35.61-.63,1.37-.63h6.29c.75,0,1.37.28,1.37.63"/><path id="Fill-300" class="cls-13" d="M270.83,46.17V49c0,.34-.61.62-1.37.62h-6.28c-.76,0-1.37-.28-1.37-.62V46.17c0-.35.61-.63,1.37-.63h6.28c.76,0,1.37.28,1.37.63"/><path id="Fill-302" class="cls-13" d="M281.13,46.08v2.86c0,.34-.61.62-1.37.62h-6.29c-.75,0-1.37-.28-1.37-.62V46.08c0-.34.62-.62,1.37-.62h6.29c.76,0,1.37.28,1.37.62"/><path id="Fill-304" class="cls-13" d="M291.43,46.08v2.86c0,.34-.61.62-1.37.62h-6.29c-.76,0-1.37-.28-1.37-.62V46.08c0-.34.61-.62,1.37-.62h6.29c.76,0,1.37.28,1.37.62"/><path id="Fill-306" class="cls-13" d="M291.43,52.3v5.6c0,.68-.79,1.22-1.77,1.22h-8.1c-1,0-1.76-.54-1.76-1.22V52.3c0-.68.79-1.22,1.76-1.22h8.1c1,0,1.77.54,1.77,1.22"/><path id="Fill-308" class="cls-13" d="M159.14,90.09v5.6a1.27,1.27,0,0,1-1.33,1.22h-3.35a1.28,1.28,0,0,1-1.34-1.22v-5.6a1.28,1.28,0,0,1,1.34-1.22h3.35a1.27,1.27,0,0,1,1.33,1.22"/><path id="Fill-310" class="cls-13" d="M166.57,90.09v5.6a1.28,1.28,0,0,1-1.33,1.22h-3.35a1.28,1.28,0,0,1-1.34-1.22v-5.6a1.28,1.28,0,0,1,1.34-1.22h3.35a1.28,1.28,0,0,1,1.33,1.22"/><path id="Fill-312" class="cls-13" d="M174,90.09v5.6a1.28,1.28,0,0,1-1.33,1.22h-3.35A1.28,1.28,0,0,1,168,95.69v-5.6a1.28,1.28,0,0,1,1.34-1.22h3.35A1.28,1.28,0,0,1,174,90.09"/><path id="Fill-314" class="cls-13" d="M260.29,90.09v5.6A1.27,1.27,0,0,1,259,96.91h-3.35a1.28,1.28,0,0,1-1.34-1.22v-5.6a1.28,1.28,0,0,1,1.34-1.22H259a1.27,1.27,0,0,1,1.33,1.22"/><path id="Fill-316" class="cls-13" d="M186.22,90.09v5.6a1.27,1.27,0,0,1-1.33,1.22h-8.14a1.28,1.28,0,0,1-1.34-1.22v-5.6a1.28,1.28,0,0,1,1.34-1.22h8.14a1.27,1.27,0,0,1,1.33,1.22"/><path id="Fill-318" class="cls-13" d="M252.8,90.09v5.6a1.28,1.28,0,0,1-1.33,1.22h-8.15A1.27,1.27,0,0,1,242,95.69v-5.6a1.27,1.27,0,0,1,1.33-1.22h8.15a1.28,1.28,0,0,1,1.33,1.22"/><path id="Fill-320" class="cls-13" d="M291.47,94.11v1.58a1.28,1.28,0,0,1-1.34,1.22h-6.2a1.28,1.28,0,0,1-1.33-1.22V94.11a1.28,1.28,0,0,1,1.33-1.22h6.2a1.29,1.29,0,0,1,1.34,1.22"/><path id="Fill-322" class="cls-13" d="M281.22,94.11v1.58a1.28,1.28,0,0,1-1.33,1.22h-6.2a1.28,1.28,0,0,1-1.34-1.22V94.11a1.29,1.29,0,0,1,1.34-1.22h6.2a1.28,1.28,0,0,1,1.33,1.22"/><path id="Fill-324" class="cls-13" d="M281.22,90.09v1.58a1.28,1.28,0,0,1-1.33,1.22h-6.2a1.29,1.29,0,0,1-1.34-1.22V90.09a1.28,1.28,0,0,1,1.34-1.22h6.2a1.28,1.28,0,0,1,1.33,1.22"/><path id="Fill-326" class="cls-13" d="M270.77,94.11v1.58a1.28,1.28,0,0,1-1.34,1.22h-6.2a1.28,1.28,0,0,1-1.33-1.22V94.11a1.28,1.28,0,0,1,1.33-1.22h6.2a1.29,1.29,0,0,1,1.34,1.22"/><path id="Fill-328" class="cls-13" d="M240.51,90.09v5.6a1.27,1.27,0,0,1-1.33,1.22H188.86a1.27,1.27,0,0,1-1.33-1.22v-5.6a1.27,1.27,0,0,1,1.33-1.22h50.32a1.27,1.27,0,0,1,1.33,1.22"/><g class="cls-14"><polygon id="Fill-330" class="cls-15" points="162.68 39.85 281.73 39.85 281.73 34.94 162.68 34.94 162.68 39.85"/></g><g class="cls-14"><path id="Fill-332" class="cls-16" d="M279.3,31.35H165.11a2.42,2.42,0,0,0-2.42,2.43v2.37h119V33.78a2.42,2.42,0,0,0-2.42-2.43"/></g><g class="cls-14"><polyline id="Fill-333" class="cls-17" points="282.26 2.06 282.26 7.9 282.26 7.95 282.26 9.1 190.04 9.1 190.04 7.95 190.04 7.9 190.04 2.06"/></g><g class="cls-14"><path id="Fill-334" class="cls-17" d="M141.88,2.06V29.24a5.88,5.88,0,0,0,5.4,5.64h0a5.55,5.55,0,0,0,.82.06H296.29a6,6,0,0,0,6.23-5.7V2.06"/></g><g class="cls-14"><path id="Fill-335" d="M186.43,9.1H287.31m15.21-7H141.88V26.22a3.26,3.26,0,0,0,3.4,3.11H299.12a3.26,3.26,0,0,0,3.4-3.11"/></g><g class="cls-14"><polygon id="Fill-336" class="cls-18" points="190.04 7.67 282.26 7.67 282.26 2.06 190.04 2.06 190.04 7.67"/></g><g class="cls-14"><polyline id="Fill-337" class="cls-18" points="295.18 2.06 295.18 23.71 149.22 23.71 149.22 2.06 186.43 2.06"/></g><g class="cls-14"><path id="Fill-338" class="cls-19" d="M237.19,14.71H208a.82.82,0,0,0-.82.82v7.36a.82.82,0,0,0,.82.82h29.17a.82.82,0,0,0,.82-.82V15.53a.82.82,0,0,0-.82-.82"/></g><g class="cls-14"><polygon id="Fill-339" class="cls-1" points="187.95 7.64 287.43 7.64 287.43 2.06 187.95 2.06 187.95 7.64"/></g><g class="cls-14"><path id="Fill-340" class="cls-20" d="M156.13,2.06v9.67a1.63,1.63,0,0,0,1.74,1.49h127.7a1.63,1.63,0,0,0,1.74-1.49V8H190V2.06"/></g><g class="cls-14"><path id="Stroke-341" class="cls-21" d="M287.31,7.9H156.41"/></g><g class="cls-14"><polyline id="Stroke-342" class="cls-21" points="190.04 7.95 190.04 7.9 190.04 2.06"/></g><g class="cls-14"><path id="Fill-343" class="cls-22" d="M210.05,145.53c0-.69,1.11-1.24,2.48-1.24h21.56c1.36,0,2.47.55,2.47,1.24Z"/></g><g class="cls-14"><path id="Fill-344" class="cls-4" d="M236.56,145.55c0,.69-1.11,1.25-2.47,1.25H212.53c-1.37,0-2.48-.56-2.48-1.25Z"/></g><g class="cls-14"><path id="Fill-345" class="cls-23" d="M215.13,22.68a.28.28,0,1,1-.28-.28.28.28,0,0,1,.28.28"/></g><g class="cls-14"><path id="Fill-346" class="cls-24" d="M215.52,21.21h-2.65a.48.48,0,0,1-.49-.46V16.47a.47.47,0,0,1,.49-.45h1.94l-.66,1.78a.29.29,0,0,0,.3.37h.39a.35.35,0,0,1,.28.14h0a.16.16,0,0,1,0,.09Z"/></g><g class="cls-14"><path id="Fill-347" class="cls-25" d="M217.54,16.47v4.28a.49.49,0,0,1-.52.46h-1.5l-.37-2.8a.16.16,0,0,0,0-.09h0a.35.35,0,0,0-.28-.14h-.39a.29.29,0,0,1-.3-.37l.66-1.78H217a.49.49,0,0,1,.52.45"/></g><g class="cls-14"><path id="Stroke-348" class="cls-26" d="M213.47,17.84V17"/></g><g class="cls-14"><path id="Stroke-349" class="cls-26" d="M216,17.84V17"/></g><g class="cls-14"><path id="Stroke-350" class="cls-26" d="M213.47,19.58a2.5,2.5,0,0,0,2.76,0"/></g><g class="cls-14"><path id="Fill-351" class="cls-27" d="M224.64,21.21h-3.78a.73.73,0,0,1-.73-.73V16.7a.73.73,0,0,1,.73-.73h3.78a.72.72,0,0,1,.73.73v3.78a.73.73,0,0,1-.73.73"/></g><g class="cls-14"><path id="Fill-352" class="cls-28" d="M224.45,21h-3.4a.73.73,0,0,1-.73-.73V16.89a.73.73,0,0,1,.73-.73h3.4a.73.73,0,0,1,.73.73v3.39a.73.73,0,0,1-.73.73"/></g><g id="Xd" class="cls-29"><g class="cls-29"><path class="cls-30" d="M220.57,19.88l.88-1.34-.8-1.24h.61l.52.83.5-.83h.61l-.81,1.26.89,1.32h-.63l-.57-.89-.58.89Z"/><path class="cls-30" d="M224.93,19.88h-.46v-.27a.67.67,0,0,1-.27.23.58.58,0,0,1-.31.08.69.69,0,0,1-.55-.26,1.05,1.05,0,0,1-.23-.72,1,1,0,0,1,.22-.72.72.72,0,0,1,.57-.25.7.7,0,0,1,.54.26V17.3h.49Zm-1.31-1a.8.8,0,0,0,.08.43.37.37,0,0,0,.33.19.38.38,0,0,0,.29-.14.68.68,0,0,0,.12-.44.8.8,0,0,0-.11-.46.39.39,0,0,0-.6,0A.62.62,0,0,0,223.62,18.91Z"/></g></g><g id="Group-367" class="cls-31"><path id="Fill-354" class="cls-32" d="M232.37,21.67h-3.66a.73.73,0,0,1-.73-.73V17.27a.73.73,0,0,1,.73-.73h3.66a.73.73,0,0,1,.73.73v3.67a.73.73,0,0,1-.73.73"/><path id="Fill-356" class="cls-33" d="M232.37,21.28h-3.66a.73.73,0,0,1-.73-.73V16.88a.73.73,0,0,1,.73-.73h3.66a.73.73,0,0,1,.73.73v3.67a.73.73,0,0,1-.73.73"/><path id="Fill-358" class="cls-34" d="M231.8,20.71h-2.51a.73.73,0,0,1-.73-.73V17.45a.73.73,0,0,1,.73-.73h2.51a.73.73,0,0,1,.73.73V20a.73.73,0,0,1-.73.73"/><polygon id="Fill-360" class="cls-35" points="230.28 17.07 228.91 17.07 228.91 20.3 230.28 20.3 230.28 19.75 229.59 19.75 229.59 17.58 230.28 17.58 230.28 17.07"/><polygon id="Fill-362" class="cls-35" points="230.79 20.3 232.24 20.3 232.24 17.07 230.79 17.07 230.79 17.62 231.51 17.62 231.51 19.79 230.79 19.79 230.79 20.3"/><g id="Group-366"><g class="cls-36"><path id="Fill-364" class="cls-37" d="M148.17,35.33s-5.75-.83-6.29,4.08l28.55,20.33H304.05V39.41s.17-3.67-4.5-4.08c-4.89,0-151.38,0-151.38,0"/></g></g></g></g></svg>