<?xml version="1.0" encoding="UTF-8"?>
<svg width="860px" height="430px" viewBox="0 0 860 430" version="1.1" xmlns="http://www.w3.org/2000/svg" xmlns:xlink="http://www.w3.org/1999/xlink">
    <!-- Generator: Sketch 51.3 (57544) - http://www.bohemiancoding.com/sketch -->
    <title>Group 9</title>
    <desc>Created with Sketch.</desc>
    <defs>
        <polygon id="path-1" points="0.218543797 0.614364738 325.908298 0.614364738 325.908298 16.7493113 0.218543797 16.7493113"></polygon>
        <polygon id="path-3" points="0 0.634798898 327.803546 0.634798898 327.803546 24.9388871 0 24.9388871"></polygon>
        <polygon id="path-5" points="0 304 330.931286 304 330.931286 0.736969697 0 0.736969697"></polygon>
        <polygon id="path-7" points="0.000335189873 0.825907297 330.931286 0.825907297 330.931286 50.7511682 0.000335189873 50.7511682"></polygon>
    </defs>
    <g id="Page-1" stroke="none" stroke-width="1" fill="none" fill-rule="evenodd">
        <g id="Desktop-HD" transform="translate(-290.000000, -1776.000000)">
            <g id="Group-9" transform="translate(290.000000, 1776.000000)">
                <rect id="The-SMBX-Copy" fill="#9744E2" x="0" y="0" width="860" height="430" rx="8"></rect>
                <g id="Group-368" transform="translate(44.000000, 63.000000)">
                    <g id="Group-353">
                        <g id="Group-3" transform="translate(0.837975, 287.250689)">
                            <mask id="mask-2" fill="white">
                                <use xlink:href="#path-1"></use>
                            </mask>
                            <g id="Clip-2"></g>
                            <path d="M325.908298,0.614364738 L325.908298,8.43294325 C325.908298,13.0256044 321.859205,16.7498138 316.864875,16.7498138 L9.26280456,16.7498138 C4.26763747,16.7498138 0.218543797,13.0256044 0.218543797,8.43294325 L0.218543797,0.614364738 L325.908298,0.614364738 Z" id="Fill-1" fill="#565656" mask="url(#mask-2)"></path>
                        </g>
                        <g id="Group-6" transform="translate(0.000000, 276.363636)">
                            <mask id="mask-4" fill="white">
                                <use xlink:href="#path-3"></use>
                            </mask>
                            <g id="Clip-5"></g>
                            <path d="M327.803546,0.634798898 L327.803546,12.4112397 C327.803546,19.3295427 323.728475,24.9388871 318.700627,24.9388871 L9.10333797,24.9388871 C4.07548987,24.9388871 -0.000418987342,19.3295427 -0.000418987342,12.4112397 L-0.000418987342,0.634798898 L327.803546,0.634798898 Z" id="Fill-4" fill="#D6D6D6" mask="url(#mask-4)"></path>
                        </g>
                        <path d="M314.206149,293.48361 L13.5969772,293.48361 C6.08788608,293.48361 0,287.399423 0,279.894056 L0,81.4071802 C0,73.9018138 6.08788608,67.8184639 13.5969772,67.8184639 L314.206149,67.8184639 C321.716078,67.8184639 327.803965,73.9018138 327.803965,81.4071802 L327.803965,279.894056 C327.803965,287.399423 321.716078,293.48361 314.206149,293.48361" id="Fill-7" fill="#EFF0F0"></path>
                        <path d="M211.235066,282.930204 L118.776291,282.930204 C114.979428,282.930204 111.900709,279.854193 111.900709,276.059636 L111.900709,213.90378 C111.900709,210.109223 114.979428,207.032375 118.776291,207.032375 L211.235066,207.032375 C215.032767,207.032375 218.110648,210.109223 218.110648,213.90378 L218.110648,276.059636 C218.110648,279.854193 215.032767,282.930204 211.235066,282.930204" id="Fill-9" fill="#E0E0E0"></path>
                        <path d="M209.434761,281.643773 L120.577602,281.643773 C116.780738,281.643773 113.702019,278.566925 113.702019,274.772368 L113.702019,215.19088 C113.702019,211.396324 116.780738,208.319475 120.577602,208.319475 L209.434761,208.319475 C213.231625,208.319475 216.309506,211.396324 216.309506,215.19088 L216.309506,274.772368 C216.309506,278.566925 213.231625,281.643773 209.434761,281.643773" id="Fill-11" fill="#F5F6F6"></path>
                        <path d="M305.631657,199.97857 L22.171637,199.97857 C19.8487711,199.97857 17.965842,198.095947 17.965842,195.774493 L17.965842,88.8812253 C17.965842,86.5597708 19.8487711,84.6771482 22.171637,84.6771482 L305.631657,84.6771482 C307.954523,84.6771482 309.83829,86.5597708 309.83829,88.8812253 L309.83829,195.774493 C309.83829,198.095947 307.954523,199.97857 305.631657,199.97857" id="Fill-13" fill="#C9C9C9"></path>
                        <path d="M303.926211,198.440229 L23.8775858,198.440229 C21.553882,198.440229 19.6709529,196.558444 19.6709529,194.236152 L19.6709529,90.428108 C19.6709529,88.105816 21.553882,86.2240309 23.8775858,86.2240309 L303.926211,86.2240309 C306.248239,86.2240309 308.132844,88.105816 308.132844,90.428108 L308.132844,194.236152 C308.132844,196.558444 306.248239,198.440229 303.926211,198.440229" id="Fill-15" fill="#E2E2E2"></path>
                        <g id="Group-173" transform="translate(21.787342, 89.608815)" fill="#4C4C4C">
                            <path d="M76.4962787,69.7665763 C78.0054711,69.7665763 79.2230484,70.8837554 79.2230484,72.2622237 L79.2230484,83.697816 C79.2230484,85.0712595 78.0054711,86.1884386 76.4962787,86.1884386 L63.9802889,86.1884386 C62.4710965,86.1884386 61.2543572,85.0712595 61.2543572,83.697816 L61.2543572,72.2622237 C61.2543572,70.8837554 62.4710965,69.7665763 63.9802889,69.7665763 L76.4962787,69.7665763 Z" id="Fill-17"></path>
                            <path d="M37.2146233,72.2626424 L37.2146233,83.6973972 C37.2146233,85.0716782 35.9920182,86.1888573 34.4878537,86.1888573 L4.44562329,86.1888573 C2.93726886,86.1888573 1.71969165,85.0716782 1.71969165,83.6973972 L1.71969165,72.2626424 C1.71969165,70.8841741 2.93726886,69.766995 4.44562329,69.766995 L34.4878537,69.766995 C35.9920182,69.766995 37.2146233,70.8841741 37.2146233,72.2626424" id="Fill-19"></path>
                            <path d="M284.186377,72.2626424 L284.186377,83.6973972 C284.186377,85.0716782 282.969637,86.1888573 281.460445,86.1888573 L251.418215,86.1888573 C249.914888,86.1888573 248.692283,85.0716782 248.692283,83.6973972 L248.692283,72.2626424 C248.692283,70.8841741 249.914888,69.766995 251.418215,69.766995 L281.460445,69.766995 C282.969637,69.766995 284.186377,70.8841741 284.186377,72.2626424" id="Fill-21"></path>
                            <path d="M58.2973959,72.2626424 L58.2973959,83.6973972 C58.2973959,85.0716782 57.0739529,86.1888573 55.5706263,86.1888573 L43.0546365,86.1888573 C41.5454441,86.1888573 40.3287048,85.0716782 40.3287048,83.6973972 L40.3287048,72.2626424 C40.3287048,70.8841741 41.5454441,69.766995 43.0546365,69.766995 L55.5706263,69.766995 C57.0739529,69.766995 58.2973959,70.8841741 58.2973959,72.2626424" id="Fill-23"></path>
                            <path d="M100.002977,72.2626424 L100.002977,83.6973972 C100.002977,85.0716782 98.7795339,86.1888573 97.2762073,86.1888573 L84.7602175,86.1888573 C83.2510251,86.1888573 82.0334478,85.0716782 82.0334478,83.6973972 L82.0334478,72.2626424 C82.0334478,70.8841741 83.2510251,69.766995 84.7602175,69.766995 L97.2762073,69.766995 C98.7795339,69.766995 100.002977,70.8841741 100.002977,72.2626424" id="Fill-25"></path>
                            <path d="M120.782068,72.2626424 L120.782068,83.6973972 C120.782068,85.0716782 119.559463,86.1888573 118.055298,86.1888573 L105.53428,86.1888573 C104.030954,86.1888573 102.807511,85.0716782 102.807511,83.6973972 L102.807511,72.2626424 C102.807511,70.8841741 104.030954,69.766995 105.53428,69.766995 L118.055298,69.766995 C119.559463,69.766995 120.782068,70.8841741 120.782068,72.2626424" id="Fill-27"></path>
                            <path d="M141.70772,72.2626424 L141.70772,83.6973972 C141.70772,85.0716782 140.484277,86.1888573 138.98095,86.1888573 L126.465798,86.1888573 C124.956606,86.1888573 123.739029,85.0716782 123.739029,83.6973972 L123.739029,72.2626424 C123.739029,70.8841741 124.956606,69.766995 126.465798,69.766995 L138.98095,69.766995 C140.484277,69.766995 141.70772,70.8841741 141.70772,72.2626424" id="Fill-29"></path>
                            <path d="M162.487732,72.2626424 L162.487732,83.6973972 C162.487732,85.0716782 161.264289,86.1888573 159.760963,86.1888573 L147.239107,86.1888573 C145.735781,86.1888573 144.513175,85.0716782 144.513175,83.6973972 L144.513175,72.2626424 C144.513175,70.8841741 145.735781,69.766995 147.239107,69.766995 L159.760963,69.766995 C161.264289,69.766995 162.487732,70.8841741 162.487732,72.2626424" id="Fill-31"></path>
                            <path d="M183.266823,72.2626424 L183.266823,83.6973972 C183.266823,85.0716782 182.044218,86.1888573 180.535026,86.1888573 L168.019036,86.1888573 C166.515709,86.1888573 165.292266,85.0716782 165.292266,83.6973972 L165.292266,72.2626424 C165.292266,70.8841741 166.515709,69.766995 168.019036,69.766995 L180.535026,69.766995 C182.044218,69.766995 183.266823,70.8841741 183.266823,72.2626424" id="Fill-33"></path>
                            <path d="M204.192475,72.2626424 L204.192475,83.6973972 C204.192475,85.0716782 202.96987,86.1888573 201.466544,86.1888573 L188.944688,86.1888573 C187.441362,86.1888573 186.217918,85.0716782 186.217918,83.6973972 L186.217918,72.2626424 C186.217918,70.8841741 187.441362,69.766995 188.944688,69.766995 L201.466544,69.766995 C202.96987,69.766995 204.192475,70.8841741 204.192475,72.2626424" id="Fill-35"></path>
                            <path d="M224.966706,72.2626424 L224.966706,83.6973972 C224.966706,85.0716782 223.749967,86.1888573 222.239936,86.1888573 L209.724784,86.1888573 C208.221458,86.1888573 206.998015,85.0716782 206.998015,83.6973972 L206.998015,72.2626424 C206.998015,70.8841741 208.221458,69.766995 209.724784,69.766995 L222.239936,69.766995 C223.749967,69.766995 224.966706,70.8841741 224.966706,72.2626424" id="Fill-37"></path>
                            <path d="M245.746718,72.2626424 L245.746718,83.6973972 C245.746718,85.0716782 244.529141,86.1888573 243.019949,86.1888573 L230.503959,86.1888573 C228.994766,86.1888573 227.778027,85.0716782 227.778027,83.6973972 L227.778027,72.2626424 C227.778027,70.8841741 228.994766,69.766995 230.503959,69.766995 L243.019949,69.766995 C244.529141,69.766995 245.746718,70.8841741 245.746718,72.2626424" id="Fill-39"></path>
                            <path d="M47.0656861,53.0368617 L47.0656861,64.4716165 C47.0656861,65.8509223 45.8481089,66.9622391 44.3389165,66.9622391 L31.8237646,66.9622391 C30.320438,66.9622391 29.0969949,65.8509223 29.0969949,64.4716165 L29.0969949,53.0368617 C29.0969949,51.6583934 30.320438,50.5454017 31.8237646,50.5454017 L44.3389165,50.5454017 C45.8481089,50.5454017 47.0656861,51.6583934 47.0656861,53.0368617" id="Fill-41"></path>
                            <path d="M67.9970367,53.0368617 L67.9970367,64.4716165 C67.9970367,65.8509223 66.7735937,66.9622391 65.2652392,66.9622391 L52.7492494,66.9622391 C51.2459228,66.9622391 50.0224797,65.8509223 50.0224797,64.4716165 L50.0224797,53.0368617 C50.0224797,51.6583934 51.2459228,50.5454017 52.7492494,50.5454017 L65.2652392,50.5454017 C66.7735937,50.5454017 67.9970367,51.6583934 67.9970367,53.0368617" id="Fill-43"></path>
                            <path d="M88.7712671,53.0368617 L88.7712671,64.4716165 C88.7712671,65.8509223 87.5536899,66.9622391 86.0444975,66.9622391 L73.5285076,66.9622391 C72.025181,66.9622391 70.8025759,65.8509223 70.8025759,64.4716165 L70.8025759,53.0368617 C70.8025759,51.6583934 72.025181,50.5454017 73.5285076,50.5454017 L86.0444975,50.5454017 C87.5536899,50.5454017 88.7712671,51.6583934 88.7712671,53.0368617" id="Fill-45"></path>
                            <path d="M109.550442,53.0368617 L109.550442,64.4716165 C109.550442,65.8509223 108.333702,66.9622391 106.82451,66.9622391 L94.30852,66.9622391 C92.7993276,66.9622391 91.5817504,65.8509223 91.5817504,64.4716165 L91.5817504,53.0368617 C91.5817504,51.6583934 92.7993276,50.5454017 94.30852,50.5454017 L106.82451,50.5454017 C108.333702,50.5454017 109.550442,51.6583934 109.550442,53.0368617" id="Fill-47"></path>
                            <path d="M130.476094,53.0368617 L130.476094,64.4716165 C130.476094,65.8509223 129.259355,66.9622391 127.750162,66.9622391 L115.234172,66.9622391 C113.730846,66.9622391 112.507403,65.8509223 112.507403,64.4716165 L112.507403,53.0368617 C112.507403,51.6583934 113.730846,50.5454017 115.234172,50.5454017 L127.750162,50.5454017 C129.259355,50.5454017 130.476094,51.6583934 130.476094,53.0368617" id="Fill-49"></path>
                            <path d="M151.256106,53.0368617 L151.256106,64.4716165 C151.256106,65.8509223 150.032663,66.9622391 148.529337,66.9622391 L136.014185,66.9622391 C134.504992,66.9622391 133.287415,65.8509223 133.287415,64.4716165 L133.287415,53.0368617 C133.287415,51.6583934 134.504992,50.5454017 136.014185,50.5454017 L148.529337,50.5454017 C150.032663,50.5454017 151.256106,51.6583934 151.256106,53.0368617" id="Fill-51"></path>
                            <path d="M172.036035,53.0368617 L172.036035,64.4716165 C172.036035,65.8509223 170.812592,66.9622391 169.309265,66.9622391 L156.794113,66.9622391 C155.284083,66.9622391 154.067344,65.8509223 154.067344,64.4716165 L154.067344,53.0368617 C154.067344,51.6583934 155.284083,50.5454017 156.794113,50.5454017 L169.309265,50.5454017 C170.812592,50.5454017 172.036035,51.6583934 172.036035,53.0368617" id="Fill-53"></path>
                            <path d="M192.961687,53.0368617 L192.961687,64.4716165 C192.961687,65.8509223 191.738244,66.9622391 190.234918,66.9622391 L177.718928,66.9622391 C176.209735,66.9622391 174.992996,65.8509223 174.992996,64.4716165 L174.992996,53.0368617 C174.992996,51.6583934 176.209735,50.5454017 177.718928,50.5454017 L190.234918,50.5454017 C191.738244,50.5454017 192.961687,51.6583934 192.961687,53.0368617" id="Fill-55"></path>
                            <path d="M213.740862,53.0368617 L213.740862,64.4716165 C213.740862,65.8509223 212.518257,66.9622391 211.01493,66.9622391 L198.49894,66.9622391 C196.989748,66.9622391 195.766305,65.8509223 195.766305,64.4716165 L195.766305,53.0368617 C195.766305,51.6583934 196.989748,50.5454017 198.49894,50.5454017 L211.01493,50.5454017 C212.518257,50.5454017 213.740862,51.6583934 213.740862,53.0368617" id="Fill-57"></path>
                            <path d="M234.52079,53.0368617 L234.52079,64.4716165 C234.52079,65.8509223 233.297347,66.9622391 231.794021,66.9622391 L219.273003,66.9622391 C217.769676,66.9622391 216.546233,65.8509223 216.546233,64.4716165 L216.546233,53.0368617 C216.546233,51.6583934 217.769676,50.5454017 219.273003,50.5454017 L231.794021,50.5454017 C233.297347,50.5454017 234.52079,51.6583934 234.52079,53.0368617" id="Fill-59"></path>
                            <path d="M255.295021,53.0368617 L255.295021,64.4716165 C255.295021,65.8509223 254.077444,66.9622391 252.568251,66.9622391 L240.052261,66.9622391 C238.548935,66.9622391 237.32633,65.8509223 237.32633,64.4716165 L237.32633,53.0368617 C237.32633,51.6583934 238.548935,50.5454017 240.052261,50.5454017 L252.568251,50.5454017 C254.077444,50.5454017 255.295021,51.6583934 255.295021,53.0368617" id="Fill-61"></path>
                            <path d="M284.186377,53.0368617 L284.186377,64.4716165 C284.186377,65.8509223 282.969637,66.9622391 281.460445,66.9622391 L260.832022,66.9622391 C259.328696,66.9622391 258.105253,65.8509223 258.105253,64.4716165 L258.105253,53.0368617 C258.105253,51.6583934 259.328696,50.5454017 260.832022,50.5454017 L281.460445,50.5454017 C282.969637,50.5454017 284.186377,51.6583934 284.186377,53.0368617" id="Fill-63"></path>
                            <path d="M26.2914557,53.0368617 L26.2914557,64.4716165 C26.2914557,65.8509223 25.0688506,66.9622391 23.5655241,66.9622391 L4.44629367,66.9622391 C2.93710127,66.9622391 1.71952405,65.8509223 1.71952405,64.4716165 L1.71952405,53.0368617 C1.71952405,51.6583934 2.93710127,50.5454017 4.44629367,50.5454017 L23.5655241,50.5454017 C25.0688506,50.5454017 26.2914557,51.6583934 26.2914557,53.0368617" id="Fill-65"></path>
                            <path d="M34.1572727,33.7032154 L34.1572727,45.1438325 C34.1572727,46.517276 32.9338296,47.6344551 31.4246372,47.6344551 L18.9086473,47.6344551 C17.4053208,47.6344551 16.1827157,46.517276 16.1827157,45.1438325 L16.1827157,33.7032154 C16.1827157,32.3297719 17.4053208,31.2117554 18.9086473,31.2117554 L31.4246372,31.2117554 C32.9338296,31.2117554 34.1572727,32.3297719 34.1572727,33.7032154" id="Fill-67"></path>
                            <path d="M55.0829251,33.7032154 L55.0829251,45.1438325 C55.0829251,46.517276 53.859482,47.6344551 52.3561554,47.6344551 L39.8351377,47.6344551 C38.3309732,47.6344551 37.1083681,46.517276 37.1083681,45.1438325 L37.1083681,33.7032154 C37.1083681,32.3297719 38.3309732,31.2117554 39.8351377,31.2117554 L52.3561554,31.2117554 C53.859482,31.2117554 55.0829251,32.3297719 55.0829251,33.7032154" id="Fill-69"></path>
                            <path d="M75.8620995,33.7032154 L75.8620995,45.1438325 C75.8620995,46.517276 74.6394944,47.6344551 73.130302,47.6344551 L60.6143122,47.6344551 C59.1109856,47.6344551 57.8875425,46.517276 57.8875425,45.1438325 L57.8875425,33.7032154 C57.8875425,32.3297719 59.1109856,31.2117554 60.6143122,31.2117554 L73.130302,31.2117554 C74.6394944,31.2117554 75.8620995,32.3297719 75.8620995,33.7032154" id="Fill-71"></path>
                            <path d="M96.6363299,33.7032154 L96.6363299,45.1438325 C96.6363299,46.517276 95.4195906,47.6344551 93.9095603,47.6344551 L81.3944084,47.6344551 C79.8910818,47.6344551 78.6676387,46.517276 78.6676387,45.1438325 L78.6676387,33.7032154 C78.6676387,32.3297719 79.8910818,31.2117554 81.3944084,31.2117554 L93.9095603,31.2117554 C95.4195906,31.2117554 96.6363299,32.3297719 96.6363299,33.7032154" id="Fill-73"></path>
                            <path d="M117.561982,33.7032154 L117.561982,45.1438325 C117.561982,46.517276 116.344405,47.6344551 114.835213,47.6344551 L102.320061,47.6344551 C100.815896,47.6344551 99.5932911,46.517276 99.5932911,45.1438325 L99.5932911,33.7032154 C99.5932911,32.3297719 100.815896,31.2117554 102.320061,31.2117554 L114.835213,31.2117554 C116.344405,31.2117554 117.561982,32.3297719 117.561982,33.7032154" id="Fill-75"></path>
                            <path d="M138.341911,33.7032154 L138.341911,45.1438325 C138.341911,46.517276 137.124334,47.6344551 135.615141,47.6344551 L123.099989,47.6344551 C121.589959,47.6344551 120.372382,46.517276 120.372382,45.1438325 L120.372382,33.7032154 C120.372382,32.3297719 121.589959,31.2117554 123.099989,31.2117554 L135.615141,31.2117554 C137.124334,31.2117554 138.341911,32.3297719 138.341911,33.7032154" id="Fill-77"></path>
                            <path d="M159.121085,33.7032154 L159.121085,45.1438325 C159.121085,46.517276 157.89848,47.6344551 156.394316,47.6344551 L143.879164,47.6344551 C142.369971,47.6344551 141.152394,46.517276 141.152394,45.1438325 L141.152394,33.7032154 C141.152394,32.3297719 142.369971,31.2117554 143.879164,31.2117554 L156.394316,31.2117554 C157.89848,31.2117554 159.121085,32.3297719 159.121085,33.7032154" id="Fill-79"></path>
                            <path d="M180.046738,33.7032154 L180.046738,45.1438325 C180.046738,46.517276 178.829998,47.6344551 177.320806,47.6344551 L164.804816,47.6344551 C163.295624,47.6344551 162.078047,46.517276 162.078047,45.1438325 L162.078047,33.7032154 C162.078047,32.3297719 163.295624,31.2117554 164.804816,31.2117554 L177.320806,31.2117554 C178.829998,31.2117554 180.046738,32.3297719 180.046738,33.7032154" id="Fill-81"></path>
                            <path d="M200.826666,33.7032154 L200.826666,45.1438325 C200.826666,46.517276 199.604061,47.6344551 198.099897,47.6344551 L185.584745,47.6344551 C184.075552,47.6344551 182.857975,46.517276 182.857975,45.1438325 L182.857975,33.7032154 C182.857975,32.3297719 184.075552,31.2117554 185.584745,31.2117554 L198.099897,31.2117554 C199.604061,31.2117554 200.826666,32.3297719 200.826666,33.7032154" id="Fill-83"></path>
                            <path d="M221.606679,33.7032154 L221.606679,45.1438325 C221.606679,46.517276 220.383236,47.6344551 218.879909,47.6344551 L206.358891,47.6344551 C204.854727,47.6344551 203.632122,46.517276 203.632122,45.1438325 L203.632122,33.7032154 C203.632122,32.3297719 204.854727,31.2117554 206.358891,31.2117554 L218.879909,31.2117554 C220.383236,31.2117554 221.606679,32.3297719 221.606679,33.7032154" id="Fill-85"></path>
                            <path d="M242.385853,33.7032154 L242.385853,45.1438325 C242.385853,46.517276 241.163248,47.6344551 239.659922,47.6344551 L227.138066,47.6344551 C225.634739,47.6344551 224.411296,46.517276 224.411296,45.1438325 L224.411296,33.7032154 C224.411296,32.3297719 225.634739,31.2117554 227.138066,31.2117554 L239.659922,31.2117554 C241.163248,31.2117554 242.385853,32.3297719 242.385853,33.7032154" id="Fill-87"></path>
                            <path d="M263.160084,33.7032154 L263.160084,45.1438325 C263.160084,46.517276 261.942506,47.6344551 260.433314,47.6344551 L247.918162,47.6344551 C246.414835,47.6344551 245.191392,46.517276 245.191392,45.1438325 L245.191392,33.7032154 C245.191392,32.3297719 246.414835,31.2117554 247.918162,31.2117554 L260.433314,31.2117554 C261.942506,31.2117554 263.160084,32.3297719 263.160084,33.7032154" id="Fill-89"></path>
                            <path d="M283.940012,33.7032154 L283.940012,45.1438325 C283.940012,46.517276 282.722435,47.6344551 281.213243,47.6344551 L268.697253,47.6344551 C267.18806,47.6344551 265.971321,46.517276 265.971321,45.1438325 L265.971321,33.7032154 C265.971321,32.3297719 267.18806,31.2117554 268.697253,31.2117554 L281.213243,31.2117554 C282.722435,31.2117554 283.940012,32.3297719 283.940012,33.7032154" id="Fill-91"></path>
                            <path d="M14.0058251,33.7032154 L14.0058251,45.1438325 C14.0058251,46.517276 12.782382,47.6344551 11.2790554,47.6344551 L4.44620987,47.6344551 C2.93701747,47.6344551 1.71944025,46.517276 1.71944025,45.1438325 L1.71944025,33.7032154 C1.71944025,32.3297719 2.93701747,31.2117554 4.44620987,31.2117554 L11.2790554,31.2117554 C12.782382,31.2117554 14.0058251,32.3297719 14.0058251,33.7032154" id="Fill-93"></path>
                            <path d="M19.694081,14.7162799 L19.694081,26.1560595 C19.694081,27.5303405 18.4714759,28.6475196 16.9614456,28.6475196 L4.44629367,28.6475196 C2.94212911,28.6475196 1.71952405,27.5303405 1.71952405,26.1560595 L1.71952405,14.7162799 C1.71952405,13.3428364 2.94212911,12.2248198 4.44629367,12.2248198 L16.9614456,12.2248198 C18.4714759,12.2248198 19.694081,13.3428364 19.694081,14.7162799" id="Fill-95"></path>
                            <path d="M39.2072433,14.7162799 L39.2072433,26.1560595 C39.2072433,27.5303405 37.9846382,28.6475196 36.4804737,28.6475196 L23.9594559,28.6475196 C22.4552914,28.6475196 21.2326863,27.5303405 21.2326863,26.1560595 L21.2326863,14.7162799 C21.2326863,13.3428364 22.4552914,12.2248198 23.9594559,12.2248198 L36.4804737,12.2248198 C37.9846382,12.2248198 39.2072433,13.3428364 39.2072433,14.7162799" id="Fill-97"></path>
                            <path d="M59.2188329,14.7162799 L59.2188329,26.1560595 C59.2188329,27.5303405 57.9962278,28.6475196 56.4870354,28.6475196 L43.9710456,28.6475196 C42.467719,28.6475196 41.2442759,27.5303405 41.2442759,26.1560595 L41.2442759,14.7162799 C41.2442759,13.3428364 42.467719,12.2248198 43.9710456,12.2248198 L56.4870354,12.2248198 C57.9962278,12.2248198 59.2188329,13.3428364 59.2188329,14.7162799" id="Fill-99"></path>
                            <path d="M78.6657114,14.3695691 L78.6657114,25.8101862 C78.6657114,27.1836298 77.4489722,28.3008088 75.9389418,28.3008088 L63.4237899,28.3008088 C61.9204633,28.3008088 60.6970203,27.1836298 60.6970203,25.8101862 L60.6970203,14.3695691 C60.6970203,12.9961256 61.9204633,11.8789466 63.4237899,11.8789466 L75.9389418,11.8789466 C77.4489722,11.8789466 78.6657114,12.9961256 78.6657114,14.3695691" id="Fill-101"></path>
                            <path d="M98.3212456,14.7162799 L98.3212456,26.1560595 C98.3212456,27.5303405 97.1036684,28.6475196 95.5944759,28.6475196 L83.0784861,28.6475196 C81.5751595,28.6475196 80.3517165,27.5303405 80.3517165,26.1560595 L80.3517165,14.7162799 C80.3517165,13.3428364 81.5751595,12.2248198 83.0784861,12.2248198 L95.5944759,12.2248198 C97.1036684,12.2248198 98.3212456,13.3428364 98.3212456,14.7162799" id="Fill-103"></path>
                            <path d="M118.123342,14.3695691 L118.123342,25.8101862 C118.123342,27.1836298 116.906602,28.3008088 115.396572,28.3008088 L102.88142,28.3008088 C101.372228,28.3008088 100.15465,27.1836298 100.15465,25.8101862 L100.15465,14.3695691 C100.15465,12.9961256 101.372228,11.8789466 102.88142,11.8789466 L115.396572,11.8789466 C116.906602,11.8789466 118.123342,12.9961256 118.123342,14.3695691" id="Fill-105"></path>
                            <path d="M137.776446,14.7162799 L137.776446,26.1560595 C137.776446,27.5303405 136.553003,28.6475196 135.049676,28.6475196 L122.534524,28.6475196 C121.024494,28.6475196 119.807754,27.5303405 119.807754,26.1560595 L119.807754,14.7162799 C119.807754,13.3428364 121.024494,12.2248198 122.534524,12.2248198 L135.049676,12.2248198 C136.553003,12.2248198 137.776446,13.3428364 137.776446,14.7162799" id="Fill-107"></path>
                            <path d="M157.42955,14.7162799 L157.42955,26.1560595 C157.42955,27.5303405 156.211972,28.6475196 154.70278,28.6475196 L142.187628,28.6475196 C140.678436,28.6475196 139.460858,27.5303405 139.460858,26.1560595 L139.460858,14.7162799 C139.460858,13.3428364 140.678436,12.2248198 142.187628,12.2248198 L154.70278,12.2248198 C156.211972,12.2248198 157.42955,13.3428364 157.42955,14.7162799" id="Fill-109"></path>
                            <path d="M177.08433,14.3695691 L177.08433,25.8101862 C177.08433,27.1836298 175.861725,28.3008088 174.35756,28.3008088 L161.842408,28.3008088 C160.333216,28.3008088 159.115638,27.1836298 159.115638,25.8101862 L159.115638,14.3695691 C159.115638,12.9961256 160.333216,11.8789466 161.842408,11.8789466 L174.35756,11.8789466 C175.861725,11.8789466 177.08433,12.9961256 177.08433,14.3695691" id="Fill-111"></path>
                            <path d="M197.045138,14.7162799 L197.045138,26.1560595 C197.045138,27.5303405 195.822533,28.6475196 194.319206,28.6475196 L181.797351,28.6475196 C180.294024,28.6475196 179.070581,27.5303405 179.070581,26.1560595 L179.070581,14.7162799 C179.070581,13.3428364 180.294024,12.2248198 181.797351,12.2248198 L194.319206,12.2248198 C195.822533,12.2248198 197.045138,13.3428364 197.045138,14.7162799" id="Fill-113"></path>
                            <path d="M217.113207,14.7162799 L217.113207,26.1560595 C217.113207,27.5303405 215.889764,28.6475196 214.386437,28.6475196 L201.864582,28.6475196 C200.361255,28.6475196 199.13865,27.5303405 199.13865,26.1560595 L199.13865,14.7162799 C199.13865,13.3428364 200.361255,12.2248198 201.864582,12.2248198 L214.386437,12.2248198 C215.889764,12.2248198 217.113207,13.3428364 217.113207,14.7162799" id="Fill-115"></path>
                            <path d="M237.174656,14.7162799 L237.174656,26.1560595 C237.174656,27.5303405 235.957079,28.6475196 234.447887,28.6475196 L221.932735,28.6475196 C220.429408,28.6475196 219.205965,27.5303405 219.205965,26.1560595 L219.205965,14.7162799 C219.205965,13.3428364 220.429408,12.2248198 221.932735,12.2248198 L234.447887,12.2248198 C235.957079,12.2248198 237.174656,13.3428364 237.174656,14.7162799" id="Fill-117"></path>
                            <path d="M257.676377,14.3695691 L257.676377,25.8101862 C257.676377,27.1836298 256.4588,28.3008088 254.949608,28.3008088 L242.434456,28.3008088 C240.925263,28.3008088 239.707686,27.1836298 239.707686,25.8101862 L239.707686,14.3695691 C239.707686,12.9961256 240.925263,11.8789466 242.434456,11.8789466 L254.949608,11.8789466 C256.4588,11.8789466 257.676377,12.9961256 257.676377,14.3695691" id="Fill-119"></path>
                            <path d="M19.025461,1.85783361 L19.025461,7.69580606 C19.025461,8.3976022 17.7718509,8.96707879 16.2249496,8.96707879 L3.39807114,8.96707879 C1.8570357,8.96707879 0.60342557,8.3976022 0.60342557,7.69580606 L0.60342557,1.85783361 C0.60342557,1.15687493 1.8570357,0.586560882 3.39807114,0.586560882 L16.2249496,0.586560882 C17.7718509,0.586560882 19.025461,1.15687493 19.025461,1.85783361" id="Fill-121"></path>
                            <path d="M39.0239782,1.85783361 L39.0239782,7.69580606 C39.0239782,8.3976022 37.7703681,8.96707879 36.2293327,8.96707879 L23.3965884,8.96707879 C21.8555529,8.96707879 20.6019428,8.3976022 20.6019428,7.69580606 L20.6019428,1.85783361 C20.6019428,1.15687493 21.8555529,0.586560882 23.3965884,0.586560882 L36.2293327,0.586560882 C37.7703681,0.586560882 39.0239782,1.15687493 39.0239782,1.85783361" id="Fill-123"></path>
                            <path d="M59.5338276,1.85783361 L59.5338276,7.69580606 C59.5338276,8.3976022 58.2802175,8.96707879 56.7333162,8.96707879 L43.9064377,8.96707879 C42.3654023,8.96707879 41.1117922,8.3976022 41.1117922,7.69580606 L41.1117922,1.85783361 C41.1117922,1.15687493 42.3654023,0.586560882 43.9064377,0.586560882 L56.7333162,0.586560882 C58.2802175,0.586560882 59.5338276,1.15687493 59.5338276,1.85783361" id="Fill-125"></path>
                            <path d="M79.4643851,1.68079339 L79.4643851,7.51960331 C79.4643851,8.22056198 78.2166408,8.79087603 76.6697395,8.79087603 L63.842023,8.79087603 C62.3018256,8.79087603 61.0473775,8.22056198 61.0473775,7.51960331 L61.0473775,1.68079339 C61.0473775,0.979834711 62.3018256,0.409520661 63.842023,0.409520661 L76.6697395,0.409520661 C78.2166408,0.409520661 79.4643851,0.979834711 79.4643851,1.68079339" id="Fill-127"></path>
                            <path d="M99.6085423,1.85783361 L99.6085423,7.69580606 C99.6085423,8.3976022 98.360798,8.96707879 96.8138967,8.96707879 L83.9861803,8.96707879 C82.4459828,8.96707879 81.1915347,8.3976022 81.1915347,7.69580606 L81.1915347,1.85783361 C81.1915347,1.15687493 82.4459828,0.586560882 83.9861803,0.586560882 L96.8138967,0.586560882 C98.360798,0.586560882 99.6085423,1.15687493 99.6085423,1.85783361" id="Fill-129"></path>
                            <path d="M119.9032,1.68079339 L119.9032,7.51960331 C119.9032,8.22056198 118.656293,8.79087603 117.109392,8.79087603 L104.281676,8.79087603 C102.735612,8.79087603 101.48703,8.22056198 101.48703,7.51960331 L101.48703,1.68079339 C101.48703,0.979834711 102.735612,0.409520661 104.281676,0.409520661 L117.109392,0.409520661 C118.656293,0.409520661 119.9032,0.979834711 119.9032,1.68079339" id="Fill-131"></path>
                            <path d="M140.044843,1.85783361 L140.044843,7.69580606 C140.044843,8.3976022 138.792071,8.96707879 137.250197,8.96707879 L124.423319,8.96707879 C122.876418,8.96707879 121.628673,8.3976022 121.628673,7.69580606 L121.628673,1.85783361 C121.628673,1.15687493 122.876418,0.586560882 124.423319,0.586560882 L137.250197,0.586560882 C138.792071,0.586560882 140.044843,1.15687493 140.044843,1.85783361" id="Fill-133"></path>
                            <path d="M160.187408,1.85783361 L160.187408,7.69580606 C160.187408,8.3976022 158.939664,8.96707879 157.392763,8.96707879 L144.565046,8.96707879 C143.018983,8.96707879 141.771238,8.3976022 141.771238,7.69580606 L141.771238,1.85783361 C141.771238,1.15687493 143.018983,0.586560882 144.565046,0.586560882 L157.392763,0.586560882 C158.939664,0.586560882 160.187408,1.15687493 160.187408,1.85783361" id="Fill-135"></path>
                            <path d="M180.331482,1.68079339 L180.331482,7.51960331 C180.331482,8.22056198 179.077871,8.79087603 177.536836,8.79087603 L164.709119,8.79087603 C163.163056,8.79087603 161.914474,8.22056198 161.914474,7.51960331 L161.914474,1.68079339 C161.914474,0.979834711 163.163056,0.409520661 164.709119,0.409520661 L177.536836,0.409520661 C179.077871,0.409520661 180.331482,0.979834711 180.331482,1.68079339" id="Fill-137"></path>
                            <path d="M200.789041,1.85783361 L200.789041,7.69580606 C200.789041,8.3976022 199.535431,8.96707879 197.994396,8.96707879 L185.161651,8.96707879 C183.620616,8.96707879 182.367006,8.3976022 182.367006,7.69580606 L182.367006,1.85783361 C182.367006,1.15687493 183.620616,0.586560882 185.161651,0.586560882 L197.994396,0.586560882 C199.535431,0.586560882 200.789041,1.15687493 200.789041,1.85783361" id="Fill-139"></path>
                            <path d="M221.355454,1.85783361 L221.355454,7.69580606 C221.355454,8.3976022 220.101844,8.96707879 218.561646,8.96707879 L205.728064,8.96707879 C204.187029,8.96707879 202.934256,8.3976022 202.934256,7.69580606 L202.934256,1.85783361 C202.934256,1.15687493 204.187029,0.586560882 205.728064,0.586560882 L218.561646,0.586560882 C220.101844,0.586560882 221.355454,1.15687493 221.355454,1.85783361" id="Fill-141"></path>
                            <path d="M241.916923,1.85783361 L241.916923,7.69580606 C241.916923,8.3976022 240.669178,8.96707879 239.122277,8.96707879 L226.294561,8.96707879 C224.754363,8.96707879 223.499915,8.3976022 223.499915,7.69580606 L223.499915,1.85783361 C223.499915,1.15687493 224.754363,0.586560882 226.294561,0.586560882 L239.122277,0.586560882 C240.669178,0.586560882 241.916923,1.15687493 241.916923,1.85783361" id="Fill-143"></path>
                            <path d="M262.928467,1.68079339 L262.928467,7.51960331 C262.928467,8.22056198 261.680723,8.79087603 260.133822,8.79087603 L247.306105,8.79087603 C245.760042,8.79087603 244.512298,8.22056198 244.512298,7.51960331 L244.512298,1.68079339 C244.512298,0.979834711 245.760042,0.409520661 247.306105,0.409520661 L260.133822,0.409520661 C261.680723,0.409520661 262.928467,0.979834711 262.928467,1.68079339" id="Fill-145"></path>
                            <path d="M283.940012,1.68079339 L283.940012,7.51960331 C283.940012,8.22056198 282.692268,8.79087603 281.145367,8.79087603 L268.31765,8.79087603 C266.771587,8.79087603 265.523843,8.22056198 265.523843,7.51960331 L265.523843,1.68079339 C265.523843,0.979834711 266.771587,0.409520661 268.31765,0.409520661 L281.145367,0.409520661 C282.692268,0.409520661 283.940012,0.979834711 283.940012,1.68079339" id="Fill-147"></path>
                            <path d="M283.940012,14.3695691 L283.940012,25.8101862 C283.940012,27.1836298 282.331939,28.3008088 280.339235,28.3008088 L263.810184,28.3008088 C261.816643,28.3008088 260.209407,27.1836298 260.209407,25.8101862 L260.209407,14.3695691 C260.209407,12.9961256 261.816643,11.8789466 263.810184,11.8789466 L280.339235,11.8789466 C282.331939,11.8789466 283.940012,12.9961256 283.940012,14.3695691" id="Fill-149"></path>
                            <path d="M14.0058251,91.4833983 L14.0058251,102.918153 C14.0058251,104.297459 12.782382,105.409613 11.2790554,105.409613 L4.44620987,105.409613 C2.93701747,105.409613 1.71944025,104.297459 1.71944025,102.918153 L1.71944025,91.4833983 C1.71944025,90.1091174 2.93701747,88.9919383 4.44620987,88.9919383 L11.2790554,88.9919383 C12.782382,88.9919383 14.0058251,90.1091174 14.0058251,91.4833983" id="Fill-151"></path>
                            <path d="M29.1637815,91.4833983 L29.1637815,102.918153 C29.1637815,104.297459 27.9411765,105.409613 26.4370119,105.409613 L19.6050043,105.409613 C18.1008397,105.409613 16.8782347,104.297459 16.8782347,102.918153 L16.8782347,91.4833983 C16.8782347,90.1091174 18.1008397,88.9919383 19.6050043,88.9919383 L26.4370119,88.9919383 C27.9411765,88.9919383 29.1637815,90.1091174 29.1637815,91.4833983" id="Fill-153"></path>
                            <path d="M44.3226597,91.4833983 L44.3226597,102.918153 C44.3226597,104.297459 43.0992167,105.409613 41.5958901,105.409613 L34.7630446,105.409613 C33.259718,105.409613 32.0362749,104.297459 32.0362749,102.918153 L32.0362749,91.4833983 C32.0362749,90.1091174 33.259718,88.9919383 34.7630446,88.9919383 L41.5958901,88.9919383 C43.0992167,88.9919383 44.3226597,90.1091174 44.3226597,91.4833983" id="Fill-155"></path>
                            <path d="M220.411894,91.4833983 L220.411894,102.918153 C220.411894,104.297459 219.188451,105.409613 217.679259,105.409613 L210.852279,105.409613 C209.343087,105.409613 208.12551,104.297459 208.12551,102.918153 L208.12551,91.4833983 C208.12551,90.1091174 209.343087,88.9919383 210.852279,88.9919383 L217.679259,88.9919383 C219.188451,88.9919383 220.411894,90.1091174 220.411894,91.4833983" id="Fill-157"></path>
                            <path d="M69.264641,91.4833983 L69.264641,102.918153 C69.264641,104.297459 68.0479018,105.409613 66.5378714,105.409613 L49.9216714,105.409613 C48.4175068,105.409613 47.1949018,104.297459 47.1949018,102.918153 L47.1949018,91.4833983 C47.1949018,90.1091174 48.4175068,88.9919383 49.9216714,88.9919383 L66.5378714,88.9919383 C68.0479018,88.9919383 69.264641,90.1091174 69.264641,91.4833983" id="Fill-159"></path>
                            <path d="M205.123801,91.4833983 L205.123801,102.918153 C205.123801,104.297459 203.901195,105.409613 202.397031,105.409613 L185.780831,105.409613 C184.271638,105.409613 183.054061,104.297459 183.054061,102.918153 L183.054061,91.4833983 C183.054061,90.1091174 184.271638,88.9919383 185.780831,88.9919383 L202.397031,88.9919383 C203.901195,88.9919383 205.123801,90.1091174 205.123801,91.4833983" id="Fill-161"></path>
                            <path d="M284.018614,99.694497 L284.018614,102.918739 C284.018614,104.297208 282.796009,105.409362 281.291845,105.409362 L268.646807,105.409362 C267.14348,105.409362 265.920037,104.297208 265.920037,102.918739 L265.920037,99.694497 C265.920037,98.3160287 267.14348,97.2030369 268.646807,97.2030369 L281.291845,97.2030369 C282.796009,97.2030369 284.018614,98.3160287 284.018614,99.694497" id="Fill-163"></path>
                            <path d="M263.115084,99.694497 L263.115084,102.918739 C263.115084,104.297208 261.892479,105.409362 260.388315,105.409362 L247.743277,105.409362 C246.23995,105.409362 245.017345,104.297208 245.017345,102.918739 L245.017345,99.694497 C245.017345,98.3160287 246.23995,97.2030369 247.743277,97.2030369 L260.388315,97.2030369 C261.892479,97.2030369 263.115084,98.3160287 263.115084,99.694497" id="Fill-165"></path>
                            <path d="M263.115084,91.4833983 L263.115084,94.7118281 C263.115084,96.0861091 261.892479,97.2032882 260.388315,97.2032882 L247.743277,97.2032882 C246.23995,97.2032882 245.017345,96.0861091 245.017345,94.7118281 L245.017345,91.4833983 C245.017345,90.1091174 246.23995,88.9919383 247.743277,88.9919383 L260.388315,88.9919383 C261.892479,88.9919383 263.115084,90.1091174 263.115084,91.4833983" id="Fill-167"></path>
                            <path d="M241.780249,99.694497 L241.780249,102.918739 C241.780249,104.297208 240.557644,105.409362 239.053479,105.409362 L226.408441,105.409362 C224.905115,105.409362 223.681672,104.297208 223.681672,102.918739 L223.681672,99.694497 C223.681672,98.3160287 224.905115,97.2030369 226.408441,97.2030369 L239.053479,97.2030369 C240.557644,97.2030369 241.780249,98.3160287 241.780249,99.694497" id="Fill-169"></path>
                            <path d="M180.046738,91.4833983 L180.046738,102.918153 C180.046738,104.297459 178.829998,105.409613 177.320806,105.409613 L74.6504719,105.409613 C73.1412795,105.409613 71.9245403,104.297459 71.9245403,102.918153 L71.9245403,91.4833983 C71.9245403,90.1091174 73.1412795,88.9919383 74.6504719,88.9919383 L177.320806,88.9919383 C178.829998,88.9919383 180.046738,90.1091174 180.046738,91.4833983" id="Fill-171"></path>
                        </g>
                        <path d="M97.7222613,158.646713 C99.2314537,158.646713 100.449031,159.763892 100.449031,161.14236 L100.449031,172.577953 C100.449031,173.951396 99.2314537,175.068575 97.7222613,175.068575 L85.2054334,175.068575 C83.697079,175.068575 82.4795018,173.951396 82.4795018,172.577953 L82.4795018,161.14236 C82.4795018,159.763892 83.697079,158.646713 85.2054334,158.646713 L97.7222613,158.646713 Z" id="Fill-174" fill="#141414"></path>
                        <path d="M58.440522,161.142779 L58.440522,172.577534 C58.440522,173.951815 57.217079,175.068994 55.7137524,175.068994 L25.671522,175.068994 C24.1631676,175.068994 22.9455904,173.951815 22.9455904,172.577534 L22.9455904,161.142779 C22.9455904,159.764311 24.1631676,158.647132 25.671522,158.647132 L55.7137524,158.647132 C57.217079,158.647132 58.440522,159.764311 58.440522,161.142779" id="Fill-176" fill="#141414"></path>
                        <path d="M305.412275,161.142779 L305.412275,172.577534 C305.412275,173.951815 304.195536,175.068994 302.686344,175.068994 L272.644113,175.068994 C271.140787,175.068994 269.918182,173.951815 269.918182,172.577534 L269.918182,161.142779 C269.918182,159.764311 271.140787,158.647132 272.644113,158.647132 L302.686344,158.647132 C304.195536,158.647132 305.412275,159.764311 305.412275,161.142779" id="Fill-178" fill="#141414"></path>
                        <path d="M79.5232947,161.142779 L79.5232947,172.577534 C79.5232947,173.951815 78.2998516,175.068994 76.7965251,175.068994 L64.2805352,175.068994 C62.7713428,175.068994 61.5546035,173.951815 61.5546035,172.577534 L61.5546035,161.142779 C61.5546035,159.764311 62.7713428,158.647132 64.2805352,158.647132 L76.7965251,158.647132 C78.2998516,158.647132 79.5232947,159.764311 79.5232947,161.142779" id="Fill-180" fill="#141414"></path>
                        <path d="M121.228122,161.142779 L121.228122,172.577534 C121.228122,173.951815 120.005516,175.068994 118.501352,175.068994 L105.9862,175.068994 C104.477008,175.068994 103.25943,173.951815 103.25943,172.577534 L103.25943,161.142779 C103.25943,159.764311 104.477008,158.647132 105.9862,158.647132 L118.501352,158.647132 C120.005516,158.647132 121.228122,159.764311 121.228122,161.142779" id="Fill-182" fill="#141414"></path>
                        <path d="M142.00805,161.142779 L142.00805,172.577534 C142.00805,173.951815 140.785445,175.068994 139.281281,175.068994 L126.760263,175.068994 C125.256098,175.068994 124.033493,173.951815 124.033493,172.577534 L124.033493,161.142779 C124.033493,159.764311 125.256098,158.647132 126.760263,158.647132 L139.281281,158.647132 C140.785445,158.647132 142.00805,159.764311 142.00805,161.142779" id="Fill-184" fill="#141414"></path>
                        <path d="M162.933703,161.142779 L162.933703,172.577534 C162.933703,173.951815 161.710259,175.068994 160.206933,175.068994 L147.691781,175.068994 C146.182589,175.068994 144.965011,173.951815 144.965011,172.577534 L144.965011,161.142779 C144.965011,159.764311 146.182589,158.647132 147.691781,158.647132 L160.206933,158.647132 C161.710259,158.647132 162.933703,159.764311 162.933703,161.142779" id="Fill-186" fill="#141414"></path>
                        <path d="M183.713715,161.142779 L183.713715,172.577534 C183.713715,173.951815 182.490272,175.068994 180.986945,175.068994 L168.46509,175.068994 C166.961763,175.068994 165.739158,173.951815 165.739158,172.577534 L165.739158,161.142779 C165.739158,159.764311 166.961763,158.647132 168.46509,158.647132 L180.986945,158.647132 C182.490272,158.647132 183.713715,159.764311 183.713715,161.142779" id="Fill-188" fill="#141414"></path>
                        <path d="M204.492806,161.142779 L204.492806,172.577534 C204.492806,173.951815 203.270201,175.068994 201.761008,175.068994 L189.245018,175.068994 C187.741692,175.068994 186.518249,173.951815 186.518249,172.577534 L186.518249,161.142779 C186.518249,159.764311 187.741692,158.647132 189.245018,158.647132 L201.761008,158.647132 C203.270201,158.647132 204.492806,159.764311 204.492806,161.142779" id="Fill-190" fill="#141414"></path>
                        <path d="M225.418458,161.142779 L225.418458,172.577534 C225.418458,173.951815 224.195853,175.068994 222.691688,175.068994 L210.170671,175.068994 C208.667344,175.068994 207.443901,173.951815 207.443901,172.577534 L207.443901,161.142779 C207.443901,159.764311 208.667344,158.647132 210.170671,158.647132 L222.691688,158.647132 C224.195853,158.647132 225.418458,159.764311 225.418458,161.142779" id="Fill-192" fill="#141414"></path>
                        <path d="M246.192688,161.142779 L246.192688,172.577534 C246.192688,173.951815 244.975949,175.068994 243.465919,175.068994 L230.950767,175.068994 C229.44744,175.068994 228.223997,173.951815 228.223997,172.577534 L228.223997,161.142779 C228.223997,159.764311 229.44744,158.647132 230.950767,158.647132 L243.465919,158.647132 C244.975949,158.647132 246.192688,159.764311 246.192688,161.142779" id="Fill-194" fill="#141414"></path>
                        <path d="M266.972701,161.142779 L266.972701,172.577534 C266.972701,173.951815 265.755124,175.068994 264.245931,175.068994 L251.729941,175.068994 C250.220749,175.068994 249.00401,173.951815 249.00401,172.577534 L249.00401,161.142779 C249.00401,159.764311 250.220749,158.647132 251.729941,158.647132 L264.245931,158.647132 C265.755124,158.647132 266.972701,159.764311 266.972701,161.142779" id="Fill-196" fill="#141414"></path>
                        <path d="M68.2916686,141.916998 L68.2916686,153.351753 C68.2916686,154.731059 67.0740914,155.842376 65.564899,155.842376 L53.0497471,155.842376 C51.5464205,155.842376 50.3229775,154.731059 50.3229775,153.351753 L50.3229775,141.916998 C50.3229775,140.53853 51.5464205,139.425538 53.0497471,139.425538 L65.564899,139.425538 C67.0740914,139.425538 68.2916686,140.53853 68.2916686,141.916998" id="Fill-198" fill="#141414"></path>
                        <path d="M89.2230192,141.916998 L89.2230192,153.351753 C89.2230192,154.731059 87.9995762,155.842376 86.4903838,155.842376 L73.9743939,155.842376 C72.4710673,155.842376 71.2484623,154.731059 71.2484623,153.351753 L71.2484623,141.916998 C71.2484623,140.53853 72.4710673,139.425538 73.9743939,139.425538 L86.4903838,139.425538 C87.9995762,139.425538 89.2230192,140.53853 89.2230192,141.916998" id="Fill-200" fill="#141414"></path>
                        <path d="M109.99725,141.916998 L109.99725,153.351753 C109.99725,154.731059 108.779672,155.842376 107.27048,155.842376 L94.7544901,155.842376 C93.2511635,155.842376 92.0285585,154.731059 92.0285585,153.351753 L92.0285585,141.916998 C92.0285585,140.53853 93.2511635,139.425538 94.7544901,139.425538 L107.27048,139.425538 C108.779672,139.425538 109.99725,140.53853 109.99725,141.916998" id="Fill-202" fill="#141414"></path>
                        <path d="M130.776424,141.916998 L130.776424,153.351753 C130.776424,154.731059 129.559685,155.842376 128.049654,155.842376 L115.534503,155.842376 C114.02531,155.842376 112.807733,154.731059 112.807733,153.351753 L112.807733,141.916998 C112.807733,140.53853 114.02531,139.425538 115.534503,139.425538 L128.049654,139.425538 C129.559685,139.425538 130.776424,140.53853 130.776424,141.916998" id="Fill-204" fill="#141414"></path>
                        <path d="M151.702076,141.916998 L151.702076,153.351753 C151.702076,154.731059 150.485337,155.842376 148.976145,155.842376 L136.460155,155.842376 C134.956828,155.842376 133.733385,154.731059 133.733385,153.351753 L133.733385,141.916998 C133.733385,140.53853 134.956828,139.425538 136.460155,139.425538 L148.976145,139.425538 C150.485337,139.425538 151.702076,140.53853 151.702076,141.916998" id="Fill-206" fill="#141414"></path>
                        <path d="M172.482005,141.916998 L172.482005,153.351753 C172.482005,154.731059 171.258562,155.842376 169.755235,155.842376 L157.240084,155.842376 C155.730891,155.842376 154.513314,154.731059 154.513314,153.351753 L154.513314,141.916998 C154.513314,140.53853 155.730891,139.425538 157.240084,139.425538 L169.755235,139.425538 C171.258562,139.425538 172.482005,140.53853 172.482005,141.916998" id="Fill-208" fill="#141414"></path>
                        <path d="M193.262017,141.916998 L193.262017,153.351753 C193.262017,154.731059 192.038574,155.842376 190.535248,155.842376 L178.019258,155.842376 C176.510066,155.842376 175.292488,154.731059 175.292488,153.351753 L175.292488,141.916998 C175.292488,140.53853 176.510066,139.425538 178.019258,139.425538 L190.535248,139.425538 C192.038574,139.425538 193.262017,140.53853 193.262017,141.916998" id="Fill-210" fill="#141414"></path>
                        <path d="M214.186832,141.916998 L214.186832,153.351753 C214.186832,154.731059 212.964227,155.842376 211.4609,155.842376 L198.94491,155.842376 C197.435718,155.842376 196.218979,154.731059 196.218979,153.351753 L196.218979,141.916998 C196.218979,140.53853 197.435718,139.425538 198.94491,139.425538 L211.4609,139.425538 C212.964227,139.425538 214.186832,140.53853 214.186832,141.916998" id="Fill-212" fill="#141414"></path>
                        <path d="M234.966761,141.916998 L234.966761,153.351753 C234.966761,154.731059 233.744155,155.842376 232.240829,155.842376 L219.724839,155.842376 C218.215647,155.842376 216.992204,154.731059 216.992204,153.351753 L216.992204,141.916998 C216.992204,140.53853 218.215647,139.425538 219.724839,139.425538 L232.240829,139.425538 C233.744155,139.425538 234.966761,140.53853 234.966761,141.916998" id="Fill-214" fill="#141414"></path>
                        <path d="M255.746773,141.916998 L255.746773,153.351753 C255.746773,154.731059 254.52333,155.842376 253.020003,155.842376 L240.498986,155.842376 C238.995659,155.842376 237.772216,154.731059 237.772216,153.351753 L237.772216,141.916998 C237.772216,140.53853 238.995659,139.425538 240.498986,139.425538 L253.020003,139.425538 C254.52333,139.425538 255.746773,140.53853 255.746773,141.916998" id="Fill-216" fill="#141414"></path>
                        <path d="M276.521003,141.916998 L276.521003,153.351753 C276.521003,154.731059 275.303426,155.842376 273.794234,155.842376 L261.278244,155.842376 C259.774917,155.842376 258.552312,154.731059 258.552312,153.351753 L258.552312,141.916998 C258.552312,140.53853 259.774917,139.425538 261.278244,139.425538 L273.794234,139.425538 C275.303426,139.425538 276.521003,140.53853 276.521003,141.916998" id="Fill-218" fill="#141414"></path>
                        <path d="M305.412275,141.916998 L305.412275,153.351753 C305.412275,154.731059 304.195536,155.842376 302.686344,155.842376 L282.057921,155.842376 C280.554594,155.842376 279.331151,154.731059 279.331151,153.351753 L279.331151,141.916998 C279.331151,140.53853 280.554594,139.425538 282.057921,139.425538 L302.686344,139.425538 C304.195536,139.425538 305.412275,140.53853 305.412275,141.916998" id="Fill-220" fill="#141414"></path>
                        <path d="M47.5174382,141.916998 L47.5174382,153.351753 C47.5174382,154.731059 46.2948332,155.842376 44.7915066,155.842376 L25.6722762,155.842376 C24.1630838,155.842376 22.9455066,154.731059 22.9455066,153.351753 L22.9455066,141.916998 C22.9455066,140.53853 24.1630838,139.425538 25.6722762,139.425538 L44.7915066,139.425538 C46.2948332,139.425538 47.5174382,140.53853 47.5174382,141.916998" id="Fill-222" fill="#141414"></path>
                        <path d="M55.3832552,122.583352 L55.3832552,134.023969 C55.3832552,135.397413 54.1598122,136.514592 52.6506197,136.514592 L40.1346299,136.514592 C38.6313033,136.514592 37.4086982,135.397413 37.4086982,134.023969 L37.4086982,122.583352 C37.4086982,121.209909 38.6313033,120.091892 40.1346299,120.091892 L52.6506197,120.091892 C54.1598122,120.091892 55.3832552,121.209909 55.3832552,122.583352" id="Fill-224" fill="#141414"></path>
                        <path d="M76.3080696,122.583352 L76.3080696,134.023969 C76.3080696,135.397413 75.0854646,136.514592 73.582138,136.514592 L61.0611203,136.514592 C59.5569557,136.514592 58.3335127,135.397413 58.3335127,134.023969 L58.3335127,122.583352 C58.3335127,121.209909 59.5569557,120.091892 61.0611203,120.091892 L73.582138,120.091892 C75.0854646,120.091892 76.3080696,121.209909 76.3080696,122.583352" id="Fill-226" fill="#141414"></path>
                        <path d="M97.088082,122.583352 L97.088082,134.023969 C97.088082,135.397413 95.865477,136.514592 94.3554466,136.514592 L81.8402947,136.514592 C80.3369681,136.514592 79.1135251,135.397413 79.1135251,134.023969 L79.1135251,122.583352 C79.1135251,121.209909 80.3369681,120.091892 81.8402947,120.091892 L94.3554466,120.091892 C95.865477,120.091892 97.088082,121.209909 97.088082,122.583352" id="Fill-228" fill="#141414"></path>
                        <path d="M117.862312,122.583352 L117.862312,134.023969 C117.862312,135.397413 116.645573,136.514592 115.135543,136.514592 L102.620391,136.514592 C101.117064,136.514592 99.8936213,135.397413 99.8936213,134.023969 L99.8936213,122.583352 C99.8936213,121.209909 101.117064,120.091892 102.620391,120.091892 L115.135543,120.091892 C116.645573,120.091892 117.862312,121.209909 117.862312,122.583352" id="Fill-230" fill="#141414"></path>
                        <path d="M138.787881,122.583352 L138.787881,134.023969 C138.787881,135.397413 137.570304,136.514592 136.061111,136.514592 L123.545959,136.514592 C122.041795,136.514592 120.81919,135.397413 120.81919,134.023969 L120.81919,122.583352 C120.81919,121.209909 122.041795,120.091892 123.545959,120.091892 L136.061111,120.091892 C137.570304,120.091892 138.787881,121.209909 138.787881,122.583352" id="Fill-232" fill="#141414"></path>
                        <path d="M159.567893,122.583352 L159.567893,134.023969 C159.567893,135.397413 158.350316,136.514592 156.841124,136.514592 L144.325134,136.514592 C142.815942,136.514592 141.598364,135.397413 141.598364,134.023969 L141.598364,122.583352 C141.598364,121.209909 142.815942,120.091892 144.325134,120.091892 L156.841124,120.091892 C158.350316,120.091892 159.567893,121.209909 159.567893,122.583352" id="Fill-234" fill="#141414"></path>
                        <path d="M180.347068,122.583352 L180.347068,134.023969 C180.347068,135.397413 179.124463,136.514592 177.620298,136.514592 L165.105146,136.514592 C163.595954,136.514592 162.378377,135.397413 162.378377,134.023969 L162.378377,122.583352 C162.378377,121.209909 163.595954,120.091892 165.105146,120.091892 L177.620298,120.091892 C179.124463,120.091892 180.347068,121.209909 180.347068,122.583352" id="Fill-236" fill="#141414"></path>
                        <path d="M201.27272,122.583352 L201.27272,134.023969 C201.27272,135.397413 200.055981,136.514592 198.546789,136.514592 L186.030799,136.514592 C184.521606,136.514592 183.304029,135.397413 183.304029,134.023969 L183.304029,122.583352 C183.304029,121.209909 184.521606,120.091892 186.030799,120.091892 L198.546789,120.091892 C200.055981,120.091892 201.27272,121.209909 201.27272,122.583352" id="Fill-238" fill="#141414"></path>
                        <path d="M222.052649,122.583352 L222.052649,134.023969 C222.052649,135.397413 220.830044,136.514592 219.325879,136.514592 L206.810727,136.514592 C205.301535,136.514592 204.083958,135.397413 204.083958,134.023969 L204.083958,122.583352 C204.083958,121.209909 205.301535,120.091892 206.810727,120.091892 L219.325879,120.091892 C220.830044,120.091892 222.052649,121.209909 222.052649,122.583352" id="Fill-240" fill="#141414"></path>
                        <path d="M242.832661,122.583352 L242.832661,134.023969 C242.832661,135.397413 241.609218,136.514592 240.105892,136.514592 L227.584874,136.514592 C226.080709,136.514592 224.858104,135.397413 224.858104,134.023969 L224.858104,122.583352 C224.858104,121.209909 226.080709,120.091892 227.584874,120.091892 L240.105892,120.091892 C241.609218,120.091892 242.832661,121.209909 242.832661,122.583352" id="Fill-242" fill="#141414"></path>
                        <path d="M263.611752,122.583352 L263.611752,134.023969 C263.611752,135.397413 262.389147,136.514592 260.88582,136.514592 L248.363965,136.514592 C246.860638,136.514592 245.637195,135.397413 245.637195,134.023969 L245.637195,122.583352 C245.637195,121.209909 246.860638,120.091892 248.363965,120.091892 L260.88582,120.091892 C262.389147,120.091892 263.611752,121.209909 263.611752,122.583352" id="Fill-244" fill="#141414"></path>
                        <path d="M284.385982,122.583352 L284.385982,134.023969 C284.385982,135.397413 283.168405,136.514592 281.659213,136.514592 L269.144061,136.514592 C267.640734,136.514592 266.417291,135.397413 266.417291,134.023969 L266.417291,122.583352 C266.417291,121.209909 267.640734,120.091892 269.144061,120.091892 L281.659213,120.091892 C283.168405,120.091892 284.385982,121.209909 284.385982,122.583352" id="Fill-246" fill="#141414"></path>
                        <path d="M305.165995,122.583352 L305.165995,134.023969 C305.165995,135.397413 303.948417,136.514592 302.439225,136.514592 L289.923235,136.514592 C288.414043,136.514592 287.197304,135.397413 287.197304,134.023969 L287.197304,122.583352 C287.197304,121.209909 288.414043,120.091892 289.923235,120.091892 L302.439225,120.091892 C303.948417,120.091892 305.165995,121.209909 305.165995,122.583352" id="Fill-248" fill="#141414"></path>
                        <path d="M35.2317238,122.583352 L35.2317238,134.023969 C35.2317238,135.397413 34.0082808,136.514592 32.5049542,136.514592 L25.6721086,136.514592 C24.1629162,136.514592 22.945339,135.397413 22.945339,134.023969 L22.945339,122.583352 C22.945339,121.209909 24.1629162,120.091892 25.6721086,120.091892 L32.5049542,120.091892 C34.0082808,120.091892 35.2317238,121.209909 35.2317238,122.583352" id="Fill-250" fill="#141414"></path>
                        <path d="M40.9199797,103.596417 L40.9199797,115.037034 C40.9199797,116.410477 39.6965367,117.527656 38.1873443,117.527656 L25.6721924,117.527656 C24.1680278,117.527656 22.9454228,116.410477 22.9454228,115.037034 L22.9454228,103.596417 C22.9454228,102.222973 24.1680278,101.104956 25.6721924,101.104956 L38.1873443,101.104956 C39.6965367,101.104956 40.9199797,102.222973 40.9199797,103.596417" id="Fill-252" fill="#141414"></path>
                        <path d="M60.4332258,103.596417 L60.4332258,115.037034 C60.4332258,116.410477 59.2097828,117.527656 57.7064562,117.527656 L45.1854385,117.527656 C43.6812739,117.527656 42.4586689,116.410477 42.4586689,115.037034 L42.4586689,103.596417 C42.4586689,102.222973 43.6812739,101.104956 45.1854385,101.104956 L57.7064562,101.104956 C59.2097828,101.104956 60.4332258,102.222973 60.4332258,103.596417" id="Fill-254" fill="#141414"></path>
                        <path d="M80.4447316,103.596417 L80.4447316,115.037034 C80.4447316,116.410477 79.2221266,117.527656 77.7129342,117.527656 L65.1969443,117.527656 C63.6936177,117.527656 62.4701747,116.410477 62.4701747,115.037034 L62.4701747,103.596417 C62.4701747,102.222973 63.6936177,101.104956 65.1969443,101.104956 L77.7129342,101.104956 C79.2221266,101.104956 80.4447316,102.222973 80.4447316,103.596417" id="Fill-256" fill="#141414"></path>
                        <path d="M99.8916939,103.250041 L99.8916939,114.68982 C99.8916939,116.063264 98.6749547,117.18128 97.1649243,117.18128 L84.6497724,117.18128 C83.1464458,117.18128 81.9230028,116.063264 81.9230028,114.68982 L81.9230028,103.250041 C81.9230028,101.87576 83.1464458,100.758581 84.6497724,100.758581 L97.1649243,100.758581 C98.6749547,100.758581 99.8916939,101.87576 99.8916939,103.250041" id="Fill-258" fill="#141414"></path>
                        <path d="M119.54639,103.596417 L119.54639,115.037034 C119.54639,116.410477 118.329651,117.527656 116.820458,117.527656 L104.304469,117.527656 C102.801142,117.527656 101.577699,116.410477 101.577699,115.037034 L101.577699,103.596417 C101.577699,102.222973 102.801142,101.104956 104.304469,101.104956 L116.820458,101.104956 C118.329651,101.104956 119.54639,102.222973 119.54639,103.596417" id="Fill-260" fill="#141414"></path>
                        <path d="M139.349324,103.250041 L139.349324,114.68982 C139.349324,116.063264 138.131747,117.18128 136.622554,117.18128 L124.107403,117.18128 C122.59821,117.18128 121.380633,116.063264 121.380633,114.68982 L121.380633,103.250041 C121.380633,101.87576 122.59821,100.758581 124.107403,100.758581 L136.622554,100.758581 C138.131747,100.758581 139.349324,101.87576 139.349324,103.250041" id="Fill-262" fill="#141414"></path>
                        <path d="M159.002428,103.596417 L159.002428,115.037034 C159.002428,116.410477 157.778985,117.527656 156.275658,117.527656 L143.759669,117.527656 C142.250476,117.527656 141.032899,116.410477 141.032899,115.037034 L141.032899,103.596417 C141.032899,102.222973 142.250476,101.104956 143.759669,101.104956 L156.275658,101.104956 C157.778985,101.104956 159.002428,102.222973 159.002428,103.596417" id="Fill-264" fill="#141414"></path>
                        <path d="M178.655532,103.596417 L178.655532,115.037034 C178.655532,116.410477 177.437955,117.527656 175.928763,117.527656 L163.413611,117.527656 C161.904418,117.527656 160.686841,116.410477 160.686841,115.037034 L160.686841,103.596417 C160.686841,102.222973 161.904418,101.104956 163.413611,101.104956 L175.928763,101.104956 C177.437955,101.104956 178.655532,102.222973 178.655532,103.596417" id="Fill-266" fill="#141414"></path>
                        <path d="M198.310312,103.250041 L198.310312,114.68982 C198.310312,116.063264 197.087707,117.18128 195.583543,117.18128 L183.068391,117.18128 C181.55836,117.18128 180.341621,116.063264 180.341621,114.68982 L180.341621,103.250041 C180.341621,101.87576 181.55836,100.758581 183.068391,100.758581 L195.583543,100.758581 C197.087707,100.758581 198.310312,101.87576 198.310312,103.250041" id="Fill-268" fill="#141414"></path>
                        <path d="M218.271121,103.596417 L218.271121,115.037034 C218.271121,116.410477 217.048515,117.527656 215.544351,117.527656 L203.023333,117.527656 C201.520007,117.527656 200.296564,116.410477 200.296564,115.037034 L200.296564,103.596417 C200.296564,102.222973 201.520007,101.104956 203.023333,101.104956 L215.544351,101.104956 C217.048515,101.104956 218.271121,102.222973 218.271121,103.596417" id="Fill-270" fill="#141414"></path>
                        <path d="M238.33919,103.596417 L238.33919,115.037034 C238.33919,116.410477 237.115747,117.527656 235.61242,117.527656 L223.090564,117.527656 C221.587238,117.527656 220.364633,116.410477 220.364633,115.037034 L220.364633,103.596417 C220.364633,102.222973 221.587238,101.104956 223.090564,101.104956 L235.61242,101.104956 C237.115747,101.104956 238.33919,102.222973 238.33919,103.596417" id="Fill-272" fill="#141414"></path>
                        <path d="M258.400639,103.596417 L258.400639,115.037034 C258.400639,116.410477 257.183062,117.527656 255.673869,117.527656 L243.158717,117.527656 C241.655391,117.527656 240.431948,116.410477 240.431948,115.037034 L240.431948,103.596417 C240.431948,102.222973 241.655391,101.104956 243.158717,101.104956 L255.673869,101.104956 C257.183062,101.104956 258.400639,102.222973 258.400639,103.596417" id="Fill-274" fill="#141414"></path>
                        <path d="M278.90236,103.250041 L278.90236,114.68982 C278.90236,116.063264 277.684783,117.18128 276.17559,117.18128 L263.660438,117.18128 C262.151246,117.18128 260.933669,116.063264 260.933669,114.68982 L260.933669,103.250041 C260.933669,101.87576 262.151246,100.758581 263.660438,100.758581 L276.17559,100.758581 C277.684783,100.758581 278.90236,101.87576 278.90236,103.250041" id="Fill-276" fill="#141414"></path>
                        <path d="M40.2514435,90.7379702 L40.2514435,96.5759427 C40.2514435,97.2777388 38.9978334,97.8472154 37.4509322,97.8472154 L24.6240537,97.8472154 C23.0830182,97.8472154 21.8294081,97.2777388 21.8294081,96.5759427 L21.8294081,90.7379702 C21.8294081,90.0370116 23.0830182,89.4666975 24.6240537,89.4666975 L37.4509322,89.4666975 C38.9978334,89.4666975 40.2514435,90.0370116 40.2514435,90.7379702" id="Fill-278" fill="#141414"></path>
                        <path d="M60.249877,90.7379702 L60.249877,96.5759427 C60.249877,97.2777388 58.9962668,97.8472154 57.4552314,97.8472154 L44.6224871,97.8472154 C43.0814516,97.8472154 41.8278415,97.2777388 41.8278415,96.5759427 L41.8278415,90.7379702 C41.8278415,90.0370116 43.0814516,89.4666975 44.6224871,89.4666975 L57.4552314,89.4666975 C58.9962668,89.4666975 60.249877,90.0370116 60.249877,90.7379702" id="Fill-280" fill="#141414"></path>
                        <path d="M80.7598101,90.7379702 L80.7598101,96.5759427 C80.7598101,97.2777388 79.5062,97.8472154 77.9592987,97.8472154 L65.1324203,97.8472154 C63.5913848,97.8472154 62.3377747,97.2777388 62.3377747,96.5759427 L62.3377747,90.7379702 C62.3377747,90.0370116 63.5913848,89.4666975 65.1324203,89.4666975 L77.9592987,89.4666975 C79.5062,89.4666975 80.7598101,90.0370116 80.7598101,90.7379702" id="Fill-282" fill="#141414"></path>
                        <path d="M100.690368,90.5613488 L100.690368,96.3993212 C100.690368,97.1002799 99.4426233,97.6705939 97.895722,97.6705939 L85.0680056,97.6705939 C83.5278081,97.6705939 82.27336,97.1002799 82.27336,96.3993212 L82.27336,90.5613488 C82.27336,89.8603901 83.5278081,89.290076 85.0680056,89.290076 L97.895722,89.290076 C99.4426233,89.290076 100.690368,89.8603901 100.690368,90.5613488" id="Fill-284" fill="#141414"></path>
                        <path d="M120.834441,90.7379702 L120.834441,96.5759427 C120.834441,97.2777388 119.586697,97.8472154 118.039795,97.8472154 L105.212079,97.8472154 C103.671882,97.8472154 102.417433,97.2777388 102.417433,96.5759427 L102.417433,90.7379702 C102.417433,90.0370116 103.671882,89.4666975 105.212079,89.4666975 L118.039795,89.4666975 C119.586697,89.4666975 120.834441,90.0370116 120.834441,90.7379702" id="Fill-286" fill="#141414"></path>
                        <path d="M141.129182,90.5613488 L141.129182,96.3993212 C141.129182,97.1002799 139.882276,97.6705939 138.335375,97.6705939 L125.50682,97.6705939 C123.961595,97.6705939 122.713013,97.1002799 122.713013,96.3993212 L122.713013,90.5613488 C122.713013,89.8603901 123.961595,89.290076 125.50682,89.290076 L138.335375,89.290076 C139.882276,89.290076 141.129182,89.8603901 141.129182,90.5613488" id="Fill-288" fill="#141414"></path>
                        <path d="M161.270826,90.7379702 L161.270826,96.5759427 C161.270826,97.2777388 160.017215,97.8472154 158.47618,97.8472154 L145.649302,97.8472154 C144.1024,97.8472154 142.854656,97.2777388 142.854656,96.5759427 L142.854656,90.7379702 C142.854656,90.0370116 144.1024,89.4666975 145.649302,89.4666975 L158.47618,89.4666975 C160.017215,89.4666975 161.270826,90.0370116 161.270826,90.7379702" id="Fill-290" fill="#141414"></path>
                        <path d="M181.413307,90.7379702 L181.413307,96.5759427 C181.413307,97.2777388 180.165563,97.8472154 178.618661,97.8472154 L165.790945,97.8472154 C164.244882,97.8472154 162.997137,97.2777388 162.997137,96.5759427 L162.997137,90.7379702 C162.997137,90.0370116 164.244882,89.4666975 165.790945,89.4666975 L178.618661,89.4666975 C180.165563,89.4666975 181.413307,90.0370116 181.413307,90.7379702" id="Fill-292" fill="#141414"></path>
                        <path d="M201.556626,90.5613488 L201.556626,96.3993212 C201.556626,97.1002799 200.303854,97.6705939 198.762818,97.6705939 L185.935102,97.6705939 C184.389039,97.6705939 183.140456,97.1002799 183.140456,96.3993212 L183.140456,90.5613488 C183.140456,89.8603901 184.389039,89.290076 185.935102,89.290076 L198.762818,89.290076 C200.303854,89.290076 201.556626,89.8603901 201.556626,90.5613488" id="Fill-294" fill="#141414"></path>
                        <path d="M222.015024,90.7379702 L222.015024,96.5759427 C222.015024,97.2777388 220.761414,97.8472154 219.220378,97.8472154 L206.387634,97.8472154 C204.846598,97.8472154 203.592988,97.2777388 203.592988,96.5759427 L203.592988,90.7379702 C203.592988,90.0370116 204.846598,89.4666975 206.387634,89.4666975 L219.220378,89.4666975 C220.761414,89.4666975 222.015024,90.0370116 222.015024,90.7379702" id="Fill-296" fill="#141414"></path>
                        <path d="M242.581436,90.7379702 L242.581436,96.5759427 C242.581436,97.2777388 241.327826,97.8472154 239.786791,97.8472154 L226.954047,97.8472154 C225.413011,97.8472154 224.160239,97.2777388 224.160239,96.5759427 L224.160239,90.7379702 C224.160239,90.0370116 225.413011,89.4666975 226.954047,89.4666975 L239.786791,89.4666975 C241.327826,89.4666975 242.581436,90.0370116 242.581436,90.7379702" id="Fill-298" fill="#141414"></path>
                        <path d="M263.142905,90.7379702 L263.142905,96.5759427 C263.142905,97.2777388 261.895161,97.8472154 260.348259,97.8472154 L247.520543,97.8472154 C245.980346,97.8472154 244.725897,97.2777388 244.725897,96.5759427 L244.725897,90.7379702 C244.725897,90.0370116 245.980346,89.4666975 247.520543,89.4666975 L260.348259,89.4666975 C261.895161,89.4666975 263.142905,90.0370116 263.142905,90.7379702" id="Fill-300" fill="#141414"></path>
                        <path d="M284.15445,90.5613488 L284.15445,96.3993212 C284.15445,97.1002799 282.906706,97.6705939 281.359804,97.6705939 L268.532088,97.6705939 C266.986025,97.6705939 265.737442,97.1002799 265.737442,96.3993212 L265.737442,90.5613488 C265.737442,89.8603901 266.986025,89.290076 268.532088,89.290076 L281.359804,89.290076 C282.906706,89.290076 284.15445,89.8603901 284.15445,90.5613488" id="Fill-302" fill="#141414"></path>
                        <path d="M305.165995,90.5613488 L305.165995,96.3993212 C305.165995,97.1002799 303.91825,97.6705939 302.371349,97.6705939 L289.543633,97.6705939 C287.997569,97.6705939 286.748987,97.1002799 286.748987,96.3993212 L286.748987,90.5613488 C286.748987,89.8603901 287.997569,89.290076 289.543633,89.290076 L302.371349,89.290076 C303.91825,89.290076 305.165995,89.8603901 305.165995,90.5613488" id="Fill-304" fill="#141414"></path>
                        <path d="M305.165995,103.250041 L305.165995,114.68982 C305.165995,116.063264 303.557921,117.18128 301.565217,117.18128 L285.036167,117.18128 C283.042625,117.18128 281.43539,116.063264 281.43539,114.68982 L281.43539,103.250041 C281.43539,101.87576 283.042625,100.758581 285.036167,100.758581 L301.565217,100.758581 C303.557921,100.758581 305.165995,101.87576 305.165995,103.250041" id="Fill-306" fill="#141414"></path>
                        <path d="M35.2317238,180.363535 L35.2317238,191.79829 C35.2317238,193.177596 34.0082808,194.28975 32.5049542,194.28975 L25.6721086,194.28975 C24.1629162,194.28975 22.945339,193.177596 22.945339,191.79829 L22.945339,180.363535 C22.945339,178.989254 24.1629162,177.872075 25.6721086,177.872075 L32.5049542,177.872075 C34.0082808,177.872075 35.2317238,178.989254 35.2317238,180.363535" id="Fill-308" fill="#141414"></path>
                        <path d="M50.3897641,180.363535 L50.3897641,191.79829 C50.3897641,193.177596 49.167159,194.28975 47.6629944,194.28975 L40.8309868,194.28975 C39.3268223,194.28975 38.1042172,193.177596 38.1042172,191.79829 L38.1042172,180.363535 C38.1042172,178.989254 39.3268223,177.872075 40.8309868,177.872075 L47.6629944,177.872075 C49.167159,177.872075 50.3897641,178.989254 50.3897641,180.363535" id="Fill-310" fill="#141414"></path>
                        <path d="M65.5486423,180.363535 L65.5486423,191.79829 C65.5486423,193.177596 64.3251992,194.28975 62.8218727,194.28975 L55.9890271,194.28975 C54.4857005,194.28975 53.2622575,193.177596 53.2622575,191.79829 L53.2622575,180.363535 C53.2622575,178.989254 54.4857005,177.872075 55.9890271,177.872075 L62.8218727,177.872075 C64.3251992,177.872075 65.5486423,178.989254 65.5486423,180.363535" id="Fill-312" fill="#141414"></path>
                        <path d="M241.637039,180.363535 L241.637039,191.79829 C241.637039,193.177596 240.414434,194.28975 238.905242,194.28975 L232.078262,194.28975 C230.569069,194.28975 229.351492,193.177596 229.351492,191.79829 L229.351492,180.363535 C229.351492,178.989254 230.569069,177.872075 232.078262,177.872075 L238.905242,177.872075 C240.414434,177.872075 241.637039,178.989254 241.637039,180.363535" id="Fill-314" fill="#141414"></path>
                        <path d="M90.4906235,180.363535 L90.4906235,191.79829 C90.4906235,193.177596 89.2738843,194.28975 87.7638539,194.28975 L71.1476539,194.28975 C69.6434894,194.28975 68.4208843,193.177596 68.4208843,191.79829 L68.4208843,180.363535 C68.4208843,178.989254 69.6434894,177.872075 71.1476539,177.872075 L87.7638539,177.872075 C89.2738843,177.872075 90.4906235,178.989254 90.4906235,180.363535" id="Fill-316" fill="#141414"></path>
                        <path d="M226.349699,180.363535 L226.349699,191.79829 C226.349699,193.177596 225.127094,194.28975 223.62293,194.28975 L207.00673,194.28975 C205.497537,194.28975 204.27996,193.177596 204.27996,191.79829 L204.27996,180.363535 C204.27996,178.989254 205.497537,177.872075 207.00673,177.872075 L223.62293,177.872075 C225.127094,177.872075 226.349699,178.989254 226.349699,180.363535" id="Fill-318" fill="#141414"></path>
                        <path d="M305.244513,188.574634 L305.244513,191.798876 C305.244513,193.177344 304.02107,194.289499 302.517743,194.289499 L289.872705,194.289499 C288.368541,194.289499 287.145936,193.177344 287.145936,191.798876 L287.145936,188.574634 C287.145936,187.196165 288.368541,186.083174 289.872705,186.083174 L302.517743,186.083174 C304.02107,186.083174 305.244513,187.196165 305.244513,188.574634" id="Fill-320" fill="#141414"></path>
                        <path d="M284.340983,188.574634 L284.340983,191.798876 C284.340983,193.177344 283.118378,194.289499 281.614213,194.289499 L268.969175,194.289499 C267.465849,194.289499 266.242406,193.177344 266.242406,191.798876 L266.242406,188.574634 C266.242406,187.196165 267.465849,186.083174 268.969175,186.083174 L281.614213,186.083174 C283.118378,186.083174 284.340983,187.196165 284.340983,188.574634" id="Fill-322" fill="#141414"></path>
                        <path d="M284.340983,180.363535 L284.340983,183.591965 C284.340983,184.966246 283.118378,186.083425 281.614213,186.083425 L268.969175,186.083425 C267.465849,186.083425 266.242406,184.966246 266.242406,183.591965 L266.242406,180.363535 C266.242406,178.989254 267.465849,177.872075 268.969175,177.872075 L281.614213,177.872075 C283.118378,177.872075 284.340983,178.989254 284.340983,180.363535" id="Fill-324" fill="#141414"></path>
                        <path d="M263.006231,188.574634 L263.006231,191.798876 C263.006231,193.177344 261.783626,194.289499 260.279462,194.289499 L247.634424,194.289499 C246.131097,194.289499 244.907654,193.177344 244.907654,191.798876 L244.907654,188.574634 C244.907654,187.196165 246.131097,186.083174 247.634424,186.083174 L260.279462,186.083174 C261.783626,186.083174 263.006231,187.196165 263.006231,188.574634" id="Fill-326" fill="#141414"></path>
                        <path d="M201.27272,180.363535 L201.27272,191.79829 C201.27272,193.177596 200.055981,194.28975 198.546789,194.28975 L95.8764544,194.28975 C94.367262,194.28975 93.1505228,193.177596 93.1505228,191.79829 L93.1505228,180.363535 C93.1505228,178.989254 94.367262,177.872075 95.8764544,177.872075 L198.546789,177.872075 C200.055981,177.872075 201.27272,178.989254 201.27272,180.363535" id="Fill-328" fill="#141414"></path>
                        <mask id="mask-6" fill="white">
                            <use xlink:href="#path-5"></use>
                        </mask>
                        <g id="Clip-331"></g>
                        <polygon id="Fill-330" fill="#B7B7B7" mask="url(#mask-6)" points="42.435038 77.8516364 285.368089 77.8516364 285.368089 67.8187989 42.435038 67.8187989"></polygon>
                        <path d="M280.414653,60.5066358 L47.411602,60.5066358 C44.6764527,60.5066358 42.4583337,62.7225697 42.4583337,65.4568948 L42.4583337,70.3058204 L285.367921,70.3058204 L285.367921,65.4568948 C285.367921,62.7225697 283.15064,60.5066358 280.414653,60.5066358" id="Fill-332" fill="#848484" mask="url(#mask-6)"></path>
                        <polyline id="Fill-333" fill="#353535" mask="url(#mask-6)" points="286.459718 0.737053444 286.459718 12.653351 286.459718 12.7463096 286.459718 15.1088 98.2740676 15.1088 98.2740676 12.7463096 98.2740676 12.653351 98.2740676 0.737053444"></polyline>
                        <path d="M0,0.737053444 L0,50.0344639 L0,56.2007229 C0,62.0948055 4.80159494,66.9638303 11.023557,67.7125245 C11.0294228,67.7125245 11.0352886,67.7125245 11.0470203,67.7167118 C11.5908658,67.7837091 12.1456051,67.8197201 12.7129139,67.8197201 L42.435038,67.8197201 L42.4568253,67.8197201 L285.368089,67.8197201 L315.084347,67.8197201 C322.108251,67.8197201 327.802289,62.617384 327.802289,56.2007229 L327.802289,50.0344639 L327.802289,0.737053444" id="Fill-334" fill="#353535" mask="url(#mask-6)"></path>
                        <path d="M90.9055048,15.1088837 L296.755662,15.1088837 M327.801786,0.73713719 L0.000335189873,0.73713719 L0.000335189873,50.0345477 C0.000335189873,53.5401785 3.10838329,56.3800242 6.93960354,56.3800242 L320.856652,56.3800242 C324.694576,56.3800242 327.801786,53.5401785 327.801786,50.0345477" id="Fill-335" fill="#000000" mask="url(#mask-6)"></path>
                        <polygon id="Fill-336" fill="#9FFFFA" mask="url(#mask-6)" points="98.2709671 12.1909862 286.460808 12.1909862 286.460808 0.737807163 98.2709671 0.737807163"></polygon>
                        <polyline id="Fill-337" fill="#9FFFFA" mask="url(#mask-6)" points="312.82148 0.739063361 312.82148 44.9053223 14.9776243 44.9053223 14.9776243 0.739063361 90.9056724 0.73738843"></polyline>
                        <path d="M194.486215,26.5467372 L134.969901,26.5467372 C134.043939,26.5467372 133.293951,27.2971063 133.293951,28.2216683 L133.293951,43.2307262 C133.293951,44.1552882 134.043939,44.9056573 134.969901,44.9056573 L194.486215,44.9056573 C195.412177,44.9056573 196.163002,44.1552882 196.163002,43.2307262 L196.163002,28.2216683 C196.163002,27.2971063 195.412177,26.5467372 194.486215,26.5467372" id="Fill-338" fill="#5A5A5A" mask="url(#mask-6)"></path>
                        <polygon id="Fill-339" fill="#FFFFFF" mask="url(#mask-6)" points="94.0107038 12.1231515 297.000853 12.1231515 297.000853 0.738644628 94.0107038 0.738644628"></polygon>
                        <path d="M29.0885314,0.737053444 L29.0885314,20.4652298 C29.0885314,22.1460231 30.6706276,23.5094171 32.6231086,23.5094171 L293.215638,23.5094171 C295.173985,23.5094171 296.756081,22.1460231 296.756081,20.4652298 L296.756081,15.1088 L296.756081,12.7463096 L98.2742352,12.7463096 L98.2742352,0.737053444" id="Fill-340" fill="#EBEBEB" mask="url(#mask-6)"></path>
                        <path d="M296.757589,12.6549421 L29.6506448,12.6549421" id="Stroke-341" stroke="#CBCBCB" mask="url(#mask-6)"></path>
                        <polyline id="Stroke-342" stroke="#CBCBCB" mask="url(#mask-6)" points="98.2738162 12.7461421 98.2738162 12.6540209 98.2738162 0.73688595"></polyline>
                        <path d="M139.111172,293.503207 C139.111172,292.097939 141.372027,290.959824 144.161645,290.959824 L188.15783,290.959824 C190.947448,290.959824 193.209141,292.097939 193.209141,293.503207 L139.111172,293.503207 Z" id="Fill-343" fill="#AAAAAA" mask="url(#mask-6)"></path>
                        <path d="M193.208806,293.544912 C193.208806,294.95018 190.94795,296.089133 188.158333,296.089133 L144.162148,296.089133 C141.37253,296.089133 139.110836,294.95018 139.110836,293.544912 L193.208806,293.544912 Z" id="Fill-344" fill="#565656" mask="url(#mask-6)"></path>
                        <path d="M149.471304,42.8053774 C149.471304,43.1185895 149.21656,43.3723416 148.903157,43.3723416 C148.589755,43.3723416 148.335848,43.1185895 148.335848,42.8053774 C148.335848,42.4921653 148.589755,42.2384132 148.903157,42.2384132 C149.21656,42.2384132 149.471304,42.4921653 149.471304,42.8053774" id="Fill-345" fill="#282828" mask="url(#mask-6)"></path>
                        <path d="M150.264279,39.8030634 L144.871074,39.8030634 C144.318849,39.8030634 143.868857,39.3893554 143.868857,38.8818512 L143.868857,30.1437355 C143.868857,29.6362314 144.318849,29.2233609 144.871074,29.2233609 L148.812069,29.2233609 L147.469634,32.8621488 C147.33472,33.2272837 147.645609,33.5991185 148.095601,33.5991185 L148.873242,33.5991185 C149.122958,33.5991185 149.339155,33.7230634 149.453958,33.9039559 L149.453958,33.9073058 C149.486639,33.9676033 149.51513,34.0312507 149.52351,34.1032727 L150.264279,39.8030634 Z" id="Fill-346" fill="#29A5F4" mask="url(#mask-6)"></path>
                        <path d="M154.387869,30.1439868 L154.387869,38.8821025 C154.387869,39.3896066 153.913575,39.8033146 153.323641,39.8033146 L150.264196,39.8033146 L149.523426,34.103524 C149.515884,34.0315019 149.486555,33.9678545 149.453874,33.907557 L149.453874,33.9042072 C149.33991,33.7233146 149.122874,33.5993697 148.873158,33.5993697 L148.095517,33.5993697 C147.645525,33.5993697 147.334636,33.227535 147.46955,32.8624 L148.811986,29.2227747 L153.323641,29.2227747 C153.913575,29.2227747 154.387869,29.6364826 154.387869,30.1439868" id="Fill-347" fill="#E7EEF5" mask="url(#mask-6)"></path>
                        <path d="M146.089071,32.9304022 L146.089071,31.2186226" id="Stroke-348" stroke="#282828" stroke-linecap="round" mask="url(#mask-6)"></path>
                        <path d="M151.325658,32.9304022 L151.325658,31.2186226" id="Stroke-349" stroke="#282828" stroke-linecap="round" mask="url(#mask-6)"></path>
                        <path d="M146.089071,36.4769014 C146.089071,36.4769014 149.046283,38.4826314 151.717747,36.4769014" id="Stroke-350" stroke="#282828" stroke-linecap="round" mask="url(#mask-6)"></path>
                        <path d="M168.886256,39.8030634 L161.166833,39.8030634 C160.34478,39.8030634 159.677752,39.1364408 159.677752,38.3148871 L159.677752,30.6001543 C159.677752,29.7777631 160.34478,29.111978 161.166833,29.111978 L168.886256,29.111978 C169.708309,29.111978 170.375337,29.7777631 170.375337,30.6001543 L170.375337,38.3148871 C170.375337,39.1364408 169.708309,39.8030634 168.886256,39.8030634" id="Fill-351" fill="#F932BB" mask="url(#mask-6)"></path>
                        <path d="M168.491821,39.4092871 L161.560932,39.4092871 C160.738041,39.4092871 160.071013,38.7435019 160.071013,37.9211107 L160.071013,30.9935956 C160.071013,30.1720419 160.738041,29.5054193 161.560932,29.5054193 L168.491821,29.5054193 C169.314712,29.5054193 169.980902,30.1720419 169.980902,30.9935956 L169.980902,37.9211107 C169.980902,38.7435019 169.314712,39.4092871 168.491821,39.4092871" id="Fill-352" fill="#2C011F" mask="url(#mask-6)"></path>
                    </g>
                    <text id="Xd" font-family="MyriadPro-Bold, Myriad Pro" font-size="7.3443" font-weight="bold" letter-spacing="-0.019" fill="#FDDBF2">
                        <tspan x="161" y="36">Xd</tspan>
                    </text>
                    <g id="Group-367" transform="translate(0.000000, 29.000000)">
                        <path d="M184.653085,11.7528224 L177.19511,11.7528224 C176.372219,11.7528224 175.706029,11.0832897 175.706029,10.2581495 L175.706029,2.77216822 C175.706029,1.94618692 176.372219,1.27665421 177.19511,1.27665421 L184.653085,1.27665421 C185.475138,1.27665421 186.142166,1.94618692 186.142166,2.77216822 L186.142166,10.2581495 C186.142166,11.0832897 185.475138,11.7528224 184.653085,11.7528224" id="Fill-354" fill="#0D5D90"></path>
                        <path d="M184.653085,10.9572897 L177.19511,10.9572897 C176.372219,10.9572897 175.706029,10.287757 175.706029,9.46261682 L175.706029,1.97663551 C175.706029,1.15065421 176.372219,0.481121495 177.19511,0.481121495 L184.653085,0.481121495 C185.475138,0.481121495 186.142166,1.15065421 186.142166,1.97663551 L186.142166,9.46261682 C186.142166,10.287757 185.475138,10.9572897 184.653085,10.9572897" id="Fill-356" fill="#1BA9DF"></path>
                        <path d="M183.488635,9.78846729 L178.36023,9.78846729 C177.536501,9.78846729 176.871149,9.11893458 176.871149,8.29379439 L176.871149,3.14528972 C176.871149,2.32014953 177.536501,1.65061682 178.36023,1.65061682 L183.488635,1.65061682 C184.310688,1.65061682 184.977716,2.32014953 184.977716,3.14528972 L184.977716,8.29379439 C184.977716,9.11893458 184.310688,9.78846729 183.488635,9.78846729" id="Fill-358" fill="#FDFDFD"></path>
                        <polygon id="Fill-360" fill="#4D4D4D" points="180.396173 2.3538785 177.58393 2.3538785 177.58393 8.95331776 180.396173 8.95331776 180.396173 7.82453271 178.990052 7.82453271 178.990052 3.40191589 180.396173 3.40191589"></polygon>
                        <polygon id="Fill-362" fill="#4D4D4D" points="181.422357 8.95306542 184.394653 8.95306542 184.394653 2.35362617 181.422357 2.35362617 181.422357 3.48157009 182.908086 3.48157009 182.908086 7.90418692 181.422357 7.90418692"></polygon>
                        <g id="Group-366" transform="translate(0.000000, 38.691589)">
                            <mask id="mask-8" fill="white">
                                <use xlink:href="#path-7"></use>
                            </mask>
                            <g id="Clip-365"></g>
                            <path d="M12.8355934,0.934065421 C12.8355934,0.934065421 1.0955681,-0.760794393 0.000335189873,9.2678972 L58.2563352,50.7511682 L330.931573,50.7511682 L330.929945,9.2678972 C330.929945,9.2678972 331.279381,1.76593458 321.739877,0.933224299 C311.757923,1.00219626 12.8355934,0.934065421 12.8355934,0.934065421" id="Fill-364" fill-opacity="0.435150589" fill="#4F4F4F" mask="url(#mask-8)"></path>
                        </g>
                    </g>
                </g>
                <g id="Group-Copy-2" transform="translate(458.000000, 113.000000)" font-family="Lato-Bold, Lato" font-size="32" font-weight="bold" letter-spacing="1.42999995" line-spacing="50">
                    <g id="Group-3">
                        <text id="Rethinking-the-Cours" fill="#6F30A7">
                            <tspan x="47.7740004" y="33">Rethinking the </tspan>
                            <tspan x="18.3250004" y="83">Course Navigation </tspan>
                        </text>
                        <text id="Rethinking-the-Cours" fill="#FFFFFF">
                            <tspan x="45.7740004" y="32">Rethinking the </tspan>
                            <tspan x="16.3250004" y="82">Course Navigation </tspan>
                        </text>
                    </g>
                </g>
                <g id="Group-Copy-4" transform="translate(458.000000, 113.000000)">
                    <g id="Group-3"></g>
                </g>
                <g id="Group-4-Copy-2" transform="translate(431.000000, 262.000000)">
                    <rect id="Rectangle-2" fill="#BF9AE1" x="0" y="0" width="379" height="63.3684211" rx="28"></rect>
                    <text id="Read-about-the-bCour" font-family="Lato-Bold, Lato" font-size="18" font-weight="bold" letter-spacing="1.42999995" fill="#472367">
                        <tspan x="32.2630008" y="38.6842105">Read about the bCourse Redesign</tspan>
                    </text>
                </g>
            </g>
        </g>
    </g>
</svg>