<svg id="Layer_1" data-name="Layer 1" xmlns="http://www.w3.org/2000/svg" xmlns:xlink="http://www.w3.org/1999/xlink" viewBox="0 0 600 355.98"><defs><style>.cls-1{fill:#fff;}.cls-2{fill:#447de2;}.cls-3{fill:#112d56;}.cls-4{mask:url(#mask);}.cls-5{fill:#515151;}.cls-6{fill:#d3d3d3;}.cls-7{fill:#1c1c1c;}.cls-8{mask:url(#mask-2);}.cls-9{fill:#4c4c4c;}.cls-10,.cls-15{fill:none;}.cls-10{stroke:#000;stroke-width:2px;}.cls-11{fill:#202020;}.cls-12{fill:#8399b1;}.cls-13{fill:#c8d2d8;}.cls-14{fill:#a0b3ca;}.cls-15{stroke:#6582c4;stroke-width:3px;}.cls-16{fill:#252525;}.cls-17{fill:#2b61d8;}.cls-18{fill:#fdbf41;}.cls-19{fill:#fa6660;}.cls-20{mask:url(#mask-133);}.cls-21{mask:url(#mask-134);}.cls-22{mask:url(#mask-137);}.cls-23{fill:#f4f4f4;}.cls-24{fill:#cecece;}.cls-25{fill:#f8f8f8;}.cls-26{fill:#919191;}.cls-27{fill:#c9c9c9;}</style><mask id="mask" x="87.68" y="58.88" width="338.39" height="237.53" maskUnits="userSpaceOnUse"><g id="mask-6"><polygon id="path-5" class="cls-1" points="87.68 58.88 426.07 58.88 426.07 296.41 87.68 296.41 87.68 58.88"/></g></mask><mask id="mask-2" x="87.68" y="59.55" width="338.66" height="270.92" maskUnits="userSpaceOnUse"><g id="mask-8"><polygon id="path-7" class="cls-1" points="87.68 330.47 426.34 330.47 426.34 59.55 87.68 59.55 87.68 330.47"/></g></mask><mask id="mask-133" x="492.27" y="84.1" width="16.55" height="223.37" maskUnits="userSpaceOnUse"><g id="mask-2-2" data-name="mask-2"><polygon id="path-1" class="cls-1" points="508.82 84.1 508.82 307.47 492.27 307.47 492.27 84.1 508.82 84.1"/></g></mask><mask id="mask-134" x="492.27" y="16.95" width="270.57" height="338.39" maskUnits="userSpaceOnUse"><g id="mask-4-2" data-name="mask-4"><polygon id="path-3" class="cls-1" points="492.27 16.95 492.27 355.34 762.83 355.34 762.83 16.95 492.27 16.95"/></g></mask><mask id="mask-137" x="491.24" y="16.95" width="270.92" height="338.66" maskUnits="userSpaceOnUse"><g id="mask-8-133" data-name="mask-8"><polygon id="path-7-132" data-name="path-7" class="cls-1" points="491.24 16.95 491.24 355.61 762.16 355.61 762.16 16.95 491.24 16.95"/></g></mask></defs><title>helix_splash</title><rect class="cls-2" width="600" height="355.98"/><path id="Fill-9" class="cls-3" d="M422.47,287.9a11.41,11.41,0,0,1-11.18,11.61H101.76A11.41,11.41,0,0,1,90.58,287.9"/><g id="Group-13"><g class="cls-4"><path id="Fill-11" class="cls-5" d="M414.67,296.41H99.08A11.42,11.42,0,0,1,87.68,285V70.31a11.41,11.41,0,0,1,11.4-11.43H414.67a11.41,11.41,0,0,1,11.4,11.43V285a11.42,11.42,0,0,1-11.4,11.44"/></g></g><path id="Fill-14" d="M398,284H116a1.25,1.25,0,0,1-1.25-1.25V73.37A1.25,1.25,0,0,1,116,72.13H398a1.24,1.24,0,0,1,1.24,1.24V282.78A1.24,1.24,0,0,1,398,284"/><path id="Fill-16" class="cls-6" d="M393.16,280.16H118.92a1.24,1.24,0,0,1-1.24-1.25V76.28A1.24,1.24,0,0,1,118.92,75H393.16a1.25,1.25,0,0,1,1.25,1.25V278.91a1.25,1.25,0,0,1-1.25,1.25"/><path id="Fill-18" class="cls-7" d="M419.56,180a8.22,8.22,0,1,1-8.22-8.22,8.22,8.22,0,0,1,8.22,8.22"/><path id="Fill-20" class="cls-1" d="M394.41,87.61H117.68V76.39A1.32,1.32,0,0,1,119,75H393.13a1.32,1.32,0,0,1,1.28,1.36Z"/><g class="cls-8"><polygon id="Fill-22" class="cls-1" points="117.68 225.01 138 225.01 138 133.09 117.68 133.09 117.68 225.01"/></g><g class="cls-8"><polygon id="Fill-24" class="cls-9" points="117.68 154.37 119.61 154.37 119.61 142.76 117.68 142.76 117.68 154.37"/></g><g class="cls-8"><polygon id="Fill-25" class="cls-9" points="117.68 174.69 119.61 174.69 119.61 163.08 117.68 163.08 117.68 174.69"/></g><g class="cls-8"><polygon id="Fill-26" class="cls-9" points="117.68 194.04 119.61 194.04 119.61 182.43 117.68 182.43 117.68 194.04"/></g><g class="cls-8"><polygon id="Fill-27" class="cls-9" points="117.68 212.43 119.61 212.43 119.61 200.82 117.68 200.82 117.68 212.43"/></g><g class="cls-8"><polygon id="Fill-28" class="cls-1" points="180.57 271.45 345.06 271.45 345.06 97.28 180.57 97.28 180.57 271.45"/></g><g class="cls-8"><path id="Stroke-29" class="cls-10" d="M119.61,149.53h12.58"/></g><g class="cls-8"><path id="Fill-30" class="cls-11" d="M132.2,167.39s0-.37,0-.44a1.4,1.4,0,0,0,0,.44"/></g><g class="cls-8"><polygon id="Fill-31" class="cls-11" points="132.26 167.12 132.27 166.95 132.19 167.36 132.26 167.12"/></g><g class="cls-8"><path id="Fill-32" class="cls-11" d="M131.22,167.22c.05.69.18-.12.27.13v.16l0-.56c-.1.09-.24.46-.32.27"/></g><g class="cls-8"><path id="Fill-33" class="cls-11" d="M131.23,167c0,.27-.06.23.06.09s0,0,0-.07a.06.06,0,0,1-.05,0"/></g><g class="cls-8"><path id="Fill-34" class="cls-11" d="M131.23,167.06c.05,0,0-.23,0,0"/></g><g class="cls-8"><path id="Fill-35" class="cls-11" d="M131.26,167.5l.06-.24c0-.16-.07-.19,0-.31a.89.89,0,0,0,0,.55"/></g><g class="cls-8"><path id="Fill-36" class="cls-11" d="M131.22,167.1l0-.1c0-.07,0-.09,0,.1"/></g><g class="cls-8"><path id="Fill-37" class="cls-11" d="M131.3,167l-.08.22c0,.11,0,.33,0-.08,0,.2,0,0,0-.14"/></g><g class="cls-8"><path id="Fill-38" class="cls-11" d="M131.22,167a.72.72,0,0,1,0,.49c.13-.1.11-.58,0-.49"/></g><g class="cls-8"><path id="Fill-39" class="cls-11" d="M131.22,168l.05.2,0-.23c0,.11-.1-.19-.1,0"/></g><g class="cls-8"><path id="Fill-40" class="cls-11" d="M131.22,167c0,.15,0,.39,0,.58l.05-.17a1.7,1.7,0,0,1-.08-.41"/></g><g class="cls-8"><path id="Fill-41" class="cls-11" d="M131.3,167l-.08.25c.07,0,.08-.09.08-.25"/></g><g class="cls-8"><polygon id="Fill-42" class="cls-11" points="131.25 167.48 131.37 166.95 131.22 167.49 131.25 167.48"/></g><g class="cls-8"><polygon id="Fill-43" class="cls-11" points="131.25 166.32 131.3 165.98 131.22 166.5 131.25 166.32"/></g><g class="cls-8"><path id="Fill-44" class="cls-11" d="M131.37,166.63c0-.28,0-.47,0-.65a1.82,1.82,0,0,0-.14.51c.05-.12.09-.09.15.14"/></g><g class="cls-8"><path id="Fill-45" class="cls-11" d="M131.22,167.27a2.74,2.74,0,0,0,.07-.32,1.79,1.79,0,0,0-.07.32"/></g><g class="cls-8"><path id="Fill-46" class="cls-11" d="M131.28,167.37a1.58,1.58,0,0,0-.06-.42l0,.41h0"/></g><g class="cls-8"><path id="Fill-47" class="cls-11" d="M131.29,167v0l-.07,0,.07,0"/></g><g class="cls-8"><path id="Fill-48" class="cls-11" d="M131.23,167h0s0,.06,0,0"/></g><g class="cls-8"><path id="Fill-49" class="cls-11" d="M131.31,167a1.58,1.58,0,0,0-.05.83,6.43,6.43,0,0,1,.05-.83"/></g><g class="cls-8"><path id="Fill-50" class="cls-11" d="M131.22,167.24l.08.1a2.57,2.57,0,0,1,0-.39Z"/></g><g class="cls-8"><polygon id="Fill-51" class="cls-11" points="131.22 167.12 131.26 166.99 131.23 166.95 131.22 167.12"/></g><g class="cls-8"><path id="Fill-52" class="cls-11" d="M131.34,167c0,.18-.07.2-.12.23s.1.12.14.12,0-.36,0-.35"/></g><g class="cls-8"><path id="Fill-53" class="cls-11" d="M131.23,167s0,0,0,0,0,.05,0,0"/></g><g class="cls-8"><path id="Fill-54" class="cls-11" d="M130.25,167a.19.19,0,0,1,0,.08V167Z"/></g><g class="cls-8"><path id="Fill-55" class="cls-11" d="M131.23,167.1c0,.08.06,0,.08-.15,0,0-.06.07-.09.07s0,.1,0,.08"/></g><g class="cls-8"><path id="Fill-56" class="cls-11" d="M131.22,167c0,.09,0,.16.06.23,0-.13-.05-.34-.06-.23"/></g><g class="cls-8"><path id="Fill-57" class="cls-11" d="M131.23,167v0c0-.09,0,0,0,0"/></g><g class="cls-8"><path id="Fill-58" class="cls-11" d="M131.27,167c0,.06,0,.16-.05.25a.53.53,0,0,0,.06-.13s0-.08,0-.12"/></g><g class="cls-8"><path id="Fill-59" class="cls-11" d="M130.34,167.92c0-.14.1-.28.18-.12a2,2,0,0,0,0-.85.37.37,0,0,1-.08.21c0,.08.17.18.1.31s-.08-.05-.13-.13c0,.18-.14.26-.11.53l.09-.09s0,.1,0,.14"/></g><g class="cls-8"><path id="Fill-60" class="cls-11" d="M130.4,167.52l0-.05a1.92,1.92,0,0,1-.12-.52,2.34,2.34,0,0,0-.07.46l.16.05Z"/></g><g class="cls-8"><path id="Fill-61" class="cls-11" d="M131.37,167.14a2.5,2.5,0,0,0-.06.78c.1,0,.07-.26.13-.4-.16.08,0-.17-.07-.34a.24.24,0,0,1,.08-.09.58.58,0,0,1-.08-.14v0h0s0,.07,0,0h0v.12c-.05-.07,0-.08,0-.12a.09.09,0,0,0,0-.05h0l-.16.17s.08,0,.15,0"/></g><g class="cls-8"><path id="Fill-62" class="cls-11" d="M131.24,168a.38.38,0,0,1,0-.1c0,.05,0,.09,0,.1"/></g><g class="cls-8"><path id="Fill-63" class="cls-11" d="M131.3,168.76s0-.19.06-.15a.87.87,0,0,1,0,.28.66.66,0,0,0,0-.42v.05a2,2,0,0,1-.14-.6c0,.31,0,.53.08.84"/></g><g class="cls-8"><path id="Fill-64" class="cls-11" d="M131.35,167.92l-.13.2.07.36v-.21c.08.08.06-.18.07-.35"/></g><g class="cls-8"><polygon id="Fill-65" class="cls-11" points="130.31 167.39 130.33 166.95 130.25 167.57 130.31 167.39"/></g><g class="cls-8"><polygon id="Fill-66" class="cls-11" points="130.29 167.33 130.3 166.95 130.25 167.18 130.29 167.33"/></g><g class="cls-8"><path id="Fill-67" class="cls-11" d="M124.49,169.85l0,.11a.36.36,0,0,0,0-.11"/></g><g class="cls-8"><path id="Fill-68" class="cls-11" d="M124.46,170v-.19c0,.11,0,.19,0,.19"/></g><g class="cls-8"><path id="Fill-69" class="cls-11" d="M127.46,167.59c0-.36-.11-.91-.11-.48l0,.42c0-.08.07,0,.09.06"/></g><g class="cls-8"><path id="Fill-70" class="cls-11" d="M125.42,168.19s0,.09,0,.13c0-.14,0-.28,0-.4,0,.09,0,.18,0,.27"/></g><g class="cls-8"><path id="Fill-71" class="cls-11" d="M125.49,169.16l-.07-.27a1.34,1.34,0,0,0,.07.27"/></g><g class="cls-8"><path id="Fill-72" class="cls-11" d="M123.53,169.85l0,.43c.07,0,0-.22,0-.43"/></g><g class="cls-8"><path id="Fill-73" class="cls-11" d="M129.41,167.2c0-.16-.09-.23-.12-.25.05.24.1.6.12.25"/></g><g class="cls-8"><path id="Fill-74" class="cls-11" d="M124.48,167a1,1,0,0,0,0,.26.72.72,0,0,0,0-.26"/></g><g class="cls-8"><path id="Fill-75" class="cls-11" d="M129.29,167.13s0,.06,0,.1.07-.13.11-.1c0-.18-.09-.29-.13,0"/></g><g class="cls-8"><path id="Fill-76" class="cls-11" d="M120.59,169.91s0,0,0-.06,0,.07,0,.06"/></g><g class="cls-8"><path id="Fill-77" class="cls-11" d="M119.61,167s0,0,.07,0,0,0-.07,0"/></g><g class="cls-8"><path id="Fill-78" class="cls-11" d="M130.25,167s0,0,0,0"/></g><g class="cls-8"><path id="Fill-79" class="cls-11" d="M130.27,167.92c0,.05,0,.11,0,.2,0-.1,0-.16,0-.2"/></g><g class="cls-8"><path id="Fill-80" class="cls-11" d="M129.29,167.92h0c0,.08,0,.06,0,0"/></g><g class="cls-8"><path id="Fill-81" class="cls-11" d="M130.3,167.08a.32.32,0,0,0-.05-.13l.05.13"/></g><g class="cls-8"><path id="Fill-82" class="cls-11" d="M130.25,167l0,0c0-.07,0-.11,0,0"/></g><g class="cls-8"><path id="Fill-83" class="cls-11" d="M130.25,167s0,0,.06.05a.23.23,0,0,1,0-.07.06.06,0,0,1-.05,0"/></g><g class="cls-8"><path id="Fill-84" class="cls-11" d="M122.54,168.93s0,0,0,0c0,.17,0,.14,0,0"/></g><g class="cls-8"><path id="Fill-85" class="cls-11" d="M127.35,168.92s0,0,0,0h0Z"/></g><g class="cls-8"><path id="Fill-86" class="cls-11" d="M126.38,169.85c.06-.32.09-.28.13-.21l0-.75Z"/></g><g class="cls-8"><path id="Fill-87" class="cls-11" d="M122.22,167.7l0,.07c0,.08,0,0,0-.07m7.53-.1a.21.21,0,0,0,0-.11c0,.07,0,.07,0,0s0,.12,0,.06m-.07-.11h0c0-.1,0-.06,0,0m-3.31,1.81c0,.08,0,0-.05-.06s0,0,.05.06m-1.18.62c0,.06,0,.23-.06.07s0-.15.06-.07m-.78.17,0,.21c-.07.35-.11.23-.06.52,0-.73.2-.07.21-.8l0,.15s0,0,0,0c.07.35,0-.53.14-.43a.42.42,0,0,1,0,.25l.07-.18s0,.14,0,.13l.1-.06v0c0-.11,0-.29.07-.37,0,.11,0,.08,0,.17l.06-.17c0,.19,0,.37-.07.34.06.73,0-.18.16.25l0,.09c0,.41.08.26.14.52a2.78,2.78,0,0,1-.06-.83s0,.08.07-.07c0,.26,0,.2.07.18v.35a2.27,2.27,0,0,0,.07-.43s.06.3.07.52c.08.06-.06-.42,0-.49.06.13.11,0,.18-.22,0,.12,0,.22,0,.31l0-.27a.45.45,0,0,1,0,.13c0-.1,0-.34,0-.43,0-.38.11.55.18.12,0,.1,0,.21,0,.34a2.67,2.67,0,0,0,.15-.58l.06.22a2.45,2.45,0,0,1,.07-.81c0-.13,0-.24,0-.29l.08-.18a1.79,1.79,0,0,1,0,.31.19.19,0,0,0,0-.08,1.8,1.8,0,0,1,0,.52l0-.21c0,.21,0,.44,0,.64a.46.46,0,0,1,0-.09.76.76,0,0,0,0,.14s0,0,0-.13l0,.39v-.16l.11.24a4.72,4.72,0,0,1,.27-1.11,6.78,6.78,0,0,0,0,.79c0-.35-.09.15-.16.08s0,.2,0,.25l.11-.32a.52.52,0,0,0,.06.32c0-.54.08-.36.13-.53,0,.19,0,.37-.06.33.06.4.08-.64.14-.29,0,0,0,0,0,.07,0-.16.11,0,.09.12h0c.09.06.28,0,.29-.46,0,.06,0,.55,0,.65l.16-1.55a10.86,10.86,0,0,1,0,1.56c0,.05,0,.12.1,0a4.14,4.14,0,0,1,0-.6,6,6,0,0,0,.11.6,2.34,2.34,0,0,1,0-.68c0,.09,0,.61,0,.67l.09-.6a3.93,3.93,0,0,0,0,.68c0-.12.08,0,.1-.05l0-.14c.09.1.09-.85.19-.82a3.94,3.94,0,0,0,0,.85c0-.31.11-1.49.19-1.73l0,.18.07-.21c-.05.47-.16,1.45-.23,1.84,0,.14,0,.21.07.19,0,.17,0,.25-.05.26l.13.11c0-.36.1-.36.1-.67l-.14.38c0-.36.08-1,.17-1s0,.65,0,.77c0-.12.09-.24.1-.15l0,.19c0,.14.08-.48.15-.13,0,0,.06.47.06.25,0-.41,0-1.69,0-2a3.88,3.88,0,0,1,.14.6c0,.32,0,.77,0,1a1.32,1.32,0,0,1,0-.26c0,.08,0,.31,0,.26,0-.37.09,0,0-.31.05-.1.05.08.1.06a3.7,3.7,0,0,1,.1-.91c0,.09,0,.21,0,.27s.15.2.24.2a1.15,1.15,0,0,1,0,.36c0-.07,0-.19.05-.2,0,.31-.06.05,0,.43a1.12,1.12,0,0,1,.11-.43c0-.33-.09-.06-.13.07a3.55,3.55,0,0,1,.16-1.14c.08-.11,0,.29.05.23s.12-.79.24-.47a7.14,7.14,0,0,1,0,.79c-.06.11-.09-.19-.14-.17l.06.13c0,.1-.07.17-.09.09,0,.26.24.05.35.29a1.08,1.08,0,0,0,0-.32l0,0c0-.23.07-.32,0-.43s.1-.42.17-.29v.33c0-.09,0-.19-.06-.09,0-.15.1.44.13,0l0-.23c0-.16.11-.51.16-.41,0-.33,0,0-.05-.34,0,.47-.15,0-.09.47,0-.44-.07-.18-.13-.56,0,.11,0,.21,0,.15a.28.28,0,0,1,0,.1h0l0,.16c0,.26-.1.25-.13.38,0-.05,0-.13,0-.24l0,.19c0-.24-.08-.4,0-.54l-.06,0c0-.13-.09-.19-.12-.08,0-.06-.07.26-.05.08l-.09.14v-.06c-.1,0-.2.41-.3,0,0,.06-.07.13-.12.07v-.21c0,.07-.12-.21-.14,0-.05-.56-.2-.12-.27-.22v.28s-.09.06-.15.17v.24c-.05.2-.14-.17-.22-.15s0-.07,0,0c-.1-.55-.21.4-.3,0,0,.09,0,.06,0,0v0h0l0-.13a.63.63,0,0,0,0,.13.17.17,0,0,0-.07.1v-.26h0c0-.09,0,.13,0,.32l0,.16c0-.42-.07.14-.1-.31,0,.22-.13.17-.14.63,0-.06,0-.09,0-.1s-.06-.1-.09,0v-.33l-.06.44a1.34,1.34,0,0,1,0-.57c-.09.39-.07.15-.15.53V168s-.07.3-.09.12c-.06-.41-.31-.06-.47-.43,0,.62-.07-.29-.08.2a1.09,1.09,0,0,1,0-.36c-.09.15-.13-.24-.18.17,0-.14,0-.21,0-.3s0,.13,0,0a.36.36,0,0,1,0-.19c-.09,0-.1.48-.1.91,0-.2-.06-.17-.09.11,0-.14,0-.29,0-.34s-.18-.2-.18.14c0-.09,0,0,0,0s-.07,0-.14,0l0,.05c0,.42,0,.09-.11.14v0c-.12-.3-.06.14-.17-.2v.26c0,.56-.1-.33-.17-.11l0,.14c0,.19-.11-.75-.14-.82a.23.23,0,0,1,0-.12c-.1-.32,0,.34-.09.42,0-.18,0-.46,0-.5s-.14.6-.21.25a1,1,0,0,1,0,.38c0,.05-.14-.53-.19-.08a.49.49,0,0,1,0-.12,1.15,1.15,0,0,0-.15.44c0-.9-.25.43-.25-.39l-.12,0v-.08c-.07-.06-.1.14-.13.34a.54.54,0,0,1,0-.18c-.12-.17-.13-.13-.22.28v-.27c0,.16-.17-.42-.28-.1a.49.49,0,0,1,0-.12c-.12.31-.3-.74-.34.23l-.09.24c.11.07,0,.42,0,.58s-.11-.29,0-.34v.05c0-.51-.13-.18-.13-.53-.21,0-.41-.25-.61-.28l0,.4-.07,0c0-.1,0-.31,0-.3,0-.22-.09.19-.09.28-.09-.16,0-.46,0-.47l0,0v0c0,.16,0,.33-.1.32s0-.25,0-.26,0,0,0,0l-.09,0,0,.31c0,.16-.09,0,0,.34-.06-.54-.32-.2-.36-.36,0,.22-.1.22-.17.19s0,.41,0,.37c0-.72-.1-.31-.15-.83,0,.34-.16.08-.1.57,0-.05,0-.27,0-.44-.11.28-.25-.18-.39-.08a1.59,1.59,0,0,1,0,.38l-.08-.48c0,.05,0,.55-.07.22a1.72,1.72,0,0,1,0,.23c-.28-.46-.56.38-.84-.49,0,.19,0,.2,0,.21a3.34,3.34,0,0,1,0,.36l-.12-.35c0,.35-.13,0-.14.36l0-.06c-.05.4.07.89.06,1.41.06-.46.14.68.23,0a2.8,2.8,0,0,1,0,.29c0-.22,0-.27.1-.17v.06c.15-.06.21.16.37.3v-.25a.54.54,0,0,1,.06.18c0-.39-.1,0-.06-.45,0,.52.24,0,.27.6,0,0,0-.3,0-.3v.16l0-.2a1,1,0,0,1,0,.37s0,0,0,.05c0,.19.12-.07.14,0l0-.09c.14-.15.32.06.46-.27v-.12c.11-.22.09.13.21,0v0c0-.12.06-.18.09-.17s0,.28,0,.43c.11-.24.05-.19.13-.63l0,.2c0-.18,0-.28.08-.33,0,.17,0,.3,0,.53.12.44.18-.44.24.2.06-.56-.11-.31-.08-.43s0-.41.09-.36.07.71.16.7,0,0,0,0,.08-.19.12,0c0-.34.06,0,.07-.41l-.09.1c0-.11.1-.61.18-.37a1,1,0,0,1,0,.26c0,.13,0-.08.08.05,0,.42-.11.09-.17.42s.11-.31.08.15c0-.59.1.07.16-.38V170s0-.16,0-.15l0,.33c0-.29.1.24.15.09-.11,0,0-.31-.07-.49.14-.35.08.66.23.54,0,0-.08-.15,0-.27a1.21,1.21,0,0,1,.08.29c.1-.06,0-.27,0-.43,0,.32.05-.12.09-.22v.26c.11.16,0-.54.13-.34l0,.36,0-.09v.29c.06-.22.08-.16.14-.08,0-.18,0-.47.05-.48,0,.16,0,.25.06.21,0,.16,0,.37-.07.13,0,.08,0,.16,0,.25s.09,0,.12,0a.1.1,0,0,1,0-.06l.11-.36a1.09,1.09,0,0,1,0,.26s0-.15.06-.17a1.49,1.49,0,0,1-.05.52l.1-.23a2,2,0,0,1,0,.33c.06.12.13-.41.21-.25a.36.36,0,0,1,0-.11c.07,0,.13.31.21,0l0,.38c.06-.09-.06-.48,0-.62s0,.32.06.43c0-.19.1-.58.17-.27,0,.07,0,0-.06,0"/></g><g class="cls-8"><path id="Fill-88" class="cls-11" d="M125.43,169.14c0-.08,0-.17,0-.25a.71.71,0,0,0,0,.25"/></g><g class="cls-8"><path id="Fill-89" class="cls-11" d="M123.49,169.86h0a.28.28,0,0,0,0,.09Z"/></g><g class="cls-8"><path id="Fill-90" class="cls-11" d="M129.34,169.13a.85.85,0,0,1-.05-.24c0,.11,0,.21.05.24"/></g><g class="cls-8"><path id="Fill-91" class="cls-11" d="M130.33,167l-.08.12s.06.08.07.16a1,1,0,0,1,0-.28"/></g><g class="cls-8"><path id="Fill-92" class="cls-11" d="M130.28,168.2c0-.06,0,0,0-.06v-.22c-.05,0-.08.19,0,.28"/></g><g class="cls-8"><path id="Fill-93" class="cls-11" d="M130.25,168.1c0,.39.06.26.11.19h0c0-.55,0-.37-.1-.19"/></g><g class="cls-8"><path id="Fill-94" class="cls-11" d="M130.25,168s0,0,.06,0c0-.22,0-.05-.06,0"/></g><g class="cls-8"><path id="Fill-95" class="cls-11" d="M130.3,167.42c0,.11,0-.5,0-.34,0-.5-.17.61,0,.34"/></g><g class="cls-8"><polygon id="Fill-96" class="cls-11" points="130.3 168.4 130.28 167.92 130.25 168.31 130.3 168.4"/></g><g class="cls-8"><path id="Fill-97" class="cls-11" d="M130.26,168l.08.13a.51.51,0,0,1,0-.16c-.05,0-.11-.12-.1,0"/></g><g class="cls-8"><path id="Fill-98" class="cls-11" d="M130.25,168s.06,0,.07-.08,0,0-.07.08"/></g><g class="cls-8"><polygon id="Fill-99" class="cls-11" points="130.34 168.06 130.32 167.96 130.25 167.92 130.34 168.06"/></g><g class="cls-8"><path id="Fill-100" class="cls-11" d="M129.38,167.92l-.09.14c0,.16,0,.27.05.2a.88.88,0,0,0,0-.34"/></g><g class="cls-8"><path id="Fill-101" class="cls-11" d="M130.3,169.26a1.82,1.82,0,0,1,0-.37v.6Z"/></g><g class="cls-8"><path id="Fill-102" class="cls-11" d="M129.35,168.89c0,.16-.13.47,0,.44s.1-.31,0-.44"/></g><g class="cls-8"><polygon id="Fill-103" class="cls-11" points="129.29 168.89 129.31 168.88 129.31 167.92 129.29 168.89"/></g><g class="cls-8"><path id="Fill-104" class="cls-11" d="M127.36,169.64c.11.24,0-.61.13-.31,0-.23-.08-.24-.06-.44-.06.24-.1.1-.07.75"/></g><g class="cls-8"><path id="Fill-105" class="cls-11" d="M127.35,169s0-.09,0-.15a1.13,1.13,0,0,0,0,.15"/></g><g class="cls-8"><polygon id="Fill-106" class="cls-11" points="119.68 167.16 119.61 166.95 119.66 167.28 119.68 167.16"/></g><g class="cls-8"><path id="Fill-107" class="cls-11" d="M119.67,167.58l0-.63,0,.57s0-.08.06.06"/></g><g class="cls-8"><path id="Fill-108" class="cls-11" d="M125.47,170.21v-.15c0-.17,0-.18-.06-.21Z"/></g><g class="cls-8"><polygon id="Fill-109" class="cls-11" points="124.46 170.41 124.48 170.42 124.45 169.85 124.46 170.41"/></g><g class="cls-8"><path id="Fill-110" class="cls-11" d="M124.45,170.17s.07-.11.11-.08-.12-.63-.11.08"/></g><g class="cls-8"><path id="Fill-111" d="M120.56,189.2c4.08,0,8.16,0,12.23,0,.56,0,.34-.58.22-.76a3.14,3.14,0,0,0-1.57-1.13c-4.13-.1-8.27,0-12.4,0-.69,0-.3.73-.13.91a2.61,2.61,0,0,0,1.65,1"/></g><g class="cls-8"><path id="Fill-112" d="M120.93,188.17c4.17.07,8.33,0,12.49.07.4,0,.79-.27.69-.68a2.5,2.5,0,0,0-1.4-1.21c-4.13,0-8.25,0-12.38,0-.38,0-.79.25-.71.66s.91,1.2,1.31,1.21"/></g><g class="cls-8"><path id="Fill-113" d="M121.73,190.15c4,0,8,0,12,0,.76,0,.15-1.13,0-1.32-.45-.61-1.15-1.48-1.89-1.52-2-.12-4,0-6,0s-3.94,0-5.91,0c-.74,0-.23,1.08-.07,1.31.39.57,1.1,1.56,1.8,1.56"/></g><g class="cls-8"><path id="Fill-114" d="M123,191.12c4.22,0,8.45,0,12.67,0,1.05,0-.19-1.43-.29-1.53-.69-.77-1.78-2.08-2.86-2.25a12.18,12.18,0,0,0-1.6,0h-4.62c-2.08,0-4.15,0-6.23-.07-1,0,.09,1.39.21,1.53a20,20,0,0,0,1.64,1.68,1.74,1.74,0,0,0,1.08.64"/></g><g class="cls-8"><path id="Fill-115" d="M123.3,190.15c4.12,0,8.24,0,12.36,0,.92,0,0-1.1-.14-1.22a4.64,4.64,0,0,0-2.37-1.61c-.51-.05-1.06,0-1.58,0h-4.51c-2,0-4,0-6.07,0-.89,0-.08,1.06.06,1.22.47.51,1.42,1.66,2.25,1.66"/></g><g class="cls-8"><path id="Fill-116" d="M120.38,188.24c4.05,0,8.1,0,12.15,0,1,0,.66-1.93-.17-1.93-4,0-8.08,0-12.12,0-1,0-.69,1.9.14,1.9"/></g><g class="cls-8"><path id="Fill-117" d="M119.92,189.1c4.18.11,8.35.07,12.53.11.39,0,.79-.28.69-.68a2.4,2.4,0,0,0-1.35-1.19c-4.15,0-8.28,0-12.42-.07-.38,0-.8.26-.72.66s.87,1.16,1.27,1.17"/></g><g class="cls-8"><path id="Fill-118" d="M121.29,191.12c4.14,0,8.29,0,12.44,0,.9,0,0-1.09-.12-1.23a4.49,4.49,0,0,0-2.31-1.59c-2-.18-4.11,0-6.13,0s-4.08,0-6.11,0c-.88,0-.11,1.05,0,1.22.45.52,1.37,1.63,2.19,1.64"/></g><g class="cls-8"><path id="Fill-119" d="M122.47,188.24c4.08,0,8.16,0,12.24,0,.71,0,.25-.78.09-.94a2.71,2.71,0,0,0-1.72-1c-4,0-8.07,0-12.11,0-.68,0-.3.74-.13.93a2.51,2.51,0,0,0,1.63,1"/></g><g class="cls-8"><path id="Fill-120" d="M120.63,190.17c4.05,0,8.1,0,12.15,0,.73,0,.21-.75.05-.9a3.11,3.11,0,0,0-1.78-1c-4-.12-8,0-12,0-.71,0-.28.72-.11.89a2.73,2.73,0,0,0,1.7,1"/></g><g class="cls-8"><path id="Fill-121" d="M121.81,187.27c4.21,0,8.42,0,12.62,0,1.41,0,.25-1.93-.58-1.93q-6.27,0-12.54,0c-.37,0-.8.29-.72.71s.84,1.21,1.22,1.21"/></g><g class="cls-8"><path id="Fill-122" d="M119.46,189.21c4,0,8.06,0,12.1,0,1.08,0,.61-1.93-.21-1.93-4,0-8,0-12.07,0-1.06,0-.65,1.9.18,1.9"/></g><g class="cls-8"><polygon id="Fill-123" class="cls-12" points="119.61 212.43 132.19 212.43 132.19 208.56 119.61 208.56 119.61 212.43"/></g><g class="cls-8"><polygon id="Fill-124" class="cls-13" points="119.61 208.56 132.19 208.56 132.19 207.59 119.61 207.59 119.61 208.56"/></g><g class="cls-8"><polygon id="Fill-125" class="cls-14" points="119.61 208.56 132.19 208.56 132.19 201.78 119.61 201.78 119.61 208.56"/></g><g class="cls-8"><path id="Stroke-126" class="cls-15" d="M368.88,84.71h-4.1a1.34,1.34,0,0,1-1.34-1.34v-4.1a1.34,1.34,0,0,1,1.34-1.34h4.1a1.34,1.34,0,0,1,1.34,1.34v4.1A1.34,1.34,0,0,1,368.88,84.71Z"/></g><g class="cls-8"><path id="Stroke-127" class="cls-15" d="M341.19,83.37v-4.1a1.34,1.34,0,0,1,1.33-1.34h4.11A1.33,1.33,0,0,1,348,79.27v4.1a1.33,1.33,0,0,1-1.33,1.34h-4.11A1.34,1.34,0,0,1,341.19,83.37Z"/></g><g class="cls-8"><path id="Stroke-128" class="cls-15" d="M317,83.37v-4.1a1.34,1.34,0,0,1,1.33-1.34h4.11a1.34,1.34,0,0,1,1.33,1.34v4.1a1.34,1.34,0,0,1-1.33,1.34h-4.11A1.34,1.34,0,0,1,317,83.37Z"/></g><g class="cls-8"><path id="Stroke-129" class="cls-15" d="M122.51,83.37v-4.1a1.36,1.36,0,0,1,1.37-1.34h23.39a1.35,1.35,0,0,1,1.37,1.34v4.1a1.35,1.35,0,0,1-1.37,1.34H123.88A1.36,1.36,0,0,1,122.51,83.37Z"/></g><g class="cls-8"><path id="Fill-130" class="cls-16" d="M233.79,152.63v11.28a2.13,2.13,0,0,1-4.25,0V152.63c0-2.69-2.13-5.17-5.58-6.47l-.54-.2-4.55-1.71c-5.12-1.93-8.31-5.89-8.31-10.34V122.58a2.13,2.13,0,0,1,4.25,0v11.33c0,2.69,2.14,5.17,5.58,6.47l.57.21,4.53,1.7c5.12,1.93,8.3,5.89,8.3,10.34"/></g><g class="cls-8"><path id="Fill-131" class="cls-16" d="M215.86,152.08a4.4,4.4,0,0,0-1.18,2.81v10a2.06,2.06,0,1,1-4.12,0v-10a8.6,8.6,0,0,1,2.21-5.61,2,2,0,0,1,2.9-.19,2.16,2.16,0,0,1,.19,3"/></g><g class="cls-8"><path id="Fill-132" class="cls-17" d="M232.82,122.44a1.94,1.94,0,1,1-1.94-1.93,1.94,1.94,0,0,1,1.94,1.93"/></g><g class="cls-8"><path id="Fill-133" class="cls-18" d="M232.82,129.22a1.94,1.94,0,1,1-1.94-1.94,1.94,1.94,0,0,1,1.94,1.94"/></g><g class="cls-8"><path id="Fill-134" class="cls-19" d="M231.85,137a1.94,1.94,0,1,1-1.93-1.94,1.93,1.93,0,0,1,1.93,1.94"/></g><g class="cls-8"><path id="Fill-135" class="cls-17" d="M230.51,123.41H215.78a.5.5,0,0,1,0-1h14.73c.21,0,.37.22.37.49a.44.44,0,0,1-.37.48"/></g><g class="cls-8"><path id="Fill-136" class="cls-18" d="M231.47,129.22H219.66a.45.45,0,0,1-.39-.49.44.44,0,0,1,.39-.48h11.81a.44.44,0,0,1,.38.48.45.45,0,0,1-.38.49"/></g><g class="cls-8"><path id="Fill-137" class="cls-19" d="M228.59,137h-6.05c-.2,0-.36-.22-.36-.49s.16-.48.36-.48h6.05c.2,0,.36.21.36.48s-.16.49-.36.49"/></g><g class="cls-8"><polygon id="Fill-138" class="cls-18" points="283.13 175.45 280.75 178.56 270.56 170.62 270.56 142.76 274.44 142.76 274.44 168.69 283.13 175.45"/></g><g class="cls-8"><polygon id="Fill-139" class="cls-17" points="311.19 196.57 311.19 225.97 307.03 225.97 307.03 198.5 298.62 192.32 301.17 189.21 311.19 196.57"/></g><g class="cls-8"><polygon id="Fill-140" points="279.26 215.96 274.64 215.96 274.64 220.52 279.26 220.52 279.26 223.07 267.65 223.07 267.65 220.52 272.21 220.52 272.21 215.96 267.65 215.96 267.65 213.4 279.26 213.4 279.26 215.96"/></g><g class="cls-8"><polygon id="Fill-141" points="279.26 202.75 267.65 202.75 267.65 195.99 270.09 195.99 270.09 200.37 272.3 200.37 272.3 196.4 274.58 196.4 274.58 200.37 276.81 200.37 276.81 195.98 279.26 195.98 279.26 202.75"/></g><g class="cls-8"><polygon id="Fill-142" points="302.49 168.89 314.1 168.89 314.1 166.95 302.49 166.95 302.49 168.89"/></g><g class="cls-8"><polygon id="Fill-143" points="308.32 149.39 314.1 145.66 314.1 148.77 310.33 151.04 314.1 153.29 314.1 156.31 308.28 152.6 302.49 156.31 302.49 153.23 306.25 150.96 302.49 148.69 302.49 145.7 308.32 149.39"/></g><g class="cls-8"><polygon id="Fill-144" class="cls-19" points="296.68 188.24 285.07 188.24 285.07 185.93 294.21 185.93 294.21 181.47 296.68 181.47 296.68 188.24"/></g><g class="cls-8"><polygon id="Fill-145" points="284.1 222.1 298.62 222.1 298.62 221.14 284.1 221.14 284.1 222.1"/></g><g class="cls-8"><polygon id="Fill-146" points="284.1 205.66 298.62 205.66 298.62 204.69 284.1 204.69 284.1 205.66"/></g><g class="cls-8"><polygon id="Fill-147" points="286.04 214.36 295.71 214.36 295.71 213.4 286.04 213.4 286.04 214.36"/></g><g class="cls-8"><polygon id="Fill-148" points="286.04 198.88 295.71 198.88 295.71 197.91 286.04 197.91 286.04 198.88"/></g><g class="cls-8"><polygon id="Fill-149" points="284.1 164.05 298.62 164.05 298.62 163.08 284.1 163.08 284.1 164.05"/></g><g class="cls-8"><polygon id="Fill-150" points="284.1 146.63 298.62 146.63 298.62 145.66 284.1 145.66 284.1 146.63"/></g><g class="cls-8"><polygon id="Fill-151" points="286.04 155.34 295.71 155.34 295.71 154.37 286.04 154.37 286.04 155.34"/></g><g class="cls-8"><polygon id="Fill-152" points="286.04 171.79 295.71 171.79 295.71 170.82 286.04 170.82 286.04 171.79"/></g><g class="cls-8"><g id="Group-155"><path id="Fill-153" class="cls-17" d="M229.19,249h-3.1v-9.18c0-2.13-1.57-4.08-4.1-5.09l-3.72-1.48c-3.73-1.49-6.05-4.53-6.05-7.94v-7.58h-2.35V249h-3.11V214.67h8.56v10.65c0,2.13,1.57,4.08,4.1,5.09l3.73,1.49c3.73,1.48,6,4.52,6,7.93Z"/><path id="Fill-154" class="cls-18" d="M234.7,249h-3.1V217.74h-2.41v7.58c0,3.41-2.31,6.45-6,7.94l-3.73,1.48c-2.53,1-4.1,3-4.1,5.09V249h-3.1v-9.18c0-3.41,2.32-6.45,6-7.93l3.73-1.49c2.53-1,4.1-3,4.1-5.09V214.67h8.61Z"/></g></g><g id="Group-8"><g id="Group-3"><g class="cls-20"><path id="Fill-1" class="cls-3" d="M508.82,84.1V299.19a8.28,8.28,0,1,1-16.55,0V84.1Z"/></g></g><g class="cls-21"><polygon id="Fill-4" class="cls-3" points="492.27 273.9 492.27 283.61 508.82 283.61 508.82 273.9 492.27 273.9"/></g><g class="cls-21"><path id="Fill-6" class="cls-3" d="M508.82,85.13H492.27c0-10.69,5.41-23.88,5.41-23.88h5.72s5.42,13.19,5.42,23.88"/></g><g class="cls-21"><path id="Fill-7" class="cls-3" d="M503.23,60.57h-.78v.68h-3.81v-.68h-.78a22.51,22.51,0,0,1,2.68-6.38,22.35,22.35,0,0,1,2.69,6.38"/></g></g><g class="cls-22"><path id="Fill-156" class="cls-23" d="M501.4,307.23a8.14,8.14,0,0,1-8.23-8.06V284h16.45v15.16a8.14,8.14,0,0,1-8.22,8.06"/></g><g class="cls-22"><path id="Fill-157" class="cls-24" d="M501.4,308.2c-4.55,0-8.23-4-8.23-9v-1.67c0,4.95,3.68,9,8.23,9s8.22-4,8.22-9v1.67c0,5-3.68,9-8.22,9"/></g><g class="cls-22"><polygon id="Fill-158" class="cls-25" points="493.17 80.81 493.17 284.01 509.62 284.01 509.62 80.81 493.17 80.81"/></g><g class="cls-22"><polygon id="Fill-159" class="cls-26" points="493.17 273.37 493.17 284.01 509.62 284.01 509.62 273.37 493.17 273.37"/></g><g class="cls-22"><path id="Fill-160" class="cls-25" d="M509.62,81.78H493.17c0-10.39,5.39-23.22,5.39-23.22h5.68s5.38,12.83,5.38,23.22"/></g><g class="cls-22"><path id="Fill-161" class="cls-27" d="M503.82,57.91h-.71v.65h-3.43v-.65H499a22.27,22.27,0,0,1,2.41-6.12,22.26,22.26,0,0,1,2.43,6.12"/></g></svg>