<?xml version="1.0" encoding="UTF-8"?>
<svg width="1224px" height="600px" viewBox="0 0 1224 600" version="1.1" xmlns="http://www.w3.org/2000/svg" xmlns:xlink="http://www.w3.org/1999/xlink">
    <!-- Generator: Sketch 51.3 (57544) - http://www.bohemiancoding.com/sketch -->
    <title>Helix Cover</title>
    <desc>Created with Sketch.</desc>
    <defs>
        <polygon id="path-1" points="0 335 516 335 516 0 0 0"></polygon>
    </defs>
    <g id="Page-1" stroke="none" stroke-width="1" fill="none" fill-rule="evenodd">
        <g id="Desktop-HD-Copy-4" transform="translate(-111.000000, -83.000000)">
            <g id="Helix-Cover" transform="translate(111.000000, 83.000000)">
                <g id="Group-3">
                    <g id="Group-2">
                        <rect id="Rectangle-4" fill="#447DE2" x="0" y="0" width="1224" height="600"></rect>
                        <g id="Group-156" transform="translate(352.000000, 73.000000)">
                            <path d="M428.08139,325 L14.9186101,325 C6.67927072,325 0,318.318872 0,310.076515 L0,29.9227592 C0,21.6811283 6.67927072,15 14.9186101,15 L428.08139,15 C436.320004,15 443,21.6811283 443,29.9227592 L443,310.076515 C443,318.318872 436.320004,325 428.08139,325" id="Fill-1" fill="#515151"></path>
                            <path d="M405.366296,308 L36.633704,308 C35.730772,308 35,307.270738 35,306.371291 L35,32.6287089 C35,31.7292618 35.730772,31 36.633704,31 L405.366296,31 C406.268502,31 407,31.7292618 407,32.6287089 L407,306.371291 C407,307.270738 406.268502,308 405.366296,308" id="Fill-3" fill="#000000"></path>
                            <path d="M400.36669,304 L40.6333097,304 C39.7313219,304 39,303.269094 39,302.36762 L39,37.6323805 C39,36.73018 39.7313219,36 40.6333097,36 L400.36669,36 C401.268678,36 402,36.73018 402,37.6323805 L402,302.36762 C402,303.269094 401.268678,304 400.36669,304" id="Fill-5" fill="#D3D3D3"></path>
                            <path d="M434,174 C434,180.074573 429.075296,185 422.999277,185 C416.924704,185 412,180.074573 412,174 C412,167.925427 416.924704,163 422.999277,163 C429.075296,163 434,167.925427 434,174" id="Fill-7" fill="#1C1C1C"></path>
                            <path d="M402,51 L39,51 L39,37.6165519 C39,36.724322 39.7480254,36 40.6710741,36 L400.328926,36 C401.252701,36 402,36.724322 402,37.6165519 L402,51 Z" id="Fill-9" fill="#FFFFFF"></path>
                            <mask id="mask-2" fill="white">
                                <use xlink:href="#path-1"></use>
                            </mask>
                            <g id="Clip-12"></g>
                            <polygon id="Fill-11" fill="#FFFFFF" mask="url(#mask-2)" points="39 230 65 230 65 111 39 111"></polygon>
                            <polygon id="Fill-13" fill="#4C4C4C" mask="url(#mask-2)" points="39 140 42 140 42 125 39 125"></polygon>
                            <polygon id="Fill-14" fill="#4C4C4C" mask="url(#mask-2)" points="39 165 42 165 42 150 39 150"></polygon>
                            <polygon id="Fill-15" fill="#4C4C4C" mask="url(#mask-2)" points="39 190 42 190 42 175 39 175"></polygon>
                            <polygon id="Fill-16" fill="#4C4C4C" mask="url(#mask-2)" points="39 216 42 216 42 201 39 201"></polygon>
                            <polygon id="Fill-17" fill="#FFFFFF" mask="url(#mask-2)" points="121 292 337 292 337 65 121 65"></polygon>
                            <path d="M42,132 L58,132" id="Stroke-18" stroke="#000000" stroke-width="2" mask="url(#mask-2)"></path>
                            <path d="M58.0077771,155.458 C58.0397771,155.495 58.0287771,155.076 58.0327771,155 C57.9787771,155.093 58.0077771,155.567 58.0077771,155.458" id="Fill-19" fill="#202020" mask="url(#mask-2)"></path>
                            <polygon id="Fill-20" fill="#202020" mask="url(#mask-2)" points="58.07 156.171 58.08 156 58 156.419"></polygon>
                            <path d="M57,156.273 C57.047,156.987 57.184,156.158 57.273,156.411 L57.289,156.575 L57.329,156 C57.219,156.091 57.076,156.472 57,156.273" id="Fill-21" fill="#202020" mask="url(#mask-2)"></path>
                            <path d="M57.0080182,155 C57.0250182,155.277 56.9490182,155.238 57.0710182,155.086 C57.0650182,155.056 57.0640182,155.039 57.0600182,155.016 C57.0480182,155.02 57.0330182,155.019 57.0080182,155" id="Fill-22" fill="#202020" mask="url(#mask-2)"></path>
                            <path d="M57.0084893,155.108145 C57.0614893,155.088145 56.9734893,154.875145 57.0084893,155.108145" id="Fill-23" fill="#202020" mask="url(#mask-2)"></path>
                            <path d="M57.03475,155.569 L57.10475,155.321 C57.08975,155.157 57.02675,155.12 57.05075,155 C56.97775,155.136 56.99375,155.299 57.03475,155.569" id="Fill-24" fill="#202020" mask="url(#mask-2)"></path>
                            <path d="M57,156.154395 L57.036,156.050395 C57.03,155.981395 57.021,155.956395 57,156.154395" id="Fill-25" fill="#202020" mask="url(#mask-2)"></path>
                            <path d="M57.078,155 L57,155.222 C57.011,155.336 57.012,155.568 57.036,155.142 C57.029,155.353 57.045,155.149 57.078,155" id="Fill-26" fill="#202020" mask="url(#mask-2)"></path>
                            <path d="M57,156.013105 C57.039,156.169105 57.091,156.266105 57.02,156.513105 C57.154,156.415105 57.135,155.913105 57,156.013105" id="Fill-27" fill="#202020" mask="url(#mask-2)"></path>
                            <path d="M57.0000842,157.083299 L57.0530842,157.292299 L57.0990842,157.053299 C57.0750842,157.171299 56.9970842,156.859299 57.0000842,157.083299" id="Fill-28" fill="#202020" mask="url(#mask-2)"></path>
                            <path d="M57.0005952,155 C56.9955952,155.152 57.0235952,155.405 57.0285952,155.6 L57.0815952,155.425 C57.0545952,155.321 57.0035952,155.225 57.0005952,155" id="Fill-29" fill="#202020" mask="url(#mask-2)"></path>
                            <path d="M57.077,156 L57,156.26 C57.069,156.291 57.082,156.167 57.077,156" id="Fill-30" fill="#202020" mask="url(#mask-2)"></path>
                            <polygon id="Fill-31" fill="#202020" mask="url(#mask-2)" points="57.024 156.547 57.152 156 57 156.555"></polygon>
                            <polygon id="Fill-32" fill="#202020" mask="url(#mask-2)" points="56.034 155.352 56.078 155 56 155.532"></polygon>
                            <path d="M56.15,155.672 C56.182,155.38 56.105,155.179 56.139,155 C56.086,155.052 56.041,155.302 56,155.527 C56.043,155.401 56.089,155.434 56.15,155.672" id="Fill-33" fill="#202020" mask="url(#mask-2)"></path>
                            <path d="M56,155.327 C56.022,155.258 56.044,155.133 56.069,155 C56.046,155.067 56.022,155.164 56,155.327" id="Fill-34" fill="#202020" mask="url(#mask-2)"></path>
                            <path d="M56.062,155.434 C56.056,155.342 56.044,155.102 56,155 L56.031,155.428 C56.041,155.43 56.05,155.432 56.062,155.434" id="Fill-35" fill="#202020" mask="url(#mask-2)"></path>
                            <path d="M56.068,156.038 L56.066,156.024 C56.033,156.015 56.009,156.005 56,156 C56.009,156.004 56.029,156.016 56.068,156.038" id="Fill-36" fill="#202020" mask="url(#mask-2)"></path>
                            <path d="M56.008,156.002 C56.004,156.001 56.002,156 56,156 C56.002,156.043 56.004,156.056 56.008,156.002" id="Fill-37" fill="#202020" mask="url(#mask-2)"></path>
                            <path d="M57.087689,156 C57.041689,156.239 56.946689,156.495 57.038689,156.859 C57.071689,156.567 57.019689,156.359 57.087689,156" id="Fill-38" fill="#202020" mask="url(#mask-2)"></path>
                            <path d="M57,156.298 L57.083,156.396 C57.081,156.283 57.066,156.118 57.089,156 L57,156.298 Z" id="Fill-39" fill="#202020" mask="url(#mask-2)"></path>
                            <polygon id="Fill-40" fill="#202020" mask="url(#mask-2)" points="56 156.172 56.04 156.036 56.01 156"></polygon>
                            <path d="M56.119,156.000756 C56.083,156.186756 56.045,156.202756 56,156.231756 C56.047,156.315756 56.096,156.361756 56.142,156.359756 C56.148,156.226756 56.17,155.984756 56.119,156.000756" id="Fill-41" fill="#202020" mask="url(#mask-2)"></path>
                            <path d="M56.009,156 C56.006,156.01 56.003,156.014 56,156.024 C56.005,156.061 56.009,156.072 56.009,156" id="Fill-42" fill="#202020" mask="url(#mask-2)"></path>
                            <path d="M56,156 C56.002,156.023 56.005,156.053 56.008,156.078 C56.008,156.053 56.008,156.029 56.009,156.004 L56,156 Z" id="Fill-43" fill="#202020" mask="url(#mask-2)"></path>
                            <path d="M56.0099514,156.153 C56.0449514,156.236 56.0669514,156.131 56.0869514,156 C56.0609514,156.042 56.0319514,156.07 56.0019514,156.073 C55.9989514,156.134 55.9979514,156.174 56.0099514,156.153" id="Fill-44" fill="#202020" mask="url(#mask-2)"></path>
                            <path d="M56,155.031155 C56.019,155.121155 56.04,155.197155 56.062,155.266155 C56.044,155.131155 56.007,154.920155 56,155.031155" id="Fill-45" fill="#202020" mask="url(#mask-2)"></path>
                            <path d="M56.0039256,155.070349 C56.0059256,155.064349 56.0069256,155.056349 56.0089256,155.051349 C55.9969256,154.960349 55.9989256,155.005349 56.0039256,155.070349" id="Fill-46" fill="#202020" mask="url(#mask-2)"></path>
                            <path d="M56.047,156 C56.028,156.062 56.015,156.167 56,156.262 C56.022,156.228 56.042,156.182 56.059,156.119 C56.054,156.088 56.05,156.042 56.047,156" id="Fill-47" fill="#202020" mask="url(#mask-2)"></path>
                            <path d="M56.0910193,158 C56.0970193,157.702926 56.1910193,157.428357 56.2710193,157.747187 C56.3500193,157.524381 56.2980193,156.546887 56.2300193,156 C56.2270193,156.129782 56.2270193,156.249812 56.1460193,156.425356 C56.1730193,156.587397 56.3250193,156.804951 56.2570193,157.073518 C56.1500193,157.226557 56.1690193,156.968492 56.1160193,156.811703 C56.1610193,157.181545 55.9790193,157.350338 56.0020193,157.894224 L56.0970193,157.702926 C56.0990193,157.787697 56.0640193,157.922731 56.0910193,158" id="Fill-48" fill="#202020" mask="url(#mask-2)"></path>
                            <path d="M56.153,155.587 L56.187,155.538 C56.149,155.469 56.122,155.311 56.071,155 C56.015,155.194 56.004,155.341 56,155.473 L56.165,155.528 L56.153,155.587 Z" id="Fill-49" fill="#202020" mask="url(#mask-2)"></path>
                            <path d="M56.15,156.194486 C56.124,156.515648 56.044,156.652012 56.092,157 C56.191,156.977645 56.162,156.731744 56.22,156.592399 C56.061,156.672131 56.266,156.412817 56.151,156.230999 C56.182,156.176602 56.211,156.160209 56.237,156.146796 C56.209,156.108048 56.18,156.058867 56.155,156 C56.157,156.007452 56.157,156.012668 56.159,156.020119 L56.159,156.019374 L56.159,156.023845 C56.167,156.064083 56.169,156.087928 56.161,156.065574 C56.16,156.0693 56.159,156.070045 56.157,156.071535 C56.157,156.116244 56.153,156.154993 56.15,156.192996 C56.104,156.126677 56.143,156.109538 56.157,156.071535 C56.158,156.055142 56.159,156.040238 56.159,156.023845 L56.159,156.020119 L56,156.195231 C56.034,156.240686 56.075,156.230999 56.15,156.194486" id="Fill-50" fill="#202020" mask="url(#mask-2)"></path>
                            <path d="M57.014128,157.1 C57.009128,157.062 57.009128,157.031 57.009128,157 C56.998128,157.053 56.994128,157.089 57.014128,157.1" id="Fill-51" fill="#202020" mask="url(#mask-2)"></path>
                            <path d="M57.0791673,156.86722 C57.0911673,156.817427 57.1001673,156.674689 57.1381673,156.711203 C57.1711673,156.818257 57.1381673,156.882988 57.1401673,157 C57.1621673,156.905394 57.2191673,156.743568 57.1471673,156.569295 L57.1361673,156.618257 C57.0721673,156.495436 56.9891673,156.049793 57.0011673,156 C57.0201673,156.321992 57.0361673,156.551037 57.0791673,156.86722" id="Fill-52" fill="#202020" mask="url(#mask-2)"></path>
                            <path d="M56.133,157 L56,157.211 L56.068,157.584 L56.065,157.36 C56.14,157.448 56.123,157.172 56.133,157" id="Fill-53" fill="#202020" mask="url(#mask-2)"></path>
                            <polygon id="Fill-54" fill="#202020" mask="url(#mask-2)" points="56.059 155.455 56.077 155 56 155.643"></polygon>
                            <polygon id="Fill-55" fill="#202020" mask="url(#mask-2)" points="56.039 155.395 56.046 155 56 155.238"></polygon>
                            <path d="M49.038,159 L49,159.112 C49.017,159.078 49.029,159.04 49.038,159" id="Fill-56" fill="#202020" mask="url(#mask-2)"></path>
                            <path d="M49.0064864,159.195 L49.0134864,159 C49.0004864,159.107 48.9944864,159.187 49.0064864,159.195" id="Fill-57" fill="#202020" mask="url(#mask-2)"></path>
                            <path d="M53.1134036,155.660113 C53.0564036,155.290113 52.9944036,154.717113 53.0004036,155.162113 L53.0174036,155.596113 C53.0574036,155.518113 53.0884036,155.567113 53.1134036,155.660113" id="Fill-58" fill="#202020" mask="url(#mask-2)"></path>
                            <path d="M51,157.283 C51.006,157.325 51.011,157.37 51.017,157.414 C51.03,157.266 51.043,157.129 51.055,157 C51.038,157.089 51.02,157.183 51,157.283" id="Fill-59" fill="#202020" mask="url(#mask-2)"></path>
                            <path d="M50.075,159.28 L50,159 C50.017,159.097 50.041,159.191 50.075,159.28" id="Fill-60" fill="#202020" mask="url(#mask-2)"></path>
                            <path d="M47.045,159 L47,159.441 C47.07,159.439 47.039,159.217 47.045,159" id="Fill-61" fill="#202020" mask="url(#mask-2)"></path>
                            <path d="M54.122,155.262 C54.073,155.093 54.034,155.021 54,155 C54.059,155.249 54.106,155.623 54.122,155.262" id="Fill-62" fill="#202020" mask="url(#mask-2)"></path>
                            <path d="M49.034,156 C49.01,156.079 49,156.167 49,156.264 C49.025,156.189 49.039,156.106 49.034,156" id="Fill-63" fill="#202020" mask="url(#mask-2)"></path>
                            <path d="M54,155.18552 C54.009,155.22852 54.018,155.25052 54.025,155.28752 C54.062,155.21452 54.098,155.15652 54.142,155.18452 C54.098,154.99852 54.048,154.88452 54,155.18552" id="Fill-64" fill="#202020" mask="url(#mask-2)"></path>
                            <path d="M43.0141086,159.052 C43.0091086,159.033 43.0041086,159.023 43.0001086,159 C42.9991086,159.059 43.0051086,159.062 43.0141086,159.052" id="Fill-65" fill="#202020" mask="url(#mask-2)"></path>
                            <path d="M42,156.052129 C42.017,156.025129 42.042,156.024129 42.067,156.018129 C42.056,155.989129 42.034,155.991129 42,156.052129" id="Fill-66" fill="#202020" mask="url(#mask-2)"></path>
                            <path d="M55,155.028978 C55.037,155.000978 55.006,154.980978 55,155.028978" id="Fill-67" fill="#202020" mask="url(#mask-2)"></path>
                            <path d="M55.014,157 C55.006,157.048 55,157.111 55,157.211 C55.002,157.107 55.008,157.041 55.014,157" id="Fill-68" fill="#202020" mask="url(#mask-2)"></path>
                            <path d="M54.004,157.001 C54.002,157.001 54.002,157 54,157 C54.012,157.084 54.01,157.068 54.004,157.001" id="Fill-69" fill="#202020" mask="url(#mask-2)"></path>
                            <path d="M55.047,155.129 C55.033,155.076 55.017,155.031 55,155 C55.008,155.034 55.023,155.076 55.047,155.129" id="Fill-70" fill="#202020" mask="url(#mask-2)"></path>
                            <path d="M55,155.039128 C55.012,155.059128 55.021,155.069128 55.031,155.081128 C55.035,155.009128 55.031,154.963128 55,155.039128" id="Fill-71" fill="#202020" mask="url(#mask-2)"></path>
                            <path d="M55,155.023 C55.021,155.016 55.041,155.036 55.06,155.068 C55.053,155.038 55.049,155.014 55.051,155 C55.041,155.006 55.025,155.015 55,155.023" id="Fill-72" fill="#202020" mask="url(#mask-2)"></path>
                            <path d="M46.0295404,158.041 C46.0265404,158.028 46.0235404,158.019 46.0215404,158 C45.9845404,158.181 46.0005404,158.152 46.0295404,158.041" id="Fill-73" fill="#202020" mask="url(#mask-2)"></path>
                            <path d="M52.001,159.037 C52.002,159.033 52.004,159.021 52.005,159.016 C52.004,159.012 52.001,159.006 52,159 L52.001,159.037 Z" id="Fill-74" fill="#202020" mask="url(#mask-2)"></path>
                            <path d="M52,159 C52.057,158.664596 52.088,158.70559 52.131,158.777019 L52.087,158 L52,159 Z" id="Fill-75" fill="#202020" mask="url(#mask-2)"></path>
                            <path d="M45.4349054,155.969812 L45.452065,156.0575 C45.4125233,156.154236 45.4229683,156.066547 45.4349054,155.969812 M55.3367439,155.837583 C55.3464428,155.790955 55.3456968,155.744327 55.3419664,155.697003 C55.3359979,155.781908 55.3143618,155.788171 55.2912337,155.764509 C55.2979483,155.852198 55.3098854,155.912745 55.3367439,155.837583 M55.2442313,155.692132 C55.2442313,155.697003 55.2427391,155.701179 55.2427391,155.708138 C55.197975,155.577302 55.2136424,155.629497 55.2442313,155.692132 M50.8946443,158.029794 C50.8797229,158.140448 50.8573408,158.085469 50.8304823,157.958112 C50.8498801,157.93097 50.8707701,157.942801 50.8946443,158.029794 M49.3331202,158.83778 C49.3122302,158.90807 49.2734346,159.125899 49.2585132,158.927557 C49.2808953,158.542702 49.299547,158.72643 49.3331202,158.83778 M48.305782,159.054914 L48.3736744,159.32633 C48.2908606,159.772428 48.2311751,159.618625 48.2953371,160 C48.305782,159.054914 48.5624301,159.903264 48.572129,158.958874 L48.6176392,159.157913 C48.60421,159.148169 48.6027178,159.203845 48.5900346,159.194797 C48.6780709,159.647158 48.6549427,158.511384 48.7690914,158.645701 C48.807887,158.718079 48.8362377,158.855179 48.8086331,158.967921 L48.8974154,158.734085 C48.9235278,158.75218 48.9168132,158.916421 48.8914468,158.898327 L49.0249933,158.823166 L49.0249933,158.850307 C49.0443912,158.702768 49.0876632,158.473108 49.1085532,158.375676 C49.1428724,158.511384 49.0906475,158.475891 49.0996003,158.593505 L49.1749534,158.364541 C49.2047962,158.610208 49.1436184,158.847523 49.0913936,158.81203 C49.160778,159.755725 49.1533173,158.574715 49.3040234,159.125899 L49.2338929,159.245601 C49.2786571,159.781475 49.3338662,159.587308 49.4129496,159.921359 C49.3942979,159.747374 49.2540368,159.079271 49.3346123,158.844044 C49.3577405,158.91503 49.3875833,158.949131 49.4308553,158.759139 C49.4316014,159.095278 49.4741274,159.012461 49.5270983,158.992975 L49.523368,159.438376 C49.5815614,159.310323 49.577085,159.083447 49.6114042,158.883016 C49.6755662,158.926861 49.6882494,159.272047 49.7031708,159.562254 C49.8061284,159.63324 49.6322942,159.009677 49.7539035,158.925469 C49.8397016,159.095974 49.8993872,158.913638 50.0015987,158.647093 C50.0612843,158.800895 49.9911537,158.919901 50.0127898,159.047258 L50.0657607,158.692329 C50.07919,158.70068 50.0747136,158.809943 50.0724754,158.864922 C50.1164935,158.72643 50.0762057,158.41952 50.1455902,158.299123 C50.164988,157.808485 50.2903277,159.015245 50.3776179,158.458493 C50.3992539,158.585154 50.3671729,158.731301 50.3738876,158.903895 C50.4925127,158.538526 50.4760991,158.638045 50.5745803,158.146016 L50.6573941,158.438311 C50.5962164,158.10426 50.6745537,157.708966 50.7431921,157.383962 C50.7215561,157.222504 50.7029043,157.081228 50.6909672,157.013722 L50.7998934,156.775014 C50.8133227,156.848088 50.8013856,157.001195 50.784226,157.187011 C50.7916867,157.150126 50.7984013,157.113937 50.8043698,157.080532 C50.8439115,157.244774 50.8237677,157.501576 50.795417,157.750722 C50.7812417,157.663034 50.7678124,157.569082 50.7558753,157.475826 C50.7290168,157.74585 50.7036504,158.045801 50.7081268,158.306082 C50.7155875,158.255279 50.7305089,158.210738 50.7446843,158.18638 C50.7372236,158.259454 50.7334932,158.324873 50.7357314,158.369413 C50.7402078,158.416737 50.752145,158.317913 50.7693046,158.204475 L50.7946709,158.70068 L50.7998934,158.503729 L50.9438849,158.814118 C51.0460965,158.314433 51.1356248,157.578825 51.2982681,157.374219 C51.2579803,157.738195 51.2900613,157.968551 51.287077,158.400034 C51.2430589,157.942801 51.1617373,158.593505 51.0766853,158.500945 C51.1207034,158.548965 51.1110045,158.754963 51.1005596,158.825949 L51.2505196,158.411169 C51.2475353,158.764011 51.2826006,158.675626 51.3221423,158.821078 C51.2922995,158.124442 51.4340528,158.356886 51.4952305,158.143232 C51.4989608,158.377068 51.4840394,158.616471 51.4094325,158.559404 C51.4922462,159.084839 51.5153744,157.740979 51.597442,158.187076 C51.5780442,158.192644 51.5690914,158.157151 51.5616307,158.276157 C51.6049027,158.068071 51.7078604,158.233008 51.6832401,158.436223 L51.6660805,158.441094 C51.7869438,158.523911 52.034639,158.446662 52.0517986,157.854417 C52.0532907,157.93097 52.0361311,158.567756 52.0286704,158.687457 L52.2450306,156.695677 C52.2256328,157.204409 52.2987477,158.414649 52.1980282,158.702768 C52.227125,158.775146 52.2629363,158.859354 52.323368,158.679802 C52.3039702,158.607424 52.2748734,157.944889 52.3009859,157.898261 C52.3755929,158.46406 52.3524647,158.200995 52.4442313,158.683282 C52.4136424,158.574715 52.4464695,157.777168 52.4934719,157.802918 C52.4860112,157.921923 52.4979483,158.58933 52.4800426,158.672842 L52.5964295,157.88991 C52.5680789,158.03049 52.591207,158.553141 52.6173195,158.775146 C52.6046363,158.621343 52.7180389,158.789064 52.7486278,158.711119 L52.6986411,158.529479 C52.8299494,158.648485 52.8284572,157.429198 52.9582734,157.470258 C52.9426059,157.631716 52.9187317,158.465452 52.9851319,158.56358 C53.0149747,158.162718 53.1194245,156.635826 53.2343192,156.327525 L53.2559552,156.556489 L53.3447375,156.295512 C53.2887823,156.898196 53.135838,158.16759 53.0515321,158.661707 C53.1000266,158.842652 53.0649614,158.931732 53.1380762,158.910854 C53.1641886,159.125899 53.0977884,159.236554 53.0761524,159.249081 L53.2477485,159.388269 C53.2395417,158.919901 53.3775646,158.918509 53.3723421,158.528783 L53.1865707,159.013853 C53.178364,158.546877 53.2932587,157.686 53.414122,157.768121 C53.4447109,157.954632 53.3909939,158.601161 53.3939782,158.757051 C53.4096456,158.596289 53.5088729,158.449446 53.5200639,158.56358 L53.4685851,158.814118 C53.5357314,158.989495 53.5782574,158.194036 53.6588329,158.640133 C53.6871836,158.670059 53.7431388,159.242817 53.7483613,158.965833 C53.702105,158.432047 53.6924061,156.780582 53.7229949,156.37972 C53.7334399,156.415909 53.8707168,156.889844 53.9027978,157.153606 C53.947562,157.572561 53.8326672,158.151583 53.8722089,158.510688 C53.8744471,158.383331 53.8998135,158.225353 53.9095124,158.174549 C53.9386091,158.283812 53.8983213,158.570539 53.9617373,158.512776 C53.9721823,158.038841 54.0915534,158.552445 53.9915801,158.111915 C54.0542499,157.976207 54.0587264,158.210042 54.1310951,158.188468 C54.107967,157.882255 54.1967493,157.14595 54.2594191,157.010242 C54.2556888,157.13064 54.2698641,157.287922 54.2773248,157.359604 C54.4041567,157.402752 54.4727951,157.617798 54.5914202,157.621973 C54.6033573,157.736803 54.6600586,157.875991 54.6361844,158.079902 C54.6525979,157.996389 54.6690115,157.834931 54.7055689,157.823796 C54.7764455,158.233704 54.6235012,157.887126 54.6779643,158.380548 C54.6831868,158.104955 54.7734612,157.999869 54.8256861,157.827971 C54.8092726,157.402056 54.7048228,157.74585 54.6518519,157.918444 C54.6518519,157.33107 54.7436184,156.715859 54.8682121,156.444443 C54.9666933,156.298295 54.9107381,156.82373 54.9286438,156.740217 C55.1136691,156.843216 55.0868106,155.715098 55.241247,156.138925 C55.3024247,156.512645 55.2427391,156.882885 55.2576605,157.15291 C55.1763389,157.294881 55.1338129,156.915594 55.0786038,156.930209 L55.1457501,157.107674 C55.1203837,157.232247 55.0666667,157.326199 55.0375699,157.218328 C55.0883027,157.553771 55.3509193,157.282354 55.4949107,157.592744 C55.5202771,157.467474 55.5642952,157.337334 55.5434053,157.187011 L55.497895,157.239206 C55.4561151,156.937864 55.583693,156.822338 55.5254996,156.681062 C55.5866773,156.468801 55.6553157,156.135445 55.7411138,156.305951 L55.7575273,156.732562 C55.7552891,156.607989 55.700826,156.478544 55.6776978,156.608685 C55.7120171,156.419389 55.8082601,157.186315 55.8478018,156.627475 L55.7873701,156.332396 C55.8485478,156.117351 55.9246469,155.664294 56,155.799306 C55.9656808,155.377567 55.9828404,155.847326 55.9283773,155.354601 C55.9753797,155.967724 55.7343991,155.328851 55.8097522,155.972595 C55.754543,155.401229 55.7135092,155.730408 55.6411404,155.242554 C55.6441247,155.383134 55.6672529,155.511883 55.6030909,155.442289 C55.6001066,155.48335 55.5926459,155.535545 55.5889155,155.566166 C55.5866773,155.562687 55.5859313,155.560599 55.5844391,155.555727 C55.5851852,155.561295 55.5866773,155.567558 55.5881695,155.57243 C55.5851852,155.593308 55.5851852,155.59818 55.5896616,155.577997 C55.604583,155.639936 55.6172662,155.713706 55.6217426,155.792347 C55.5896616,156.115263 55.4896882,156.10552 55.454623,156.272546 C55.4165734,156.205735 55.4702904,156.111087 55.4501465,155.960764 L55.3986677,156.211303 C55.3934452,155.898826 55.2986944,155.692132 55.3874767,155.508403 L55.3069011,155.494485 C55.2598987,155.319108 55.1949907,155.249514 55.1539568,155.381046 C55.1166533,155.31354 55.059206,155.726929 55.091287,155.482654 L54.9659472,155.676125 L54.9644551,155.59818 C54.8406075,155.558511 54.7100453,156.115959 54.5667999,155.551552 C54.5257661,155.630193 54.482494,155.726929 54.4123634,155.637848 L54.3989342,155.367824 C54.3452172,155.461775 54.2377831,155.097103 54.2146549,155.378959 C54.1557154,154.651005 53.9535305,155.219588 53.8595257,155.090839 L53.8557954,155.444377 C53.7908873,155.424195 53.7289635,155.52441 53.6476419,155.665686 L53.6536104,155.978163 C53.5834799,156.233573 53.4738076,155.756158 53.3641354,155.788171 C53.3723421,155.66847 53.3999467,155.699787 53.4193445,155.772165 C53.2872902,155.067178 53.1418066,156.284377 53.0224354,155.770773 C52.9933387,155.884907 52.9717026,155.845934 52.9508127,155.767989 C52.953797,155.766597 52.9560352,155.76103 52.9582734,155.751287 C52.9552891,155.747807 52.9508127,155.747111 52.9455902,155.747111 C52.932907,155.693523 52.9187317,155.631585 52.9045564,155.581477 C52.9172395,155.657335 52.9291767,155.719969 52.9396216,155.748503 C52.9157474,155.754766 52.8814282,155.793739 52.847855,155.871684 L52.8329337,155.536937 C52.8299494,155.541113 52.8284572,155.540417 52.825473,155.54668 C52.7918998,155.422803 52.7978684,155.705354 52.8165201,155.957285 C52.7993605,156.012264 52.783693,156.078378 52.7717559,156.159107 C52.7441513,155.618362 52.6814815,156.341444 52.6449241,155.764509 C52.6217959,156.045669 52.4740741,155.976075 52.4554223,156.56832 C52.4539302,156.491071 52.4442313,156.454186 52.462883,156.449314 C52.4248335,156.381808 52.3867839,156.314998 52.3524647,156.481328 L52.3367972,156.055412 L52.2539835,156.628171 C52.2032507,156.368585 52.1831068,156.217566 52.2323475,155.889779 C52.1114841,156.394335 52.1346123,156.07977 52.0316547,156.579455 L52.0376232,156.303863 C52.0003197,156.314998 51.9413802,156.683846 51.9189981,156.456274 C51.8376765,155.932231 51.5123901,156.383896 51.3019984,155.896738 C51.3437783,156.708204 51.2035172,155.533457 51.1968026,156.161891 C51.1833733,155.970508 51.1542766,155.861941 51.1885958,155.695611 C51.0811617,155.883515 51.0266986,155.39079 50.9528377,155.921096 C50.9401545,155.72832 50.9759659,155.639936 50.9647748,155.525802 C50.955822,155.567558 50.9304556,155.692828 50.9200107,155.577997 C50.9080735,155.463863 50.9349321,155.417235 50.9520917,155.333723 C50.8424194,155.365736 50.8304823,155.957285 50.8237677,156.511949 C50.7670663,156.24958 50.7394618,156.286464 50.6999201,156.650441 C50.6797762,156.468801 50.6469491,156.278809 50.7155875,156.214087 C50.677538,156.186945 50.4813216,155.947542 50.4775913,156.392247 C50.4649081,156.279505 50.4238742,156.359538 50.4141753,156.411038 C50.3276312,156.384592 50.3201705,156.344227 50.2351186,156.38668 L50.2589928,156.459057 C50.2254197,156.995627 50.1881162,156.578759 50.1194778,156.643482 L50.122462,156.588502 C49.9650413,156.20156 50.0538236,156.773622 49.9001332,156.3317 L49.90834,156.665752 C49.8941647,157.383962 49.7710631,156.24262 49.6822808,156.51682 L49.7143618,156.707508 C49.6658673,156.953175 49.5778311,155.731104 49.5285905,155.641328 C49.5181455,155.578693 49.5457501,155.541113 49.5599254,155.495181 C49.4316014,155.071353 49.5442579,155.932231 49.4480149,156.033838 C49.4301092,155.797914 49.4711431,155.433938 49.406235,155.390094 C49.374154,155.199406 49.2189715,156.156324 49.1316813,155.703963 C49.1503331,155.885603 49.1697309,156.066547 49.1257128,156.202952 C49.0570743,156.26837 48.9406875,155.516755 48.8795097,156.089513 C48.8705569,156.040102 48.8675726,155.992082 48.8668265,155.946846 C48.8146017,156.095081 48.6974687,156.192512 48.6661338,156.503598 C48.6176392,155.350425 48.3415934,157.063829 48.3430855,156.000433 L48.1826805,156.0575 L48.1864109,155.948933 C48.0841993,155.878644 48.0476419,156.133358 48.0118305,156.388768 C47.9879563,156.31639 48.0051159,156.21687 48.0073541,156.161195 C47.8573941,155.946846 47.8424727,155.992082 47.717133,156.522388 L47.7037037,156.177202 C47.6701306,156.377632 47.4873435,155.636456 47.3403677,156.03871 C47.3418598,155.999041 47.3455902,155.932231 47.3567812,155.883515 C47.1911537,156.288552 46.9606182,154.927294 46.9001865,156.183465 L46.7905143,156.492463 C46.9322675,156.59059 46.7696243,157.03808 46.8278177,157.246166 C46.7726086,157.319935 46.6845723,156.867574 46.7524647,156.802852 L46.7636557,156.866182 C46.788276,156.211303 46.5875833,156.633738 46.5920597,156.187641 C46.3137756,156.22035 46.0429523,155.857765 45.78332,155.829928 L45.8131628,156.33866 L45.7221423,156.30943 C45.6990141,156.191121 45.6900613,155.911353 45.7549694,155.932231 C45.7206501,155.644112 45.6460432,156.174418 45.644551,156.284377 C45.5177192,156.078378 45.6945377,155.691436 45.654996,155.678909 L45.6027711,155.71649 L45.6139622,155.77634 C45.5721823,155.984426 45.5677058,156.205039 45.4901146,156.179986 C45.440874,156.077682 45.4640021,155.866117 45.4453504,155.84663 C45.4453504,155.809745 45.4386358,155.793043 45.4155076,155.83132 L45.3006128,155.788171 L45.3468692,156.189729 C45.2961364,156.388072 45.2394351,156.16885 45.2924061,156.623995 C45.2148148,155.921792 44.8649081,156.372065 44.8179057,156.154236 C44.747029,156.447226 44.6768985,156.441659 44.5896083,156.406166 C44.6112443,156.490375 44.6246736,156.94204 44.5493205,156.887061 C44.5769251,155.954501 44.4127898,156.482023 44.3523581,155.811137 C44.4060751,156.256539 44.1397282,155.921096 44.2240341,156.553009 C44.1613642,156.477152 44.2203038,156.203647 44.1733014,155.984426 C44.0240874,156.345619 43.8450306,155.749895 43.6614975,155.871684 C43.6585132,155.99417 43.6891021,156.181377 43.6495604,156.363018 L43.5533173,155.751287 C43.5167599,155.811137 43.5197442,156.457666 43.453344,156.033142 C43.4615508,156.136141 43.4764722,156.29064 43.4518519,156.330309 C43.0915001,155.733888 42.7154809,156.818858 42.3506528,155.698395 C42.4006395,155.935711 42.3678124,155.958677 42.3297629,155.967724 C42.3543832,156.024791 42.3290168,156.269762 42.3342393,156.436091 L42.181295,155.975379 C42.1529443,156.435396 42.0164135,156.006001 42,156.446531 L42.0484945,156.367193 C41.9843325,156.887061 42.138769,157.521758 42.1298161,158.188468 C42.2014388,157.597615 42.3200639,159.063265 42.438689,158.217698 C42.4655476,158.354102 42.416307,158.432743 42.4304823,158.587242 C42.4603251,158.301906 42.4968825,158.242056 42.5632827,158.370109 L42.555822,158.441094 C42.7453237,158.3715 42.8258993,158.65266 43.0377831,158.840564 L43.0221156,158.510688 C43.0676259,158.554533 43.0773248,158.658228 43.0989608,158.741045 C43.1504396,158.24136 42.9706368,158.712511 43.0183853,158.161327 C43.0788169,158.832213 43.3391953,158.171766 43.3802292,158.93382 C43.4503597,158.937996 43.3600853,158.552445 43.4294698,158.556621 L43.4488676,158.763315 L43.4660272,158.497466 C43.5122835,158.54131 43.5354117,158.798808 43.5369038,158.973489 C43.5257128,158.953306 43.5055689,159.022204 43.4936318,159.037515 C43.5533173,159.280398 43.6614975,158.954698 43.6816414,159.034035 L43.6152411,158.906678 C43.8054889,158.713903 44.0390088,158.984624 44.2240341,158.564972 L44.2098588,158.409777 C44.351612,158.121658 44.3232614,158.580282 44.4784439,158.447358 L44.4732214,158.484243 C44.5038103,158.329744 44.5448441,158.251103 44.5873701,158.269197 C44.5485745,158.450838 44.661231,158.622735 44.6104983,158.824557 C44.7634426,158.51556 44.6858513,158.581674 44.7865707,158.003348 L44.8096989,158.262238 C44.8447642,158.028402 44.8477485,157.905221 44.9245937,157.83841 C44.8604317,158.059719 44.9745803,158.231617 44.9029576,158.524607 C45.0648548,159.089015 45.1439382,157.954632 45.2185452,158.780017 C45.2938982,158.065983 45.077538,158.383331 45.1200639,158.230921 C45.0849987,157.997085 45.1812417,157.696439 45.2327205,157.768121 C45.2841993,157.784127 45.3207567,158.682586 45.4505729,158.668667 C45.4378897,158.665187 45.4371436,158.71947 45.4244604,158.715991 C45.472955,158.898327 45.5192113,158.469628 45.579643,158.765403 C45.6132161,158.333224 45.6579803,158.78976 45.6676792,158.239272 L45.5468159,158.366629 C45.6154543,158.222569 45.6788702,157.578129 45.7907807,157.890606 C45.7818279,158.00126 45.7490008,158.148104 45.7266187,158.229529 C45.7586997,158.391683 45.7892886,158.121658 45.8228617,158.288684 C45.8131628,158.840564 45.6773781,158.408385 45.6050093,158.828733 C45.6393285,159.061873 45.7422862,158.429959 45.7057288,159.027076 C45.7586997,158.267805 45.8340528,159.123116 45.9228351,158.542702 L45.9168665,158.872577 C45.9302958,158.821078 45.9593925,158.665187 45.9855049,158.673538 L45.9392486,159.101542 C46.0101252,158.736869 46.0765254,159.421674 46.1451639,159.222635 C46.0019185,159.232378 46.1130829,158.824557 46.0526512,158.583066 C46.2294698,158.14184 46.1548628,159.447424 46.3525713,159.288749 C46.3257128,159.335377 46.2525979,159.090406 46.2936318,158.9373 C46.3316813,159.005502 46.3824141,159.132163 46.4047962,159.306148 C46.5368505,159.23725 46.3846523,158.965833 46.4406075,158.762619 C46.4853717,159.165568 46.5055156,158.599073 46.562963,158.470324 L46.562963,158.806463 C46.712923,159.021508 46.6025047,158.106347 46.7375433,158.366629 L46.680842,158.832213 L46.7509726,158.711815 L46.7360512,159.093886 C46.8136424,158.810639 46.8367706,158.883712 46.9113776,158.990887 C46.894218,158.754963 46.9210765,158.38194 46.9882228,158.3715 C47.033733,158.570539 46.9628564,158.690241 47.0568612,158.642221 C47.0359712,158.852395 47.012097,159.116156 46.9710631,158.807159 C46.9673328,158.916421 46.9501732,159.017333 46.9456968,159.125899 C46.9949374,159.354864 47.0680522,159.178095 47.1023714,159.174615 C47.0896882,159.162088 47.0740208,159.143994 47.065814,159.09667 L47.2023448,158.631086 C47.2232347,158.757051 47.2068212,158.858658 47.1896616,158.958178 C47.2172662,158.921293 47.2359179,158.766794 47.2769518,158.738261 C47.2665068,159.011069 47.2694911,159.292925 47.2112976,159.420978 L47.3411138,159.118244 C47.3493205,159.23725 47.4082601,159.44464 47.3911005,159.544855 C47.4634692,159.705617 47.567919,159.015245 47.6626699,159.226811 C47.6686384,159.173919 47.6783373,159.123812 47.6984812,159.084839 C47.7880096,159.146082 47.8678391,159.480829 47.973781,159.107109 L48.0342126,159.596355 C48.1177724,159.485004 47.952891,158.979752 48.09166,158.795328 C48.1893952,158.638741 48.1274714,159.212892 48.1625366,159.3486 C48.2117772,159.102237 48.2968292,158.600465 48.3863576,158.998542 C48.3565148,159.090406 48.3333866,159.018029 48.305782,159.054914" id="Fill-76" fill="#202020" mask="url(#mask-2)"></path>
                            <path d="M50.0177128,158.262 C50.0097128,158.18 50.0077128,158.091 50.0057128,158 C49.9967128,158.081 49.9967128,158.175 50.0177128,158.262" id="Fill-77" fill="#202020" mask="url(#mask-2)"></path>
                            <path d="M48.009,159.006 C48.008,159.002 48.006,159.004 48.004,159 C48.002,159.029 48.001,159.059 48,159.088 L48.009,159.006 Z" id="Fill-78" fill="#202020" mask="url(#mask-2)"></path>
                            <path d="M54.049057,159.249 C54.024057,159.179 54.010057,159.092 54.000057,159 C53.999057,159.118 54.011057,159.218 54.049057,159.249" id="Fill-79" fill="#202020" mask="url(#mask-2)"></path>
                            <path d="M55.08,155 L55,155.125 C55.039,155.102 55.053,155.207 55.072,155.284 C55.07,155.171 55.055,155.008 55.08,155" id="Fill-80" fill="#202020" mask="url(#mask-2)"></path>
                            <path d="M56.0255547,157.291 C56.0375547,157.232 56.0485547,157.285 56.0605547,157.225 L56.0575547,157 C56.0075547,157.015 55.9745547,157.196 56.0255547,157.291" id="Fill-81" fill="#202020" mask="url(#mask-2)"></path>
                            <path d="M55,156.186254 C55.007,156.592254 55.056,156.454254 55.111,156.379254 C55.108,156.380254 55.104,156.384254 55.102,156.379254 C55.118,155.812254 55.059,155.999254 55,156.186254" id="Fill-82" fill="#202020" mask="url(#mask-2)"></path>
                            <path d="M56,156.121926 C56.018,156.102926 56.035,156.092926 56.051,156.111926 C56.058,155.884926 56.031,156.063926 56,156.121926" id="Fill-83" fill="#202020" mask="url(#mask-2)"></path>
                            <path d="M55.0522521,155.489723 C55.0772521,155.593723 55.0682521,154.970723 55.0832521,155.135723 C55.1132521,154.619723 54.9072521,155.760723 55.0522521,155.489723" id="Fill-84" fill="#202020" mask="url(#mask-2)"></path>
                            <polygon id="Fill-85" fill="#202020" mask="url(#mask-2)" points="55.052 157.501 55.031 157 55 157.404"></polygon>
                            <path d="M55.0000479,157.080086 L55.0890479,157.219086 C55.0880479,157.135086 55.1000479,157.086086 55.1130479,157.049086 C55.0590479,157.031086 54.9980479,156.932086 55.0000479,157.080086" id="Fill-86" fill="#202020" mask="url(#mask-2)"></path>
                            <path d="M55,157.083 C55.027,157.092 55.055,157.082 55.07,157 C55.056,157.004 55.022,157.021 55,157.083" id="Fill-87" fill="#202020" mask="url(#mask-2)"></path>
                            <polygon id="Fill-88" fill="#202020" mask="url(#mask-2)" points="55.089 157.141 55.063 157.037 55 157"></polygon>
                            <path d="M54.0987929,157 L54.0017929,157.143 C53.9927929,157.314 54.0187929,157.42 54.0547929,157.352 C54.0777929,157.232 54.1137929,157.166 54.0987929,157" id="Fill-89" fill="#202020" mask="url(#mask-2)"></path>
                            <path d="M55.045,158.381 C55.02,158.277 55.018,158.165 55.003,158 L55,158.621 L55.045,158.381 Z" id="Fill-90" fill="#202020" mask="url(#mask-2)"></path>
                            <path d="M54.0703467,158 C54.0603467,158.172 53.9293467,158.494 54.0523467,158.456 C54.0623467,158.285 54.1593467,158.142 54.0703467,158" id="Fill-91" fill="#202020" mask="url(#mask-2)"></path>
                            <polygon id="Fill-92" fill="#202020" mask="url(#mask-2)" points="53 158 53.024 157.992203 53.021 157"></polygon>
                            <path d="M53.0112206,159.781 C53.1262206,160.025 53.0382206,159.152 53.1422206,159.457 C53.1692206,159.216 53.0582206,159.208 53.0852206,159 C53.0162206,159.254 52.9802206,159.111 53.0112206,159.781" id="Fill-93" fill="#202020" mask="url(#mask-2)"></path>
                            <path d="M53,159.154 C53.012,159.114 53.023,159.065 53.035,159 C53.016,159.063 53.006,159.112 53,159.154" id="Fill-94" fill="#202020" mask="url(#mask-2)"></path>
                            <polygon id="Fill-95" fill="#202020" mask="url(#mask-2)" points="42.072 155.212 42 155 42.047 155.342"></polygon>
                            <path d="M42.062,156.649 L42.044,156 L42,156.587 C42.017,156.559 42.049,156.503 42.062,156.649" id="Fill-96" fill="#202020" mask="url(#mask-2)"></path>
                            <path d="M49.059,160.364 L49.065,160.208 C49.053,160.039 49.036,160.027 49,160 L49.059,160.364 Z" id="Fill-97" fill="#202020" mask="url(#mask-2)"></path>
                            <polygon id="Fill-98" fill="#202020" mask="url(#mask-2)" points="49.015 159.574 49.033 159.587 49 159"></polygon>
                            <path d="M48.0011822,160.322334 C48.0351822,160.347334 48.0761822,160.216334 48.1091822,160.241334 C48.0351822,160.347334 47.9921822,159.591334 48.0011822,160.322334" id="Fill-99" fill="#202020" mask="url(#mask-2)"></path>
                            <path d="M43.5112538,185.995765 C48.846876,185.990881 54.1853957,185.946929 59.5217423,185.999951 C60.2547928,186.007625 59.9679469,185.113234 59.8100369,184.821615 C59.5543384,184.349304 58.3620449,183.088644 57.7528597,183.071901 C52.3484234,182.924696 46.9266025,183.051669 41.5192688,183.03632 C40.6123724,183.03353 41.1230449,184.160937 41.3446985,184.44558 C41.8278454,185.065096 42.642024,185.996463 43.5112538,185.995765" id="Fill-100" fill="#000000" mask="url(#mask-2)"></path>
                            <path d="M43.7320944,183.888257 C49.1806424,183.995106 54.6284545,183.929229 60.0770026,183.999927 C60.5965427,184.006354 61.114611,183.589399 60.977735,182.95071 C60.8607281,182.409231 59.6803565,181.075617 59.1424191,181.074814 C53.7431759,181.06437 48.3454044,181.078027 42.9461612,181.000099 C42.440603,180.992869 41.9019297,181.380902 42.0152572,182.017984 C42.1094514,182.546609 43.2088748,183.877813 43.7320944,183.888257" id="Fill-101" fill="#000000" mask="url(#mask-2)"></path>
                            <path d="M44.7796284,184.978972 C50.0209886,184.990406 55.26519,184.949117 60.5058398,184.999935 C61.5087942,185.010098 60.7061466,183.82858 60.5150738,183.627849 C59.9212566,183.004058 59.0006979,182.101403 58.031128,182.056302 C55.4470287,181.937515 52.8281244,182.043597 50.2418943,182.043597 C47.6648981,182.042962 45.0893226,182.025176 42.5123264,182.006754 C41.5392049,182.000402 42.2132869,183.121574 42.4221173,183.361689 C42.9321182,183.950543 43.85978,184.977067 44.7796284,184.978972" id="Fill-102" fill="#000000" mask="url(#mask-2)"></path>
                            <path d="M46.2843464,187.975908 C51.6786681,187.987192 57.0744481,187.972146 62.4687698,187.999981 C63.8024025,188.006752 62.2193973,186.153832 62.0983568,186.018418 C61.216803,185.033655 59.8146294,183.334204 58.4430804,183.119798 C57.7890244,183.016733 57.0576775,183.096477 56.3948715,183.095724 C54.4283284,183.093468 52.4625145,183.090458 50.4959714,183.086697 C47.846206,183.082183 45.1964405,183.041559 42.5459458,183.000182 C41.2429378,182.979118 42.6618822,184.792166 42.812089,184.975727 C43.4719783,185.739314 44.1719714,186.461524 44.9120683,187.142357 C45.2788355,187.600509 45.7367476,187.878109 46.2843464,187.975908" id="Fill-103" fill="#000000" mask="url(#mask-2)"></path>
                            <path d="M46.5167646,185.968206 C51.8397065,185.987955 57.1640888,185.953394 62.4870306,185.999945 C63.6667058,186.010525 62.4639845,184.482812 62.3069826,184.310715 C61.5745469,183.511592 60.4078352,182.206053 59.242564,182.088971 C58.5756658,182.022671 57.8749186,182.073454 57.2036993,182.072748 C55.2620607,182.069927 53.3189816,182.068516 51.3766228,182.066401 C48.7601639,182.064285 46.1444251,182.032545 43.5294066,182.000101 C42.3814199,181.985995 43.4307402,183.455872 43.6129489,183.675225 C44.2078278,184.389005 45.4465587,185.963974 46.5167646,185.968206" id="Fill-104" fill="#000000" mask="url(#mask-2)"></path>
                            <path d="M42.0226915,183.999988 C47.4017686,183.975988 52.7801197,183.994341 58.1591967,183.998576 C59.5369953,183.999282 59.0462725,182.002395 57.943598,182.002395 C52.5746839,182.001689 47.2079476,181.987572 41.8397594,182.036982 C40.4989827,182.048982 40.9163874,184.005635 42.0226915,183.999988" id="Fill-105" fill="#000000" mask="url(#mask-2)"></path>
                            <path d="M41.6682416,185.838496 C47.1390871,186.000752 52.6047764,185.938594 58.0756219,185.999945 C58.5860966,186.005596 59.1090938,185.576949 58.9801861,184.948106 C58.8696937,184.413711 57.7323589,183.114856 57.2042054,183.114856 C51.7827131,183.110012 46.3656405,183.123735 40.9463581,183.000227 C40.4513523,182.988926 39.9084665,183.40062 40.0130659,184.020583 C40.1021964,184.546099 41.1526106,185.822351 41.6682416,185.838496" id="Fill-106" fill="#000000" mask="url(#mask-2)"></path>
                            <path d="M44.4150079,187.966157 C49.7716156,187.987004 55.128948,187.948905 60.484831,187.999943 C61.646601,188.010726 60.5036744,186.490361 60.338432,186.304898 C59.6274549,185.509132 58.4903263,184.218799 57.3488492,184.113128 C54.7491804,183.871595 52.0357263,184.092282 49.4295348,184.090125 C46.7965277,184.088688 44.1642453,184.057777 41.5319629,184.026867 C40.4028065,184.013208 41.3928114,185.471033 41.58342,185.705378 C42.1661168,186.42207 43.36195,187.962563 44.4150079,187.966157" id="Fill-107" fill="#000000" mask="url(#mask-2)"></path>
                            <path d="M46.4802107,183.997127 C51.8202976,183.989957 57.1611094,183.984221 62.5019212,183.999995 C63.4240758,184.002863 62.8238054,182.797561 62.6099409,182.540153 C62.0756422,181.894123 61.2520828,181.028686 60.3611017,181.02295 C55.0804619,180.986382 49.7990972,181.013629 44.5177324,181.000005 C43.6209516,180.997137 44.1146523,182.147229 44.3372163,182.439771 C44.8185926,183.072895 45.6182282,183.998561 46.4802107,183.997127" id="Fill-108" fill="#000000" mask="url(#mask-2)"></path>
                            <path d="M42.5949914,186.992577 C47.8963654,186.989899 53.2013366,186.947037 58.5019912,186.999944 C59.4588141,187.00932 58.7789662,185.832635 58.5753716,185.603593 C58.0142274,184.972054 57.1610004,184.117501 56.2351124,184.085355 C51.0099964,183.901853 45.7481902,184.074639 40.5173189,184.053208 C39.5885533,184.04919 40.1504169,185.162922 40.3683999,185.430807 C40.8590414,186.032879 41.7101101,186.992577 42.5949914,186.992577" id="Fill-109" fill="#000000" mask="url(#mask-2)"></path>
                            <path d="M44.5322619,182 C49.7479303,181.989489 54.9643077,181.975474 60.1799761,181.994744 C61.9324747,182.001168 60.4841112,180 59.4611114,180 C54.2759273,180.001752 49.0914522,179.999416 43.9062682,180.012263 C43.4454575,180.013431 42.9172975,180.315912 43.0108775,180.752117 C43.0902788,181.115328 44.0537277,182.000584 44.5322619,182" id="Fill-110" fill="#000000" mask="url(#mask-2)"></path>
                            <path d="M41.0814445,184.999991 C46.4410511,184.976037 51.8006576,184.995885 57.1602642,184.997254 C58.5996187,184.997938 57.9746929,183.002925 56.8846893,183.002925 C51.5352088,183.000871 46.1878983,182.988552 40.8384178,183.03646 C39.4345047,183.048779 39.9871011,185.004782 41.0814445,184.999991" id="Fill-111" fill="#000000" mask="url(#mask-2)"></path>
                            <polygon id="Fill-112" fill="#8399B1" mask="url(#mask-2)" points="42 215 59 215 59 210 42 210"></polygon>
                            <polygon id="Fill-113" fill="#C8D2D8" mask="url(#mask-2)" points="42 211 59 211 59 210 42 210"></polygon>
                            <polygon id="Fill-114" fill="#A0B3CA" mask="url(#mask-2)" points="42 210 59 210 59 201 42 201"></polygon>
                            <path d="M368.226557,48 L362.77418,48 C361.794508,48 361,47.2054918 361,46.2265574 L361,40.7741803 C361,39.7937705 361.794508,39 362.77418,39 L368.226557,39 C369.20623,39 370,39.7937705 370,40.7741803 L370,46.2265574 C370,47.2054918 369.20623,48 368.226557,48 Z" id="Stroke-115" stroke="#6582C4" stroke-width="3" mask="url(#mask-2)"></path>
                            <path d="M332,46.2265574 L332,40.7741803 C332,39.7945082 332.794508,39 333.77418,39 L339.226557,39 C340.20623,39 341,39.7945082 341,40.7741803 L341,46.2265574 C341,47.2062295 340.20623,48 339.226557,48 L333.77418,48 C332.794508,48 332,47.2062295 332,46.2265574 Z" id="Stroke-116" stroke="#6582C4" stroke-width="3" mask="url(#mask-2)"></path>
                            <path d="M301,46.2265574 L301,40.7741803 C301,39.7945082 301.79377,39 302.773443,39 L308.22582,39 C309.205492,39 310,39.7945082 310,40.7741803 L310,46.2265574 C310,47.2062295 309.205492,48 308.22582,48 L302.773443,48 C301.79377,48 301,47.2062295 301,46.2265574 Z" id="Stroke-117" stroke="#6582C4" stroke-width="3" mask="url(#mask-2)"></path>
                            <path d="M46,46.2265574 L46,40.7741803 C46,39.7945082 46.7720305,39 47.7248712,39 L77.2751288,39 C78.2279695,39 79,39.7945082 79,40.7741803 L79,46.2265574 C79,47.2062295 78.2279695,48 77.2751288,48 L47.7248712,48 C46.7720305,48 46,47.2062295 46,46.2265574 Z" id="Stroke-118" stroke="#6582C4" stroke-width="3" mask="url(#mask-2)"></path>
                            <path d="M191,136.679732 L191,151.310683 C191,152.796183 189.732702,154 188.167516,154 C186.602331,154 185.335033,152.796183 185.335033,151.310683 L185.335033,136.679732 C185.335033,133.182827 182.481428,129.962563 177.885652,128.28183 L177.163875,128.019598 L171.080845,125.800713 C164.248361,123.299425 160,118.162851 160,112.387267 L160,97.6893171 C160,96.2030966 161.274581,95 162.831755,95 C164.396941,95 165.664239,96.2030966 165.664239,97.6893171 L165.664239,112.387267 C165.664239,115.883451 168.525127,119.097232 173.120175,120.777965 L173.871085,121.053885 L179.918427,123.265565 C186.758922,125.767574 191,130.904148 191,136.679732" id="Fill-119" fill="#252525" mask="url(#mask-2)"></path>
                            <path d="M167.291795,135.582476 C166.554152,136.396371 165.674233,137.691808 165.674233,139.249435 L165.674233,152.242949 C165.674233,153.766602 164.404699,155 162.837482,155 C161.269534,155 160,153.766602 160,152.242949 L160,139.249435 C160,136.657822 161.04919,134.128249 163.035937,131.936198 C164.071264,130.792166 165.858827,130.681382 167.036429,131.688041 C168.214031,132.701348 168.327851,134.438444 167.291795,135.582476" id="Fill-120" fill="#252525" mask="url(#mask-2)"></path>
                            <path d="M191,97.4996608 C191,98.8807489 189.656681,100 188,100 C186.343319,100 185,98.8807489 185,97.4996608 C185,96.1192511 186.343319,95 188,95 C189.656681,95 191,96.1192511 191,97.4996608" id="Fill-121" fill="#2B61D8" mask="url(#mask-2)"></path>
                            <path d="M191,106.499661 C191,107.880749 189.656681,109 188,109 C186.343319,109 185,107.880749 185,106.499661 C185,105.119251 186.343319,104 188,104 C189.656681,104 191,105.119251 191,106.499661" id="Fill-122" fill="#FDBF41" mask="url(#mask-2)"></path>
                            <path d="M189,115.5 C189,116.880901 187.656681,118 186,118 C184.343319,118 183,116.880901 183,115.5 C183,114.119778 184.343319,113 186,113 C187.656681,113 189,114.119778 189,115.5" id="Fill-123" fill="#FA6660" mask="url(#mask-2)"></path>
                            <path d="M188.494287,98 L168.504975,98 C168.22591,98 168,97.7763158 168,97.5 C168,97.2236842 168.22591,97 168.504975,97 L188.494287,97 C188.773352,97 189,97.2236842 189,97.5 C189,97.7763158 188.773352,98 188.494287,98" id="Fill-124" fill="#2B61D8" mask="url(#mask-2)"></path>
                            <path d="M187.50929,107 L172.489993,107 C172.219208,107 172,106.776316 172,106.5 C172,106.223684 172.219208,106 172.489993,106 L187.50929,106 C187.780076,106 188,106.223684 188,106.5 C188,106.776316 187.780076,107 187.50929,107" id="Fill-125" fill="#FDBF41" mask="url(#mask-2)"></path>
                            <path d="M185.520457,116 L177.479543,116 C177.214919,116 177,115.776316 177,115.5 C177,115.223684 177.214919,115 177.479543,115 L185.520457,115 C185.785781,115 186,115.223684 186,115.5 C186,115.776316 185.785781,116 185.520457,116" id="Fill-126" fill="#FA6660" mask="url(#mask-2)"></path>
                            <polygon id="Fill-127" fill="#FDBF41" mask="url(#mask-2)" points="257 166.912036 253.780682 171 240 160.571565 240 124 245.254933 124 245.254933 158.03668"></polygon>
                            <polygon id="Fill-128" fill="#2B61D8" mask="url(#mask-2)" points="292 194.609502 292 233 286.703975 233 286.703975 197.128316 276 189.063648 279.245807 185"></polygon>
                            <polygon id="Fill-129" fill="#000000" mask="url(#mask-2)" points="251 219.180731 245.0342 219.180731 245.0342 224.840264 251 224.840264 251 228 236 228 236 224.840264 241.88215 224.840264 241.88215 219.180731 236 219.180731 236 216 251 216"></polygon>
                            <polygon id="Fill-130" fill="#000000" mask="url(#mask-2)" points="250 203 235 203 235 194.020295 238.152791 194.020295 238.152791 199.840202 241.008735 199.840202 241.008735 194.560575 243.94907 194.560575 243.94907 199.840202 246.826482 199.840202 246.826482 194 250 194"></polygon>
                            <polygon id="Fill-131" fill="#000000" mask="url(#mask-2)" points="282 159 297 159 297 156 282 156"></polygon>
                            <polygon id="Fill-132" fill="#000000" mask="url(#mask-2)" points="289.532202 133.901044 297 129 297 133.091287 292.134235 136.074563 297 139.036216 297 143 289.489266 138.120579 282 143 282 138.951214 286.865765 135.967938 282 132.984661 282 129.041755"></polygon>
                            <polygon id="Fill-133" fill="#FA6660" mask="url(#mask-2)" points="274 184 259 184 259 180.595023 270.805754 180.595023 270.805754 174 274 174"></polygon>
                            <polygon id="Fill-134" fill="#000000" mask="url(#mask-2)" points="257 229 276 229 276 227 257 227"></polygon>
                            <polygon id="Fill-135" fill="#000000" mask="url(#mask-2)" points="257 208 276 208 276 206 257 206"></polygon>
                            <polygon id="Fill-136" fill="#000000" mask="url(#mask-2)" points="261 218 273 218 273 216 261 216"></polygon>
                            <polygon id="Fill-137" fill="#000000" mask="url(#mask-2)" points="261 198 273 198 273 196 261 196"></polygon>
                            <polygon id="Fill-138" fill="#000000" mask="url(#mask-2)" points="257 152 276 152 276 150 257 150"></polygon>
                            <polygon id="Fill-139" fill="#000000" mask="url(#mask-2)" points="257 131 276 131 276 129 257 129"></polygon>
                            <polygon id="Fill-140" fill="#000000" mask="url(#mask-2)" points="261 142 273 142 273 140 261 140"></polygon>
                            <polygon id="Fill-141" fill="#000000" mask="url(#mask-2)" points="261 163 273 163 273 161 261 161"></polygon>
                            <g id="Group-144" mask="url(#mask-2)">
                                <g transform="translate(157.000000, 217.000000)">
                                    <path d="M29.6681235,45.9254656 L25.5770843,45.9254656 L25.5770843,33.8037469 C25.5770843,30.9919969 23.5043588,28.4167156 20.1671039,27.0841531 L15.2569863,25.1226844 C10.3396137,23.1576219 7.2853,19.1426844 7.2853,14.6440281 L7.2853,4.62896562 L4.18310392,4.62896562 L4.18310392,45.9254656 L0.0920647059,45.9254656 L0.0920647059,0.575934375 L11.3763392,0.575934375 L11.3763392,14.6440281 C11.3763392,17.4557781 13.4497902,20.0310594 16.7863196,21.3636219 L21.6971627,23.3258094 C26.6138098,25.2894344 29.6681235,29.3043719 29.6681235,33.8037469 L29.6681235,45.9254656 Z" id="Fill-142" fill="#2B61D8"></path>
                                    <path d="M36.9307882,45.9254656 L32.8404745,45.9254656 L32.8404745,4.62896562 L29.6679059,4.62896562 L29.6679059,14.6440281 C29.6679059,19.1426844 26.6135922,23.1576219 21.6969451,25.1219656 L16.786102,27.0841531 C13.4495725,28.4167156 11.3761216,30.9919969 11.3761216,33.8037469 L11.3761216,45.9254656 L7.28580784,45.9254656 L7.28580784,33.8037469 C7.28580784,29.3043719 10.3401216,25.2894344 15.2567686,23.3258094 L20.1676118,21.3636219 C23.5041412,20.0310594 25.5775922,17.4557781 25.5775922,14.6440281 L25.5775922,0.575934375 L36.9307882,0.575934375 L36.9307882,45.9254656 Z" id="Fill-143" fill="#FDBF41"></path>
                                </g>
                            </g>
                            <g id="Group-149" mask="url(#mask-2)" fill="#112D56">
                                <g transform="translate(492.000000, 4.000000)">
                                    <path d="M21.4097613,39.1153637 L21.4097613,320.177097 C21.4097613,326.154653 16.6641484,330.998696 10.8071806,330.998696 C4.95092258,330.998696 0.203890323,326.154653 0.203890323,320.177097 L0.203890323,39.1153637 L21.4097613,39.1153637 Z" id="Fill-145"></path>
                                    <polygon id="Fill-146" points="0.204387097 299.825884 21.4102581 299.825884 21.4102581 287.139241 0.204387097 287.139241"></polygon>
                                    <path d="M21.4097613,40.4585573 L0.203890323,40.4585573 C0.203890323,26.4891985 7.14666452,9.25039978 7.14666452,9.25039978 L14.4719548,9.25039978 C14.4719548,9.25039978 21.4097613,26.4891985 21.4097613,40.4585573" id="Fill-147"></path>
                                    <path d="M14.2498968,8.36843326 L13.2464129,8.36843326 L13.2464129,9.24989278 L8.36809032,9.24989278 L8.36809032,8.36843326 L7.36886452,8.36843326 C7.36886452,8.36843326 8.57389677,3.27233698 10.8065419,0.0195557987 C13.0448645,3.27233698 14.2498968,8.36843326 14.2498968,8.36843326" id="Fill-148"></path>
                                </g>
                            </g>
                            <path d="M505,335 C498.924503,335 494,330.027126 494,323.891954 L494,303 L516,303 L516,323.891954 C516,330.027126 511.075497,335 505,335" id="Fill-150" fill="#F4F4F4" mask="url(#mask-2)"></path>
                            <path d="M505,335 C498.924503,335 494,330.098717 494,324.051868 L494,322 C494,328.046849 498.924503,332.948132 505,332.948132 C511.075497,332.948132 516,328.046849 516,322 L516,324.051868 C516,330.098717 511.075497,335 505,335" id="Fill-151" fill="#CECECE" mask="url(#mask-2)"></path>
                            <polygon id="Fill-152" fill="#F4F4F4" mask="url(#mask-2)" points="494 304 516 304 516 40 494 40"></polygon>
                            <polygon id="Fill-153" fill="#919191" mask="url(#mask-2)" points="494 304 516 304 516 291 494 291"></polygon>
                            <path d="M516,41 L494,41 C494,26.6763794 501.202212,9 501.202212,9 L508.80143,9 C508.80143,9 516,26.6763794 516,41" id="Fill-154" fill="#F4F4F4" mask="url(#mask-2)"></path>
                            <path d="M508,8.14052795 L506.979286,8.14052795 L506.979286,9 L502.017143,9 L502.017143,8.14052795 L501,8.14052795 C501,8.14052795 502.226429,3.17166149 504.498571,0 C506.774286,3.17166149 508,8.14052795 508,8.14052795" id="Fill-155" fill="#C9C9C9" mask="url(#mask-2)"></path>
                        </g>
                        <g id="Group" transform="translate(512.000000, 461.000000)" font-family="Lato-Bold, Lato" font-size="48" font-weight="bold">
                            <text id="Helix" letter-spacing="1.42999995" fill="#9BC69C">
                                <tspan x="41.9850001" y="48">Helix</tspan>
                            </text>
                            <text id="Helix" letter-spacing="0.825" fill="#FFFFFF">
                                <tspan x="42.4975" y="47">Helix</tspan>
                            </text>
                        </g>
                    </g>
                    <g id="Group-345" transform="translate(643.000000, 131.000000)" fill="#20912D">
                        <polygon id="Fill-1" points="0 0 0 0.049 0.009 0"></polygon>
                        <polygon id="Fill-2" points="0 0 0 0.049 0.009 0"></polygon>
                        <path d="M0,0 L0,0.049 L0.01,0 L0,0 Z M0,0.136 L0.01,0.136 L0,0.107 L0,0.136 Z" id="Fill-3"></path>
                        <polygon id="Fill-4" points="0 0.048 0.009 0.048 0 0"></polygon>
                        <polygon id="Fill-5" points="0 0.048 0.009 0.048 0 0"></polygon>
                        <polygon id="Fill-6" points="0 0.048 0.009 0.048 0 0"></polygon>
                        <polygon id="Fill-7" points="0 0 0 0.049 0.009 0"></polygon>
                    </g>
                </g>
            </g>
        </g>
    </g>
</svg>