<?xml version="1.0" encoding="UTF-8"?>
<svg width="860px" height="430px" viewBox="0 0 860 430" version="1.1" xmlns="http://www.w3.org/2000/svg" xmlns:xlink="http://www.w3.org/1999/xlink">
    <!-- Generator: Sketch 51.3 (57544) - http://www.bohemiancoding.com/sketch -->
    <title>Helix</title>
    <desc>Created with Sketch.</desc>
    <defs>
        <polygon id="path-1" points="0.0858674304 0.0682951284 230.932921 0.0682951284 230.932921 17.1739636 0.0858674304 17.1739636"></polygon>
        <polygon id="path-3" points="0 279.935606 349.723895 279.935606 349.723895 0.305696551 0 0.305696551"></polygon>
        <polygon id="path-5" points="0.000286415712 0.307385047 349.723895 0.307385047 349.723895 245.793544 0.000286415712 245.793544"></polygon>
        <polygon id="path-7" points="0 281 350 281 350 1 0 1"></polygon>
    </defs>
    <g id="Page-1" stroke="none" stroke-width="1" fill="none" fill-rule="evenodd">
        <g id="Desktop-HD" transform="translate(-290.000000, -2251.000000)">
            <g id="Helix" transform="translate(290.000000, 2251.000000)">
                <rect id="The-SMBX-Copy-2" fill="#447DE2" x="0" y="0" width="860" height="430" rx="8"></rect>
                <g id="Group-162" transform="translate(32.000000, 75.000000)">
                    <g id="Group-8">
                        <g id="Group-3" transform="translate(69.312602, 262.761642)">
                            <mask id="mask-2" fill="white">
                                <use xlink:href="#path-1"></use>
                            </mask>
                            <g id="Clip-2"></g>
                            <path d="M0.0858674304,0.0682951284 L222.37482,0.0682951284 C227.102398,0.0682951284 230.932921,3.89637161 230.932921,8.62092898 C230.932921,13.3454864 227.102398,17.1741353 222.37482,17.1741353 L0.0858674304,17.1741353 L0.0858674304,0.0682951284 Z" id="Fill-1" fill="#112D56" mask="url(#mask-2)"></path>
                        </g>
                        <mask id="mask-4" fill="white">
                            <use xlink:href="#path-3"></use>
                        </mask>
                        <g id="Clip-5"></g>
                        <polygon id="Fill-4" fill="#112D56" mask="url(#mask-4)" points="265.557201 279.935034 275.591489 279.935034 275.591489 262.829193 265.557201 262.829193"></polygon>
                        <path d="M70.4607283,262.829938 L70.4607283,279.935778 C59.4131015,279.935778 45.7785679,274.335921 45.7785679,274.335921 L45.7785679,268.42636 C45.7785679,268.42636 59.4131015,262.829938 70.4607283,262.829938" id="Fill-6" fill="#112D56" mask="url(#mask-4)"></path>
                        <path d="M45.0810884,268.606057 L45.0810884,269.415523 L45.7787971,269.415523 L45.7787971,273.350078 L45.0810884,273.350078 L45.0810884,274.156109 C45.0810884,274.156109 41.0512193,273.184063 38.4786334,271.383087 C41.0512193,269.577531 45.0810884,268.606057 45.0810884,268.606057" id="Fill-7" fill="#112D56" mask="url(#mask-4)"></path>
                    </g>
                    <path d="M346,237 C346,243.62711 340.828329,249 334.448979,249 L14.5510209,249 C8.17109656,249 3,243.62711 3,237" id="Fill-9" fill="#112D56"></path>
                    <g id="Group-13">
                        <mask id="mask-6" fill="white">
                            <use xlink:href="#path-5"></use>
                        </mask>
                        <g id="Clip-12"></g>
                        <path d="M337.946195,245.793544 L11.7777005,245.793544 C5.27262684,245.793544 0.000286415712,240.50282 0.000286415712,233.976348 L0.000286415712,12.1245813 C0.000286415712,5.59810935 5.27262684,0.307385047 11.7777005,0.307385047 L337.946195,0.307385047 C344.450696,0.307385047 349.724182,5.59810935 349.724182,12.1245813 L349.724182,233.976348 C349.724182,240.50282 344.450696,245.793544 337.946195,245.793544" id="Fill-11" fill="#515151" mask="url(#mask-6)"></path>
                    </g>
                    <path d="M320.708847,233 L29.2911532,233 C28.5775456,233 28,232.423436 28,231.71232 L28,15.2876796 C28,14.5765644 28.5775456,14 29.2911532,14 L320.708847,14 C321.42188,14 322,14.5765644 322,15.2876796 L322,231.71232 C322,232.423436 321.42188,233 320.708847,233" id="Fill-14" fill="#000000"></path>
                    <path d="M315.71315,229 L32.2868501,229 C31.576193,229 31,228.421821 31,227.708714 L31,18.291286 C31,17.577605 31.576193,17 32.2868501,17 L315.71315,17 C316.423807,17 317,17.577605 317,18.291286 L317,227.708714 C317,228.421821 316.423807,229 315.71315,229" id="Fill-16" fill="#D3D3D3"></path>
                    <path d="M343,125.5 C343,130.194547 339.19498,134 334.499721,134 C329.805578,134 326,130.194547 326,125.5 C326,120.806012 329.805578,117 334.499721,117 C339.19498,117 343,120.806012 343,125.5" id="Fill-18" fill="#1C1C1C"></path>
                    <path d="M317,30 L31,30 L31,18.4010117 C31,17.6277458 31.5887811,17 32.3166038,17 L315.683396,17 C316.410647,17 317,17.6277458 317,18.4010117 L317,30 Z" id="Fill-20" fill="#FFFFFF"></path>
                    <mask id="mask-8" fill="white">
                        <use xlink:href="#path-7"></use>
                    </mask>
                    <g id="Clip-23"></g>
                    <polygon id="Fill-22" fill="#FFFFFF" mask="url(#mask-8)" points="31 172 52 172 52 77 31 77"></polygon>
                    <polygon id="Fill-24" fill="#4C4C4C" mask="url(#mask-8)" points="31 99 33 99 33 87 31 87"></polygon>
                    <polygon id="Fill-25" fill="#4C4C4C" mask="url(#mask-8)" points="31 120 33 120 33 108 31 108"></polygon>
                    <polygon id="Fill-26" fill="#4C4C4C" mask="url(#mask-8)" points="31 140 33 140 33 128 31 128"></polygon>
                    <polygon id="Fill-27" fill="#4C4C4C" mask="url(#mask-8)" points="31 159 33 159 33 147 31 147"></polygon>
                    <polygon id="Fill-28" fill="#FFFFFF" mask="url(#mask-8)" points="96 220 266 220 266 40 96 40"></polygon>
                    <path d="M33,94 L46,94" id="Stroke-29" stroke="#000000" stroke-width="2" mask="url(#mask-8)"></path>
                    <path d="M46.0069178,112.458 C46.0399178,112.494 46.0279178,112.075 46.0329178,112 C45.9779178,112.093 46.0089178,112.566 46.0069178,112.458" id="Fill-30" fill="#202020" mask="url(#mask-8)"></path>
                    <polygon id="Fill-31" fill="#202020" mask="url(#mask-8)" points="46.07 112.171 46.08 112 46 112.42"></polygon>
                    <path d="M45,112.273 C45.049,112.987 45.184,112.158 45.274,112.411 L45.289,112.575 L45.33,112 C45.221,112.09 45.078,112.472 45,112.273" id="Fill-32" fill="#202020" mask="url(#mask-8)"></path>
                    <path d="M45.0081669,112 C45.0251669,112.277 44.9491669,112.238 45.0701669,112.087 C45.0651669,112.057 45.0631669,112.039 45.0591669,112.017 C45.0491669,112.021 45.0331669,112.02 45.0081669,112" id="Fill-33" fill="#202020" mask="url(#mask-8)"></path>
                    <path d="M45.0080598,112.108382 C45.0620598,112.087382 44.9740598,111.875382 45.0080598,112.108382" id="Fill-34" fill="#202020" mask="url(#mask-8)"></path>
                    <path d="M45.0342533,112.569 L45.1042533,112.321 C45.0902533,112.157 45.0272533,112.12 45.0512533,112 C44.9782533,112.135 44.9932533,112.299 45.0342533,112.569" id="Fill-35" fill="#202020" mask="url(#mask-8)"></path>
                    <path d="M45,112.154818 L45.036,112.050818 C45.03,111.980818 45.021,111.956818 45,112.154818" id="Fill-36" fill="#202020" mask="url(#mask-8)"></path>
                    <path d="M45.077,112 L45,112.222 C45.011,112.336 45.012,112.567 45.036,112.142 C45.029,112.353 45.045,112.149 45.077,112" id="Fill-37" fill="#202020" mask="url(#mask-8)"></path>
                    <path d="M45,112.013127 C45.04,112.168127 45.091,112.266127 45.021,112.513127 C45.154,112.414127 45.135,111.913127 45,112.013127" id="Fill-38" fill="#202020" mask="url(#mask-8)"></path>
                    <path d="M45.0001466,113.083299 L45.0531466,113.292299 L45.0981466,113.053299 C45.0751466,113.171299 44.9961466,112.859299 45.0001466,113.083299" id="Fill-39" fill="#202020" mask="url(#mask-8)"></path>
                    <path d="M45.0004023,112 C44.9964023,112.152 45.0234023,112.405 45.0294023,112.6 L45.0804023,112.425 C45.0544023,112.321 45.0044023,112.225 45.0004023,112" id="Fill-40" fill="#202020" mask="url(#mask-8)"></path>
                    <path d="M45.078,112 L45,112.261 C45.069,112.291 45.082,112.167 45.078,112" id="Fill-41" fill="#202020" mask="url(#mask-8)"></path>
                    <polygon id="Fill-42" fill="#202020" mask="url(#mask-8)" points="45.024 112.547 45.152 112 45 112.555"></polygon>
                    <polygon id="Fill-43" fill="#202020" mask="url(#mask-8)" points="45.034 111.352 45.078 111 45 111.532"></polygon>
                    <path d="M45.15,111.673 C45.183,111.381 45.106,111.18 45.14,111 C45.087,111.053 45.041,111.303 45,111.527 C45.044,111.402 45.09,111.435 45.15,111.673" id="Fill-44" fill="#202020" mask="url(#mask-8)"></path>
                    <path d="M45,112.327 C45.021,112.258 45.044,112.133 45.068,112 C45.046,112.067 45.023,112.164 45,112.327" id="Fill-45" fill="#202020" mask="url(#mask-8)"></path>
                    <path d="M45.061,112.434 C45.055,112.342 45.043,112.102 45,112 L45.031,112.427 C45.04,112.43 45.051,112.431 45.061,112.434" id="Fill-46" fill="#202020" mask="url(#mask-8)"></path>
                    <path d="M45.066,112.037 L45.065,112.023 C45.032,112.014 45.009,112.005 45,112 C45.007,112.003 45.028,112.015 45.066,112.037" id="Fill-47" fill="#202020" mask="url(#mask-8)"></path>
                    <path d="M45.008,112.001 C45.006,112.001 45.003,112 45,112 C45.004,112.042 45.005,112.056 45.008,112.001" id="Fill-48" fill="#202020" mask="url(#mask-8)"></path>
                    <path d="M45.0881309,112 C45.0421309,112.238 44.9461309,112.494 45.0391309,112.859 C45.0711309,112.566 45.0191309,112.359 45.0881309,112" id="Fill-49" fill="#202020" mask="url(#mask-8)"></path>
                    <path d="M45,112.299 L45.083,112.397 C45.081,112.283 45.066,112.118 45.089,112 L45,112.299 Z" id="Fill-50" fill="#202020" mask="url(#mask-8)"></path>
                    <polygon id="Fill-51" fill="#202020" mask="url(#mask-8)" points="45 112.172 45.04 112.036 45.01 112"></polygon>
                    <path d="M45.118,112.000756 C45.083,112.187756 45.044,112.202756 45,112.231756 C45.048,112.315756 45.096,112.361756 45.142,112.359756 C45.149,112.226756 45.169,111.984756 45.118,112.000756" id="Fill-52" fill="#202020" mask="url(#mask-8)"></path>
                    <path d="M45.008,112 C45.006,112.01 45.002,112.014 45,112.024 C45.005,112.061 45.009,112.071 45.008,112" id="Fill-53" fill="#202020" mask="url(#mask-8)"></path>
                    <path d="M44,112 C44.003,112.023 44.005,112.054 44.007,112.078 C44.008,112.054 44.008,112.029 44.009,112.004 L44,112 Z" id="Fill-54" fill="#202020" mask="url(#mask-8)"></path>
                    <path d="M45.0099514,112.153 C45.0449514,112.236 45.0669514,112.132 45.0869514,112 C45.0599514,112.043 45.0319514,112.07 45.0019514,112.073 C44.9989514,112.134 44.9979514,112.174 45.0099514,112.153" id="Fill-55" fill="#202020" mask="url(#mask-8)"></path>
                    <path d="M45,112.031155 C45.019,112.121155 45.039,112.197155 45.062,112.266155 C45.043,112.131155 45.007,111.920155 45,112.031155" id="Fill-56" fill="#202020" mask="url(#mask-8)"></path>
                    <path d="M45.0039256,112.069919 C45.0059256,112.063919 45.0069256,112.055919 45.0089256,112.050919 C44.9969256,111.960919 44.9989256,112.004919 45.0039256,112.069919" id="Fill-57" fill="#202020" mask="url(#mask-8)"></path>
                    <path d="M45.047,112 C45.028,112.062 45.014,112.168 45,112.262 C45.022,112.228 45.041,112.182 45.059,112.119 C45.055,112.089 45.05,112.042 45.047,112" id="Fill-58" fill="#202020" mask="url(#mask-8)"></path>
                    <path d="M44.0900297,113 C44.0970297,112.851407 44.1900297,112.714071 44.2710297,112.873546 C44.3500297,112.761726 44.2980297,112.273171 44.2290297,112 C44.2270297,112.064916 44.2270297,112.124578 44.1450297,112.212383 C44.1740297,112.293433 44.3260297,112.402251 44.2570297,112.536961 C44.1490297,112.613133 44.1680297,112.484053 44.1150297,112.405629 C44.1600297,112.590619 43.9790297,112.675047 44.0020297,112.947092 L44.0970297,112.851407 C44.0990297,112.893809 44.0650297,112.961351 44.0900297,113" id="Fill-59" fill="#202020" mask="url(#mask-8)"></path>
                    <path d="M44.153,112.587 L44.187,112.538 C44.148,112.469 44.121,112.311 44.071,112 C44.015,112.194 44.004,112.341 44,112.473 L44.165,112.528 L44.153,112.587 Z" id="Fill-60" fill="#202020" mask="url(#mask-8)"></path>
                    <path d="M45.15,112.194486 C45.124,112.515648 45.043,112.652012 45.092,113 C45.191,112.977645 45.162,112.731744 45.22,112.592399 C45.061,112.672131 45.266,112.413562 45.151,112.231744 C45.182,112.177347 45.211,112.159463 45.237,112.146796 C45.209,112.108048 45.181,112.058867 45.155,112 C45.156,112.007452 45.158,112.012668 45.159,112.020119 L45.16,112.019374 C45.16,112.02161 45.159,112.022355 45.159,112.023845 C45.166,112.063338 45.168,112.087928 45.161,112.065574 C45.16,112.0693 45.158,112.07079 45.157,112.07228 C45.156,112.116244 45.153,112.154993 45.15,112.192996 C45.104,112.126677 45.142,112.110283 45.157,112.07228 C45.158,112.055142 45.159,112.040984 45.159,112.023845 L45.159,112.020119 L45,112.195976 C45.033,112.240686 45.075,112.231744 45.15,112.194486" id="Fill-61" fill="#202020" mask="url(#mask-8)"></path>
                    <path d="M45.0142626,113.101 C45.0092626,113.063 45.0092626,113.032 45.0082626,113 C44.9982626,113.053 44.9942626,113.089 45.0142626,113.101" id="Fill-62" fill="#202020" mask="url(#mask-8)"></path>
                    <path d="M45.0789998,113.86722 C45.0909998,113.817427 45.0999998,113.675519 45.1379998,113.712033 C45.1699998,113.818257 45.1379998,113.882988 45.1389998,114 C45.1619998,113.905394 45.2189998,113.744398 45.1469998,113.570124 L45.1369998,113.618257 C45.0719998,113.495436 44.9899998,113.049793 45.0009998,113 C45.0189998,113.322822 45.0359998,113.551037 45.0789998,113.86722" id="Fill-63" fill="#202020" mask="url(#mask-8)"></path>
                    <path d="M45.133,113 L45,113.212 L45.068,113.584 L45.064,113.36 C45.14,113.448 45.123,113.173 45.133,113" id="Fill-64" fill="#202020" mask="url(#mask-8)"></path>
                    <polygon id="Fill-65" fill="#202020" mask="url(#mask-8)" points="44.06 112.455 44.078 112 44 112.642"></polygon>
                    <polygon id="Fill-66" fill="#202020" mask="url(#mask-8)" points="44.039 112.395 44.046 112 44 112.239"></polygon>
                    <path d="M38.039,115 L38,115.111 C38.018,115.077 38.03,115.039 38.039,115" id="Fill-67" fill="#202020" mask="url(#mask-8)"></path>
                    <path d="M38.0067576,115.195 L38.0137576,115 C37.9997576,115.107 37.9947576,115.187 38.0067576,115.195" id="Fill-68" fill="#202020" mask="url(#mask-8)"></path>
                    <path d="M41.1126905,112.659131 C41.0556905,112.290131 40.9926905,111.717131 41.0006905,112.162131 L41.0166905,112.596131 C41.0566905,112.517131 41.0876905,112.566131 41.1126905,112.659131" id="Fill-69" fill="#202020" mask="url(#mask-8)"></path>
                    <path d="M39,113.283 C39.005,113.324 39.011,113.37 39.017,113.414 C39.03,113.265 39.043,113.129 39.055,113 C39.038,113.089 39.02,113.183 39,113.283" id="Fill-70" fill="#202020" mask="url(#mask-8)"></path>
                    <path d="M39.075,114.28 L39,114 C39.016,114.097 39.041,114.191 39.075,114.28" id="Fill-71" fill="#202020" mask="url(#mask-8)"></path>
                    <path d="M37.046,115 L37,115.441 C37.072,115.439 37.04,115.217 37.046,115" id="Fill-72" fill="#202020" mask="url(#mask-8)"></path>
                    <path d="M43.122,112.262 C43.072,112.093 43.034,112.022 43,112 C43.059,112.249 43.106,112.623 43.122,112.262" id="Fill-73" fill="#202020" mask="url(#mask-8)"></path>
                    <path d="M38.0330679,112 C38.0090679,112.079 37.9990679,112.167 38.0000679,112.264 C38.0240679,112.189 38.0380679,112.106 38.0330679,112" id="Fill-74" fill="#202020" mask="url(#mask-8)"></path>
                    <path d="M43,112.186019 C43.009,112.229019 43.017,112.251019 43.025,112.288019 C43.062,112.215019 43.098,112.157019 43.142,112.184019 C43.098,111.999019 43.048,111.884019 43,112.186019" id="Fill-75" fill="#202020" mask="url(#mask-8)"></path>
                    <path d="M34.013109,115.053 C34.009109,115.033 34.004109,115.024 34.000109,115 C33.999109,115.06 34.005109,115.063 34.013109,115.053" id="Fill-76" fill="#202020" mask="url(#mask-8)"></path>
                    <path d="M33,112.051912 C33.016,112.024912 33.042,112.024912 33.066,112.018912 C33.055,111.988912 33.035,111.990912 33,112.051912" id="Fill-77" fill="#202020" mask="url(#mask-8)"></path>
                    <path d="M44,112.028978 C44.036,112.000978 44.006,111.980978 44,112.028978" id="Fill-78" fill="#202020" mask="url(#mask-8)"></path>
                    <path d="M44.016,113 C44.008,113.048 44.002,113.11 44,113.211 C44.004,113.106 44.009,113.04 44.016,113" id="Fill-79" fill="#202020" mask="url(#mask-8)"></path>
                    <path d="M43.003,113.002 C43.002,113.002 43.001,113 43,113 C43.011,113.085 43.009,113.068 43.003,113.002" id="Fill-80" fill="#202020" mask="url(#mask-8)"></path>
                    <path d="M44.047,112.129 C44.033,112.075 44.018,112.031 44,112 C44.008,112.033 44.022,112.075 44.047,112.129" id="Fill-81" fill="#202020" mask="url(#mask-8)"></path>
                    <path d="M44,112.039128 C44.013,112.059128 44.022,112.069128 44.032,112.081128 C44.037,112.009128 44.033,111.963128 44,112.039128" id="Fill-82" fill="#202020" mask="url(#mask-8)"></path>
                    <path d="M44,112.023 C44.021,112.016 44.04,112.036 44.059,112.068 C44.051,112.038 44.049,112.014 44.051,112 C44.039,112.005 44.024,112.015 44,112.023" id="Fill-83" fill="#202020" mask="url(#mask-8)"></path>
                    <path d="M36.0288134,114.04 C36.0268134,114.027 36.0238134,114.019 36.0208134,114 C35.9848134,114.18 36.0008134,114.151 36.0288134,114.04" id="Fill-84" fill="#202020" mask="url(#mask-8)"></path>
                    <path d="M41.002,114.037 C41.004,114.032 41.004,114.02 41.006,114.016 C41.004,114.012 41.002,114.005 41,114 L41.002,114.037 Z" id="Fill-85" fill="#202020" mask="url(#mask-8)"></path>
                    <path d="M40,115 C40.056,114.664388 40.087,114.705407 40.129,114.77688 L40.086,114 L40,115 Z" id="Fill-86" fill="#202020" mask="url(#mask-8)"></path>
                    <path d="M35.6988542,112.776242 L35.712923,112.846396 C35.6812683,112.923789 35.6900613,112.853634 35.6988542,112.776242 M43.4788702,112.670454 C43.4864908,112.633149 43.4859046,112.595845 43.4823874,112.557984 C43.478284,112.625354 43.4612843,112.630365 43.4431122,112.611435 C43.448388,112.681589 43.4571809,112.730586 43.4788702,112.670454 M43.4067679,112.554086 C43.4055955,112.557984 43.4055955,112.561325 43.4050093,112.566892 C43.3704237,112.462218 43.3821476,112.503976 43.4067679,112.554086 M39.9880629,114.424312 C39.9769251,114.512283 39.958753,114.468854 39.9382361,114.366963 C39.9534772,114.344692 39.9698908,114.354714 39.9880629,114.424312 M38.7617373,115.070734 C38.7459099,115.126968 38.7148415,115.300684 38.7031175,115.142558 C38.7207034,114.834659 38.7347722,114.981649 38.7617373,115.070734 M37.954543,115.244449 L38.007887,115.461037 C37.9428191,115.81849 37.8959233,115.695441 37.9463363,116 C37.954543,115.244449 38.156195,115.923164 38.1638156,115.167057 L38.2001599,115.326296 C38.1896083,115.319058 38.1878497,115.363043 38.1778844,115.356362 C38.2470557,115.718269 38.2288836,114.809604 38.3185718,114.917062 C38.3490541,114.974411 38.3713296,115.084653 38.3496403,115.174852 L38.4193978,114.987773 C38.4393285,115.00225 38.434639,115.133093 38.414122,115.119173 L38.5196376,115.059041 L38.5196376,115.080756 C38.5342926,114.962718 38.5688782,114.778981 38.5852918,114.701031 C38.6122569,114.809604 38.5718092,114.781208 38.5788436,114.875304 L38.6374634,114.692123 C38.6609113,114.888666 38.6122569,115.078529 38.5718092,115.050133 C38.6269118,115.805127 38.6204636,114.860271 38.7388756,115.301241 L38.6831868,115.397007 C38.7183586,115.825728 38.7623235,115.670386 38.8244604,115.937641 C38.8098055,115.797889 38.6990141,115.263936 38.7634959,115.075745 C38.7810818,115.131979 38.8045297,115.159262 38.8385292,115.007817 C38.8385292,115.276186 38.8725286,115.210485 38.9141487,115.194896 L38.9112177,115.551235 C38.9569411,115.448787 38.9534239,115.267277 38.9798028,115.106924 C39.0302158,115.142001 39.0401812,115.417608 39.0524913,115.650342 C39.1328004,115.707134 38.9968026,115.207702 39.0923528,115.140331 C39.1591793,115.276742 39.2066613,115.130866 39.2869704,114.918176 C39.3338662,115.041224 39.2787637,115.135877 39.2957634,115.238324 L39.3373834,114.95381 C39.347935,114.961048 39.3444178,115.047906 39.3426592,115.091891 C39.3778311,114.981649 39.3455902,114.736109 39.4006928,114.639786 C39.4159339,114.247255 39.5144151,115.212713 39.5824141,114.767288 C39.5988276,114.868622 39.5742073,114.985546 39.5794831,115.123628 C39.6732747,114.830761 39.6597922,114.910938 39.7365841,114.517294 L39.8022382,114.751142 C39.75417,114.483887 39.8151346,114.167636 39.8696509,113.907619 C39.8526512,113.778446 39.8379963,113.66542 39.8280309,113.611412 L39.9136158,113.420437 C39.9247535,113.478899 39.9159606,113.600833 39.9018918,113.750051 C39.9077538,113.720541 39.9130296,113.691589 39.917133,113.664863 C39.9482014,113.796263 39.9323741,114.001715 39.9106848,114.201043 C39.9001332,114.130888 39.8889955,114.055723 39.8796163,113.980558 C39.857927,114.197145 39.8385825,114.436561 39.8426859,114.645353 C39.8479616,114.604152 39.8590994,114.569075 39.8708233,114.549587 C39.8649614,114.608049 39.8620304,114.660386 39.8643752,114.69602 C39.86672,114.733325 39.8760991,114.654819 39.8901679,114.563507 L39.9100986,114.961048 L39.914202,114.803479 L40.0273381,115.051803 C40.1076472,114.652035 40.1779909,114.063518 40.3051958,113.899825 C40.2741274,114.190464 40.2987477,114.375315 40.2975753,114.719962 C40.2618172,114.354714 40.1979217,114.875304 40.1316813,114.801252 C40.166267,114.83967 40.1586464,115.004477 40.1498535,115.061268 L40.2682654,114.729427 C40.2653344,115.011715 40.2934719,114.941004 40.3245404,115.057371 C40.3010925,114.500034 40.4118838,114.685998 40.459952,114.515067 C40.4634692,114.702145 40.4517453,114.893677 40.3931255,114.848021 C40.4576072,115.268391 40.4763656,114.193248 40.5402611,114.550144 C40.5256062,114.554041 40.5185718,114.526202 40.5127098,114.620855 C40.5461231,114.454935 40.6276046,114.586891 40.6088463,114.749471 L40.5941913,114.753369 C40.6897415,114.819626 40.883773,114.757823 40.8978417,114.284003 C40.8990141,114.345249 40.8855316,114.854703 40.8796696,114.950469 L41.0496669,113.356964 C41.035012,113.763413 41.0918732,114.732211 41.0127365,114.962718 C41.0355982,115.020067 41.0631495,115.087994 41.1112177,114.944344 C41.0959766,114.886439 41.0731148,114.356384 41.094218,114.31908 C41.1522515,114.771743 41.1340794,114.56128 41.2055955,114.947128 C41.1821476,114.860271 41.2079403,114.2222 41.2448708,114.242801 C41.2390088,114.338011 41.2478018,114.871963 41.2343192,114.938777 L41.3257661,114.312399 C41.3029043,114.424868 41.3216627,114.84301 41.3415934,115.020067 C41.3322142,114.897575 41.4207301,115.031759 41.4447642,114.9694 L41.4060751,114.82408 C41.5092459,114.919289 41.5074873,113.94381 41.6100719,113.97666 C41.5977618,114.105833 41.5795897,114.772856 41.6311751,114.851362 C41.6552092,114.530657 41.7366906,113.309081 41.8269651,113.062427 L41.8439648,113.245608 L41.9137224,113.036815 C41.8703437,113.518987 41.7490008,114.534554 41.6833467,114.929311 C41.7214495,115.074631 41.6944844,115.145899 41.7513456,115.129196 C41.7718625,115.300684 41.7196909,115.389212 41.7032774,115.399791 L41.8375167,115.51059 C41.8316547,115.135877 41.9395151,115.13532 41.9348255,114.823523 L41.7894484,115.211599 C41.7835865,114.837443 41.8732747,114.149262 41.9682387,114.214962 C41.9922728,114.364179 41.9500666,114.880872 41.9524114,115.006147 C41.9641354,114.876974 42.0420997,114.76005 42.0514788,114.851362 L42.0110312,115.051803 C42.063789,115.192112 42.0972022,114.555155 42.1605116,114.912608 C42.1833733,114.93655 42.2267519,115.394223 42.2302691,115.173181 C42.1945111,114.746131 42.1874767,113.424891 42.2109246,113.104185 C42.2191314,113.133138 42.3264055,113.512305 42.351612,113.723325 C42.3879563,114.058507 42.2976819,114.521748 42.3281641,114.809047 C42.3299227,114.707156 42.3492673,114.580767 42.357474,114.540122 C42.3803357,114.627536 42.3480949,114.85693 42.3985079,114.810717 C42.4061284,114.43155 42.5005063,114.842454 42.4219558,114.489455 C42.4711964,114.38144 42.4741274,114.568518 42.5315747,114.551258 C42.5134026,114.306274 42.5831601,113.716644 42.6324007,113.608072 C42.6294698,113.704951 42.6406075,113.830784 42.6458833,113.888132 C42.7461231,113.922653 42.8000533,114.094698 42.8938449,114.098038 C42.9020517,114.189907 42.9477751,114.300706 42.9284306,114.4644 C42.9419131,114.397029 42.9542233,114.268413 42.9835332,114.259505 C43.0386358,114.587448 42.9184652,114.310172 42.9618439,114.704929 C42.965361,114.484444 43.036291,114.40037 43.0773248,114.262845 C43.0644285,113.922096 42.9823608,114.197145 42.9407407,114.335227 C42.9407407,113.865304 43.0128431,113.37311 43.1107381,113.155966 C43.1881162,113.039042 43.1441513,113.459411 43.1576339,113.392598 C43.3041833,113.475001 43.282494,112.57246 43.4038369,112.911539 C43.4519051,113.21053 43.4055955,113.506738 43.4161471,113.722768 C43.3534239,113.835795 43.3188383,113.53235 43.2760458,113.544599 L43.3293898,113.686578 C43.3082867,113.785685 43.2660805,113.86085 43.2432188,113.775106 C43.2836664,114.043474 43.4905942,113.82633 43.602558,114.074654 C43.6230749,113.974433 43.6576605,113.870315 43.641247,113.750051 L43.6054889,113.791252 C43.5732481,113.550723 43.6729017,113.458298 43.6271783,113.344715 C43.6752465,113.175453 43.7285905,112.908756 43.7960032,113.045167 L43.8088995,113.386473 C43.8077272,113.286809 43.7655209,113.183248 43.7461764,113.287366 C43.7743139,113.135922 43.8493472,113.749494 43.8798295,113.302399 L43.8329337,113.066324 C43.8810019,112.894279 43.940794,112.531815 44,112.639831 C43.9724487,112.302422 43.9865175,112.677692 43.943725,112.283491 C43.9806555,112.774571 43.7913136,112.26289 43.8499334,112.778469 C43.8065548,112.321352 43.7749001,112.584709 43.7180389,112.19385 C43.7197975,112.306876 43.7379696,112.40988 43.6881428,112.354202 C43.685798,112.387052 43.6805222,112.428811 43.6770051,112.453309 C43.6752465,112.450525 43.6746603,112.448298 43.6734879,112.444957 C43.6746603,112.449412 43.6752465,112.454423 43.6758327,112.45832 C43.6740741,112.475024 43.6734879,112.478921 43.6770051,112.462774 C43.6893152,112.512328 43.6986944,112.571347 43.7027978,112.633706 C43.6781775,112.892609 43.5984546,112.884257 43.5714895,113.018441 C43.5415934,112.96499 43.5837996,112.888711 43.5679723,112.769004 L43.5269384,112.969445 C43.5234213,112.718893 43.448388,112.554086 43.5187317,112.407096 L43.4548361,112.395961 C43.4184919,112.255652 43.3669065,112.199974 43.335838,112.305206 C43.3065281,112.251198 43.2602185,112.581925 43.2865974,112.386496 L43.18753,112.540724 L43.1863576,112.478921 C43.0890488,112.447185 42.985878,112.893166 42.8739142,112.44106 C42.8416733,112.504533 42.8076739,112.581369 42.7525713,112.510658 L42.7420197,112.294627 C42.6992273,112.369792 42.615401,112.078039 42.5972289,112.302978 C42.5515055,111.720586 42.3926459,112.176033 42.3181988,112.073028 L42.3152678,112.355316 C42.2642686,112.339726 42.215028,112.419902 42.1523048,112.532929 L42.155822,112.782366 C42.1013056,112.987262 42.0151346,112.604753 41.9289635,112.630365 C41.9348255,112.535156 41.9565148,112.560211 41.9723421,112.618116 C41.8685851,112.053541 41.7542766,113.027907 41.6610711,112.617003 C41.6376232,112.708315 41.6206235,112.677135 41.60421,112.614775 C41.6059686,112.613662 41.6083133,112.609208 41.6100719,112.601413 C41.607141,112.598629 41.6036238,112.598072 41.6001066,112.598072 C41.5901412,112.5552 41.5795897,112.505647 41.5678657,112.465002 C41.5772449,112.526247 41.5872102,112.575801 41.595417,112.599186 C41.5772449,112.604197 41.5496936,112.63482 41.5233147,112.697736 L41.5115907,112.429924 C41.5098321,112.433265 41.5074873,112.432708 41.5051426,112.437719 C41.4787637,112.338612 41.4846256,112.564108 41.4986944,112.765663 C41.4846256,112.810205 41.4729017,112.8631 41.4629363,112.927129 C41.4418332,112.494511 41.3931788,113.073562 41.3638689,112.611992 C41.3456968,112.836931 41.2296296,112.781253 41.2149747,113.255073 C41.2138023,113.19327 41.2067679,113.163761 41.2208367,113.159307 C41.1903544,113.105856 41.1604583,113.051848 41.1340794,113.185475 L41.1217693,112.844726 L41.0567013,113.302956 C41.0168399,113.095277 41.0004263,112.973899 41.0397016,112.712212 C40.9447375,113.115878 40.9623235,112.864213 40.8826006,113.263981 L40.8861178,113.043496 C40.8573941,113.051848 40.8110845,113.347498 40.7934985,113.164874 C40.7290168,112.746176 40.4740208,113.107526 40.308713,112.71778 C40.3409539,113.366986 40.2319211,112.427141 40.225473,112.929913 C40.2155076,112.776799 40.1926459,112.689941 40.219611,112.556314 C40.1346123,112.707201 40.0924061,112.313001 40.0343725,112.737267 C40.0244071,112.583039 40.0525446,112.512328 40.0437517,112.421016 C40.0367173,112.454423 40.0167866,112.554643 40.0079936,112.462774 C39.9992006,112.370906 40.0203038,112.334158 40.0343725,112.267345 C39.947029,112.292956 39.9382361,112.765663 39.9323741,113.209974 C39.8884093,112.999511 39.86672,113.02902 39.8350653,113.320773 C39.8198241,113.175453 39.7946176,113.023452 39.8479616,112.971672 C39.8174793,112.949957 39.6638956,112.758425 39.6609646,113.114207 C39.6515854,113.024009 39.6187583,113.088039 39.6105516,113.129241 C39.5431388,113.108083 39.5372768,113.07579 39.4710365,113.109753 L39.4892086,113.167102 C39.4628297,113.596936 39.4335199,113.263425 39.3801759,113.315205 L39.3813483,113.27122 C39.2588329,112.961093 39.3285905,113.419323 39.2072475,113.065768 L39.2136957,113.333022 C39.2031442,113.907063 39.1064215,112.9945 39.0354916,113.213871 L39.0612843,113.366429 C39.0231815,113.562972 38.9540101,112.585266 38.9153211,112.512885 C38.9071143,112.463331 38.9288036,112.433265 38.9405276,112.396518 C38.8391154,112.057438 38.9276312,112.746176 38.8520117,112.827466 C38.837943,112.638717 38.8695977,112.346964 38.8191847,112.312444 C38.7939782,112.159886 38.672049,112.925459 38.6028777,112.562995 C38.6181188,112.708871 38.63336,112.853634 38.5981881,112.962763 C38.5442579,113.015101 38.4533973,112.413778 38.4047429,112.872008 C38.3977085,112.832477 38.3959499,112.794059 38.3959499,112.757868 C38.3543299,112.876462 38.2622968,112.953855 38.2376765,113.203292 C38.2001599,112.280151 37.9826805,113.6515 37.9832667,112.80074 L37.8578204,112.846396 L37.8607514,112.759538 C37.7804423,112.703304 37.7517186,112.907085 37.7235811,113.111424 C37.7048228,113.053518 37.7183054,112.973342 37.7200639,112.929356 C37.6022382,112.757868 37.5911005,112.794059 37.492033,113.218325 L37.4814815,112.942162 C37.4545164,113.102515 37.3114841,112.509544 37.1960032,112.831363 C37.1971756,112.799627 37.1995204,112.746176 37.2083133,112.707201 C37.0787637,113.031247 36.8976286,111.942185 36.8501465,112.947173 L36.7639755,113.194384 C36.8753531,113.27289 36.747562,113.6309 36.7932854,113.797377 C36.7499067,113.856396 36.6807354,113.494488 36.7346656,113.442708 L36.7422862,113.492818 C36.7616307,112.969445 36.6051159,113.30741 36.6074607,112.949957 C36.3893952,112.976683 36.1766054,112.6866 35.9720224,112.663772 L35.9960565,113.071335 L35.9245404,113.047951 C35.905782,112.953298 35.8993339,112.728915 35.9503331,112.746176 C35.923368,112.515112 35.8647482,112.939935 35.8629896,113.027907 C35.763336,112.8631 35.9022649,112.55353 35.8717826,112.543508 L35.8307487,112.573574 L35.8395417,112.621457 C35.8061284,112.787934 35.8031974,112.964434 35.7416467,112.944389 C35.7029576,112.862543 35.7223022,112.693282 35.707061,112.677135 C35.707061,112.648182 35.7017852,112.63482 35.6836131,112.665443 L35.5933387,112.630365 L35.6296829,112.952184 C35.5892353,113.110867 35.5446843,112.935481 35.5868905,113.299615 C35.5253397,112.737824 35.2509992,113.097504 35.2140687,112.923789 C35.1577938,113.158193 35.1026912,113.153739 35.0346922,113.125343 C35.051692,113.192713 35.0616573,113.553507 35.0030376,113.509522 C35.0253131,112.763993 34.8957634,113.186032 34.8476952,112.648739 C34.8904876,113.005079 34.6806288,112.737267 34.7474554,113.242824 C34.6982148,113.182135 34.7445244,112.96332 34.7075939,112.787934 C34.5897682,113.076903 34.4496669,112.600299 34.3054623,112.697179 C34.3031175,112.795729 34.3271516,112.945503 34.2960831,113.090823 L34.2204636,112.601413 C34.1917399,112.648739 34.1940847,113.166545 34.1419131,112.826909 C34.1489475,112.908756 34.1600853,113.032918 34.1413269,113.064654 C33.8576072,112.587493 33.5627498,113.455514 33.2755129,112.558541 C33.3147882,112.74896 33.2884093,112.767333 33.2585132,112.774571 C33.2778577,112.819671 33.2585132,113.016214 33.2620304,113.149285 L33.1418598,112.780696 C33.1201705,113.148728 33.0128963,112.805194 33,113.157636 L33.038689,113.093607 C32.9876898,113.509522 33.109619,114.017862 33.1014122,114.551258 C33.1588596,114.078551 33.2514788,115.25113 33.3440981,114.574642 C33.3652012,114.683771 33.3270983,114.746687 33.3382361,114.870293 C33.361684,114.642013 33.3904077,114.59413 33.4425793,114.69602 L33.4373035,114.753369 C33.5856115,114.697134 33.6489209,114.92263 33.815401,115.072961 L33.8030909,114.809047 C33.8388489,114.844124 33.8464695,114.927084 33.862883,114.992784 C33.9039169,114.593573 33.762057,114.970513 33.8001599,114.529543 C33.8476419,115.066279 34.0522249,114.537338 34.0844658,115.147569 C34.1395683,115.15091 34.0686384,114.841897 34.1231548,114.845794 L34.1378098,115.011158 L34.1518785,114.798468 C34.1882228,114.832988 34.2063949,115.039554 34.2075673,115.179306 C34.1987743,115.162602 34.1823608,115.21828 34.1729816,115.23053 C34.2204636,115.424846 34.3054623,115.164273 34.3212896,115.227189 L34.2685318,115.125855 C34.4185985,114.97107 34.6026645,115.188214 34.7474554,114.852476 L34.7363176,114.728314 C34.8476952,114.497807 34.8254197,114.864725 34.9473488,114.75838 L34.9426592,114.787889 C34.9672795,114.664284 35.0001066,114.600811 35.0329337,114.615844 C35.0024514,114.761164 35.0909672,114.898688 35.0505196,115.060155 C35.1706901,114.812944 35.1097256,114.865838 35.1894484,114.403154 L35.2076206,114.610276 C35.2345857,114.423198 35.2369305,114.324091 35.2973088,114.271197 C35.247482,114.448253 35.3365841,114.585778 35.2808953,114.820182 C35.4086864,115.271175 35.4702371,114.364179 35.5288569,115.024521 C35.5874767,114.452707 35.4180655,114.707156 35.4508926,114.584664 C35.4233413,114.398143 35.499547,114.157057 35.5399947,114.214962 C35.5804423,114.227768 35.609166,114.946015 35.7111644,114.935436 C35.701199,114.932652 35.7006128,114.976081 35.6900613,114.973297 C35.7287503,115.119173 35.7656808,114.776197 35.8125766,115.012828 C35.8389555,114.667068 35.8735412,115.032316 35.8817479,114.591903 L35.7873701,114.693793 C35.8401279,114.57854 35.8905409,114.062961 35.9790568,114.312956 C35.9720224,114.401484 35.9456435,114.518964 35.9274714,114.583551 C35.9532641,114.713837 35.9772982,114.497807 36.0036771,114.631434 C35.9960565,115.072404 35.8893685,114.7272 35.8325073,115.063495 C35.8594724,115.24946 35.9403677,114.743904 35.9110578,115.222178 C35.9526779,114.61473 36.01247,115.298457 36.0816414,114.834659 L36.077538,115.098573 C36.0886757,115.057371 36.1109512,114.932652 36.130882,114.939333 L36.0945377,115.281753 C36.1508127,114.99 36.2029843,115.537872 36.2569145,115.378633 C36.1443645,115.386428 36.231708,115.060155 36.1836398,114.866952 C36.3231548,114.513396 36.2639488,115.558473 36.4198774,115.431527 C36.3987743,115.468832 36.3407407,115.272845 36.3735678,115.150353 C36.4034639,115.204918 36.4427391,115.306252 36.4609113,115.445447 C36.5640821,115.389769 36.4444977,115.173181 36.4890488,115.010601 C36.5236344,115.332977 36.540048,114.879201 36.5851852,114.776754 L36.5857714,115.045122 C36.7030109,115.217724 36.6162537,114.485001 36.7223554,114.693793 L36.6778044,115.066279 L36.732907,114.969956 L36.7217693,115.275629 C36.7815614,115.049019 36.8003197,115.107481 36.8589395,115.193225 C36.845457,115.004477 36.8671463,114.706042 36.9187317,114.697134 C36.9544897,114.85693 36.8993872,114.952696 36.9732481,114.914278 C36.9568345,115.082426 36.9380762,115.293446 36.9064215,115.046235 C36.9029043,115.13365 36.8894218,115.214383 36.8859046,115.301241 C36.9245937,115.484421 36.982041,115.342442 37.0090061,115.339659 C36.9990408,115.330193 36.9861444,115.315717 36.9802824,115.277856 L37.0869704,114.904813 C37.1039702,115.006147 37.0904876,115.08688 37.0775913,115.167057 C37.0992806,115.137547 37.1145217,115.013942 37.1461764,114.991114 C37.1379696,115.209372 37.1397282,115.434311 37.094591,115.537316 L37.1971756,115.295116 C37.2036238,115.389769 37.2493472,115.556246 37.2358646,115.636422 C37.2927258,115.764482 37.3742073,115.212713 37.4498268,115.381974 C37.453344,115.339659 37.4615508,115.299014 37.4773781,115.268391 C37.5477218,115.316831 37.610445,115.585199 37.6936851,115.286208 L37.7411671,115.677067 C37.8068212,115.588539 37.6772715,115.184317 37.7863043,115.03677 C37.8630962,114.911494 37.815028,115.370281 37.8419931,115.478854 C37.8806821,115.28231 37.9469225,114.880315 38.0178524,115.19935 C37.9944045,115.272845 37.9762323,115.21494 37.954543,115.244449" id="Fill-87" fill="#202020" mask="url(#mask-8)"></path>
                    <path d="M39.0178,114.262 C39.0108,114.181 39.0078,114.091 39.0068,114 C38.9968,114.081 38.9958,114.175 39.0178,114.262" id="Fill-88" fill="#202020" mask="url(#mask-8)"></path>
                    <path d="M37.009,115.006 C37.007,115.002 37.006,115.004 37.005,115 C37.002,115.029 37.001,115.059 37,115.088 L37.009,115.006 Z" id="Fill-89" fill="#202020" mask="url(#mask-8)"></path>
                    <path d="M43.0500569,114.249 C43.0250569,114.179 43.0100569,114.092 43.0000569,114 C42.9990569,114.117 43.0110569,114.218 43.0500569,114.249" id="Fill-90" fill="#202020" mask="url(#mask-8)"></path>
                    <path d="M44.079,112 L44,112.126 C44.038,112.103 44.052,112.208 44.071,112.284 C44.069,112.172 44.054,112.009 44.079,112" id="Fill-91" fill="#202020" mask="url(#mask-8)"></path>
                    <path d="M44.0250338,113.291 C44.0370338,113.231 44.0500338,113.284 44.0610338,113.225 L44.0580338,113 C44.0090338,113.015 43.9740338,113.195 44.0250338,113.291" id="Fill-92" fill="#202020" mask="url(#mask-8)"></path>
                    <path d="M44,113.186254 C44.006,113.592254 44.056,113.454254 44.111,113.379254 C44.107,113.380254 44.104,113.383254 44.102,113.379254 C44.117,112.812254 44.059,112.999254 44,113.186254" id="Fill-93" fill="#202020" mask="url(#mask-8)"></path>
                    <path d="M44,113.121926 C44.017,113.102926 44.034,113.093926 44.052,113.111926 C44.058,112.884926 44.03,113.063926 44,113.121926" id="Fill-94" fill="#202020" mask="url(#mask-8)"></path>
                    <path d="M44.0516495,112.48935 C44.0786495,112.59335 44.0696495,111.97035 44.0836495,112.13535 C44.1136495,111.62035 43.9076495,112.76035 44.0516495,112.48935" id="Fill-95" fill="#202020" mask="url(#mask-8)"></path>
                    <polygon id="Fill-96" fill="#202020" mask="url(#mask-8)" points="44.051 113.501 44.03 113 44 113.404"></polygon>
                    <path d="M44.0000487,113.079659 L44.0890487,113.219659 C44.0880487,113.135659 44.0990487,113.086659 44.1120487,113.048659 C44.0580487,113.030659 43.9980487,112.932659 44.0000487,113.079659" id="Fill-97" fill="#202020" mask="url(#mask-8)"></path>
                    <path d="M44,113.083 C44.029,113.093 44.056,113.082 44.072,113 C44.057,113.005 44.023,113.021 44,113.083" id="Fill-98" fill="#202020" mask="url(#mask-8)"></path>
                    <polygon id="Fill-99" fill="#202020" mask="url(#mask-8)" points="44.089 113.141 44.063 113.037 44 113"></polygon>
                    <path d="M43.0987929,113 L43.0017929,113.144 C42.9927929,113.314 43.0187929,113.42 43.0547929,113.352 C43.0777929,113.232 43.1137929,113.166 43.0987929,113" id="Fill-100" fill="#202020" mask="url(#mask-8)"></path>
                    <path d="M44.046,114.381 C44.02,114.277 44.018,114.165 44.003,114 L44,114.62 L44.046,114.381 Z" id="Fill-101" fill="#202020" mask="url(#mask-8)"></path>
                    <path d="M43.0696994,114 C43.0606994,114.173 42.9296994,114.494 43.0516994,114.456 C43.0616994,114.285 43.1596994,114.142 43.0696994,114" id="Fill-102" fill="#202020" mask="url(#mask-8)"></path>
                    <polygon id="Fill-103" fill="#202020" mask="url(#mask-8)" points="43 114 43.025 113.991228 43.021 113"></polygon>
                    <path d="M41.0112206,114.781 C41.1262206,115.025 41.0382206,114.152 41.1422206,114.457 C41.1692206,114.217 41.0572206,114.208 41.0852206,114 C41.0162206,114.255 40.9802206,114.111 41.0112206,114.781" id="Fill-104" fill="#202020" mask="url(#mask-8)"></path>
                    <path d="M41,114.154 C41.011,114.114 41.022,114.065 41.035,114 C41.015,114.063 41.006,114.112 41,114.154" id="Fill-105" fill="#202020" mask="url(#mask-8)"></path>
                    <polygon id="Fill-106" fill="#202020" mask="url(#mask-8)" points="33.074 112.213 33 112 33.048 112.343"></polygon>
                    <path d="M33.062,112.648 L33.044,112 L33,112.586 C33.017,112.557 33.049,112.502 33.062,112.648" id="Fill-107" fill="#202020" mask="url(#mask-8)"></path>
                    <path d="M39.057,115.364 L39.063,115.208 C39.051,115.039 39.035,115.027 39,115 L39.057,115.364 Z" id="Fill-108" fill="#202020" mask="url(#mask-8)"></path>
                    <polygon id="Fill-109" fill="#202020" mask="url(#mask-8)" points="38.015 115.573 38.032 115.587 38 115"></polygon>
                    <path d="M38.0014077,115.322557 C38.0354077,115.346557 38.0754077,115.216557 38.1104077,115.241557 C38.0354077,115.346557 37.9914077,114.591557 38.0014077,115.322557" id="Fill-110" fill="#202020" mask="url(#mask-8)"></path>
                    <path d="M33.9822551,134.996719 C38.1945279,134.996719 42.4090882,134.963711 46.621933,134.999973 C47.2012206,135.004622 46.9747666,134.408623 46.8501025,134.214295 C46.6476664,133.900024 45.7063955,133.059489 45.2260386,133.048796 C40.9594396,132.949308 36.6785443,133.034385 32.409658,133.024622 C31.6942692,133.022762 32.0968541,133.774037 32.2724131,133.96418 C32.6532675,134.37701 33.295459,134.996719 33.9822551,134.996719" id="Fill-111" fill="#000000" mask="url(#mask-8)"></path>
                    <path d="M34.3673742,133.924989 C38.6692244,133.99888 42.9699127,133.95069 47.2717628,133.999951 C47.6819054,134.004235 48.0908862,133.725804 47.9822507,133.300125 C47.8898815,132.939236 46.9586369,132.050933 46.5339708,132.049863 C42.2704626,132.040225 38.0092782,132.052004 33.7469318,132.000066 C33.347827,131.995247 32.92258,132.253867 33.0120445,132.678474 C33.0869856,133.030797 33.9543269,133.918028 34.3673742,133.924989" id="Fill-112" fill="#000000" mask="url(#mask-8)"></path>
                    <path d="M35.1943656,135.978968 C39.3321346,135.994846 43.4721465,135.947848 47.6099155,135.999926 C48.4016935,136.010723 47.7680468,134.828794 47.6166445,134.628736 C47.1478581,134.004429 46.4216878,133.102581 45.6557043,133.056853 C43.6156984,132.936819 41.5487765,133.044151 39.5065276,133.044151 C37.4721292,133.044151 35.4388523,133.026368 33.4044539,133.007315 C32.6362273,133.000964 33.1683784,134.121923 33.3332387,134.361993 C33.7358567,134.951369 34.4676345,135.976428 35.1943656,135.978968" id="Fill-113" fill="#000000" mask="url(#mask-8)"></path>
                    <path d="M36.4684325,136.980723 C40.8351268,136.995167 45.2030016,136.975908 49.5696959,136.999982 C50.6498595,137.006 49.3678292,135.522462 49.2704374,135.414732 C48.5556406,134.625719 47.4223542,133.269169 46.3109071,133.095838 C45.7820401,133.012784 45.1888355,133.077783 44.6522952,133.07658 C43.0609722,133.074774 41.4702394,133.072367 39.8783261,133.069959 C37.7327551,133.066348 35.5877745,133.033247 33.4422035,133.000146 C32.3868305,132.983294 33.5360538,134.433731 33.657646,134.58058 C34.1918253,135.191449 34.7584685,135.769217 35.3575757,136.313883 C35.6544731,136.680404 36.0251522,136.902483 36.4684325,136.980723" id="Fill-114" fill="#000000" mask="url(#mask-8)"></path>
                    <path d="M36.8138425,135.97563 C41.0720113,135.99467 45.3313324,135.964523 49.5895013,135.999959 C50.5332005,136.007892 49.5716413,134.862309 49.4460452,134.733259 C48.8595459,134.133494 47.9267932,133.155041 46.9940405,133.067245 C46.4605451,133.016471 45.8999717,133.055081 45.3630195,133.054552 C43.8097759,133.052436 42.2553801,133.051378 40.7021365,133.049792 C38.608484,133.048205 36.5159838,133.024405 34.4234836,133.000076 C33.5051341,132.989498 34.3445539,134.091712 34.4908906,134.256197 C34.9673493,134.791966 35.9571387,135.971928 36.8138425,135.97563" id="Fill-115" fill="#000000" mask="url(#mask-8)"></path>
                    <path d="M33.7952053,133.999991 C37.9792981,133.976729 42.1628262,133.992942 46.3463544,133.997876 C47.4173602,133.999286 47.0362696,132.005142 46.17811,132.004437 C42.0030505,131.999503 37.8285556,131.988929 33.6529315,132.038977 C32.6101546,132.05096 32.935352,134.004925 33.7952053,133.999991" id="Fill-116" fill="#000000" mask="url(#mask-8)"></path>
                    <path d="M33.3171946,134.89233 C37.6363693,135.002654 41.9508916,134.960139 46.2706478,134.999963 C46.6730807,135.00373 47.086563,134.718501 46.9842101,134.299268 C46.8975591,133.942463 45.9996453,133.077089 45.5826737,133.076551 C41.3024629,133.071169 37.0257414,133.081394 32.7472752,133.000131 C32.3558918,132.993135 31.9272892,133.267062 32.0104509,133.680375 C32.080237,134.030723 32.9101094,134.881566 33.3171946,134.89233" id="Fill-117" fill="#000000" mask="url(#mask-8)"></path>
                    <path d="M34.732172,136.97462 C39.0173147,136.994027 43.3030373,136.961142 47.5876002,136.999957 C48.5175649,137.008044 47.6026745,135.867852 47.4710648,135.729304 C46.9017223,135.131983 45.9920499,134.164842 45.0788987,134.085055 C42.9998131,133.903379 40.8285427,134.069421 38.7436593,134.068343 C36.6373241,134.066726 34.5315686,134.043545 32.4258132,134.020363 C31.5219385,134.010121 32.3144957,135.10395 32.4669775,135.279157 C32.9331194,135.817177 33.8885943,136.970846 34.732172,136.97462" id="Fill-118" fill="#000000" mask="url(#mask-8)"></path>
                    <path d="M35.9577599,133.997607 C40.1742753,133.997129 44.3902182,133.988527 48.6067336,133.999997 C49.334765,134.001908 48.8608578,133.198566 48.6925863,133.027001 C48.2707631,132.596417 47.6199992,132.019597 46.9171512,132.015296 C42.7481411,131.989968 38.5779862,132.009084 34.4089761,132.000004 C33.700977,131.998092 34.0901762,132.764637 34.2658882,132.959618 C34.6465021,133.382078 35.2772337,133.998085 35.9577599,133.997607" id="Fill-119" fill="#000000" mask="url(#mask-8)"></path>
                    <path d="M34.0486774,135.995054 C38.2339727,135.996392 42.4221078,135.964705 46.6068352,135.999963 C47.3622216,136.006211 46.8254997,135.222511 46.6647671,135.06943 C46.2217585,134.648571 45.5487262,134.07954 44.817762,134.057672 C40.6921025,133.933601 36.5380449,134.050531 32.4084097,134.036249 C31.6751737,134.033571 32.1187502,134.775766 32.290842,134.954285 C32.6781905,135.355954 33.349519,135.994607 34.0486774,135.995054" id="Fill-120" fill="#000000" mask="url(#mask-8)"></path>
                    <path d="M35.2763986,133 C39.6232968,132.992408 43.9701949,132.973719 48.3165023,132.994744 C49.7768899,133.002336 48.5705341,131.000357 47.7180506,131.000357 C43.3965556,130.999189 39.0762422,131.000357 34.755338,131.012037 C34.3707456,131.013205 33.9306207,131.316305 34.0091933,131.751975 C34.074769,132.115812 34.8782185,133.000584 35.2763986,133" id="Fill-121" fill="#000000" mask="url(#mask-8)"></path>
                    <path d="M32.8413221,134.999994 C37.0097122,134.978782 41.1781024,134.993835 45.3464925,134.997941 C46.4665012,134.998625 45.9804703,133.004039 45.1321663,133.003354 C40.9716517,132.999933 36.8128247,132.989669 32.6523101,133.036883 C31.5598656,133.049199 31.9902055,135.004099 32.8413221,134.999994" id="Fill-122" fill="#000000" mask="url(#mask-8)"></path>
                    <polygon id="Fill-123" fill="#8399B1" mask="url(#mask-8)" points="33 159 46 159 46 155 33 155"></polygon>
                    <polygon id="Fill-124" fill="#C8D2D8" mask="url(#mask-8)" points="33 155 46 155 46 154 33 154"></polygon>
                    <polygon id="Fill-125" fill="#A0B3CA" mask="url(#mask-8)" points="33 155 46 155 46 148 33 148"></polygon>
                    <path d="M290.620656,27 L286.379918,27 C285.617951,27 285,26.382623 285,25.6206557 L285,21.379918 C285,20.6179508 285.617951,20 286.379918,20 L290.620656,20 C291.382623,20 292,20.6179508 292,21.379918 L292,25.6206557 C292,26.382623 291.382623,27 290.620656,27 Z" id="Stroke-126" stroke="#6582C4" stroke-width="3" mask="url(#mask-8)"></path>
                    <path d="M262,25.6206557 L262,21.379918 C262,20.6179508 262.617951,20 263.379918,20 L267.620656,20 C268.382623,20 269,20.6179508 269,21.379918 L269,25.6206557 C269,26.382623 268.382623,27 267.620656,27 L263.379918,27 C262.617951,27 262,26.382623 262,25.6206557 Z" id="Stroke-127" stroke="#6582C4" stroke-width="3" mask="url(#mask-8)"></path>
                    <path d="M237,25.6206557 L237,21.379918 C237,20.6179508 237.617377,20 238.379344,20 L242.620082,20 C243.382049,20 244,20.6179508 244,21.379918 L244,25.6206557 C244,26.382623 243.382049,27 242.620082,27 L238.379344,27 C237.617377,27 237,26.382623 237,25.6206557 Z" id="Stroke-128" stroke="#6582C4" stroke-width="3" mask="url(#mask-8)"></path>
                    <path d="M36,25.6206557 L36,21.379918 C36,20.6179508 36.6316613,20 37.4112582,20 L61.5881547,20 C62.3677516,20 63,20.6179508 63,21.379918 L63,25.6206557 C63,26.382623 62.3677516,27 61.5881547,27 L37.4112582,27 C36.6316613,27 36,26.382623 36,25.6206557 Z" id="Stroke-129" stroke="#6582C4" stroke-width="3" mask="url(#mask-8)"></path>
                    <path d="M151,97.2029037 L151,108.857637 C151,110.041589 150.018866,111 148.807109,111 C147.595353,111 146.614219,110.041589 146.614219,108.857637 L146.614219,97.2029037 C146.614219,94.4171999 144.404976,91.8518731 140.846956,90.5129677 L140.288161,90.3040686 L135.578719,88.535887 C130.289054,86.5438849 127,82.4519879 127,77.8504689 L127,66.1423635 C127,64.9584107 127.986773,64 129.192327,64 C130.404083,64 131.385217,64.9584107 131.385217,66.1423635 L131.385217,77.8504689 C131.385217,80.6361727 133.600099,83.1963344 137.157555,84.5352398 L137.738341,84.755043 L142.420154,86.5169117 C147.716021,88.5100615 151,92.6013847 151,97.2029037" id="Fill-130" fill="#252525" mask="url(#mask-8)"></path>
                    <path d="M132.469047,96.6277938 C131.915795,97.2715426 131.255832,98.297097 131.255832,99.5308026 L131.255832,109.817335 C131.255832,111.022975 130.303646,112 129.128189,112 C127.952186,112 127,111.022975 127,109.817335 L127,99.5308026 C127,97.4791092 127.786921,95.4759454 129.277037,93.7411565 C130.053561,92.8354645 131.394282,92.7477604 132.277516,93.5446991 C133.16075,94.3469001 133.245571,95.7215172 132.469047,96.6277938" id="Fill-131" fill="#252525" mask="url(#mask-8)"></path>
                    <path d="M150,66 C150,67.1047206 149.104454,68 148,68 C146.895546,68 146,67.1047206 146,66 C146,64.895822 146.895546,64 148,64 C149.104454,64 150,64.895822 150,66" id="Fill-132" fill="#2B61D8" mask="url(#mask-8)"></path>
                    <path d="M150,73 C150,74.1047206 149.104454,75 148,75 C146.895546,75 146,74.1047206 146,73 C146,71.895822 146.895546,71 148,71 C149.104454,71 150,71.895822 150,73" id="Fill-133" fill="#FDBF41" mask="url(#mask-8)"></path>
                    <path d="M149,81 C149,82.104178 148.104454,83 147,83 C145.895546,83 145,82.104178 145,81 C145,79.8952794 145.895546,79 147,79 C148.104454,79 149,79.8952794 149,81" id="Fill-134" fill="#FA6660" mask="url(#mask-8)"></path>
                    <path d="M147.614709,67 L132.385291,67 C132.172678,67 132,66.7755848 132,66.499269 C132,66.2236842 132.172678,66 132.385291,66 L147.614709,66 C147.827322,66 148,66.2236842 148,66.499269 C148,66.7755848 147.827322,67 147.614709,67" id="Fill-135" fill="#2B61D8" mask="url(#mask-8)"></path>
                    <path d="M148.601298,73 L136.39812,73 C136.178106,73 136,72.7763158 136,72.5 C136,72.2236842 136.178106,72 136.39812,72 L148.601298,72 C148.821312,72 149,72.2236842 149,72.5 C149,72.7763158 148.821312,73 148.601298,73" id="Fill-136" fill="#FDBF41" mask="url(#mask-8)"></path>
                    <path d="M145.627022,81 L139.372978,81 C139.167159,81 139,80.7763158 139,80.5 C139,80.2236842 139.167159,80 139.372978,80 L145.627022,80 C145.832841,80 146,80.2236842 146,80.5 C146,80.7763158 145.832841,81 145.627022,81" id="Fill-137" fill="#FA6660" mask="url(#mask-8)"></path>
                    <polygon id="Fill-138" fill="#FDBF41" mask="url(#mask-8)" points="202 120.781865 199.537606 124 189 115.789937 189 87 193.018478 87 193.018478 113.79442"></polygon>
                    <polygon id="Fill-139" fill="#2B61D8" mask="url(#mask-8)" points="231 142.607523 231 173 226.69698 173 226.69698 144.602154 218 138.217055 220.637219 135"></polygon>
                    <polygon id="Fill-140" fill="#000000" mask="url(#mask-8)" points="198 162.650181 193.226768 162.650181 193.226768 167.366733 198 167.366733 198 170 186 170 186 167.366733 190.70572 167.366733 190.70572 162.650181 186 162.650181 186 160 198 160"></polygon>
                    <polygon id="Fill-141" fill="#000000" mask="url(#mask-8)" points="198 149 186 149 186 142.015241 188.522233 142.015241 188.522233 146.541835 190.806988 146.541835 190.806988 142.435459 193.159256 142.435459 193.159256 146.541835 195.461185 146.541835 195.461185 142 198 142"></polygon>
                    <polygon id="Fill-142" fill="#000000" mask="url(#mask-8)" points="222 114 234 114 234 112 222 112"></polygon>
                    <polygon id="Fill-143" fill="#000000" mask="url(#mask-8)" points="228.025169 93.8502343 234 90 234 93.2139966 230.107388 95.5585854 234 97.8855986 234 101 227.991413 97.1661696 222 101 222 97.8182254 225.892612 95.4742224 222 93.1302194 222 90.0328078"></polygon>
                    <polygon id="Fill-144" fill="#FA6660" mask="url(#mask-8)" points="216 134 204 134 204 131.616516 213.444011 131.616516 213.444011 127 216 127"></polygon>
                    <polygon id="Fill-145" fill="#000000" mask="url(#mask-8)" points="203 169 218 169 218 168 203 168"></polygon>
                    <polygon id="Fill-146" fill="#000000" mask="url(#mask-8)" points="203 152 218 152 218 151 203 151"></polygon>
                    <polygon id="Fill-147" fill="#000000" mask="url(#mask-8)" points="205 161 215 161 215 160 205 160"></polygon>
                    <polygon id="Fill-148" fill="#000000" mask="url(#mask-8)" points="205 145 215 145 215 144 205 144"></polygon>
                    <polygon id="Fill-149" fill="#000000" mask="url(#mask-8)" points="203 109 218 109 218 108 203 108"></polygon>
                    <polygon id="Fill-150" fill="#000000" mask="url(#mask-8)" points="203 91 218 91 218 90 203 90"></polygon>
                    <polygon id="Fill-151" fill="#000000" mask="url(#mask-8)" points="205 100 215 100 215 99 205 99"></polygon>
                    <polygon id="Fill-152" fill="#000000" mask="url(#mask-8)" points="205 117 215 117 215 116 205 116"></polygon>
                    <g id="Group-155" mask="url(#mask-8)">
                        <g transform="translate(123.000000, 161.000000)">
                            <path d="M23.253451,35.8084125 L20.0469608,35.8084125 L20.0469608,26.32185 C20.0469608,24.12135 18.4223922,22.106475 15.8067059,21.0630375 L11.9582353,19.527975 C8.10407843,17.9906625 5.71015686,14.847975 5.71015686,11.3272875 L5.71015686,3.4894125 L3.27813725,3.4894125 L3.27813725,35.8084125 L0.0722156863,35.8084125 L0.0722156863,0.3180375 L8.91664706,0.3180375 L8.91664706,11.3272875 C8.91664706,13.5277875 10.5417843,15.543225 13.156902,16.5861 L17.0059412,18.121725 C20.8595294,19.658475 23.253451,22.8006 23.253451,26.32185 L23.253451,35.8084125 Z" id="Fill-153" fill="#2B61D8"></path>
                            <path d="M28.9458098,35.8084125 L25.7398882,35.8084125 L25.7398882,3.4894125 L23.2532804,3.4894125 L23.2532804,11.3272875 C23.2532804,14.847975 20.8593588,17.9901 17.0057706,19.5274125 L13.1567314,21.0630375 C10.5416137,22.106475 8.91647647,24.12135 8.91647647,26.32185 L8.91647647,35.8084125 L5.7105549,35.8084125 L5.7105549,26.32185 C5.7105549,22.8006 8.10447647,19.658475 11.9580647,18.121725 L15.8071039,16.5861 C18.4222216,15.543225 20.0473588,13.5277875 20.0473588,11.3272875 L20.0473588,0.3180375 L28.9458098,0.3180375 L28.9458098,35.8084125 Z" id="Fill-154" fill="#FDBF41"></path>
                        </g>
                    </g>
                    <path d="M300,270.499719 C300,275.194828 296.270345,279 291.668966,279 L276,279 L276,262 L291.668966,262 C296.270345,262 300,265.805172 300,270.499719" id="Fill-156" fill="#F4F4F4" mask="url(#mask-8)"></path>
                    <path d="M301,270.499719 C301,275.194828 296.852761,279 291.735583,279 L290,279 C295.116564,279 299.263804,275.194828 299.263804,270.499719 C299.263804,265.805172 295.116564,262 290,262 L291.735583,262 C296.852761,262 301,265.805172 301,270.499719" id="Fill-157" fill="#CECECE" mask="url(#mask-8)"></path>
                    <polygon id="Fill-158" fill="#F8F8F8" mask="url(#mask-8)" points="66 279 276 279 276 262 66 262"></polygon>
                    <polygon id="Fill-159" fill="#919191" mask="url(#mask-8)" points="265 279 276 279 276 262 265 262"></polygon>
                    <path d="M67,262 L67,279 C56.2572846,279 43,273.434276 43,273.434276 L43,267.562347 C43,267.562347 56.2572846,262 67,262" id="Fill-160" fill="#F8F8F8" mask="url(#mask-8)"></path>
                    <path d="M42.3320652,268 L42.3320652,268.729592 L43,268.729592 L43,272.273469 L42.3320652,272.273469 L42.3320652,273 C42.3320652,273 38.4673913,272.12449 36,270.501531 C38.4673913,268.87602 42.3320652,268 42.3320652,268" id="Fill-161" fill="#C9C9C9" mask="url(#mask-8)"></path>
                </g>
                <g id="Group-Copy-3" transform="translate(473.000000, 114.000000)" font-family="Lato-Bold, Lato" font-size="32" font-weight="bold" letter-spacing="1.42999995" line-spacing="50">
                    <g id="Group-3">
                        <text id="Branding-a-Biology-B" fill="#224C98">
                            <tspan x="1.94200047" y="33">Branding a Biology </tspan>
                            <tspan x="61.5180003" y="83">Based Club</tspan>
                        </text>
                        <text id="Branding-a-Biology-B" fill="#FFFFFF">
                            <tspan x="0.942000472" y="32">Branding a Biology </tspan>
                            <tspan x="60.5180003" y="82">Based Club</tspan>
                        </text>
                    </g>
                </g>
                <g id="Group-4-Copy-3" transform="translate(431.000000, 262.000000)">
                    <rect id="Rectangle-2" fill="#AFC3E7" x="0" y="0" width="379" height="63.3684211" rx="28"></rect>
                    <text id="Read-the-Helix-case" font-family="Lato-Bold, Lato" font-size="18" font-weight="bold" letter-spacing="1.42999995" fill="#193261">
                        <tspan x="69.1555007" y="38.6842105">Read the Helix case study</tspan>
                    </text>
                </g>
            </g>
        </g>
    </g>
</svg>