<svg id="Layer_1" data-name="Layer 1" xmlns="http://www.w3.org/2000/svg" xmlns:xlink="http://www.w3.org/1999/xlink" viewBox="0 0 434.11 152.11"><defs><style>.cls-1{fill:#fff;}.cls-2,.cls-6{opacity:0.5;}.cls-3{mask:url(#mask);}.cls-4,.cls-6{fill:#112d56;}.cls-5{mask:url(#mask-2-2);}.cls-7{mask:url(#mask-5);}.cls-8{fill:#515151;}.cls-9{fill:#d3d3d3;}.cls-10{mask:url(#mask-6-2);}.cls-11{fill:#4c4c4c;}.cls-12{fill:none;stroke:#000;stroke-width:2px;}.cls-13{fill:#202020;}.cls-14{fill:#8399b1;}.cls-15{fill:#c8d2d8;}.cls-16{fill:#a0b3ca;}.cls-17{fill:#252525;}.cls-18{fill:#2b61d8;}.cls-19{fill:#fdbf41;}.cls-20{fill:#fa6660;}.cls-21{fill:#f4f4f4;}.cls-22{fill:#cecece;}.cls-23{fill:#f8f8f8;}.cls-24{fill:#919191;}.cls-25{fill:#c9c9c9;}</style><mask id="mask" x="171.09" y="140.01" width="122.07" height="9.05" maskUnits="userSpaceOnUse"><g id="mask-2"><polygon id="path-1" class="cls-1" points="171.09 140.01 293.16 140.01 293.16 149.05 171.09 149.05 171.09 140.01"/></g></mask><mask id="mask-2-2" x="134.4" y="1.19" width="184.93" height="147.86" maskUnits="userSpaceOnUse"><g id="mask-4"><polygon id="path-3" class="cls-1" points="134.4 149.05 319.33 149.05 319.33 1.19 134.4 1.19 134.4 149.05"/></g></mask><mask id="mask-5" x="134.4" y="1.19" width="184.93" height="129.81" maskUnits="userSpaceOnUse"><g id="mask-6"><polygon id="path-5" class="cls-1" points="134.4 1.19 319.33 1.19 319.33 131 134.4 131 134.4 1.19"/></g></mask><mask id="mask-6-2" x="134.4" y="1.56" width="185.08" height="148.06" maskUnits="userSpaceOnUse"><g id="mask-8"><polygon id="path-7" class="cls-1" points="134.4 149.62 319.47 149.62 319.47 1.56 134.4 1.56 134.4 149.62"/></g></mask></defs><title>helix-card-img copy</title><g id="Group-8" class="cls-2"><g id="Group-3"><g class="cls-3"><path id="Fill-1" class="cls-4" d="M171.09,140H288.64a4.52,4.52,0,1,1,0,9H171.09Z"/></g></g><g class="cls-5"><polygon id="Fill-4" class="cls-4" points="274.82 149.05 280.13 149.05 280.13 140.01 274.82 140.01 274.82 149.05"/></g><g class="cls-5"><path id="Fill-6" class="cls-4" d="M171.66,140v9c-5.85,0-13.06-3-13.06-3V143s7.21-3,13.06-3"/></g><g class="cls-5"><path id="Fill-7" class="cls-4" d="M158.24,143.06v.43h.36v2.08h-.36V146a12.42,12.42,0,0,1-3.5-1.47,12.42,12.42,0,0,1,3.5-1.47"/></g></g><path id="Fill-9" class="cls-6" d="M317.36,126.35a6.24,6.24,0,0,1-6.11,6.35H142.09a6.24,6.24,0,0,1-6.11-6.35"/><g id="Group-13"><g class="cls-7"><path id="Fill-11" class="cls-8" d="M313.1,131H140.63a6.24,6.24,0,0,1-6.23-6.25V7.44a6.24,6.24,0,0,1,6.23-6.25H313.1a6.24,6.24,0,0,1,6.23,6.25V124.75A6.24,6.24,0,0,1,313.1,131"/></g></g><path id="Fill-14" d="M304,124.23H149.89a.68.68,0,0,1-.69-.68V9.11a.69.69,0,0,1,.69-.68H304a.69.69,0,0,1,.69.68V123.55a.68.68,0,0,1-.69.68"/><path id="Fill-16" class="cls-9" d="M301.34,122.12H151.47a.68.68,0,0,1-.68-.68V10.7a.67.67,0,0,1,.68-.68H301.34a.67.67,0,0,1,.68.68V121.44a.68.68,0,0,1-.68.68"/><path id="Fill-20" class="cls-1" d="M302,16.89H150.79V10.76a.72.72,0,0,1,.7-.74H301.33a.72.72,0,0,1,.69.74Z"/><g class="cls-10"><polygon id="Fill-22" class="cls-1" points="150.79 91.98 161.89 91.98 161.89 41.74 150.79 41.74 150.79 91.98"/></g><g class="cls-10"><polygon id="Fill-24" class="cls-11" points="150.79 53.38 151.85 53.38 151.85 47.03 150.79 47.03 150.79 53.38"/></g><g class="cls-10"><polygon id="Fill-25" class="cls-11" points="150.79 64.48 151.85 64.48 151.85 58.14 150.79 58.14 150.79 64.48"/></g><g class="cls-10"><polygon id="Fill-26" class="cls-11" points="150.79 75.06 151.85 75.06 151.85 68.71 150.79 68.71 150.79 75.06"/></g><g class="cls-10"><polygon id="Fill-27" class="cls-11" points="150.79 85.1 151.85 85.1 151.85 78.76 150.79 78.76 150.79 85.1"/></g><g class="cls-10"><polygon id="Fill-28" class="cls-1" points="185.16 117.36 275.06 117.36 275.06 22.18 185.16 22.18 185.16 117.36"/></g><g class="cls-10"><path id="Stroke-29" class="cls-12" d="M151.85,50.73h6.87"/></g><g class="cls-10"><path id="Fill-30" class="cls-13" d="M158.73,60.49a1.49,1.49,0,0,0,0-.24.67.67,0,0,0,0,.24"/></g><g class="cls-10"><polygon id="Fill-31" class="cls-13" points="158.76 60.34 158.76 60.25 158.72 60.47 158.76 60.34"/></g><g class="cls-10"><path id="Fill-32" class="cls-13" d="M158.19,60.4c0,.37.1-.07.15.07v.09l0-.31c-.06,0-.14.25-.18.15"/></g><g class="cls-10"><path id="Fill-33" class="cls-13" d="M158.2,60.25c0,.15,0,.13,0,0v0h0"/></g><g class="cls-10"><path id="Fill-34" class="cls-13" d="M158.2,60.31s0-.12,0,0"/></g><g class="cls-10"><path id="Fill-35" class="cls-13" d="M158.21,60.55l0-.13c0-.09,0-.11,0-.17a.48.48,0,0,0,0,.3"/></g><g class="cls-10"><path id="Fill-36" class="cls-13" d="M158.19,60.33l0,0s0-.05,0,0"/></g><g class="cls-10"><path id="Fill-37" class="cls-13" d="M158.23,60.25l0,.12c0,.06,0,.18,0,0,0,.11,0,0,0-.08"/></g><g class="cls-10"><path id="Fill-38" class="cls-13" d="M158.19,60.26a.37.37,0,0,1,0,.26c.07-.05.06-.31,0-.26"/></g><g class="cls-10"><path id="Fill-39" class="cls-13" d="M158.19,60.82l0,.11,0-.12c0,.06-.05-.1-.05,0"/></g><g class="cls-10"><path id="Fill-40" class="cls-13" d="M158.19,60.25c0,.08,0,.22,0,.32l0-.09a.8.8,0,0,1-.05-.23"/></g><g class="cls-10"><path id="Fill-41" class="cls-13" d="M158.23,60.25l0,.14s.05,0,0-.14"/></g><g class="cls-10"><polygon id="Fill-42" class="cls-13" points="158.21 60.54 158.27 60.25 158.19 60.55 158.21 60.54"/></g><g class="cls-10"><polygon id="Fill-43" class="cls-13" points="158.21 59.91 158.23 59.72 158.19 60 158.21 59.91"/></g><g class="cls-10"><path id="Fill-44" class="cls-13" d="M158.27,60.08c0-.16,0-.26,0-.36a.79.79,0,0,0-.08.28c0-.06.05,0,.08.08"/></g><g class="cls-10"><path id="Fill-45" class="cls-13" d="M158.19,60.42a1.08,1.08,0,0,0,0-.17,1.08,1.08,0,0,0,0,.17"/></g><g class="cls-10"><path id="Fill-46" class="cls-13" d="M158.23,60.48a1,1,0,0,0,0-.23l0,.23h0"/></g><g class="cls-10"><path id="Fill-47" class="cls-13" d="M158.23,60.27h0l0,0"/></g><g class="cls-10"><path id="Fill-48" class="cls-13" d="M158.2,60.25h0s0,0,0,0"/></g><g class="cls-10"><path id="Fill-49" class="cls-13" d="M158.24,60.25a1,1,0,0,0,0,.46,3.93,3.93,0,0,1,0-.46"/></g><g class="cls-10"><path id="Fill-50" class="cls-13" d="M158.19,60.41l.05.05a1.47,1.47,0,0,1,0-.21Z"/></g><g class="cls-10"><polygon id="Fill-51" class="cls-13" points="158.19 60.34 158.21 60.27 158.2 60.25 158.19 60.34"/></g><g class="cls-10"><path id="Fill-52" class="cls-13" d="M158.26,60.25c0,.1,0,.11-.07.12s.05.07.08.07,0-.2,0-.19"/></g><g class="cls-10"><path id="Fill-53" class="cls-13" d="M158.2,60.25h0s0,0,0,0"/></g><g class="cls-10"><path id="Fill-54" class="cls-13" d="M157.66,60.25a.06.06,0,0,1,0,0v0Z"/></g><g class="cls-10"><path id="Fill-55" class="cls-13" d="M158.2,60.33c0,.05,0,0,0-.08s0,0-.05,0,0,.05,0,0"/></g><g class="cls-10"><path id="Fill-56" class="cls-13" d="M158.19,60.27a.34.34,0,0,0,0,.12c0-.07,0-.18,0-.12"/></g><g class="cls-10"><path id="Fill-57" class="cls-13" d="M158.19,60.29h0c0-.05,0,0,0,0"/></g><g class="cls-10"><path id="Fill-58" class="cls-13" d="M158.22,60.25s0,.09,0,.14a.34.34,0,0,0,0-.08v-.06"/></g><g class="cls-10"><path id="Fill-59" class="cls-13" d="M157.71,60.78c0-.08,0-.15.1-.07a1.06,1.06,0,0,0,0-.46.18.18,0,0,1,0,.11s.1.1.06.18-.05,0-.08-.07-.07.14-.05.28l.05,0s0,.06,0,.08"/></g><g class="cls-10"><path id="Fill-60" class="cls-13" d="M157.74,60.56l0,0a1.58,1.58,0,0,1-.06-.29,1.41,1.41,0,0,0,0,.25l.09,0Z"/></g><g class="cls-10"><path id="Fill-61" class="cls-13" d="M158.27,60.35a2,2,0,0,0,0,.43s0-.14.07-.22,0-.09,0-.19l0,0a.56.56,0,0,1,0-.08h0v0h0s0,0,0,.06,0,0,0-.06v0h0l-.09.09s0,0,.08,0"/></g><g class="cls-10"><path id="Fill-62" class="cls-13" d="M158.2,60.83v0s0,0,0,0"/></g><g class="cls-10"><path id="Fill-63" class="cls-13" d="M158.23,61.24s0-.1,0-.08a.75.75,0,0,1,0,.15.36.36,0,0,0,0-.23v0a1.3,1.3,0,0,1-.08-.33c0,.17,0,.29,0,.46"/></g><g class="cls-10"><path id="Fill-64" class="cls-13" d="M158.26,60.78l-.07.11,0,.2V61c0,.05,0-.1,0-.19"/></g><g class="cls-10"><polygon id="Fill-65" class="cls-13" points="157.7 60.49 157.71 60.25 157.66 60.59 157.7 60.49"/></g><g class="cls-10"><polygon id="Fill-66" class="cls-13" points="157.69 60.46 157.69 60.25 157.66 60.38 157.69 60.46"/></g><g class="cls-10"><path id="Fill-67" class="cls-13" d="M154.51,61.84l0,.06a.14.14,0,0,0,0-.06"/></g><g class="cls-10"><path id="Fill-68" class="cls-13" d="M154.49,61.94v-.1a.58.58,0,0,0,0,.1"/></g><g class="cls-10"><path id="Fill-69" class="cls-13" d="M156.14,60.6c0-.2-.07-.5-.06-.26v.23s0,0,0,0"/></g><g class="cls-10"><path id="Fill-70" class="cls-13" d="M155,60.93V61c0-.08,0-.15,0-.22l0,.15"/></g><g class="cls-10"><path id="Fill-71" class="cls-13" d="M155.06,61.46l0-.15a.83.83,0,0,0,0,.15"/></g><g class="cls-10"><path id="Fill-72" class="cls-13" d="M154,61.84l0,.23s0-.12,0-.23"/></g><g class="cls-10"><path id="Fill-73" class="cls-13" d="M157.2,60.39a.5.5,0,0,0-.06-.14c0,.13.05.33.06.14"/></g><g class="cls-10"><path id="Fill-74" class="cls-13" d="M154.51,60.25a.59.59,0,0,0,0,.14.52.52,0,0,0,0-.14"/></g><g class="cls-10"><path id="Fill-75" class="cls-13" d="M157.14,60.35a.09.09,0,0,0,0,0s0-.07.06,0-.05-.16-.07,0"/></g><g class="cls-10"><path id="Fill-76" class="cls-13" d="M152.38,61.87v0"/></g><g class="cls-10"><path id="Fill-77" class="cls-13" d="M151.85,60.28s0,0,0,0,0,0,0,0"/></g><g class="cls-10"><path id="Fill-78" class="cls-13" d="M157.66,60.27s0,0,0,0"/></g><g class="cls-10"><path id="Fill-79" class="cls-13" d="M157.67,60.78a.49.49,0,0,1,0,.11.54.54,0,0,0,0-.11"/></g><g class="cls-10"><path id="Fill-80" class="cls-13" d="M157.14,60.78h0"/></g><g class="cls-10"><path id="Fill-81" class="cls-13" d="M157.69,60.32l0-.07,0,.07"/></g><g class="cls-10"><path id="Fill-82" class="cls-13" d="M157.66,60.27l0,0s0-.06,0,0"/></g><g class="cls-10"><path id="Fill-83" class="cls-13" d="M157.66,60.26s0,0,0,0a.08.08,0,0,1,0,0h0"/></g><g class="cls-10"><path id="Fill-84" class="cls-13" d="M153.45,61.33v0c0,.09,0,.08,0,0"/></g><g class="cls-10"><path id="Fill-85" class="cls-13" d="M156.08,61.33h0Z"/></g><g class="cls-10"><path id="Fill-86" class="cls-13" d="M155.55,61.84c0-.18,0-.16.07-.12l0-.41Z"/></g><g class="cls-10"><path id="Fill-87" class="cls-13" d="M153.27,60.66v0s0,0,0,0m4.12,0v-.06s0,0,0,0,0,.07,0,0m0-.07h0s0,0,0,0m-1.81,1s0,0,0,0,0,0,0,0m-.65.35s0,.12,0,0,0-.08,0,0m-.42.09,0,.11c0,.19-.06.13,0,.29,0-.4.11,0,.12-.44l0,.08s0,0,0,0c0,.19,0-.29.07-.24a.21.21,0,0,1,0,.14l0-.1s0,.08,0,.07l.06,0h0a1.06,1.06,0,0,1,0-.2c0,.06,0,0,0,.09l0-.1c0,.11,0,.21,0,.19,0,.4,0-.1.09.14l0,0c0,.22,0,.14.08.28a1.31,1.31,0,0,1,0-.45s0,0,0,0c0,.14,0,.11,0,.1v.19a.8.8,0,0,0,0-.24s0,.17,0,.29,0-.23,0-.27.06,0,.1-.12c0,.07,0,.12,0,.17l0-.15v.08c0-.06,0-.19,0-.24,0-.21.06.3.1.06,0,.06,0,.12,0,.19a1.48,1.48,0,0,0,.08-.32l0,.13a1.35,1.35,0,0,1,0-.45c0-.07,0-.13,0-.16l0-.1a1,1,0,0,1,0,.18v0a1.5,1.5,0,0,1,0,.29s0-.08,0-.12a1.37,1.37,0,0,0,0,.35.07.07,0,0,1,0,0v.08s0,0,0-.07v.12l.06.14a2.44,2.44,0,0,1,.15-.61,3.08,3.08,0,0,0,0,.43c0-.19-.06.08-.09,0s0,.11,0,.14l.06-.18c0,.15,0,.12,0,.18,0-.3.05-.2.07-.29,0,.1,0,.2,0,.18,0,.22,0-.35.07-.16,0,0,0,0,0,0s.06,0,.05.07h0s.16,0,.16-.25c0,0,0,.3,0,.35l.09-.84a4.61,4.61,0,0,1,0,.85s0,.06.06,0a1.85,1.85,0,0,1,0-.33,2.19,2.19,0,0,0,.06.33,1.05,1.05,0,0,1,0-.37c0,.05,0,.33,0,.37l.05-.34a2.53,2.53,0,0,0,0,.38c0-.07,0,0,.05,0l0-.08c.06,0,.06-.46.11-.44a1.75,1.75,0,0,0,0,.46,8.94,8.94,0,0,1,.1-.95v.1l0-.11c0,.25-.09.79-.12,1s0,.11,0,.11a.15.15,0,0,1,0,.14l.07.06c0-.2,0-.2,0-.37l-.07.21c0-.2,0-.56.09-.53s0,.35,0,.42,0-.13,0-.08l0,.11c0,.07,0-.27.08-.08,0,0,0,.26,0,.14s0-.93,0-1.09a2.92,2.92,0,0,1,.07.32c0,.18,0,.42,0,.58a.54.54,0,0,1,0-.15s0,.17,0,.15c0-.2.05,0,0-.17s0,0,.06,0a1.79,1.79,0,0,1,.05-.5s0,.12,0,.15.08.11.13.11a.92.92,0,0,1,0,.19s0-.1,0-.1c0,.17,0,0,0,.23a.48.48,0,0,1,.06-.23c0-.18-.05,0-.08,0a2,2,0,0,1,.09-.63c0-.06,0,.16,0,.13s.06-.44.13-.26,0,.32,0,.43-.06-.1-.08-.09l0,.07c0,.06,0,.1-.05,0,0,.14.13,0,.19.16a.47.47,0,0,0,0-.17v0c0-.13,0-.18,0-.24s.05-.23.09-.16V61s0-.1,0,0,.05.25.07,0l0-.12c0-.1,0-.29.08-.23,0-.18,0,0,0-.19,0,.26-.08,0,0,.26,0-.24,0-.1-.07-.31,0,.06,0,.12,0,.09a.07.07,0,0,1,0,.05h0a.64.64,0,0,1,0,.09c0,.13-.06.13-.07.2s0-.07,0-.13l0,.1c0-.13,0-.22,0-.29h0c0-.07,0-.1-.07-.05s0,.15,0,.05l-.06.08v0s-.1.22-.16,0c0,0,0,.08-.07,0v-.11s-.07-.12-.08,0c0-.31-.11-.07-.15-.12v.15s-.05,0-.08.09v.13c0,.11-.08-.09-.12-.08s0,0,0,0c-.05-.3-.11.21-.16,0,0,.05,0,0,0,0h0s0,0,0-.07a.56.56,0,0,0,0,.07s0,0,0,0v-.14h0s0,.07,0,.18,0,.05,0,.08c0-.23,0,.08,0-.17,0,.12-.07.09-.08.34v0s0,0,0,0V60.7l0,.24a.79.79,0,0,1,0-.31c0,.21,0,.08-.08.29V60.8s0,.16-.05.07-.17,0-.26-.24c0,.34,0-.15,0,.11a.62.62,0,0,1,0-.19c0,.08-.06-.13-.09.09,0-.08,0-.12,0-.17s0,.07,0,0a.36.36,0,0,1,0-.11s0,.27-.06.5c0-.11,0-.09,0,.06,0-.08,0-.16,0-.18s-.1-.12-.1.07c0-.05,0,0,0,0s0,0-.07,0v0c0,.23,0,.05-.06.08v0c-.06-.16,0,.08-.09-.11V61c0,.3,0-.18-.09-.07V61c0,.11-.05-.41-.07-.45a.07.07,0,0,1,0-.06c-.06-.18,0,.19-.05.23s0-.26,0-.27-.07.32-.11.13a.49.49,0,0,1,0,.21s-.08-.29-.1,0a.13.13,0,0,1,0-.06.66.66,0,0,0-.08.24c0-.49-.14.23-.14-.22l-.06,0v-.05s-.06.08-.07.19a.34.34,0,0,1,0-.1c-.06-.09-.06-.07-.12.16v-.15c0,.08-.09-.23-.15-.06v-.06c-.07.17-.16-.41-.19.12l0,.13c.06,0,0,.23,0,.32s-.06-.16,0-.19v0c0-.28-.08-.1-.08-.29-.11,0-.22-.14-.33-.15v.22h0c0-.05,0-.17,0-.16s0,.1,0,.14,0-.25,0-.25h0v0c0,.09,0,.18,0,.17s0-.13,0-.14,0,0,0,0l-.05,0,0,.17c0,.09-.05,0,0,.19,0-.3-.18-.11-.2-.2,0,.12-.06.12-.1.11s0,.22,0,.2c0-.39-.06-.17-.09-.46,0,.19-.08,0,0,.32,0,0,0-.15,0-.24-.06.15-.14-.1-.21-.05a.79.79,0,0,1,0,.21l0-.26s0,.3,0,.12a.47.47,0,0,1,0,.12c-.15-.25-.31.21-.46-.26,0,.1,0,.11,0,.11s0,.13,0,.2l-.07-.2c0,.2-.07,0-.07.2l0,0c0,.22,0,.49,0,.77,0-.25.08.37.13,0,0,.06,0,.09,0,.16,0-.12,0-.15.05-.09v0c.08,0,.11.09.2.17v-.14s0,.06,0,.09c0-.21-.05,0,0-.24,0,.28.13,0,.15.33,0,0,0-.17,0-.16v0a.49.49,0,0,1,0,.2s0,0,0,0,.07,0,.08,0l0-.06c.08-.08.17,0,.25-.14v-.07c0-.12,0,.08.11,0v0c0-.07,0-.1,0-.1s0,.15,0,.24c.07-.13,0-.1.08-.35v.11c0-.1,0-.15.05-.18s0,.17,0,.29.1-.24.13.11c0-.3-.05-.17,0-.23s0-.23.05-.2,0,.39.09.38,0,0,0,0,0-.1.06,0c0-.18,0,0,0-.22l-.05.06c0-.07.06-.34.1-.21s0,.11,0,.15,0,0,0,0c0,.24-.06,0-.09.23s.05-.17,0,.09c0-.33.05,0,.09-.21v.14s0-.09,0-.08l0,.18c0-.16.06.13.09,0s0-.17,0-.27,0,.36.13.3,0-.09,0-.15a.37.37,0,0,1,.05.15s0-.14,0-.23c0,.17,0-.07.05-.12v.14c.07.09,0-.29.08-.18l0,.19,0,0V62c0-.12,0-.09.07,0s0-.26,0-.26,0,.13,0,.11,0,.2,0,.07c0,0,0,.09,0,.14s0,0,.07,0l0,0,.06-.19a.33.33,0,0,1,0,.14s0-.09,0-.1a.75.75,0,0,1,0,.29l.06-.13s0,.14,0,.18.07-.22.11-.13,0,0,0-.06.08.17.12,0l0,.21c0-.05,0-.26,0-.34s0,.17,0,.23c0-.1.05-.32.09-.15s0,0,0,0"/></g><g class="cls-10"><path id="Fill-88" class="cls-13" d="M155,61.45c0-.05,0-.09,0-.14a.71.71,0,0,0,0,.14"/></g><g class="cls-10"><path id="Fill-89" class="cls-13" d="M154,61.84h0a.06.06,0,0,0,0,0Z"/></g><g class="cls-10"><path id="Fill-90" class="cls-13" d="M157.16,61.44a.51.51,0,0,1,0-.13.16.16,0,0,0,0,.13"/></g><g class="cls-10"><path id="Fill-91" class="cls-13" d="M157.71,60.25l-.05.07s0,0,0,.08,0-.14,0-.15"/></g><g class="cls-10"><path id="Fill-92" class="cls-13" d="M157.68,60.93s0,0,0,0v-.12a.15.15,0,0,0,0,.15"/></g><g class="cls-10"><path id="Fill-93" class="cls-13" d="M157.66,60.88c0,.21,0,.14.06.1h0c0-.3,0-.2-.06-.1"/></g><g class="cls-10"><path id="Fill-94" class="cls-13" d="M157.66,60.84a0,0,0,0,1,0,0c0-.12,0,0,0,0"/></g><g class="cls-10"><path id="Fill-95" class="cls-13" d="M157.69,60.51c0,.06,0-.27,0-.19,0-.27-.09.33,0,.19"/></g><g class="cls-10"><polygon id="Fill-96" class="cls-13" points="157.69 61.05 157.68 60.78 157.66 60.99 157.69 61.05"/></g><g class="cls-10"><path id="Fill-97" class="cls-13" d="M157.66,60.82l.05.08a.78.78,0,0,1,0-.09s-.06-.07-.06,0"/></g><g class="cls-10"><path id="Fill-98" class="cls-13" d="M157.66,60.82s0,0,0,0l0,0"/></g><g class="cls-10"><polygon id="Fill-99" class="cls-13" points="157.71 60.85 157.7 60.8 157.66 60.78 157.71 60.85"/></g><g class="cls-10"><path id="Fill-100" class="cls-13" d="M157.19,60.78l-.05.08c0,.09,0,.14,0,.11a.38.38,0,0,0,0-.19"/></g><g class="cls-10"><path id="Fill-101" class="cls-13" d="M157.69,61.51a.56.56,0,0,1,0-.2v.33Z"/></g><g class="cls-10"><path id="Fill-102" class="cls-13" d="M157.17,61.31c0,.09-.07.26,0,.24s.06-.17,0-.24"/></g><g class="cls-10"><polygon id="Fill-103" class="cls-13" points="157.13 61.31 157.15 61.3 157.15 60.78 157.13 61.31"/></g><g class="cls-10"><path id="Fill-104" class="cls-13" d="M156.08,61.72c.06.13,0-.33.07-.17,0-.13,0-.13,0-.24a.8.8,0,0,0,0,.41"/></g><g class="cls-10"><path id="Fill-105" class="cls-13" d="M156.08,61.39a.31.31,0,0,1,0-.08.31.31,0,0,0,0,.08"/></g><g class="cls-10"><polygon id="Fill-106" class="cls-13" points="151.89 60.36 151.85 60.25 151.87 60.43 151.89 60.36"/></g><g class="cls-10"><path id="Fill-107" class="cls-13" d="M151.88,60.59v-.34l0,.31s0,0,0,0"/></g><g class="cls-10"><path id="Fill-108" class="cls-13" d="M155.05,62V62c0-.09,0-.1,0-.11Z"/></g><g class="cls-10"><polygon id="Fill-109" class="cls-13" points="154.5 62.14 154.51 62.15 154.49 61.84 154.5 62.14"/></g><g class="cls-10"><path id="Fill-110" class="cls-13" d="M154.49,62s0-.06.06,0-.06-.35-.06,0"/></g><g class="cls-10"><path id="Fill-111" d="M152.37,72.41c2.22,0,4.45,0,6.68,0,.31,0,.19-.31.12-.41a1.76,1.76,0,0,0-.86-.62c-2.25,0-4.52,0-6.77,0-.38,0-.17.4-.08.5a1.45,1.45,0,0,0,.91.54"/></g><g class="cls-10"><path id="Fill-112" d="M152.57,71.84c2.28,0,4.55,0,6.82,0,.22,0,.44-.14.38-.37s-.54-.66-.77-.66c-2.25,0-4.5,0-6.76,0-.21,0-.43.13-.39.36s.5.65.72.65"/></g><g class="cls-10"><path id="Fill-113" d="M153,72.93c2.19,0,4.37,0,6.56,0,.42,0,.09-.62,0-.72-.25-.33-.64-.81-1-.83-1.08-.07-2.17,0-3.25,0l-3.23,0c-.41,0-.12.59,0,.72.22.31.6.85,1,.85"/></g><g class="cls-10"><path id="Fill-114" d="M153.68,73.46h6.93c.57,0-.11-.78-.16-.84-.38-.41-1-1.13-1.56-1.22a5.17,5.17,0,0,0-.88,0h-2.53l-3.4,0c-.56,0,0,.75.12.83.28.32.58.63.89.92a1,1,0,0,0,.59.35"/></g><g class="cls-10"><path id="Fill-115" d="M153.86,72.93c2.26,0,4.51,0,6.76,0,.5,0,0-.6-.08-.67a2.63,2.63,0,0,0-1.29-.88,8.38,8.38,0,0,0-.87,0h-2.46l-3.32,0c-.49,0,0,.57,0,.66.25.28.77.91,1.22.91"/></g><g class="cls-10"><path id="Fill-116" d="M152.27,71.88h6.63c.57,0,.37-1-.08-1-2.21,0-4.42,0-6.63,0-.55,0-.38,1,.08,1"/></g><g class="cls-10"><path id="Fill-117" d="M152,72.36c2.28,0,4.56,0,6.84,0,.22,0,.44-.15.38-.37a1.27,1.27,0,0,0-.74-.64c-2.26,0-4.52,0-6.79,0-.2,0-.43.14-.39.36a1.26,1.26,0,0,0,.7.64"/></g><g class="cls-10"><path id="Fill-118" d="M152.76,73.46c2.27,0,4.54,0,6.8,0,.49,0,0-.6-.06-.67a2.4,2.4,0,0,0-1.27-.87c-1.09-.1-2.24,0-3.35,0l-3.34,0c-.47,0-.06.57,0,.66.24.29.75.9,1.19.9"/></g><g class="cls-10"><path id="Fill-119" d="M153.41,71.88h6.69c.38,0,.13-.42.05-.51a1.49,1.49,0,0,0-.94-.53c-2.21,0-4.41,0-6.62,0-.37,0-.17.4-.07.5a1.36,1.36,0,0,0,.89.55"/></g><g class="cls-10"><path id="Fill-120" d="M152.4,72.94c2.22,0,4.43,0,6.64,0,.4,0,.12-.41,0-.49a1.64,1.64,0,0,0-1-.53c-2.19-.07-4.38,0-6.57,0-.38,0-.15.39-.06.49a1.53,1.53,0,0,0,.93.55"/></g><g class="cls-10"><path id="Fill-121" d="M153.05,71.36c2.3,0,4.6,0,6.9,0,.77,0,.13-1-.32-1h-6.85c-.21,0-.44.17-.4.4s.46.66.67.66"/></g><g class="cls-10"><path id="Fill-122" d="M151.76,72.41h6.62c.59,0,.33-1-.12-1-2.2,0-4.4,0-6.6,0-.57,0-.35,1,.1,1"/></g><g class="cls-10"><polygon id="Fill-123" class="cls-14" points="151.85 85.1 158.72 85.1 158.72 82.99 151.85 82.99 151.85 85.1"/></g><g class="cls-10"><polygon id="Fill-124" class="cls-15" points="151.85 82.99 158.72 82.99 158.72 82.46 151.85 82.46 151.85 82.99"/></g><g class="cls-10"><polygon id="Fill-125" class="cls-16" points="151.85 82.99 158.72 82.99 158.72 79.29 151.85 79.29 151.85 82.99"/></g><g class="cls-10"><path id="Fill-130" class="cls-17" d="M214.24,52.43v6.16a1.16,1.16,0,0,1-2.31,0V52.43c0-1.48-1.17-2.83-3.05-3.54l-.3-.11-2.49-.94c-2.8-1.05-4.54-3.21-4.54-5.65V36a1.16,1.16,0,0,1,2.32,0v6.19c0,1.48,1.17,2.83,3,3.54l.31.11,2.48.94c2.8,1,4.53,3.21,4.53,5.65"/></g><g class="cls-10"><path id="Fill-131" class="cls-17" d="M204.45,52.12a2.41,2.41,0,0,0-.65,1.54V59.1a1.13,1.13,0,1,1-2.25,0V53.66a4.65,4.65,0,0,1,1.21-3.06,1.1,1.1,0,0,1,1.58-.11,1.17,1.17,0,0,1,.11,1.63"/></g><g class="cls-10"><path id="Fill-132" class="cls-18" d="M213.72,35.93a1.06,1.06,0,1,1-1.06-1.06,1.06,1.06,0,0,1,1.06,1.06"/></g><g class="cls-10"><path id="Fill-133" class="cls-19" d="M213.72,39.63a1.06,1.06,0,0,1-2.12,0,1.06,1.06,0,1,1,2.12,0"/></g><g class="cls-10"><path id="Fill-134" class="cls-20" d="M213.19,43.86a1.06,1.06,0,1,1-1.06-1.06,1.07,1.07,0,0,1,1.06,1.06"/></g><g class="cls-10"><path id="Fill-135" class="cls-18" d="M212.45,36.46h-8c-.11,0-.2-.12-.2-.27a.24.24,0,0,1,.2-.26h8a.24.24,0,0,1,.21.26.24.24,0,0,1-.21.27"/></g><g class="cls-10"><path id="Fill-136" class="cls-19" d="M213,39.63h-6.46a.25.25,0,0,1-.21-.27.25.25,0,0,1,.21-.26H213a.25.25,0,0,1,.21.26.25.25,0,0,1-.21.27"/></g><g class="cls-10"><path id="Fill-137" class="cls-20" d="M211.4,43.86h-3.3c-.11,0-.2-.12-.2-.27a.24.24,0,0,1,.2-.26h3.3a.24.24,0,0,1,.2.26c0,.15-.09.27-.2.27"/></g><g class="cls-10"><polygon id="Fill-138" class="cls-19" points="241.21 64.89 239.91 66.6 234.34 62.26 234.34 47.03 236.46 47.03 236.46 61.2 241.21 64.89"/></g><g class="cls-10"><polygon id="Fill-139" class="cls-18" points="256.55 76.44 256.55 92.51 254.27 92.51 254.27 77.49 249.67 74.11 251.07 72.41 256.55 76.44"/></g><g class="cls-10"><polygon id="Fill-140" points="239.1 87.03 236.57 87.03 236.57 89.53 239.1 89.53 239.1 90.92 232.75 90.92 232.75 89.53 235.24 89.53 235.24 87.03 232.75 87.03 232.75 85.63 239.1 85.63 239.1 87.03"/></g><g class="cls-10"><polygon id="Fill-141" points="239.1 79.82 232.75 79.82 232.75 76.12 234.09 76.12 234.09 78.52 235.29 78.52 235.29 76.34 236.54 76.34 236.54 78.52 237.75 78.52 237.75 76.11 239.1 76.11 239.1 79.82"/></g><g class="cls-10"><polygon id="Fill-142" points="251.79 61.31 258.13 61.31 258.13 60.25 251.79 60.25 251.79 61.31"/></g><g class="cls-10"><polygon id="Fill-143" points="254.97 50.65 258.13 48.62 258.13 50.32 256.07 51.56 258.13 52.79 258.13 54.44 254.96 52.41 251.79 54.44 251.79 52.75 253.85 51.51 251.79 50.27 251.79 48.63 254.97 50.65"/></g><g class="cls-10"><polygon id="Fill-144" class="cls-20" points="248.62 71.89 242.27 71.89 242.27 70.62 247.26 70.62 247.26 68.18 248.62 68.18 248.62 71.89"/></g><g class="cls-10"><polygon id="Fill-145" points="241.74 90.39 249.67 90.39 249.67 89.86 241.74 89.86 241.74 90.39"/></g><g class="cls-10"><polygon id="Fill-146" points="241.74 81.4 249.67 81.4 249.67 80.87 241.74 80.87 241.74 81.4"/></g><g class="cls-10"><polygon id="Fill-147" points="242.8 86.16 248.09 86.16 248.09 85.63 242.8 85.63 242.8 86.16"/></g><g class="cls-10"><polygon id="Fill-148" points="242.8 77.7 248.09 77.7 248.09 77.17 242.8 77.17 242.8 77.7"/></g><g class="cls-10"><polygon id="Fill-149" points="241.74 58.66 249.67 58.66 249.67 58.14 241.74 58.14 241.74 58.66"/></g><g class="cls-10"><polygon id="Fill-150" points="241.74 49.15 249.67 49.15 249.67 48.62 241.74 48.62 241.74 49.15"/></g><g class="cls-10"><polygon id="Fill-151" points="242.8 53.91 248.09 53.91 248.09 53.38 242.8 53.38 242.8 53.91"/></g><g class="cls-10"><polygon id="Fill-152" points="242.8 62.9 248.09 62.9 248.09 62.37 242.8 62.37 242.8 62.9"/></g><g class="cls-10"><g id="Group-155"><path id="Fill-153" class="cls-18" d="M211.73,105.1H210v-5a3.17,3.17,0,0,0-2.24-2.78l-2-.81a4.8,4.8,0,0,1-3.3-4.34V88h-1.29V105.1h-1.69V86.33h4.67v5.82a3.16,3.16,0,0,0,2.25,2.78l2,.81a4.81,4.81,0,0,1,3.3,4.34Z"/><path id="Fill-154" class="cls-19" d="M214.74,105.1h-1.69V88h-1.32v4.14a4.81,4.81,0,0,1-3.3,4.34l-2,.81a3.17,3.17,0,0,0-2.25,2.78v5h-1.69v-5a4.81,4.81,0,0,1,3.3-4.34l2-.81A3.16,3.16,0,0,0,210,92.15V86.33h4.7Z"/></g></g><g class="cls-10"><path id="Fill-156" class="cls-21" d="M293,144.06a4.45,4.45,0,0,1-4.4,4.5h-8.29v-9h8.29a4.45,4.45,0,0,1,4.4,4.49"/></g><g class="cls-10"><path id="Fill-157" class="cls-22" d="M293.56,144.06a4.71,4.71,0,0,1-4.9,4.5h-.91a4.51,4.51,0,1,0,0-9h.91a4.71,4.71,0,0,1,4.9,4.49"/></g><g class="cls-10"><polygon id="Fill-158" class="cls-23" points="169.3 148.56 280.34 148.56 280.34 139.57 169.3 139.57 169.3 148.56"/></g><g class="cls-10"><polygon id="Fill-159" class="cls-24" points="274.53 148.56 280.34 148.56 280.34 139.57 274.53 139.57 274.53 148.56"/></g><g class="cls-10"><path id="Fill-160" class="cls-23" d="M169.83,139.57v9c-5.68,0-12.69-2.94-12.69-2.94v-3.11s7-2.94,12.69-2.94"/></g><g class="cls-10"><path id="Fill-161" class="cls-25" d="M156.78,142.74v.39h.36V145h-.36v.39a12.38,12.38,0,0,1-3.35-1.33,12.57,12.57,0,0,1,3.35-1.32"/></g></svg>