<svg id="Layer_1" data-name="Layer 1" xmlns="http://www.w3.org/2000/svg" xmlns:xlink="http://www.w3.org/1999/xlink" viewBox="0 0 800 375"><defs><style>.cls-1,.cls-2,.cls-3,.cls-38,.cls-39,.cls-40,.cls-41,.cls-42,.cls-43,.cls-44,.cls-45,.cls-46,.cls-47,.cls-48,.cls-49,.cls-50,.cls-51,.cls-52,.cls-53,.cls-54{fill:none;}.cls-1,.cls-55{stroke:#00c600;}.cls-1,.cls-2,.cls-3,.cls-38,.cls-39,.cls-40,.cls-41,.cls-42,.cls-43,.cls-44,.cls-45,.cls-46,.cls-47,.cls-48,.cls-49,.cls-50,.cls-51,.cls-52,.cls-53,.cls-54,.cls-55,.cls-56,.cls-57{stroke-miterlimit:10;}.cls-1,.cls-2,.cls-3,.cls-39,.cls-40,.cls-41,.cls-42,.cls-43,.cls-44,.cls-45,.cls-46,.cls-47,.cls-48,.cls-49,.cls-53,.cls-55,.cls-56,.cls-57{stroke-width:2px;}.cls-2,.cls-57{stroke:#2d2d2d;}.cls-3{stroke:#afafaf;}.cls-11,.cls-36,.cls-37,.cls-4{font-size:12px;}.cls-4{font-family:CircularStd-Bold, Circular Std;font-weight:700;}.cls-5{letter-spacing:0.01em;}.cls-6{letter-spacing:-0.02em;}.cls-37,.cls-7{letter-spacing:0em;}.cls-8{letter-spacing:0em;}.cls-9{letter-spacing:-0.01em;}.cls-10{letter-spacing:-0.02em;}.cls-11,.cls-36,.cls-37{font-family:CircularStd-Medium, Circular Std;}.cls-12{letter-spacing:0em;}.cls-13{letter-spacing:-0.01em;}.cls-14{letter-spacing:0em;}.cls-15{letter-spacing:0em;}.cls-16{letter-spacing:0em;}.cls-17{letter-spacing:-0.02em;}.cls-18{letter-spacing:0em;}.cls-19{letter-spacing:-0.01em;}.cls-20{letter-spacing:0em;}.cls-21{letter-spacing:-0.02em;}.cls-22{letter-spacing:0em;}.cls-23{letter-spacing:-0.01em;}.cls-24{letter-spacing:-0.04em;}.cls-25{letter-spacing:0em;}.cls-26{letter-spacing:0em;}.cls-27{letter-spacing:0em;}.cls-28{letter-spacing:-0.04em;}.cls-29{letter-spacing:0em;}.cls-30{letter-spacing:-0.04em;}.cls-31{letter-spacing:0em;}.cls-32{letter-spacing:-0.04em;}.cls-33{letter-spacing:0em;}.cls-34{letter-spacing:-0.01em;}.cls-35{letter-spacing:0.01em;}.cls-36{letter-spacing:-0.02em;}.cls-38,.cls-50,.cls-51,.cls-52,.cls-54{stroke-width:4px;}.cls-38{stroke:url(#linear-gradient);}.cls-39{stroke:url(#linear-gradient-2);}.cls-40{stroke:url(#linear-gradient-3);}.cls-41{stroke:url(#linear-gradient-4);}.cls-42{stroke:url(#linear-gradient-5);}.cls-43{stroke:url(#linear-gradient-6);}.cls-44{stroke:url(#linear-gradient-7);}.cls-45{stroke:url(#linear-gradient-8);}.cls-46{stroke:url(#linear-gradient-9);}.cls-47{stroke:url(#linear-gradient-10);}.cls-48{stroke:url(#linear-gradient-11);}.cls-49{stroke:url(#linear-gradient-12);}.cls-50{stroke:url(#linear-gradient-13);}.cls-51{stroke:url(#linear-gradient-14);}.cls-52{stroke:url(#linear-gradient-15);}.cls-53,.cls-56{stroke:#c40000;}.cls-54{stroke:url(#linear-gradient-16);}.cls-55{fill:#00c600;}.cls-56{fill:#c40000;}.cls-57{fill:#2d2d2d;}</style><linearGradient id="linear-gradient" x1="2.91" y1="79.5" x2="102.91" y2="79.5" gradientUnits="userSpaceOnUse"><stop offset="0" stop-color="#50007f"/><stop offset="0.13" stop-color="#5d098e"/><stop offset="1" stop-color="#b243ff"/></linearGradient><linearGradient id="linear-gradient-2" x1="4" y1="176" x2="102" y2="176" gradientUnits="userSpaceOnUse"><stop offset="0" stop-color="#0049a8"/><stop offset="1" stop-color="#1ca2e3"/></linearGradient><linearGradient id="linear-gradient-3" x1="303" x2="423" xlink:href="#linear-gradient-2"/><linearGradient id="linear-gradient-4" x1="487.86" y1="176.07" x2="607.86" y2="176.07" xlink:href="#linear-gradient-2"/><linearGradient id="linear-gradient-5" x1="656.5" y1="176.5" x2="776.5" y2="176.5" xlink:href="#linear-gradient-2"/><linearGradient id="linear-gradient-6" x1="478" y1="250" x2="618" y2="250" xlink:href="#linear-gradient-2"/><linearGradient id="linear-gradient-7" x1="477.86" y1="324" x2="617.86" y2="324" xlink:href="#linear-gradient-2"/><linearGradient id="linear-gradient-8" x1="140" x2="264" xlink:href="#linear-gradient-2"/><linearGradient id="linear-gradient-9" x1="301" y1="250" x2="425" y2="250" xlink:href="#linear-gradient-2"/><linearGradient id="linear-gradient-10" x1="140" y1="250" x2="264" y2="250" xlink:href="#linear-gradient-2"/><linearGradient id="linear-gradient-11" x1="140.5" y1="324.5" x2="264.5" y2="324.5" xlink:href="#linear-gradient-2"/><linearGradient id="linear-gradient-12" y1="250" y2="250" xlink:href="#linear-gradient-2"/><linearGradient id="linear-gradient-13" x1="152" y1="80" x2="252" y2="80" xlink:href="#linear-gradient"/><linearGradient id="linear-gradient-14" x1="470.73" y1="80" x2="625" y2="80" xlink:href="#linear-gradient"/><linearGradient id="linear-gradient-15" x1="662" y1="80" x2="772" y2="80" xlink:href="#linear-gradient"/><linearGradient id="linear-gradient-16" x1="298.33" y1="79.26" x2="428" y2="79.26" xlink:href="#linear-gradient"/></defs><title>hiven_userflow-old</title><path class="cls-1" d="M617.5,250H625a19.5,19.5,0,0,0,19.5-19.5V99.5A19.5,19.5,0,0,1,664,80h0a19.5,19.5,0,0,0-19.5,19.5v57A19.5,19.5,0,0,1,625,176H606.5"/><path class="cls-1" d="M616.5,324h8a20,20,0,0,0,20-20V100a20,20,0,0,1,20-20h0"/><path class="cls-2" d="M263.5,176h0a16,16,0,0,0,16-16V99a16,16,0,0,1,16-16h4.83"/><line class="cls-3" x1="52.33" y1="111.5" x2="52.33" y2="151.5"/><line class="cls-3" x1="52.5" y1="201" x2="52.5" y2="225"/><line class="cls-3" x1="202.33" y1="111.5" x2="202.33" y2="151.5"/><line class="cls-3" x1="202.5" y1="201" x2="202.5" y2="225"/><line class="cls-3" x1="548.5" y1="201" x2="548.5" y2="225"/><line class="cls-3" x1="548.5" y1="275" x2="548.5" y2="299"/><line class="cls-3" x1="202.5" y1="275" x2="202.5" y2="299"/><line class="cls-3" x1="363.33" y1="111.5" x2="363.33" y2="151.5"/><line class="cls-3" x1="548.5" y1="112" x2="548.5" y2="152"/><line class="cls-3" x1="716.5" y1="112" x2="716.5" y2="152"/><line class="cls-3" x1="363.5" y1="201" x2="363.5" y2="225"/><text class="cls-4" transform="translate(15.24 82.83)"><tspan class="cls-5">L</tspan><tspan x="6.79" y="0">anding </tspan><tspan class="cls-6" x="48.06" y="0">P</tspan><tspan class="cls-7" x="55.12" y="0">a</tspan><tspan class="cls-8" x="61.56" y="0">ge</tspan></text><text class="cls-4" transform="translate(169.04 82.83)"><tspan class="cls-9">P</tspan><tspan class="cls-7" x="7.13" y="0">r</tspan><tspan x="11.8" y="0">ofile </tspan><tspan class="cls-10" x="39.28" y="0">P</tspan><tspan class="cls-7" x="46.33" y="0">a</tspan><tspan x="52.78" y="0">ge</tspan></text><text class="cls-11" transform="translate(324.92 179.83)">In<tspan class="cls-12" x="10.39" y="0">p</tspan><tspan x="17.6" y="0">ut </tspan><tspan class="cls-13" x="31.88" y="0">A</tspan><tspan class="cls-8" x="40.3" y="0">dd</tspan><tspan class="cls-14" x="54.74" y="0">r</tspan><tspan class="cls-8" x="59.27" y="0">ess</tspan></text><text class="cls-11" transform="translate(506.02 179.77)"><tspan class="cls-7">I</tspan><tspan x="3.48" y="0">deal </tspan><tspan class="cls-15" x="29.83" y="0">L</tspan><tspan x="36.47" y="0">o</tspan><tspan class="cls-12" x="43.42" y="0">c</tspan><tspan class="cls-7" x="49.87" y="0">a</tspan><tspan class="cls-16" x="56.23" y="0">t</tspan><tspan x="60.63" y="0">io</tspan><tspan class="cls-17" x="70.76" y="0">n</tspan><tspan x="77.45" y="0">?</tspan></text><text class="cls-11" transform="translate(694.41 172.77)"><tspan class="cls-18">B<tspan class="cls-8" x="7.34" y="0">ooking</tspan></tspan><tspan class="cls-10" x="-14.04" y="14.4">C</tspan><tspan class="cls-8" x="-5.16" y="14.4">onfi</tspan><tspan class="cls-16" x="16.1" y="14.4">r</tspan><tspan class="cls-8" x="20.69" y="14.4">m</tspan><tspan class="cls-7" x="31.16" y="14.4">a</tspan><tspan class="cls-16" x="37.52" y="14.4">t</tspan><tspan x="41.93" y="14.4">ion</tspan></text><text class="cls-11" transform="translate(492.21 254.83)"><tspan class="cls-7">I</tspan><tspan x="3.48" y="0">deal </tspan><tspan class="cls-18" x="29.83" y="0">B</tspan><tspan x="37.18" y="0">ooking </tspan><tspan class="cls-19" x="77.71" y="0">T</tspan><tspan class="cls-20" x="84.84" y="0">im</tspan><tspan class="cls-21" x="98.49" y="0">e</tspan><tspan x="104.79" y="0">?</tspan></text><text class="cls-11" transform="translate(502.22 329.83)"><tspan class="cls-7">I</tspan><tspan class="cls-20" x="3.48" y="0">deal </tspan><tspan class="cls-14" x="29.83" y="0">A</tspan><tspan x="38.33" y="0">meni</tspan><tspan class="cls-22" x="65.45" y="0">t</tspan><tspan class="cls-20" x="69.85" y="0">ie</tspan><tspan class="cls-14" x="79.61" y="0">s</tspan><tspan x="85.05" y="0">?</tspan></text><text class="cls-11" transform="translate(317.11 248.83)">Vi<tspan class="cls-23" x="11.27" y="0">e</tspan><tspan x="17.76" y="0">w </tspan><tspan class="cls-24" x="30.5" y="0">W</tspan><tspan class="cls-8" x="42.26" y="0">o</tspan><tspan class="cls-25" x="49.21" y="0">r</tspan><tspan class="cls-8" x="53.8" y="0">ksp</tspan><tspan class="cls-26" x="73.06" y="0">a</tspan><tspan class="cls-27" x="79.43" y="0">c</tspan><tspan x="85.86" y="0">e</tspan><tspan x="24.33" y="14.4">O</tspan><tspan class="cls-12" x="33.99" y="14.4">p</tspan><tspan class="cls-16" x="41.2" y="14.4">t</tspan><tspan class="cls-20" x="45.61" y="14.4">ions</tspan></text><text class="cls-11" transform="translate(155.99 179.83)"><tspan class="cls-18">B</tspan><tspan class="cls-8" x="7.34" y="0">ook </tspan><tspan class="cls-28" x="30.74" y="0">W</tspan><tspan class="cls-8" x="42.5" y="0">o</tspan><tspan class="cls-25" x="49.45" y="0">r</tspan><tspan class="cls-8" x="54.04" y="0">ksp</tspan><tspan class="cls-26" x="73.29" y="0">a</tspan><tspan class="cls-27" x="79.67" y="0">c</tspan><tspan x="86.1" y="0">e</tspan></text><text class="cls-4" transform="translate(310.99 75.58)"><tspan class="cls-29">S</tspan><tspan class="cls-8" x="7.2" y="0">ea</tspan><tspan class="cls-7" x="20.3" y="0">r</tspan><tspan class="cls-20" x="24.97" y="0">ch </tspan><tspan class="cls-30" x="41.54" y="0">W</tspan><tspan class="cls-8" x="53.41" y="0">o</tspan><tspan class="cls-31" x="60.42" y="0">r</tspan><tspan x="65.15" y="0">ksp</tspan><tspan class="cls-7" x="84.73" y="0">a</tspan><tspan class="cls-27" x="91.17" y="0">c</tspan><tspan x="97.71" y="0">e</tspan><tspan class="cls-10" x="38.53" y="14.4">P</tspan><tspan class="cls-7" x="45.58" y="14.4">a</tspan><tspan x="52.03" y="14.4">ge</tspan></text><text class="cls-4" transform="translate(482.28 78.83)"><tspan class="cls-32">W</tspan><tspan x="11.87" y="0">o</tspan><tspan class="cls-33" x="18.88" y="0">r</tspan><tspan class="cls-20" x="23.6" y="0">ksp</tspan><tspan class="cls-7" x="43.19" y="0">a</tspan><tspan class="cls-27" x="49.63" y="0">c</tspan><tspan x="56.17" y="0">e In</tspan><tspan class="cls-34" x="76.4" y="0">f</tspan><tspan class="cls-8" x="80.54" y="0">o</tspan><tspan class="cls-31" x="87.55" y="0">r</tspan><tspan x="92.28" y="0">m</tspan><tspan class="cls-12" x="102.91" y="0">a</tspan><tspan class="cls-33" x="109.34" y="0">t</tspan><tspan x="113.85" y="0">ion</tspan><tspan class="cls-10" x="51.94" y="14.4">P</tspan><tspan class="cls-7" x="58.99" y="14.4">a</tspan><tspan x="65.44" y="14.4">ge</tspan></text><text class="cls-4" transform="translate(669.79 82.83)"><tspan class="cls-35">B</tspan><tspan x="7.38" y="0">ook </tspan><tspan class="cls-32" x="31.07" y="0">W</tspan><tspan x="42.94" y="0">o</tspan><tspan class="cls-33" x="49.94" y="0">r</tspan><tspan x="54.67" y="0">ksp</tspan><tspan class="cls-15" x="74.26" y="0">a</tspan><tspan class="cls-27" x="80.7" y="0">c</tspan><tspan class="cls-8" x="87.24" y="0">e</tspan></text><text class="cls-36" transform="translate(172.18 254.83)">E<tspan class="cls-8" x="6.8" y="0">dit </tspan><tspan class="cls-19" x="24.56" y="0">P</tspan><tspan class="cls-14" x="31.63" y="0">r</tspan><tspan class="cls-8" x="36.16" y="0">ofile</tspan></text><text class="cls-37" transform="translate(35.32 179.83)">L<tspan class="cls-8" x="6.64" y="0">og In</tspan></text><text class="cls-11" transform="translate(30.28 254.83)"><tspan class="cls-14">S</tspan><tspan x="7.15" y="0">ign</tspan><tspan class="cls-12" x="24.29" y="0">-</tspan><tspan class="cls-27" x="28.72" y="0">U</tspan><tspan x="36.85" y="0">p</tspan></text><rect class="cls-38" x="4.91" y="48" width="96" height="63"/><rect class="cls-39" x="5" y="151.5" width="96" height="49" rx="24.5" ry="24.5"/><rect class="cls-40" x="304" y="151.5" width="118" height="49" rx="24.5" ry="24.5"/><rect class="cls-41" x="488.86" y="151.57" width="118" height="49" rx="24.5" ry="24.5"/><rect class="cls-42" x="657.5" y="152" width="118" height="49" rx="24.5" ry="24.5"/><rect class="cls-43" x="479" y="225.5" width="138" height="49" rx="24.5" ry="24.5"/><rect class="cls-44" x="478.86" y="299.5" width="138" height="49" rx="24.5" ry="24.5"/><rect class="cls-45" x="141" y="151.5" width="122" height="49" rx="24.5" ry="24.5"/><rect class="cls-46" x="302" y="225.5" width="122" height="49" rx="24.5" ry="24.5"/><rect class="cls-47" x="141" y="225.5" width="122" height="49" rx="24.5" ry="24.5"/><text class="cls-11" transform="translate(162.38 329.33)">Vi<tspan class="cls-23" x="11.27" y="0">e</tspan><tspan x="17.76" y="0">w </tspan><tspan class="cls-18" x="30.5" y="0">B</tspan><tspan x="37.85" y="0">ookings</tspan></text><rect class="cls-48" x="141.5" y="300" width="122" height="49" rx="24.5" ry="24.5"/><rect class="cls-49" x="5" y="225.5" width="96" height="49" rx="24.5" ry="24.5"/><rect class="cls-50" x="154" y="48.5" width="96" height="63"/><rect class="cls-51" x="472.73" y="48.5" width="150.27" height="63"/><rect class="cls-52" x="664" y="48.5" width="106" height="63"/><path class="cls-2" d="M101.5,176h0a29,29,0,0,0,29-29V106.5A23.5,23.5,0,0,1,154,83h0"/><path class="cls-2" d="M101.5,250h0a29,29,0,0,0,29-29V111.5"/><path class="cls-2" d="M424.5,250h5.77a21.22,21.22,0,0,0,21.23-21.23V104.23A21.22,21.22,0,0,1,472.73,83h0"/><path class="cls-2" d="M426,83h0a25.5,25.5,0,0,1,25.5,25.5v42A25.5,25.5,0,0,1,426,176h-3.5"/><path class="cls-53" d="M488.5,176H477a25.5,25.5,0,0,1-25.5-25.5v-49A25.5,25.5,0,0,0,426,76h0"/><path class="cls-53" d="M479.5,250h0a28,28,0,0,1-28-28V101.5A25.5,25.5,0,0,0,426,76h0"/><path class="cls-53" d="M478.5,324h0a26.09,26.09,0,0,1-26.1-26l-.8-196a26.09,26.09,0,0,0-26.1-26h0"/><rect class="cls-54" x="300.33" y="47.76" width="125.67" height="63"/><line class="cls-53" x1="494.5" y1="173" x2="500.5" y2="179"/><line class="cls-53" x1="500.5" y1="173" x2="494.5" y2="179"/><line class="cls-53" x1="482.5" y1="247" x2="488.5" y2="253"/><line class="cls-53" x1="488.5" y1="247" x2="482.5" y2="253"/><line class="cls-53" x1="482.5" y1="321" x2="488.5" y2="327"/><line class="cls-53" x1="488.5" y1="321" x2="482.5" y2="327"/><text></text><path class="cls-1" d="M775.5,177h0a20,20,0,0,0,20-20V45a20,20,0,0,0-20-20h-553a20,20,0,0,0-20,20v2.76"/><polyline class="cls-1" points="603.5 172.23 597.96 177.77 594.5 174.31"/><polyline class="cls-1" points="613.5 246.23 607.96 251.77 604.5 248.31"/><polyline class="cls-1" points="613.5 321.23 607.96 326.77 604.5 323.31"/><polyline class="cls-1" points="769.5 174.23 763.96 179.77 760.5 176.31"/><polygon class="cls-55" points="661.68 82.33 665.18 80 661.68 77.67 661.68 82.33"/><polygon class="cls-55" points="200.16 46.01 202.5 49.51 204.84 46.01 200.16 46.01"/><polygon class="cls-56" points="428 73.67 424.5 76 428 78.33 428 73.67"/><polygon class="cls-57" points="428 80.67 424.5 83 428 85.33 428 80.67"/><polygon class="cls-57" points="298.4 85.33 301.9 83 298.4 80.67 298.4 85.33"/><polygon class="cls-57" points="152.28 85.33 155.78 83 152.28 80.67 152.28 85.33"/><polygon class="cls-57" points="471.54 85.33 475.04 83 471.54 80.67 471.54 85.33"/></svg>