<svg id="Layer_1" data-name="Layer 1" xmlns="http://www.w3.org/2000/svg" viewBox="0 0 600 356"><defs><style>.cls-1{fill:#fbc304;}.cls-2{fill:#44340d;opacity:0.67;}.cls-3,.cls-7{fill:none;}.cls-3{stroke:#ddd5bf;stroke-miterlimit:10;stroke-width:0.25px;}.cls-4{fill:#19163a;opacity:0.42;isolation:isolate;}.cls-5{fill:#cec8b6;}.cls-6{fill:#f7f0da;}.cls-8{fill:#c5c8d5;}.cls-9{fill:#686a84;}.cls-10{fill:#4d526d;}.cls-11{fill:#d0d2dd;}.cls-12{fill:#e1e3e8;}.cls-13{fill:#003161;}.cls-14{fill:#f4bf3b;}.cls-15{opacity:0.48;}.cls-16{fill:#544115;}.cls-17{fill:#f4f4f4;}.cls-18{fill:#2a4daa;}.cls-19{fill:#66bb6a;}.cls-20{fill:#42a5f5;}.cls-21{fill:#ec407a;}.cls-22{fill:#ffca28;}</style></defs><title>nso-splash</title><rect class="cls-1" width="600" height="356"/><polyline class="cls-2" points="91.83 122.17 91.45 122.72 98.25 132.74 112.86 123.81 112.62 123.42"/><polyline class="cls-2" points="131.65 205.93 131.28 206.47 138.07 216.5 152.54 207.91 149.48 201.62"/><path class="cls-2" d="M170.08,243.85l-17.79-36.44L98.36,93.17S98,90.58,99,90.61s72.41,152.73,72.41,152.73"/><polygon class="cls-2" points="416.6 36.77 417.83 39.97 172.82 243.85 170.08 241.88 185.57 228.99 416.6 36.77"/><polyline class="cls-3" points="398.78 79.83 398.48 80.08 383.8 92.07"/><line class="cls-3" x1="325.32" y1="139.83" x2="319.89" y2="144.26"/><line class="cls-3" x1="383.8" y1="92.07" x2="398.48" y2="80.08"/><line class="cls-3" x1="325.32" y1="139.83" x2="319.89" y2="144.26"/><line class="cls-3" x1="325.32" y1="139.83" x2="319.89" y2="144.26"/><polyline class="cls-3" points="301.44 159.33 301.42 159.35 301.4 159.37 300.58 160.02 300.59 160.03 299.97 160.54 299.66 160.79 299.35 161.04"/><line class="cls-3" x1="325.32" y1="139.83" x2="319.89" y2="144.26"/><polyline class="cls-3" points="300.58 160.02 299.97 160.54 299.66 160.79 299.35 161.04"/><line class="cls-3" x1="325.32" y1="139.83" x2="319.89" y2="144.26"/><polyline class="cls-3" points="300.58 160.02 299.97 160.54 299.66 160.79 299.35 161.04"/><line class="cls-3" x1="325.32" y1="139.83" x2="319.89" y2="144.26"/><polyline class="cls-3" points="300.58 160.02 300.59 160.03 299.97 160.54 299.66 160.79 299.35 161.04"/><line class="cls-3" x1="325.32" y1="139.83" x2="319.89" y2="144.26"/><path class="cls-4" d="M506.19,210.25h0A3.2,3.2,0,0,1,505.1,212L404,294.83a1.32,1.32,0,0,1-1.87-.19L296.84,165.71a1.31,1.31,0,0,1,.19-1.87l1.38-1.14,0,.05.09.11.18.24.44.52L404.62,292.76"/><path class="cls-5" d="M402.43,293.06,297.57,164.64a1.65,1.65,0,0,1,.23-2.34l.31-.25.31-.25.29-.25.33-.26.31-.25,1.23-1h0l.15.18L407.4,290.82l.16.2-.62.5-.31.25-.31.26-.61.5-.94.77A1.67,1.67,0,0,1,402.43,293.06Z"/><path class="cls-6" d="M407,291.45a2.68,2.68,0,0,1-2.8-.9L300.66,163.79a2.69,2.69,0,0,1-.33-2.95A2.51,2.51,0,0,1,301,160h0l0,0,18.45-15.07,5.43-4.43L383.39,92.7,396.47,82l.62-.5.36-.29.31-.26.42-.34A2.68,2.68,0,0,1,402,81l.63.77.5.62.72.88.51.62,2.81,3.45.51.63.72.86h0l.5.61,2.9,3.56h0l.5.61.67.82.51.62h0l2.9,3.55h0l.5.62.71.87h0l.5.62,2.87,3.5.5.62.71.88.51.62h0l2.81,3.45.51.62.71.87.51.62,2.9,3.56h0l.5.61.68.82.51.62,3,3.66h0l.5.61.68.82.5.62,2.9,3.56h0l.5.61.67.82.51.62,2.86,3.51.51.61.71.88h0l.5.61,2.86,3.5h0l.51.62.71.87.51.62,2.9,3.56.5.62.68.82.51.62,2.9,3.56h0l.5.61.67.83.5.62,2.87,3.5h0l.5.62.71.88h0l.51.61,2.85,3.5h0l.5.62h0l.72.86.51.63,2.94,3.6.5.62.68.82.5.62,2.9,3.56h0l.5.61.72.88.5.61h0l2.82,3.45.5.62.71.87.51.62,2.87,3.51.5.62.71.87h0l.51.61,2.9,3.55.51.63.68.82.5.62,2.9,3.55.51.63.72.87.5.62h0l2.82,3.45.51.63.71.87.5.62,2.87,3.5.51.63.71.87h0l.51.6.12.16a2.7,2.7,0,0,1-.38,3.84L408,290.93A2.46,2.46,0,0,1,407,291.45Z"/><path class="cls-3" d="M301.44,159.33l0,0,0,0-.81.66-.62.51a1.64,1.64,0,0,0-.24,2.34L404.6,291.28a1.64,1.64,0,0,0,2.34.24"/><path class="cls-3" d="M301.44,159.33l0,0,0,0-.81.66-.62.51-.31.25a1.64,1.64,0,0,0-.24,2.34l104.87,128.4a1.63,1.63,0,0,0,2.34.24"/><path class="cls-3" d="M299,161.29a1.63,1.63,0,0,0-.49,1.93,1.33,1.33,0,0,0,.25.41L403.67,292.05a1.32,1.32,0,0,0,.33.3,1.64,1.64,0,0,0,2-.07"/><path class="cls-3" d="M298.71,161.55a1.7,1.7,0,0,0-.59,1.15,1.61,1.61,0,0,0,.37,1.18L403.37,292.3a1.57,1.57,0,0,0,1.08.59,1.62,1.62,0,0,0,1.26-.36"/><path class="cls-3" d="M298.42,161.8a1.55,1.55,0,0,0-.49.66,1.62,1.62,0,0,0,.25,1.68L403.05,292.55a1.65,1.65,0,0,0,1.59.59,1.68,1.68,0,0,0,.75-.36"/><path class="cls-3" d="M298.11,162.05a1.29,1.29,0,0,0-.27.3,1.61,1.61,0,0,0,0,2L402.75,292.8a1.62,1.62,0,0,0,2,.45,1.29,1.29,0,0,0,.35-.22"/><path class="cls-3" d="M301.44,159.33l0,0,0,0-.82.65h0l-.62.51-.31.25-.31.25a1.65,1.65,0,0,0-.24,2.34L404,291.79a1.65,1.65,0,0,0,2.34.24"/><line class="cls-7" x1="496.6" y1="200.34" x2="497.48" y2="199.62"/><line class="cls-7" x1="500.51" y1="203.33" x2="499.63" y2="204.05"/><path class="cls-8" d="M496.52,205.82l-2.19-2.68a.63.63,0,0,1,.1-.94l1.13-.93a.63.63,0,0,1,.94.1l2.19,2.68a.64.64,0,0,1-.1.94l-1.13.92A.67.67,0,0,1,496.52,205.82Z"/><path class="cls-8" d="M499.34,203.69l-2.44-3A.46.46,0,0,1,497,200l.11-.08a.45.45,0,0,1,.65.07l2.44,3a.45.45,0,0,1-.06.65l-.11.09A.45.45,0,0,1,499.34,203.69Z"/><path class="cls-9" d="M497.23,202.15h-.07a.41.41,0,0,1-.4-.16.38.38,0,0,1-.06-.4.45.45,0,0,1,.1-.14l.44-.36.82-.67,1.44-1.18,1.19-1,1.44-1.18a.38.38,0,0,1,.56.06l.07.11a.4.4,0,0,1-.12.45l-1.45,1.18-1.18,1-1.44,1.18-.83.67-.37.3Z"/><path class="cls-10" d="M495.32,203.19a.38.38,0,0,1,.06-.56l1.29-1,.13-.11.44-.36.82-.67,1.44-1.18,1.19-1a.38.38,0,0,1,.56.06l.07.11a.39.39,0,0,1-.13.45l-1.18,1-1.44,1.18-.83.67-.37.3-.14.12h0l0,0-1.24,1A.38.38,0,0,1,495.32,203.19Z"/><path class="cls-9" d="M498.59,203.52a.37.37,0,0,1-.24.1.4.4,0,0,1-.37-.11.39.39,0,0,1-.06-.41A.36.36,0,0,1,498,203v0l.41-.34.83-.67,1.44-1.18,1.18-1,1.45-1.18a.39.39,0,0,1,.57.06.33.33,0,0,1,.06.1.37.37,0,0,1-.12.45l-1.42,1.16s0,0,0,0l-1.2,1-1.43,1.18h0l-.82.67Z"/><path class="cls-10" d="M496.54,204.69a.4.4,0,0,1,.06-.57l1.29-1.05L498,203v0l.42-.33h0l.83-.67,1.44-1.18,1.18-1a.39.39,0,0,1,.57.05.41.41,0,0,1,.07.11.36.36,0,0,1-.1.43s0,0,0,0l-1.2,1-1.43,1.18h0l-.82.67-.37.3-.19.17-1.25,1A.46.46,0,0,1,496.54,204.69Z"/><path class="cls-8" d="M501.15,211.49,499,208.81a.63.63,0,0,1,.1-.94l1.13-.93a.63.63,0,0,1,.94.1l2.19,2.68a.64.64,0,0,1-.1.94l-1.13.92A.72.72,0,0,1,501.15,211.49Z"/><path class="cls-8" d="M503.93,209.31l-2.44-3a.46.46,0,0,1,.06-.66l.1-.08a.46.46,0,0,1,.66.06l2.44,3a.46.46,0,0,1-.06.66l-.11.08A.45.45,0,0,1,503.93,209.31Z"/><path class="cls-9" d="M501.82,207.77h-.07a.44.44,0,0,1-.4-.16.38.38,0,0,1-.06-.4.33.33,0,0,1,.1-.14l.43-.36.83-.67,1.44-1.18,1.19-1,1.44-1.18a.38.38,0,0,1,.56.05l.07.11a.38.38,0,0,1-.13.46l-1.44,1.18-1.18,1-1.45,1.18-.82.67-.37.3Z"/><path class="cls-10" d="M499.91,208.81a.39.39,0,0,1,0-.56l1.3-1.06.13-.1.43-.36.83-.67,1.44-1.18,1.19-1a.38.38,0,0,1,.56.06.36.36,0,0,1,.07.1.4.4,0,0,1-.13.46l-1.18,1-1.45,1.18-.82.67-.37.3-.14.12h0l-.05,0-1.24,1A.38.38,0,0,1,499.91,208.81Z"/><path class="cls-9" d="M502.94,209.26a.33.33,0,0,1-.36-.14.35.35,0,0,1-.07-.39.31.31,0,0,1,.1-.15l0,0,.41-.34.82-.67,1.44-1.18,1.2-1,1.44-1.18a.38.38,0,0,1,.56.07.36.36,0,0,1,.07.1.38.38,0,0,1-.12.45L507,206h0l-1.19,1-1.44,1.18h0l-.83.67-.35.29A.5.5,0,0,1,502.94,209.26Z"/><path class="cls-10" d="M501.14,210.31a.39.39,0,0,1,.05-.57l1.29-1.05.13-.11,0,0,.41-.33.82-.68,1.45-1.17,1.19-1a.38.38,0,0,1,.56.06l.07.11a.38.38,0,0,1-.11.44h0l-1.19,1-1.44,1.18h0l-.82.68-.36.28-.21.18-1.23,1A.41.41,0,0,1,501.14,210.31Z"/><line class="cls-7" x1="491.37" y1="192.15" x2="490.5" y2="192.86"/><line class="cls-7" x1="487.42" y1="189.1" x2="488.3" y2="188.38"/><path class="cls-8" d="M487.39,194.63,485.2,192a.63.63,0,0,1,.09-.94l1.14-.92a.62.62,0,0,1,.93.09l2.19,2.68a.63.63,0,0,1-.09.94l-1.14.93A.66.66,0,0,1,487.39,194.63Z"/><path class="cls-8" d="M490.16,192.45l-2.44-3a.44.44,0,0,1,.07-.65l.1-.09a.44.44,0,0,1,.65.07l2.45,3a.45.45,0,0,1-.07.65l-.1.09A.42.42,0,0,1,490.16,192.45Z"/><path class="cls-9" d="M488.24,190.84a.5.5,0,0,1-.26.11.43.43,0,0,1-.35-.12.35.35,0,0,1-.07-.4.57.57,0,0,1,.11-.16h0l.41-.34.82-.67,1.44-1.18,1.19-1,1.44-1.19a.39.39,0,0,1,.57.07.36.36,0,0,1,.07.1.41.41,0,0,1-.13.46l-1.42,1.16,0,0-1.18,1-1.44,1.18-.83.67Z"/><path class="cls-10" d="M486.18,192a.4.4,0,0,1,.07-.57l1.28-1.05.14-.12h0l.41-.33h0l.82-.67,1.44-1.18,1.19-1a.4.4,0,0,1,.57,0l.07.11a.39.39,0,0,1-.11.44l0,0-1.18,1-1.44,1.18-.83.67-.36.3-.2.17-1.24,1A.47.47,0,0,1,486.18,192Z"/><path class="cls-9" d="M489.27,192.41l-.08,0a.39.39,0,0,1-.38-.16.36.36,0,0,1-.07-.4.27.27,0,0,1,.11-.15v0l.41-.34.83-.67,1.44-1.18,1.19-1,1.44-1.18a.38.38,0,0,1,.56.06.49.49,0,0,1,.07.11.38.38,0,0,1-.12.45l-1.43,1.16s0,0,0,0l-1.19,1-1.44,1.18-.84.68-.35.29v0Z"/><path class="cls-10" d="M487.37,193.45a.4.4,0,0,1,.05-.57l1.29-1,.14-.11v0l.41-.33.83-.68,1.44-1.18,1.19-1a.38.38,0,0,1,.56,0l.07.11a.38.38,0,0,1-.11.44s0,0,0,0l-1.19,1-1.44,1.18-.83.68-.36.29v0l-.14.11-.06,0-1.23,1A.37.37,0,0,1,487.37,193.45Z"/><path class="cls-8" d="M492,200.25l-2.19-2.68a.63.63,0,0,1,.09-.94l1.13-.92a.63.63,0,0,1,.94.09l2.19,2.68a.63.63,0,0,1-.09.94l-1.14.92A.66.66,0,0,1,492,200.25Z"/><path class="cls-8" d="M494.79,198.12l-2.44-3a.44.44,0,0,1,.07-.65l.1-.09a.44.44,0,0,1,.65.07l2.45,3a.45.45,0,0,1-.07.65l-.1.09A.46.46,0,0,1,494.79,198.12Z"/><path class="cls-9" d="M492.67,196.59s0,0-.06,0a.42.42,0,0,1-.39-.16.37.37,0,0,1-.07-.39.42.42,0,0,1,.11-.16h0l.41-.34.84-.67,1.43-1.18,1.19-1,1.44-1.19a.39.39,0,0,1,.57.07.33.33,0,0,1,.06.1.37.37,0,0,1-.12.45l-1.42,1.16a0,0,0,0,1,0,0l-1.2,1L494,195.48h0l-.83.67-.38.31Z"/><path class="cls-10" d="M490.78,197.62a.38.38,0,0,1,.05-.56l1.28-1.05.15-.12h0l.42-.33h0l.84-.67,1.43-1.18,1.19-1a.38.38,0,0,1,.56.05.26.26,0,0,1,.07.11.37.37,0,0,1-.1.43,0,0,0,0,1,0,0l-1.2,1L494,195.49l-.83.67-.38.31-.14.12,0,0-1.25,1A.36.36,0,0,1,490.78,197.62Z"/><path class="cls-9" d="M494,198a.4.4,0,0,1-.22.08.4.4,0,0,1-.36-.12.38.38,0,0,1-.07-.4.46.46,0,0,1,.11-.16l.42-.34.84-.67h0l1.45-1.17,1.18-1s0,0,0,0l1.41-1.15a.37.37,0,0,1,.55.06.34.34,0,0,1,.07.11.35.35,0,0,1-.12.44l-1.44,1.18h0l-1.18,1h0L495.24,197l-.82.68h0Z"/><path class="cls-10" d="M492,199.12a.39.39,0,0,1,.06-.56l1.29-1.05.14-.13.42-.34.84-.67h0l1.45-1.17,1.18-1s0,0,0,0a.37.37,0,0,1,.52.09l.07.11a.37.37,0,0,1-.12.44h0l-1.18,1h0L495.24,197l-.82.68h0L494,198l-.18.14-1.23,1A.46.46,0,0,1,492,199.12Z"/><line class="cls-7" x1="482.15" y1="180.86" x2="481.28" y2="181.57"/><line class="cls-7" x1="478.25" y1="177.86" x2="479.12" y2="177.15"/><path class="cls-8" d="M478.17,183.34,476,180.66a.63.63,0,0,1,.09-.94l1.14-.92a.62.62,0,0,1,.93.09l2.19,2.68a.63.63,0,0,1-.09.94l-1.14.93A.66.66,0,0,1,478.17,183.34Z"/><path class="cls-8" d="M481,181.21l-2.44-3a.45.45,0,0,1,.07-.65l.1-.09a.46.46,0,0,1,.66.07l2.44,3a.46.46,0,0,1-.07.66l-.1.08A.46.46,0,0,1,481,181.21Z"/><path class="cls-9" d="M478.87,179.68h0l-.06,0a.42.42,0,0,1-.39-.17.36.36,0,0,1-.06-.4.33.33,0,0,1,.1-.14l.43-.36.83-.67,1.44-1.18,1.18-1,1.45-1.18a.36.36,0,0,1,.55.05.49.49,0,0,1,.07.11.38.38,0,0,1-.12.46l-1.44,1.17-1.19,1-1.44,1.19-.82.66-.38.3Z"/><path class="cls-10" d="M477,180.71a.38.38,0,0,1,0-.56l1.29-1.05.14-.11.43-.36.83-.67,1.44-1.18,1.18-1a.38.38,0,0,1,.56.05.52.52,0,0,1,.07.12.37.37,0,0,1-.12.44l-1.19,1-1.44,1.19-.82.66-.38.3-.14.13h0l0,0-1.24,1A.37.37,0,0,1,477,180.71Z"/><path class="cls-9" d="M480.24,181a.41.41,0,0,1-.25.11.36.36,0,0,1-.36-.12.39.39,0,0,1-.07-.4.33.33,0,0,1,.11-.15l0,0,.41-.34.82-.66,1.44-1.18,1.19-1,1.44-1.18a.39.39,0,0,1,.57.06.61.61,0,0,1,.07.1.38.38,0,0,1-.13.46l-1.41,1.16,0,0-1.19,1-1.44,1.17h0l-.83.67Z"/><path class="cls-10" d="M478.19,182.21a.4.4,0,0,1,.05-.57l1.29-1,.14-.11,0,0,.41-.33h0l.82-.66,1.44-1.18,1.19-1a.39.39,0,0,1,.56.05.37.37,0,0,1,.07.12.38.38,0,0,1-.09.43l0,0-1.19,1-1.44,1.17h0l-.83.67-.36.29-.2.17-1.24,1A.44.44,0,0,1,478.19,182.21Z"/><path class="cls-8" d="M482.8,189l-2.19-2.68a.63.63,0,0,1,.09-.94l1.14-.92a.62.62,0,0,1,.93.09l2.19,2.68a.63.63,0,0,1-.09.94l-1.14.93A.71.71,0,0,1,482.8,189Z"/><path class="cls-8" d="M485.57,186.83l-2.44-3a.45.45,0,0,1,.07-.65l.1-.09a.44.44,0,0,1,.65.07l2.45,3a.44.44,0,0,1-.07.65l-.1.09A.46.46,0,0,1,485.57,186.83Z"/><path class="cls-9" d="M483.46,185.3h0l-.06,0a.45.45,0,0,1-.4-.17.38.38,0,0,1-.06-.4.83.83,0,0,1,.12-.16l.42-.34.82-.67,1.44-1.18,1.19-1,1.44-1.18a.39.39,0,0,1,.57.05l.07.11a.4.4,0,0,1-.13.46l-1.45,1.17-1.18,1-1.44,1.19-.83.66-.37.3Z"/><path class="cls-10" d="M481.55,186.33a.39.39,0,0,1,.06-.56l1.3-1.05.14-.13.42-.34.82-.67,1.44-1.18,1.19-1a.39.39,0,0,1,.57.05.53.53,0,0,1,.06.1.38.38,0,0,1-.13.46l-1.18,1-1.44,1.19-.83.66-.37.3-.14.13h0l0,0-1.24,1A.38.38,0,0,1,481.55,186.33Z"/><path class="cls-9" d="M484.58,186.79a.38.38,0,0,1-.36-.14.39.39,0,0,1-.07-.4.33.33,0,0,1,.11-.15v0l.41-.34.83-.66L487,183.9l1.19-1,1.45-1.18a.38.38,0,0,1,.56.06l.07.11a.39.39,0,0,1-.13.45l-1.43,1.16s0,0,0,0l-1.19,1L486,185.69h0l-.82.67-.36.29A.55.55,0,0,1,484.58,186.79Z"/><path class="cls-10" d="M482.78,187.83a.39.39,0,0,1,.05-.57l1.29-1,.14-.11v0l.42-.33.82-.67L487,183.9l1.19-1a.38.38,0,0,1,.56,0,.37.37,0,0,1,.07.12.37.37,0,0,1-.11.43s0,0,0,0l-1.19,1L486,185.69h0l-.82.67-.36.29-.2.17-1.24,1A.4.4,0,0,1,482.78,187.83Z"/><line class="cls-7" x1="473.02" y1="169.67" x2="472.14" y2="170.39"/><line class="cls-7" x1="469.07" y1="166.62" x2="469.95" y2="165.91"/><path class="cls-8" d="M469,172.15l-2.19-2.68a.62.62,0,0,1,.1-.93l1.13-.93a.64.64,0,0,1,.94.1l2.19,2.68a.62.62,0,0,1-.1.93l-1.13.93A.67.67,0,0,1,469,172.15Z"/><path class="cls-8" d="M471.81,170l-2.45-3a.46.46,0,0,1,.07-.66l.1-.08a.46.46,0,0,1,.66.06l2.44,3a.46.46,0,0,1-.07.66l-.1.08A.42.42,0,0,1,471.81,170Z"/><path class="cls-9" d="M469.88,168.36a.43.43,0,0,1-.25.11.41.41,0,0,1-.36-.12.38.38,0,0,1-.06-.4.33.33,0,0,1,.11-.15v0l.41-.34.83-.66,1.44-1.19,1.18-1,1.45-1.18a.39.39,0,0,1,.57.06.53.53,0,0,1,.06.1.37.37,0,0,1-.13.46l-1.42,1.16s0,0,0,0l-1.19,1-1.43,1.16-.83.68Z"/><path class="cls-10" d="M467.83,169.53a.39.39,0,0,1,.06-.57l1.28-1.05.15-.11v0l.42-.33h0l.83-.66,1.44-1.19,1.18-1a.39.39,0,0,1,.57.05l.07.11a.37.37,0,0,1-.11.44s0,0,0,0l-1.19,1-1.43,1.17-.83.67-.37.3-.2.17-1.24,1A.46.46,0,0,1,467.83,169.53Z"/><path class="cls-9" d="M470.91,169.93s-.05,0-.07,0a.41.41,0,0,1-.39-.16.38.38,0,0,1-.07-.4.48.48,0,0,1,.11-.15h0l.41-.34.84-.67,1.44-1.18,1.19-1,1.44-1.18a.37.37,0,0,1,.56.07l.07.11a.38.38,0,0,1-.13.44l-1.43,1.17h0l-1.19,1-1.44,1.18-.83.67-.36.29v0Z"/><path class="cls-10" d="M469,171a.38.38,0,0,1,.05-.56l1.29-1,.14-.12h0l.42-.33.83-.68,1.44-1.18,1.19-1a.37.37,0,0,1,.55.06.34.34,0,0,1,.07.11.39.39,0,0,1-.11.44h0l-1.19,1-1.44,1.18-.83.68-.36.28v0l-.14.11-.05,0-1.24,1A.36.36,0,0,1,469,171Z"/><path class="cls-8" d="M473.62,177.77l-2.19-2.68a.62.62,0,0,1,.1-.93l1.13-.93a.64.64,0,0,1,.94.1l2.18,2.68a.62.62,0,0,1-.09.93l-1.13.93A.67.67,0,0,1,473.62,177.77Z"/><path class="cls-8" d="M476.44,175.65l-2.45-3a.46.46,0,0,1,.07-.66l.1-.08a.46.46,0,0,1,.66.06l2.44,3a.46.46,0,0,1-.07.66l-.1.08A.45.45,0,0,1,476.44,175.65Z"/><path class="cls-9" d="M474.23,174.1a.34.34,0,0,1-.36-.13.35.35,0,0,1-.07-.4.31.31,0,0,1,.1-.15l0,0,.41-.34.83-.67,1.43-1.18,1.2-1,1.44-1.19a.39.39,0,0,1,.56.07.61.61,0,0,1,.07.1.41.41,0,0,1-.12.46l-1.42,1.16,0,0-1.19,1L475.66,173h0l-.84.67-.36.3A.45.45,0,0,1,474.23,174.1Z"/><path class="cls-10" d="M472.42,175.15a.4.4,0,0,1,.06-.57l1.28-1.05.14-.11,0,0,.41-.33.83-.68,1.44-1.17,1.19-1a.38.38,0,0,1,.56.05l.07.11a.4.4,0,0,1-.1.44l0,0-1.19,1L475.67,173l-.84.67-.36.3-.2.17-1.24,1A.41.41,0,0,1,472.42,175.15Z"/><path class="cls-9" d="M475.66,175.5a.43.43,0,0,1-.58,0,.37.37,0,0,1-.07-.39.4.4,0,0,1,.12-.16l.42-.35.83-.67h0l1.44-1.17,1.18-1,.05,0,1.4-1.14a.39.39,0,0,1,.57.05.33.33,0,0,1,.06.1.38.38,0,0,1-.13.46l-1.43,1.18h0l-1.19,1h0l-1.45,1.18-.82.67h0Z"/><path class="cls-10" d="M473.64,176.64a.38.38,0,0,1,.05-.56L475,175l.15-.12.42-.35.83-.67h0l1.44-1.17,1.18-1,.05,0a.36.36,0,0,1,.51.09.52.52,0,0,1,.07.12.37.37,0,0,1-.11.44h0l-1.19,1h0l-1.45,1.18-.82.67h0l-.39.31-.17.15-1.24,1A.43.43,0,0,1,473.64,176.64Z"/><line class="cls-7" x1="463.76" y1="158.33" x2="462.88" y2="159.05"/><line class="cls-7" x1="459.81" y1="155.28" x2="460.68" y2="154.57"/><path class="cls-8" d="M459.77,160.81l-2.19-2.68a.63.63,0,0,1,.09-.93l1.14-.93a.62.62,0,0,1,.93.1l2.19,2.68a.62.62,0,0,1-.09.93l-1.13.93A.67.67,0,0,1,459.77,160.81Z"/><path class="cls-8" d="M462.54,158.63l-2.44-3a.45.45,0,0,1,.07-.65l.1-.09a.46.46,0,0,1,.66.07l2.44,3a.46.46,0,0,1-.07.66l-.1.08A.42.42,0,0,1,462.54,158.63Z"/><path class="cls-9" d="M460.59,157.05a.51.51,0,0,1-.22.09A.44.44,0,0,1,460,157a.36.36,0,0,1-.06-.4.33.33,0,0,1,.12-.16l.41-.34.83-.67,1.44-1.18h0l1.18-1,1.44-1.19a.4.4,0,0,1,.57.07.36.36,0,0,1,.07.1.4.4,0,0,1-.13.46l-1.43,1.17h0l-1.19,1-1.44,1.18-.82.68Z"/><path class="cls-10" d="M458.57,158.19a.4.4,0,0,1,.05-.57l1.29-1.05.57-.46.81-.67,1.46-1.18h0l1.18-1a.4.4,0,0,1,.57.05.33.33,0,0,1,.06.1.39.39,0,0,1-.11.46h0l-1.19,1-1.44,1.18-.83.67h0l-.4.32-.18.14-1.23,1A.44.44,0,0,1,458.57,158.19Z"/><path class="cls-9" d="M461.59,158.63a.41.41,0,0,1-.35-.12.38.38,0,0,1-.08-.41.49.49,0,0,1,.11-.14l0,0,.41-.34.82-.67,1.44-1.18,1.2-1,1.44-1.18a.38.38,0,0,1,.56.06l.07.11a.39.39,0,0,1-.12.45l-1.45,1.18-1.18,1L463,157.56l-.83.66-.35.3A.66.66,0,0,1,461.59,158.63Z"/><path class="cls-10" d="M459.79,159.68a.38.38,0,0,1,.06-.56l1.29-1.05.13-.11,0,0,.41-.33.82-.68,1.45-1.17,1.19-1a.38.38,0,0,1,.56.06.53.53,0,0,1,.06.1.38.38,0,0,1-.12.46l-1.18,1L463,157.56l-.83.66-.35.3-.21.17-1.23,1A.47.47,0,0,1,459.79,159.68Z"/><path class="cls-8" d="M464.36,166.43l-2.19-2.68a.62.62,0,0,1,.09-.93l1.14-.93a.62.62,0,0,1,.93.09l2.19,2.68a.63.63,0,0,1-.09.94l-1.14.93A.66.66,0,0,1,464.36,166.43Z"/><path class="cls-8" d="M467.17,164.3l-2.44-3a.45.45,0,0,1,.07-.65l.1-.09a.46.46,0,0,1,.66.07l2.44,3a.46.46,0,0,1-.07.66l-.1.08A.46.46,0,0,1,467.17,164.3Z"/><path class="cls-9" d="M465.06,162.77l-.07,0a.45.45,0,0,1-.39-.16.38.38,0,0,1-.07-.4.34.34,0,0,1,.13-.16l.41-.34.82-.67h0l1.45-1.17h0l1.19-1,1.44-1.19a.4.4,0,0,1,.57.07.36.36,0,0,1,.07.1.38.38,0,0,1-.12.45L469,159.53l-1.18,1h0l-1.44,1.17-.82.68-.37.3Z"/><path class="cls-10" d="M463.15,163.81a.4.4,0,0,1,.06-.57l1.29-1.05.57-.46.82-.68,1.45-1.17h0l1.19-1a.4.4,0,0,1,.57.05.39.39,0,0,1,.06.11.38.38,0,0,1-.13.46l-1.18,1h0l-1.44,1.17-.83.67h0l-.37.3-.15.12-.06,0-1.23,1A.38.38,0,0,1,463.15,163.81Z"/><path class="cls-9" d="M466.18,164.25a.46.46,0,0,1-.36-.12.41.41,0,0,1-.07-.4.33.33,0,0,1,.11-.15v0l.41-.34.84-.67,1.44-1.18,1.19-1,1.44-1.18a.38.38,0,0,1,.56.06.6.6,0,0,1,.06.11.37.37,0,0,1-.12.45L470.25,161l-1.19,1-1.44,1.17h0l-.83.67-.35.3A.73.73,0,0,1,466.18,164.25Z"/><path class="cls-10" d="M464.38,165.3a.38.38,0,0,1,.05-.56l1.29-1.05.14-.11v0l.42-.33.83-.68,1.44-1.18,1.19-1a.37.37,0,0,1,.55.06.49.49,0,0,1,.07.11.38.38,0,0,1-.12.45l-1.19,1-1.44,1.17h0l-.83.67-.35.3-.21.17-1.24,1A.45.45,0,0,1,464.38,165.3Z"/><line class="cls-7" x1="454.58" y1="147.09" x2="453.7" y2="147.81"/><line class="cls-7" x1="450.67" y1="144.1" x2="451.55" y2="143.38"/><path class="cls-8" d="M450.63,149.63,448.44,147a.63.63,0,0,1,.1-.94l1.13-.93a.63.63,0,0,1,.94.1l2.19,2.68a.64.64,0,0,1-.1.94l-1.13.92A.72.72,0,0,1,450.63,149.63Z"/><path class="cls-8" d="M453.41,147.45l-2.44-3a.46.46,0,0,1,.06-.66l.11-.08a.45.45,0,0,1,.65.06l2.44,3a.46.46,0,0,1-.06.66l-.11.08A.45.45,0,0,1,453.41,147.45Z"/><path class="cls-9" d="M451.23,146a.36.36,0,0,1-.35-.14.35.35,0,0,1-.07-.38.33.33,0,0,1,.11-.15v0l.41-.34.84-.67,1.43-1.18,1.19-1,1.45-1.19a.37.37,0,0,1,.55.06.26.26,0,0,1,.07.11.37.37,0,0,1-.12.45l-1.44,1.18-1.2,1-1.43,1.17-.83.68-.36.3A.66.66,0,0,1,451.23,146Z"/><path class="cls-10" d="M449.44,147a.38.38,0,0,1,.05-.56l1.29-1.05.14-.11v0l.42-.33h0l.84-.67,1.43-1.18,1.19-1a.38.38,0,0,1,.56,0,.36.36,0,0,1,.07.1.39.39,0,0,1-.12.46l-1.2,1-1.43,1.17-.83.68-.36.3-.2.17L450,147A.44.44,0,0,1,449.44,147Z"/><path class="cls-9" d="M452.52,147.41h0l-.06,0a.46.46,0,0,1-.4-.16.36.36,0,0,1-.06-.4.33.33,0,0,1,.11-.15v0l.41-.34.83-.67,1.44-1.18,1.19-1,1.44-1.18a.4.4,0,0,1,.57,0,.39.39,0,0,1,.06.11.37.37,0,0,1-.13.46l-1.44,1.17-1.18,1-1.45,1.18L453,147l-.37.3Z"/><path class="cls-10" d="M450.61,148.44a.39.39,0,0,1,.06-.56l1.28-1,.15-.11v0l.42-.33h0l.83-.67,1.44-1.18,1.19-1a.38.38,0,0,1,.56,0,.61.61,0,0,1,.07.1.38.38,0,0,1-.13.46l-1.18,1-1.45,1.18L453,147l-.37.3-.14.13h0l-.05.05-1.23,1A.38.38,0,0,1,450.61,148.44Z"/><path class="cls-8" d="M455.22,155.25,453,152.57a.63.63,0,0,1,.1-.94l1.13-.93a.63.63,0,0,1,.94.1l2.19,2.68a.62.62,0,0,1-.1.93l-1.13.93A.67.67,0,0,1,455.22,155.25Z"/><path class="cls-8" d="M458,153.07l-2.45-3a.46.46,0,0,1,.07-.66l.1-.08a.46.46,0,0,1,.66.06l2.44,3a.46.46,0,0,1-.06.66l-.11.08A.42.42,0,0,1,458,153.07Z"/><path class="cls-9" d="M455.83,151.56a.36.36,0,0,1-.37-.13.34.34,0,0,1-.06-.39.39.39,0,0,1,.11-.15h0l.41-.34.83-.67,1.44-1.18,1.19-1,1.44-1.18a.38.38,0,0,1,.56.06l.07.11a.39.39,0,0,1-.12.45l-1.45,1.18-1.18,1-1.44,1.18-.83.67-.36.29A.43.43,0,0,1,455.83,151.56Z"/><path class="cls-10" d="M454,152.62a.38.38,0,0,1,.06-.56l1.29-1.05.14-.12h0l.42-.34.82-.67,1.45-1.17,1.18-1a.38.38,0,0,1,.56.06l.07.11a.39.39,0,0,1-.13.45l-1.18,1-1.44,1.18-.83.67-.36.29-.2.17-1.24,1A.47.47,0,0,1,454,152.62Z"/><path class="cls-9" d="M457.1,153H457a.37.37,0,0,1-.39-.15.35.35,0,0,1-.06-.4.31.31,0,0,1,.1-.15v0l.41-.34.83-.67,1.44-1.18,1.18-1L462,148a.38.38,0,0,1,.56,0,.26.26,0,0,1,.07.11.38.38,0,0,1-.12.46l-1.45,1.17-1.19,1-1.44,1.19-.82.66-.38.32Z"/><path class="cls-10" d="M455.19,154.06a.39.39,0,0,1,.07-.56l1.29-1.05.14-.11v0l.42-.33h0l.83-.67,1.44-1.18,1.18-1a.39.39,0,0,1,.57.05l.07.1a.38.38,0,0,1-.13.46l-1.19,1-1.44,1.19-.82.66-.38.32-.14.11h0l0,0-1.24,1A.38.38,0,0,1,455.19,154.06Z"/><line class="cls-7" x1="445.4" y1="135.85" x2="444.52" y2="136.57"/><line class="cls-7" x1="441.45" y1="132.81" x2="442.33" y2="132.09"/><path class="cls-8" d="M441.41,138.34l-2.19-2.68a.63.63,0,0,1,.1-.94l1.13-.93a.63.63,0,0,1,.94.1l2.19,2.68a.64.64,0,0,1-.1.94l-1.13.92A.67.67,0,0,1,441.41,138.34Z"/><path class="cls-8" d="M444.19,136.16l-2.44-3a.46.46,0,0,1,.06-.66l.11-.08a.45.45,0,0,1,.65.06l2.44,3a.46.46,0,0,1-.06.66l-.11.08A.42.42,0,0,1,444.19,136.16Z"/><path class="cls-9" d="M442.23,134.58a.69.69,0,0,1-.21.08h0a.43.43,0,0,1-.36-.13.36.36,0,0,1-.06-.4.48.48,0,0,1,.13-.16l.41-.34L443,133h0l1.44-1.18,1.19-1,1.44-1.18a.4.4,0,0,1,.57.06.53.53,0,0,1,.06.1.37.37,0,0,1-.13.46l-1.43,1.18h0l-1.19,1-1.44,1.18-.82.67Z"/><path class="cls-10" d="M440.21,135.71a.39.39,0,0,1,.06-.57l1.28-1,.58-.47L443,133l1.44-1.18,1.19-1a.38.38,0,0,1,.56.05.49.49,0,0,1,.07.11.39.39,0,0,1-.12.46h0l-1.19,1-1.44,1.18-.82.67h0l-.4.33-.17.14-1.24,1A.45.45,0,0,1,440.21,135.71Z"/><path class="cls-9" d="M443.24,136.15a.37.37,0,0,1-.36-.13.35.35,0,0,1-.07-.38.31.31,0,0,1,.11-.16v0l.41-.33.84-.68,1.43-1.17,1.19-1,1.45-1.18a.38.38,0,0,1,.55.05.52.52,0,0,1,.07.12.37.37,0,0,1-.12.45l-1.45,1.17-1.18,1-1.44,1.18h0l-.83.67-.36.29A.51.51,0,0,1,443.24,136.15Z"/><path class="cls-10" d="M441.43,137.2a.37.37,0,0,1,.06-.55l1.29-1.06.14-.11v0l.42-.33.83-.68,1.44-1.17,1.18-1a.38.38,0,0,1,.56.05l.07.12a.36.36,0,0,1-.13.44l-1.18,1-1.44,1.18h0l-.83.67-.36.29-.2.18-1.24,1A.45.45,0,0,1,441.43,137.2Z"/><path class="cls-8" d="M446,144l-2.19-2.68a.63.63,0,0,1,.1-.94l1.13-.93a.63.63,0,0,1,.94.1l2.19,2.68a.64.64,0,0,1-.1.94l-1.13.92A.67.67,0,0,1,446,144Z"/><path class="cls-8" d="M448.82,141.83l-2.44-3a.46.46,0,0,1,.06-.66l.11-.08a.45.45,0,0,1,.65.07l2.44,3a.45.45,0,0,1-.06.65l-.11.08A.45.45,0,0,1,448.82,141.83Z"/><path class="cls-9" d="M446.7,140.29l-.07,0a.41.41,0,0,1-.38-.16.37.37,0,0,1-.07-.39.41.41,0,0,1,.12-.17l.41-.34.83-.68L449,137.4h0l1.18-1,1.45-1.18a.38.38,0,0,1,.56.06.61.61,0,0,1,.07.1.38.38,0,0,1-.12.46L450.68,137h0l-1.19,1-1.44,1.16-.83.68-.36.3Z"/><path class="cls-10" d="M444.8,141.33a.4.4,0,0,1,.06-.57l1.28-1,.57-.47.83-.68L449,137.4h0l1.18-1a.4.4,0,0,1,.57,0l.07.11a.38.38,0,0,1-.12.45h0l-1.19,1-1.44,1.16-.83.68-.36.3-.16.12-.05.05-1.24,1A.37.37,0,0,1,444.8,141.33Z"/><path class="cls-9" d="M447.82,141.77a.39.39,0,0,1-.43-.52.42.42,0,0,1,.11-.15l0,0,.41-.33.83-.68,1.44-1.18,1.19-1,1.44-1.18a.38.38,0,0,1,.56.05l.07.12a.4.4,0,0,1-.12.45l-1.45,1.17-1.18,1-1.45,1.18-.83.68-.35.29A.49.49,0,0,1,447.82,141.77Z"/><path class="cls-10" d="M446,142.82a.37.37,0,0,1,.06-.55l1.29-1.06.13-.11,0,0,.41-.33.83-.68,1.44-1.18,1.19-1a.37.37,0,0,1,.56,0l.07.12a.38.38,0,0,1-.13.44l-1.18,1-1.45,1.18-.83.68-.35.29-.21.18-1.23,1A.46.46,0,0,1,446,142.82Z"/><line class="cls-7" x1="436.22" y1="124.62" x2="435.35" y2="125.33"/><path class="cls-8" d="M432.28,127.15l-2.19-2.68a.63.63,0,0,1,.09-.94l1.14-.92a.62.62,0,0,1,.93.09l2.19,2.68a.63.63,0,0,1-.09.94l-1.14.93A.71.71,0,0,1,432.28,127.15Z"/><path class="cls-8" d="M435.05,125l-2.44-3a.44.44,0,0,1,.07-.65l.1-.09a.46.46,0,0,1,.66.07l2.44,3a.44.44,0,0,1-.07.65l-.1.09A.46.46,0,0,1,435.05,125Z"/><path class="cls-9" d="M432.87,123.47a.37.37,0,0,1-.35-.13.37.37,0,0,1-.07-.39.42.42,0,0,1,.11-.15l0,0,.41-.34.83-.67,1.43-1.17,1.2-1,1.44-1.18a.38.38,0,0,1,.56,0l.07.11a.41.41,0,0,1-.12.46L437,120.24l-1.19,1-1.44,1.17h0l-.84.68-.36.29A.46.46,0,0,1,432.87,123.47Z"/><path class="cls-10" d="M431.08,124.52a.38.38,0,0,1,.06-.56l1.29-1,.13-.11,0,0,.41-.33.83-.68,1.44-1.17,1.19-1a.38.38,0,0,1,.56.05.6.6,0,0,1,.06.11.37.37,0,0,1-.12.45l-1.19,1-1.44,1.17-.83.68-.36.29-.2.17-1.24,1A.43.43,0,0,1,431.08,124.52Z"/><path class="cls-9" d="M434.16,124.93h-.07a.42.42,0,0,1-.4-.17.32.32,0,0,1-.05-.38.29.29,0,0,1,.1-.16l0,0,.41-.33.82-.67,1.44-1.18,1.19-1,1.44-1.18a.4.4,0,0,1,.57,0l.07.12a.39.39,0,0,1-.13.45l-1.45,1.18-1.18,1-1.45,1.17-.82.68-.37.3Z"/><path class="cls-10" d="M432.25,126a.38.38,0,0,1,.07-.56l1.28-1,.14-.12,0,0,.41-.32h0l.82-.67,1.44-1.18,1.19-1a.39.39,0,0,1,.57.06.33.33,0,0,1,.06.1.38.38,0,0,1-.13.46l-1.18,1-1.45,1.17-.82.68-.37.3-.14.12h0l0,0-1.23,1A.39.39,0,0,1,432.25,126Z"/><path class="cls-8" d="M436.87,132.77l-2.19-2.68a.63.63,0,0,1,.09-.94l1.14-.92a.62.62,0,0,1,.93.09L439,131a.63.63,0,0,1-.09.94l-1.14.92A.65.65,0,0,1,436.87,132.77Z"/><path class="cls-8" d="M439.64,130.59l-2.44-3a.44.44,0,0,1,.07-.65l.1-.09a.44.44,0,0,1,.65.07l2.45,3a.45.45,0,0,1-.07.65l-.1.09A.42.42,0,0,1,439.64,130.59Z"/><path class="cls-9" d="M437.48,129.08a.34.34,0,0,1-.37-.12.36.36,0,0,1-.06-.4.33.33,0,0,1,.1-.14v0l.41-.34.84-.67,1.43-1.17,1.2-1,1.44-1.18a.36.36,0,0,1,.55.05.49.49,0,0,1,.07.11.38.38,0,0,1-.12.46l-1.44,1.17-1.19,1L438.91,128l-.82.67-.36.3A.53.53,0,0,1,437.48,129.08Z"/><path class="cls-10" d="M435.67,130.14a.38.38,0,0,1,.05-.56l1.29-1.05.14-.11v0l.43-.33.82-.68,1.44-1.17,1.19-1a.37.37,0,0,1,.55,0,.9.9,0,0,1,.07.11.38.38,0,0,1-.12.45l-1.19,1L438.91,128l-.82.67-.36.3-.21.16-1.24,1A.43.43,0,0,1,435.67,130.14Z"/><path class="cls-9" d="M438.75,130.55h-.06a.4.4,0,0,1-.4-.17.37.37,0,0,1-.07-.39.33.33,0,0,1,.11-.15l0,0,.41-.33.82-.67,1.44-1.18,1.19-1,1.45-1.18a.39.39,0,0,1,.56,0l.07.12a.39.39,0,0,1-.13.45l-1.44,1.17-1.19,1-1.45,1.18-.82.67-.37.31Z"/><path class="cls-10" d="M436.85,131.58a.37.37,0,0,1,0-.55l1.29-1.06.14-.11,0,0,.41-.33h0l.82-.67,1.44-1.18,1.19-1a.38.38,0,0,1,.56,0l.07.11a.38.38,0,0,1-.12.45l-1.19,1-1.45,1.18-.82.67-.37.31-.14.11h0l0,0-1.24,1A.37.37,0,0,1,436.85,131.58Z"/><line class="cls-7" x1="423.05" y1="110.28" x2="423.93" y2="109.56"/><line class="cls-7" x1="426.96" y1="113.28" x2="426.08" y2="113.99"/><path class="cls-8" d="M423,115.81l-2.19-2.68a.63.63,0,0,1,.09-.94l1.14-.92a.62.62,0,0,1,.93.09l2.19,2.68a.63.63,0,0,1-.09.94l-1.14.92A.69.69,0,0,1,423,115.81Z"/><path class="cls-8" d="M425.79,113.63l-2.44-3a.45.45,0,0,1,.06-.65l.11-.09a.45.45,0,0,1,.65.07l2.45,3a.45.45,0,0,1-.07.65l-.1.09A.46.46,0,0,1,425.79,113.63Z"/><path class="cls-9" d="M423.68,112.09h0l-.07,0a.38.38,0,0,1-.38-.16.37.37,0,0,1-.07-.39.38.38,0,0,1,.11-.16l.42-.35.84-.67L426,109.2l1.19-1,0,0,1.41-1.14a.37.37,0,0,1,.55,0,.34.34,0,0,1,.07.11.37.37,0,0,1-.12.45l-1.43,1.18h0l-1.2,1L425,111l-.83.68-.35.3A.61.61,0,0,1,423.68,112.09Z"/><path class="cls-10" d="M421.78,113.13a.37.37,0,0,1,.05-.56l1.29-1,.14-.12.42-.35.84-.67L426,109.2l1.19-1,0,0a.39.39,0,0,1,.52.09l.07.1a.41.41,0,0,1-.11.46h0l-1.2,1L425,111l-.83.68-.51.42h0l-.05,0-1.24,1A.36.36,0,0,1,421.78,113.13Z"/><path class="cls-9" d="M424.8,113.59a.38.38,0,0,1-.36-.14.39.39,0,0,1-.08-.4.42.42,0,0,1,.11-.15l0,0,.41-.33.83-.68,1.44-1.18,1.19-1,1.44-1.18a.4.4,0,0,1,.57,0,.53.53,0,0,1,.06.1.41.41,0,0,1-.12.47l-1.43,1.16,0,0-1.18,1-1.45,1.17-.83.68-.35.29A.5.5,0,0,1,424.8,113.59Z"/><path class="cls-10" d="M423,114.62a.37.37,0,0,1,.06-.55l1.29-1.06.13-.11,0,0,.41-.32.83-.69,1.44-1.18,1.19-1a.39.39,0,0,1,.57,0,.53.53,0,0,1,.06.1.37.37,0,0,1-.11.45l0,0-1.18,1-1.43,1.17-.84.69-.36.28-.21.18-1.23,1A.41.41,0,0,1,423,114.62Z"/><path class="cls-8" d="M427.6,121.43l-2.18-2.68a.63.63,0,0,1,.09-.94l1.13-.92a.63.63,0,0,1,.94.09l2.19,2.68a.64.64,0,0,1-.09.94l-1.14.92A.72.72,0,0,1,427.6,121.43Z"/><path class="cls-8" d="M430.38,119.25l-2.44-3a.46.46,0,0,1,.06-.66l.11-.08a.45.45,0,0,1,.65.07l2.44,3a.45.45,0,0,1-.06.65l-.11.09A.41.41,0,0,1,430.38,119.25Z"/><path class="cls-9" d="M428.2,117.75a.38.38,0,0,1-.35-.13.37.37,0,0,1-.07-.39.33.33,0,0,1,.11-.15v0l.41-.34.84-.67,1.43-1.18,1.19-1,1.45-1.18a.37.37,0,0,1,.55.06.26.26,0,0,1,.07.11.37.37,0,0,1-.12.45l-1.44,1.18-1.2,1-1.43,1.18-.82.67-.37.29A.56.56,0,0,1,428.2,117.75Z"/><path class="cls-10" d="M426.41,118.8a.38.38,0,0,1,0-.56l1.28-1,.15-.11v0l.43-.33.82-.68,1.43-1.17,1.19-1a.38.38,0,0,1,.56.06.26.26,0,0,1,.07.11.37.37,0,0,1-.12.45l-1.2,1-1.43,1.18-.82.67-.37.29-.2.18-1.24,1A.44.44,0,0,1,426.41,118.8Z"/><path class="cls-9" d="M429.49,119.21l-.08,0a.43.43,0,0,1-.39-.16.38.38,0,0,1-.06-.4.33.33,0,0,1,.11-.15v0l.41-.34.83-.67,1.44-1.18,1.19-1,1.44-1.18a.38.38,0,0,1,.56,0,.26.26,0,0,1,.07.11.38.38,0,0,1-.12.46L433.46,116h0l-1.19,1-1.43,1.18h0l-.82.66-.37.31Z"/><path class="cls-10" d="M427.58,120.24a.38.38,0,0,1,.06-.56l1.28-1.05.15-.11v0l.42-.33h0l.83-.67,1.44-1.18,1.19-1a.38.38,0,0,1,.56.05.34.34,0,0,1,.07.11.37.37,0,0,1-.12.45h0l-1.19,1-1.43,1.18h0l-.82.66-.37.31-.14.12-.06.05-1.24,1A.37.37,0,0,1,427.58,120.24Z"/><line class="cls-7" x1="417.83" y1="102.09" x2="416.95" y2="102.81"/><line class="cls-7" x1="413.92" y1="99.09" x2="414.79" y2="98.38"/><path class="cls-8" d="M413.84,104.57l-2.19-2.68a.62.62,0,0,1,.09-.93l1.14-.93a.62.62,0,0,1,.93.09L416,102.8a.63.63,0,0,1-.09.94l-1.14.93A.66.66,0,0,1,413.84,104.57Z"/><path class="cls-8" d="M416.65,102.44l-2.44-3a.45.45,0,0,1,.07-.65l.1-.09a.46.46,0,0,1,.66.07l2.44,3a.46.46,0,0,1-.07.66l-.1.08A.46.46,0,0,1,416.65,102.44Z"/><path class="cls-9" d="M414.54,100.91h0l0,0a.44.44,0,0,1-.4-.16.38.38,0,0,1-.06-.41.33.33,0,0,1,.1-.14l.43-.36.83-.67L416.81,98h0l1.19-1,1.44-1.18a.37.37,0,0,1,.55,0,.49.49,0,0,1,.07.11.38.38,0,0,1-.12.46l-1.44,1.17-1.19,1-1.44,1.18-.82.67-.37.3Z"/><path class="cls-10" d="M412.64,101.94a.38.38,0,0,1,.05-.56l1.29-1,.14-.11.43-.36.83-.67L416.82,98l1.19-1a.37.37,0,0,1,.55,0,.52.52,0,0,1,.07.12.36.36,0,0,1-.12.44l-1.19,1-1.44,1.18-.82.67-.37.3-.15.13h0l0,0-1.24,1A.37.37,0,0,1,412.64,101.94Z"/><path class="cls-9" d="M415.88,102.31a.45.45,0,0,1-.22.08.39.39,0,0,1-.36-.13.43.43,0,0,1-.07-.4.48.48,0,0,1,.13-.16l.41-.34.82-.66L418,99.51l1.18-1h0l1.44-1.18a.39.39,0,0,1,.56.06.61.61,0,0,1,.07.1.39.39,0,0,1-.12.46l-1.44,1.17h0l-1.19,1-1.44,1.17-.82.67-.37.3Z"/><path class="cls-10" d="M413.86,103.44a.39.39,0,0,1,.06-.57l1.29-1.05.56-.46.82-.67L418,99.51h0l1.19-1h0a.38.38,0,0,1,.56,0s0,.08.06.11a.37.37,0,0,1-.11.45h0l-1.19,1-1.44,1.17-.83.67-.36.3,0,0-.17.13-1.24,1A.44.44,0,0,1,413.86,103.44Z"/><path class="cls-8" d="M418.47,110.24l-2.19-2.68a.63.63,0,0,1,.09-.93l1.14-.93a.63.63,0,0,1,.94.09l2.18,2.68a.63.63,0,0,1-.09.94l-1.13.93A.72.72,0,0,1,418.47,110.24Z"/><path class="cls-8" d="M421.24,108.06l-2.44-3a.45.45,0,0,1,.07-.65l.1-.09a.46.46,0,0,1,.66.07l2.44,3a.46.46,0,0,1-.07.66l-.1.08A.46.46,0,0,1,421.24,108.06Z"/><path class="cls-9" d="M419.13,106.53h0l-.06,0a.44.44,0,0,1-.39-.16.36.36,0,0,1-.06-.4.31.31,0,0,1,.1-.15l0,0,.41-.34.82-.67,1.45-1.18,1.18-1,1.44-1.18a.39.39,0,0,1,.57.05l.07.11a.39.39,0,0,1-.13.46l-1.45,1.17-1.18,1-1.44,1.18-.83.67-.37.3Z"/><path class="cls-10" d="M417.22,107.56a.38.38,0,0,1,.07-.56l1.28-1,.14-.11,0,0,.41-.33h0l.82-.67,1.45-1.18,1.18-1a.39.39,0,0,1,.57,0,.53.53,0,0,1,.06.1.38.38,0,0,1-.13.46l-1.18,1-1.44,1.18-.83.67-.37.3-.14.13h0l0,0-1.24,1A.38.38,0,0,1,417.22,107.56Z"/><path class="cls-9" d="M420.27,108a.34.34,0,0,1-.38-.14.35.35,0,0,1-.06-.39.37.37,0,0,1,.12-.17l.41-.34.82-.66,1.44-1.19,1.2-1,1.44-1.18a.38.38,0,0,1,.56.06l.07.11a.39.39,0,0,1-.13.45l-1.43,1.17h0l-1.18,1h0l-1.44,1.18-.82.66h0l-.39.33A.59.59,0,0,1,420.27,108Z"/><path class="cls-10" d="M418.45,109.06a.39.39,0,0,1,.05-.57l1.29-1,.16-.12.41-.34.82-.67,1.44-1.18,1.2-1a.37.37,0,0,1,.55,0,.49.49,0,0,1,.07.11.38.38,0,0,1-.11.45h0l-1.18,1h0l-1.45,1.17-.81.67h0l-.39.33-.17.13-1.24,1A.4.4,0,0,1,418.45,109.06Z"/><line class="cls-7" x1="404.7" y1="87.8" x2="405.57" y2="87.09"/><line class="cls-7" x1="408.61" y1="90.8" x2="407.73" y2="91.52"/><path class="cls-8" d="M404.66,93.33l-2.19-2.68a.62.62,0,0,1,.1-.93l1.13-.93a.64.64,0,0,1,.94.1l2.19,2.68a.62.62,0,0,1-.1.93l-1.13.93A.72.72,0,0,1,404.66,93.33Z"/><path class="cls-8" d="M407.43,91.15l-2.44-3a.45.45,0,0,1,.07-.65l.1-.08a.46.46,0,0,1,.66.06l2.44,3a.46.46,0,0,1-.07.66l-.1.08A.46.46,0,0,1,407.43,91.15Z"/><path class="cls-9" d="M405.32,89.61s-.05,0-.07,0a.39.39,0,0,1-.39-.16.33.33,0,0,1-.06-.38.3.3,0,0,1,.11-.17l.42-.34.83-.67,1.43-1.18,1.2-1,0,0,1.4-1.14a.38.38,0,0,1,.56.06l.07.11a.37.37,0,0,1-.13.44l-1.43,1.18h0l-1.19,1-1.44,1.17-.83.68-.35.29Z"/><path class="cls-10" d="M403.42,90.65a.36.36,0,0,1,.06-.55l1.29-1,.14-.13.42-.34.83-.67,1.43-1.18,1.2-1,0,0a.38.38,0,0,1,.52.1.33.33,0,0,1,.06.1.37.37,0,0,1-.11.45h0l-1.19,1-1.44,1.17-.83.68-.35.29-.16.12-.05,0-1.24,1A.36.36,0,0,1,403.42,90.65Z"/><path class="cls-9" d="M406.44,91.1a.34.34,0,0,1-.36-.13.36.36,0,0,1-.07-.39.45.45,0,0,1,.12-.16l.42-.34.83-.68,1.44-1.18,1.18-1,1.45-1.18a.39.39,0,0,1,.56.05.37.37,0,0,1,.07.12.36.36,0,0,1-.13.45l-1.43,1.17s0,0,0,0l-1.19,1L407.88,90l-.83.68-.36.29A.39.39,0,0,1,406.44,91.1Z"/><path class="cls-10" d="M404.63,92.15a.38.38,0,0,1,.07-.56l1.28-1,.15-.12.42-.34.83-.68,1.44-1.17h0l1.18-1a.39.39,0,0,1,.57.06.86.86,0,0,1,.07.1.4.4,0,0,1-.12.45s0,0,0,0l-1.19,1L407.89,90l-.84.68-.36.28-.2.18-1.24,1A.42.42,0,0,1,404.63,92.15Z"/><path class="cls-8" d="M409.25,99l-2.19-2.68a.63.63,0,0,1,.09-.93l1.14-.93a.64.64,0,0,1,.94.09l2.18,2.69a.62.62,0,0,1-.09.93l-1.13.93A.72.72,0,0,1,409.25,99Z"/><path class="cls-8" d="M412,96.77l-2.44-3a.45.45,0,0,1,.07-.65l.1-.09a.46.46,0,0,1,.66.07l2.44,3a.46.46,0,0,1-.07.66l-.1.08A.46.46,0,0,1,412,96.77Z"/><path class="cls-9" d="M409.85,95.27a.41.41,0,0,1-.36-.12.36.36,0,0,1-.06-.4.31.31,0,0,1,.1-.15l0,0,.41-.34.83-.67,1.43-1.17,1.2-1,1.44-1.18a.38.38,0,0,1,.56,0l.07.11a.41.41,0,0,1-.12.46L413.92,92l-1.19,1-1.44,1.18-.82.66-.36.3A.54.54,0,0,1,409.85,95.27Z"/><path class="cls-10" d="M408.05,96.32a.38.38,0,0,1,.05-.56l1.3-1.05.13-.11,0,0,.42-.33.82-.68,1.44-1.16,1.19-1a.38.38,0,0,1,.56,0,1.33,1.33,0,0,1,.06.12.36.36,0,0,1-.12.44l-1.19,1-1.44,1.18-.82.66-.36.3-.2.16-1.24,1A.44.44,0,0,1,408.05,96.32Z"/><path class="cls-9" d="M411.13,96.73l-.07,0a.42.42,0,0,1-.39-.16.38.38,0,0,1-.07-.4.42.42,0,0,1,.11-.15l0,0,.41-.33L412,95l1.44-1.18,1.19-1L416,91.69a.4.4,0,0,1,.57,0l.07.12a.4.4,0,0,1-.12.45l-1.42,1.16,0,0-1.19,1-1.43,1.18h0l-.83.67-.37.31Z"/><path class="cls-10" d="M409.22,97.77a.38.38,0,0,1,.07-.56l1.29-1.06.13-.11,0,0,.41-.32h0L412,95l1.44-1.18,1.19-1a.39.39,0,0,1,.57.06l.07.11a.38.38,0,0,1-.1.43l0,0-1.19,1h0l-1.43,1.17h0l-.83.67-.37.31-.14.11-.05,0-1.24,1A.39.39,0,0,1,409.22,97.77Z"/><path class="cls-8" d="M400.11,87.77l-2.19-2.68a.63.63,0,0,1,.1-.94l1.13-.93a.63.63,0,0,1,.94.1L402.28,86a.64.64,0,0,1-.1.94l-1.13.92A.73.73,0,0,1,400.11,87.77Z"/><path class="cls-8" d="M402.89,85.59l-2.44-3a.46.46,0,0,1,.06-.66l.11-.08a.45.45,0,0,1,.65.06l2.44,3a.46.46,0,0,1-.06.66l-.11.08A.45.45,0,0,1,402.89,85.59Z"/><path class="cls-9" d="M400.77,84.05h-.06a.44.44,0,0,1-.4-.16.34.34,0,0,1-.06-.39.31.31,0,0,1,.11-.16v0l.41-.34.83-.66,1.44-1.18,1.19-1L405.68,79a.38.38,0,0,1,.56,0,.49.49,0,0,1,.07.11.37.37,0,0,1-.13.46l-1.44,1.17-1.19,1L402.11,83l-.82.67-.37.3Z"/><path class="cls-10" d="M398.87,85.09a.39.39,0,0,1,.06-.57l1.28-1,.15-.12v0l.42-.33h0l.83-.66,1.44-1.18,1.19-1a.38.38,0,0,1,.56,0,.37.37,0,0,1,.07.12.35.35,0,0,1-.13.44l-1.19,1L402.11,83l-.82.67-.37.3-.15.12h0l0,0-1.24,1A.37.37,0,0,1,398.87,85.09Z"/><path class="cls-9" d="M402.12,85.45a.49.49,0,0,1-.22.08.37.37,0,0,1-.36-.13.36.36,0,0,1-.07-.39.28.28,0,0,1,.12-.16l.41-.34.83-.67,1.44-1.18,1.19-1,1.44-1.18a.39.39,0,0,1,.56.06.52.52,0,0,1,.07.12.37.37,0,0,1-.12.44L406,82.3h0l-1.18,1-1.45,1.18-.81.66h0Z"/><path class="cls-10" d="M400.09,86.58a.38.38,0,0,1,.06-.56l1.29-1,.15-.12.41-.34.82-.68,1.45-1.17,1.19-1a.38.38,0,0,1,.56.06l.07.11a.39.39,0,0,1-.12.45h0l-1.18,1-1.45,1.17-.81.67h0l-.39.32-.18.14-1.23,1A.44.44,0,0,1,400.09,86.58Z"/><ellipse class="cls-11" cx="485.71" cy="201.84" rx="1.66" ry="2.06" transform="translate(-18.16 352.74) rotate(-39.24)"/><ellipse class="cls-12" cx="485.15" cy="202.3" rx="1.46" ry="1.86" transform="translate(-18.58 352.49) rotate(-39.24)"/><ellipse class="cls-9" cx="484.68" cy="202.68" rx="1.46" ry="1.86" transform="translate(-18.92 352.28) rotate(-39.24)"/><ellipse class="cls-11" cx="444.92" cy="151.89" rx="1.66" ry="2.06" transform="translate(4.24 315.67) rotate(-39.24)"/><ellipse class="cls-12" cx="444.35" cy="152.35" rx="1.46" ry="1.86" transform="translate(3.82 315.42) rotate(-39.24)"/><ellipse class="cls-9" cx="443.89" cy="152.73" rx="1.46" ry="1.86" transform="translate(3.48 315.21) rotate(-39.24)"/><ellipse class="cls-11" cx="404.04" cy="101.83" rx="1.66" ry="2.06" transform="translate(26.69 278.53) rotate(-39.24)"/><ellipse class="cls-12" cx="403.47" cy="102.3" rx="1.46" ry="1.86" transform="translate(26.26 278.28) rotate(-39.24)"/><ellipse class="cls-9" cx="403.01" cy="102.68" rx="1.46" ry="1.86" transform="translate(25.92 278.07) rotate(-39.24)"/><path d="M427.87,160c-2.81-6.63-6.48-11.16-14.21-9.43-6.75,1.51-14.94,4.33-15.41,12.45-.19,3.69,1.14,7.46,2.72,10.78,1.47,3,3.47,6.88,6.74,8.22a4.46,4.46,0,0,0,5.65-1.6c2-3.07.21-6.53-1.44-9.26-.56-.93-2.24-.09-1.72.92,1,2.18,2.8,5.64.39,7.38-1.79,1.3-5.48,1.68-7.53,2.08-1.26.26-1.08,2.25.17,2,2.85-.56,8.07-1,9.95-3.41,1.72-2.26-.09-6.56-1.11-8.74-.6.29-1.18.65-1.71.92a12.61,12.61,0,0,1,1.95,4.31c.35,3.07-3.08,4.34-5.25,2.52-1.94-1.62-3.32-4.38-4.39-6.68-2.11-4.54-3.93-10.61-.09-14.8,3-3.24,8.42-4.68,12.63-5.39,6.07-1,8.81,3.48,10.85,8.4a1,1,0,1,0,1.81-.67Z"/><path d="M431.18,180.61c-3.2-4.42-9.07-3.8-12.88-.48-4.09,3.51-4.37,8.51-1.34,12.85,6.24,9.19,21-6.42,13.53-13.1-1-.86-2.23.68-1.28,1.53,5.21,4.68-6.93,18.47-11.32,9.1-1.41-3-1.4-5.87,1-8.33,2.89-2.92,7.83-4.33,10.62-.46.75,1.07,2.37-.1,1.64-1.11Z"/><path d="M388.06,169a67.63,67.63,0,0,0-19.79,10.25c-1,.75,0,2.47,1,1.72a64.47,64.47,0,0,1,19.34-10.05,1,1,0,0,0-.57-1.92Z"/><path d="M386.84,171.27c2.55,1.09,2.51,2.95-.17,5.6a7.33,7.33,0,0,1-3.75-.87,22.93,22.93,0,0,1-3.7-2.47c-.88-.65-1.72.63-1.37,1.42a8.26,8.26,0,0,0,1.56,2.11c.41.45,1.28,1,1.49,1.57.7,1.78-.53,4-1.84,5a6.76,6.76,0,0,1-10.56-2.48c-.55-1.12-2.27-.1-1.71,1a8.76,8.76,0,0,0,13.1,3.37,7.47,7.47,0,0,0,3.43-5.52c.16-2.86-2.52-3.88-3.63-6.19l-1.37,1.42c3.17,2.34,8.28,5.45,11.95,2.32,3.28-2.78.23-6.26-2.33-8.08a1,1,0,0,0-1.1,1.75Z"/><path d="M379,189.31a5.42,5.42,0,0,0,8.29,1.92c2-1.63,3.1-5.84-.31-6.58s-7.74,2.93-9.56,5.55c-3,4.38.2,7.92,3.45,11.19.88.92,2.32-.5,1.38-1.42-1.22-1.17-3.25-2.94-3.75-4.66-.7-2.58.73-4.61,2.56-6.23a10,10,0,0,1,2-1.37c1.58-.89,1.9-1.3,3,0,1.21.78,1.09,1.51-.43,2.2-.53.14-1.06.35-1.65.5a3.83,3.83,0,0,1-3.3-2.21c-.55-1.06-2.27,0-1.65,1.09Z"/><path d="M396.82,198.66a3,3,0,0,0-3.2-4.14c-3.39.26-7.59,3.46-8.67,6.67-.89,2.68.23,5.86,3.17,6.6,3.88,1,7.45-4.65,9.67-6.95l-1.62-1.17c-2.79,4.31-5.51,8.61-6.69,13.63a1,1,0,0,0,1.94.5c1.18-4.88,3.77-9,6.5-13.16.65-.94-.83-2-1.62-1.17-1.37,1.42-6.39,7.9-9,5.68-2-1.7-.21-4.59,1.1-5.81a12.87,12.87,0,0,1,2.5-1.71,3.41,3.41,0,0,1,4.06.06c-.38,1.14,1.37,2.18,1.88,1Z"/><path d="M401,204.58c-3.15,2.78-6.23,5.63-9.37,8.41-.92.82.3,2,1.22,1.58,3.57-1.72,10-7.69,13.66-3,.82,1,2.53,0,1.72-1-4.77-6-11.52,0-16.41,2.34l1.23,1.57c3.15-2.78,6.23-5.63,9.37-8.41,1-.88-.5-2.32-1.42-1.44Z"/><path d="M411.5,216.32c-.93-3.65-5-3.38-7.41-1.41a9.39,9.39,0,0,0-3,4.31,10.13,10.13,0,0,0-.42,2.81,17.9,17.9,0,0,1,.1,1.79,2.19,2.19,0,0,1-.57,1.74c-.37,2.07-1.57,2.09-3.66,0-.49-1.19-2.41-.63-1.93.56,1.05,2.78,4.47,4.19,6.83,1.82,1.24-1.29,1.28-3,1.25-4.68s-.06-3.4.91-4.94c.71-1.21,5-5.41,6-1.57a1,1,0,1,0,1.92-.43Z"/><polygon class="cls-13" points="150.57 195.41 155.36 205.51 153.93 206.4 138.42 216.03 131.49 205.82 149.11 196.21 150.57 195.41"/><polygon class="cls-13" points="110.48 111.69 115.27 121.78 114.14 122.48 98.34 132.3 91.4 122.11 109.33 112.31 110.48 111.69"/><polygon class="cls-13" points="98.36 89.17 425.58 31.9 421.48 35.3 421.48 35.31 190.45 227.53 174.97 240.42 171.45 243.34 153.93 206.4 149.11 196.21 114.14 122.48 109.33 112.31 98.36 89.17"/><polygon class="cls-14" points="108.24 92.29 407.61 39.39 175.19 231.81 108.24 92.29"/><path class="cls-13" d="M178.38,129.12l10.43-4.92-13.08-19.65-16.34,9.66a6.82,6.82,0,0,0-2.65,8.89l24.63,50.08a8.71,8.71,0,0,0,11.71,3.94l11.43-5.73a7.84,7.84,0,0,0,3.25-11l-8.11-13.76-8.8,4.32,5,10.84-4.87,1.79-21.07-39.09a1.85,1.85,0,0,1,1-2.64l1.67-.58a1.85,1.85,0,0,1,2.27.91Z"/><path class="cls-13" d="M207.23,87.84,191.9,98.26,224.2,163l9.65-7.18-7.43-15.26,6.15-4.94,11.73,13.84,9.17-6.39Zm7.73,37.7-4.73-11.71,5.92-2.83,8.16,9.15Z"/><polygon class="cls-13" points="234.72 75.1 226.72 81.36 261.56 132.77 278 121.2 272.89 113.77 264.5 119.33 234.72 75.1"/><g class="cls-15"><path class="cls-16" d="M342.77,281.18l-14.25-18.41-47.45-61.24A9,9,0,0,0,268.35,200L233.1,228.06a9.28,9.28,0,0,0-1.52,12.9L279,302.2l14.26,18.39a9,9,0,0,0,9.1,3.29,8.83,8.83,0,0,0,3.61-1.74l35.25-28.07a9.09,9.09,0,0,0,2.3-2.71A9.28,9.28,0,0,0,342.77,281.18Z"/></g><path class="cls-1" d="M279.24,199.84,327.48,262,280.43,298.5l-48.24-62.13a6.32,6.32,0,0,1,1.12-8.87l5.42-4.21a1.32,1.32,0,0,1,1.84.23,2.38,2.38,0,0,0,1.61.91A2.35,2.35,0,0,0,244,224l20.34-15.79a2.44,2.44,0,0,0,.87-1.37,2.08,2.08,0,0,0,0-.23.57.57,0,0,0,0-.22,2.34,2.34,0,0,0-.5-1.55h0a1.31,1.31,0,0,1,.24-1.83l5.43-4.22A6.33,6.33,0,0,1,279.24,199.84Z"/><path d="M281.3,198.78l48,61.8-1.8,1.39-48.24-62.13a6.33,6.33,0,0,0-8.87-1.11L264.94,203a1.31,1.31,0,0,0-.24,1.83h0a2.34,2.34,0,0,1,.5,1.55.57.57,0,0,1,0,.22,2.08,2.08,0,0,1,0,.23,2.44,2.44,0,0,1-.87,1.37L244,224a2.35,2.35,0,0,1-1.77.48,2.38,2.38,0,0,1-1.61-.91,1.32,1.32,0,0,0-1.84-.23l-5.42,4.21a6.32,6.32,0,0,0-1.12,8.87l48.24,62.13-1.8,1.4-48-61.79a9.23,9.23,0,0,1,1.62-13l36.07-28A9.24,9.24,0,0,1,281.3,198.78Z"/><path d="M329.28,260.58l14.42,18.57a9.21,9.21,0,0,1-1.64,12.94L306,320.1a9.24,9.24,0,0,1-12.94-1.63L278.63,299.9l1.8-1.4,14.68,18.9a6.34,6.34,0,0,0,8.87,1.12L341,289.74a6.17,6.17,0,0,0,1.85-2.32,6.28,6.28,0,0,0-.74-6.54L327.48,262Z"/><path d="M279.24,199.84l62.91,81a6.28,6.28,0,0,1,.74,6.54,6.17,6.17,0,0,1-1.85,2.32L304,318.52a6.34,6.34,0,0,1-8.87-1.12l-62.92-81a6.32,6.32,0,0,1,1.12-8.87l5.42-4.21a1.32,1.32,0,0,1,1.84.23,2.38,2.38,0,0,0,1.61.91A2.35,2.35,0,0,0,244,224l20.34-15.79a2.44,2.44,0,0,0,.87-1.37,2.08,2.08,0,0,0,0-.23.57.57,0,0,0,0-.22,2.34,2.34,0,0,0-.5-1.55h0a1.31,1.31,0,0,1,.24-1.83l5.43-4.22A6.33,6.33,0,0,1,279.24,199.84Z"/><path class="cls-17" d="M279.24,199.84l62.91,81a6.28,6.28,0,0,1,.74,6.54,6.17,6.17,0,0,1-1.85,2.32L304,318.52a6.34,6.34,0,0,1-8.87-1.12l-62.92-81a6.32,6.32,0,0,1,1.12-8.87l5.42-4.21a1.32,1.32,0,0,1,1.84.23,2.38,2.38,0,0,0,1.61.91A2.35,2.35,0,0,0,244,224l20.34-15.79a2.44,2.44,0,0,0,.87-1.37,2.08,2.08,0,0,0,0-.23.57.57,0,0,0,0-.22,2.34,2.34,0,0,0-.5-1.55h0a1.31,1.31,0,0,1,.24-1.83l5.43-4.22A6.33,6.33,0,0,1,279.24,199.84Z"/><rect x="235.08" y="227.7" width="27.14" height="7.37" transform="translate(-89.79 202.67) rotate(-38.09)"/><path class="cls-18" d="M263.44,217.11h0a2.68,2.68,0,1,1-1.65.57,2.62,2.62,0,0,1,1.65-.57m0-1a3.68,3.68,0,0,0-2.27.78h0a3.69,3.69,0,1,0,5.18.63h0a3.68,3.68,0,0,0-2.91-1.41Z"/><path class="cls-18" d="M278,205.66h0a2.68,2.68,0,0,1,2.67,3,2.66,2.66,0,0,1-1,1.79l-7.65,6a2.69,2.69,0,0,1-3.77-.46,2.69,2.69,0,0,1,.45-3.77l7.66-6a2.68,2.68,0,0,1,1.65-.57m0-1a3.69,3.69,0,0,0-2.27.79l-7.65,6a3.67,3.67,0,0,0-.63,5.17h0a3.67,3.67,0,0,0,2.9,1.41,3.63,3.63,0,0,0,2.27-.78l7.66-6a3.7,3.7,0,0,0,.63-5.18h0a3.71,3.71,0,0,0-2.91-1.41Z"/><rect class="cls-19" x="245.82" y="227.76" width="53.17" height="25.68" rx="2.74" ry="2.74" transform="translate(-90.42 219.29) rotate(-38.09)"/><rect class="cls-20" x="263.03" y="249.71" width="53.17" height="25.68" rx="2.74" ry="2.74" transform="translate(-100.29 234.58) rotate(-38.09)"/><rect class="cls-21" x="280.23" y="271.66" width="53.17" height="25.68" rx="2.74" ry="2.74" transform="translate(-110.17 249.87) rotate(-38.09)"/><path class="cls-22" d="M342.89,287.42a6.17,6.17,0,0,1-1.85,2.32L304,318.52a6.22,6.22,0,0,1-3.27,1.29l-3.66-4.67a3.06,3.06,0,0,1,.52-4.28l37.06-29a3,3,0,0,1,4.27.51Z"/></svg>