<svg id="Layer_1" data-name="Layer 1" xmlns="http://www.w3.org/2000/svg" viewBox="0 0 600 356"><defs><style>.cls-1{fill:#fbc304;}.cls-2{fill:#003161;}.cls-3{fill:#19163a;opacity:0.42;isolation:isolate;}.cls-4{fill:#cec8b6;}.cls-5{fill:#f7f0da;}.cls-6,.cls-7{fill:none;}.cls-6{stroke:#ddd5bf;stroke-miterlimit:10;stroke-width:0.25px;}.cls-8{fill:#c5c8d5;}.cls-9{fill:#686a84;}.cls-10{fill:#4d526d;}.cls-11{fill:#d0d2dd;}.cls-12{fill:#e1e3e8;}.cls-13{fill:#f4bf3b;}.cls-14{fill:#44340d;opacity:0.67;}</style></defs><title>nso-splash</title><g id="Group-2"><rect id="Rectangle-4" class="cls-1" width="600" height="356"/></g><polygon class="cls-2" points="457.94 54.34 455.75 37.88 446.58 40.03 449.43 54.98 457.94 54.34"/><polygon class="cls-2" points="387.25 59.94 385.06 43.48 375.88 45.62 378.74 60.58 387.25 59.94"/><path class="cls-3" d="M349.25,212.22l.58,2a1.56,1.56,0,0,1-1.06,1.92L162.2,270a1.57,1.57,0,0,1-1.93-1.06l-.58-2Z"/><path class="cls-4" d="M158.53,262.92l1.16,4a1.92,1.92,0,0,0,2.4,1.33l185.83-53.65a1.93,1.93,0,0,0,1.33-2.41l-1.17-4Z"/><path class="cls-5" d="M345.54,210.87l-183.44,53a3.15,3.15,0,0,1-3.94-2.17L117.58,121.11a3.15,3.15,0,0,1,2.18-3.94l183.44-53a3.15,3.15,0,0,1,3.94,2.17l40.58,140.55A3.2,3.2,0,0,1,345.54,210.87Z"/><path class="cls-6" d="M348.34,209.09A1.93,1.93,0,0,1,347,211.5L161.19,265.15a1.93,1.93,0,0,1-2.4-1.33l-41.29-143"/><path class="cls-6" d="M348.47,209.54a1.92,1.92,0,0,1-1.33,2.4L161.32,265.59a1.92,1.92,0,0,1-2.4-1.32l-41.29-143"/><path class="cls-6" d="M348.73,210.43a1.92,1.92,0,0,1-1.33,2.41L161.58,266.49a1.93,1.93,0,0,1-2.41-1.33l-41.28-143"/><path class="cls-6" d="M348.86,210.88a1.93,1.93,0,0,1-1.33,2.41L161.71,266.94a1.93,1.93,0,0,1-2.41-1.33L118,122.68"/><path class="cls-6" d="M349,211.33a1.92,1.92,0,0,1-1.33,2.4L161.84,267.38a1.92,1.92,0,0,1-2.41-1.32L118.17,123.13"/><path class="cls-6" d="M349.12,211.78a1.93,1.93,0,0,1-1.33,2.4L162,267.83a1.92,1.92,0,0,1-2.41-1.33L118.3,123.57"/><path class="cls-6" d="M348.6,210a1.92,1.92,0,0,1-1.33,2.4L161.45,266a1.93,1.93,0,0,1-2.41-1.33l-41.28-143"/><line class="cls-7" x1="291.61" y1="71.11" x2="291.25" y2="69.84"/><line class="cls-7" x1="296.62" y1="68.29" x2="296.98" y2="69.56"/><path class="cls-8" d="M297.45,73.71l-3.87,1.12a.75.75,0,0,1-1-.53l-.47-1.65a.73.73,0,0,1,.53-1l3.88-1.12a.74.74,0,0,1,1,.53l.47,1.65A.77.77,0,0,1,297.45,73.71Z"/><path class="cls-8" d="M296.46,69.71,292.14,71a.53.53,0,0,1-.68-.37l0-.15a.52.52,0,0,1,.37-.67l4.33-1.25a.52.52,0,0,1,.67.37l0,.15A.52.52,0,0,1,296.46,69.71Z"/><path class="cls-9" d="M293.48,71.7h0a.45.45,0,0,1-.58-.32l-2.21-7.68a.45.45,0,0,1,.31-.58h0a.46.46,0,0,1,.58.32l2.2,7.61A.43.43,0,0,1,293.48,71.7Z"/><path class="cls-10" d="M294.08,73.79h0a.44.44,0,0,1-.57-.32l-2.22-7.68a.45.45,0,0,1,.32-.58h0a.45.45,0,0,1,.57.32l2.2,7.61A.44.44,0,0,1,294.08,73.79Z"/><path class="cls-9" d="M295.64,71.08h0a.45.45,0,0,1-.57-.32l-2.22-7.68a.44.44,0,0,1,.32-.58h0a.43.43,0,0,1,.57.32l2.2,7.61A.52.52,0,0,1,295.64,71.08Z"/><path class="cls-10" d="M296.25,73.17h0a.46.46,0,0,1-.58-.32l-2.22-7.69a.45.45,0,0,1,.32-.57h0a.45.45,0,0,1,.58.32l2.19,7.6A.53.53,0,0,1,296.25,73.17Z"/><path class="cls-8" d="M305.66,71.34l-3.88,1.12a.74.74,0,0,1-1-.53l-.47-1.64a.74.74,0,0,1,.53-1l3.88-1.12a.75.75,0,0,1,1,.53l.47,1.65A.84.84,0,0,1,305.66,71.34Z"/><path class="cls-8" d="M304.59,67.36l-4.32,1.25a.53.53,0,0,1-.68-.37l0-.15a.52.52,0,0,1,.37-.67l4.33-1.25a.52.52,0,0,1,.67.37l0,.15A.52.52,0,0,1,304.59,67.36Z"/><path class="cls-9" d="M301.61,69.35h0A.43.43,0,0,1,301,69l-2.22-7.69a.43.43,0,0,1,.32-.57h0a.44.44,0,0,1,.57.31l2.2,7.61A.43.43,0,0,1,301.61,69.35Z"/><path class="cls-10" d="M302.22,71.44h0a.44.44,0,0,1-.58-.32l-2.22-7.68a.45.45,0,0,1,.32-.58h0a.46.46,0,0,1,.58.32l2.19,7.61A.44.44,0,0,1,302.22,71.44Z"/><path class="cls-9" d="M303.78,68.73h0a.44.44,0,0,1-.58-.32L301,60.73a.45.45,0,0,1,.32-.58h0a.45.45,0,0,1,.58.32l2.19,7.61A.47.47,0,0,1,303.78,68.73Z"/><path class="cls-10" d="M304.38,70.82h0a.46.46,0,0,1-.58-.32l-2.22-7.68a.46.46,0,0,1,.32-.58h0a.45.45,0,0,1,.58.32l2.2,7.61A.48.48,0,0,1,304.38,70.82Z"/><line class="cls-7" x1="280.43" y1="72.96" x2="280.8" y2="74.23"/><line class="cls-7" x1="275.35" y1="75.8" x2="274.98" y2="74.54"/><path class="cls-8" d="M281.27,78.38l-3.88,1.12a.73.73,0,0,1-1-.53L276,77.33a.74.74,0,0,1,.53-1l3.88-1.12a.73.73,0,0,1,1,.53l.48,1.64A.79.79,0,0,1,281.27,78.38Z"/><path class="cls-8" d="M280.2,74.4l-4.33,1.25a.52.52,0,0,1-.67-.37l0-.15a.53.53,0,0,1,.37-.67l4.32-1.25a.54.54,0,0,1,.68.37l0,.15A.48.48,0,0,1,280.2,74.4Z"/><path class="cls-9" d="M277.29,76.38h0a.45.45,0,0,1-.57-.32l-2.22-7.69a.44.44,0,0,1,.32-.57h0a.44.44,0,0,1,.57.32l2.2,7.6A.52.52,0,0,1,277.29,76.38Z"/><path class="cls-10" d="M277.9,78.46h0a.44.44,0,0,1-.58-.31l-2.22-7.69a.45.45,0,0,1,.32-.57h0a.45.45,0,0,1,.58.31l2.19,7.61A.51.51,0,0,1,277.9,78.46Z"/><path class="cls-9" d="M279.38,75.77h0a.43.43,0,0,1-.57-.32l-2.22-7.68a.45.45,0,0,1,.32-.58h0a.45.45,0,0,1,.57.32l2.2,7.61A.43.43,0,0,1,279.38,75.77Z"/><path class="cls-10" d="M280,77.86h0a.44.44,0,0,1-.58-.32l-2.22-7.68a.45.45,0,0,1,.32-.58h0a.46.46,0,0,1,.58.32l2.19,7.61A.44.44,0,0,1,280,77.86Z"/><path class="cls-8" d="M289.4,76l-3.88,1.12a.73.73,0,0,1-1-.53L284.08,75a.74.74,0,0,1,.53-1l3.88-1.12a.73.73,0,0,1,1,.53l.48,1.64A.77.77,0,0,1,289.4,76Z"/><path class="cls-8" d="M288.41,72l-4.33,1.25a.53.53,0,0,1-.67-.38l-.05-.15a.54.54,0,0,1,.37-.67l4.33-1.25a.53.53,0,0,1,.67.37l0,.15A.55.55,0,0,1,288.41,72Z"/><path class="cls-9" d="M285.42,74h0a.45.45,0,0,1-.57-.32L282.63,66a.44.44,0,0,1,.32-.58h0a.43.43,0,0,1,.57.32l2.2,7.61A.44.44,0,0,1,285.42,74Z"/><path class="cls-10" d="M286,76.12h0a.46.46,0,0,1-.58-.32l-2.22-7.69a.45.45,0,0,1,.32-.57h0a.45.45,0,0,1,.58.32l2.19,7.61A.43.43,0,0,1,286,76.12Z"/><path class="cls-9" d="M287.59,73.4h0a.45.45,0,0,1-.58-.32l-2.22-7.68a.46.46,0,0,1,.32-.58h0a.46.46,0,0,1,.58.32l2.19,7.61A.51.51,0,0,1,287.59,73.4Z"/><path class="cls-10" d="M288.19,75.49h0a.45.45,0,0,1-.58-.32l-2.21-7.68a.45.45,0,0,1,.31-.58h0a.46.46,0,0,1,.58.32l2.2,7.61A.52.52,0,0,1,288.19,75.49Z"/><line class="cls-7" x1="264.09" y1="77.68" x2="264.46" y2="78.95"/><line class="cls-7" x1="259.09" y1="80.5" x2="258.72" y2="79.23"/><path class="cls-8" d="M264.93,83.1l-3.88,1.12a.74.74,0,0,1-1-.53l-.47-1.64a.74.74,0,0,1,.53-1L264,80a.75.75,0,0,1,1,.53l.47,1.65A.77.77,0,0,1,264.93,83.1Z"/><path class="cls-8" d="M263.94,79.1l-4.33,1.25a.52.52,0,0,1-.67-.37l-.05-.15a.53.53,0,0,1,.38-.67l4.32-1.25a.53.53,0,0,1,.68.37l0,.15A.53.53,0,0,1,263.94,79.1Z"/><path class="cls-9" d="M261,81.09h0a.44.44,0,0,1-.58-.32l-2.22-7.68a.45.45,0,0,1,.32-.58h0a.46.46,0,0,1,.58.32l2.19,7.61A.44.44,0,0,1,261,81.09Z"/><path class="cls-10" d="M261.56,83.18h0a.45.45,0,0,1-.58-.32l-2.22-7.68a.46.46,0,0,1,.32-.58h0a.46.46,0,0,1,.58.32l2.2,7.61A.44.44,0,0,1,261.56,83.18Z"/><path class="cls-9" d="M263.12,80.47h0a.46.46,0,0,1-.58-.32l-2.22-7.68a.46.46,0,0,1,.32-.58h0a.45.45,0,0,1,.58.32l2.2,7.61A.53.53,0,0,1,263.12,80.47Z"/><path class="cls-10" d="M263.72,82.56h0a.45.45,0,0,1-.57-.32l-2.22-7.69a.44.44,0,0,1,.32-.57h0a.44.44,0,0,1,.57.32l2.2,7.61A.52.52,0,0,1,263.72,82.56Z"/><path class="cls-8" d="M273.14,80.73l-3.88,1.12a.75.75,0,0,1-1-.53l-.47-1.64a.74.74,0,0,1,.53-1l3.88-1.12a.74.74,0,0,1,1,.54l.48,1.64A.85.85,0,0,1,273.14,80.73Z"/><path class="cls-8" d="M272.07,76.75,267.74,78a.52.52,0,0,1-.67-.37l0-.15a.52.52,0,0,1,.37-.67l4.32-1.25a.53.53,0,0,1,.68.37l0,.15A.52.52,0,0,1,272.07,76.75Z"/><path class="cls-9" d="M269.09,78.74h0a.45.45,0,0,1-.58-.31l-2.22-7.69a.45.45,0,0,1,.32-.57h0a.45.45,0,0,1,.58.31l2.19,7.61A.43.43,0,0,1,269.09,78.74Z"/><path class="cls-10" d="M269.69,80.83h0a.45.45,0,0,1-.58-.31l-2.21-7.69a.45.45,0,0,1,.31-.58h0a.46.46,0,0,1,.58.32l2.2,7.61A.43.43,0,0,1,269.69,80.83Z"/><path class="cls-9" d="M271.25,78.12h0a.45.45,0,0,1-.58-.32l-2.21-7.68a.45.45,0,0,1,.31-.58h0a.46.46,0,0,1,.58.32l2.2,7.61A.48.48,0,0,1,271.25,78.12Z"/><path class="cls-10" d="M271.85,80.21h0a.45.45,0,0,1-.57-.32l-2.22-7.68a.44.44,0,0,1,.32-.58h0A.43.43,0,0,1,270,72l2.2,7.61A.47.47,0,0,1,271.85,80.21Z"/><line class="cls-7" x1="247.91" y1="82.35" x2="248.27" y2="83.62"/><line class="cls-7" x1="242.83" y1="85.2" x2="242.46" y2="83.93"/><path class="cls-8" d="M248.74,87.77l-3.88,1.12a.73.73,0,0,1-1-.53l-.47-1.64a.73.73,0,0,1,.53-1l3.88-1.12a.73.73,0,0,1,1,.53l.47,1.64A.77.77,0,0,1,248.74,87.77Z"/><path class="cls-8" d="M247.67,83.8,243.35,85a.53.53,0,0,1-.68-.37l0-.15a.54.54,0,0,1,.37-.67l4.33-1.25A.53.53,0,0,1,248,83l.05.15C248.21,83.4,248,83.71,247.67,83.8Z"/><path class="cls-9" d="M244.77,85.77h0a.46.46,0,0,1-.58-.32L242,77.76a.45.45,0,0,1,.32-.57h0a.45.45,0,0,1,.58.32l2.2,7.6A.54.54,0,0,1,244.77,85.77Z"/><path class="cls-10" d="M245.37,87.85h0a.45.45,0,0,1-.58-.31l-2.21-7.69a.43.43,0,0,1,.31-.57h0a.44.44,0,0,1,.58.31l2.2,7.61A.52.52,0,0,1,245.37,87.85Z"/><path class="cls-9" d="M246.86,85.16h0a.44.44,0,0,1-.58-.32l-2.22-7.68a.46.46,0,0,1,.32-.58h0a.46.46,0,0,1,.58.32l2.19,7.61A.43.43,0,0,1,246.86,85.16Z"/><path class="cls-10" d="M247.46,87.25h0a.45.45,0,0,1-.58-.32l-2.22-7.68a.46.46,0,0,1,.32-.58h0a.46.46,0,0,1,.58.32l2.2,7.61A.43.43,0,0,1,247.46,87.25Z"/><path class="cls-8" d="M256.87,85.42,253,86.54a.73.73,0,0,1-1-.53l-.47-1.64a.73.73,0,0,1,.53-1L256,82.29a.73.73,0,0,1,1,.53l.47,1.64A.77.77,0,0,1,256.87,85.42Z"/><path class="cls-8" d="M255.88,81.43l-4.33,1.25a.54.54,0,0,1-.67-.38l0-.15a.53.53,0,0,1,.37-.67l4.33-1.25a.54.54,0,0,1,.67.37l0,.15A.53.53,0,0,1,255.88,81.43Z"/><path class="cls-9" d="M252.9,83.42h0a.46.46,0,0,1-.58-.32l-2.22-7.68a.46.46,0,0,1,.32-.58h0a.45.45,0,0,1,.58.32l2.2,7.61A.48.48,0,0,1,252.9,83.42Z"/><path class="cls-10" d="M253.5,85.51h0a.45.45,0,0,1-.57-.32l-2.22-7.68a.44.44,0,0,1,.32-.58h0a.44.44,0,0,1,.57.32l2.2,7.61A.47.47,0,0,1,253.5,85.51Z"/><path class="cls-9" d="M255.06,82.79h0a.43.43,0,0,1-.57-.31l-2.22-7.69a.45.45,0,0,1,.32-.58h0a.45.45,0,0,1,.57.32l2.2,7.61A.51.51,0,0,1,255.06,82.79Z"/><path class="cls-10" d="M255.67,84.88h0a.44.44,0,0,1-.58-.32l-2.22-7.68a.45.45,0,0,1,.32-.58h0a.46.46,0,0,1,.58.32L256,84.23A.51.51,0,0,1,255.67,84.88Z"/><line class="cls-7" x1="231.49" y1="87.09" x2="231.86" y2="88.36"/><line class="cls-7" x1="226.41" y1="89.93" x2="226.05" y2="88.67"/><path class="cls-8" d="M232.33,92.51l-3.88,1.12a.73.73,0,0,1-1-.53L227,91.46a.73.73,0,0,1,.53-1l3.88-1.12a.73.73,0,0,1,1,.53l.47,1.64A.77.77,0,0,1,232.33,92.51Z"/><path class="cls-8" d="M231.26,88.53l-4.32,1.25a.53.53,0,0,1-.68-.37l0-.15a.52.52,0,0,1,.37-.67l4.33-1.25a.52.52,0,0,1,.67.37l0,.15C231.8,88.14,231.56,88.45,231.26,88.53Z"/><path class="cls-9" d="M228.36,90.5h0a.44.44,0,0,1-.58-.31l-2.22-7.69a.45.45,0,0,1,.32-.57h0a.45.45,0,0,1,.58.31l2.19,7.61A.51.51,0,0,1,228.36,90.5Z"/><path class="cls-10" d="M229,92.59h0a.45.45,0,0,1-.58-.32l-2.22-7.68a.46.46,0,0,1,.32-.58h0a.46.46,0,0,1,.58.32l2.2,7.61A.52.52,0,0,1,229,92.59Z"/><path class="cls-9" d="M230.52,89.88h0a.45.45,0,0,1-.58-.32l-2.22-7.68a.46.46,0,0,1,.32-.58h0a.45.45,0,0,1,.58.32l2.2,7.61A.52.52,0,0,1,230.52,89.88Z"/><path class="cls-10" d="M231.12,92h0a.45.45,0,0,1-.57-.32L228.33,84a.44.44,0,0,1,.32-.58h0a.44.44,0,0,1,.57.32l2.2,7.61A.51.51,0,0,1,231.12,92Z"/><path class="cls-8" d="M240.46,90.16l-3.88,1.12a.73.73,0,0,1-1-.53l-.47-1.64a.73.73,0,0,1,.53-1L239.56,87a.73.73,0,0,1,1,.53L241,89.2A.77.77,0,0,1,240.46,90.16Z"/><path class="cls-8" d="M239.47,86.16l-4.33,1.25a.52.52,0,0,1-.67-.37l0-.15a.52.52,0,0,1,.37-.67L239.12,85a.53.53,0,0,1,.68.37l0,.15A.52.52,0,0,1,239.47,86.16Z"/><path class="cls-9" d="M236.49,88.16h0a.46.46,0,0,1-.58-.32l-2.22-7.69a.45.45,0,0,1,.32-.57h0a.45.45,0,0,1,.58.32l2.19,7.61A.43.43,0,0,1,236.49,88.16Z"/><path class="cls-10" d="M237.09,90.25h0a.46.46,0,0,1-.58-.32l-2.21-7.69a.43.43,0,0,1,.31-.57h0a.44.44,0,0,1,.58.31l2.2,7.61A.45.45,0,0,1,237.09,90.25Z"/><path class="cls-9" d="M238.65,87.53h0a.45.45,0,0,1-.58-.32l-2.21-7.68a.45.45,0,0,1,.31-.58h0a.46.46,0,0,1,.58.32l2.2,7.61A.52.52,0,0,1,238.65,87.53Z"/><path class="cls-10" d="M239.25,89.62h0a.44.44,0,0,1-.57-.32l-2.22-7.68a.45.45,0,0,1,.32-.58h0a.45.45,0,0,1,.57.32l2.2,7.61A.51.51,0,0,1,239.25,89.62Z"/><line class="cls-7" x1="215.23" y1="91.79" x2="215.6" y2="93.06"/><line class="cls-7" x1="210.23" y1="94.61" x2="209.86" y2="93.34"/><path class="cls-8" d="M216.14,97.18l-3.88,1.12a.73.73,0,0,1-1-.53l-.47-1.64a.73.73,0,0,1,.53-1l3.88-1.12a.73.73,0,0,1,1,.53l.47,1.64A.83.83,0,0,1,216.14,97.18Z"/><path class="cls-8" d="M215.07,93.21l-4.32,1.25a.53.53,0,0,1-.67-.37l-.05-.15a.55.55,0,0,1,.37-.68L214.73,92a.53.53,0,0,1,.67.38l0,.14A.55.55,0,0,1,215.07,93.21Z"/><path class="cls-9" d="M212.17,95.18h0a.46.46,0,0,1-.58-.32l-2.22-7.68a.46.46,0,0,1,.32-.58h0a.45.45,0,0,1,.58.32l2.2,7.61A.53.53,0,0,1,212.17,95.18Z"/><path class="cls-10" d="M212.77,97.27h0a.46.46,0,0,1-.58-.32L210,89.26a.44.44,0,0,1,.31-.57h0a.44.44,0,0,1,.58.32l2.2,7.61A.53.53,0,0,1,212.77,97.27Z"/><path class="cls-9" d="M214.26,94.57h0a.45.45,0,0,1-.58-.31l-2.22-7.69a.45.45,0,0,1,.32-.57h0a.45.45,0,0,1,.58.31l2.19,7.61A.43.43,0,0,1,214.26,94.57Z"/><path class="cls-10" d="M214.86,96.66h0a.45.45,0,0,1-.58-.31l-2.21-7.69a.45.45,0,0,1,.31-.58h0a.46.46,0,0,1,.58.32l2.2,7.61A.43.43,0,0,1,214.86,96.66Z"/><path class="cls-8" d="M224.27,94.84,220.39,96a.74.74,0,0,1-1-.54L219,93.78a.73.73,0,0,1,.53-1l3.88-1.12a.73.73,0,0,1,1,.53l.47,1.64A.78.78,0,0,1,224.27,94.84Z"/><path class="cls-8" d="M223.21,90.86l-4.33,1.25a.52.52,0,0,1-.67-.37l-.05-.15a.53.53,0,0,1,.37-.67l4.33-1.25a.52.52,0,0,1,.67.37l.05.15C223.74,90.46,223.5,90.77,223.21,90.86Z"/><path class="cls-9" d="M220.3,92.83h0a.45.45,0,0,1-.58-.32l-2.22-7.68a.46.46,0,0,1,.32-.58h0a.46.46,0,0,1,.58.32l2.2,7.61A.52.52,0,0,1,220.3,92.83Z"/><path class="cls-10" d="M220.9,94.92h0a.44.44,0,0,1-.57-.32l-2.22-7.68a.44.44,0,0,1,.32-.58h0a.44.44,0,0,1,.57.32l2.2,7.61A.51.51,0,0,1,220.9,94.92Z"/><path class="cls-9" d="M222.39,92.23h0a.46.46,0,0,1-.58-.32l-2.22-7.68a.46.46,0,0,1,.32-.58h0a.45.45,0,0,1,.58.32l2.2,7.61A.44.44,0,0,1,222.39,92.23Z"/><path class="cls-10" d="M223,94.32h0a.45.45,0,0,1-.57-.32l-2.22-7.69a.44.44,0,0,1,.31-.57h0a.44.44,0,0,1,.58.32l2.2,7.6A.45.45,0,0,1,223,94.32Z"/><line class="cls-7" x1="198.97" y1="96.48" x2="199.33" y2="97.75"/><line class="cls-7" x1="193.89" y1="99.32" x2="193.52" y2="98.06"/><path class="cls-8" d="M199.8,101.9,195.93,103a.74.74,0,0,1-1-.53l-.47-1.64a.73.73,0,0,1,.53-1l3.88-1.12a.73.73,0,0,1,1,.53l.48,1.64A.79.79,0,0,1,199.8,101.9Z"/><path class="cls-8" d="M198.74,97.92l-4.33,1.25a.52.52,0,0,1-.67-.37l0-.15a.52.52,0,0,1,.37-.67l4.32-1.25a.53.53,0,0,1,.68.37l0,.15A.48.48,0,0,1,198.74,97.92Z"/><path class="cls-9" d="M195.83,99.89h0a.45.45,0,0,1-.58-.31L193,91.89a.43.43,0,0,1,.31-.57h0a.44.44,0,0,1,.58.31l2.2,7.61A.52.52,0,0,1,195.83,99.89Z"/><path class="cls-10" d="M196.43,102h0a.44.44,0,0,1-.57-.31L193.64,94a.45.45,0,0,1,.32-.58h0a.45.45,0,0,1,.57.32l2.2,7.61A.51.51,0,0,1,196.43,102Z"/><path class="cls-9" d="M198,99.27h0a.44.44,0,0,1-.58-.32l-2.22-7.68a.45.45,0,0,1,.32-.58h0a.46.46,0,0,1,.58.32l2.19,7.61A.51.51,0,0,1,198,99.27Z"/><path class="cls-10" d="M198.6,101.36h0A.45.45,0,0,1,198,101l-2.22-7.68a.46.46,0,0,1,.32-.58h0a.45.45,0,0,1,.58.32l2.19,7.61A.52.52,0,0,1,198.6,101.36Z"/><path class="cls-8" d="M207.94,99.55l-3.88,1.12a.73.73,0,0,1-1-.53l-.48-1.64a.73.73,0,0,1,.53-1L207,96.42a.73.73,0,0,1,1,.53l.48,1.64A.79.79,0,0,1,207.94,99.55Z"/><path class="cls-8" d="M206.94,95.56l-4.32,1.24a.53.53,0,0,1-.68-.37l0-.15a.53.53,0,0,1,.37-.67l4.33-1.25a.53.53,0,0,1,.67.37l0,.15A.55.55,0,0,1,206.94,95.56Z"/><path class="cls-9" d="M204,97.55h0a.45.45,0,0,1-.57-.32l-2.22-7.68a.44.44,0,0,1,.32-.58h0a.44.44,0,0,1,.57.32l2.2,7.61A.44.44,0,0,1,204,97.55Z"/><path class="cls-10" d="M204.57,99.64h0a.46.46,0,0,1-.58-.32l-2.22-7.69a.44.44,0,0,1,.32-.57h0a.45.45,0,0,1,.58.32l2.19,7.6A.45.45,0,0,1,204.57,99.64Z"/><path class="cls-9" d="M206.13,96.92h0a.44.44,0,0,1-.58-.32l-2.22-7.68a.45.45,0,0,1,.32-.58h0a.46.46,0,0,1,.58.32l2.19,7.61A.51.51,0,0,1,206.13,96.92Z"/><path class="cls-10" d="M206.73,99h0a.45.45,0,0,1-.58-.32L203.93,91a.46.46,0,0,1,.32-.58h0a.46.46,0,0,1,.58.32l2.2,7.61A.52.52,0,0,1,206.73,99Z"/><line class="cls-7" x1="182.71" y1="101.18" x2="183.07" y2="102.45"/><path class="cls-8" d="M183.62,106.57l-3.88,1.12a.73.73,0,0,1-1-.53l-.48-1.64a.74.74,0,0,1,.53-1l3.88-1.12a.73.73,0,0,1,1,.53l.48,1.64A.83.83,0,0,1,183.62,106.57Z"/><path class="cls-8" d="M182.55,102.6l-4.33,1.25a.54.54,0,0,1-.67-.37l0-.15a.53.53,0,0,1,.37-.68l4.33-1.25a.54.54,0,0,1,.67.38l0,.14A.53.53,0,0,1,182.55,102.6Z"/><path class="cls-9" d="M179.64,104.57h0a.45.45,0,0,1-.57-.32l-2.22-7.68a.44.44,0,0,1,.32-.58h0a.43.43,0,0,1,.57.32l2.2,7.61A.51.51,0,0,1,179.64,104.57Z"/><path class="cls-10" d="M180.25,106.66h0a.46.46,0,0,1-.58-.32l-2.22-7.68a.46.46,0,0,1,.32-.58h0a.45.45,0,0,1,.58.32l2.19,7.61A.52.52,0,0,1,180.25,106.66Z"/><path class="cls-9" d="M181.73,104h0a.45.45,0,0,1-.57-.32L178.94,96a.43.43,0,0,1,.32-.57h0a.44.44,0,0,1,.57.31l2.2,7.61A.45.45,0,0,1,181.73,104Z"/><path class="cls-10" d="M182.34,106.05h0a.44.44,0,0,1-.58-.31l-2.22-7.69a.43.43,0,0,1,.32-.57h0a.45.45,0,0,1,.58.31l2.19,7.61A.44.44,0,0,1,182.34,106.05Z"/><path class="cls-8" d="M191.75,104.23l-3.88,1.12a.74.74,0,0,1-1-.54l-.48-1.64a.74.74,0,0,1,.53-1l3.88-1.12a.73.73,0,0,1,1,.53l.48,1.64A.78.78,0,0,1,191.75,104.23Z"/><path class="cls-8" d="M190.68,100.25l-4.33,1.25a.53.53,0,0,1-.67-.37l0-.15a.52.52,0,0,1,.37-.67l4.33-1.25a.52.52,0,0,1,.67.37l0,.15C191.21,99.85,191,100.16,190.68,100.25Z"/><path class="cls-9" d="M187.78,102.22h0a.44.44,0,0,1-.58-.32L185,94.22a.45.45,0,0,1,.32-.58h0a.45.45,0,0,1,.57.32l2.2,7.61A.51.51,0,0,1,187.78,102.22Z"/><path class="cls-10" d="M188.38,104.31h0a.45.45,0,0,1-.58-.32l-2.22-7.68a.46.46,0,0,1,.32-.58h0a.45.45,0,0,1,.58.32l2.19,7.61A.52.52,0,0,1,188.38,104.31Z"/><path class="cls-9" d="M189.86,101.62h0a.45.45,0,0,1-.57-.32l-2.22-7.68a.44.44,0,0,1,.32-.58h0a.43.43,0,0,1,.57.32l2.2,7.61A.44.44,0,0,1,189.86,101.62Z"/><path class="cls-10" d="M190.47,103.71h0a.46.46,0,0,1-.58-.32l-2.22-7.69a.45.45,0,0,1,.32-.57h0a.45.45,0,0,1,.58.32l2.19,7.61A.43.43,0,0,1,190.47,103.71Z"/><line class="cls-7" x1="161.29" y1="108.74" x2="160.92" y2="107.47"/><line class="cls-7" x1="166.29" y1="105.92" x2="166.66" y2="107.19"/><path class="cls-8" d="M167.21,111.31l-3.88,1.12a.74.74,0,0,1-1-.53l-.47-1.64a.73.73,0,0,1,.53-1l3.88-1.12a.73.73,0,0,1,1,.53l.48,1.64A.85.85,0,0,1,167.21,111.31Z"/><path class="cls-8" d="M166.14,107.34l-4.33,1.25a.53.53,0,0,1-.67-.38l0-.15a.53.53,0,0,1,.37-.67l4.32-1.25a.55.55,0,0,1,.68.37l0,.15A.53.53,0,0,1,166.14,107.34Z"/><path class="cls-9" d="M163.16,109.33h0a.46.46,0,0,1-.58-.32l-2.22-7.68a.46.46,0,0,1,.32-.58h0a.45.45,0,0,1,.58.32l2.19,7.61A.43.43,0,0,1,163.16,109.33Z"/><path class="cls-10" d="M163.76,111.42h0a.46.46,0,0,1-.58-.32L161,103.41a.44.44,0,0,1,.31-.57h0a.44.44,0,0,1,.58.32l2.2,7.61A.44.44,0,0,1,163.76,111.42Z"/><path class="cls-9" d="M165.32,108.7h0a.45.45,0,0,1-.58-.31l-2.21-7.69a.45.45,0,0,1,.31-.58h0a.46.46,0,0,1,.58.32l2.2,7.61C165.7,108.35,165.62,108.62,165.32,108.7Z"/><path class="cls-10" d="M165.92,110.79h0a.44.44,0,0,1-.57-.32l-2.22-7.68a.45.45,0,0,1,.32-.58h0a.45.45,0,0,1,.57.32l2.2,7.61A.47.47,0,0,1,165.92,110.79Z"/><path class="cls-8" d="M175.34,109l-3.88,1.12a.73.73,0,0,1-1-.53l-.48-1.64a.74.74,0,0,1,.53-1l3.88-1.12a.73.73,0,0,1,1,.53l.48,1.64A.84.84,0,0,1,175.34,109Z"/><path class="cls-8" d="M174.27,105l-4.33,1.25a.54.54,0,0,1-.67-.37l0-.15a.53.53,0,0,1,.37-.68l4.32-1.24a.53.53,0,0,1,.68.37l0,.15C174.8,104.59,174.57,104.9,174.27,105Z"/><path class="cls-9" d="M171.36,107h0a.44.44,0,0,1-.57-.32L168.57,99a.44.44,0,0,1,.32-.58h0a.44.44,0,0,1,.57.32l2.2,7.61A.51.51,0,0,1,171.36,107Z"/><path class="cls-10" d="M172,109.05h0a.46.46,0,0,1-.58-.32l-2.22-7.68a.46.46,0,0,1,.32-.58h0a.45.45,0,0,1,.58.32l2.19,7.61A.52.52,0,0,1,172,109.05Z"/><path class="cls-9" d="M173.45,106.36h0a.45.45,0,0,1-.57-.32l-2.22-7.69a.44.44,0,0,1,.32-.57h0a.44.44,0,0,1,.57.32l2.2,7.6A.45.45,0,0,1,173.45,106.36Z"/><path class="cls-10" d="M174.06,108.44h0a.44.44,0,0,1-.58-.31l-2.22-7.69a.43.43,0,0,1,.32-.57h0a.45.45,0,0,1,.58.31l2.19,7.61A.44.44,0,0,1,174.06,108.44Z"/><line class="cls-7" x1="150.11" y1="110.59" x2="150.47" y2="111.86"/><line class="cls-7" x1="145.1" y1="113.41" x2="144.74" y2="112.14"/><path class="cls-8" d="M150.94,116l-3.88,1.12a.74.74,0,0,1-1-.53l-.47-1.65a.73.73,0,0,1,.53-1l3.88-1.12a.74.74,0,0,1,1,.53l.47,1.65A.77.77,0,0,1,150.94,116Z"/><path class="cls-8" d="M150,112l-4.33,1.25a.53.53,0,0,1-.67-.37l0-.15a.52.52,0,0,1,.37-.67l4.33-1.25a.53.53,0,0,1,.67.37l0,.15A.52.52,0,0,1,150,112Z"/><path class="cls-9" d="M147,114h0a.45.45,0,0,1-.58-.32L144.17,106a.46.46,0,0,1,.32-.58h0a.46.46,0,0,1,.58.32l2.2,7.61A.43.43,0,0,1,147,114Z"/><path class="cls-10" d="M147.57,116.09h0a.43.43,0,0,1-.57-.32l-2.22-7.68a.45.45,0,0,1,.32-.58h0a.45.45,0,0,1,.57.32l2.2,7.61A.44.44,0,0,1,147.57,116.09Z"/><path class="cls-9" d="M149.13,113.38h0a.45.45,0,0,1-.57-.32l-2.22-7.68a.44.44,0,0,1,.32-.58h0a.44.44,0,0,1,.57.32l2.2,7.61A.52.52,0,0,1,149.13,113.38Z"/><path class="cls-10" d="M149.74,115.47h0a.46.46,0,0,1-.58-.32l-2.22-7.69a.44.44,0,0,1,.32-.57h0a.45.45,0,0,1,.58.32l2.19,7.6A.53.53,0,0,1,149.74,115.47Z"/><path class="cls-8" d="M159.15,113.64l-3.88,1.12a.74.74,0,0,1-1-.53l-.48-1.64a.75.75,0,0,1,.53-1l3.88-1.12a.75.75,0,0,1,1,.54l.47,1.64A.84.84,0,0,1,159.15,113.64Z"/><path class="cls-8" d="M158.08,109.66l-4.33,1.25a.53.53,0,0,1-.67-.37l0-.15a.52.52,0,0,1,.37-.67l4.33-1.25a.52.52,0,0,1,.67.37l0,.15A.52.52,0,0,1,158.08,109.66Z"/><path class="cls-9" d="M155.1,111.65h0a.45.45,0,0,1-.58-.31l-2.21-7.69a.43.43,0,0,1,.31-.57h0a.44.44,0,0,1,.58.31l2.2,7.61A.43.43,0,0,1,155.1,111.65Z"/><path class="cls-10" d="M155.7,113.74h0a.44.44,0,0,1-.57-.32l-2.22-7.68a.45.45,0,0,1,.32-.58h0a.45.45,0,0,1,.57.32l2.2,7.61A.43.43,0,0,1,155.7,113.74Z"/><path class="cls-9" d="M157.26,111h0a.44.44,0,0,1-.57-.32L154.47,103a.45.45,0,0,1,.32-.58h0a.44.44,0,0,1,.57.32l2.2,7.61A.47.47,0,0,1,157.26,111Z"/><path class="cls-10" d="M157.87,113.12h0a.46.46,0,0,1-.58-.32l-2.22-7.68a.46.46,0,0,1,.32-.58h0a.45.45,0,0,1,.58.32l2.19,7.61A.46.46,0,0,1,157.87,113.12Z"/><line class="cls-7" x1="128.76" y1="118.13" x2="128.4" y2="116.86"/><line class="cls-7" x1="133.77" y1="115.31" x2="134.14" y2="116.58"/><path class="cls-8" d="M134.68,120.7l-3.88,1.12a.73.73,0,0,1-1-.53l-.47-1.64a.73.73,0,0,1,.53-1l3.88-1.12a.73.73,0,0,1,1,.53l.47,1.64A.84.84,0,0,1,134.68,120.7Z"/><path class="cls-8" d="M133.61,116.73,129.29,118a.55.55,0,0,1-.68-.38l0-.14a.53.53,0,0,1,.37-.68l4.33-1.25a.53.53,0,0,1,.67.37l0,.15A.53.53,0,0,1,133.61,116.73Z"/><path class="cls-9" d="M130.63,118.72h0a.45.45,0,0,1-.57-.32l-2.22-7.68a.44.44,0,0,1,.32-.58h0a.44.44,0,0,1,.57.32l2.2,7.61A.44.44,0,0,1,130.63,118.72Z"/><path class="cls-10" d="M131.24,120.81h0a.46.46,0,0,1-.58-.32l-2.22-7.68a.44.44,0,0,1,.32-.58h0a.45.45,0,0,1,.58.32l2.19,7.61A.44.44,0,0,1,131.24,120.81Z"/><path class="cls-9" d="M132.8,118.09h0a.44.44,0,0,1-.58-.31L130,110.09a.44.44,0,0,1,.32-.57h0a.45.45,0,0,1,.58.31l2.19,7.61A.47.47,0,0,1,132.8,118.09Z"/><path class="cls-10" d="M133.4,120.18h0a.45.45,0,0,1-.58-.32l-2.22-7.68a.46.46,0,0,1,.32-.58h0a.46.46,0,0,1,.58.32l2.2,7.61C133.78,119.83,133.7,120.1,133.4,120.18Z"/><path class="cls-8" d="M142.81,118.35l-3.88,1.12a.73.73,0,0,1-1-.53l-.47-1.64a.73.73,0,0,1,.53-1l3.88-1.12a.73.73,0,0,1,1,.53l.47,1.64A.83.83,0,0,1,142.81,118.35Z"/><path class="cls-8" d="M141.74,114.38l-4.32,1.25a.54.54,0,0,1-.68-.37l0-.15a.54.54,0,0,1,.37-.68l4.33-1.24a.52.52,0,0,1,.67.37l.05.15A.54.54,0,0,1,141.74,114.38Z"/><path class="cls-9" d="M138.84,116.35h0a.45.45,0,0,1-.58-.32L136,108.35a.46.46,0,0,1,.32-.58h0a.45.45,0,0,1,.58.32l2.2,7.61A.53.53,0,0,1,138.84,116.35Z"/><path class="cls-10" d="M139.44,118.44h0a.46.46,0,0,1-.58-.32l-2.21-7.68a.44.44,0,0,1,.31-.58h0a.44.44,0,0,1,.58.32l2.2,7.61A.52.52,0,0,1,139.44,118.44Z"/><path class="cls-9" d="M140.93,115.75h0a.46.46,0,0,1-.58-.32l-2.22-7.69a.45.45,0,0,1,.32-.57h0a.45.45,0,0,1,.58.32l2.19,7.61A.43.43,0,0,1,140.93,115.75Z"/><path class="cls-10" d="M141.53,117.84h0a.46.46,0,0,1-.58-.32l-2.22-7.69a.45.45,0,0,1,.32-.57h0a.44.44,0,0,1,.58.31l2.2,7.61A.45.45,0,0,1,141.53,117.84Z"/><path class="cls-8" d="M126.62,123l-3.88,1.12a.74.74,0,0,1-1-.53l-.47-1.64a.74.74,0,0,1,.53-1l3.88-1.12a.74.74,0,0,1,1,.54l.47,1.64A.83.83,0,0,1,126.62,123Z"/><path class="cls-8" d="M125.56,119.05l-4.33,1.25a.52.52,0,0,1-.67-.37l0-.15a.53.53,0,0,1,.38-.67l4.32-1.25a.52.52,0,0,1,.67.37l.05.15A.53.53,0,0,1,125.56,119.05Z"/><path class="cls-9" d="M122.58,121h0a.44.44,0,0,1-.58-.31L119.78,113a.44.44,0,0,1,.32-.57h0a.45.45,0,0,1,.58.31l2.19,7.61A.44.44,0,0,1,122.58,121Z"/><path class="cls-10" d="M123.18,123.13h0a.45.45,0,0,1-.58-.31l-2.22-7.69a.46.46,0,0,1,.32-.58h0a.46.46,0,0,1,.58.32l2.2,7.61A.43.43,0,0,1,123.18,123.13Z"/><path class="cls-9" d="M124.74,120.42h0a.45.45,0,0,1-.58-.32l-2.22-7.68a.46.46,0,0,1,.32-.58h0a.46.46,0,0,1,.58.32l2.2,7.61A.52.52,0,0,1,124.74,120.42Z"/><path class="cls-10" d="M125.34,122.51h0a.44.44,0,0,1-.57-.32l-2.22-7.68a.44.44,0,0,1,.32-.58h0a.44.44,0,0,1,.57.32l2.2,7.61A.51.51,0,0,1,125.34,122.51Z"/><ellipse class="cls-11" cx="288.23" cy="83.48" rx="2.41" ry="1.94" transform="matrix(0.96, -0.28, 0.28, 0.96, -11.85, 83.23)"/><ellipse class="cls-12" cx="288.47" cy="84.3" rx="2.17" ry="1.71" transform="translate(-12.06 83.33) rotate(-16.1)"/><ellipse class="cls-9" cx="288.67" cy="84.97" rx="2.17" ry="1.71" transform="translate(-12.24 83.41) rotate(-16.1)"/><ellipse class="cls-11" cx="215.95" cy="104.35" rx="2.41" ry="1.94" transform="translate(-20.47 64) rotate(-16.1)"/><ellipse class="cls-12" cx="216.19" cy="105.17" rx="2.17" ry="1.71" transform="translate(-20.69 64.09) rotate(-16.1)"/><ellipse class="cls-9" cx="216.38" cy="105.84" rx="2.17" ry="1.71" transform="translate(-20.87 64.17) rotate(-16.1)"/><ellipse class="cls-11" cx="143.51" cy="125.26" rx="2.41" ry="1.94" transform="translate(-29.11 44.72) rotate(-16.1)"/><ellipse class="cls-12" cx="143.75" cy="126.08" rx="2.17" ry="1.71" transform="translate(-29.33 44.82) rotate(-16.1)"/><ellipse class="cls-9" cx="143.94" cy="126.76" rx="2.17" ry="1.71" transform="translate(-29.51 44.9) rotate(-16.1)"/><path d="M202.68,142.37c-8,2.7-13.54,6.57-12.19,15.72,1.17,8,3.75,17.75,13.16,19,4.28.54,8.78-.67,12.77-2.23,3.62-1.45,8.3-3.45,10.15-7.13a5.23,5.23,0,0,0-1.38-6.72c-3.41-2.57-7.58-.8-10.9.88-1.12.57-.3,2.6.93,2.08,2.62-1,6.79-2.77,8.62.18,1.36,2.19,1.48,6.52,1.77,8.94.19,1.49,2.52,1.46,2.34,0-.41-3.36-.48-9.48-3.11-11.88-2.49-2.19-7.65-.46-10.27.54.29.73.66,1.43.92,2.08,1.63-.79,3.37-1.78,5.19-1.9,3.6-.15,4.78,3.95,2.47,6.32-2.05,2.12-5.37,3.49-8.14,4.53-5.47,2.06-12.68,3.66-17.23-1.17-3.51-3.75-4.72-10.19-5.18-15.15-.7-7.15,4.8-10,10.7-11.9a1.12,1.12,0,1,0-.62-2.16Z"/><path d="M227,140.28c-5.42,3.35-5.21,10.24-1.67,14.95,3.73,5.07,9.52,5.82,14.84,2.67,11.22-6.47-5.67-25-14.09-16.87-1.07,1,.61,2.66,1.68,1.62,5.89-5.66,20.89,9.65,9.61,14-3.64,1.37-7,1.11-9.61-1.92-3.14-3.62-4.35-9.49.39-12.39,1.31-.79.08-2.78-1.15-2Z"/><path d="M220.8,190.31a78.88,78.88,0,0,0,17.58,19.17c1.15.88,2.78-.72,1.62-1.68a75.14,75.14,0,0,1-17.2-18.71c-.76-1.24-2.76,0-2,1.22Z"/><path d="M223.75,191c.45-3.2,2.56-3.73,6.35-1.51a8.39,8.39,0,0,1,.16,4.47,25.74,25.74,0,0,1-1.65,4.93c-.46,1.18,1.24,1.74,2,1.11a10,10,0,0,0,1.9-2.4c.39-.6.7-1.75,1.31-2.16,1.8-1.33,4.67-.62,6.22.55a7.88,7.88,0,0,1,.42,12.64c-1.1,1,.58,2.58,1.68,1.62a10.23,10.23,0,0,0-.19-15.78c-1.93-1.63-4.68-2.78-7.26-2.19-3.27.7-3.61,4-5.87,6l2,1.11c1.67-4.28,3.61-11-1-14.17-4.14-2.85-7.12,1.65-8.4,5.09a1.21,1.21,0,0,0,2.31.71Z"/><path d="M246.45,194.3a6.33,6.33,0,0,0-.36-9.91c-2.46-1.8-7.53-1.71-7.32,2.35s5.65,7.83,9.16,9.07c5.84,2,8.86-2.63,11.55-7.29a1.16,1.16,0,0,0-2-1.12c-.95,1.74-2.32,4.55-4.11,5.64-2.69,1.58-5.4.59-7.8-1a12.1,12.1,0,0,1-2.13-1.81c-1.49-1.51-2-1.76-.9-3.38.51-1.6,1.37-1.69,2.61-.19.32.56.72,1.09,1.06,1.72a4.44,4.44,0,0,1-1.48,4.38c-1,.94.66,2.56,1.74,1.52Z"/><path d="M251.55,171.41c-2.86-.38-4.7,2.17-3.68,4.87,1.32,3.74,6.2,7.5,10.15,7.73,3.29.18,6.52-2,6.47-5.58-.06-4.68-7.51-7-10.78-8.77l-.82,2.18c5.7,1.82,11.38,3.58,17.38,3.38a1.17,1.17,0,0,0,0-2.33c-5.85.15-11.26-1.52-16.79-3.32-1.26-.44-2,1.54-.83,2.18,2,1.11,10.84,4.79,9.14,8.43-1.31,2.73-5.1,1.64-6.87.53a15.09,15.09,0,0,1-2.69-2.29c-1.38-1.14-1.73-2.65-1.16-4.6,1.4.09,2-2.2.51-2.41Z"/><path d="M257,164.92c4.1,2.7,8.24,5.3,12.33,8,1.2.79,2.16-.94,1.41-1.86-3-3.49-11.71-8.9-7.57-14.46.86-1.22-.82-2.84-1.68-1.62-5.28,7.18,3.5,13,7.63,17.76l1.4-1.86c-4.09-2.7-8.23-5.3-12.33-8-1.29-.84-2.46,1.28-1.19,2Z"/><path d="M267,149.51c-3.82,2.15-2.29,6.64.67,8.77a11,11,0,0,0,5.77,2.05,11.48,11.48,0,0,0,3.28-.38,17.29,17.29,0,0,1,2-.65,2.5,2.5,0,0,1,2.13.11c2.44-.22,2.83,1.12,1.11,4.12-1.19.91,0,2.9,1.22,2,2.81-2,3.35-6.3,0-8.23-1.83-1-3.79-.52-5.66,0s-3.8,1.1-5.84.48c-1.58-.43-7.6-3.95-3.58-6.24a1.15,1.15,0,1,0-1.07-2Z"/><polygon class="cls-2" points="477.32 51.88 428.32 300.9 347.34 61.67 477.32 51.88"/><polygon class="cls-13" points="472.39 58.07 427.91 286.03 354.53 67.5 472.39 58.07"/><path class="cls-2" d="M426.87,98l.64,8.78,17.61-3.92-2.4-14.31a5.23,5.23,0,0,0-5.62-4.33L394.64,88a6.67,6.67,0,0,0-6,7.27l.95,9.72a6,6,0,0,0,7,5.34l12-2-.66-7.46-9.1.56.06-4,33.66-4.29a1.42,1.42,0,0,1,1.6,1.46l0,1.35a1.43,1.43,0,0,1-1.28,1.37Z"/><path class="cls-2" d="M448.38,129.87l-3.22-13.79-55,5.26,2.46,8.85,12.93-1.1,1.83,5.74-13.09,4.56,2,8.3Zm-29-4.84,9.65-.16.39,5-8.76,3.31Z"/><polygon class="cls-2" points="449.92 152.97 447.65 145.54 401.44 156.26 405.17 171.16 411.87 169.56 410.21 162.05 449.92 152.97"/><polygon class="cls-14" points="348.46 64.98 346.31 66.39 424.4 297.04 427.02 297.04 348.46 64.98"/></svg>