<svg id="Layer_1" data-name="Layer 1" xmlns="http://www.w3.org/2000/svg" viewBox="0 0 600 356"><defs><style>.cls-1{fill:#fbc304;}.cls-2{fill:#19163a;opacity:0.42;}.cls-3{fill:#cec8b6;}.cls-4{fill:#f7f0da;}.cls-5{fill:none;stroke:#ddd5bf;stroke-width:0.25px;}.cls-13,.cls-5{stroke-miterlimit:10;}.cls-6{fill:#c5c8d5;}.cls-7{fill:#686a84;}.cls-8{fill:#4d526d;}.cls-9{fill:#d0d2dd;}.cls-10{fill:#e1e3e8;}.cls-11{fill:#5e4b16;}.cls-12,.cls-13{fill:#fcf49c;}.cls-13{stroke:#777a03;stroke-width:0.1px;}</style></defs><title>nso-splash</title><g id="Group-2"><rect id="Rectangle-4" class="cls-1" width="600" height="356"/></g><path class="cls-2" d="M351.77,278.3V281a2,2,0,0,1-2,2H99.67a2,2,0,0,1-2-2V278.3Z"/><path class="cls-3" d="M97.68,272.85v5.45a2.48,2.48,0,0,0,2.48,2.48H349.3a2.48,2.48,0,0,0,2.47-2.48v-5.45Z"/><rect class="cls-4" x="97.68" y="78.74" width="254.09" height="196.59" rx="4.08" ry="4.08"/><path class="cls-5" d="M351.77,274.07a2.47,2.47,0,0,1-2.47,2.47H100.16a2.47,2.47,0,0,1-2.48-2.47V82.43"/><path class="cls-5" d="M351.77,274.68a2.48,2.48,0,0,1-2.47,2.47H100.16a2.48,2.48,0,0,1-2.48-2.47V83"/><path class="cls-5" d="M351.77,275.89a2.48,2.48,0,0,1-2.47,2.48H100.16a2.48,2.48,0,0,1-2.48-2.48V84.25"/><path class="cls-5" d="M351.77,276.5A2.48,2.48,0,0,1,349.3,279H100.16a2.48,2.48,0,0,1-2.48-2.47V84.86"/><path class="cls-5" d="M351.77,277.1a2.48,2.48,0,0,1-2.47,2.48H100.16a2.48,2.48,0,0,1-2.48-2.48V85.46"/><path class="cls-5" d="M351.77,277.71a2.48,2.48,0,0,1-2.47,2.48H100.16a2.48,2.48,0,0,1-2.48-2.48V86.07"/><path class="cls-5" d="M351.77,275.28a2.48,2.48,0,0,1-2.47,2.48H100.16a2.48,2.48,0,0,1-2.48-2.48V83.64"/><rect class="cls-6" x="331.01" y="84.19" width="7.23" height="4.19" rx="1" ry="1"/><rect class="cls-6" x="330.87" y="81.44" width="7.23" height="1.66" rx="0.73" ry="0.73"/><rect class="cls-7" x="332.37" y="72.98" width="1.29" height="11.52" rx="0.64" ry="0.64"/><rect class="cls-8" x="332.37" y="75.75" width="1.29" height="11.52" rx="0.64" ry="0.64"/><rect class="cls-7" x="335.24" y="72.98" width="1.29" height="11.52" rx="0.64" ry="0.64"/><rect class="cls-8" x="335.24" y="75.75" width="1.29" height="11.52" rx="0.64" ry="0.64"/><rect class="cls-6" x="341.94" y="84.19" width="7.23" height="4.19" rx="1" ry="1"/><rect class="cls-6" x="341.8" y="81.44" width="7.23" height="1.66" rx="0.73" ry="0.73"/><rect class="cls-7" x="343.3" y="72.98" width="1.29" height="11.52" rx="0.64" ry="0.64"/><rect class="cls-8" x="343.3" y="75.75" width="1.29" height="11.52" rx="0.64" ry="0.64"/><rect class="cls-7" x="346.16" y="72.98" width="1.29" height="11.52" rx="0.64" ry="0.64"/><rect class="cls-8" x="346.16" y="75.75" width="1.29" height="11.52" rx="0.64" ry="0.64"/><rect class="cls-6" x="309.27" y="84.19" width="7.23" height="4.19" rx="1" ry="1"/><rect class="cls-6" x="309.13" y="81.44" width="7.23" height="1.66" rx="0.73" ry="0.73"/><rect class="cls-7" x="310.64" y="72.98" width="1.29" height="11.52" rx="0.64" ry="0.64"/><rect class="cls-8" x="310.64" y="75.75" width="1.29" height="11.52" rx="0.64" ry="0.64"/><rect class="cls-7" x="313.5" y="72.98" width="1.29" height="11.52" rx="0.64" ry="0.64"/><rect class="cls-8" x="313.5" y="75.75" width="1.29" height="11.52" rx="0.64" ry="0.64"/><rect class="cls-6" x="320.2" y="84.19" width="7.23" height="4.19" rx="1" ry="1"/><rect class="cls-6" x="320.06" y="81.44" width="7.23" height="1.66" rx="0.73" ry="0.73"/><rect class="cls-7" x="321.56" y="72.98" width="1.29" height="11.52" rx="0.64" ry="0.64"/><rect class="cls-8" x="321.56" y="75.75" width="1.29" height="11.52" rx="0.64" ry="0.64"/><rect class="cls-7" x="324.43" y="72.98" width="1.29" height="11.52" rx="0.64" ry="0.64"/><rect class="cls-8" x="324.43" y="75.75" width="1.29" height="11.52" rx="0.64" ry="0.64"/><rect class="cls-6" x="287.41" y="84.19" width="7.23" height="4.19" rx="1" ry="1"/><rect class="cls-6" x="287.27" y="81.44" width="7.23" height="1.66" rx="0.73" ry="0.73"/><rect class="cls-7" x="288.77" y="72.98" width="1.29" height="11.52" rx="0.64" ry="0.64"/><rect class="cls-8" x="288.77" y="75.75" width="1.29" height="11.52" rx="0.64" ry="0.64"/><rect class="cls-7" x="291.63" y="72.98" width="1.29" height="11.52" rx="0.64" ry="0.64"/><rect class="cls-8" x="291.63" y="75.75" width="1.29" height="11.52" rx="0.64" ry="0.64"/><rect class="cls-6" x="298.33" y="84.19" width="7.23" height="4.19" rx="1" ry="1"/><rect class="cls-6" x="298.19" y="81.44" width="7.23" height="1.66" rx="0.73" ry="0.73"/><rect class="cls-7" x="299.7" y="72.98" width="1.29" height="11.52" rx="0.64" ry="0.64"/><rect class="cls-8" x="299.7" y="75.75" width="1.29" height="11.52" rx="0.64" ry="0.64"/><rect class="cls-7" x="302.56" y="72.98" width="1.29" height="11.52" rx="0.64" ry="0.64"/><rect class="cls-8" x="302.56" y="75.75" width="1.29" height="11.52" rx="0.64" ry="0.64"/><rect class="cls-6" x="265.67" y="84.19" width="7.23" height="4.19" rx="1" ry="1"/><rect class="cls-6" x="265.53" y="81.44" width="7.23" height="1.66" rx="0.73" ry="0.73"/><rect class="cls-7" x="267.04" y="72.98" width="1.29" height="11.52" rx="0.64" ry="0.64"/><rect class="cls-8" x="267.04" y="75.75" width="1.29" height="11.52" rx="0.64" ry="0.64"/><rect class="cls-7" x="269.9" y="72.98" width="1.29" height="11.52" rx="0.64" ry="0.64"/><rect class="cls-8" x="269.9" y="75.75" width="1.29" height="11.52" rx="0.64" ry="0.64"/><rect class="cls-6" x="276.6" y="84.19" width="7.23" height="4.19" rx="1" ry="1"/><rect class="cls-6" x="276.46" y="81.44" width="7.23" height="1.66" rx="0.73" ry="0.73"/><rect class="cls-7" x="277.96" y="72.98" width="1.29" height="11.52" rx="0.64" ry="0.64"/><rect class="cls-8" x="277.96" y="75.75" width="1.29" height="11.52" rx="0.64" ry="0.64"/><rect class="cls-7" x="280.82" y="72.98" width="1.29" height="11.52" rx="0.64" ry="0.64"/><rect class="cls-8" x="280.82" y="75.75" width="1.29" height="11.52" rx="0.64" ry="0.64"/><rect class="cls-6" x="243.69" y="84.19" width="7.23" height="4.19" rx="1" ry="1"/><rect class="cls-6" x="243.55" y="81.44" width="7.23" height="1.66" rx="0.73" ry="0.73"/><rect class="cls-7" x="245.05" y="72.98" width="1.29" height="11.52" rx="0.64" ry="0.64"/><rect class="cls-8" x="245.05" y="75.75" width="1.29" height="11.52" rx="0.64" ry="0.64"/><rect class="cls-7" x="247.91" y="72.98" width="1.29" height="11.52" rx="0.64" ry="0.64"/><rect class="cls-8" x="247.91" y="75.75" width="1.29" height="11.52" rx="0.64" ry="0.64"/><rect class="cls-6" x="254.61" y="84.19" width="7.23" height="4.19" rx="1" ry="1"/><rect class="cls-6" x="254.47" y="81.44" width="7.23" height="1.66" rx="0.73" ry="0.73"/><rect class="cls-7" x="255.98" y="72.98" width="1.29" height="11.52" rx="0.64" ry="0.64"/><rect class="cls-8" x="255.98" y="75.75" width="1.29" height="11.52" rx="0.64" ry="0.64"/><rect class="cls-7" x="258.84" y="72.98" width="1.29" height="11.52" rx="0.64" ry="0.64"/><rect class="cls-8" x="258.84" y="75.75" width="1.29" height="11.52" rx="0.64" ry="0.64"/><rect class="cls-6" x="221.95" y="84.19" width="7.23" height="4.19" rx="1" ry="1"/><rect class="cls-6" x="221.81" y="81.44" width="7.23" height="1.66" rx="0.73" ry="0.73"/><rect class="cls-7" x="223.32" y="72.98" width="1.29" height="11.52" rx="0.64" ry="0.64"/><rect class="cls-8" x="223.32" y="75.75" width="1.29" height="11.52" rx="0.64" ry="0.64"/><rect class="cls-7" x="226.18" y="72.98" width="1.29" height="11.52" rx="0.64" ry="0.64"/><rect class="cls-8" x="226.18" y="75.75" width="1.29" height="11.52" rx="0.64" ry="0.64"/><rect class="cls-6" x="232.88" y="84.19" width="7.23" height="4.19" rx="1" ry="1"/><rect class="cls-6" x="232.74" y="81.44" width="7.23" height="1.66" rx="0.73" ry="0.73"/><rect class="cls-7" x="234.24" y="72.98" width="1.29" height="11.52" rx="0.64" ry="0.64"/><rect class="cls-8" x="234.24" y="75.75" width="1.29" height="11.52" rx="0.64" ry="0.64"/><rect class="cls-7" x="237.11" y="72.98" width="1.29" height="11.52" rx="0.64" ry="0.64"/><rect class="cls-8" x="237.11" y="75.75" width="1.29" height="11.52" rx="0.64" ry="0.64"/><rect class="cls-6" x="200.08" y="84.19" width="7.23" height="4.19" rx="1" ry="1"/><rect class="cls-6" x="199.95" y="81.44" width="7.23" height="1.66" rx="0.73" ry="0.73"/><rect class="cls-7" x="201.45" y="72.98" width="1.29" height="11.52" rx="0.64" ry="0.64"/><rect class="cls-8" x="201.45" y="75.75" width="1.29" height="11.52" rx="0.64" ry="0.64"/><rect class="cls-7" x="204.31" y="72.98" width="1.29" height="11.52" rx="0.64" ry="0.64"/><rect class="cls-8" x="204.31" y="75.75" width="1.29" height="11.52" rx="0.64" ry="0.64"/><rect class="cls-6" x="211.01" y="84.19" width="7.23" height="4.19" rx="1" ry="1"/><rect class="cls-6" x="210.87" y="81.44" width="7.23" height="1.66" rx="0.73" ry="0.73"/><rect class="cls-7" x="212.38" y="72.98" width="1.29" height="11.52" rx="0.64" ry="0.64"/><rect class="cls-8" x="212.38" y="75.75" width="1.29" height="11.52" rx="0.64" ry="0.64"/><rect class="cls-7" x="215.24" y="72.98" width="1.29" height="11.52" rx="0.64" ry="0.64"/><rect class="cls-8" x="215.24" y="75.75" width="1.29" height="11.52" rx="0.64" ry="0.64"/><rect class="cls-6" x="178.35" y="84.19" width="7.23" height="4.19" rx="1" ry="1"/><rect class="cls-6" x="178.21" y="81.44" width="7.23" height="1.66" rx="0.73" ry="0.73"/><rect class="cls-7" x="179.71" y="72.98" width="1.29" height="11.52" rx="0.64" ry="0.64"/><rect class="cls-8" x="179.71" y="75.75" width="1.29" height="11.52" rx="0.64" ry="0.64"/><rect class="cls-7" x="182.58" y="72.98" width="1.29" height="11.52" rx="0.64" ry="0.64"/><rect class="cls-8" x="182.58" y="75.75" width="1.29" height="11.52" rx="0.64" ry="0.64"/><rect class="cls-6" x="189.28" y="84.19" width="7.23" height="4.19" rx="1" ry="1"/><rect class="cls-6" x="189.14" y="81.44" width="7.23" height="1.66" rx="0.73" ry="0.73"/><rect class="cls-7" x="190.64" y="72.98" width="1.29" height="11.52" rx="0.64" ry="0.64"/><rect class="cls-8" x="190.64" y="75.75" width="1.29" height="11.52" rx="0.64" ry="0.64"/><rect class="cls-7" x="193.5" y="72.98" width="1.29" height="11.52" rx="0.64" ry="0.64"/><rect class="cls-8" x="193.5" y="75.75" width="1.29" height="11.52" rx="0.64" ry="0.64"/><rect class="cls-6" x="156.33" y="84.19" width="7.23" height="4.19" rx="1" ry="1"/><rect class="cls-6" x="156.2" y="81.44" width="7.23" height="1.66" rx="0.73" ry="0.73"/><rect class="cls-7" x="157.7" y="72.98" width="1.29" height="11.52" rx="0.64" ry="0.64"/><rect class="cls-8" x="157.7" y="75.75" width="1.29" height="11.52" rx="0.64" ry="0.64"/><rect class="cls-7" x="160.56" y="72.98" width="1.29" height="11.52" rx="0.64" ry="0.64"/><rect class="cls-8" x="160.56" y="75.75" width="1.29" height="11.52" rx="0.64" ry="0.64"/><rect class="cls-6" x="167.26" y="84.19" width="7.23" height="4.19" rx="1" ry="1"/><rect class="cls-6" x="167.12" y="81.44" width="7.23" height="1.66" rx="0.73" ry="0.73"/><rect class="cls-7" x="168.63" y="72.98" width="1.29" height="11.52" rx="0.64" ry="0.64"/><rect class="cls-8" x="168.63" y="75.75" width="1.29" height="11.52" rx="0.64" ry="0.64"/><rect class="cls-7" x="171.49" y="72.98" width="1.29" height="11.52" rx="0.64" ry="0.64"/><rect class="cls-8" x="171.49" y="75.75" width="1.29" height="11.52" rx="0.64" ry="0.64"/><rect class="cls-6" x="134.6" y="84.19" width="7.23" height="4.19" rx="1" ry="1"/><rect class="cls-6" x="134.46" y="81.44" width="7.23" height="1.66" rx="0.73" ry="0.73"/><rect class="cls-7" x="135.96" y="72.98" width="1.29" height="11.52" rx="0.64" ry="0.64"/><rect class="cls-8" x="135.96" y="75.75" width="1.29" height="11.52" rx="0.64" ry="0.64"/><rect class="cls-7" x="138.83" y="72.98" width="1.29" height="11.52" rx="0.64" ry="0.64"/><rect class="cls-8" x="138.83" y="75.75" width="1.29" height="11.52" rx="0.64" ry="0.64"/><rect class="cls-6" x="145.53" y="84.19" width="7.23" height="4.19" rx="1" ry="1"/><rect class="cls-6" x="145.39" y="81.44" width="7.23" height="1.66" rx="0.73" ry="0.73"/><rect class="cls-7" x="146.89" y="72.98" width="1.29" height="11.52" rx="0.64" ry="0.64"/><rect class="cls-8" x="146.89" y="75.75" width="1.29" height="11.52" rx="0.64" ry="0.64"/><rect class="cls-7" x="149.75" y="72.98" width="1.29" height="11.52" rx="0.64" ry="0.64"/><rect class="cls-8" x="149.75" y="75.75" width="1.29" height="11.52" rx="0.64" ry="0.64"/><rect class="cls-6" x="112.73" y="84.19" width="7.23" height="4.19" rx="1" ry="1"/><rect class="cls-6" x="112.59" y="81.44" width="7.23" height="1.66" rx="0.73" ry="0.73"/><rect class="cls-7" x="114.1" y="72.98" width="1.29" height="11.52" rx="0.64" ry="0.64"/><rect class="cls-8" x="114.1" y="75.75" width="1.29" height="11.52" rx="0.64" ry="0.64"/><rect class="cls-7" x="116.96" y="72.98" width="1.29" height="11.52" rx="0.64" ry="0.64"/><rect class="cls-8" x="116.96" y="75.75" width="1.29" height="11.52" rx="0.64" ry="0.64"/><rect class="cls-6" x="123.66" y="84.19" width="7.23" height="4.19" rx="1" ry="1"/><rect class="cls-6" x="123.52" y="81.44" width="7.23" height="1.66" rx="0.73" ry="0.73"/><rect class="cls-7" x="125.02" y="72.98" width="1.29" height="11.52" rx="0.64" ry="0.64"/><rect class="cls-8" x="125.02" y="75.75" width="1.29" height="11.52" rx="0.64" ry="0.64"/><rect class="cls-7" x="127.89" y="72.98" width="1.29" height="11.52" rx="0.64" ry="0.64"/><rect class="cls-8" x="127.89" y="75.75" width="1.29" height="11.52" rx="0.64" ry="0.64"/><rect class="cls-6" x="101.92" y="84.19" width="7.23" height="4.19" rx="1" ry="1"/><rect class="cls-6" x="101.79" y="81.44" width="7.23" height="1.66" rx="0.73" ry="0.73"/><rect class="cls-7" x="103.29" y="72.98" width="1.29" height="11.52" rx="0.64" ry="0.64"/><rect class="cls-8" x="103.29" y="75.75" width="1.29" height="11.52" rx="0.64" ry="0.64"/><rect class="cls-7" x="106.15" y="72.98" width="1.29" height="11.52" rx="0.64" ry="0.64"/><rect class="cls-8" x="106.15" y="75.75" width="1.29" height="11.52" rx="0.64" ry="0.64"/><ellipse class="cls-9" cx="322.31" cy="97.19" rx="3.11" ry="2.45"/><ellipse class="cls-10" cx="322.31" cy="98.34" rx="2.83" ry="2.23"/><ellipse class="cls-7" cx="322.31" cy="99.22" rx="2.83" ry="2.23"/><ellipse class="cls-9" cx="225.36" cy="97.19" rx="3.11" ry="2.45"/><ellipse class="cls-10" cx="225.36" cy="98.34" rx="2.83" ry="2.23"/><ellipse class="cls-7" cx="225.36" cy="99.22" rx="2.83" ry="2.23"/><ellipse class="cls-9" cx="128.33" cy="97.19" rx="3.11" ry="2.45"/><ellipse class="cls-10" cx="128.33" cy="98.34" rx="2.83" ry="2.23"/><ellipse class="cls-7" cx="128.33" cy="99.22" rx="2.83" ry="2.23"/><rect class="cls-11" x="389.03" y="89.85" width="91.27" height="93.65" rx="2.49" ry="2.49" transform="translate(-15.69 67.41) rotate(-8.71)"/><rect class="cls-11" x="401.79" y="128.62" width="91.27" height="93.65" rx="2.49" ry="2.49" transform="translate(-21.41 69.79) rotate(-8.71)"/><rect class="cls-12" x="387.39" y="87.72" width="93.65" height="93.65" rx="2.49" ry="2.49" transform="translate(-15.37 67.31) rotate(-8.71)"/><rect class="cls-13" x="400.33" y="126.84" width="93.65" height="93.65" rx="2.49" ry="2.49" transform="translate(-21.14 69.73) rotate(-8.71)"/><path d="M195.42,139.54c-10.8.49-19.08,3.34-20.72,15.08-1.45,10.31-1.68,23.28,9.46,28.17,5.11,2.25,11.1,2.31,16.56,1.79,5-.49,11.5-1.26,15.14-5.24a6.73,6.73,0,0,0,.67-8.83c-3.32-4.37-9.08-3.67-13.82-2.76-1.64.31-1.29,3.1.4,2.95,3.55-.33,9.43-1,10.63,3.29.88,3.15-.48,8.63-1,11.71-.32,1.89,2.57,2.7,2.89.79.72-4.27,2.81-11.91.36-15.82-2.27-3.61-9.32-3.3-12.88-3l.4,2.94c2.26-.43,4.83-1,7.13-.45,4.5,1.1,4.47,6.6.84,8.71-3.34,1.94-7.93,2.45-11.67,2.75-7.51.61-17.05,0-20.94-7.58-3.05-5.94-2.16-14.27-1-20.61,1.69-9.13,9.54-10.56,17.55-10.92,1.92-.08,1.94-3.09,0-3Z"/><path d="M226.16,145.59c-7.94,2.17-10.07,10.76-7.42,17.86,2.82,7.57,9.68,10.56,17.45,8.63,16.21-4,1.9-32.9-11.39-25.9-1.71.9-.19,3.49,1.52,2.59,9.29-4.9,22.38,19.43,6.94,20.74-5,.42-9-1.11-11.19-5.82-2.64-5.58-1.95-13.34,4.89-15.2a1.51,1.51,0,0,0-.8-2.9Z"/><path d="M200.75,205.34a101.47,101.47,0,0,0,14.93,30c1.12,1.54,3.73.05,2.59-1.52a99,99,0,0,1-14.63-29.29c-.56-1.84-3.46-1-2.89.8Z"/><path d="M204.07,207.22q2.61-5.75,8.36.42a11.25,11.25,0,0,1-1.4,5.65,34.94,34.94,0,0,1-3.76,5.5c-1,1.32.87,2.61,2,2.05a12.65,12.65,0,0,0,3.2-2.27c.7-.62,1.51-1.86,2.39-2.17,2.72-1,6,.92,7.54,2.93,4.34,5.53,2.27,12.88-4,15.85-1.74.83-.22,3.41,1.52,2.59a13.19,13.19,0,0,0,5.43-19.57c-1.85-2.66-4.84-5-8.19-5.26-4.34-.28-5.93,3.67-9.41,5.31l2.05,2.06c3.57-4.66,8.44-12.26,3.78-17.94-4.14-5-9.4-.54-12.16,3.33-1.13,1.58,1.47,3.08,2.59,1.52Z"/><path d="M231,219.43c4.62-2.34,6.49-8.09,3.15-12.37-2.42-3.09-8.69-4.76-9.87.31-1.24,5.3,4.16,11.69,8.09,14.47,6.52,4.62,11.92-.06,16.89-4.88,1.39-1.35-.73-3.47-2.12-2.13-1.85,1.8-4.54,4.83-7.07,5.5-3.92,1-6.93-1.17-9.3-4a18.39,18.39,0,0,1-2-3c-1.29-2.36-1.89-2.91.14-4.52q1.84-2.7,3.3.66l.71,2.46a5.68,5.68,0,0,1-3.42,4.88c-1.72.88-.21,3.47,1.51,2.59Z"/><path d="M245.51,192.89c-3.4-1.51-6.56,1-6.31,4.72.34,5.07,5,11.54,9.82,13.16,4,1.36,8.78-.18,10-4.63,1.57-5.84-6.78-11.25-10.17-14.73L247,193.76c6.37,4.35,12.76,8.46,20.3,10.43a1.51,1.51,0,0,0,.8-2.9c-7.29-1.9-13.43-5.92-19.58-10.12-1.44-1-3,1.17-1.82,2.36,2.09,2.14,11.74,9.82,8.32,13.65-2.57,2.89-6.94.16-8.71-1.77a19.92,19.92,0,0,1-2.51-3.81q-1.94-2.79.19-6.12c1.75.78,3.28-1.8,1.52-2.59Z"/><path d="M254.51,186.82,267,201.08c1.19,1.38,3-.37,2.35-1.81-2.49-5.41-11.27-15.21-4.2-20.59,1.51-1.16,0-3.77-1.52-2.6-9.14,7-.25,17.35,3.13,24.7l2.36-1.82L256.64,184.7c-1.28-1.46-3.39.67-2.13,2.12Z"/><path d="M272.4,171.35c-5.48,1.31-5.15,7.36-2.28,11.14a13.45,13.45,0,0,0,6.44,4.59,14.37,14.37,0,0,0,4.21.68c.89,0,1.83-.15,2.71-.06a3.35,3.35,0,0,1,2.64.85q4.71.9-.07,5.5c-1.8.66-1,3.56.8,2.9,4.2-1.55,6.42-6.61,2.94-10.22-1.86-1.93-4.48-2-7-2s-5.08,0-7.41-1.46c-1.78-1.07-8-7.62-2.2-9,1.88-.45,1.08-3.34-.8-2.89Z"/></svg>