<svg id="Layer_1" data-name="Layer 1" xmlns="http://www.w3.org/2000/svg" viewBox="0 0 600 356"><defs><style>.cls-1{fill:#fbc304;}.cls-2{opacity:0.48;}.cls-3{fill:#544115;}.cls-4{fill:#003161;}.cls-5{fill:#19163a;opacity:0.42;isolation:isolate;}.cls-6{fill:#cec8b6;}.cls-7{fill:#f7f0da;}.cls-8,.cls-9{fill:none;}.cls-8{stroke:#ddd5bf;stroke-miterlimit:10;stroke-width:0.25px;}.cls-10{fill:#c5c8d5;}.cls-11{fill:#686a84;}.cls-12{fill:#4d526d;}.cls-13{fill:#d0d2dd;}.cls-14{fill:#e1e3e8;}.cls-15{fill:#f4bf3b;}.cls-16{fill:#44340d;opacity:0.67;}.cls-17{fill:#f4f4f4;}.cls-18{fill:#2a4daa;}.cls-19{fill:#66bb6a;}.cls-20{fill:#42a5f5;}.cls-21{fill:#ec407a;}.cls-22{fill:#ffca28;}</style></defs><title>nso-splash</title><rect class="cls-1" width="600" height="356"/><g class="cls-2"><path class="cls-3" d="M349.06,285.1l-13.88-17.89L289,207.69a8.88,8.88,0,0,0-12.47-1.57l-34.75,27a8.89,8.89,0,0,0-1.56,12.47l46.21,59.52L300.28,323a8.85,8.85,0,0,0,8.91,3.23,8.68,8.68,0,0,0,3.55-1.66l34.75-27a9,9,0,0,0,2.27-2.61A8.89,8.89,0,0,0,349.06,285.1Z"/></g><polygon class="cls-4" points="133.4 201.38 138.19 211.49 136.76 212.38 121.25 222.01 114.32 211.8 131.94 202.18 133.4 201.38"/><path class="cls-5" d="M416.65,276.64l-102.3-131.3a1.33,1.33,0,0,1,.23-1.87l1.41-1.11,0,0,.09.12.18.24.42.53L419.18,274.82l.44.55.18.25.09.11,0,0-1.41,1.09A1.32,1.32,0,0,1,416.65,276.64Z"/><path class="cls-6" d="M417.6,275.49,315.71,144.7a1.66,1.66,0,0,1,.28-2.34l.32-.24.32-.25.3-.24.33-.25.31-.24,1.26-1h0l.14.18,103.63,133,.16.21-.63.49-.31.24-.32.25-.63.48-.95.75A1.66,1.66,0,0,1,417.6,275.49Z"/><path class="cls-7" d="M422.61,273.36a2.66,2.66,0,0,1-2.77-1L319.25,143.29a2.69,2.69,0,0,1-.27-2.95,2.47,2.47,0,0,1,.69-.83h0l0,0,18.78-14.64,5.54-4.31,59.55-46.41,13.33-10.38.63-.48.37-.29.31-.24.42-.34a2.69,2.69,0,0,1,3.82.48l.62.79.49.63.69.9.5.62,2.74,3.52L428,70l.7.89h0l.49.62L432,75.1h0l.48.63.66.83.49.63h0l2.81,3.62h0l.49.64.69.88h0l.49.64,2.79,3.56.49.63.69.9.49.63h0l2.73,3.51.49.64.7.88.49.63L449.83,98h0l.49.63.66.83.49.64,2.9,3.72h0l.49.63.66.83.49.64,2.82,3.62h0l.49.63.65.84.49.63,2.78,3.57.49.62.69.9h0l.49.62,2.78,3.56h0l.49.64.7.88.49.63,2.82,3.63.49.63.65.83.49.64,2.82,3.62h0l.48.63.65.84.49.63,2.78,3.56h0l.48.62.7.9h0l.5.62,2.77,3.57h0l.49.63h0l.7.88.49.63,2.86,3.68.49.63.66.83.49.64,2.82,3.62h0l.49.62.7.89.49.63h0l2.74,3.51.49.63.69.89.49.63,2.79,3.57.49.64.69.88h0l.5.62,2.82,3.63.49.63.65.83.5.64,2.81,3.62.49.63.71.9.48.62h0l2.74,3.51.49.63.69.89.49.64,2.78,3.57.49.63.69.89h0l.49.62.12.15a2.69,2.69,0,0,1-.47,3.83l-98.92,77.07A2.65,2.65,0,0,1,422.61,273.36Z"/><polyline class="cls-8" points="418.85 62.23 418.54 62.47 403.58 74.12"/><line class="cls-8" x1="344.03" y1="120.53" x2="338.49" y2="124.84"/><path class="cls-8" d="M319.71,139.48l0,0h0l-.83.65-.64.49a1.63,1.63,0,0,0-.29,2.33L419.8,273.76a1.65,1.65,0,0,0,2.34.3"/><line class="cls-8" x1="403.58" y1="74.12" x2="418.54" y2="62.47"/><line class="cls-8" x1="344.03" y1="120.53" x2="338.49" y2="124.84"/><path class="cls-8" d="M319.71,139.48l0,0h0l-.83.65-.64.49-.31.24a1.64,1.64,0,0,0-.29,2.34L419.49,274a1.64,1.64,0,0,0,2.34.29"/><line class="cls-8" x1="344.03" y1="120.53" x2="338.49" y2="124.84"/><polyline class="cls-8" points="319.7 139.48 319.68 139.5 319.67 139.51 318.83 140.15 318.84 140.16 318.2 140.65 317.89 140.89 317.57 141.14"/><path class="cls-8" d="M317.26,141.38a1.64,1.64,0,0,0-.54,1.92,1.51,1.51,0,0,0,.25.42L418.86,274.51a1.34,1.34,0,0,0,.32.31,1.64,1.64,0,0,0,2,0"/><line class="cls-8" x1="344.03" y1="120.53" x2="338.49" y2="124.84"/><polyline class="cls-8" points="318.83 140.15 318.2 140.65 317.89 140.89 317.57 141.14"/><path class="cls-8" d="M316.93,141.63a1.71,1.71,0,0,0-.63,1.14,1.67,1.67,0,0,0,.35,1.19l101.9,130.79a1.65,1.65,0,0,0,2.33.28"/><line class="cls-8" x1="344.03" y1="120.53" x2="338.49" y2="124.84"/><polyline class="cls-8" points="318.83 140.15 318.2 140.65 317.89 140.89 317.57 141.14"/><path class="cls-8" d="M316.63,141.87a1.67,1.67,0,0,0-.3,2.34L418.23,275a1.64,1.64,0,0,0,1.57.62,1.68,1.68,0,0,0,.76-.34"/><line class="cls-8" x1="344.03" y1="120.53" x2="338.49" y2="124.84"/><polyline class="cls-8" points="318.83 140.15 318.84 140.16 318.2 140.65 317.89 140.89 317.57 141.14"/><path class="cls-8" d="M316.31,142.12a1.54,1.54,0,0,0-.28.29,1.61,1.61,0,0,0,0,2l101.9,130.79a1.62,1.62,0,0,0,2,.49,1.47,1.47,0,0,0,.36-.21"/><line class="cls-8" x1="344.03" y1="120.53" x2="338.49" y2="124.84"/><path class="cls-8" d="M319.71,139.48l0,0h0l-.84.64h0l-.64.49-.31.24-.32.25a1.65,1.65,0,0,0-.29,2.33L419.17,274.25a1.65,1.65,0,0,0,2.34.3"/><line class="cls-9" x1="513.87" y1="184.96" x2="514.76" y2="184.26"/><line class="cls-9" x1="517.71" y1="188.04" x2="516.82" y2="188.74"/><path class="cls-10" d="M513.67,190.43l-2.13-2.73a.62.62,0,0,1,.12-.93l1.15-.9a.62.62,0,0,1,.93.11l2.13,2.73a.63.63,0,0,1-.11.94l-1.16.9A.66.66,0,0,1,513.67,190.43Z"/><path class="cls-10" d="M516.53,188.37l-2.37-3.05a.44.44,0,0,1,.08-.65l.1-.08a.46.46,0,0,1,.66.08l2.37,3a.47.47,0,0,1-.08.66l-.11.08A.45.45,0,0,1,516.53,188.37Z"/><path class="cls-11" d="M514.46,186.79h-.07a.42.42,0,0,1-.4-.17.37.37,0,0,1,0-.4.3.3,0,0,1,.11-.14l.44-.35.84-.65,1.47-1.15L518,183l1.47-1.15a.37.37,0,0,1,.55.07l.07.11a.39.39,0,0,1-.13.45l-1.48,1.14-1.2.94-1.47,1.15-.84.65-.38.29Z"/><path class="cls-12" d="M512.53,187.77a.38.38,0,0,1,.06-.55l1.32-1,.14-.11.44-.35.84-.65,1.47-1.15L518,183a.37.37,0,0,1,.55.06l.07.12a.37.37,0,0,1-.14.44l-1.2.94-1.47,1.15-.84.65-.38.29-.14.13h0l0,0-1.27,1A.37.37,0,0,1,512.53,187.77Z"/><path class="cls-11" d="M515.79,188.18a.46.46,0,0,1-.25.1.41.41,0,0,1-.36-.12.42.42,0,0,1-.06-.41.53.53,0,0,1,.12-.15h0l.42-.33.84-.65,1.47-1.15,1.21-.93,1.46-1.15a.4.4,0,0,1,.57.07l.07.11a.38.38,0,0,1-.14.45l-1.44,1.13,0,0-1.22.94L517,187.24h0l-.84.65Z"/><path class="cls-12" d="M513.71,189.3a.39.39,0,0,1,.07-.56l1.32-1,.14-.11h0l.42-.32h0l.84-.65,1.47-1.15,1.21-.93a.38.38,0,0,1,.56.06l.07.11a.4.4,0,0,1-.11.44l0,0-1.22.94L517,187.24h0l-.84.65-.37.29-.2.17-1.27,1A.44.44,0,0,1,513.71,189.3Z"/><path class="cls-10" d="M518.17,196.21,516,193.48a.63.63,0,0,1,.11-.94l1.16-.9a.62.62,0,0,1,.93.12l2.13,2.73a.62.62,0,0,1-.11.93l-1.16.9A.71.71,0,0,1,518.17,196.21Z"/><path class="cls-10" d="M521,194.09l-2.37-3a.46.46,0,0,1,.08-.66l.1-.08a.47.47,0,0,1,.66.08l2.37,3.05a.45.45,0,0,1-.08.65l-.11.08A.44.44,0,0,1,521,194.09Z"/><path class="cls-11" d="M518.91,192.51h0a.08.08,0,0,1-.06,0,.44.44,0,0,1-.39-.18.37.37,0,0,1-.05-.4.45.45,0,0,1,.1-.14l.45-.35.84-.65,1.46-1.14,1.21-.94,1.47-1.15a.39.39,0,0,1,.57.07l.06.1a.39.39,0,0,1-.14.46L523,189.35l-1.21,1-1.46,1.15-.84.65-.38.29Z"/><path class="cls-12" d="M517,193.5a.38.38,0,0,1,.07-.56l1.32-1,.13-.11.45-.35.84-.65,1.46-1.14,1.21-.94a.4.4,0,0,1,.57.06.6.6,0,0,1,.06.11.38.38,0,0,1-.14.45l-1.21,1-1.46,1.15-.84.65-.38.29-.15.12h0l0,0-1.26,1A.38.38,0,0,1,517,193.5Z"/><path class="cls-11" d="M520,194a.39.39,0,0,1-.42-.54.42.42,0,0,1,.11-.15l0,0,.42-.33.84-.65,1.46-1.14,1.22-.94,1.47-1.15a.38.38,0,0,1,.56.08.33.33,0,0,1,.06.1.38.38,0,0,1-.13.45l-1.45,1.13,0,0-1.21.94L521.47,193h0l-.84.65-.36.28A.61.61,0,0,1,520,194Z"/><path class="cls-12" d="M518.18,195a.38.38,0,0,1,.06-.56l1.31-1,.14-.11,0,0,.42-.32.84-.66,1.47-1.13,1.21-.95a.39.39,0,0,1,.56.06.67.67,0,0,1,.06.12.36.36,0,0,1-.11.43l0,0-1.21.94L521.47,193h0l-.84.65-.36.28-.22.17-1.25,1C518.57,195.21,518.33,195.23,518.18,195Z"/><line class="cls-9" x1="508.83" y1="176.65" x2="507.94" y2="177.34"/><line class="cls-9" x1="504.95" y1="173.51" x2="505.85" y2="172.81"/><path class="cls-10" d="M504.79,179l-2.13-2.73a.64.64,0,0,1,.12-.94l1.15-.9a.64.64,0,0,1,.94.12l2.13,2.73a.63.63,0,0,1-.12.93l-1.16.9A.66.66,0,0,1,504.79,179Z"/><path class="cls-10" d="M507.61,176.92l-2.37-3a.47.47,0,0,1,.08-.66l.11-.08a.45.45,0,0,1,.65.08l2.37,3.05a.44.44,0,0,1-.08.65l-.1.08A.42.42,0,0,1,507.61,176.92Z"/><path class="cls-11" d="M505.73,175.26a.46.46,0,0,1-.26.11.4.4,0,0,1-.35-.13.34.34,0,0,1-.05-.4.27.27,0,0,1,.11-.15v0l.42-.33.84-.65,1.47-1.14,1.21-.94,1.46-1.15a.39.39,0,0,1,.57.08.36.36,0,0,1,.07.1.39.39,0,0,1-.15.46l-1.44,1.12,0,0-1.21.94-1.47,1.15-.84.65Z"/><path class="cls-12" d="M503.65,176.39a.4.4,0,0,1,.07-.57l1.31-1,.15-.11v0l.42-.32h0l.84-.65,1.47-1.14,1.21-.94a.39.39,0,0,1,.56.06l.07.12a.37.37,0,0,1-.12.43l0,0-1.21.94-1.47,1.15-.84.65-.37.28-.2.17-1.27,1A.45.45,0,0,1,503.65,176.39Z"/><path class="cls-11" d="M506.72,176.86l-.07,0a.41.41,0,0,1-.38-.17.38.38,0,0,1-.07-.4.35.35,0,0,1,.12-.15v0l.42-.33.85-.65,1.46-1.15,1.21-.93,1.47-1.15a.38.38,0,0,1,.56.08l.07.11a.37.37,0,0,1-.14.44l-1.45,1.14h0l-1.2.94-1.47,1.15-.85.65-.36.28,0,0Z"/><path class="cls-12" d="M504.8,177.86a.4.4,0,0,1,.06-.57l1.32-1,.14-.11v0l.42-.32.85-.66,1.46-1.15,1.21-.93a.38.38,0,0,1,.56.07l.07.11a.4.4,0,0,1-.12.44h0l-1.2.94-1.47,1.15-.85.66-.36.27,0,0-.14.11-.05,0-1.26,1A.37.37,0,0,1,504.8,177.86Z"/><path class="cls-10" d="M509.25,184.76,507.12,182a.63.63,0,0,1,.12-.93l1.15-.9a.63.63,0,0,1,.94.11l2.12,2.73a.63.63,0,0,1-.11.94l-1.16.9A.66.66,0,0,1,509.25,184.76Z"/><path class="cls-10" d="M512.11,182.7l-2.37-3a.45.45,0,0,1,.08-.65l.11-.08a.44.44,0,0,1,.65.08l2.37,3a.46.46,0,0,1-.08.66l-.1.08A.47.47,0,0,1,512.11,182.7Z"/><path class="cls-11" d="M510,181.11l-.07,0a.44.44,0,0,1-.38-.17.38.38,0,0,1-.06-.4.33.33,0,0,1,.11-.15h0l.42-.33.84-.66,1.46-1.14,1.21-.94,1.47-1.14a.39.39,0,0,1,.57.07.53.53,0,0,1,.06.1.4.4,0,0,1-.13.46l-1.44,1.12,0,0-1.22.94L511.4,180h0l-.84.65-.39.3Z"/><path class="cls-12" d="M508.11,182.11a.4.4,0,0,1,.07-.57l1.3-1,.15-.12h0l.42-.32h0l.84-.66,1.46-1.14,1.21-.94a.4.4,0,0,1,.57.07.39.39,0,0,1,.06.11.38.38,0,0,1-.1.43l0,0-1.22.94-1.46,1.15-.84.65-.39.3-.14.11,0,0-1.26,1A.38.38,0,0,1,508.11,182.11Z"/><path class="cls-11" d="M511.35,182.54a.58.58,0,0,1-.23.08.41.41,0,0,1-.36-.14.4.4,0,0,1-.06-.4.44.44,0,0,1,.12-.15l.43-.33.85-.66h0l1.48-1.13,1.2-1,0,0,1.43-1.11a.38.38,0,0,1,.56.07l.07.11a.38.38,0,0,1-.14.45l-1.46,1.14h0l-1.21.94h0l-1.48,1.14-.83.66h0Z"/><path class="cls-12" d="M509.29,183.63a.38.38,0,0,1,.07-.56l1.32-1,.14-.12.43-.33.85-.66h0l1.48-1.13,1.2-1,0,0a.39.39,0,0,1,.52.11l.07.11a.39.39,0,0,1-.13.44h0l-1.21.94h0l-1.48,1.14-.83.66h0l-.39.31-.19.14-1.25,1A.46.46,0,0,1,509.29,183.63Z"/><line class="cls-9" x1="499.88" y1="165.15" x2="498.98" y2="165.84"/><line class="cls-9" x1="496.04" y1="162.06" x2="496.93" y2="161.37"/><path class="cls-10" d="M495.83,167.54l-2.12-2.73a.62.62,0,0,1,.11-.93L495,163a.62.62,0,0,1,.93.11l2.13,2.73a.64.64,0,0,1-.12.94l-1.15.9A.68.68,0,0,1,495.83,167.54Z"/><path class="cls-10" d="M498.7,165.48l-2.38-3a.45.45,0,0,1,.09-.65l.1-.08a.44.44,0,0,1,.65.08l2.38,3a.47.47,0,0,1-.08.66l-.11.08A.45.45,0,0,1,498.7,165.48Z"/><path class="cls-11" d="M496.62,163.89h-.07a.39.39,0,0,1-.39-.18.39.39,0,0,1,0-.53l.45-.35.83-.65,1.47-1.15,1.21-.94,1.47-1.14a.38.38,0,0,1,.56.06,1.33,1.33,0,0,1,.06.12.39.39,0,0,1-.13.45l-1.47,1.14-1.21.94L498,162.83l-.83.65-.38.29Z"/><path class="cls-12" d="M494.69,164.88a.37.37,0,0,1,.07-.55l1.31-1,.14-.11.45-.35.83-.65,1.47-1.15,1.21-.94a.39.39,0,0,1,.56.07,1.33,1.33,0,0,1,.06.12.38.38,0,0,1-.13.44l-1.21.94L498,162.83l-.83.65-.38.29-.15.12h0l0,0-1.26,1A.38.38,0,0,1,494.69,164.88Z"/><path class="cls-11" d="M498,165.29a.49.49,0,0,1-.25.1.37.37,0,0,1-.36-.13.37.37,0,0,1-.06-.39.31.31,0,0,1,.11-.16h0l.41-.33.84-.65,1.47-1.15,1.21-.94,1.47-1.14a.4.4,0,0,1,.57.07.53.53,0,0,1,.06.1.4.4,0,0,1-.13.46l-1.44,1.12,0,0-1.22.94-1.46,1.15h0l-.83.65Z"/><path class="cls-12" d="M495.88,166.41a.39.39,0,0,1,.07-.57l1.31-1,.14-.11h0l.42-.32h0l.84-.65,1.47-1.15,1.21-.94a.4.4,0,0,1,.57.07.6.6,0,0,1,.06.11.38.38,0,0,1-.1.43l0,0-1.22.94-1.46,1.15h0l-.83.65-.37.29-.21.17-1.26,1A.45.45,0,0,1,495.88,166.41Z"/><path class="cls-10" d="M500.33,173.31l-2.13-2.73a.63.63,0,0,1,.12-.93l1.16-.9a.63.63,0,0,1,.93.12l2.13,2.73a.63.63,0,0,1-.12.93l-1.15.9A.71.71,0,0,1,500.33,173.31Z"/><path class="cls-10" d="M503.16,171.2l-2.38-3a.45.45,0,0,1,.08-.65l.11-.08a.44.44,0,0,1,.65.08l2.38,3a.47.47,0,0,1-.09.66l-.1.08A.45.45,0,0,1,503.16,171.2Z"/><path class="cls-11" d="M501.08,169.62h0a.07.07,0,0,1-.06,0,.4.4,0,0,1-.39-.17.36.36,0,0,1-.06-.4,1.11,1.11,0,0,1,.12-.16l.43-.33.84-.65,1.47-1.15,1.21-.93,1.47-1.15a.38.38,0,0,1,.56.06.75.75,0,0,1,.07.12.38.38,0,0,1-.14.45l-1.48,1.14-1.2.95-1.47,1.15-.84.64-.38.3Z"/><path class="cls-12" d="M499.15,170.61a.38.38,0,0,1,.07-.56l1.32-1,.14-.13.43-.33.84-.65,1.47-1.15,1.21-.93a.38.38,0,0,1,.56.06l.07.11a.38.38,0,0,1-.15.45l-1.2.95-1.47,1.15-.84.64-.38.3-.14.12h0l0,0-1.27,1A.37.37,0,0,1,499.15,170.61Z"/><path class="cls-11" d="M502.17,171.13a.36.36,0,0,1-.36-.15.38.38,0,0,1-.07-.4.53.53,0,0,1,.12-.14v0l.42-.33.84-.65,1.47-1.15,1.22-.94,1.47-1.14a.37.37,0,0,1,.55.07.52.52,0,0,1,.07.12.37.37,0,0,1-.13.44L506.32,168v0l-1.21.93-1.47,1.15h0l-.84.64-.36.29A.58.58,0,0,1,502.17,171.13Z"/><path class="cls-12" d="M500.34,172.13a.38.38,0,0,1,.07-.56l1.31-1,.14-.11v0l.43-.32.83-.66,1.47-1.14,1.22-1a.39.39,0,0,1,.55.07.75.75,0,0,1,.07.12.37.37,0,0,1-.12.43v0l-1.21.93-1.47,1.15h0l-.83.65-.37.28-.21.17-1.26,1A.4.4,0,0,1,500.34,172.13Z"/><line class="cls-9" x1="491" y1="153.76" x2="490.11" y2="154.45"/><line class="cls-9" x1="487.12" y1="150.62" x2="488.01" y2="149.92"/><path class="cls-10" d="M487,156.15l-2.13-2.73a.63.63,0,0,1,.11-.94l1.16-.9a.63.63,0,0,1,.93.12l2.13,2.73a.62.62,0,0,1-.12.93l-1.15.9A.66.66,0,0,1,487,156.15Z"/><path class="cls-10" d="M489.78,154l-2.37-3a.46.46,0,0,1,.08-.66l.1-.08a.47.47,0,0,1,.66.08l2.37,3a.45.45,0,0,1-.08.65l-.11.08A.41.41,0,0,1,489.78,154Z"/><path class="cls-11" d="M487.9,152.37a.49.49,0,0,1-.26.11.45.45,0,0,1-.36-.13.37.37,0,0,1,0-.4.33.33,0,0,1,.11-.15l0,0,.41-.33.84-.65,1.47-1.14,1.21-.94,1.47-1.15a.4.4,0,0,1,.57.07.6.6,0,0,1,.06.11.38.38,0,0,1-.14.45l-1.44,1.13,0,0-1.21.94-1.46,1.13-.85.66Z"/><path class="cls-12" d="M485.81,153.5a.39.39,0,0,1,.08-.57l1.3-1,.15-.11,0,0,.42-.32h0l.84-.65,1.47-1.14,1.21-.94a.39.39,0,0,1,.56.06.39.39,0,0,1,0,.55l0,0-1.21.94-1.46,1.14-.85.65-.36.29-.21.17-1.26,1A.47.47,0,0,1,485.81,153.5Z"/><path class="cls-11" d="M488.89,154l-.08,0a.42.42,0,0,1-.38-.17.39.39,0,0,1-.06-.41.36.36,0,0,1,.11-.14l0,0,.41-.33.85-.65,1.47-1.15,1.21-.93,1.47-1.15a.38.38,0,0,1,.56.08.6.6,0,0,1,.06.11.37.37,0,0,1-.13.44l-1.46,1.13s0,0,0,0l-1.21.94-1.47,1.14-.85.66-.36.28v0Z"/><path class="cls-12" d="M487,155a.39.39,0,0,1,.07-.56l1.31-1,.14-.11,0,0,.42-.32.84-.66,1.47-1.15,1.21-.93a.37.37,0,0,1,.55.07.34.34,0,0,1,.07.11.37.37,0,0,1-.12.43s0,0,0,0l-1.21.94-1.47,1.14-.84.67-.37.27v0l-.14.11-.06,0-1.26,1A.37.37,0,0,1,487,155Z"/><path class="cls-10" d="M491.41,161.87l-2.12-2.73a.63.63,0,0,1,.11-.94l1.16-.9a.63.63,0,0,1,.93.12l2.13,2.73a.64.64,0,0,1-.12.94l-1.15.89A.67.67,0,0,1,491.41,161.87Z"/><path class="cls-10" d="M494.28,159.81l-2.37-3.05a.44.44,0,0,1,.08-.65l.1-.08a.46.46,0,0,1,.66.08l2.37,3a.47.47,0,0,1-.08.66l-.11.08A.45.45,0,0,1,494.28,159.81Z"/><path class="cls-11" d="M492.1,158.21a.34.34,0,0,1-.35-.14.36.36,0,0,1-.06-.4.33.33,0,0,1,.11-.15v0l.42-.32.85-.66,1.46-1.14,1.22-.94,1.46-1.15a.39.39,0,0,1,.56.08.61.61,0,0,1,.07.1.38.38,0,0,1-.13.45l-1.45,1.13,0,0L495,156l-1.46,1.14h0l-.85.65-.37.29A.51.51,0,0,1,492.1,158.21Z"/><path class="cls-12" d="M490.28,159.22a.39.39,0,0,1,.06-.57l1.31-1,.15-.11v0l.42-.32.85-.66,1.46-1.13,1.22-.95a.37.37,0,0,1,.55.07.41.41,0,0,1,.07.11.37.37,0,0,1-.11.43l0,0L495,156l-1.46,1.15-.85.65-.37.29-.2.16-1.27,1A.4.4,0,0,1,490.28,159.22Z"/><path class="cls-11" d="M493.51,159.65a.53.53,0,0,1-.23.08.4.4,0,0,1-.35-.14.36.36,0,0,1-.06-.39A.33.33,0,0,1,493,159l.42-.34.85-.65h0l1.47-1.14,1.21-.94,0,0,1.43-1.11a.38.38,0,0,1,.56.07.36.36,0,0,1,.07.1.37.37,0,0,1-.15.45l-1.45,1.15h0l-1.21.94h0l-1.47,1.14-.84.65h0Z"/><path class="cls-12" d="M491.46,160.74a.38.38,0,0,1,.07-.56l1.31-1L493,159l.42-.34.85-.65h0l1.47-1.14,1.21-.94,0,0a.36.36,0,0,1,.51.11.34.34,0,0,1,.07.11.37.37,0,0,1-.12.44h0l-1.21.94h0l-1.47,1.14-.84.65h0l-.39.31-.18.13-1.26,1A.44.44,0,0,1,491.46,160.74Z"/><line class="cls-9" x1="482" y1="142.2" x2="481.11" y2="142.9"/><line class="cls-9" x1="478.12" y1="139.07" x2="479.01" y2="138.37"/><path class="cls-10" d="M478,144.6l-2.13-2.73a.63.63,0,0,1,.12-.94l1.15-.9a.62.62,0,0,1,.93.12l2.13,2.73a.62.62,0,0,1-.11.93l-1.16.9A.66.66,0,0,1,478,144.6Z"/><path class="cls-10" d="M480.78,142.48l-2.37-3a.44.44,0,0,1,.08-.65l.1-.08a.47.47,0,0,1,.66.08l2.37,3.05a.45.45,0,0,1-.08.65l-.11.08C481.27,142.78,480.94,142.69,480.78,142.48Z"/><path class="cls-11" d="M478.87,140.85a.58.58,0,0,1-.23.08.43.43,0,0,1-.36-.13.36.36,0,0,1,0-.4.34.34,0,0,1,.13-.16l.42-.33.84-.65,1.47-1.15h0l1.21-.93,1.47-1.15a.4.4,0,0,1,.57.07.6.6,0,0,1,.06.11.39.39,0,0,1-.14.45l-1.46,1.14h0l-1.21.93-1.46,1.15-.84.66Z"/><path class="cls-12" d="M476.82,141.94a.38.38,0,0,1,.06-.56l1.31-1,.59-.45.83-.66,1.48-1.14h0l1.21-.93a.39.39,0,0,1,.57.06.53.53,0,0,1,.06.1.4.4,0,0,1-.13.46h0l-1.21.93-1.46,1.15-.84.65h0l-.4.31-.18.14-1.26,1A.43.43,0,0,1,476.82,141.94Z"/><path class="cls-11" d="M479.83,142.45a.38.38,0,0,1-.35-.13.39.39,0,0,1-.07-.4.35.35,0,0,1,.12-.15h0l.42-.33.84-.65,1.47-1.15,1.21-.94,1.47-1.15a.39.39,0,0,1,.56.07.75.75,0,0,1,.07.12.39.39,0,0,1-.14.45L484,139.32l-1.2.94-1.48,1.15-.84.65-.36.29A.64.64,0,0,1,479.83,142.45Z"/><path class="cls-12" d="M478,143.46a.39.39,0,0,1,.07-.56l1.32-1,.14-.11h0l.42-.32.84-.66,1.47-1.14,1.21-.95a.38.38,0,0,1,.56.07.53.53,0,0,1,.06.1.38.38,0,0,1-.13.46l-1.2.94-1.48,1.15-.84.65-.36.29-.21.17-1.26,1A.45.45,0,0,1,478,143.46Z"/><path class="cls-10" d="M482.42,150.32l-2.13-2.73a.63.63,0,0,1,.11-.94l1.16-.9a.63.63,0,0,1,.93.12l2.13,2.73a.62.62,0,0,1-.12.93l-1.15.9A.66.66,0,0,1,482.42,150.32Z"/><path class="cls-10" d="M485.28,148.26l-2.37-3a.44.44,0,0,1,.08-.65l.1-.09a.47.47,0,0,1,.66.09l2.37,3a.45.45,0,0,1-.08.65l-.11.09A.45.45,0,0,1,485.28,148.26Z"/><path class="cls-11" d="M483.2,146.67l-.07,0a.44.44,0,0,1-.39-.17.37.37,0,0,1-.05-.4.34.34,0,0,1,.13-.16l.42-.33.84-.65h0l1.47-1.14h0l1.21-.94,1.47-1.15a.4.4,0,0,1,.57.08l.06.1a.38.38,0,0,1-.13.45l-1.48,1.15-1.21.94h0l-1.47,1.14-.83.65-.37.29Z"/><path class="cls-12" d="M481.27,147.67a.39.39,0,0,1,.08-.57l1.3-1,.59-.45.83-.66,1.47-1.14h0l1.21-.94a.39.39,0,0,1,.56.06.37.37,0,0,1,.07.12.38.38,0,0,1-.14.45l-1.21.94h0l-1.47,1.14-.84.64h0l-.37.29-.16.12-.06,0-1.26,1A.37.37,0,0,1,481.27,147.67Z"/><path class="cls-11" d="M484.29,148.17a.41.41,0,0,1-.36-.13.36.36,0,0,1-.06-.39.33.33,0,0,1,.11-.15l0,0,.42-.33.84-.65,1.47-1.15,1.21-.93,1.47-1.15a.37.37,0,0,1,.55.07.34.34,0,0,1,.07.11.39.39,0,0,1-.13.45L488.43,145l-1.21.94-1.47,1.14h0l-.84.65-.36.29A.61.61,0,0,1,484.29,148.17Z"/><path class="cls-12" d="M482.46,149.18a.37.37,0,0,1,.07-.55l1.31-1,.14-.11,0,0,.42-.32.84-.66,1.47-1.15,1.21-.93a.38.38,0,0,1,.56.06,1.33,1.33,0,0,1,.06.12.38.38,0,0,1-.13.44l-1.21.94-1.47,1.14h0l-.84.65-.36.29-.22.17-1.25,1A.45.45,0,0,1,482.46,149.18Z"/><line class="cls-9" x1="473.08" y1="130.76" x2="472.19" y2="131.45"/><line class="cls-9" x1="469.25" y1="127.67" x2="470.14" y2="126.98"/><path class="cls-10" d="M469.08,133.2,467,130.47a.63.63,0,0,1,.12-.93l1.15-.9a.63.63,0,0,1,.94.11l2.13,2.73a.64.64,0,0,1-.12.94l-1.16.9A.72.72,0,0,1,469.08,133.2Z"/><path class="cls-10" d="M471.9,131.09,469.53,128a.45.45,0,0,1,.08-.65l.11-.08a.44.44,0,0,1,.65.08l2.37,3a.46.46,0,0,1-.08.66l-.1.08A.47.47,0,0,1,471.9,131.09Z"/><path class="cls-11" d="M469.76,129.54a.39.39,0,0,1-.41-.53.35.35,0,0,1,.12-.15v0l.42-.33.85-.65,1.46-1.14,1.2-.94,1.48-1.15a.38.38,0,0,1,.56.07.39.39,0,0,1,.06.11.37.37,0,0,1-.13.45l-1.47,1.14-1.21.95-1.47,1.13-.84.66-.37.29A.54.54,0,0,1,469.76,129.54Z"/><path class="cls-12" d="M467.94,130.54A.37.37,0,0,1,468,130l1.32-1,.14-.11v0l.42-.32h0l.85-.65,1.46-1.14,1.2-.94a.39.39,0,0,1,.57.06.6.6,0,0,1,.06.11.39.39,0,0,1-.13.45l-1.21.95-1.47,1.13-.84.66-.37.29-.2.17-1.27,1A.44.44,0,0,1,467.94,130.54Z"/><path class="cls-11" d="M471,131h0a.06.06,0,0,1-.06,0,.42.42,0,0,1-.39-.16.36.36,0,0,1-.05-.4.42.42,0,0,1,.11-.15l0,0,.42-.33.84-.65,1.46-1.15,1.21-.93L476,126.1a.4.4,0,0,1,.57.06.67.67,0,0,1,.06.12.38.38,0,0,1-.14.45l-1.47,1.14-1.21.95L472.37,130l-.83.65-.38.3Z"/><path class="cls-12" d="M469.08,132a.38.38,0,0,1,.08-.56l1.31-1,.14-.11,0,0,.42-.32h0l.84-.65,1.46-1.15,1.21-.93a.4.4,0,0,1,.57.06.6.6,0,0,1,.06.11.38.38,0,0,1-.14.45l-1.21.95L472.37,130l-.83.65-.38.3L471,131h0l0,0-1.26,1A.38.38,0,0,1,469.08,132Z"/><path class="cls-10" d="M473.54,138.92l-2.13-2.73a.63.63,0,0,1,.12-.93l1.15-.9a.64.64,0,0,1,.94.12l2.12,2.73a.62.62,0,0,1-.11.93l-1.16.9A.65.65,0,0,1,473.54,138.92Z"/><path class="cls-10" d="M476.36,136.81,474,133.76a.45.45,0,0,1,.08-.65l.11-.08a.44.44,0,0,1,.65.08l2.37,3a.46.46,0,0,1-.08.66l-.1.08A.42.42,0,0,1,476.36,136.81Z"/><path class="cls-11" d="M474.23,135.25a.34.34,0,0,1-.36-.13.34.34,0,0,1-.05-.4.33.33,0,0,1,.1-.14l0,0,.41-.32.85-.66,1.46-1.14,1.22-.94,1.47-1.15a.37.37,0,0,1,.55.07.49.49,0,0,1,.07.11.38.38,0,0,1-.13.45l-1.47,1.14-1.21.95-1.47,1.15-.84.64-.37.29A.46.46,0,0,1,474.23,135.25Z"/><path class="cls-12" d="M472.4,136.27a.38.38,0,0,1,.07-.56l1.31-1,.14-.11,0,0,.43-.32.83-.66,1.48-1.14,1.2-.94a.38.38,0,0,1,.56.07.6.6,0,0,1,.06.11.37.37,0,0,1-.13.44l-1.21.95-1.47,1.15-.84.64-.37.29-.2.16-1.26,1A.45.45,0,0,1,472.4,136.27Z"/><path class="cls-11" d="M475.47,136.75h0s0,0,0,0a.38.38,0,0,1-.39-.16.36.36,0,0,1,0-.4.31.31,0,0,1,.1-.15l0,0,.41-.33.84-.64,1.47-1.15L479,133l1.47-1.15a.38.38,0,0,1,.56.07.41.41,0,0,1,.07.11.38.38,0,0,1-.13.45l-1.47,1.14-1.22.95-1.47,1.15-.84.65-.38.3Z"/><path class="cls-12" d="M473.54,137.74a.38.38,0,0,1,.08-.56l1.31-1,.14-.11,0,0,.42-.32h0l.84-.64,1.47-1.15L479,133a.38.38,0,0,1,.56.07.36.36,0,0,1,.07.1.38.38,0,0,1-.13.45l-1.22.95-1.47,1.15-.84.65-.38.3-.14.11h0l0,0-1.26,1A.38.38,0,0,1,473.54,137.74Z"/><line class="cls-9" x1="464.17" y1="119.31" x2="463.27" y2="120.01"/><line class="cls-9" x1="460.29" y1="116.18" x2="461.18" y2="115.48"/><path class="cls-10" d="M460.12,121.7,458,119a.62.62,0,0,1,.11-.93l1.16-.9a.62.62,0,0,1,.93.12l2.13,2.73a.63.63,0,0,1-.12.93l-1.15.9A.67.67,0,0,1,460.12,121.7Z"/><path class="cls-10" d="M463,119.59l-2.38-3a.45.45,0,0,1,.08-.65l.11-.08a.44.44,0,0,1,.65.08l2.38,3a.47.47,0,0,1-.09.66l-.1.08A.41.41,0,0,1,463,119.59Z"/><path class="cls-11" d="M461,118a.6.6,0,0,1-.21.08h0a.45.45,0,0,1-.36-.14.34.34,0,0,1-.05-.4.38.38,0,0,1,.13-.16l.41-.32.84-.65h0l1.47-1.14,1.21-1,1.47-1.14a.38.38,0,0,1,.56.07.61.61,0,0,1,.07.1.39.39,0,0,1-.14.46L465,114.9h0l-1.21.93L462.27,117l-.83.66Z"/><path class="cls-12" d="M459,119.05a.4.4,0,0,1,.07-.57l1.31-1,.58-.45.84-.66,1.47-1.14,1.21-1a.38.38,0,0,1,.56.07.67.67,0,0,1,.07.11.39.39,0,0,1-.13.45h0l-1.21.93L462.27,117l-.84.65h0L461,118l-.17.14-1.26,1A.44.44,0,0,1,459,119.05Z"/><path class="cls-11" d="M462,119.56a.39.39,0,0,1-.35-.14.36.36,0,0,1-.06-.39.33.33,0,0,1,.11-.15h0l.41-.33.85-.66,1.46-1.14,1.22-.94,1.47-1.15a.37.37,0,0,1,.55.07.49.49,0,0,1,.07.11.4.4,0,0,1-.13.46l-1.47,1.13-1.21,1-1.47,1.14h0l-.85.65-.36.28A.5.5,0,0,1,462,119.56Z"/><path class="cls-12" d="M460.17,120.57a.38.38,0,0,1,.07-.56l1.31-1,.14-.11h0l.42-.32.84-.67,1.47-1.13,1.21-1a.38.38,0,0,1,.56.07.6.6,0,0,1,.06.11.37.37,0,0,1-.13.44l-1.21,1-1.47,1.14h0l-.85.65-.36.28-.21.17-1.25,1A.45.45,0,0,1,460.17,120.57Z"/><path class="cls-10" d="M464.58,127.43l-2.13-2.73a.64.64,0,0,1,.12-.94l1.15-.9a.64.64,0,0,1,.94.12l2.13,2.73a.63.63,0,0,1-.12.93l-1.15.9A.67.67,0,0,1,464.58,127.43Z"/><path class="cls-10" d="M467.45,125.36l-2.38-3a.47.47,0,0,1,.08-.66l.11-.08a.45.45,0,0,1,.65.08l2.38,3a.45.45,0,0,1-.09.65l-.1.08A.44.44,0,0,1,467.45,125.36Z"/><path class="cls-11" d="M465.36,123.78a.06.06,0,0,1-.06,0,.38.38,0,0,1-.39-.17.34.34,0,0,1-.05-.38.31.31,0,0,1,.12-.17l.42-.33.85-.66,1.46-1.14h0l1.2-.93,1.47-1.15a.4.4,0,0,1,.57.07.6.6,0,0,1,.06.11.37.37,0,0,1-.13.45l-1.46,1.13v0l-1.21,1-1.46,1.13-.85.66-.37.29Z"/><path class="cls-12" d="M463.44,124.78a.4.4,0,0,1,.07-.57l1.31-1,.58-.45.85-.66,1.46-1.14h0l1.2-.93a.4.4,0,0,1,.57.06l.07.12a.36.36,0,0,1-.13.43v0l-1.21,1-1.46,1.13-.85.66-.37.29-.16.12-.05,0-1.26,1A.38.38,0,0,1,463.44,124.78Z"/><path class="cls-11" d="M466.45,125.28a.4.4,0,0,1-.35-.13.4.4,0,0,1-.07-.4.53.53,0,0,1,.12-.14v0l.42-.33.85-.65,1.47-1.15,1.21-.94,1.46-1.14a.38.38,0,0,1,.56.06l.07.12a.39.39,0,0,1-.13.45l-1.48,1.14-1.2.94-1.47,1.14-.85.66-.36.29A.56.56,0,0,1,466.45,125.28Z"/><path class="cls-12" d="M464.63,126.29a.38.38,0,0,1,.06-.55l1.32-1,.14-.11v0l.42-.32.85-.66,1.47-1.15,1.21-.94a.37.37,0,0,1,.55.07l.07.12a.37.37,0,0,1-.14.44l-1.2.94-1.47,1.14-.85.66-.36.29-.21.17-1.26,1A.44.44,0,0,1,464.63,126.29Z"/><line class="cls-9" x1="455.25" y1="107.87" x2="454.36" y2="108.56"/><path class="cls-10" d="M451.25,110.31l-2.13-2.73a.62.62,0,0,1,.12-.93l1.15-.9a.62.62,0,0,1,.93.11l2.13,2.73a.63.63,0,0,1-.11.94l-1.16.9A.72.72,0,0,1,451.25,110.31Z"/><path class="cls-10" d="M454.07,108.19l-2.37-3a.44.44,0,0,1,.08-.65l.1-.09a.47.47,0,0,1,.66.09l2.37,3a.45.45,0,0,1-.08.65l-.11.09A.45.45,0,0,1,454.07,108.19Z"/><path class="cls-11" d="M451.92,106.65a.38.38,0,0,1-.34-.15.35.35,0,0,1-.06-.38.33.33,0,0,1,.11-.15l0,0,.41-.33.85-.65,1.46-1.15,1.22-.94,1.47-1.14a.37.37,0,0,1,.55.06.75.75,0,0,1,.07.12.39.39,0,0,1-.13.45l-1.47,1.14-1.22.95-1.46,1.13h0l-.85.65-.37.29A.5.5,0,0,1,451.92,106.65Z"/><path class="cls-12" d="M450.11,107.65a.37.37,0,0,1,.07-.55l1.31-1,.14-.11,0,0,.42-.32.84-.66,1.46-1.14,1.22-1a.38.38,0,0,1,.55.07l.07.11a.39.39,0,0,1-.13.45l-1.22.95-1.46,1.13-.85.66-.37.29-.2.17-1.26,1A.44.44,0,0,1,450.11,107.65Z"/><path class="cls-11" d="M453.18,108.14h-.07a.4.4,0,0,1-.39-.17.33.33,0,0,1-.05-.39.42.42,0,0,1,.11-.16h0l.42-.33.84-.65,1.47-1.15,1.21-.93,1.47-1.15a.39.39,0,0,1,.56.06l.07.12a.38.38,0,0,1-.14.45L457.21,105l-1.2,1-1.47,1.13-.84.66-.38.29Z"/><path class="cls-12" d="M451.25,109.12a.37.37,0,0,1,.08-.55l1.3-1,.15-.12h0l.43-.32h0l.84-.65,1.47-1.15,1.21-.93a.38.38,0,0,1,.56.06.41.41,0,0,1,.07.11.37.37,0,0,1-.15.45l-1.2,1-1.47,1.13-.84.66-.38.29-.14.13h0l-.05,0-1.26,1A.37.37,0,0,1,451.25,109.12Z"/><path class="cls-10" d="M455.7,116l-2.12-2.73a.62.62,0,0,1,.11-.93l1.16-.9a.62.62,0,0,1,.93.12l2.13,2.73a.62.62,0,0,1-.12.93l-1.15.9A.68.68,0,0,1,455.7,116Z"/><path class="cls-10" d="M458.53,113.92l-2.37-3a.44.44,0,0,1,.08-.65l.1-.08a.46.46,0,0,1,.66.08l2.37,3a.47.47,0,0,1-.08.66l-.11.08A.41.41,0,0,1,458.53,113.92Z"/><path class="cls-11" d="M456.4,112.36a.38.38,0,0,1-.31-.67v0l.42-.33.85-.65,1.46-1.14,1.22-.94,1.46-1.15a.38.38,0,0,1,.56.07l.07.11a.38.38,0,0,1-.14.45l-1.47,1.14-1.2,1-1.47,1.15L457,112l-.37.29A.49.49,0,0,1,456.4,112.36Z"/><path class="cls-12" d="M454.57,113.38a.38.38,0,0,1,.06-.56l1.32-1,.14-.11v0l.43-.32.84-.66,1.47-1.14,1.21-.94a.37.37,0,0,1,.55.07l.07.11a.37.37,0,0,1-.14.44l-1.2,1-1.47,1.15L457,112l-.37.29-.21.16-1.26,1A.45.45,0,0,1,454.57,113.38Z"/><path class="cls-11" d="M457.63,113.86h-.05a.38.38,0,0,1-.4-.17.4.4,0,0,1-.06-.4.39.39,0,0,1,.12-.14v0l.42-.33.84-.65L460,111l1.2-.94,1.48-1.15a.4.4,0,0,1,.62.18.38.38,0,0,1-.13.45l-1.47,1.14-1.21,1L459,112.8l-.84.65-.38.3Z"/><path class="cls-12" d="M455.71,114.84a.37.37,0,0,1,.07-.55l1.32-1,.14-.11v0l.42-.32h0l.84-.65L460,111l1.2-.94a.39.39,0,0,1,.57.07.33.33,0,0,1,.06.1.38.38,0,0,1-.13.45l-1.21,1L459,112.8l-.84.65-.38.3-.15.11h0l-.05,0-1.26,1A.37.37,0,0,1,455.71,114.84Z"/><line class="cls-9" x1="442.41" y1="93.23" x2="443.3" y2="92.54"/><line class="cls-9" x1="446.25" y1="96.32" x2="445.36" y2="97.01"/><path class="cls-10" d="M442.25,98.76,440.12,96a.62.62,0,0,1,.12-.93l1.15-.9a.63.63,0,0,1,.94.11L444.45,97a.63.63,0,0,1-.11.94l-1.16.9A.72.72,0,0,1,442.25,98.76Z"/><path class="cls-10" d="M445.07,96.64l-2.37-3a.44.44,0,0,1,.08-.65l.1-.09a.47.47,0,0,1,.66.08l2.37,3a.45.45,0,0,1-.08.65l-.11.09A.45.45,0,0,1,445.07,96.64Z"/><path class="cls-11" d="M443,95.05h0s-.05,0-.07,0a.36.36,0,0,1-.38-.17.35.35,0,0,1-.06-.38.31.31,0,0,1,.12-.17L443,94l.85-.65,1.46-1.15,1.22-1,0,0L448,90.13a.38.38,0,0,1,.55.07.39.39,0,0,1-.06.56l-1.46,1.14h0l-1.22,1L444.36,94l-.85.66-.36.29A.39.39,0,0,1,443,95.05Z"/><path class="cls-12" d="M441.07,96.05a.36.36,0,0,1,.07-.55l1.31-1,.15-.12L443,94l.85-.65,1.46-1.15,1.22-1,0,0a.39.39,0,0,1,.52.1l.06.11a.37.37,0,0,1-.12.44h0l-1.22,1L444.36,94l-.85.66-.51.4h0l-.05,0-1.27,1A.36.36,0,0,1,441.07,96.05Z"/><path class="cls-11" d="M444.08,96.58a.39.39,0,0,1-.36-.15.38.38,0,0,1-.06-.4.48.48,0,0,1,.11-.15h0l.41-.33.85-.65,1.47-1.15,1.21-.94,1.47-1.14a.38.38,0,0,1,.56.06.61.61,0,0,1,.07.1.41.41,0,0,1-.14.47l-1.46,1.13s0,0,0,0l-1.21.93-1.47,1.14-.85.66-.36.29A.58.58,0,0,1,444.08,96.58Z"/><path class="cls-12" d="M442.25,97.57a.37.37,0,0,1,.07-.55l1.31-1,.14-.11h0l.42-.32.84-.66,1.47-1.15,1.21-.94a.38.38,0,0,1,.56.07.36.36,0,0,1,.07.1.38.38,0,0,1-.13.45s0,0,0,0l-1.21.93-1.46,1.15-.85.66-.37.28-.21.17-1.25,1A.41.41,0,0,1,442.25,97.57Z"/><path class="cls-10" d="M446.71,104.48l-2.13-2.73a.62.62,0,0,1,.11-.93l1.16-.9a.62.62,0,0,1,.93.11l2.13,2.73a.63.63,0,0,1-.12.94l-1.15.9A.72.72,0,0,1,446.71,104.48Z"/><path class="cls-10" d="M449.53,102.37l-2.37-3.05a.44.44,0,0,1,.08-.65l.1-.08a.46.46,0,0,1,.66.08l2.37,3a.47.47,0,0,1-.08.66l-.11.08A.42.42,0,0,1,449.53,102.37Z"/><path class="cls-11" d="M447.38,100.82a.37.37,0,0,1-.34-.14.35.35,0,0,1-.06-.39.33.33,0,0,1,.11-.15v0l.42-.33.85-.65L449.83,98l1.22-.94,1.47-1.14a.37.37,0,0,1,.55.07.41.41,0,0,1,.07.11.39.39,0,0,1-.13.45l-1.48,1.14-1.21.95-1.46,1.14-.84.65-.37.29A.7.7,0,0,1,447.38,100.82Z"/><path class="cls-12" d="M445.57,101.82a.37.37,0,0,1,.07-.55l1.3-1,.15-.11v0l.43-.32.84-.66L449.83,98l1.22-1a.38.38,0,0,1,.55.07.75.75,0,0,1,.07.12.36.36,0,0,1-.14.44l-1.21.95-1.46,1.14-.84.65-.37.29-.21.17-1.26,1A.43.43,0,0,1,445.57,101.82Z"/><path class="cls-11" d="M448.64,102.31l-.08,0a.44.44,0,0,1-.38-.17.38.38,0,0,1-.05-.4.33.33,0,0,1,.11-.16h0l.42-.33.84-.65L451,99.46l1.21-.93,1.46-1.15a.4.4,0,0,1,.57.06l.07.12a.39.39,0,0,1-.14.45l-1.47,1.14h0l-1.21.94L450,101.24h0l-.84.65-.38.3Z"/><path class="cls-12" d="M446.71,103.3a.38.38,0,0,1,.07-.56l1.31-1,.15-.12h0l.42-.32h0l.84-.65L451,99.46l1.21-.93a.38.38,0,0,1,.56.06l.07.12a.37.37,0,0,1-.14.44h0l-1.21.94L450,101.24h0l-.84.65-.38.3-.14.12-.06,0-1.26,1A.37.37,0,0,1,446.71,103.3Z"/><line class="cls-9" x1="437.37" y1="84.92" x2="436.48" y2="85.62"/><line class="cls-9" x1="433.54" y1="81.84" x2="434.43" y2="81.14"/><path class="cls-10" d="M433.33,87.31l-2.13-2.73a.63.63,0,0,1,.12-.93l1.15-.9a.63.63,0,0,1,.94.12l2.13,2.73a.63.63,0,0,1-.12.93l-1.16.9A.66.66,0,0,1,433.33,87.31Z"/><path class="cls-10" d="M436.19,85.25l-2.37-3a.47.47,0,0,1,.08-.66l.11-.08a.45.45,0,0,1,.65.08l2.37,3a.44.44,0,0,1-.08.65l-.1.08A.46.46,0,0,1,436.19,85.25Z"/><path class="cls-11" d="M434.12,83.67h0a.07.07,0,0,1-.06,0,.4.4,0,0,1-.39-.16.4.4,0,0,1-.06-.41.49.49,0,0,1,.11-.14l.44-.35L435,82l1.46-1.14h0l1.21-.93,1.47-1.15a.37.37,0,0,1,.55.07l.07.11a.38.38,0,0,1-.13.45l-1.47,1.14-1.21.95-1.47,1.14-.84.65-.38.29Z"/><path class="cls-12" d="M432.19,84.66a.38.38,0,0,1,.07-.56l1.31-1,.14-.11.44-.35L435,82l1.47-1.15,1.21-.93a.37.37,0,0,1,.55.07.34.34,0,0,1,.07.11.37.37,0,0,1-.13.44l-1.21.95-1.47,1.14-.84.65-.38.29-.14.13h0l0,0-1.27,1A.37.37,0,0,1,432.19,84.66Z"/><path class="cls-11" d="M435.42,85.09a.42.42,0,0,1-.21.08.38.38,0,0,1-.36-.14.36.36,0,0,1-.06-.39.34.34,0,0,1,.13-.16l.42-.33.83-.65,1.47-1.15,1.21-.94h0l1.47-1.14a.38.38,0,0,1,.55.07l.07.11a.39.39,0,0,1-.13.45L439.35,82v0l-1.22.95-1.47,1.13-.82.66-.38.29Z"/><path class="cls-12" d="M433.38,86.18a.38.38,0,0,1,.07-.56l1.31-1,.58-.45.83-.66,1.47-1.14h0l1.21-.93h0a.39.39,0,0,1,.55.07.75.75,0,0,1,.07.12.36.36,0,0,1-.13.43v0l-1.22.95-1.47,1.13-.84.65-.36.3,0,0-.17.14-1.27,1A.42.42,0,0,1,433.38,86.18Z"/><path class="cls-10" d="M437.83,93.09l-2.13-2.73a.64.64,0,0,1,.12-.94l1.15-.89a.63.63,0,0,1,.94.11L440,91.37a.63.63,0,0,1-.11.94l-1.16.9A.72.72,0,0,1,437.83,93.09Z"/><path class="cls-10" d="M440.65,91l-2.37-3a.47.47,0,0,1,.08-.66l.11-.08a.45.45,0,0,1,.65.08l2.37,3a.44.44,0,0,1-.08.65l-.1.08A.46.46,0,0,1,440.65,91Z"/><path class="cls-11" d="M438.58,89.39h0l-.06,0a.44.44,0,0,1-.39-.17.36.36,0,0,1-.06-.4.35.35,0,0,1,.12-.15v0l.42-.33.84-.64,1.47-1.15,1.21-.94,1.46-1.15a.4.4,0,0,1,.57.07.39.39,0,0,1,.06.11.38.38,0,0,1-.14.46l-1.47,1.13-1.2,1-1.47,1.15-.84.65-.38.29Z"/><path class="cls-12" d="M436.64,90.38a.39.39,0,0,1,.08-.56l1.31-1,.15-.11v0l.42-.32h0l.84-.64,1.47-1.15,1.21-.94a.38.38,0,0,1,.56.07.33.33,0,0,1,.06.1.35.35,0,0,1-.14.45l-1.2,1-1.47,1.15-.84.65-.38.29-.14.12h0l-.05,0-1.26,1A.38.38,0,0,1,436.64,90.38Z"/><path class="cls-11" d="M439.68,90.91a.34.34,0,0,1-.37-.15.33.33,0,0,1-.05-.39.36.36,0,0,1,.11-.17l.42-.33.84-.65,1.47-1.14,1.21-1L444.78,86a.38.38,0,0,1,.56.08l.07.11a.36.36,0,0,1-.14.44l-1.46,1.15h0l-1.2.95h0l-1.47,1.15-.83.64h0l-.4.31A.59.59,0,0,1,439.68,90.91Z"/><path class="cls-12" d="M437.84,91.91a.39.39,0,0,1,.06-.57l1.32-1,.15-.12.42-.33.84-.65,1.47-1.14,1.21-1a.38.38,0,0,1,.56.07l.07.11a.39.39,0,0,1-.13.45h0l-1.2.95h0l-1.47,1.14-.83.65h0l-.4.31-.17.13-1.26,1A.4.4,0,0,1,437.84,91.91Z"/><line class="cls-9" x1="424.58" y1="70.34" x2="425.47" y2="69.64"/><line class="cls-9" x1="428.42" y1="73.42" x2="427.52" y2="74.12"/><path class="cls-10" d="M424.41,75.87l-2.12-2.73a.63.63,0,0,1,.11-.94l1.16-.9a.63.63,0,0,1,.93.12l2.13,2.73a.62.62,0,0,1-.12.93l-1.15.9A.72.72,0,0,1,424.41,75.87Z"/><path class="cls-10" d="M427.24,73.75l-2.38-3a.47.47,0,0,1,.08-.66l.11-.08a.45.45,0,0,1,.65.08l2.38,3a.45.45,0,0,1-.08.65l-.11.08A.44.44,0,0,1,427.24,73.75Z"/><path class="cls-11" d="M425.16,72.16l-.08,0a.37.37,0,0,1-.38-.17.34.34,0,0,1-.05-.38.3.3,0,0,1,.11-.17l.43-.33.85-.65,1.46-1.15,1.21-1,0,0,1.43-1.11a.38.38,0,0,1,.56.07l.07.12a.38.38,0,0,1-.14.44L429.21,69h0L428,70l-1.47,1.14-.84.66-.36.28Z"/><path class="cls-12" d="M423.23,73.16a.38.38,0,0,1,.07-.56l1.32-1,.14-.12.43-.33.85-.65,1.46-1.15,1.21-1,0,0a.38.38,0,0,1,.52.11.53.53,0,0,1,.06.1.38.38,0,0,1-.12.45h0L428,70l-1.47,1.14-.84.66-.36.28-.16.12-.06,0-1.25,1A.37.37,0,0,1,423.23,73.16Z"/><path class="cls-11" d="M426.24,73.68a.34.34,0,0,1-.35-.14.37.37,0,0,1-.07-.39A.34.34,0,0,1,426,73l.42-.33.85-.66,1.47-1.15,1.2-.94,1.47-1.15a.4.4,0,0,1,.57.07.39.39,0,0,1,.06.11.38.38,0,0,1-.14.46l-1.45,1.13h0l-1.2.94-1.48,1.14-.84.66-.36.29A.46.46,0,0,1,426.24,73.68Z"/><path class="cls-12" d="M424.41,74.68a.38.38,0,0,1,.08-.56l1.31-1L426,73l.42-.33.85-.66,1.47-1.14h0l1.2-.94a.39.39,0,0,1,.57.07.33.33,0,0,1,.06.1.39.39,0,0,1-.12.45h0l-1.2.94-1.46,1.15-.86.66-.36.28-.21.17-1.26,1A.41.41,0,0,1,424.41,74.68Z"/><path class="cls-10" d="M428.87,81.59l-2.13-2.73a.63.63,0,0,1,.12-.93L428,77a.62.62,0,0,1,.93.11l2.13,2.73a.64.64,0,0,1-.12.94l-1.15.9A.73.73,0,0,1,428.87,81.59Z"/><path class="cls-10" d="M431.69,79.48l-2.37-3a.45.45,0,0,1,.08-.65l.11-.09a.45.45,0,0,1,.65.09l2.37,3a.44.44,0,0,1-.08.65l-.1.09A.47.47,0,0,1,431.69,79.48Z"/><path class="cls-11" d="M429.56,77.92a.4.4,0,0,1-.36-.13.4.4,0,0,1,.05-.54l0,0,.42-.33.85-.65L432,75.1l1.22-.94L434.68,73a.39.39,0,0,1,.56.06,1.33,1.33,0,0,1,.06.12.39.39,0,0,1-.13.45l-1.47,1.14-1.22.95L431,76.88l-.84.65-.37.29A.52.52,0,0,1,429.56,77.92Z"/><path class="cls-12" d="M427.73,78.93a.37.37,0,0,1,.07-.55l1.31-1,.14-.1,0,0,.43-.32.84-.66L432,75.11l1.21-1a.39.39,0,0,1,.56.07.34.34,0,0,1,.06.12.37.37,0,0,1-.13.44l-1.22.95L431,76.88l-.84.65-.37.29-.21.15-1.26,1A.43.43,0,0,1,427.73,78.93Z"/><path class="cls-11" d="M430.8,79.42h-.07a.45.45,0,0,1-.39-.16.39.39,0,0,1,0-.41.33.33,0,0,1,.11-.15h0l.41-.33.84-.65,1.47-1.15,1.21-.93,1.47-1.15a.39.39,0,0,1,.56.06.37.37,0,0,1,.07.12.39.39,0,0,1-.13.45l-1.45,1.12a0,0,0,0,1,0,0l-1.22.94-1.46,1.15h0l-.84.65-.38.31Z"/><path class="cls-12" d="M428.87,80.4a.39.39,0,0,1,.08-.56l1.31-1,.14-.11h0l.42-.32h0l.84-.65,1.47-1.15,1.21-.93a.39.39,0,0,1,.57.06.6.6,0,0,1,.06.11.37.37,0,0,1-.11.43,0,0,0,0,1,0,0l-1.22.94h0l-1.47,1.14h0l-.84.65-.38.31-.14.11-.05,0-1.26,1A.38.38,0,0,1,428.87,80.4Z"/><path class="cls-10" d="M420,70.2l-2.12-2.73a.63.63,0,0,1,.11-.94l1.16-.9a.63.63,0,0,1,.93.12l2.13,2.73a.62.62,0,0,1-.12.93l-1.15.9A.72.72,0,0,1,420,70.2Z"/><path class="cls-10" d="M422.82,68.08l-2.37-3a.46.46,0,0,1,.08-.66l.1-.08a.47.47,0,0,1,.66.08l2.37,3.05a.45.45,0,0,1-.08.65l-.11.08A.44.44,0,0,1,422.82,68.08Z"/><path class="cls-11" d="M420.74,66.5h0l-.06,0a.44.44,0,0,1-.39-.17.36.36,0,0,1,0-.4.33.33,0,0,1,.11-.15l0,0,.41-.33.84-.65,1.47-1.14,1.21-.94,1.47-1.15a.38.38,0,0,1,.56.07.26.26,0,0,1,.07.11.37.37,0,0,1-.14.45l-1.47,1.14-1.21,1-1.47,1.15-.84.65-.37.29Z"/><path class="cls-12" d="M418.81,67.49a.38.38,0,0,1,.08-.56l1.3-1,.15-.11,0,0,.42-.32h0l.84-.65,1.47-1.14,1.21-.94a.38.38,0,0,1,.56.06.37.37,0,0,1,.07.12.36.36,0,0,1-.14.44l-1.21,1-1.47,1.15-.84.65-.37.29-.15.12h0l0,0-1.26,1A.38.38,0,0,1,418.81,67.49Z"/><path class="cls-11" d="M422.05,67.92a.33.33,0,0,1-.22.08.38.38,0,0,1-.42-.53.48.48,0,0,1,.13-.16L422,67l.84-.65,1.46-1.14,1.22-1L427,63.09a.39.39,0,0,1,.56.08.6.6,0,0,1,.06.11.37.37,0,0,1-.13.44L426,64.87h0l-1.21.94L423.29,67l-.83.64h0Z"/><path class="cls-12" d="M420,69a.38.38,0,0,1,.07-.56l1.31-1,.16-.12L422,67l.83-.66,1.47-1.13,1.22-1a.38.38,0,0,1,.55.06.52.52,0,0,1,.07.12.4.4,0,0,1-.12.45h0l-1.21.94L423.28,67l-.82.65h0l-.4.31-.18.14-1.25,1A.44.44,0,0,1,420,69Z"/><ellipse class="cls-13" cx="502.95" cy="186.21" rx="1.66" ry="2.06" transform="translate(-8.24 348.42) rotate(-37.92)"/><ellipse class="cls-14" cx="502.37" cy="186.66" rx="1.46" ry="1.86" transform="translate(-8.64 348.16) rotate(-37.92)"/><ellipse class="cls-11" cx="501.9" cy="187.03" rx="1.46" ry="1.86" transform="translate(-8.97 347.95) rotate(-37.92)"/><ellipse class="cls-13" cx="463.31" cy="135.33" rx="1.66" ry="2.06" transform="translate(14.66 313.32) rotate(-37.92)"/><ellipse class="cls-14" cx="462.74" cy="135.78" rx="1.46" ry="1.86" transform="translate(14.26 313.06) rotate(-37.92)"/><ellipse class="cls-11" cx="462.26" cy="136.15" rx="1.46" ry="1.86" transform="translate(13.93 312.85) rotate(-37.92)"/><ellipse class="cls-13" cx="423.6" cy="84.35" rx="1.66" ry="2.06" transform="translate(37.6 278.14) rotate(-37.92)"/><ellipse class="cls-14" cx="423.02" cy="84.8" rx="1.46" ry="1.86" transform="translate(37.2 277.88) rotate(-37.92)"/><ellipse class="cls-11" cx="422.55" cy="85.17" rx="1.46" ry="1.86" transform="translate(36.88 277.67) rotate(-37.92)"/><path d="M446.08,143c-2.65-6.69-6.22-11.3-14-9.75-6.78,1.35-15,4-15.68,12.09-.28,3.69,1,7.48,2.47,10.84,1.39,3,3.31,6.95,6.54,8.37a4.46,4.46,0,0,0,5.69-1.47c2.05-3,.36-6.53-1.23-9.29-.54-.94-2.23-.14-1.74.88,1,2.2,2.67,5.7.22,7.39-1.81,1.26-5.52,1.55-7.57,1.91-1.26.22-1.14,2.22.12,2,2.86-.49,8.1-.81,10-3.17,1.77-2.23.06-6.57-.91-8.77-.61.28-1.19.62-1.74.88a12.81,12.81,0,0,1,1.86,4.36c.28,3.07-3.18,4.26-5.3,2.39-1.92-1.66-3.23-4.45-4.24-6.77-2-4.59-3.69-10.7.25-14.8,3.06-3.17,8.52-4.49,12.74-5.1,6.1-.9,8.73,3.68,10.66,8.65a1,1,0,1,0,1.82-.63Z"/><path d="M448.92,163.73c-3.09-4.49-9-4-12.86-.77-4.18,3.41-4.57,8.4-1.64,12.81,6,9.33,21.11-5.94,13.82-12.79-.93-.87-2.24.63-1.31,1.51,5.1,4.79-7.35,18.3-11.53,8.83-1.33-3.06-1.26-5.9,1.22-8.31,3-2.85,7.94-4.14,10.63-.21.73,1.09,2.38,0,1.67-1.07Z"/><path d="M406.08,151.12a67.32,67.32,0,0,0-20,9.8c-1,.72-.09,2.46,1,1.73a64.69,64.69,0,0,1,19.56-9.6,1,1,0,0,0-.52-1.93Z"/><path d="M404.8,153.38c2.53,1.14,2.45,3-.3,5.58a7.16,7.16,0,0,1-3.72-1,22.32,22.32,0,0,1-3.64-2.55c-.86-.67-1.74.59-1.41,1.39a8.29,8.29,0,0,0,1.52,2.14c.4.47,1.26,1,1.45,1.6.66,1.8-.62,4-2,5a6.76,6.76,0,0,1-10.5-2.72c-.52-1.14-2.26-.15-1.73,1a8.76,8.76,0,0,0,13,3.67,7.5,7.5,0,0,0,3.56-5.44c.22-2.86-2.44-3.94-3.49-6.28l-1.4,1.39c3.11,2.42,8.15,5.64,11.89,2.6,3.35-2.7.37-6.25-2.14-8.13a1,1,0,0,0-1.15,1.73Z"/><path d="M396.58,171.23a5.42,5.42,0,0,0,8.24,2.11c2.07-1.58,3.23-5.77-.16-6.59s-7.81,2.75-9.69,5.34c-3.08,4.3,0,7.92,3.2,11.26.86.94,2.33-.45,1.4-1.39-1.19-1.2-3.17-3-3.63-4.74-.65-2.6.83-4.59,2.7-6.18a10.42,10.42,0,0,1,2-1.32c1.6-.85,1.93-1.25,3,.09,1.19.8,1.06,1.54-.48,2.19-.53.13-1.07.33-1.67.46a3.83,3.83,0,0,1-3.24-2.28c-.53-1.07-2.27-.08-1.67,1Z"/><path d="M414.16,181a3,3,0,0,0-3.11-4.22c-3.39.18-7.67,3.29-8.82,6.47-1,2.66.1,5.86,3,6.68,3.85,1.09,7.55-4.48,9.82-6.73L413.48,182c-2.88,4.24-5.7,8.49-7,13.47a1,1,0,0,0,1.93.54c1.29-4.85,4-8.89,6.8-13,.67-.93-.79-2-1.59-1.21-1.41,1.39-6.57,7.75-9.15,5.47-1.92-1.74-.11-4.59,1.23-5.78a12.58,12.58,0,0,1,2.54-1.65,3.4,3.4,0,0,1,4.06.16c-.41,1.13,1.32,2.2,1.86,1Z"/><path d="M418.18,187c-3.21,2.71-6.36,5.49-9.57,8.2-.93.79.26,2,1.19,1.6,3.61-1.64,10.16-7.46,13.73-2.71.79,1,2.53,0,1.74-1-4.63-6.08-11.52-.27-16.46,2l1.19,1.61c3.21-2.71,6.36-5.49,9.57-8.2,1-.86-.45-2.33-1.39-1.47Z"/><path d="M428.42,199c-.84-3.67-4.9-3.49-7.37-1.58a9.36,9.36,0,0,0-3.09,4.24,10.09,10.09,0,0,0-.48,2.79c0,.6.12,1.2,0,1.8a2.15,2.15,0,0,1-.61,1.73c-.41,2.06-1.61,2-3.66-.09-.46-1.2-2.39-.68-1.93.52,1,2.8,4.37,4.29,6.78,2,1.27-1.25,1.35-3,1.36-4.65a8.52,8.52,0,0,1,1-4.92c.74-1.19,5.09-5.29,6-1.43a1,1,0,1,0,1.93-.38Z"/><polygon class="cls-4" points="93.31 117.67 98.1 127.76 96.97 128.46 81.17 138.28 74.23 128.09 92.16 118.29 93.31 117.67"/><polygon class="cls-4" points="81.18 95.15 408.41 37.88 404.31 41.28 404.31 41.29 173.28 233.5 157.8 246.4 154.28 249.32 136.76 212.38 131.94 202.18 96.97 128.46 92.16 118.29 81.18 95.15"/><polygon class="cls-15" points="91.07 98.27 390.44 45.37 158.02 237.79 91.07 98.27"/><path class="cls-4" d="M161.21,135.1l10.43-4.92-13.08-19.66-16.34,9.67a6.82,6.82,0,0,0-2.65,8.89l24.63,50.08a8.72,8.72,0,0,0,11.71,3.94l11.43-5.73a7.85,7.85,0,0,0,3.25-11l-8.11-13.75-8.8,4.32,5,10.84-4.87,1.79L152.7,130.47a1.85,1.85,0,0,1,1-2.64l1.68-.59a1.87,1.87,0,0,1,2.27.92Z"/><path class="cls-4" d="M190.06,93.82l-15.33,10.42,32.3,64.7,9.65-7.18-7.43-15.27,6.15-4.93,11.73,13.84L236.3,149Zm7.73,37.7-4.73-11.71L199,117l8.17,9.15Z"/><polygon class="cls-4" points="217.55 81.08 209.55 87.34 244.39 138.75 260.83 127.18 255.72 119.75 247.33 125.3 217.55 81.08"/><polygon class="cls-16" points="404.31 41.28 405.54 44.48 160.53 248.36 157.8 246.4 173.28 233.5 404.31 41.28"/><path class="cls-1" d="M286.87,201.62l48.24,62.13-47.05,36.52-48.24-62.13a6.31,6.31,0,0,1,1.12-8.86l5.42-4.22a1.32,1.32,0,0,1,1.84.23,2.36,2.36,0,0,0,1.6.91,2.39,2.39,0,0,0,1.78-.48l20.33-15.79a2.38,2.38,0,0,0,.88-1.37,1.81,1.81,0,0,0,0-.23.57.57,0,0,0,0-.22,2.37,2.37,0,0,0-.5-1.54h0a1.32,1.32,0,0,1,.23-1.84L278,200.5A6.32,6.32,0,0,1,286.87,201.62Z"/><path d="M288.93,200.56l48,61.79-1.8,1.4-48.24-62.13A6.32,6.32,0,0,0,278,200.5l-5.44,4.22a1.32,1.32,0,0,0-.23,1.84h0a2.37,2.37,0,0,1,.5,1.54.57.57,0,0,1,0,.22,1.81,1.81,0,0,1,0,.23,2.38,2.38,0,0,1-.88,1.37l-20.33,15.79a2.39,2.39,0,0,1-1.78.48,2.36,2.36,0,0,1-1.6-.91,1.32,1.32,0,0,0-1.84-.23l-5.42,4.22a6.31,6.31,0,0,0-1.12,8.86l48.24,62.13-1.8,1.4-48-61.79a9.23,9.23,0,0,1,1.63-12.94l36.07-28A9.22,9.22,0,0,1,288.93,200.56Z"/><path d="M336.91,262.35l14.41,18.57a9.2,9.2,0,0,1-1.63,12.94l-36.08,28a9,9,0,0,1-3.68,1.72,9.19,9.19,0,0,1-9.25-3.35l-14.42-18.57,1.8-1.4,14.68,18.91a6.29,6.29,0,0,0,5.6,2.4,6.18,6.18,0,0,0,3.26-1.29l37.06-28.77a6.21,6.21,0,0,0,1.86-2.33,6.31,6.31,0,0,0-.74-6.54l-14.67-18.9Z"/><path d="M286.87,201.62l62.91,81a6.31,6.31,0,0,1,.74,6.54,6.21,6.21,0,0,1-1.86,2.33L311.6,320.29a6.18,6.18,0,0,1-3.26,1.29,6.29,6.29,0,0,1-5.6-2.4l-62.92-81a6.31,6.31,0,0,1,1.12-8.86l5.42-4.22a1.32,1.32,0,0,1,1.84.23,2.36,2.36,0,0,0,1.6.91,2.39,2.39,0,0,0,1.78-.48l20.33-15.79a2.38,2.38,0,0,0,.88-1.37,1.81,1.81,0,0,0,0-.23.57.57,0,0,0,0-.22,2.37,2.37,0,0,0-.5-1.54h0a1.32,1.32,0,0,1,.23-1.84L278,200.5A6.32,6.32,0,0,1,286.87,201.62Z"/><path class="cls-17" d="M286.87,201.62l62.91,81a6.31,6.31,0,0,1,.74,6.54,6.21,6.21,0,0,1-1.86,2.33L311.6,320.29a6.18,6.18,0,0,1-3.26,1.29,6.29,6.29,0,0,1-5.6-2.4l-62.92-81a6.31,6.31,0,0,1,1.12-8.86l5.42-4.22a1.32,1.32,0,0,1,1.84.23,2.36,2.36,0,0,0,1.6.91,2.39,2.39,0,0,0,1.78-.48l20.33-15.79a2.38,2.38,0,0,0,.88-1.37,1.81,1.81,0,0,0,0-.23.57.57,0,0,0,0-.22,2.37,2.37,0,0,0-.5-1.54h0a1.32,1.32,0,0,1,.23-1.84L278,200.5A6.32,6.32,0,0,1,286.87,201.62Z"/><rect x="242.71" y="229.48" width="27.14" height="7.37" transform="translate(-89.26 207.76) rotate(-38.09)"/><path class="cls-18" d="M271.07,218.88h0a2.71,2.71,0,0,1,2.12,1,2.66,2.66,0,0,1,.55,2,2.68,2.68,0,0,1-2.66,2.36,2.69,2.69,0,1,1,0-5.37m0-1a3.69,3.69,0,0,0-2.9,6h0a3.69,3.69,0,1,0,5.8-4.55h0a3.66,3.66,0,0,0-2.9-1.41Z"/><path class="cls-18" d="M285.67,207.44h0a2.69,2.69,0,0,1,1.66,4.8l-7.65,6a2.69,2.69,0,0,1-3.32-4.23l7.66-6a2.6,2.6,0,0,1,1.65-.57m0-1a3.66,3.66,0,0,0-2.27.78l-7.65,6a3.68,3.68,0,1,0,4.54,5.8l7.66-6a3.68,3.68,0,0,0,.62-5.17h0a3.66,3.66,0,0,0-2.9-1.41Z"/><rect class="cls-19" x="253.45" y="229.54" width="53.17" height="25.68" rx="2.74" ry="2.74" transform="translate(-89.89 224.38) rotate(-38.09)"/><rect class="cls-20" x="270.66" y="251.48" width="53.17" height="25.68" rx="2.74" ry="2.74" transform="translate(-99.76 239.66) rotate(-38.09)"/><rect class="cls-21" x="287.86" y="273.43" width="53.17" height="25.68" rx="2.74" ry="2.74" transform="translate(-109.64 254.95) rotate(-38.09)"/><path class="cls-22" d="M350.52,289.19a6.21,6.21,0,0,1-1.86,2.33L311.6,320.29a6.18,6.18,0,0,1-3.26,1.29l-3.67-4.67a3.07,3.07,0,0,1,.53-4.28l37.06-29a3.05,3.05,0,0,1,4.27.52Z"/></svg>