<svg id="Layer_1" data-name="Layer 1" xmlns="http://www.w3.org/2000/svg" viewBox="0 0 1142.45 718.13"><defs><style>.cls-1,.cls-11,.cls-2,.cls-26,.cls-43,.cls-44,.cls-51,.cls-52,.cls-56{fill:none;}.cls-1{stroke:#2a4daa;}.cls-1,.cls-11,.cls-2,.cls-26,.cls-3,.cls-43,.cls-51,.cls-52,.cls-53,.cls-60{stroke-miterlimit:10;}.cls-2{stroke:#ffca28;}.cls-2,.cls-43,.cls-44,.cls-51,.cls-52,.cls-53,.cls-56,.cls-59,.cls-60{stroke-width:2px;}.cls-3,.cls-53,.cls-59,.cls-60{fill:#fff;}.cls-11,.cls-3,.cls-43,.cls-56,.cls-60{stroke:#000;}.cls-4,.cls-42,.cls-45,.cls-48,.cls-8{font-size:12px;font-family:CircularStd-Medium, Circular Std;}.cls-4{fill:#2a4daa;}.cls-5{letter-spacing:-0.04em;}.cls-6{letter-spacing:0em;}.cls-7{letter-spacing:0em;}.cls-9{letter-spacing:0em;}.cls-10{letter-spacing:0em;}.cls-12{letter-spacing:0.03em;}.cls-13{letter-spacing:-0.06em;}.cls-14{letter-spacing:0em;}.cls-15{letter-spacing:0em;}.cls-16{letter-spacing:0em;}.cls-17{letter-spacing:-0.02em;}.cls-18{letter-spacing:-0.02em;}.cls-19{letter-spacing:0em;}.cls-20{letter-spacing:-0.01em;}.cls-21{letter-spacing:-0.02em;}.cls-22{letter-spacing:0em;}.cls-23{letter-spacing:0em;}.cls-24{letter-spacing:-0.01em;}.cls-25{letter-spacing:-0.01em;}.cls-26,.cls-51,.cls-53{stroke:#a0a0a0;}.cls-27{letter-spacing:0.02em;}.cls-28{letter-spacing:0em;}.cls-29,.cls-42,.cls-48{letter-spacing:-0.01em;}.cls-30{letter-spacing:-0.02em;}.cls-31{letter-spacing:-0.01em;}.cls-32{letter-spacing:-0.01em;}.cls-33{letter-spacing:-0.01em;}.cls-34{letter-spacing:0.01em;}.cls-35{letter-spacing:-0.01em;}.cls-36{letter-spacing:-0.02em;}.cls-37{letter-spacing:-0.06em;}.cls-38{letter-spacing:0em;}.cls-39{letter-spacing:-0.01em;}.cls-40{letter-spacing:0em;}.cls-41{letter-spacing:0em;}.cls-44,.cls-52,.cls-59{stroke:#66bb6a;}.cls-44,.cls-56,.cls-59{stroke-linecap:round;stroke-linejoin:round;}.cls-45,.cls-48{fill:#a0a0a0;}.cls-46{letter-spacing:0em;}.cls-47{letter-spacing:-0.01em;}.cls-49{letter-spacing:0em;}.cls-50{letter-spacing:0em;}.cls-54{letter-spacing:-0.01em;}.cls-55{letter-spacing:-0.02em;}.cls-57{letter-spacing:0.01em;}.cls-58{letter-spacing:0em;}</style></defs><title>nso-userflow</title><rect class="cls-1" x="29.5" y="156.66" width="90" height="62" rx="4" ry="4"/><line class="cls-2" x1="231.16" y1="218.66" x2="231.16" y2="254.97"/><rect class="cls-3" x="775.03" y="560.54" width="100.65" height="39.3"/><rect class="cls-3" x="771.53" y="557.04" width="100.65" height="39.3"/><rect class="cls-3" x="767.53" y="553.04" width="100.65" height="39.3"/><rect class="cls-3" x="767.53" y="380.67" width="100.65" height="39.3" rx="19.65" ry="19.65"/><rect class="cls-3" x="767.53" y="466.36" width="100.65" height="39.3" rx="19.65" ry="19.65"/><rect class="cls-1" x="765.88" y="289.76" width="106" height="62" rx="4" ry="4"/><rect class="cls-3" x="594.86" y="654.43" width="100.65" height="39.3"/><text class="cls-4" transform="translate(48.52 184.16)"><tspan class="cls-5">W</tspan><tspan x="11.76" y="0">el</tspan><tspan class="cls-6" x="21.53" y="0">c</tspan><tspan x="27.96" y="0">ome</tspan><tspan x="4.73" y="14.4">+ </tspan><tspan class="cls-7" x="14.65" y="14.4">N</tspan><tspan x="23.8" y="14.4">ame</tspan></text><text class="cls-8" transform="translate(42.27 281.61)">In<tspan class="cls-9" x="10.39" y="0">p</tspan><tspan x="17.6" y="0">ut </tspan><tspan class="cls-7" x="31.88" y="0">N</tspan><tspan class="cls-10" x="41.03" y="0">ame</tspan></text><rect class="cls-11" x="24.17" y="258.26" width="100.65" height="39.3" rx="19.65" ry="19.65"/><text class="cls-4" transform="translate(182.4 184.16)"><tspan class="cls-12">“</tspan><tspan class="cls-13" x="5.3" y="0">T</tspan><tspan class="cls-14" x="11.83" y="0">ype of </tspan><tspan class="cls-15" x="49.27" y="0">S</tspan><tspan class="cls-16" x="56.44" y="0">t</tspan><tspan class="cls-7" x="60.85" y="0">u</tspan><tspan x="67.74" y="0">den</tspan><tspan class="cls-17" x="88.43" y="0">t</tspan><tspan class="cls-14" x="92.6" y="0">”</tspan><tspan class="cls-18" x="35.29" y="14.4">P</tspan><tspan class="cls-19" x="42.23" y="14.4">a</tspan><tspan x="48.6" y="14.4">ge</tspan></text><text class="cls-8" transform="translate(195.2 277.52)"><tspan class="cls-15">N</tspan><tspan class="cls-20" x="9.16" y="0">e</tspan><tspan x="15.65" y="0">w </tspan><tspan class="cls-15" x="28.39" y="0">S</tspan><tspan class="cls-16" x="35.56" y="0">t</tspan><tspan class="cls-7" x="39.97" y="0">u</tspan><tspan x="46.86" y="0">dent</tspan><tspan x="2.77" y="14.4">On-</tspan><tspan class="cls-21" x="23.78" y="14.4">C</tspan><tspan x="32.68" y="14.4">am</tspan><tspan class="cls-7" x="49.54" y="14.4">p</tspan><tspan x="56.75" y="14.4">us</tspan></text><text class="cls-8" transform="translate(195.2 362.41)"><tspan class="cls-15">N</tspan><tspan class="cls-20" x="9.16" y="0">e</tspan><tspan x="15.65" y="0">w </tspan><tspan class="cls-15" x="28.39" y="0">S</tspan><tspan class="cls-16" x="35.56" y="0">t</tspan><tspan class="cls-7" x="39.97" y="0">u</tspan><tspan x="46.86" y="0">dent</tspan><tspan x="2.2" y="14.4">Off-</tspan><tspan class="cls-21" x="24.36" y="14.4">C</tspan><tspan class="cls-10" x="33.25" y="14.4">am</tspan><tspan class="cls-7" x="50.11" y="14.4">p</tspan><tspan x="57.32" y="14.4">us</tspan></text><text class="cls-8" transform="translate(204.27 449.19)"><tspan class="cls-17">R</tspan><tspan class="cls-10" x="7.26" y="0">e</tspan><tspan class="cls-22" x="13.84" y="0">t</tspan><tspan x="18.25" y="0">u</tspan><tspan class="cls-23" x="25.18" y="0">r</tspan><tspan class="cls-10" x="29.76" y="0">ning</tspan><tspan class="cls-15"><tspan x="5.12" y="14.4">S</tspan><tspan class="cls-22" x="12.29" y="14.4">t</tspan><tspan class="cls-9" x="16.7" y="14.4">u</tspan><tspan class="cls-10" x="23.59" y="14.4">dent</tspan></tspan></text><rect class="cls-11" x="175.73" y="254.97" width="110.87" height="52.1" rx="26.05" ry="26.05"/><rect class="cls-11" x="175.73" y="339.86" width="110.87" height="52.1" rx="26.05" ry="26.05"/><rect class="cls-11" x="175.73" y="426.63" width="110.87" height="52.1" rx="26.05" ry="26.05"/><rect class="cls-1" x="170.16" y="156.66" width="122" height="62" rx="4" ry="4"/><text class="cls-4" transform="translate(357.01 44.06)"><tspan class="cls-5">W</tspan><tspan x="11.76" y="0">el</tspan><tspan class="cls-6" x="21.53" y="0">c</tspan><tspan x="27.96" y="0">ome +</tspan><tspan x="2.89" y="14.4">In</tspan><tspan class="cls-24" x="13.28" y="14.4">t</tspan><tspan class="cls-7" x="17.58" y="14.4">r</tspan><tspan x="22.1" y="14.4">o </tspan><tspan class="cls-18" x="32.03" y="14.4">P</tspan><tspan class="cls-19" x="38.98" y="14.4">a</tspan><tspan x="45.35" y="14.4">ge</tspan></text><text class="cls-4" transform="translate(361.72 520.01)"><tspan class="cls-5">W</tspan><tspan x="11.76" y="0">el</tspan><tspan class="cls-6" x="21.53" y="0">c</tspan><tspan x="27.96" y="0">ome</tspan><tspan class="cls-25" x="12.67" y="14.4">B</tspan><tspan class="cls-19" x="19.9" y="14.4">a</tspan><tspan x="26.27" y="14.4">ck</tspan></text><rect class="cls-1" x="342.95" y="16.57" width="90" height="62" rx="4" ry="4"/><rect class="cls-26" x="484.52" y="24.81" width="120" height="44" rx="4" ry="4"/><rect class="cls-26" x="919.35" y="378.13" width="78.7" height="44" rx="4" ry="4"/><rect class="cls-1" x="342.7" y="500.46" width="90" height="46.1" rx="4" ry="4"/><text class="cls-4" transform="translate(501.16 158.36)">“I<tspan class="cls-23" x="8.45" y="0">t</tspan><tspan x="12.85" y="0">ine</tspan><tspan class="cls-22" x="29.5" y="0">r</tspan><tspan x="34.09" y="0">a</tspan><tspan class="cls-27" x="40.48" y="0">r</tspan><tspan x="45.27" y="0">y” </tspan><tspan class="cls-18" x="59.7" y="0">P</tspan><tspan class="cls-19" x="66.65" y="0">a</tspan><tspan x="73.02" y="0">ge</tspan></text><text class="cls-8" transform="translate(509.63 336.96)"><tspan class="cls-28">D</tspan><tspan x="8.69" y="0">ele</tspan><tspan class="cls-9" x="25.03" y="0">t</tspan><tspan x="29.38" y="0">e </tspan><tspan class="cls-29" x="38.93" y="0">E</tspan><tspan class="cls-30" x="45.76" y="0">v</tspan><tspan x="51.88" y="0">ent</tspan></text><text class="cls-8" transform="translate(513.84 264.79)">Vi<tspan class="cls-20" x="11.27" y="0">e</tspan><tspan x="17.76" y="0">w </tspan><tspan class="cls-31" x="30.5" y="0">E</tspan><tspan class="cls-32" x="37.33" y="0">v</tspan><tspan x="43.45" y="0">ent</tspan></text><rect class="cls-11" x="494.16" y="241.44" width="100.65" height="39.3" rx="19.65" ry="19.65"/><rect class="cls-11" x="494.16" y="312.44" width="100.65" height="39.3" rx="19.65" ry="19.65"/><rect class="cls-1" x="491.49" y="123.66" width="106" height="62" rx="4" ry="4"/><rect class="cls-3" x="591.36" y="650.93" width="100.65" height="39.3"/><rect class="cls-3" x="587.36" y="646.93" width="100.65" height="39.3"/><text class="cls-4" transform="translate(590.36 414.16)">“<tspan class="cls-7" x="4.94" y="0">Br</tspan><tspan class="cls-33" x="16.72" y="0">o</tspan><tspan class="cls-14" x="23.52" y="0">w</tspan><tspan class="cls-9" x="33.29" y="0">s</tspan><tspan x="38.74" y="0">e / </tspan><tspan class="cls-20" x="56.74" y="0">S</tspan><tspan x="63.84" y="0">ea</tspan><tspan class="cls-7" x="76.8" y="0">r</tspan><tspan x="81.32" y="0">ch</tspan><tspan class="cls-29" x="11.78" y="14.4">E</tspan><tspan class="cls-30" x="18.61" y="14.4">v</tspan><tspan class="cls-10" x="24.73" y="14.4">en</tspan><tspan class="cls-34" x="38.19" y="14.4">t</tspan><tspan class="cls-35" x="42.69" y="14.4">s</tspan><tspan x="48.05" y="14.4">” </tspan><tspan class="cls-36" x="55.96" y="14.4">P</tspan><tspan class="cls-19" x="62.91" y="14.4">a</tspan><tspan class="cls-14" x="69.28" y="14.4">ge</tspan></text><text class="cls-8" transform="translate(623.21 501.21)"><tspan class="cls-7">F</tspan><tspan x="6.65" y="0">il</tspan><tspan class="cls-7" x="13.02" y="0">t</tspan><tspan class="cls-10" x="17.36" y="0">er</tspan></text><text class="cls-8" transform="translate(618.48 588.54)"><tspan class="cls-20">S</tspan><tspan class="cls-10" x="7.1" y="0">ea</tspan><tspan class="cls-7" x="20.06" y="0">r</tspan><tspan x="24.59" y="0">ch</tspan></text><text class="cls-8" transform="translate(607.14 670.37)"><tspan class="cls-29">E</tspan><tspan class="cls-30" x="6.83" y="0">v</tspan><tspan class="cls-10" x="12.95" y="0">ent </tspan><tspan class="cls-37" x="33.77" y="0">T</tspan><tspan x="40.3" y="0">ype</tspan></text><rect class="cls-11" x="587.36" y="477.86" width="100.65" height="39.3" rx="19.65" ry="19.65"/><rect class="cls-11" x="587.36" y="565.19" width="100.65" height="39.3" rx="19.65" ry="19.65"/><rect class="cls-11" x="584.71" y="386.66" width="106" height="62" rx="4" ry="4"/><text class="cls-4" transform="translate(1006.76 184.16)">“<tspan class="cls-29" x="4.94" y="0">E</tspan><tspan class="cls-30" x="11.77" y="0">v</tspan><tspan class="cls-10" x="17.89" y="0">ent </tspan><tspan class="cls-38" x="38.71" y="0">D</tspan><tspan class="cls-10" x="47.4" y="0">e</tspan><tspan class="cls-22" x="53.98" y="0">t</tspan><tspan x="58.39" y="0">ail</tspan><tspan class="cls-35" x="71.15" y="0">s</tspan><tspan x="76.51" y="0">”</tspan><tspan class="cls-18" x="27.24" y="14.4">P</tspan><tspan class="cls-19" x="34.19" y="14.4">a</tspan><tspan x="40.56" y="14.4">ge</tspan></text><text class="cls-8" transform="translate(1004.08 270.27)"><tspan class="cls-35">A</tspan><tspan x="8.41" y="0">dd </tspan><tspan class="cls-9" x="25.84" y="0">t</tspan><tspan x="30.18" y="0">o I</tspan><tspan class="cls-23" x="43.61" y="0">t</tspan><tspan x="48.01" y="0">ine</tspan><tspan class="cls-22" x="64.65" y="0">r</tspan><tspan class="cls-10" x="69.25" y="0">a</tspan><tspan class="cls-27" x="75.63" y="0">r</tspan><tspan class="cls-14" x="80.43" y="0">y</tspan></text><text class="cls-8" transform="translate(1013.29 357.28)">Vi<tspan class="cls-20" x="11.27" y="0">e</tspan><tspan x="17.76" y="0">w </tspan><tspan class="cls-39" x="30.5" y="0">P</tspan><tspan x="37.63" y="0">h</tspan><tspan class="cls-9" x="44.52" y="0">ot</tspan><tspan class="cls-10" x="55.78" y="0">os</tspan></text><text class="cls-8" transform="translate(1019.44 444.12)"><tspan class="cls-40">B</tspan><tspan class="cls-10" x="7.34" y="0">ookma</tspan><tspan class="cls-23" x="44.63" y="0">r</tspan><tspan x="49.21" y="0">k</tspan></text><text class="cls-8" transform="translate(999.77 530.96)"><tspan class="cls-25">B</tspan><tspan class="cls-19" x="7.22" y="0">a</tspan><tspan x="13.6" y="0">ck + </tspan><tspan class="cls-41" x="39.52" y="0">N</tspan><tspan x="48.67" y="0">o </tspan><tspan class="cls-35" x="58.6" y="0">A</tspan><tspan x="67.01" y="0">c</tspan><tspan class="cls-23" x="73.5" y="0">t</tspan><tspan x="77.9" y="0">ion</tspan></text><text class="cls-8" transform="translate(1016.58 623.96)">Vi<tspan class="cls-20" x="11.27" y="0">e</tspan><tspan x="17.76" y="0">w </tspan><tspan class="cls-31" x="30.5" y="0">E</tspan><tspan class="cls-32" x="37.33" y="0">v</tspan><tspan x="43.45" y="0">ent</tspan><tspan x="17.14" y="14.4">in FB</tspan></text><rect class="cls-1" x="994.48" y="156.66" width="106" height="62" rx="4" ry="4"/><text class="cls-8" transform="translate(804.38 404.02)"><tspan class="cls-7">F</tspan><tspan x="6.65" y="0">il</tspan><tspan class="cls-7" x="13.02" y="0">t</tspan><tspan class="cls-10" x="17.36" y="0">er</tspan></text><text class="cls-42" transform="translate(803.24 576.39)">E<tspan class="cls-30" x="6.83" y="0">v</tspan><tspan class="cls-10" x="12.95" y="0">ent</tspan></text><text class="cls-4" transform="translate(775.95 317.26)">“<tspan class="cls-29" x="4.94" y="0">E</tspan><tspan class="cls-30" x="11.77" y="0">v</tspan><tspan class="cls-10" x="17.89" y="0">ent Lis</tspan><tspan class="cls-23" x="54.04" y="0">t</tspan><tspan class="cls-14" x="58.44" y="0">ing</tspan><tspan class="cls-35" x="75.57" y="0">s</tspan><tspan x="80.94" y="0">”</tspan><tspan class="cls-18" x="29.45" y="14.4">P</tspan><tspan class="cls-19" x="36.4" y="14.4">a</tspan><tspan x="42.77" y="14.4">ge</tspan></text><text class="cls-8" transform="translate(799.65 489.71)"><tspan class="cls-20">S</tspan><tspan class="cls-10" x="7.1" y="0">ea</tspan><tspan class="cls-7" x="20.06" y="0">r</tspan><tspan x="24.59" y="0">ch</tspan></text><rect class="cls-11" x="990.22" y="246.92" width="114.68" height="39.3" rx="19.65" ry="19.65"/><rect class="cls-11" x="990.05" y="333.93" width="114.68" height="39.3" rx="19.65" ry="19.65"/><rect class="cls-11" x="990.05" y="507.93" width="114.68" height="39.3" rx="19.65" ry="19.65"/><rect class="cls-11" x="990.05" y="605.93" width="114.68" height="39.3" rx="19.65" ry="19.65"/><rect class="cls-11" x="1002.48" y="420.77" width="89.67" height="39.3" rx="19.65" ry="19.65"/><line class="cls-43" x1="74.5" y1="218.66" x2="74.5" y2="258.26"/><line class="cls-2" x1="231.16" y1="307.07" x2="231.16" y2="339.86"/><line class="cls-2" x1="231.16" y1="391.96" x2="231.16" y2="426.63"/><path class="cls-44" d="M286.73,280.57h0a34,34,0,0,0,34-34V65.79A22.22,22.22,0,0,1,343,43.57h0"/><path class="cls-44" d="M286.73,367.57H298.5a22.23,22.23,0,0,0,22.23-22.23V65.79A22.22,22.22,0,0,1,343,43.57h0"/><path class="cls-44" d="M125.23,278.07h0a21,21,0,0,0,21-21v-48a21,21,0,0,1,21-21h2.93"/><text class="cls-45" transform="translate(491.93 43.31)">*<tspan class="cls-9" x="5.38" y="0">M</tspan><tspan x="16.74" y="0">an</tspan><tspan class="cls-46" x="30.01" y="0">da</tspan><tspan class="cls-7" x="43.57" y="0">t</tspan><tspan class="cls-10" x="47.92" y="0">o</tspan><tspan class="cls-27" x="54.86" y="0">r</tspan><tspan class="cls-14" x="59.66" y="0">y </tspan><tspan class="cls-47" x="69.16" y="0">e</tspan><tspan class="cls-32" x="75.61" y="0">v</tspan><tspan x="81.73" y="0">en</tspan><tspan class="cls-34" x="95.19" y="0">t</tspan><tspan x="99.69" y="0">s</tspan><tspan x="5.71" y="14.4">h</tspan><tspan class="cls-6" x="12.59" y="14.4">a</tspan><tspan class="cls-32" x="18.92" y="14.4">v</tspan><tspan x="25.04" y="14.4">e been </tspan><tspan class="cls-19" x="64.85" y="14.4">a</tspan><tspan x="71.23" y="14.4">dded</tspan></text><rect class="cls-26" x="377.82" y="282.47" width="94.45" height="29.1" rx="4" ry="4"/><text class="cls-48" transform="translate(386.58 300.72)">E<tspan class="cls-30" x="6.83" y="0">v</tspan><tspan class="cls-10" x="12.95" y="0">ent </tspan><tspan class="cls-38" x="33.77" y="0">D</tspan><tspan class="cls-10" x="42.46" y="0">ele</tspan><tspan class="cls-49" x="58.8" y="0">t</tspan><tspan class="cls-50" x="63.14" y="0">ed</tspan></text><line class="cls-51" x1="432.95" y1="46.81" x2="484.52" y2="46.81"/><line class="cls-2" x1="637.71" y1="448.66" x2="637.71" y2="477.86"/><line class="cls-2" x1="637.71" y1="517.16" x2="637.71" y2="565.19"/><line class="cls-43" x1="637.71" y1="604.49" x2="637.71" y2="646.93"/><line class="cls-2" x1="818.88" y1="351.76" x2="818.88" y2="380.67"/><line class="cls-2" x1="818.88" y1="419.98" x2="818.88" y2="466.36"/><line class="cls-43" x1="818.88" y1="505.66" x2="818.88" y2="553.04"/><path class="cls-44" d="M601.36,154.2l-3.87,3.87h68.74a21,21,0,0,0,21-21v-22a21,21,0,0,1,21-21H932.94"/><path class="cls-51" d="M1027.4,94.07h77.83a21,21,0,0,1,21,21v131a21,21,0,0,1-18.64,20.86,18.46,18.46,0,0,1-2.36.14"/><path class="cls-52" d="M595.23,261.07h118.4a24.6,24.6,0,0,0,24.6-24.6V156.66a24.59,24.59,0,0,1,24.59-24.59h259.81a24.59,24.59,0,0,1,24.6,24.59h0"/><line class="cls-43" x1="544.49" y1="185.66" x2="544.49" y2="241.44"/><line class="cls-43" x1="544.52" y1="281.61" x2="544.52" y2="312.44"/><line class="cls-43" x1="1047.56" y1="218.66" x2="1047.56" y2="246.92"/><line class="cls-43" x1="1047.56" y1="286.23" x2="1047.56" y2="334.26"/><line class="cls-43" x1="1047.56" y1="373.56" x2="1047.56" y2="420.93"/><line class="cls-43" x1="1047.56" y1="460.24" x2="1047.56" y2="507.93"/><line class="cls-43" x1="1047.56" y1="547.24" x2="1047.56" y2="605.93"/><line class="cls-43" x1="544.52" y1="68.81" x2="544.52" y2="123.66"/><line class="cls-44" x1="601.41" y1="161.99" x2="597.49" y2="158.07"/><circle class="cls-53" cx="1104.9" cy="267.07" r="2.7"/><line class="cls-44" x1="1047.2" y1="157.64" x2="1043.25" y2="153.68"/><line class="cls-44" x1="1051.21" y1="153.68" x2="1047.25" y2="157.64"/><text class="cls-45" transform="translate(943.3 396.63)"><tspan class="cls-54">E<tspan class="cls-32" x="6.83" y="0">v</tspan><tspan class="cls-50" x="12.95" y="0">ent</tspan></tspan><tspan x="-19.19" y="14.4">bookma</tspan><tspan class="cls-28" x="25.34" y="14.4">r</tspan><tspan class="cls-55" x="29.93" y="14.4">k</tspan><tspan x="36.18" y="14.4">ed</tspan></text><path class="cls-51" d="M1002.48,440.42H977a18.29,18.29,0,0,1-18.29-18.29h0"/><path class="cls-43" d="M990.05,527.59h0a13.47,13.47,0,0,1-13.46-13.47v-92"/><path class="cls-43" d="M976.59,378.13V206.55a17.89,17.89,0,0,1,17.89-17.89H977A18.29,18.29,0,0,0,958.7,207V378.13"/><path class="cls-51" d="M494.16,332.09H444.7a19.65,19.65,0,0,1-19.65-19.65h0"/><path class="cls-43" d="M425.05,282.47v-108a19.85,19.85,0,0,1,19.85-19.85h46.59"/><line class="cls-56" x1="491.49" y1="154.68" x2="487.53" y2="158.64"/><line class="cls-56" x1="487.53" y1="150.68" x2="491.49" y2="154.63"/><path class="cls-44" d="M286.6,452.69h.13a28.11,28.11,0,0,1,28.11,28.11v14.6A28.11,28.11,0,0,0,343,523.51h0"/><path class="cls-43" d="M432.7,523.51h19.79a53.72,53.72,0,0,0,53.72-53.72h0a53.73,53.73,0,0,1,53.73-53.73h24.77"/><text class="cls-45" transform="translate(833.94 251.25)">Al<tspan class="cls-49" x="11.72" y="0">t</tspan><tspan class="cls-50" x="16.07" y="0">e</tspan><tspan class="cls-49" x="22.64" y="0">r</tspan><tspan class="cls-50" x="27.17" y="0">ed</tspan><tspan class="cls-17" x="0.8" y="14.4">R</tspan><tspan x="8.06" y="14.4">e</tspan><tspan class="cls-6" x="14.64" y="14.4">s</tspan><tspan x="20.06" y="14.4">ul</tspan><tspan class="cls-57" x="30.18" y="14.4">t</tspan><tspan class="cls-58" x="34.68" y="14.4">s</tspan></text><rect class="cls-26" x="825.36" y="237.17" width="58.13" height="35.59" rx="4.21" ry="4.21"/><text class="cls-45" transform="translate(653.77 347.07)">Al<tspan class="cls-49" x="11.72" y="0">t</tspan><tspan class="cls-50" x="16.07" y="0">e</tspan><tspan class="cls-49" x="22.64" y="0">r</tspan><tspan class="cls-50" x="27.17" y="0">ed</tspan><tspan class="cls-17" x="0.8" y="14.4">R</tspan><tspan x="8.06" y="14.4">e</tspan><tspan class="cls-6" x="14.64" y="14.4">s</tspan><tspan x="20.06" y="14.4">ul</tspan><tspan class="cls-57" x="30.18" y="14.4">t</tspan><tspan class="cls-58" x="34.68" y="14.4">s</tspan></text><rect class="cls-26" x="645.19" y="332.99" width="58.13" height="35.59" rx="4.21" ry="4.21"/><path class="cls-51" d="M868.19,486h15.3a11.83,11.83,0,0,0,11.83-11.83V266.8A11.83,11.83,0,0,0,883.49,255h0a11.83,11.83,0,0,1,11.83,11.83V388.49a11.83,11.83,0,0,1-11.83,11.83h-15.3"/><path class="cls-52" d="M875.69,580.19h0a34.44,34.44,0,0,0,34.44-34.44V201.3a34.44,34.44,0,0,1,34.44-34.44h49.91"/><line class="cls-44" x1="994.18" y1="166.88" x2="990.22" y2="170.84"/><line class="cls-44" x1="990.22" y1="162.88" x2="994.18" y2="166.84"/><path class="cls-59" d="M695.51,674.09h27a21.68,21.68,0,0,0,21.67-21.67v-310a21.67,21.67,0,0,1,21.66-21.67h0"/><circle class="cls-59" cx="695.81" cy="674.17" r="2.7"/><path class="cls-51" d="M688,584.84h15.3a13.77,13.77,0,0,0,13.78-13.77V364.56a13.77,13.77,0,0,0-13.78-13.77h0a13.77,13.77,0,0,1,13.78,13.77V483.74a13.78,13.78,0,0,1-13.78,13.77H688"/><path class="cls-43" d="M645.19,351.76h0a12.35,12.35,0,0,0-12.35,12.35v22.55"/><path class="cls-43" d="M825.36,255h0a16,16,0,0,0-16,16v18.8"/><line class="cls-56" x1="544.47" y1="123.66" x2="540.51" y2="119.7"/><line class="cls-56" x1="548.47" y1="119.7" x2="544.51" y2="123.66"/><line class="cls-44" x1="343.39" y1="43.58" x2="339.43" y2="47.53"/><line class="cls-44" x1="339.43" y1="39.57" x2="343.39" y2="43.53"/><line class="cls-44" x1="342.7" y1="523.54" x2="338.74" y2="527.49"/><line class="cls-44" x1="338.74" y1="519.53" x2="342.7" y2="523.49"/><circle class="cls-53" cx="494.16" cy="332.09" r="2.7"/><circle class="cls-59" cx="594.82" cy="261.07" r="2.7"/><circle class="cls-59" cx="286.6" cy="452.69" r="2.7"/><circle class="cls-59" cx="286.6" cy="367.62" r="2.7"/><circle class="cls-59" cx="286.6" cy="280.55" r="2.7"/><circle class="cls-59" cx="125.23" cy="277.52" r="2.7"/><line class="cls-56" x1="584.49" y1="416.09" x2="580.53" y2="420.04"/><line class="cls-56" x1="580.53" y1="412.08" x2="584.49" y2="416.04"/><line class="cls-56" x1="632.82" y1="386.66" x2="628.86" y2="382.7"/><line class="cls-56" x1="636.82" y1="382.7" x2="632.86" y2="386.66"/><line class="cls-56" x1="809.35" y1="289.64" x2="805.39" y2="285.68"/><line class="cls-56" x1="813.35" y1="285.68" x2="809.39" y2="289.64"/><line class="cls-56" x1="994.18" y1="188.68" x2="990.22" y2="192.64"/><line class="cls-56" x1="990.22" y1="184.68" x2="994.18" y2="188.63"/><circle class="cls-53" cx="868.19" cy="400.32" r="2.7"/><circle class="cls-60" cx="432.7" cy="523.49" r="2.7"/><circle class="cls-53" cx="432.95" cy="46.81" r="2.7"/><circle class="cls-53" cx="688.01" cy="584.84" r="2.7"/><circle class="cls-53" cx="688.01" cy="497.51" r="2.7"/><circle class="cls-60" cx="990.05" cy="527.59" r="2.7"/><circle class="cls-53" cx="868.19" cy="486.01" r="2.7"/><circle class="cls-59" cx="875.69" cy="580.19" r="2.7"/><circle class="cls-53" cx="1002.48" cy="440.42" r="2.7"/><rect class="cls-26" x="932.94" y="79.31" width="94.45" height="29.1" rx="4" ry="4"/><text class="cls-48" transform="translate(944.95 97.56)">E<tspan class="cls-30" x="6.83" y="0">v</tspan><tspan class="cls-10" x="12.95" y="0">ent </tspan><tspan class="cls-47" x="33.77" y="0">A</tspan><tspan class="cls-10" x="42.18" y="0">dded</tspan></text><line class="cls-43" x1="1104.73" y1="625.59" x2="1142.45" y2="625.59"/><line class="cls-44" x1="170.16" y1="188.09" x2="166.21" y2="192.05"/><line class="cls-44" x1="166.21" y1="184.08" x2="170.16" y2="188.04"/><line class="cls-60" x1="1104.73" y1="353.59" x2="1142.45" y2="353.59"/><circle class="cls-60" cx="1104.9" cy="625.59" r="2.7"/><circle class="cls-60" cx="1104.73" cy="353.51" r="2.7"/></svg>