<svg id="Layer_1" data-name="Layer 1" xmlns="http://www.w3.org/2000/svg" viewBox="0 0 800 600"><defs><style>.cls-1{fill:#ec407a;}.cls-2{fill:#7e57c2;}.cls-3{fill:#42a5f5;}.cls-4{fill:#66bb6a;}.cls-5{fill:#26c6da;}.cls-6{fill:#ffca28;}.cls-7{font-size:36px;font-family:VoidSemiBold, Void Semibold;font-weight:700;letter-spacing:0.05em;}.cls-12,.cls-15,.cls-8,.cls-9{font-size:24px;font-family:CircularStd-Medium, Circular Std;}.cls-11,.cls-8{letter-spacing:0.05em;}.cls-9{letter-spacing:0.03em;}.cls-10{letter-spacing:0.05em;}.cls-12{letter-spacing:0.03em;}.cls-13{letter-spacing:0.07em;}.cls-14{letter-spacing:0.04em;}.cls-15{letter-spacing:0.05em;}.cls-16{letter-spacing:0.04em;}.cls-17{letter-spacing:0.05em;}</style></defs><title>nso-motif-guidelines</title><path class="cls-1" d="M121,344.92a43.75,43.75,0,0,1,0-87.5,4.23,4.23,0,1,1,0,8.45,35.3,35.3,0,1,0,34.11,44.44,4.23,4.23,0,1,1,8.17,2.19A43.81,43.81,0,0,1,121,344.92Z"/><path class="cls-2" d="M126.54,319.17a4.23,4.23,0,0,1-4.23-4.23V296.05a4.23,4.23,0,0,1,4.23-4.23h32.64a4.23,4.23,0,1,1,0,8.46H130.77v14.66A4.23,4.23,0,0,1,126.54,319.17Z"/><path class="cls-3" d="M222.42,305.39a4.23,4.23,0,1,1,0-8.45,15.65,15.65,0,0,0,0-31.29,4.23,4.23,0,1,1,0-8.45,24.1,24.1,0,1,1,0,48.19Z"/><path class="cls-4" d="M225.37,344.92a4.23,4.23,0,0,1-.47-8.44,15.63,15.63,0,0,0,9.6-25.37,4.23,4.23,0,1,1,6.51-5.4,24.09,24.09,0,0,1-15,39.16A4.44,4.44,0,0,1,225.37,344.92Z"/><path class="cls-3" d="M191.71,344.91a4.24,4.24,0,0,1-4.23-4.23v-79a4.23,4.23,0,0,1,4.21-4.23l32-.17h0a4.23,4.23,0,0,1,0,8.46l-27.76.15v74.83A4.23,4.23,0,0,1,191.71,344.91Z"/><path class="cls-4" d="M225.37,344.91H206a4.23,4.23,0,1,1,0-8.46h19.37a4.23,4.23,0,0,1,0,8.46Z"/><path class="cls-5" d="M304,343a4.33,4.33,0,0,1-1-.14,43.09,43.09,0,1,1,36.32-76.39,4.23,4.23,0,0,1-5.05,6.79,34.24,34.24,0,0,0-20.59-6.78,34.64,34.64,0,0,0-8.58,68.19A4.23,4.23,0,0,1,304,343Z"/><path class="cls-6" d="M316.35,344.06a4.23,4.23,0,0,1-.28-8.45,34.72,34.72,0,0,0,32.23-34.55,34.15,34.15,0,0,0-4-16.13,4.23,4.23,0,0,1,7.48-3.94,42.46,42.46,0,0,1,5,20.07,43.21,43.21,0,0,1-40.12,43Z"/><path class="cls-1" d="M121,185.72a43.75,43.75,0,0,1,0-87.5,4.24,4.24,0,0,1,3.36,1.65l38.19,49.76a4.24,4.24,0,0,1,.73,3.67A43.81,43.81,0,0,1,121,185.72Zm-2-79a35.29,35.29,0,1,0,35.57,46.33Z"/><path class="cls-2" d="M126.54,160a4.23,4.23,0,0,1-4.23-4.23v-18.9a4.22,4.22,0,0,1,4.23-4.22h32.64a4.23,4.23,0,1,1,0,8.45H130.77v14.67A4.24,4.24,0,0,1,126.54,160Z"/><path class="cls-3" d="M191.71,185.71a4.06,4.06,0,0,1-1.37-.23,4.23,4.23,0,0,1-2.86-4v-79a4.24,4.24,0,0,1,4.21-4.23l30.05-.15a3.82,3.82,0,0,1,.68-.06,24.1,24.1,0,0,1,2.15,48.1l-29.52,38A4.23,4.23,0,0,1,191.71,185.71Zm4.23-79.06v62.5l23.14-29.78a4.25,4.25,0,0,1,3.34-1.63,15.64,15.64,0,0,0,1.21-31.24Z"/><path class="cls-4" d="M225.37,185.72a4.23,4.23,0,0,1-.47-8.44,15.63,15.63,0,0,0,9.6-25.37,4.23,4.23,0,1,1,6.51-5.4,24.09,24.09,0,0,1-15,39.16A3.31,3.31,0,0,1,225.37,185.72Z"/><path class="cls-4" d="M225.37,185.71H206a4.23,4.23,0,1,1,0-8.46h19.37a4.23,4.23,0,0,1,0,8.46Z"/><path class="cls-5" d="M304,183.75a4.19,4.19,0,0,1-1-.13,43.1,43.1,0,1,1,36.32-76.4,4.24,4.24,0,0,1,1.3,5.21l-32.75,68.91A4.23,4.23,0,0,1,304,183.75Zm9.63-76.52a34.64,34.64,0,0,0-11.88,67.18l29.61-62.31A34.26,34.26,0,0,0,313.66,107.23Z"/><path class="cls-6" d="M316.35,184.86a4.23,4.23,0,0,1-.28-8.45,34.7,34.7,0,0,0,32.23-34.54,34.1,34.1,0,0,0-4-16.13,4.23,4.23,0,1,1,7.48-3.95,42.5,42.5,0,0,1,5,20.08,43.19,43.19,0,0,1-40.12,43Z"/><path class="cls-1" d="M113.71,419.07a39.53,39.53,0,1,0,41.71,54.28,8.5,8.5,0,0,0-1.09-8.43l-32.72-42.63A8.53,8.53,0,0,0,113.71,419.07Z"/><path class="cls-2" d="M124.42,476.26a4.24,4.24,0,0,1-4.23-4.23V453.14a4.23,4.23,0,0,1,4.23-4.23h32.65a4.23,4.23,0,1,1,0,8.46H128.65V472A4.23,4.23,0,0,1,124.42,476.26Z"/><path class="cls-3" d="M221.57,418.56l-28.81.15a3.18,3.18,0,0,0-3.16,3.18v66.6a3.18,3.18,0,0,0,5.69,1.95l24.11-31a3.3,3.3,0,0,1,2.39-1.22,19.87,19.87,0,0,0-1.48-39.69"/><path class="cls-4" d="M223.25,502a4.24,4.24,0,0,1-4.24-4.23,4.2,4.2,0,0,1,3.77-4.2,15.63,15.63,0,0,0,9.6-25.38,4.23,4.23,0,1,1,6.51-5.4,24.09,24.09,0,0,1-15,39.16A3.18,3.18,0,0,1,223.25,502Z"/><path class="cls-4" d="M223.26,502H203.85a4.23,4.23,0,1,1,0-8.46h19.37a4.23,4.23,0,0,1,0,8.46Z"/><path class="cls-5" d="M298.29,494.68c-20.08-7.3-32.45-30.7-21.51-54.55A34.54,34.54,0,0,1,294.4,423c13.53-5.86,26.87-4.32,37.12,1.84a4.28,4.28,0,0,1,1.58,5.38l-29.62,62.33A4.17,4.17,0,0,1,298.29,494.68Z"/><path class="cls-6" d="M314.23,501.14a4.23,4.23,0,0,1-.28-8.45,34.7,34.7,0,0,0,32.23-34.54,34.2,34.2,0,0,0-4-16.13,4.23,4.23,0,0,1,7.48-3.95,43.09,43.09,0,0,1-35.16,63.06Z"/><text class="cls-7" transform="translate(460.59 163.65)">Motif Guide Lines</text><text class="cls-8" transform="translate(567.4 229.65)">Lines</text><text class="cls-9" transform="translate(545.98 306.32)">R<tspan class="cls-10" x="15.72" y="0">o</tspan><tspan class="cls-11" x="30.74" y="0">unded</tspan></text><text class="cls-12" transform="translate(555.12 382.99)">C<tspan class="cls-11" x="18.91" y="0">u</tspan><tspan class="cls-13" x="33.96" y="0">r</tspan><tspan class="cls-14" x="44.69" y="0">v</tspan><tspan class="cls-11" x="58.13" y="0">ed</tspan></text><text class="cls-15" transform="translate(525.07 459.65)">Open <tspan class="cls-16" x="72.69" y="0">E</tspan><tspan class="cls-17" x="87.62" y="0">nded</tspan></text><path d="M464.91,285.19a1.82,1.82,0,0,0,0-.32,1.93,1.93,0,0,1,0-.24Z"/></svg>