<?xml version="1.0" encoding="utf-8"?>
<!-- Generator: Adobe Illustrator 22.1.0, SVG Export Plug-In . SVG Version: 6.00 Build 0)  -->
<svg version="1.1" id="Layer_1" xmlns="http://www.w3.org/2000/svg" xmlns:xlink="http://www.w3.org/1999/xlink" x="0px" y="0px"
	 viewBox="0 0 600 356" style="enable-background:new 0 0 600 356;" xml:space="preserve">
<style type="text/css">
	.st0{fill:#E30000;}
	.st1{fill:#FFFFFF;}
	.st2{fill:#F7F7F7;}
	.st3{fill:#0075FF;}
	.st4{fill:#444444;}
	.st5{fill:#6EBEFF;}
	.st6{fill:#C6C6C6;}
	.st7{fill:#04B100;}
	.st8{fill:#C1C1C1;}
	.st9{fill:#B5B5B5;}
	.st10{fill:#777777;}
	.st11{fill:none;stroke:#0075FF;stroke-miterlimit:10;}
	.st12{fill:none;stroke:#B3D9FF;stroke-miterlimit:10;}
	.st13{fill:#141414;stroke:#141414;stroke-miterlimit:10;}
	.st14{fill:none;stroke:#B3D9FF;stroke-linejoin:round;stroke-miterlimit:10;}
</style>
<rect y="-0.1" class="st0" width="600" height="356.2"/>
<title>nso-splash</title>
<g>
	<rect x="-606.9" y="74" class="st1" width="96" height="208"/>
	<path class="st2" d="M-522.8,177.4h-72.5c-3.6,0-6.5-2.9-6.5-6.5v-54.6c0-3.6,2.9-6.5,6.5-6.5h72.5c3.6,0,6.5,2.9,6.5,6.5v54.6
		C-516.3,174.5-519.2,177.4-522.8,177.4z"/>
	<path class="st2" d="M-523.1,273.8h-72.5c-3.6,0-6.5-2.9-6.5-6.5v-78c0-3.6,2.9-6.5,6.5-6.5h72.5c3.6,0,6.5,2.9,6.5,6.5v78
		C-516.6,270.9-519.5,273.8-523.1,273.8z"/>
	<g>
		<circle class="st3" cx="-522.1" cy="96.3" r="5.7"/>
		<path class="st4" d="M-542.6,102h-56.5c-1.2,0-2.2-1-2.2-2.2v-6.9c0-1.2,1-2.2,2.2-2.2h56.5c1.2,0,2.2,1,2.2,2.2v6.9
			C-540.4,101-541.4,102-542.6,102z"/>
	</g>
	<circle class="st5" cx="-589.8" cy="121.5" r="5.4"/>
	<circle class="st6" cx="-527.5" cy="121.5" r="5.4"/>
	<circle class="st7" cx="-590" cy="165.3" r="5.4"/>
	<circle class="st0" cx="-577.2" cy="165.3" r="5.4"/>
	<g>
		<path class="st4" d="M-542.7,123.1h-38.1c-0.6,0-1.2-0.5-1.2-1.2v-3.9c0-0.6,0.5-1.2,1.2-1.2h38.1c0.6,0,1.2,0.5,1.2,1.2v3.9
			C-541.6,122.6-542.1,123.1-542.7,123.1z"/>
		<path class="st8" d="M-560.2,127h-20.6c-0.6,0-1.2-0.5-1.2-1.2l0,0c0-0.6,0.5-1.2,1.2-1.2h20.6c0.6,0,1.2,0.5,1.2,1.2l0,0
			C-559.1,126.5-559.6,127-560.2,127z"/>
	</g>
	<path class="st4" d="M-555.8,141.1H-594c-0.6,0-1.2-0.5-1.2-1.2v-3.9c0-0.6,0.5-1.2,1.2-1.2h38.1c0.6,0,1.2,0.5,1.2,1.2v3.9
		C-554.7,140.6-555.2,141.1-555.8,141.1z"/>
	<path class="st9" d="M-525.3,147H-594c-0.6,0-1.2-0.5-1.2-1.2l0,0c0-0.6,0.5-1.2,1.2-1.2h68.7c0.6,0,1.2,0.5,1.2,1.2l0,0
		C-524.1,146.5-524.6,147-525.3,147z"/>
	<path class="st9" d="M-562.8,211.4H-594c-0.6,0-1.2-0.5-1.2-1.2l0,0c0-0.6,0.5-1.2,1.2-1.2h31.2c0.6,0,1.2,0.5,1.2,1.2l0,0
		C-561.6,210.9-562.2,211.4-562.8,211.4z"/>
	<path class="st9" d="M-531.9,150.7H-594c-0.6,0-1.2-0.5-1.2-1.2l0,0c0-0.6,0.5-1.2,1.2-1.2h62.1c0.6,0,1.2,0.5,1.2,1.2l0,0
		C-530.7,150.2-531.3,150.7-531.9,150.7z"/>
	<path class="st9" d="M-554.2,154.4H-594c-0.6,0-1.2-0.5-1.2-1.2l0,0c0-0.6,0.5-1.2,1.2-1.2h39.8c0.6,0,1.2,0.5,1.2,1.2l0,0
		C-553,153.9-553.5,154.4-554.2,154.4z"/>
	<path class="st3" d="M-529,170.6h-32.7c-3,0-5.4-2.4-5.4-5.4v0c0-3,2.4-5.4,5.4-5.4h32.7c3,0,5.4,2.4,5.4,5.4v0
		C-523.6,168.2-526.1,170.6-529,170.6z"/>
	<circle class="st6" cx="-527.6" cy="194.7" r="5.4"/>
	<g>
		<path class="st4" d="M-556.2,196.3h-38.1c-0.6,0-1.2-0.5-1.2-1.2v-3.9c0-0.6,0.5-1.2,1.2-1.2h38.1c0.6,0,1.2,0.5,1.2,1.2v3.9
			C-555,195.8-555.5,196.3-556.2,196.3z"/>
		<path class="st8" d="M-573.7,200.3h-20.6c-0.6,0-1.2-0.5-1.2-1.2l0,0c0-0.6,0.5-1.2,1.2-1.2h20.6c0.6,0,1.2,0.5,1.2,1.2l0,0
			C-572.5,199.7-573.1,200.3-573.7,200.3z"/>
	</g>
	<circle class="st5" cx="-589.9" cy="219.8" r="5.4"/>
	<g>
		<path class="st4" d="M-542.8,221.4h-38.1c-0.6,0-1.2-0.5-1.2-1.2v-3.9c0-0.6,0.5-1.2,1.2-1.2h38.1c0.6,0,1.2,0.5,1.2,1.2v3.9
			C-541.6,220.9-542.2,221.4-542.8,221.4z"/>
		<path class="st8" d="M-560.3,225.3h-20.6c-0.6,0-1.2-0.5-1.2-1.2l0,0c0-0.6,0.5-1.2,1.2-1.2h20.6c0.6,0,1.2,0.5,1.2,1.2l0,0
			C-559.2,224.8-559.7,225.3-560.3,225.3z"/>
	</g>
	<path class="st10" d="M-524,222.6h-2.3c-0.9,0-1.6-0.7-1.6-1.6v-2.3c0-0.9,0.7-1.6,1.6-1.6h2.3c0.9,0,1.6,0.7,1.6,1.6v2.3
		C-522.4,221.9-523.1,222.6-524,222.6z"/>
	<circle class="st5" cx="-589.9" cy="237.1" r="5.4"/>
	<g>
		<path class="st4" d="M-542.8,238.7h-38.1c-0.6,0-1.2-0.5-1.2-1.2v-3.9c0-0.6,0.5-1.2,1.2-1.2h38.1c0.6,0,1.2,0.5,1.2,1.2v3.9
			C-541.6,238.2-542.2,238.7-542.8,238.7z"/>
		<path class="st8" d="M-560.3,242.7h-20.6c-0.6,0-1.2-0.5-1.2-1.2v0c0-0.6,0.5-1.2,1.2-1.2h20.6c0.6,0,1.2,0.5,1.2,1.2v0
			C-559.2,242.1-559.7,242.7-560.3,242.7z"/>
	</g>
	<path class="st10" d="M-524,239.9h-2.3c-0.9,0-1.6-0.7-1.6-1.6V236c0-0.9,0.7-1.6,1.6-1.6h2.3c0.9,0,1.6,0.7,1.6,1.6v2.3
		C-522.4,239.2-523.1,239.9-524,239.9z"/>
	<circle class="st5" cx="-589.9" cy="254.1" r="5.4"/>
	<g>
		<path class="st4" d="M-542.8,255.8h-38.1c-0.6,0-1.2-0.5-1.2-1.2v-3.9c0-0.6,0.5-1.2,1.2-1.2h38.1c0.6,0,1.2,0.5,1.2,1.2v3.9
			C-541.6,255.2-542.2,255.8-542.8,255.8z"/>
		<path class="st8" d="M-560.3,259.7h-20.6c-0.6,0-1.2-0.5-1.2-1.2l0,0c0-0.6,0.5-1.2,1.2-1.2h20.6c0.6,0,1.2,0.5,1.2,1.2l0,0
			C-559.2,259.2-559.7,259.7-560.3,259.7z"/>
	</g>
	<path class="st10" d="M-524,256.9h-2.3c-0.9,0-1.6-0.7-1.6-1.6V253c0-0.9,0.7-1.6,1.6-1.6h2.3c0.9,0,1.6,0.7,1.6,1.6v2.3
		C-522.4,256.2-523.1,256.9-524,256.9z"/>
	<rect x="-606.9" y="258.5" class="st1" width="96" height="23.5"/>
	<path class="st11" d="M-592.1,268.6h-4.1c-0.6,0-1-0.5-1-1v-4.1c0-0.6,0.5-1,1-1h4.1c0.6,0,1,0.5,1,1v4.1
		C-591.1,268.1-591.5,268.6-592.1,268.6z"/>
	<path class="st12" d="M-522.8,268.6h-2c-0.6,0-1-0.5-1-1v-4.1c0-0.6,0.5-1,1-1h2c0.6,0,1,0.5,1,1v4.1
		C-521.8,268.1-522.3,268.6-522.8,268.6z"/>
	<circle class="st12" cx="-547.3" cy="265.4" r="2.9"/>
	<circle class="st12" cx="-570.7" cy="265.4" r="2.9"/>
</g>
<path class="st13" d="M-521.2,67.3H-597c-9.1,0-16.5,7.4-16.5,16.5v187.1c0,9.1,7.4,16.5,16.5,16.5h75.9c9.1,0,16.5-7.4,16.5-16.5
	V83.8C-504.7,74.7-512.1,67.3-521.2,67.3z M-510.7,269.9c0,6.3-5.1,11.5-11.5,11.5H-596c-6.3,0-11.5-5.1-11.5-11.5V85.3
	c0-6.3,5.1-11.5,11.5-11.5h10.3v1.5c0,3.5,2.9,6.4,6.4,6.4h40.5c3.5,0,6.4-2.9,6.4-6.4v-1.5h10.3c6.3,0,11.5,5.1,11.5,11.5V269.9z"
	/>
<g>
	<g>
		<rect x="81.1" y="50" class="st1" width="114.5" height="245.9"/>
		<path class="st2" d="M182.7,172.3h-89c-3.6,0-6.5-2.9-6.5-6.5v-67c0-3.6,2.9-6.5,6.5-6.5h89c3.6,0,6.5,2.9,6.5,6.5v67
			C189.2,169.4,186.3,172.3,182.7,172.3z"/>
		<path class="st2" d="M182.3,286.3h-89c-3.6,0-6.5-2.9-6.5-6.5v-94.6c0-3.6,2.9-6.5,6.5-6.5h89c3.6,0,6.5,2.9,6.5,6.5v94.6
			C188.8,283.4,185.9,286.3,182.3,286.3z"/>
		<g>
			<ellipse class="st3" cx="182.3" cy="76.4" rx="6.8" ry="6.7"/>
			<path class="st4" d="M158.2,83.2H89.9c-1.2,0-2.2-1-2.2-2.2v-9c0-1.2,1-2.2,2.2-2.2h68.3c1.2,0,2.2,1,2.2,2.2v9
				C160.4,82.2,159.4,83.2,158.2,83.2z"/>
		</g>
		<ellipse class="st5" cx="101.5" cy="106.1" rx="6.5" ry="6.4"/>
		<ellipse class="st6" cx="175.8" cy="106.1" rx="6.5" ry="6.4"/>
		<ellipse class="st7" cx="101.3" cy="157.9" rx="6.5" ry="6.4"/>
		<ellipse class="st0" cx="116.5" cy="157.9" rx="6.5" ry="6.4"/>
		<g>
			<path class="st4" d="M157.9,108.1h-46c-0.6,0-1.2-0.5-1.2-1.2v-5c0-0.6,0.5-1.2,1.2-1.2h46c0.6,0,1.2,0.5,1.2,1.2v5
				C159.1,107.6,158.6,108.1,157.9,108.1z"/>
			<path class="st8" d="M137,112.7h-25c-0.6,0-1.2-0.5-1.2-1.2v-0.4c0-0.6,0.5-1.2,1.2-1.2h25c0.6,0,1.2,0.5,1.2,1.2v0.4
				C138.2,112.2,137.7,112.7,137,112.7z"/>
		</g>
		<path class="st4" d="M142.3,129.3h-46c-0.6,0-1.2-0.5-1.2-1.2v-5c0-0.6,0.5-1.2,1.2-1.2h46c0.6,0,1.2,0.5,1.2,1.2v5
			C143.4,128.8,142.9,129.3,142.3,129.3z"/>
		<path class="st9" d="M178.7,136.3H96.3c-0.6,0-1.2-0.5-1.2-1.2v-0.4c0-0.6,0.5-1.2,1.2-1.2h82.4c0.6,0,1.2,0.5,1.2,1.2v0.4
			C179.9,135.8,179.3,136.3,178.7,136.3z"/>
		<path class="st9" d="M133.9,212.5H96.3c-0.6,0-1.2-0.5-1.2-1.2v-0.4c0-0.6,0.5-1.2,1.2-1.2h37.6c0.6,0,1.2,0.5,1.2,1.2v0.4
			C135.1,212,134.6,212.5,133.9,212.5z"/>
		<path class="st9" d="M170.8,140.7H96.3c-0.6,0-1.2-0.5-1.2-1.2v-0.4c0-0.6,0.5-1.2,1.2-1.2h74.5c0.6,0,1.2,0.5,1.2,1.2v0.4
			C172,140.2,171.5,140.7,170.8,140.7z"/>
		<path class="st9" d="M144.2,145.1H96.3c-0.6,0-1.2-0.5-1.2-1.2v-0.4c0-0.6,0.5-1.2,1.2-1.2h47.9c0.6,0,1.2,0.5,1.2,1.2v0.4
			C145.4,144.6,144.9,145.1,144.2,145.1z"/>
		<path class="st3" d="M175,164.2h-41.1c-3,0-5.4-2.4-5.4-5.4v-2c0-3,2.4-5.4,5.4-5.4H175c3,0,5.4,2.4,5.4,5.4v2
			C180.5,161.8,178,164.2,175,164.2z"/>
		<ellipse class="st6" cx="175.7" cy="192.7" rx="6.5" ry="6.4"/>
		<g>
			<path class="st4" d="M141.8,194.7h-46c-0.6,0-1.2-0.5-1.2-1.2v-5c0-0.6,0.5-1.2,1.2-1.2h46c0.6,0,1.2,0.5,1.2,1.2v5
				C143,194.1,142.5,194.7,141.8,194.7z"/>
			<path class="st8" d="M120.9,199.3h-25c-0.6,0-1.2-0.5-1.2-1.2v-0.4c0-0.6,0.5-1.2,1.2-1.2h25c0.6,0,1.2,0.5,1.2,1.2v0.4
				C122.1,198.8,121.6,199.3,120.9,199.3z"/>
		</g>
		<ellipse class="st5" cx="101.4" cy="222.4" rx="6.5" ry="6.4"/>
		<g>
			<path class="st4" d="M157.8,224.3h-46c-0.6,0-1.2-0.5-1.2-1.2v-5c0-0.6,0.5-1.2,1.2-1.2h46c0.6,0,1.2,0.5,1.2,1.2v5
				C159,223.8,158.5,224.3,157.8,224.3z"/>
			<path class="st8" d="M136.9,228.9h-25c-0.6,0-1.2-0.5-1.2-1.2v-0.4c0-0.6,0.5-1.2,1.2-1.2h25c0.6,0,1.2,0.5,1.2,1.2v0.4
				C138.1,228.4,137.6,228.9,136.9,228.9z"/>
		</g>
		<path class="st10" d="M180.3,225.6H177c-0.9,0-1.6-0.7-1.6-1.6v-3.3c0-0.9,0.7-1.6,1.6-1.6h3.4c0.9,0,1.6,0.7,1.6,1.6v3.3
			C181.9,224.9,181.2,225.6,180.3,225.6z"/>
		<ellipse class="st5" cx="101.4" cy="242.9" rx="6.5" ry="6.4"/>
		<g>
			<path class="st4" d="M157.8,244.8h-46c-0.6,0-1.2-0.5-1.2-1.2v-5c0-0.6,0.5-1.2,1.2-1.2h46c0.6,0,1.2,0.5,1.2,1.2v5
				C159,244.3,158.5,244.8,157.8,244.8z"/>
			<path class="st8" d="M136.9,249.4h-25c-0.6,0-1.2-0.5-1.2-1.2v-0.4c0-0.6,0.5-1.2,1.2-1.2h25c0.6,0,1.2,0.5,1.2,1.2v0.4
				C138.1,248.9,137.6,249.4,136.9,249.4z"/>
		</g>
		<path class="st10" d="M180.3,246.1H177c-0.9,0-1.6-0.7-1.6-1.6v-3.3c0-0.9,0.7-1.6,1.6-1.6h3.4c0.9,0,1.6,0.7,1.6,1.6v3.3
			C181.9,245.5,181.2,246.1,180.3,246.1z"/>
		<ellipse class="st5" cx="101.4" cy="263" rx="6.5" ry="6.4"/>
		<g>
			<path class="st4" d="M157.8,264.9h-46c-0.6,0-1.2-0.5-1.2-1.2v-5c0-0.6,0.5-1.2,1.2-1.2h46c0.6,0,1.2,0.5,1.2,1.2v5
				C159,264.4,158.5,264.9,157.8,264.9z"/>
			<path class="st8" d="M136.9,269.5h-25c-0.6,0-1.2-0.5-1.2-1.2V268c0-0.6,0.5-1.2,1.2-1.2h25c0.6,0,1.2,0.5,1.2,1.2v0.4
				C138.1,269,137.6,269.5,136.9,269.5z"/>
		</g>
		<path class="st10" d="M180.3,266.3H177c-0.9,0-1.6-0.7-1.6-1.6v-3.3c0-0.9,0.7-1.6,1.6-1.6h3.4c0.9,0,1.6,0.7,1.6,1.6v3.3
			C181.9,265.6,181.2,266.3,180.3,266.3z"/>
		<rect x="81.1" y="268.2" class="st1" width="114.5" height="27.8"/>
		<path class="st11" d="M99,280h-5.3c-0.6,0-1-0.5-1-1v-5.3c0-0.6,0.5-1,1-1H99c0.6,0,1,0.5,1,1v5.3C100,279.6,99.5,280,99,280z"/>
		<path class="st12" d="M181.6,280h-2.8c-0.6,0-1-0.5-1-1v-5.3c0-0.6,0.5-1,1-1h2.8c0.6,0,1,0.5,1,1v5.3
			C182.6,279.6,182.2,280,181.6,280z"/>
		<ellipse class="st12" cx="152.2" cy="276.4" rx="3.5" ry="3.5"/>
	</g>
	<path class="st13" d="M183.4,42.1H93.7c-10.8,0-19.5,8.7-19.5,19.5v221.2c0,10.8,8.7,19.5,19.5,19.5h89.7
		c10.8,0,19.5-8.7,19.5-19.5V61.6C202.9,50.8,194.2,42.1,183.4,42.1z M195.8,281.6c0,7.5-6.1,13.6-13.6,13.6H94.9
		c-7.5,0-13.6-6.1-13.6-13.6V63.4c0-7.5,6.1-13.6,13.6-13.6H107v1.7c0,4.2,3.4,7.6,7.6,7.6h47.8c4.2,0,7.6-3.4,7.6-7.6v-1.7h12.2
		c7.5,0,13.6,6.1,13.6,13.6V281.6z"/>
</g>
<polygon class="st14" points="124.4,272.7 120.3,279.3 127.7,279.5 "/>
</svg>
