<svg id="Layer_1" data-name="Layer 1" xmlns="http://www.w3.org/2000/svg" viewBox="0 0 1920 953"><defs><style>.cls-1{fill:#fff;}.cls-2,.cls-3,.cls-4,.cls-5,.cls-6,.cls-7,.cls-8,.cls-9{fill:none;stroke-miterlimit:10;stroke-width:6px;}.cls-2,.cls-6{stroke:#3d6cb9;}.cls-3,.cls-7{stroke:#4fbe5c;}.cls-4,.cls-8{stroke:#ffd21f;}.cls-5,.cls-9{stroke:#edc0b1;}.cls-6,.cls-7,.cls-8,.cls-9{stroke-linecap:round;}</style></defs><title>Splash Image</title><rect class="cls-1" width="1920" height="953"/><rect class="cls-2" x="42.74" y="44.99" width="9.41" height="9.41" transform="translate(19.18 -12.93) rotate(19.38)"/><rect class="cls-3" x="352.8" y="117.93" width="14.88" height="14.88" transform="translate(-20.96 138.69) rotate(-21.19)"/><rect class="cls-4" x="351.2" y="348.38" width="18.08" height="18.08" transform="translate(-123.1 202.8) rotate(-27.04)"/><rect class="cls-3" x="1456.35" y="891.21" width="14.14" height="14.14" transform="translate(381.09 -434.78) rotate(19.38)"/><rect class="cls-5" x="118.14" y="408.72" width="11.15" height="11.15" transform="translate(177.06 -14.77) rotate(23.71)"/><rect class="cls-5" x="927.18" y="90.21" width="17.31" height="17.31" transform="translate(54.31 -230.48) rotate(14.46)"/><rect class="cls-2" x="279.48" y="687.51" width="16.46" height="16.46" transform="translate(-123.25 64.91) rotate(-10.62)"/><rect class="cls-2" x="1336.58" y="37.12" width="12.98" height="12.98" transform="translate(-0.16 81.85) rotate(-3.49)"/><rect class="cls-5" x="1630.9" y="134.89" width="18.09" height="18.09" transform="translate(582.11 -1117.46) rotate(45)"/><rect class="cls-4" x="1889.64" y="141.57" width="18.36" height="18.36" transform="translate(3699.82 770.93) rotate(-165.54)"/><rect class="cls-5" x="1728.03" y="509.51" width="12.36" height="12.36" transform="translate(3284.67 1448.14) rotate(-165.54)"/><circle class="cls-5" cx="453.04" cy="257.87" r="5.94"/><circle class="cls-2" cx="1354.42" cy="229.66" r="9.79"/><circle class="cls-5" cx="1790.79" cy="350.77" r="9.8"/><circle class="cls-6" cx="1865.75" cy="793.9" r="8.49"/><circle class="cls-4" cx="1575.43" cy="25.84" r="9.99"/><circle class="cls-2" cx="800.99" cy="32.32" r="8.28"/><circle class="cls-3" cx="224.06" cy="556.03" r="9.41"/><path class="cls-7" d="M50.38,292.69c-2.52-2.51-.24-4.79-2.75-7.3s-4.8-.24-7.32-2.76-.24-4.8-2.76-7.32-4.79-.24-7.31-2.75"/><path class="cls-7" d="M729.11,117.52c-3.51-.57-2.79-5-6.3-5.59s-4.23,3.87-7.75,3.29-2.79-5-6.3-5.58-4.24,3.86-7.76,3.28"/><path class="cls-3" d="M1879,597.87c-3.45-.89-2.35-5.16-5.79-6s-4.55,3.38-8,2.49-2.34-5.16-5.79-6-4.55,3.39-8,2.5"/><path class="cls-8" d="M113.82,674.24c-2.92-2-.79-5.11-3.72-7.13s-5.06,1.06-8-1-.8-5.11-3.73-7.13-5.06,1.06-8-1"/><path class="cls-7" d="M1489.86,110.53c-3.37,1.13-4.74-3-8.12-1.84s-2,5.23-5.37,6.36-4.75-3-8.13-1.83-2,5.22-5.38,6.36"/><path class="cls-6" d="M1748.4,227.19c-3.38,1.13-4.75-3-8.12-1.84s-2,5.23-5.38,6.36-4.75-3-8.13-1.83-2,5.22-5.38,6.36"/><path class="cls-5" d="M1892.58,6.69c3.42,5.93-3.16,9.73.27,15.66s10,2.13,13.42,8.06-3.15,9.74.28,15.67,10,2.14,13.43,8.07"/><polygon class="cls-5" points="258.86 29.12 260.54 50.27 278.02 38.25 258.86 29.12"/><polygon class="cls-2" points="240.47 266.32 232.94 287.73 255.24 283.55 240.47 266.32"/><polygon class="cls-3" points="161.43 824.06 148.71 838.89 167.91 842.5 161.43 824.06"/><polygon class="cls-4" points="573 149.76 565.7 173.37 589.79 167.89 573 149.76"/><polygon class="cls-4" points="1512.43 299.39 1536.77 305.67 1530.04 281.45 1512.43 299.39"/><polygon class="cls-4" points="1656.68 732.79 1671.11 734.16 1665.08 720.99 1656.68 732.79"/><polygon class="cls-5" points="1251.64 107.69 1233.68 110.83 1245.38 124.8 1251.64 107.69"/><line class="cls-8" x1="152.19" y1="170.74" x2="139.28" y2="183.66"/><line class="cls-8" x1="152.19" y1="183.66" x2="139.28" y2="170.74"/><line class="cls-6" x1="499.4" y1="62.04" x2="476.61" y2="72.34"/><line class="cls-6" x1="493.16" y1="78.59" x2="482.86" y2="55.8"/><line class="cls-8" x1="1073.34" y1="35.77" x2="1062.11" y2="52.4"/><line class="cls-8" x1="1076.04" y1="49.7" x2="1059.41" y2="38.47"/><line class="cls-7" x1="1766.18" y1="68.46" x2="1763.04" y2="86.42"/><line class="cls-7" x1="1773.59" y1="79.01" x2="1755.64" y2="75.87"/><line class="cls-6" x1="1611.5" y1="412.28" x2="1621.23" y2="427.69"/><line class="cls-6" x1="1624.07" y1="415.12" x2="1608.66" y2="424.85"/><line class="cls-9" x1="358.37" y1="913.59" x2="368.1" y2="929"/><line class="cls-9" x1="370.94" y1="916.43" x2="355.53" y2="926.16"/></svg>