<svg id="Layer_1" data-name="Layer 1" xmlns="http://www.w3.org/2000/svg" xmlns:xlink="http://www.w3.org/1999/xlink" viewBox="0 0 800 400"><defs><style>.cls-1{fill:#3d95ce;}.cls-2{fill:#081319;}.cls-3{fill:#173a49;}.cls-4{fill:#fff;}.cls-29,.cls-36,.cls-5{font-size:12px;fill:#32789e;font-family:CircularStd-Bold, Circular Std;font-weight:700;}.cls-6{letter-spacing:0.01em;}.cls-7{letter-spacing:0.01em;}.cls-8{letter-spacing:0.01em;}.cls-9{letter-spacing:0em;}.cls-10{letter-spacing:0.01em;}.cls-11{letter-spacing:0.01em;}.cls-12,.cls-29{letter-spacing:0.01em;}.cls-13{letter-spacing:0em;}.cls-14{letter-spacing:0.01em;}.cls-15{opacity:0.25;}.cls-16{font-size:9px;font-family:CircularStd-Book, Circular Std;}.cls-17{letter-spacing:0em;}.cls-18{letter-spacing:-0.01em;}.cls-19{letter-spacing:0em;}.cls-20{letter-spacing:-0.06em;}.cls-21{letter-spacing:0.01em;}.cls-22{letter-spacing:-0.02em;}.cls-23{letter-spacing:0.01em;}.cls-24{letter-spacing:0.02em;}.cls-25{letter-spacing:-0.01em;}.cls-26{letter-spacing:0em;}.cls-27{letter-spacing:-0.02em;}.cls-28{letter-spacing:0em;}.cls-30{letter-spacing:0em;}.cls-31{letter-spacing:0.01em;}.cls-32{letter-spacing:-0.01em;}.cls-33{letter-spacing:-0.05em;}.cls-34{letter-spacing:0.01em;}.cls-35{letter-spacing:-0.06em;}.cls-36{letter-spacing:0em;}.cls-37{letter-spacing:0.01em;}.cls-38{letter-spacing:-0.02em;}.cls-39{letter-spacing:-0.03em;}.cls-40{letter-spacing:-0.02em;}.cls-41{fill:none;stroke:#173a49;stroke-linecap:round;stroke-miterlimit:10;stroke-width:3px;}</style></defs><title>venmo_og_dashboard</title><rect class="cls-1" width="800" height="400"/><rect class="cls-2" x="111.9" y="19" width="208" height="362"/><image width="1242" height="2208" transform="translate(115.9 22) scale(0.16)" xlink:href="../../../../Downloads/IMG_95B73D5D83CC-1.jpeg"/><circle class="cls-3" cx="299.9" cy="39" r="4"/><circle class="cls-3" cx="215.9" cy="43" r="4"/><circle class="cls-3" cx="226.9" cy="315.11" r="4"/><rect class="cls-4" x="438.1" y="31.92" width="252" height="121.53"/><text class="cls-5" transform="translate(457.5 53.87)"><tspan class="cls-6">O</tspan><tspan class="cls-7" x="9.77" y="0">b</tspan><tspan class="cls-8" x="17.23" y="0">s</tspan><tspan class="cls-9" x="22.86" y="0">c</tspan><tspan class="cls-10" x="29.48" y="0">u</tspan><tspan class="cls-11" x="36.64" y="0">r</tspan><tspan class="cls-12" x="41.42" y="0">e </tspan><tspan class="cls-13" x="51.26" y="0">C</tspan><tspan class="cls-12" x="60.38" y="0">all </tspan><tspan class="cls-8" x="76.9" y="0">t</tspan><tspan class="cls-12" x="81.47" y="0">o </tspan><tspan x="91.68" y="0">A</tspan><tspan class="cls-12" x="100.34" y="0">c</tspan><tspan class="cls-14" x="107.06" y="0">t</tspan><tspan class="cls-12" x="111.69" y="0">ion </tspan><tspan class="cls-9" x="132.45" y="0">B</tspan><tspan class="cls-12" x="139.8" y="0">ut</tspan><tspan class="cls-11" x="151.55" y="0">t</tspan><tspan class="cls-12" x="156.12" y="0">on</tspan></text><g class="cls-15"><rect class="cls-1" x="552.7" y="102.97" width="60.51" height="8.81"/></g><g class="cls-15"><rect class="cls-1" x="457.5" y="115.49" width="65.62" height="9.13"/></g><g class="cls-15"><rect class="cls-1" x="544.91" y="115.09" width="86.27" height="9.13"/></g><text class="cls-16" transform="translate(458.75 70.54)"><tspan class="cls-17">The </tspan><tspan x="17.69" y="0">c</tspan><tspan class="cls-17" x="22.46" y="0">ur</tspan><tspan x="30.95" y="0">r</tspan><tspan class="cls-17" x="34.25" y="0">ent </tspan><tspan class="cls-18" x="49.81" y="0">“</tspan><tspan class="cls-17" x="53.18" y="0">p</tspan><tspan class="cls-19" x="58.56" y="0">ay</tspan><tspan class="cls-20" x="67.89" y="0">/</tspan><tspan x="71.3" y="0">r</tspan><tspan class="cls-21" x="74.6" y="0">eq</tspan><tspan x="84.8" y="0">u</tspan><tspan class="cls-17" x="89.89" y="0">es</tspan><tspan class="cls-22" x="98.93" y="0">t</tspan><tspan class="cls-17" x="101.94" y="0">” </tspan><tspan x="107.78" y="0">b</tspan><tspan class="cls-17" x="113.12" y="0">ut</tspan><tspan x="121.5" y="0">t</tspan><tspan class="cls-17" x="124.69" y="0">on is </tspan><tspan x="146.01" y="0">e</tspan><tspan class="cls-23" x="150.89" y="0">x</tspan><tspan class="cls-19" x="155.4" y="0">t</tspan><tspan x="158.55" y="0">r</tspan><tspan class="cls-17" x="161.85" y="0">emely </tspan><tspan class="cls-17" x="0" y="13">small, is depic</tspan><tspan x="57.78" y="13">t</tspan><tspan class="cls-17" x="60.98" y="13">ed </tspan><tspan class="cls-18" x="73.53" y="13">b</tspan><tspan class="cls-17" x="78.73" y="13">y an abs</tspan><tspan class="cls-19" x="112.18" y="13">t</tspan><tspan class="cls-17" x="115.33" y="13">rac</tspan><tspan class="cls-24" x="128.24" y="13">t</tspan><tspan class="cls-19" x="131.66" y="13">/</tspan><tspan x="135.52" y="13">v</tspan><tspan class="cls-17" x="140.04" y="13">a</tspan><tspan x="144.79" y="13">gu</tspan><tspan class="cls-17" x="155.09" y="13">e </tspan><tspan x="162.31" y="13">s</tspan><tspan class="cls-17" x="166.38" y="13">ymbol </tspan><tspan class="cls-17" x="0" y="26">i</tspan><tspan x="2.32" y="26">c</tspan><tspan class="cls-17" x="7.09" y="26">on, and is crammed in</tspan><tspan x="97" y="26">t</tspan><tspan class="cls-17" x="100.2" y="26">o a mo</tspan><tspan x="127.68" y="26">r</tspan><tspan class="cls-21" x="130.98" y="26">e ob</tspan><tspan x="148.78" y="26">sc</tspan><tspan class="cls-17" x="157.61" y="26">u</tspan><tspan x="162.75" y="26">r</tspan><tspan class="cls-17" x="166.05" y="26">e a</tspan><tspan x="178.02" y="26">r</tspan><tspan class="cls-21" x="181.33" y="26">ea of </tspan><tspan class="cls-17" x="0" y="39" xml:space="preserve">the UI.  This </tspan><tspan class="cls-25" x="50.55" y="39">f</tspan><tspan class="cls-17" x="53.55" y="39">ac</tspan><tspan x="63.12" y="39">t</tspan><tspan class="cls-21" x="66.31" y="39">ors do n</tspan><tspan x="99.19" y="39">o</tspan><tspan class="cls-17" x="104.33" y="39">t en</tspan><tspan class="cls-26" x="119.9" y="39">co</tspan><tspan class="cls-17" x="129.81" y="39">urage u</tspan><tspan x="160.66" y="39">s</tspan><tspan class="cls-17" x="164.72" y="39">ers </tspan><tspan x="179.4" y="39">t</tspan><tspan class="cls-17" x="182.6" y="39">o </tspan><tspan class="cls-17" x="0" y="52">ma</tspan><tspan class="cls-27" x="12.51" y="52">k</tspan><tspan class="cls-17" x="17.05" y="52">e p</tspan><tspan class="cls-28" x="29.65" y="52">a</tspan><tspan class="cls-17" x="34.32" y="52">ymen</tspan><tspan class="cls-23" x="56.85" y="52">t</tspan><tspan class="cls-17" x="60.14" y="52">s, and inc</tspan><tspan x="98.96" y="52">r</tspan><tspan class="cls-17" x="102.27" y="52">ea</tspan><tspan x="111.94" y="52">s</tspan><tspan class="cls-17" x="116.01" y="52">es the </tspan><tspan x="142.9" y="52">b</tspan><tspan class="cls-17" x="148.24" y="52">u</tspan><tspan x="153.38" y="52">r</tspan><tspan class="cls-17" x="156.68" y="52">den </tspan><tspan x="174.34" y="52">p</tspan><tspan class="cls-17" x="179.67" y="52">ut on </tspan><tspan class="cls-17" x="0" y="65">them </tspan><tspan x="23.32" y="65">t</tspan><tspan class="cls-21" x="26.51" y="65">o find them.</tspan></text><rect class="cls-4" x="438.1" y="161.43" width="252" height="92.73"/><text class="cls-29" transform="translate(457.5 181.37)">Indivi<tspan class="cls-11" x="31.85" y="0">d</tspan><tspan class="cls-10" x="39.3" y="0">ual In</tspan><tspan class="cls-30" x="70.42" y="0">f</tspan><tspan x="74.67" y="0">o</tspan><tspan class="cls-31" x="81.8" y="0">r</tspan><tspan x="86.65" y="0">m</tspan><tspan class="cls-6" x="97.4" y="0">a</tspan><tspan class="cls-14" x="103.95" y="0">t</tspan><tspan x="108.59" y="0">ion </tspan><tspan class="cls-14" x="129.35" y="0">D</tspan><tspan x="138.19" y="0">ep</tspan><tspan class="cls-31" x="152.41" y="0">r</tspan><tspan x="157.26" y="0">io</tspan><tspan class="cls-31" x="167.81" y="0">r</tspan><tspan x="172.65" y="0">i</tspan><tspan class="cls-14" x="176.07" y="0">t</tspan><tspan x="180.71" y="0">i</tspan><tspan class="cls-6" x="184.13" y="0">z</tspan><tspan class="cls-7" x="189.98" y="0">ed</tspan></text><g class="cls-15"><rect class="cls-1" x="457.5" y="205.46" width="86.27" height="9.83"/></g><g class="cls-15"><rect class="cls-1" x="616.05" y="192.61" width="36.51" height="8.37"/></g><text class="cls-16" transform="translate(458.75 200.04)"><tspan class="cls-17">The in</tspan><tspan class="cls-32" x="25.12" y="0">f</tspan><tspan class="cls-17" x="28.07" y="0">ormation first sh</tspan><tspan class="cls-19" x="94.97" y="0">o</tspan><tspan class="cls-17" x="100.07" y="0">wn </tspan><tspan x="114.65" y="0">t</tspan><tspan class="cls-17" x="117.84" y="0">o u</tspan><tspan class="cls-26" x="130.47" y="0">s</tspan><tspan class="cls-17" x="134.54" y="0">ers is n</tspan><tspan x="163.05" y="0">o</tspan><tspan class="cls-17" x="168.2" y="0">t their </tspan><tspan class="cls-17" x="0" y="13">per</tspan><tspan x="13.65" y="13">s</tspan><tspan class="cls-17" x="17.72" y="13">onal in</tspan><tspan class="cls-18" x="44.82" y="13">f</tspan><tspan class="cls-17" x="47.77" y="13">ormation </tspan><tspan x="86.97" y="13">r</tspan><tspan class="cls-17" x="90.28" y="13">elating </tspan><tspan x="120.49" y="13">t</tspan><tspan class="cls-21" x="123.69" y="13">o their </tspan><tspan class="cls-33" x="152.4" y="13">V</tspan><tspan class="cls-17" x="157.87" y="13">enmo </tspan><tspan class="cls-17" x="0" y="26">a</tspan><tspan x="4.75" y="26">cco</tspan><tspan class="cls-17" x="19.44" y="26">unt, </tspan><tspan x="37.91" y="26">b</tspan><tspan class="cls-17" x="43.24" y="26">ut ins</tspan><tspan x="65.46" y="26">t</tspan><tspan class="cls-17" x="68.65" y="26">ead sh</tspan><tspan class="cls-19" x="95.17" y="26">o</tspan><tspan class="cls-17" x="100.28" y="26">ws the </tspan><tspan class="cls-26" x="129.43" y="26">r</tspan><tspan class="cls-17" x="132.73" y="26">e</tspan><tspan x="137.65" y="26">c</tspan><tspan class="cls-17" x="142.42" y="26">ent </tspan><tspan class="cls-19" x="157.98" y="26">t</tspan><tspan class="cls-17" x="161.13" y="26">ran</tspan><tspan class="cls-19" x="174.34" y="26">s</tspan><tspan class="cls-21" x="178.36" y="26">action </tspan><tspan class="cls-17"><tspan x="0" y="39">be</tspan><tspan class="cls-34" x="10.3" y="39">t</tspan><tspan class="cls-19" x="13.63" y="39">w</tspan><tspan x="20.73" y="39">een their </tspan><tspan class="cls-19" x="59.2" y="39">“</tspan><tspan x="62.66" y="39">friend</tspan><tspan class="cls-33" x="86.82" y="39">s</tspan><tspan class="cls-35" x="90.44" y="39">”</tspan><tspan x="93.36" y="39">.</tspan></tspan></text><rect class="cls-4" x="438.1" y="262.13" width="252" height="105.95"/><text class="cls-36" transform="translate(457.5 282.08)">U<tspan class="cls-37" x="8.38" y="0">n</tspan><tspan class="cls-12" x="15.46" y="0">u</tspan><tspan class="cls-8" x="22.61" y="0">s</tspan><tspan class="cls-12" x="28.24" y="0">ed </tspan><tspan class="cls-37" x="45.55" y="0">S</tspan><tspan class="cls-12" x="52.87" y="0">ocial </tspan><tspan class="cls-6" x="83.23" y="0">M</tspan><tspan class="cls-12" x="94.75" y="0">edia </tspan><tspan class="cls-38" x="122.07" y="0">F</tspan><tspan class="cls-12" x="128.55" y="0">eed</tspan></text><text class="cls-16" transform="translate(458.75 300.75)"><tspan class="cls-33">V</tspan><tspan class="cls-17" x="5.46" y="0">enm</tspan><tspan class="cls-39" x="23.25" y="0">o</tspan><tspan class="cls-33" x="28.08" y="0">’</tspan><tspan class="cls-21" x="29.64" y="0">s </tspan><tspan x="36.05" y="0">c</tspan><tspan class="cls-17" x="40.82" y="0">o</tspan><tspan x="46.02" y="0">r</tspan><tspan class="cls-17" x="49.32" y="0">e </tspan><tspan class="cls-18" x="56.54" y="0">f</tspan><tspan class="cls-17" x="59.49" y="0">eatu</tspan><tspan class="cls-26" x="77.54" y="0">r</tspan><tspan class="cls-17" x="80.85" y="0">e is </tspan><tspan x="96.79" y="0">t</tspan><tspan class="cls-17" x="99.99" y="0">o all</tspan><tspan class="cls-19" x="116.89" y="0">o</tspan><tspan class="cls-21" x="121.99" y="0">w u</tspan><tspan x="136.61" y="0">s</tspan><tspan class="cls-17" x="140.68" y="0">ers </tspan><tspan x="155.36" y="0">t</tspan><tspan class="cls-17" x="158.55" y="0">o easily </tspan><tspan class="cls-17" x="0" y="13">p</tspan><tspan class="cls-19" x="5.38" y="13">a</tspan><tspan class="cls-17" x="10.04" y="13">y or </tspan><tspan x="27.93" y="13">r</tspan><tspan class="cls-17" x="31.23" y="13">eq</tspan><tspan x="41.43" y="13">u</tspan><tspan class="cls-17" x="46.52" y="13">est friends; </tspan><tspan x="94.38" y="13">b</tspan><tspan class="cls-17" x="99.72" y="13">ut the main dashboa</tspan><tspan x="182.82" y="13">r</tspan><tspan class="cls-17" x="186.12" y="13">d is </tspan><tspan class="cls-17" x="0" y="26">ins</tspan><tspan x="11.54" y="26">t</tspan><tspan class="cls-17" x="14.73" y="26">ead ta</tspan><tspan class="cls-27" x="40.03" y="26">k</tspan><tspan class="cls-17" x="44.58" y="26">en up </tspan><tspan class="cls-40" x="69.71" y="26">b</tspan><tspan class="cls-21" x="74.92" y="26">y a u</tspan><tspan x="94.15" y="26">s</tspan><tspan class="cls-17" x="98.22" y="26">eless </tspan><tspan class="cls-18" x="120.92" y="26">f</tspan><tspan class="cls-21" x="123.87" y="26">eatu</tspan><tspan x="141.92" y="26">r</tspan><tspan class="cls-17" x="145.22" y="26">e that does </tspan><tspan class="cls-17" x="0" y="39">n</tspan><tspan x="5.1" y="39">o</tspan><tspan class="cls-17" x="10.25" y="39">t en</tspan><tspan class="cls-26" x="25.81" y="39">co</tspan><tspan class="cls-17" x="35.73" y="39">urage u</tspan><tspan x="66.57" y="39">s</tspan><tspan class="cls-17" x="70.64" y="39">ers </tspan><tspan x="85.32" y="39">t</tspan><tspan class="cls-17" x="88.51" y="39">o ma</tspan><tspan class="cls-27" x="108.51" y="39">k</tspan><tspan class="cls-17" x="113.06" y="39">e or </tspan><tspan class="cls-26" x="131.11" y="39">r</tspan><tspan class="cls-17" x="134.41" y="39">eq</tspan><tspan x="144.61" y="39">u</tspan><tspan class="cls-17" x="149.7" y="39">est </tspan><tspan class="cls-17"><tspan x="0" y="52">p</tspan><tspan class="cls-19" x="5.38" y="52">a</tspan><tspan x="10.04" y="52">ymen</tspan><tspan class="cls-7" x="32.58" y="52">t</tspan><tspan x="35.87" y="52">s.</tspan></tspan></text><g class="cls-15"><rect class="cls-1" x="547.4" y="319.98" width="62.74" height="9.13"/></g><g class="cls-15"><rect class="cls-1" x="457.33" y="331.99" width="164.23" height="9.13"/></g><path class="cls-41" d="M299.9,39V81a11.66,11.66,0,0,0,11.65,11.65H438.1"/><path class="cls-41" d="M438.1,210.38H227.55a11.66,11.66,0,0,1-11.65-11.65V43"/><line class="cls-41" x1="438.1" y1="315.11" x2="226.9" y2="315.11"/></svg>