<svg id="Layer_1" data-name="Layer 1" xmlns="http://www.w3.org/2000/svg" viewBox="0 0 434.11 152.11"><defs><style>.cls-1{fill:#0c6472;}.cls-2{fill:#20912d;}.cls-3{fill:#626b6a;}.cls-4{fill:#aaa;}.cls-5{fill:#ffe09b;}.cls-6{fill:#25cf7c;}.cls-7{fill:#edebeb;}.cls-16,.cls-19,.cls-8,.cls-9{fill:none;stroke-miterlimit:10;}.cls-16,.cls-8{stroke:#d2d1d1;}.cls-8{stroke-width:0.5px;}.cls-9{stroke:#eaeaea;}.cls-19,.cls-9{stroke-linecap:round;stroke-width:0.75px;}.cls-10{fill:#ec2325;}.cls-11{fill:#f06122;}.cls-12{fill:#f89e1b;}.cls-13{fill:#02934e;}.cls-14{fill:#fff;}.cls-15{fill:#f57eb6;}.cls-17{fill:#c95f8d;}.cls-18{fill:#ffe900;}.cls-19{stroke:#000;}.cls-20{fill:#e2bf2d;}.cls-21{fill:#1e1e1e;}</style></defs><title>venmo-card-img</title><rect class="cls-1" x="195.4" y="31.05" width="54.99" height="88.5" rx="4.09" ry="4.09"/><rect class="cls-1" x="267.3" y="51.51" width="54.99" height="88.5" rx="4.09" ry="4.09"/><polygon id="Fill-14" class="cls-2" points="230.92 60.93 230.94 60.93 230.92 60.93 230.92 60.93"/><polygon id="Fill-16" class="cls-2" points="230.92 60.9 230.94 60.9 230.92 60.9 230.92 60.9"/><polygon id="Fill-18" class="cls-2" points="230.97 60.9 230.97 60.9 230.96 60.9 230.97 60.9"/><polygon id="Fill-20" class="cls-2" points="230.98 60.93 230.98 60.93 230.96 60.93 230.98 60.93"/><polygon id="Fill-80" class="cls-3" points="229.66 60.93 229.64 60.93 229.64 60.93 229.66 60.93"/><polygon id="Fill-82" class="cls-4" points="229.66 60.93 229.64 60.93 229.64 60.93 229.66 60.93"/><polygon id="Fill-86" class="cls-4" points="229.7 60.93 229.7 60.93 229.68 60.93 229.7 60.93"/><polygon id="Fill-90" class="cls-3" points="229.7 60.93 229.7 60.93 229.68 60.93 229.7 60.93"/><polygon id="Fill-92" class="cls-4" points="229.7 60.93 229.7 60.93 229.68 60.93 229.7 60.93"/><polygon id="Fill-94" class="cls-4" points="229.66 60.93 229.64 60.93 229.64 60.93 229.66 60.93"/><polygon id="Fill-104" class="cls-5" points="229.64 60.93 229.66 60.93 229.64 60.93 229.64 60.93"/><polygon id="Fill-106" class="cls-5" points="229.64 60.9 229.66 60.9 229.64 60.9 229.64 60.9"/><polygon id="Fill-108" class="cls-5" points="229.69 60.9 229.68 60.9 229.69 60.9 229.69 60.9"/><polygon id="Fill-110" class="cls-5" points="229.7 60.93 229.7 60.93 229.68 60.93 229.7 60.93"/><rect class="cls-6" x="194.89" y="28.76" width="56.01" height="90.03" rx="4.09" ry="4.09"/><rect class="cls-7" x="221.53" y="36.91" width="10.89" height="11.3" rx="0.81" ry="0.81"/><rect class="cls-8" x="225.3" y="41.12" width="3.19" height="2.89"/><path class="cls-8" d="M224.26,37.06v3.13a1,1,0,0,0,1,.93h3.45a1,1,0,0,0,1-.93V37.06Z"/><path class="cls-8" d="M229.63,48.07V44.93a.94.94,0,0,0-1-.92h-3.45a.94.94,0,0,0-1,.92v3.14Z"/><line class="cls-8" x1="229.63" y1="39.9" x2="232.43" y2="39.9"/><line class="cls-8" x1="224.26" y1="39.9" x2="221.53" y2="39.9"/><line class="cls-8" x1="229.63" y1="45.32" x2="232.43" y2="45.32"/><line class="cls-8" x1="224.26" y1="45.32" x2="221.53" y2="45.32"/><path class="cls-9" d="M235.68,42s1.21.93,0,1.7"/><path class="cls-9" d="M236.9,41s1.79,2,0,3.62"/><path class="cls-9" d="M237.89,39.92s2.91,3.2,0,5.86"/><path class="cls-9" d="M239.18,39.24s2.91,3.94,0,7.22"/><path class="cls-10" d="M238.71,109.89a5.8,5.8,0,1,1,0-9,5.79,5.79,0,0,0,0,9Z"/><path class="cls-11" d="M240.84,105.4a5.78,5.78,0,0,1-2.13,4.49,5.79,5.79,0,0,1,0-9A5.76,5.76,0,0,1,240.84,105.4Z"/><path class="cls-12" d="M248.17,105.4a5.79,5.79,0,0,1-9.46,4.49,5.79,5.79,0,0,0,0-9,5.79,5.79,0,0,1,9.46,4.48Z"/><rect class="cls-13" x="198.61" y="70.22" width="27.45" height="5.54"/><rect class="cls-14" x="198.66" y="110.58" width="11.35" height="3.68"/><rect class="cls-14" x="230.09" y="113.3" width="17.25" height="1.75"/><rect class="cls-1" x="124.28" y="11.03" width="54.8" height="88.5" rx="4.09" ry="4.09"/><polygon id="Fill-14-2" data-name="Fill-14" class="cls-2" points="159.7 40.91 159.72 40.91 159.7 40.91 159.7 40.91"/><polygon id="Fill-16-2" data-name="Fill-16" class="cls-2" points="159.7 40.88 159.72 40.88 159.7 40.88 159.7 40.88"/><polygon id="Fill-18-2" data-name="Fill-18" class="cls-2" points="159.75 40.88 159.75 40.88 159.74 40.88 159.75 40.88"/><polygon id="Fill-20-2" data-name="Fill-20" class="cls-2" points="159.76 40.91 159.76 40.91 159.74 40.91 159.76 40.91"/><polygon id="Fill-80-2" data-name="Fill-80" class="cls-3" points="158.44 40.91 158.42 40.91 158.42 40.91 158.44 40.91"/><polygon id="Fill-82-2" data-name="Fill-82" class="cls-4" points="158.44 40.91 158.42 40.91 158.42 40.91 158.44 40.91"/><polygon id="Fill-86-2" data-name="Fill-86" class="cls-4" points="158.48 40.91 158.48 40.91 158.46 40.91 158.48 40.91"/><polygon id="Fill-90-2" data-name="Fill-90" class="cls-3" points="158.48 40.91 158.48 40.91 158.46 40.91 158.48 40.91"/><polygon id="Fill-92-2" data-name="Fill-92" class="cls-4" points="158.48 40.91 158.48 40.91 158.46 40.91 158.48 40.91"/><polygon id="Fill-94-2" data-name="Fill-94" class="cls-4" points="158.44 40.91 158.42 40.91 158.42 40.91 158.44 40.91"/><polygon id="Fill-104-2" data-name="Fill-104" class="cls-5" points="158.42 40.91 158.44 40.91 158.42 40.91 158.42 40.91"/><polygon id="Fill-106-2" data-name="Fill-106" class="cls-5" points="158.42 40.88 158.44 40.88 158.42 40.88 158.42 40.88"/><polygon id="Fill-108-2" data-name="Fill-108" class="cls-5" points="158.47 40.88 158.46 40.88 158.47 40.88 158.47 40.88"/><polygon id="Fill-110-2" data-name="Fill-110" class="cls-5" points="158.48 40.91 158.48 40.91 158.46 40.91 158.48 40.91"/><rect class="cls-15" x="123.67" y="8.75" width="56.01" height="90.03" rx="4.09" ry="4.09"/><rect class="cls-7" x="150.31" y="16.9" width="10.89" height="11.3" rx="0.81" ry="0.81"/><rect class="cls-8" x="154.08" y="21.1" width="3.19" height="2.89"/><path class="cls-8" d="M153,17.05v3.13a.94.94,0,0,0,1,.92h3.45a.93.93,0,0,0,1-.92V17.05Z"/><path class="cls-8" d="M158.4,28.05V24.92a.94.94,0,0,0-1-.93H154a1,1,0,0,0-1,.93v3.13Z"/><line class="cls-16" x1="158.4" y1="19.88" x2="161.21" y2="19.88"/><line class="cls-8" x1="153.04" y1="19.88" x2="150.31" y2="19.88"/><line class="cls-8" x1="158.4" y1="25.31" x2="161.21" y2="25.31"/><line class="cls-8" x1="153.04" y1="25.31" x2="150.31" y2="25.31"/><path class="cls-9" d="M164.46,22s1.21.93,0,1.71"/><path class="cls-9" d="M165.67,21s1.8,2,0,3.63"/><path class="cls-9" d="M166.67,19.9s2.91,3.2,0,5.86"/><path class="cls-9" d="M168,19.22s2.91,3.94,0,7.23"/><path class="cls-10" d="M167.49,89.88a5.8,5.8,0,1,1,0-9,5.8,5.8,0,0,0,0,9Z"/><path class="cls-11" d="M169.62,85.39a5.8,5.8,0,0,1-2.13,4.49,5.8,5.8,0,0,1,0-9A5.78,5.78,0,0,1,169.62,85.39Z"/><path class="cls-12" d="M177,85.39a5.8,5.8,0,0,1-9.46,4.49,5.8,5.8,0,0,0,0-9A5.79,5.79,0,0,1,177,85.39Z"/><rect class="cls-17" x="127.39" y="50.2" width="27.45" height="5.54"/><rect class="cls-14" x="127.44" y="90.56" width="11.35" height="3.68"/><rect class="cls-14" x="158.87" y="93.29" width="17.25" height="1.75"/><rect class="cls-18" x="266.79" y="49.16" width="56.01" height="90.03" rx="3.84" ry="3.84"/><rect class="cls-7" x="298.52" y="57.31" width="10.89" height="11.3" rx="0.81" ry="0.81"/><rect class="cls-8" x="302.29" y="61.51" width="3.19" height="2.89"/><path class="cls-8" d="M301.24,57.46v3.13a.94.94,0,0,0,1,.92h3.45a.94.94,0,0,0,1-.92V57.46Z"/><path class="cls-8" d="M306.61,68.47V65.33a.94.94,0,0,0-1-.92H302.2a.94.94,0,0,0-1,.92v3.14Z"/><line class="cls-8" x1="306.61" y1="60.29" x2="309.41" y2="60.29"/><line class="cls-8" x1="301.24" y1="60.29" x2="298.52" y2="60.29"/><line class="cls-8" x1="306.61" y1="65.72" x2="309.41" y2="65.72"/><line class="cls-8" x1="301.24" y1="65.72" x2="298.52" y2="65.72"/><path class="cls-19" d="M313,62.39s1.21.93,0,1.71"/><path class="cls-19" d="M314.22,61.43s1.8,2,0,3.63"/><path class="cls-19" d="M315.21,60.32s2.91,3.19,0,5.86"/><path class="cls-19" d="M316.5,59.63s2.91,3.94,0,7.23"/><path class="cls-10" d="M310.61,130.29a5.8,5.8,0,1,1,0-9,5.8,5.8,0,0,0,0,9Z"/><path class="cls-11" d="M312.74,125.8a5.8,5.8,0,0,1-2.13,4.49,5.8,5.8,0,0,1,0-9A5.78,5.78,0,0,1,312.74,125.8Z"/><path class="cls-12" d="M320.08,125.8a5.8,5.8,0,0,1-9.47,4.49,5.8,5.8,0,0,0,0-9,5.8,5.8,0,0,1,9.47,4.49Z"/><rect class="cls-20" x="270.51" y="90.61" width="27.45" height="5.54"/><rect class="cls-21" x="270.56" y="130.97" width="11.35" height="3.68"/><rect class="cls-21" x="301.99" y="133.7" width="17.25" height="1.75"/></svg>