<svg id="Layer_1" data-name="Layer 1" xmlns="http://www.w3.org/2000/svg" viewBox="0 0 600 355.98"><defs><style>.cls-1{fill:#3d95ce;}.cls-2{fill:#0c6472;}.cls-3{fill:#20912d;}.cls-4{fill:#f7f7f7;}.cls-5{fill:#272c42;}.cls-6{fill:#fff;}.cls-12,.cls-14,.cls-16,.cls-19,.cls-20,.cls-28,.cls-7{fill:none;}.cls-7{stroke:#d0d7e2;}.cls-20,.cls-28,.cls-7{stroke-width:2px;}.cls-8{fill:#282828;}.cls-9{fill:#626b6a;}.cls-10{fill:#aaa;}.cls-11{fill:#ffe09b;}.cls-12{stroke:#f2f2f2;stroke-width:0.75px;}.cls-12,.cls-14,.cls-16,.cls-19,.cls-20,.cls-28{stroke-miterlimit:10;}.cls-13{fill:#f2f2f2;}.cls-14,.cls-16{stroke:#b2b2b2;}.cls-15{fill:#b2b2b2;}.cls-16{stroke-width:0.5px;}.cls-17{fill:#25cf7c;}.cls-18{fill:#edebeb;}.cls-19{stroke:#d2d1d1;}.cls-20{stroke:#d6f0f8;}.cls-20,.cls-28{stroke-linecap:round;}.cls-21{fill:#ec2325;}.cls-22{fill:#f06122;}.cls-23{fill:#f89e1b;}.cls-24{fill:#02934e;}.cls-25{fill:#f57eb6;}.cls-26{fill:#c95f8d;}.cls-27{fill:#ffe900;}.cls-28{stroke:#1e1e1e;}.cls-29{fill:#e2bf2d;}.cls-30{fill:#1e1e1e;}</style></defs><title>venmo_splash</title><rect class="cls-1" width="600" height="355.98"/><rect class="cls-2" x="276.1" y="2.01" width="110.26" height="174.23" rx="5.2" ry="5.2" transform="translate(420.36 -242.1) rotate(90)"/><polygon id="Fill-14" class="cls-3" points="356.53 102.92 356.52 102.95 356.52 102.92 356.53 102.92"/><polygon id="Fill-16" class="cls-3" points="356.59 102.92 356.58 102.95 356.58 102.92 356.59 102.92"/><polygon id="Fill-18" class="cls-3" points="356.59 103.02 356.58 103.02 356.58 103 356.59 103.02"/><polygon id="Fill-20" class="cls-3" points="356.53 103.03 356.52 103.03 356.52 103 356.53 103.03"/><path id="Fill-22" class="cls-2" d="M192.49,310.33H99.37a14.74,14.74,0,0,1-14.76-14.72h0V64.37A14.76,14.76,0,0,1,99.37,49.63h93.12a14.75,14.75,0,0,1,14.74,14.74V295.6a14.75,14.75,0,0,1-14.77,14.73h0"/><path id="Fill-24" class="cls-4" d="M194.76,307.46H97.11a14.75,14.75,0,0,1-14.77-14.73h0V61.49A14.76,14.76,0,0,1,97.11,46.76h97.65a14.76,14.76,0,0,1,14.76,14.73V292.72a14.74,14.74,0,0,1-14.76,14.74"/><path id="Fill-26" class="cls-5" d="M201.75,271.25H90.11a2.36,2.36,0,0,1-2.36-2.36V88.45a2.36,2.36,0,0,1,2.36-2.36H201.75a2.35,2.35,0,0,1,2.36,2.34V268.89a2.36,2.36,0,0,1-2.36,2.36"/><path id="Fill-28" class="cls-6" d="M199.87,267.54H92a.53.53,0,0,1-.53-.53V90.33A.53.53,0,0,1,92,89.8H199.87a.53.53,0,0,1,.53.53V267a.53.53,0,0,1-.53.53"/><path id="Fill-30" class="cls-1" d="M199.87,110.67H92a.59.59,0,0,1-.53-.63V90.43A.59.59,0,0,1,92,89.8H199.87a.59.59,0,0,1,.53.63V110a.59.59,0,0,1-.53.63"/><path id="Stroke-38" class="cls-7" d="M157.57,290.25a11.64,11.64,0,1,1-11.67-11.61h0A11.63,11.63,0,0,1,157.57,290.25Z"/><path id="Fill-40" class="cls-4" d="M157.12,290.25a11.19,11.19,0,1,1-11.22-11.16h0a11.18,11.18,0,0,1,11.19,11.16"/><path id="Fill-42" class="cls-8" d="M162.08,71.53H138.5a1.77,1.77,0,0,1-1.77-1.77h0A1.77,1.77,0,0,1,138.5,68h23.58a1.78,1.78,0,0,1,1.78,1.77h0a1.78,1.78,0,0,1-1.78,1.77"/><path id="Fill-44" class="cls-8" d="M131.44,69.76a1.72,1.72,0,1,1-1.73-1.71h0a1.72,1.72,0,0,1,1.72,1.71"/><path id="Fill-46" class="cls-8" d="M147.23,58.91a1.34,1.34,0,1,1-1.35-1.33h0a1.34,1.34,0,0,1,1.34,1.33"/><polygon id="Fill-80" class="cls-9" points="356.52 100.44 356.52 100.41 356.53 100.41 356.52 100.44"/><polygon id="Fill-82" class="cls-10" points="356.52 100.44 356.52 100.41 356.53 100.41 356.52 100.44"/><polygon id="Fill-86" class="cls-10" points="356.53 100.52 356.52 100.52 356.52 100.47 356.53 100.52"/><polygon id="Fill-90" class="cls-9" points="356.53 100.52 356.52 100.52 356.52 100.47 356.53 100.52"/><polygon id="Fill-92" class="cls-10" points="356.53 100.52 356.52 100.52 356.52 100.47 356.53 100.52"/><polygon id="Fill-94" class="cls-10" points="356.52 100.44 356.52 100.41 356.53 100.41 356.52 100.44"/><polygon id="Fill-104" class="cls-11" points="356.53 100.41 356.52 100.44 356.52 100.41 356.53 100.41"/><polygon id="Fill-106" class="cls-11" points="356.59 100.41 356.58 100.44 356.58 100.41 356.59 100.41"/><polygon id="Fill-108" class="cls-11" points="356.58 100.5 356.58 100.47 356.59 100.5 356.58 100.5"/><polygon id="Fill-110" class="cls-11" points="356.53 100.52 356.52 100.52 356.52 100.47 356.53 100.52"/><rect class="cls-12" x="113.54" y="96.17" width="64.7" height="8.14" rx="1.26" ry="1.26"/><rect class="cls-13" x="134.95" y="96.17" width="21.88" height="8.14" rx="1.26" ry="1.26"/><rect class="cls-12" x="185.87" y="96.17" width="8.19" height="8.14" rx="1.26" ry="1.26"/><circle class="cls-14" cx="107.07" cy="125.21" r="5.76"/><rect class="cls-15" x="120.24" y="119.21" width="51.72" height="4.31" rx="0.61" ry="0.61"/><rect class="cls-8" x="120.24" y="128.11" width="51.72" height="4.31" rx="0.61" ry="0.61"/><rect class="cls-15" x="120.24" y="125.21" width="14.57" height="1.21" rx="0.61" ry="0.61"/><rect class="cls-16" x="120.24" y="135.08" width="4.1" height="4.1" rx="0.46" ry="0.46"/><rect class="cls-16" x="126.44" y="135.08" width="4.1" height="4.1" rx="0.46" ry="0.46"/><line class="cls-16" x1="120.24" y1="144.48" x2="189.97" y2="144.48"/><circle class="cls-14" cx="107.07" cy="155.07" r="5.76"/><rect class="cls-15" x="120.24" y="149.07" width="51.72" height="4.31" rx="0.61" ry="0.61"/><rect class="cls-8" x="120.24" y="157.97" width="51.72" height="4.31" rx="0.61" ry="0.61"/><rect class="cls-15" x="120.24" y="155.07" width="14.57" height="1.21" rx="0.61" ry="0.61"/><rect class="cls-16" x="120.24" y="164.94" width="4.1" height="4.1" rx="0.46" ry="0.46"/><rect class="cls-16" x="126.44" y="164.94" width="4.1" height="4.1" rx="0.46" ry="0.46"/><line class="cls-16" x1="120.24" y1="174.34" x2="189.97" y2="174.34"/><circle class="cls-14" cx="107.07" cy="187.72" r="5.76"/><rect class="cls-15" x="120.24" y="181.72" width="51.72" height="4.31" rx="0.61" ry="0.61"/><rect class="cls-8" x="120.24" y="190.62" width="51.72" height="4.31" rx="0.61" ry="0.61"/><rect class="cls-15" x="120.24" y="187.72" width="14.57" height="1.21" rx="0.61" ry="0.61"/><rect class="cls-16" x="120.24" y="197.59" width="4.1" height="4.1" rx="0.46" ry="0.46"/><rect class="cls-16" x="126.44" y="197.59" width="4.1" height="4.1" rx="0.46" ry="0.46"/><line class="cls-16" x1="120.24" y1="206.99" x2="189.97" y2="206.99"/><circle class="cls-14" cx="107.07" cy="218.29" r="5.76"/><rect class="cls-15" x="120.24" y="212.3" width="51.72" height="4.31" rx="0.61" ry="0.61"/><rect class="cls-8" x="120.24" y="221.2" width="51.72" height="4.31" rx="0.61" ry="0.61"/><rect class="cls-15" x="120.24" y="218.29" width="14.57" height="1.21" rx="0.61" ry="0.61"/><rect class="cls-16" x="120.24" y="228.16" width="4.1" height="4.1" rx="0.46" ry="0.46"/><rect class="cls-16" x="126.44" y="228.16" width="4.1" height="4.1" rx="0.46" ry="0.46"/><line class="cls-16" x1="120.24" y1="237.57" x2="189.97" y2="237.57"/><circle class="cls-14" cx="107.07" cy="248.87" r="5.76"/><rect class="cls-15" x="120.24" y="242.87" width="51.72" height="4.31" rx="0.61" ry="0.61"/><rect class="cls-8" x="120.24" y="251.77" width="51.72" height="4.31" rx="0.61" ry="0.61"/><rect class="cls-15" x="120.24" y="248.87" width="14.57" height="1.21" rx="0.61" ry="0.61"/><rect class="cls-16" x="120.24" y="258.74" width="4.1" height="4.1" rx="0.46" ry="0.46"/><rect class="cls-16" x="126.44" y="258.74" width="4.1" height="4.1" rx="0.46" ry="0.46"/><rect class="cls-17" x="276.1" y="-1.49" width="110.26" height="177.24" rx="6.58" ry="6.58" transform="translate(418.36 -244.11) rotate(90)"/><rect class="cls-18" x="381.95" y="84.04" width="21.45" height="22.25" rx="4.83" ry="4.83" transform="translate(487.84 -297.51) rotate(90)"/><rect class="cls-19" x="389.83" y="91.86" width="5.69" height="6.28"/><path class="cls-19" d="M403.51,89.81h-6.17a1.85,1.85,0,0,0-1.82,1.88v6.8a1.85,1.85,0,0,0,1.82,1.88h6.17Z"/><path class="cls-19" d="M381.84,100.37H388a1.85,1.85,0,0,0,1.82-1.88v-6.8A1.85,1.85,0,0,0,388,89.81h-6.17Z"/><line class="cls-19" x1="397.93" y1="100.37" x2="397.93" y2="105.89"/><line class="cls-19" x1="397.93" y1="89.81" x2="397.93" y2="84.44"/><line class="cls-19" x1="387.25" y1="100.37" x2="387.25" y2="105.89"/><line class="cls-19" x1="387.25" y1="89.81" x2="387.25" y2="84.44"/><path class="cls-20" d="M393.79,112.29s-1.83,2.38-3.35,0"/><path class="cls-20" d="M395.69,114.68s-3.9,3.55-7.15,0"/><path class="cls-20" d="M397.88,116.64s-6.29,5.72-11.54,0"/><path class="cls-20" d="M399.23,119.19s-7.76,5.72-14.23,0"/><path class="cls-21" d="M260.14,118.26a11.41,11.41,0,1,1,17.67,0,11.41,11.41,0,0,0-17.67,0Z"/><path class="cls-22" d="M269,122.45a11.37,11.37,0,0,1-8.84-4.19,11.41,11.41,0,0,1,17.67,0A11.37,11.37,0,0,1,269,122.45Z"/><path class="cls-23" d="M269,136.89a11.41,11.41,0,0,1-8.84-18.63,11.41,11.41,0,0,0,17.67,0A11.41,11.41,0,0,1,269,136.89Z"/><rect class="cls-24" x="305.77" y="60.88" width="54.03" height="10.91" transform="translate(399.12 -266.45) rotate(90)"/><rect class="cls-6" x="244" y="46.98" width="22.35" height="7.24" transform="translate(305.77 -204.58) rotate(90)"/><rect class="cls-6" x="236.7" y="116.54" width="33.96" height="3.45" transform="translate(371.94 -135.41) rotate(90)"/><polygon id="Fill-14-2" data-name="Fill-14" class="cls-3" points="402.02 192.74 402.01 192.78 402.01 192.74 402.02 192.74"/><polygon id="Fill-16-2" data-name="Fill-16" class="cls-3" points="402.08 192.74 402.07 192.78 402.07 192.74 402.08 192.74"/><polygon id="Fill-18-2" data-name="Fill-18" class="cls-3" points="402.08 192.84 402.07 192.84 402.07 192.82 402.08 192.84"/><polygon id="Fill-20-2" data-name="Fill-20" class="cls-3" points="402.02 192.86 402.01 192.86 402.01 192.82 402.02 192.86"/><polygon id="Fill-80-2" data-name="Fill-80" class="cls-9" points="402.01 190.27 402.01 190.23 402.02 190.23 402.01 190.27"/><polygon id="Fill-82-2" data-name="Fill-82" class="cls-10" points="402.01 190.27 402.01 190.23 402.02 190.23 402.01 190.27"/><polygon id="Fill-86-2" data-name="Fill-86" class="cls-10" points="402.02 190.34 402.01 190.34 402.01 190.3 402.02 190.34"/><polygon id="Fill-90-2" data-name="Fill-90" class="cls-9" points="402.02 190.34 402.01 190.34 402.01 190.3 402.02 190.34"/><polygon id="Fill-92-2" data-name="Fill-92" class="cls-10" points="402.02 190.34 402.01 190.34 402.01 190.3 402.02 190.34"/><polygon id="Fill-94-2" data-name="Fill-94" class="cls-10" points="402.01 190.27 402.01 190.23 402.02 190.23 402.01 190.27"/><polygon id="Fill-104-2" data-name="Fill-104" class="cls-11" points="402.02 190.23 402.01 190.27 402.01 190.23 402.02 190.23"/><polygon id="Fill-106-2" data-name="Fill-106" class="cls-11" points="402.08 190.23 402.07 190.27 402.07 190.23 402.08 190.23"/><polygon id="Fill-108-2" data-name="Fill-108" class="cls-11" points="402.07 190.33 402.07 190.3 402.08 190.33 402.07 190.33"/><polygon id="Fill-110-2" data-name="Fill-110" class="cls-11" points="402.02 190.34 402.01 190.34 402.01 190.3 402.02 190.34"/><rect class="cls-2" x="321.59" y="91.84" width="110.26" height="174.23" rx="5.2" ry="5.2" transform="translate(555.67 -197.77) rotate(90)"/><rect class="cls-25" x="321.59" y="88.33" width="110.26" height="177.24" rx="6.58" ry="6.58" transform="translate(553.67 -199.77) rotate(90)"/><rect class="cls-18" x="427.44" y="173.86" width="21.45" height="22.25" rx="4.83" ry="4.83" transform="translate(623.16 -253.18) rotate(90)"/><rect class="cls-19" x="435.32" y="181.69" width="5.69" height="6.28"/><path class="cls-19" d="M449,179.63h-6.17a1.86,1.86,0,0,0-1.82,1.89v6.79a1.86,1.86,0,0,0,1.82,1.89H449Z"/><path class="cls-19" d="M427.33,190.2h6.17a1.86,1.86,0,0,0,1.82-1.89v-6.79a1.86,1.86,0,0,0-1.82-1.89h-6.17Z"/><line class="cls-19" x1="443.42" y1="190.2" x2="443.42" y2="195.71"/><line class="cls-19" x1="443.42" y1="179.63" x2="443.42" y2="174.27"/><line class="cls-19" x1="432.74" y1="190.2" x2="432.74" y2="195.71"/><line class="cls-19" x1="432.74" y1="179.63" x2="432.74" y2="174.27"/><path class="cls-20" d="M439.28,202.11s-1.83,2.39-3.36,0"/><path class="cls-20" d="M441.17,204.51s-3.89,3.54-7.14,0"/><path class="cls-20" d="M443.37,206.47s-6.29,5.72-11.54,0"/><path class="cls-20" d="M444.72,209s-7.76,5.72-14.23,0"/><path class="cls-21" d="M305.63,208.08a11.41,11.41,0,1,1,17.67,0,11.41,11.41,0,0,0-17.67,0Z"/><path class="cls-22" d="M314.47,212.27a11.37,11.37,0,0,1-8.84-4.19,11.41,11.41,0,0,1,17.67,0A11.38,11.38,0,0,1,314.47,212.27Z"/><path class="cls-23" d="M314.47,226.71a11.41,11.41,0,0,1-8.84-18.63,11.41,11.41,0,0,0,17.67,0,11.41,11.41,0,0,1-8.83,18.63Z"/><rect class="cls-26" x="351.26" y="150.71" width="54.03" height="10.91" transform="translate(534.43 -222.12) rotate(90)"/><rect class="cls-6" x="289.49" y="136.8" width="22.35" height="7.24" transform="translate(441.08 -160.25) rotate(90)"/><rect class="cls-6" x="282.19" y="206.36" width="33.96" height="3.45" transform="translate(507.25 -91.08) rotate(90)"/><rect class="cls-2" x="371.91" y="179.86" width="110.26" height="174.23" rx="5.2" ry="5.2" transform="translate(694.01 -160.07) rotate(90)"/><rect class="cls-27" x="371.91" y="176.35" width="110.26" height="177.24" rx="6.58" ry="6.58" transform="translate(692.01 -162.07) rotate(90)"/><rect class="cls-18" x="477.76" y="271.89" width="21.45" height="22.25" rx="4.83" ry="4.83" transform="translate(771.51 -205.47) rotate(90)"/><rect class="cls-19" x="485.64" y="279.72" width="5.69" height="6.28"/><path class="cls-19" d="M499.32,277.66h-6.17a1.86,1.86,0,0,0-1.82,1.89v6.79a1.86,1.86,0,0,0,1.82,1.89h6.17Z"/><path class="cls-19" d="M477.65,288.23h6.17a1.86,1.86,0,0,0,1.82-1.89v-6.79a1.86,1.86,0,0,0-1.82-1.89h-6.17Z"/><line class="cls-19" x1="493.74" y1="288.23" x2="493.74" y2="293.74"/><line class="cls-19" x1="493.74" y1="277.66" x2="493.74" y2="272.3"/><line class="cls-19" x1="483.06" y1="288.23" x2="483.06" y2="293.74"/><line class="cls-19" x1="483.06" y1="277.66" x2="483.06" y2="272.3"/><path class="cls-28" d="M489.6,300.81s-1.83,2.38-3.36,0"/><path class="cls-28" d="M491.5,303.2s-3.9,3.54-7.15,0"/><path class="cls-28" d="M493.69,305.16s-6.29,5.72-11.54,0"/><path class="cls-28" d="M495,307.7s-7.76,5.72-14.23,0"/><path class="cls-21" d="M356,296.1a11.41,11.41,0,1,1,17.67,0,11.41,11.41,0,0,0-17.67,0Z"/><path class="cls-22" d="M364.79,300.29A11.37,11.37,0,0,1,356,296.1a11.41,11.41,0,0,1,17.67,0A11.38,11.38,0,0,1,364.79,300.29Z"/><path class="cls-23" d="M364.79,314.73A11.41,11.41,0,0,1,356,296.1a11.41,11.41,0,0,0,17.67,0,11.41,11.41,0,0,1-8.83,18.63Z"/><rect class="cls-29" x="401.58" y="238.73" width="54.03" height="10.91" transform="translate(672.78 -184.42) rotate(90)"/><rect class="cls-30" x="339.81" y="224.82" width="22.35" height="7.24" transform="translate(579.42 -122.55) rotate(90)"/><rect class="cls-30" x="332.51" y="294.38" width="33.96" height="3.45" transform="translate(645.59 -53.38) rotate(90)"/></svg>