<?xml version="1.0" encoding="UTF-8"?>
<svg width="1224px" height="600px" viewBox="0 0 1224 600" version="1.1" xmlns="http://www.w3.org/2000/svg" xmlns:xlink="http://www.w3.org/1999/xlink">
    <!-- Generator: Sketch 51.3 (57544) - http://www.bohemiancoding.com/sketch -->
    <title>WeGrow Cover</title>
    <desc>Created with Sketch.</desc>
    <defs>
        <polygon id="path-1" points="0.429269352 0.553273375 78.711391 0.553273375 78.711391 78.4845964 0.429269352 78.4845964"></polygon>
        <polygon id="path-3" points="0.761975121 0.553273375 79.0440968 0.553273375 79.0440968 78.4845964 0.761975121 78.4845964"></polygon>
    </defs>
    <g id="Page-1" stroke="none" stroke-width="1" fill="none" fill-rule="evenodd">
        <g id="Desktop-HD-Copy-3" transform="translate(-111.000000, -83.000000)">
            <g id="WeGrow-Cover" transform="translate(111.000000, 83.000000)">
                <g id="Group-3">
                    <g id="Group-2">
                        <rect id="Rectangle-4" fill="#4FBF5C" x="0" y="0" width="1224" height="600"></rect>
                        <g id="Group" transform="translate(512.000000, 461.000000)" font-family="Lato-Bold, Lato" font-size="48" font-weight="bold">
                            <text id="WeGrow" letter-spacing="1.42999995" fill="#9BC69C">
                                <tspan x="1.55300026" y="48">WeGro</tspan>
                                <tspan x="165.207" y="48" letter-spacing="0.825">w</tspan>
                            </text>
                            <text id="WeGrow" letter-spacing="0.825" fill="#FFFFFF">
                                <tspan x="3.578" y="47">WeGrow</tspan>
                            </text>
                        </g>
                    </g>
                    <g id="Group-345" transform="translate(307.000000, 77.000000)">
                        <polygon id="Fill-1" fill="#20912D" points="336 54 336 54.049 336.009 54"></polygon>
                        <polygon id="Fill-2" fill="#20912D" points="336 54 336 54.049 336.009 54"></polygon>
                        <path d="M336,54 L336,54.049 L336.01,54 L336,54 Z M336,54.136 L336.01,54.136 L336,54.107 L336,54.136 Z" id="Fill-3" fill="#20912D"></path>
                        <polygon id="Fill-4" fill="#20912D" points="336 54.048 336.009 54.048 336 54"></polygon>
                        <polygon id="Fill-5" fill="#20912D" points="336 54.048 336.009 54.048 336 54"></polygon>
                        <polygon id="Fill-6" fill="#20912D" points="336 54.048 336.009 54.048 336 54"></polygon>
                        <polygon id="Fill-7" fill="#20912D" points="336 54 336 54.049 336.009 54"></polygon>
                        <g id="Group-344">
                            <path d="M196.479975,53.2354702 L196.461898,53.2354702 L196.461898,52.9476934 C196.461898,53.0433183 196.479975,53.1308241 196.479975,53.2354702" id="Fill-8" fill="#20912D"></path>
                            <path d="M469.708148,60.7163152 C469.98834,60.4456787 470.233283,60.17414 470.461052,59.8863632 C470.242321,60.17414 469.98834,60.4537978 469.708148,60.7163152 Z M413.81159,36.8064791 C414.836552,36.9201465 415.975398,37.0599753 417.218187,37.2079233 C415.975398,37.0599753 414.836552,36.9282656 413.81159,36.8064791 Z M336.411629,53.2178788 L336.411629,53.174577 L336.420667,53.174577 L336.411629,53.2178788 Z M336.411629,53.2963634 L336.411629,53.271104 L336.420667,53.2963634 L336.411629,53.2963634 Z M336.333898,53.2178788 L336.333898,53.174577 L336.342033,53.174577 L336.333898,53.2178788 Z M336.333898,53.3144059 L336.333898,53.271104 L336.342033,53.3144059 L336.333898,53.3144059 Z M610.883494,53.2007385 C610.262552,51.4966305 597.496629,17.9828057 552.221167,6.66568775 C543.422225,4.46360844 534.368398,3.45864476 525.297398,3.45864476 L422.602398,3.45864476 C415.817225,3.45864476 410.213379,8.73695939 409.82834,15.4830262 L408.628937,36.2038618 C408.628937,36.2038618 409.066398,36.2561848 409.872629,36.3518097 C410.143783,36.3779713 410.449283,36.413154 410.799975,36.4564559 C410.449283,36.413154 410.143783,36.3869925 409.872629,36.3518097 C409.066398,36.265206 408.628937,36.2119808 408.628937,36.2119808 C408.628937,36.2119808 406.509417,43.4307595 402.937417,43.1511017 C401.02036,43.0022516 394.120398,44.7415424 388.122475,46.3843062 L388.122475,38.3274565 C388.122475,36.5791444 386.70434,35.1546941 384.945456,35.1546941 L376.513475,35.1546941 C374.752783,35.1546941 373.316571,36.5791444 373.316571,38.3274565 L373.316571,42.0405898 C373.316571,35.8538385 365.481129,30.8461604 355.805456,30.8461604 L335.84311,30.8461604 C329.381513,30.8461604 323.366417,32.8912705 319.662456,36.2733251 C316.492667,39.1745488 311.519706,42.1289977 304.497725,41.9972879 C298.421167,41.8755015 293.763648,39.6553797 290.444725,37.2169445 C284.886071,33.1357455 276.75959,30.8461604 268.284225,30.8461604 L231.493167,30.8461604 C212.440994,30.8461604 196.952687,40.5647185 196.479975,52.6585633 C196.479975,52.7550904 196.462802,52.8425962 196.462802,52.9472423 C196.462802,53.0437693 196.479975,53.130373 196.479975,53.2359213 C196.952687,65.3396894 212.440994,75.0564433 231.493167,75.0564433 L268.284225,75.0564433 C276.75959,75.0564433 284.886071,72.7587391 290.444725,68.6685189 C293.763648,66.2481261 298.421167,64.0280043 304.497725,63.9062179 C311.519706,63.7573678 316.492667,66.728957 319.662456,69.6211595 C323.366417,73.0113332 329.381513,75.0564433 335.84311,75.0564433 L355.805456,75.0564433 C365.481129,75.0564433 373.316571,70.0316249 373.316571,63.8620139 L373.316571,68.2923341 C373.316571,70.0496673 374.752783,71.4650964 376.513475,71.4650964 L384.945456,71.4650964 C386.70434,71.4650964 388.122475,70.0496673 388.122475,68.2923341 L388.122475,60.0956554 C394.120398,61.7384192 401.02036,63.4686888 402.937417,63.3288599 C406.509417,63.0492022 408.628937,70.2679808 408.628937,70.2679808 L409.82834,90.9879142 C410.213379,97.7430023 415.817225,103.012296 422.602398,103.012296 L525.297398,103.012296 C534.368398,103.012296 543.422225,102.007332 552.221167,99.8142739 C597.496629,88.4890369 610.262552,54.9833312 610.883494,53.271104 C610.892533,53.2620828 610.892533,53.2530616 610.892533,53.2359213 C610.892533,53.2269001 610.892533,53.2178788 610.883494,53.2007385 Z" id="Fill-10" fill="#20912D"></path>
                            <path d="M196.479975,52.6589242 C196.479975,52.7545491 196.461898,52.842957 196.461898,52.9476032 L196.461898,52.6589242 L196.479975,52.6589242 Z" id="Fill-12" fill="#20912D"></path>
                            <polygon id="Fill-14" fill="#20912D" points="336.342304 53.1747574 336.333265 53.2180593 336.333265 53.1747574"></polygon>
                            <polygon id="Fill-16" fill="#20912D" points="336.420848 53.1747574 336.41181 53.2180593 336.41181 53.1747574"></polygon>
                            <polygon id="Fill-18" fill="#20912D" points="336.420848 53.2967243 336.41181 53.2967243 336.41181 53.2705628"></polygon>
                            <polygon id="Fill-20" fill="#20912D" points="336.342304 53.3143157 336.333265 53.3143157 336.333265 53.2710138"></polygon>
                            <path d="M135.121746,330.126059 L20.8909577,330.126059 C10.8899,330.126059 2.78149615,322.033124 2.78149615,312.051147 L2.78149615,28.4033048 C2.78149615,18.420425 10.8899,10.3274903 20.8909577,10.3274903 L135.121746,10.3274903 C145.123708,10.3274903 153.232112,18.420425 153.232112,28.4033048 L153.232112,312.051147 C153.232112,322.033124 145.123708,330.126059 135.121746,330.126059" id="Fill-22" fill="#20912D"></path>
                            <path d="M137.902971,325.372328 L18.1099135,325.372328 C8.10795192,325.372328 0.000451923077,317.279393 0.000451923077,307.296514 L0.000451923077,23.649574 C0.000451923077,13.6666942 8.10795192,5.57375952 18.1099135,5.57375952 L137.902971,5.57375952 C147.904933,5.57375952 156.013337,13.6666942 156.013337,23.649574 L156.013337,307.296514 C156.013337,317.279393 147.904933,325.372328 137.902971,325.372328" id="Fill-24" fill="#F7F7F7"></path>
                            <path d="M146.480742,280.955189 L9.53268462,280.955189 C7.93378077,280.955189 6.63676154,279.661546 6.63676154,278.065693 L6.63676154,56.710263 C6.63676154,55.1135074 7.93378077,53.8198647 9.53268462,53.8198647 L146.480742,53.8198647 C148.08055,53.8198647 149.376665,55.1135074 149.376665,56.710263 L149.376665,278.065693 C149.376665,279.661546 148.08055,280.955189 146.480742,280.955189" id="Fill-26" fill="#272C42"></path>
                            <path d="M144.167258,276.409307 L11.8468923,276.409307 C11.4862577,276.409307 11.1952192,276.117921 11.1952192,275.758877 L11.1952192,59.0168982 C11.1952192,58.6578537 11.4862577,58.3664684 11.8468923,58.3664684 L144.167258,58.3664684 C144.526085,58.3664684 144.818027,58.6578537 144.818027,59.0168982 L144.818027,275.758877 C144.818027,276.117921 144.526085,276.409307 144.167258,276.409307" id="Fill-28" fill="#FFFFFF"></path>
                            <path d="M144.167258,80.14856 L11.8468923,80.14856 C11.4862577,80.14856 11.1952192,79.8571747 11.1952192,79.4981302 L11.1952192,59.0163569 C11.1952192,58.6573124 11.4862577,58.3668292 11.8468923,58.3668292 L144.167258,58.3668292 C144.526085,58.3668292 144.818027,58.6573124 144.818027,59.0163569 L144.818027,79.4981302 C144.818027,79.8571747 144.526085,80.14856 144.167258,80.14856" id="Fill-30" fill="#CCCCCC"></path>
                            <path d="M105.037046,74.1112001 L50.9762,74.1112001 C49.46045,74.1112001 48.2303154,72.8843144 48.2303154,71.3705541 L48.2303154,67.1441135 C48.2303154,65.6303531 49.46045,64.4034674 50.9762,64.4034674 L105.037046,64.4034674 C106.5537,64.4034674 107.782027,65.6303531 107.782027,67.1441135 L107.782027,71.3705541 C107.782027,72.8843144 106.5537,74.1112001 105.037046,74.1112001" id="Fill-32" fill="#7F7F7F"></path>
                            <path d="M79.675575,101.346618 L24.0546904,101.346618 C20.9617288,101.346618 18.4553635,98.8441321 18.4553635,95.7570713 L18.4553635,93.0669441 C18.4553635,89.9798834 20.9617288,87.4773975 24.0546904,87.4773975 L79.675575,87.4773975 C82.7685365,87.4773975 85.2758058,89.9798834 85.2758058,93.0669441 L85.2758058,95.7570713 C85.2758058,98.8441321 82.7685365,101.346618 79.675575,101.346618" id="Fill-34" fill="#7F7F7F"></path>
                            <path d="M129.230838,122.545127 L25.3816269,122.545127 C21.5556462,122.545127 18.45455,119.449947 18.45455,115.631266 L18.45455,115.588866 C18.45455,111.771086 21.5556462,108.675004 25.3816269,108.675004 L129.230838,108.675004 C133.055915,108.675004 136.157012,111.771086 136.157012,115.588866 L136.157012,115.631266 C136.157012,119.449947 133.055915,122.545127 129.230838,122.545127 Z" id="Stroke-36" stroke="#7F7F7F" stroke-width="2"></path>
                            <path d="M92.2816981,304.265024 C92.2816981,312.134232 85.8906019,318.513135 78.0063519,318.513135 C70.1221019,318.513135 63.7310058,312.134232 63.7310058,304.265024 C63.7310058,296.395815 70.1221019,290.016912 78.0063519,290.016912 C85.8906019,290.016912 92.2816981,296.395815 92.2816981,304.265024 Z" id="Stroke-38" stroke="#D0D7E2" stroke-width="2"></path>
                            <path d="M91.7291769,304.265024 C91.7291769,311.829315 85.5848308,317.961939 78.0060808,317.961939 C70.4282346,317.961939 64.2838885,311.829315 64.2838885,304.265024 C64.2838885,296.700732 70.4282346,290.568108 78.0060808,290.568108 C85.5848308,290.568108 91.7291769,296.700732 91.7291769,304.265024" id="Fill-40" fill="#F7F7F7"></path>
                            <path d="M97.8177558,35.9626344 L68.8919673,35.9626344 C67.6907558,35.9626344 66.7173135,34.9901471 66.7173135,33.7912272 L66.7173135,33.7776954 C66.7173135,32.5787755 67.6907558,31.6071903 68.8919673,31.6071903 L97.8177558,31.6071903 C99.0189673,31.6071903 99.9924096,32.5787755 99.9924096,33.7776954 L99.9924096,33.7912272 C99.9924096,34.9901471 99.0189673,35.9626344 97.8177558,35.9626344" id="Fill-42" fill="#282828"></path>
                            <path d="M60.2216423,33.7848222 C60.2216423,34.9431465 59.2816423,35.8813532 58.1211038,35.8813532 C56.9614692,35.8813532 56.0205654,34.9431465 56.0205654,33.7848222 C56.0205654,32.6264978 56.9614692,31.6882911 58.1211038,31.6882911 C59.2816423,31.6882911 60.2216423,32.6264978 60.2216423,33.7848222" id="Fill-44" fill="#282828"></path>
                            <path d="M79.6428558,20.4763606 C79.6428558,21.3784823 78.9098365,22.1101031 78.0059904,22.1101031 C77.1021442,22.1101031 76.3700288,21.3784823 76.3700288,20.4763606 C76.3700288,19.5742388 77.1021442,18.842618 78.0059904,18.842618 C78.9098365,18.842618 79.6428558,19.5742388 79.6428558,20.4763606" id="Fill-46" fill="#282828"></path>
                            <path d="M136.157102,94.2692921 C136.157102,98.0203145 133.11114,101.061367 129.352948,101.061367 C125.592948,101.061367 122.546987,98.0203145 122.546987,94.2692921 C122.546987,90.5182696 125.592948,87.4772171 129.352948,87.4772171 C133.11114,87.4772171 136.157102,90.5182696 136.157102,94.2692921" id="Fill-48" fill="#7F7F7F"></path>
                            <path d="M51.6554404,179.622373 L21.5645942,179.622373 C19.621325,179.622373 18.0450173,178.049073 18.0450173,176.108609 L18.0450173,134.753541 C18.0450173,132.813077 19.621325,131.240679 21.5645942,131.240679 L51.6554404,131.240679 C53.5987096,131.240679 55.1759212,132.813077 55.1759212,134.753541 L55.1759212,176.108609 C55.1759212,178.049073 53.5987096,179.622373 51.6554404,179.622373" id="Fill-50" fill="#D3D3D3"></path>
                            <path d="M48.9509519,175.367245 L24.2687212,175.367245 C22.3516635,175.367245 20.7979519,173.815596 20.7979519,171.902195 L20.7979519,171.880544 C20.7979519,169.967144 22.3516635,168.415494 24.2687212,168.415494 L48.9509519,168.415494 C50.8680096,168.415494 52.422625,169.967144 52.422625,171.880544 L52.422625,171.902195 C52.422625,173.815596 50.8680096,175.367245 48.9509519,175.367245" id="Fill-52" fill="#81A577"></path>
                            <path d="M93.0523173,179.622373 L62.9605673,179.622373 C61.0172981,179.622373 59.4409904,178.049073 59.4409904,176.108609 L59.4409904,134.753541 C59.4409904,132.813077 61.0172981,131.240679 62.9605673,131.240679 L93.0523173,131.240679 C94.9955865,131.240679 96.5718942,132.813077 96.5718942,134.753541 L96.5718942,176.108609 C96.5718942,178.049073 94.9955865,179.622373 93.0523173,179.622373" id="Fill-54" fill="#D3D3D3"></path>
                            <path d="M90.346925,175.367245 L65.6655981,175.367245 C63.7485404,175.367245 62.1948288,173.815596 62.1948288,171.902195 L62.1948288,171.880544 C62.1948288,169.967144 63.7485404,168.415494 65.6655981,168.415494 L90.346925,168.415494 C92.2648865,168.415494 93.8185981,169.967144 93.8185981,171.880544 L93.8185981,171.902195 C93.8185981,173.815596 92.2648865,175.367245 90.346925,175.367245" id="Fill-56" fill="#E2D67D"></path>
                            <path d="M133.603556,179.622373 L103.511806,179.622373 C101.568537,179.622373 99.9922288,178.049073 99.9922288,176.108609 L99.9922288,134.753541 C99.9922288,132.813077 101.568537,131.240679 103.511806,131.240679 L133.603556,131.240679 C135.546825,131.240679 137.123133,132.813077 137.123133,134.753541 L137.123133,176.108609 C137.123133,178.049073 135.546825,179.622373 133.603556,179.622373" id="Fill-58" fill="#D3D3D3"></path>
                            <path d="M130.898163,175.367245 L106.216837,175.367245 C104.299779,175.367245 102.746067,173.815596 102.746067,171.902195 L102.746067,171.880544 C102.746067,169.967144 104.299779,168.415494 106.216837,168.415494 L130.898163,168.415494 C132.815221,168.415494 134.369837,169.967144 134.369837,171.880544 L134.369837,171.902195 C134.369837,173.815596 132.815221,175.367245 130.898163,175.367245" id="Fill-60" fill="#BC7171"></path>
                            <path d="M51.6554404,233.499523 L21.5645942,233.499523 C19.621325,233.499523 18.0450173,231.927124 18.0450173,229.98666 L18.0450173,188.630691 C18.0450173,186.690227 19.621325,185.117829 21.5645942,185.117829 L51.6554404,185.117829 C53.5987096,185.117829 55.1759212,186.690227 55.1759212,188.630691 L55.1759212,229.98666 C55.1759212,231.927124 53.5987096,233.499523 51.6554404,233.499523" id="Fill-62" fill="#D3D3D3"></path>
                            <path d="M48.9509519,229.244395 L24.2687212,229.244395 C22.3516635,229.244395 20.7979519,227.692745 20.7979519,225.779345 L20.7979519,225.757694 C20.7979519,223.844293 22.3516635,222.293546 24.2687212,222.293546 L48.9509519,222.293546 C50.8680096,222.293546 52.422625,223.844293 52.422625,225.757694 L52.422625,225.779345 C52.422625,227.692745 50.8680096,229.244395 48.9509519,229.244395" id="Fill-64" fill="#81A577"></path>
                            <path d="M93.0523173,233.499523 L62.9605673,233.499523 C61.0172981,233.499523 59.4409904,231.927124 59.4409904,229.98666 L59.4409904,188.630691 C59.4409904,186.690227 61.0172981,185.117829 62.9605673,185.117829 L93.0523173,185.117829 C94.9955865,185.117829 96.5718942,186.690227 96.5718942,188.630691 L96.5718942,229.98666 C96.5718942,231.927124 94.9955865,233.499523 93.0523173,233.499523" id="Fill-66" fill="#D3D3D3"></path>
                            <path d="M90.346925,229.244395 L65.6655981,229.244395 C63.7485404,229.244395 62.1948288,227.692745 62.1948288,225.779345 L62.1948288,225.757694 C62.1948288,223.844293 63.7485404,222.293546 65.6655981,222.293546 L90.346925,222.293546 C92.2648865,222.293546 93.8185981,223.844293 93.8185981,225.757694 L93.8185981,225.779345 C93.8185981,227.692745 92.2648865,229.244395 90.346925,229.244395" id="Fill-68" fill="#81A577"></path>
                            <path d="M133.603556,233.499523 L103.511806,233.499523 C101.568537,233.499523 99.9922288,231.927124 99.9922288,229.98666 L99.9922288,188.630691 C99.9922288,186.690227 101.568537,185.117829 103.511806,185.117829 L133.603556,185.117829 C135.546825,185.117829 137.123133,186.690227 137.123133,188.630691 L137.123133,229.98666 C137.123133,231.927124 135.546825,233.499523 133.603556,233.499523" id="Fill-70" fill="#D3D3D3"></path>
                            <path d="M130.898163,229.244395 L106.216837,229.244395 C104.299779,229.244395 102.746067,227.692745 102.746067,225.779345 L102.746067,225.757694 C102.746067,223.844293 104.299779,222.293546 106.216837,222.293546 L130.898163,222.293546 C132.815221,222.293546 134.369837,223.844293 134.369837,225.757694 L134.369837,225.779345 C134.369837,227.692745 132.815221,229.244395 130.898163,229.244395" id="Fill-72" fill="#E2D67D"></path>
                            <path d="M55.1754692,276.409307 L18.0454692,276.409307 L18.0454692,242.50757 C18.0454692,240.568008 19.6208731,238.994707 21.5641423,238.994707 L51.6549885,238.994707 C53.5991615,238.994707 55.1754692,240.568008 55.1754692,242.50757 L55.1754692,276.409307 Z" id="Fill-74" fill="#D3D3D3"></path>
                            <path d="M96.5714423,276.409307 L59.4414423,276.409307 L59.4414423,242.50757 C59.4414423,240.568008 61.0168462,238.994707 62.9601154,238.994707 L93.0518654,238.994707 C94.9960385,238.994707 96.5714423,240.568008 96.5714423,242.50757 L96.5714423,276.409307 Z" id="Fill-76" fill="#D3D3D3"></path>
                            <path d="M137.122771,276.409307 L99.9927712,276.409307 L99.9927712,242.50757 C99.9927712,240.568008 101.568175,238.994707 103.511444,238.994707 L133.603194,238.994707 C135.547367,238.994707 137.122771,240.568008 137.122771,242.50757 L137.122771,276.409307 Z" id="Fill-78" fill="#D3D3D3"></path>
                            <polygon id="Fill-80" fill="#626B6A" points="336.332542 50.1371329 336.332542 50.0929289 336.343388 50.0929289"></polygon>
                            <polygon id="Fill-82" fill="#AAAAAA" points="336.332542 50.1371329 336.332542 50.0929289 336.343388 50.0929289"></polygon>
                            <path d="M388.125367,57.0109402 C394.122387,58.6546061 401.02054,60.3866799 402.933983,60.2432426 C406.505983,59.9644869 408.630925,67.1832655 408.630925,67.1832655 C408.630925,67.1832655 465.675367,60.7529414 469.246463,58.0104911 C472.81756,55.2671387 472.094483,50.1927036 472.094483,50.1927036 C472.094483,50.1927036 472.106233,50.1701506 472.106233,50.114219 C472.172213,49.4935592 472.573521,44.8512404 469.246463,42.2964315 C465.675367,39.5539813 408.630925,33.1236571 408.630925,33.1236571 C408.630925,33.1236571 406.505983,40.3424357 402.933983,40.0645822 C401.02054,39.9202427 394.122387,41.6532187 388.125367,43.2959825 L388.125367,57.0109402 Z M336.421752,50.0925681 L336.410002,50.0925681 L336.410002,50.1367721 L336.421752,50.0925681 Z M336.410002,50.1818781 L336.410002,50.2143545 L336.421752,50.2143545 L336.410002,50.1818781 Z" id="Fill-84" fill="#525252"></path>
                            <polygon id="Fill-86" fill="#AAAAAA" points="336.343117 50.2260821 336.332271 50.2260821 336.332271 50.1818781"></polygon>
                            <path d="M525.299929,99.9304672 L422.599506,99.9304672 C415.817948,99.9304672 410.216813,94.6575653 409.829063,87.900673 L408.62514,67.1852502 C408.62514,67.1852502 465.672294,60.7513175 469.24791,58.0079652 C472.819006,55.2709276 472.095929,50.1883734 472.095929,50.1883734 C472.095929,50.1883734 472.101352,50.1649183 472.106775,50.11891 C472.176371,49.4955439 472.575871,44.8460081 469.24791,42.2930035 C465.672294,39.5559659 408.62514,33.1220333 408.62514,33.1220333 L409.829063,12.4011977 C410.216813,5.64971818 415.817948,0.371403544 422.599506,0.371403544 L525.299929,0.371403544 C534.367313,0.371403544 543.422948,1.38177996 552.217371,3.58205502 C597.495544,14.9018793 610.265987,48.4093892 610.884217,50.11891 C610.896871,50.1306376 610.896871,50.1423652 610.896871,50.1531907 C610.896871,50.1649183 610.896871,50.1766458 610.884217,50.1883734 C610.265987,51.8978942 597.495544,85.4054041 552.217371,96.7252285 C543.422948,98.9191887 534.367313,99.9304672 525.299929,99.9304672" id="Fill-88" fill="#616A69"></path>
                            <polygon id="Fill-90" fill="#626B6A" points="336.343117 50.2260821 336.332271 50.2260821 336.332271 50.1818781"></polygon>
                            <polygon id="Fill-92" fill="#AAAAAA" points="336.343117 50.2260821 336.332271 50.2260821 336.332271 50.1818781"></polygon>
                            <polygon id="Fill-94" fill="#AAAAAA" points="336.332542 50.1371329 336.332542 50.0929289 336.343388 50.0929289"></polygon>
                            <path d="M384.943377,68.3826365 L376.509588,68.3826365 C374.751608,68.3826365 373.3163,66.9608925 373.3163,65.2062656 L373.3163,35.2449965 C373.3163,33.4903696 374.751608,32.0695278 376.509588,32.0695278 L384.943377,32.0695278 C386.700454,32.0695278 388.125819,33.4903696 388.125819,35.2449965 L388.125819,65.2062656 C388.125819,66.9608925 386.700454,68.3826365 384.943377,68.3826365" id="Fill-96" fill="#FBEFDA"></path>
                            <path d="M196.475546,50.1481388 L196.463796,50.1481388 L196.463796,49.8594598 C196.463796,49.9595953 196.475546,50.0480033 196.475546,50.1481388" id="Fill-98" fill="#FFE09B"></path>
                            <path d="M336.332542,50.2260821 L336.332542,50.1818781 L336.343388,50.2260821 L336.332542,50.2260821 Z M336.422023,50.2143545 L336.410273,50.2143545 L336.410273,50.1818781 L336.422023,50.2143545 Z M336.343388,50.0925681 L336.332542,50.1367721 L336.332542,50.0925681 L336.343388,50.0925681 Z M336.422023,50.0925681 L336.410273,50.1367721 L336.410273,50.0925681 L336.422023,50.0925681 Z M335.842658,71.9699238 L355.803196,71.9699238 C365.483388,71.9699238 373.316119,66.9505181 373.316119,60.7754944 L373.316119,38.9540703 C373.316119,32.7682211 365.483388,27.760543 355.803196,27.760543 L335.842658,27.760543 C329.37835,27.760543 323.370485,29.8038489 319.665619,33.1904141 C316.494023,36.0889314 311.521062,39.0433803 304.499985,38.9098663 C298.425235,38.7880799 293.763196,36.567056 290.446985,34.1349356 C284.884715,30.0483239 276.762754,27.760543 268.283773,27.760543 L231.490004,27.760543 C212.441446,27.760543 196.954042,37.4772969 196.475908,49.5702396 C196.475908,49.6703751 196.464158,49.7596851 196.464158,49.8598207 C196.464158,49.9599562 196.475908,50.0483641 196.475908,50.1484996 C196.954042,62.2531699 212.441446,71.9699238 231.490004,71.9699238 L268.283773,71.9699238 C276.762754,71.9699238 284.884715,69.6704153 290.446985,65.5838036 C293.763196,63.1634108 298.425235,60.9423869 304.499985,60.8206005 C311.521062,60.6753589 316.494023,63.6406332 319.665619,66.5391506 C323.370485,69.9257158 329.37835,71.9699238 335.842658,71.9699238 Z" id="Fill-100" fill="#FFE09B"></path>
                            <path d="M196.475546,49.5706004 C196.475546,49.6707359 196.463796,49.7591439 196.463796,49.8592794 L196.463796,49.5706004 L196.475546,49.5706004 Z" id="Fill-102" fill="#FFE09B"></path>
                            <polygon id="Fill-104" fill="#FFE09B" points="336.343117 50.0926583 336.332271 50.1368623 336.332271 50.0926583"></polygon>
                            <polygon id="Fill-106" fill="#FFE09B" points="336.421662 50.0926583 336.409912 50.1368623 336.409912 50.0926583"></polygon>
                            <polygon id="Fill-108" fill="#FFE09B" points="336.410183 50.2146252 336.410183 50.1812467 336.421933 50.2146252"></polygon>
                            <polygon id="Fill-110" fill="#FFE09B" points="336.343117 50.2260821 336.332271 50.2260821 336.332271 50.1818781"></polygon>
                            <path d="M439.248352,151.156642 C443.531679,161.623059 438.503583,173.573466 428.016256,177.848621 C417.530737,182.123776 405.557487,177.104371 401.273256,166.638856 C396.989929,156.172439 402.018929,144.222031 412.505352,139.946876 C422.991775,135.671721 434.965025,140.690224 439.248352,151.156642" id="Fill-112" fill="#20912D"></path>
                            <path d="M438.731081,149.892949 C443.014408,160.359366 437.986312,172.309774 427.498985,176.584929 C417.013465,180.860084 405.040215,175.841581 400.755985,165.374261 C396.472658,154.908747 401.501658,142.958339 411.988081,138.682282 C422.474504,134.407127 434.447754,139.426532 438.731081,149.892949" id="Fill-114" fill="#5660A5"></path>
                            <path d="M418.278037,142.753918 L420.18244,140.493201 C420.624421,139.968166 421.476748,140.177458 421.624979,140.845931 L422.328171,144.016889 L425.34521,145.236557 C425.980613,145.494564 426.046594,146.367818 425.454575,146.715135 L422.64994,148.363312 L422.420363,151.603733 C422.371556,152.286639 421.558998,152.61862 421.045613,152.163951 L418.60794,150.010586 L415.448998,150.79453 C414.783767,150.959618 414.217056,150.290244 414.490921,149.662367 L415.671344,146.953295 C415.744556,146.784598 415.730998,146.58974 415.632479,146.433673 L414.067017,143.927579 C413.702767,143.34571 414.165537,142.60146 414.848844,142.667315 L417.795383,142.951483 C417.978863,142.968623 418.159633,142.895551 418.278037,142.753918" id="Fill-116" fill="#3B4263"></path>
                            <path d="M444.43661,174.506531 C454.888687,166.841202 469.587937,169.083877 477.267917,179.516915 C484.947898,189.948149 482.700937,204.619356 472.24886,212.284685 C461.796783,219.950014 447.096629,217.707339 439.417552,207.275203 C431.737571,196.843066 433.985437,182.17186 444.43661,174.506531" id="Fill-118" fill="#20912D"></path>
                            <path d="M443.773729,172.887312 C454.225806,165.221983 468.925056,167.464658 476.605037,177.897697 C484.285017,188.328931 482.038056,203.000138 471.585979,210.665467 C461.133902,218.330796 446.434652,216.088121 438.754671,205.655082 C431.07469,195.223848 433.322556,180.552641 443.773729,172.887312" id="Fill-120" fill="#5660A5"></path>
                            <path d="M441.531738,197.548526 L438.484873,196.067242 C437.778065,195.724435 437.772642,194.721276 438.474931,194.370351 L441.808315,192.705936 L442.324412,189.022572 C442.432873,188.244943 443.387335,187.931005 443.938681,188.489419 L446.555315,191.13895 L450.224027,190.490325 C450.998623,190.353202 451.593354,191.162405 451.230912,191.857941 L449.514508,195.159707 L451.267065,198.442528 C451.635835,199.135358 451.049238,199.949072 450.274642,199.821873 L446.931315,199.267068 C446.722527,199.232787 446.510123,199.30225 446.3637,199.454709 L444.010988,201.889536 C443.465969,202.453362 442.507892,202.149347 442.390392,201.373522 L441.886046,198.028454 C441.853508,197.820966 441.721546,197.640542 441.531738,197.548526" id="Fill-122" fill="#3B4263"></path>
                            <path d="M475.671363,132.596207 C483.085613,138.018861 484.691748,148.414011 479.258729,155.813214 C473.82571,163.214221 463.411594,164.816389 455.99644,159.394637 C448.58219,153.971983 446.97696,143.576834 452.409979,136.176729 C457.842094,128.776624 468.257113,127.173553 475.671363,132.596207" id="Fill-124" fill="#20912D"></path>
                            <path d="M478.360848,155.16116 C473.038098,162.409709 462.939425,164.098481 455.560425,159.063739 C455.538733,159.050207 455.517944,159.034871 455.503483,159.018633 C455.490829,159.007808 455.472752,158.999688 455.461002,158.989765 C455.342598,158.907672 455.224194,158.825579 455.104887,158.737171 C448.040425,153.573426 446.251713,143.892757 450.790829,136.588277 C451.012271,136.230134 451.25631,135.870188 451.512098,135.521067 C451.665752,135.312676 451.821213,135.111503 451.982098,134.907624 C452.42679,134.359134 452.891367,133.847631 453.387579,133.369506 C453.981406,132.797561 454.607771,132.282449 455.267579,131.814248 C460.951867,127.757406 468.828887,127.595024 474.77529,131.942349 C474.90906,132.041583 475.041021,132.139914 475.173887,132.239147 C475.197387,132.259896 475.220887,132.281547 475.252521,132.29959 C482.257329,137.807945 483.679983,147.921633 478.360848,155.16116" id="Fill-126" fill="#5660A5"></path>
                            <path d="M459.935312,133.748578 L458.693427,136.077856 L459.911812,138.416156 C460.176638,138.913225 459.750023,139.48517 459.203196,139.386839 L456.600119,138.931267 L454.751754,140.810387 C454.361292,141.207321 453.687023,140.984497 453.607485,140.434202 L453.272158,138.058013 C453.251369,137.913674 453.15285,137.785573 453.024504,137.715207 L451.781715,137.096352 L450.876062,136.645291 C450.844427,136.627248 450.8146,136.609206 450.7911,136.588457 C451.012542,136.229413 451.255677,135.870368 451.512369,135.520345 C451.666023,135.312857 451.820581,135.111684 451.982369,134.907804 L453.038062,134.392693 C453.174542,134.330446 453.266735,134.199639 453.284812,134.055299 L453.38785,133.369686 C453.981677,132.797741 454.607138,132.28263 455.26785,131.813526 L456.012619,132.583036 L456.623619,133.214522 L459.229408,132.772482 C459.777138,132.68678 460.195619,133.259628 459.935312,133.748578" id="Fill-128" fill="#3B4263"></path>
                            <path d="M323.854313,254.361089 L207.93966,272.08688 C206.710429,272.274522 205.559833,271.432842 205.371833,270.204152 L187.132217,151.389299 C186.943313,150.162413 187.78841,149.014012 189.01764,148.826371 L304.932294,131.099677 C306.162429,130.912036 307.312121,131.754618 307.500121,132.982406 L325.739737,251.797259 C325.92864,253.025047 325.083544,254.172546 323.854313,254.361089" id="Fill-130" fill="#20912D"></path>
                            <path d="M324.810312,251.281155 L205.76835,269.485973 C204.538215,269.673614 203.388523,268.831033 203.199619,267.603245 L184.960004,148.787489 C184.7711,147.560604 185.616196,146.412203 186.845427,146.224561 L305.888292,128.019743 C307.118427,127.832102 308.268119,128.674684 308.457023,129.902472 L326.696638,248.717325 C326.884638,249.945113 326.040446,251.092612 324.810312,251.281155" id="Fill-132" fill="#FCF49C"></path>
                            <path d="M575.671727,136.435547 C577.317631,144.178459 569.317688,152.432873 557.801785,154.872211 C546.284977,157.310646 535.615073,153.012035 533.968265,145.269124 L549.529785,146.564571 L554.419592,138.968705 L561.935073,143.718377 L575.671727,136.435547 Z" id="Fill-134" fill="#08A300"></path>
                            <path d="M547.957002,156.413035 L573.46354,152.791918 C579.878137,151.880775 586.393963,153.551504 591.575713,157.434236 C599.704906,163.527167 603.204598,174.007116 600.36381,183.749129 L587.963944,226.282368 C586.207771,232.305835 578.959829,234.717207 573.93354,230.949946 L536.013579,202.529501 C527.904271,196.451906 524.40006,186.006238 527.206502,176.279561 L527.919637,173.806845 C530.583271,164.576335 538.428656,157.766217 547.957002,156.413035" id="Fill-136" fill="#20912D"></path>
                            <path d="M547.081446,154.66382 L572.587081,151.042704 C579.002581,150.131561 585.517504,151.80229 590.700158,155.685022 C598.828446,161.777953 602.328138,172.257 599.48735,181.999013 L587.088388,224.533154 C585.331312,230.555719 578.083369,232.967992 573.057081,229.201634 L535.137119,200.780287 C527.027812,194.70179 523.5236,184.257024 526.330042,174.530347 L527.043177,172.058533 C529.706812,162.827121 537.552196,156.017003 547.081446,154.66382" id="Fill-138" fill="#E05353"></path>
                            <path d="M552.503619,154.540049 L564.167754,152.467876 C567.101638,151.946449 570.2886,153.534184 573.025446,156.881958 C577.320523,162.133209 579.79435,170.802599 579.239388,178.652863 L576.813465,212.92447 C576.470004,217.777885 573.264965,219.493721 570.609465,216.246985 L550.576619,191.749867 C546.292388,186.510344 543.818562,177.868017 544.359965,170.030383 L544.49735,168.038498 C545.010735,160.598699 548.145273,155.31407 552.503619,154.540049" id="Fill-140" fill="#F29999"></path>
                            <path d="M556.287571,157.190483 L562.948917,156.006899 C564.624648,155.709199 566.44409,156.615832 568.007744,158.527428 C570.459879,161.526081 571.87259,166.476925 571.55534,170.959568 L570.169744,190.531101 C569.974513,193.301517 568.143321,194.282123 566.626667,192.428263 L555.18759,178.43906 C552.740879,175.447624 551.329071,170.512116 551.637283,166.035787 L551.715917,164.898212 C552.009667,160.65012 553.799283,157.632523 556.287571,157.190483" id="Fill-142" fill="#ED4343"></path>
                            <g id="Group-146" transform="translate(445.596154, 254.398347)">
                                <mask id="mask-2" fill="white">
                                    <use xlink:href="#path-1"></use>
                                </mask>
                                <g id="Clip-145"></g>
                                <path d="M12.1280788,17.6774375 L45.8903481,2.3242266 C50.3137712,0.314299234 55.3246942,0.00306721411 59.9632327,1.45277694 C69.8657712,4.54705471 75.6738865,14.7698989 73.2497712,24.8402845 L72.4317904,28.2412837 C71.7511942,31.0694355 71.7060019,34.0112547 72.3007327,36.8583511 L78.4929827,66.5002691 C80.112675,74.2567123 72.4335981,80.6942535 65.0600212,77.7623576 L23.7560596,61.3374261 C22.6949442,60.9161352 21.6735981,60.4028279 20.7010596,59.803819 L9.79977115,53.092935 C2.77055962,48.7645546 -0.812286538,40.5245741 0.819155769,32.443367 L0.969194231,31.7018229 C2.22011731,25.5114631 6.37057885,20.2944928 12.1280788,17.6774375" id="Fill-144" fill="#20912D" mask="url(#mask-2)"></path>
                            </g>
                            <g id="Group-149" transform="translate(443.788462, 254.398347)">
                                <mask id="mask-4" fill="white">
                                    <use xlink:href="#path-3"></use>
                                </mask>
                                <g id="Clip-148"></g>
                                <path d="M12.4607846,17.6774375 L46.2239577,2.3242266 C50.6464769,0.314299234 55.6574,0.00306721411 60.2959385,1.45277694 C70.1984769,4.54705471 76.0065923,14.7698989 73.5824769,24.8402845 L72.7644962,28.2412837 C72.0839,31.0694355 72.0387077,34.0112547 72.6334385,36.8583511 L78.8256885,66.5002691 C80.4453808,74.2567123 72.7663038,80.6942535 65.3927269,77.7623576 L24.0887654,61.3374261 C23.02765,60.9161352 22.0063038,60.4028279 21.0337654,59.803819 L10.1324769,53.092935 C3.10326538,48.7645546 -0.479580769,40.5245741 1.15186154,32.443367 L1.3019,31.7018229 C2.55282308,25.5114631 6.70328462,20.2944928 12.4607846,17.6774375" id="Fill-147" fill="#E05353" mask="url(#mask-4)"></path>
                            </g>
                            <polygon id="Fill-150" fill="#EDEA83" points="453.431867 278.231232 452.878713 280.769803 454.538175 282.536157 454.538175 280.383695"></polygon>
                            <polygon id="Fill-152" fill="#EDEA83" points="459.683681 282.536518 459.130527 285.075089 460.789988 286.841443 460.789988 284.688981"></polygon>
                            <polygon id="Fill-154" fill="#EDEA83" points="467.709744 289.611679 467.15659 292.15025 468.816052 293.916604 468.816052 291.765044"></polygon>
                            <polygon id="Fill-156" fill="#EDEA83" points="479.783683 285.700981 479.230529 288.239552 480.88999 290.005906 480.88999 287.854346"></polygon>
                            <polygon id="Fill-158" fill="#EDEA83" points="484.889871 276.078048 484.336717 278.616618 485.996179 280.382973 485.996179 278.231412"></polygon>
                            <polygon id="Fill-160" fill="#EDEA83" points="494.522431 282.536518 493.969277 285.075089 495.628738 286.841443 495.628738 284.688981"></polygon>
                            <polygon id="Fill-162" fill="#EDEA83" points="509.71744 283.548789 509.16519 286.08736 510.823748 287.853714 510.823748 285.701251"></polygon>
                            <polygon id="Fill-164" fill="#EDEA83" points="514.752135 292.869511 514.198981 295.408082 515.858442 297.174436 515.858442 295.021974"></polygon>
                            <polygon id="Fill-166" fill="#EDEA83" points="474.468344 273.470374 473.91519 276.008945 475.574652 277.7753 475.574652 275.622837"></polygon>
                            <polygon id="Fill-168" fill="#EDEA83" points="484.889871 265.67108 484.336717 268.209651 485.996179 269.976006 485.996179 267.823543"></polygon>
                            <polygon id="Fill-170" fill="#EDEA83" points="493.6927 257.871786 493.139546 260.410357 494.799008 262.176712 494.799008 260.024249"></polygon>
                            <polygon id="Fill-172" fill="#EDEA83" points="494.522431 269.165088 493.969277 271.703659 495.628738 273.470013 495.628738 271.317551"></polygon>
                            <polygon id="Fill-174" fill="#EDEA83" points="506.963512 271.31728 506.411262 273.855851 508.070723 275.622205 508.070723 273.470645"></polygon>
                            <polygon id="Fill-176" fill="#EDEA83" points="506.134685 262.177163 505.581531 264.715733 507.240992 266.482088 507.240992 264.330527"></polygon>
                            <polygon id="Fill-178" fill="#EDEA83" points="465.921485 275.622657 465.369235 278.162129 467.028696 279.928484 467.028696 277.776021"></polygon>
                            <polygon id="Fill-180" fill="#EDEA83" points="453.431867 290.716417 452.878713 293.254988 454.538175 295.021342 454.538175 292.869782"></polygon>
                            <polygon id="Fill-182" fill="#EDEA83" points="462.310529 297.052379 461.757375 299.59095 463.416837 301.357305 463.416837 299.204842"></polygon>
                            <polygon id="Fill-184" fill="#EDEA83" points="475.297985 297.052379 474.744831 299.59095 476.404292 301.357305 476.404292 299.204842"></polygon>
                            <polygon id="Fill-186" fill="#EDEA83" points="491.203598 294.899285 490.651348 297.437856 492.309906 299.204211 492.309906 297.05265"></polygon>
                            <polygon id="Fill-188" fill="#EDEA83" points="504.475313 292.869511 503.92216 295.408082 505.581621 297.174436 505.581621 295.021974"></polygon>
                            <polygon id="Fill-190" fill="#EDEA83" points="500.397431 303.462406 499.844277 306.000977 501.503738 307.767331 501.503738 305.615771"></polygon>
                            <polygon id="Fill-192" fill="#EDEA83" points="506.963512 313.636806 506.411262 316.175377 508.070723 317.941731 508.070723 315.789269"></polygon>
                            <polygon id="Fill-194" fill="#EDEA83" points="517.378983 317.857563 516.825829 320.396134 518.48529 322.162489 518.48529 320.010928"></polygon>
                            <polygon id="Fill-196" fill="#EDEA83" points="508.88771 304.084419 508.33546 306.62299 509.994017 308.389344 509.994017 306.236881"></polygon>
                            <polygon id="Fill-198" fill="#EDEA83" points="517.378983 307.178336 516.825829 309.716906 518.48529 311.483261 518.48529 309.3317"></polygon>
                            <polygon id="Fill-200" fill="#EDEA83" points="482.538515 301.931234 481.986265 304.469805 483.644823 306.23616 483.644823 304.084599"></polygon>
                            <polygon id="Fill-202" fill="#EDEA83" points="479.783683 311.483712 479.230529 314.022283 480.88999 315.788637 480.88999 313.637077"></polygon>
                            <polygon id="Fill-204" fill="#EDEA83" points="491.203598 309.33152 490.651348 311.870091 492.309906 313.636445 492.309906 311.483983"></polygon>
                            <polygon id="Fill-206" fill="#EDEA83" points="490.373867 317.857563 489.821617 320.396134 491.480175 322.162489 491.480175 320.010928"></polygon>
                            <polygon id="Fill-208" fill="#EDEA83" points="498.737969 318.899785 498.185719 321.438355 499.844277 323.20471 499.844277 321.052247"></polygon>
                            <polygon id="Fill-210" fill="#EDEA83" points="510.547171 325.234935 509.994017 327.773506 511.653479 329.53986 511.653479 327.3883"></polygon>
                            <polygon id="Fill-212" fill="#EDEA83" points="468.538571 309.33152 467.986321 311.870091 469.645783 313.636445 469.645783 311.483983"></polygon>
                            <polygon id="Fill-214" fill="#EDEA83" points="458.85404 303.462406 458.300887 306.000977 459.960348 307.767331 459.960348 305.615771"></polygon>
                            <path d="M483.022163,243.676539 C488.159625,254.176335 483.748856,266.867384 473.171144,272.023912 C462.591625,277.181343 449.851913,272.849354 444.714452,262.35046 L461.065933,261.75957 L462.61874,250.460495 L472.362202,255.901191 L483.022163,243.676539 Z" id="Fill-216" fill="#08A300"></path>
                            <path d="M577.779496,266.471894 L557.763823,257.370387 C555.141765,256.178684 552.171727,255.994651 549.422227,256.853471 C543.550842,258.687485 540.108092,264.747939 541.545208,270.718181 L542.029669,272.734423 C542.434592,274.410566 542.4599,276.155269 542.1074,277.842237 L538.436881,295.41557 C537.476092,300.014587 542.028765,303.82966 546.400669,302.091271 L570.885862,292.35467 C571.514938,292.104783 572.121419,291.800768 572.698073,291.446234 L579.159669,287.466974 C583.327304,284.90134 585.451342,280.016351 584.484227,275.226084 L584.394746,274.785848 C583.653592,271.115115 581.193323,268.023543 577.779496,266.471894" id="Fill-218" fill="#20912D"></path>
                            <path d="M578.654238,266.471894 L558.637662,257.370387 C556.016508,256.178684 553.045565,255.994651 550.296065,256.853471 C544.425585,258.687485 540.981931,264.747939 542.419046,270.718181 L542.904412,272.734423 C543.308431,274.410566 543.334642,276.155269 542.982142,277.842237 L539.311623,295.41557 C538.350835,300.014587 542.903508,303.82966 547.274508,302.091271 L571.760604,292.35467 C572.389681,292.104783 572.995258,291.800768 573.571912,291.446234 L580.034412,287.466974 C584.202046,284.90134 586.326085,280.016351 585.358065,275.226084 L585.269488,274.785848 C584.528335,271.115115 582.067162,268.023543 578.654238,266.471894" id="Fill-220" fill="#E05353"></path>
                            <polygon id="Fill-222" fill="#EDEA83" points="580.324275 270.120886 580.652371 271.625625 579.668987 272.672989 579.668987 271.396487"></polygon>
                            <polygon id="Fill-224" fill="#EDEA83" points="576.618777 272.673079 576.945969 274.17872 575.962585 275.225182 575.962585 273.949581"></polygon>
                            <polygon id="Fill-226" fill="#EDEA83" points="571.860388 276.867404 572.187581 278.373045 571.204196 279.420409 571.204196 278.143907"></polygon>
                            <polygon id="Fill-228" fill="#EDEA83" points="564.702831 274.549583 565.030023 276.054322 564.046638 277.101685 564.046638 275.825183"></polygon>
                            <polygon id="Fill-230" fill="#EDEA83" points="561.675308 268.844384 562.0025 270.350025 561.019115 271.396487 561.019115 270.120886"></polygon>
                            <polygon id="Fill-232" fill="#EDEA83" points="555.96544 272.673079 556.292633 274.17872 555.309248 275.225182 555.309248 273.949581"></polygon>
                            <polygon id="Fill-234" fill="#EDEA83" points="546.956987 273.27308 547.284179 274.778722 546.300794 275.825183 546.300794 274.549583"></polygon>
                            <polygon id="Fill-236" fill="#EDEA83" points="543.971763 278.798576 544.29986 280.304218 543.315571 281.351581 543.315571 280.075079"></polygon>
                            <polygon id="Fill-238" fill="#EDEA83" points="567.854 267.298237 568.181192 268.803879 567.197808 269.851242 567.197808 268.57474"></polygon>
                            <polygon id="Fill-240" fill="#EDEA83" points="561.675308 262.674863 562.0025 264.180505 561.019115 265.226966 561.019115 263.951366"></polygon>
                            <polygon id="Fill-242" fill="#EDEA83" points="556.457042 258.051489 556.784235 259.556228 555.80085 260.603592 555.80085 259.327089"></polygon>
                            <polygon id="Fill-244" fill="#EDEA83" points="555.96544 264.746045 556.292633 266.251686 555.309248 267.298147 555.309248 266.022547"></polygon>
                            <polygon id="Fill-246" fill="#EDEA83" points="548.588971 266.022637 548.917067 267.527376 547.932779 268.57474 547.932779 267.298237"></polygon>
                            <polygon id="Fill-248" fill="#EDEA83" points="549.080663 260.603682 549.40876 262.109323 548.424471 263.155784 548.424471 261.879282"></polygon>
                            <polygon id="Fill-250" fill="#EDEA83" points="572.920419 268.57483 573.247612 270.080471 572.264227 271.126933 572.264227 269.851332"></polygon>
                            <polygon id="Fill-252" fill="#EDEA83" points="580.324275 277.522886 580.652371 279.027625 579.668987 280.074988 579.668987 278.798486"></polygon>
                            <polygon id="Fill-254" fill="#EDEA83" points="575.060908 281.278509 575.389004 282.78415 574.405619 283.830612 574.405619 282.555011"></polygon>
                            <polygon id="Fill-256" fill="#EDEA83" points="567.361494 281.278509 567.68959 282.78415 566.706206 283.830612 566.706206 282.555011"></polygon>
                            <polygon id="Fill-258" fill="#EDEA83" points="557.931938 280.001917 558.260035 281.507558 557.275746 282.554921 557.275746 281.278419"></polygon>
                            <polygon id="Fill-260" fill="#EDEA83" points="550.064771 278.798576 550.391963 280.304218 549.408579 281.351581 549.408579 280.075079"></polygon>
                            <polygon id="Fill-262" fill="#EDEA83" points="552.482379 285.079058 552.809571 286.584699 551.826187 287.631161 551.826187 286.35556"></polygon>
                            <polygon id="Fill-264" fill="#EDEA83" points="548.588971 291.110193 548.917067 292.615835 547.932779 293.663198 547.932779 292.386696"></polygon>
                            <polygon id="Fill-266" fill="#EDEA83" points="542.414798 293.61304 542.742894 295.117779 541.758606 296.165143 541.758606 294.88864"></polygon>
                            <polygon id="Fill-268" fill="#EDEA83" points="547.448588 285.447304 547.775781 286.952945 546.792396 287.999407 546.792396 286.723807"></polygon>
                            <polygon id="Fill-270" fill="#EDEA83" points="542.414798 287.281498 542.742894 288.787139 541.758606 289.834503 541.758606 288.558001"></polygon>
                            <polygon id="Fill-272" fill="#EDEA83" points="563.069038 284.170712 563.397135 285.676353 562.412846 286.723716 562.412846 285.447214"></polygon>
                            <polygon id="Fill-274" fill="#EDEA83" points="564.702831 289.834593 565.030023 291.339332 564.046638 292.386696 564.046638 291.110193"></polygon>
                            <polygon id="Fill-276" fill="#EDEA83" points="557.931938 288.558001 558.260035 290.063642 557.275746 291.110103 557.275746 289.834503"></polygon>
                            <polygon id="Fill-278" fill="#EDEA83" points="558.423631 293.61304 558.751727 295.117779 557.768342 296.165143 557.768342 294.88864"></polygon>
                            <polygon id="Fill-280" fill="#EDEA83" points="553.465673 294.230633 553.792865 295.735372 552.809481 296.782735 552.809481 295.506233"></polygon>
                            <polygon id="Fill-282" fill="#EDEA83" points="546.465294 297.986256 546.792487 299.491897 545.809102 300.538358 545.809102 299.262758"></polygon>
                            <polygon id="Fill-284" fill="#EDEA83" points="571.368696 288.558001 571.695888 290.063642 570.712504 291.110103 570.712504 289.834503"></polygon>
                            <polygon id="Fill-286" fill="#EDEA83" points="577.110469 285.079058 577.437662 286.584699 576.454277 287.631161 576.454277 286.35556"></polygon>
                            <path d="M562.783062,249.635505 C559.7371,255.860145 562.351023,263.383841 568.622812,266.441132 C574.893696,269.498422 582.447138,266.930984 585.492196,260.705441 L575.798446,260.35632 L574.878331,253.657164 L569.10185,256.883151 L562.783062,249.635505 Z" id="Fill-288" fill="#08A300"></path>
                            <path d="M320.25574,219.532512 C323.004337,219.113025 325.752933,218.694441 328.501529,218.275856 C329.791317,218.080096 329.242683,216.124296 327.960125,216.318252 C325.211529,216.737739 322.462933,217.156323 319.714337,217.574908 C318.425452,217.77157 318.973183,219.72737 320.25574,219.532512" id="Fill-290" fill="#262626"></path>
                            <path d="M209.945023,181.553545 C214.150619,185.180977 216.377696,190.017252 218.6346,194.969901 C221.147292,200.481865 223.650946,205.999242 226.158215,211.513912 C226.698715,212.701105 228.452177,211.670881 227.914388,210.489102 C225.189292,204.497209 222.490408,198.491784 219.737292,192.512521 C217.605119,187.881028 215.2976,183.494911 211.383042,180.117367 C210.39785,179.267569 208.9526,180.697432 209.945023,181.553545" id="Fill-292" fill="#262626"></path>
                            <path d="M211.521421,182.156072 C215.640248,179.991882 219.757267,177.825888 223.876094,175.661698 C225.034825,175.051863 224.007152,173.299943 222.849325,173.907973 C218.732306,176.073967 214.613479,178.238157 210.494652,180.404152 C209.336825,181.012182 210.363594,182.765005 211.521421,182.156072" id="Fill-294" fill="#262626"></path>
                            <path d="M211.404915,195.674728 C215.756935,194.418975 219.993262,192.882661 224.147338,191.082026 C225.344935,190.563306 224.310031,188.814092 223.120569,189.329204 C219.130088,191.059473 215.0438,192.511889 210.864415,193.717124 C209.609877,194.078875 210.143146,196.038283 211.404915,195.674728" id="Fill-296" fill="#262626"></path>
                            <path d="M237.066554,182.459185 C232.005919,185.090675 232.099919,191.29186 233.769323,196.064084 C235.368227,200.633331 239.217708,202.400588 243.930362,201.434415 C249.317285,200.330218 249.195265,195.503867 247.627092,191.223299 C245.964919,186.68743 243.002112,181.867393 237.447977,182.999556 C236.166323,183.26027 236.708631,185.217874 237.989381,184.957161 C242.366708,184.06406 244.438323,188.453785 245.665746,191.762767 C246.352669,193.615726 247.561112,196.525971 245.923342,198.30315 C244.995996,199.309016 243.1639,199.583261 241.905746,199.609423 C238.364477,199.681593 236.450131,197.968463 235.437823,194.559345 C234.345073,190.878688 234.144419,186.266139 238.093323,184.212008 C239.253862,183.607586 238.227092,181.855666 237.066554,182.459185" id="Fill-298" fill="#262626"></path>
                            <path d="M258.974248,177.577624 C254.827402,179.535228 252.094171,184.608761 252.912152,189.203267 C253.625287,193.205982 259.486729,196.726963 263.39496,196.057589 C268.126594,195.246581 267.981075,190.33092 267.17394,186.638535 C266.589152,183.964646 265.96369,180.340823 263.739325,178.483354 C261.858421,176.911858 259.288787,177.016504 256.982171,177.20595 C255.68696,177.3124 255.676113,179.343076 256.982171,179.235724 C258.837767,179.083265 261.131729,178.790978 262.670979,180.209113 C263.968902,181.406229 264.516633,184.313767 264.938729,186.010658 C265.723267,189.169889 266.712979,195.319653 261.08744,193.959254 C258.052325,193.224926 254.780402,190.579003 254.863556,187.319637 C254.951229,183.900596 256.934267,180.778352 260.001017,179.330447 C261.182344,178.772033 260.15196,177.021917 258.974248,177.577624" id="Fill-300" fill="#262626"></path>
                            <path d="M279.425575,171.12628 C275.112421,172.078019 269.919825,177.118173 269.435363,181.707267 C269.025921,185.580978 272.18396,189.011747 276.093998,188.82591 C280.758748,188.605792 282.576383,184.258467 282.854767,180.198017 C283.399787,172.252128 280.877152,164.393745 281.22694,156.417184 C281.284787,155.110912 279.251133,155.113618 279.193287,156.417184 C278.883267,163.487113 280.612325,170.342336 280.826537,177.378886 C280.875344,178.99188 280.919633,180.748311 280.539113,182.326122 C280.201979,184.366722 279.01071,185.809215 276.965306,186.657209 C275.34471,186.029332 273.725017,185.401456 272.105325,184.774481 C268.140152,180.873706 277.42446,173.644102 279.966979,173.083885 C281.244113,172.80152 280.70271,170.844818 279.425575,171.12628" id="Fill-302" fill="#262626"></path>
                            <path d="M289.742075,157.356564 C291.48921,157.106676 293.276113,156.809878 295.027767,157.166216 C298.171344,157.806723 298.739863,158.49865 299.00921,161.771548 C299.290306,165.200513 298.60971,166.010618 296.13769,168.044001 C295.60894,168.477921 295.03771,168.83877 294.548729,169.321405 C293.735267,170.127 292.960671,171.085955 292.751883,172.256007 C292.44819,173.969137 294.064267,176.052136 292.653363,177.619121 C291.780248,178.588902 293.214652,180.028689 294.091383,179.054397 C294.825306,178.238879 295.417325,177.558679 295.523075,176.402159 C295.791517,173.459438 294.355306,172.896514 297.638979,169.437779 C299.617498,167.352975 301.614094,165.887028 301.956652,162.772903 C302.779152,155.303335 294.517998,154.638471 289.201575,155.399862 C287.911787,155.583894 288.460421,157.540597 289.742075,157.356564" id="Fill-304" fill="#262626"></path>
                            <path d="M298.702896,196.131924 C300.011665,196.131924 300.013473,194.10215 298.702896,194.10215 C297.395031,194.10215 297.392319,196.131924 298.702896,196.131924" id="Fill-306" fill="#262626"></path>
                            <path d="M379.147825,299.28477 L263.66069,316.945608 C262.430556,317.13325 261.280863,316.29157 261.092863,315.06288 L242.852344,196.248027 C242.664344,195.021141 243.508537,193.87274 244.738671,193.684197 L360.225806,176.023358 C361.45594,175.835717 362.605633,176.678299 362.793633,177.906086 L381.033248,296.72094 C381.222152,297.94963 380.377056,299.096227 379.147825,299.28477" id="Fill-308" fill="#20912D"></path>
                            <path d="M380.103733,296.204926 L261.061771,314.409744 C259.831637,314.598287 258.681944,313.754804 258.49304,312.527918 L240.253425,193.712162 C240.064521,192.484375 240.909617,191.336876 242.138848,191.148332 L361.181713,172.943514 C362.411848,172.755873 363.56154,173.598455 363.750444,174.826243 L381.99006,293.641096 C382.17806,294.869786 381.333867,296.016383 380.103733,296.204926" id="Fill-310" fill="#FCF49C"></path>
                            <path d="M380.103733,296.204926 L261.061771,314.409744 C259.831637,314.598287 258.681944,313.754804 258.49304,312.527918 L240.253425,193.712162 C240.064521,192.484375 240.909617,191.336876 242.138848,191.148332 L361.181713,172.943514 C362.411848,172.755873 363.56154,173.598455 363.750444,174.826243 L381.99006,293.641096 C382.17806,294.869786 381.333867,296.016383 380.103733,296.204926 Z" id="Stroke-312" stroke="#777A03" stroke-width="0.1"></path>
                            <path d="M264.964037,258.357218 C295.110017,252.910207 325.092402,246.618809 354.884075,239.491145 C354.554171,238.925515 354.225171,238.359884 353.895267,237.794254 C337.869171,250.837131 320.106787,261.477657 301.061844,269.512856 C300.091113,269.923322 300.643363,271.403704 301.575229,271.404606 C314.445094,271.418137 327.042902,269.017591 339.615402,266.512399 L338.831767,264.656735 C331.04694,268.606224 323.262113,272.554811 315.477287,276.503398 C314.414363,277.042867 315.174498,278.605342 316.260921,278.359063 C320.950075,277.291852 325.547037,277.046475 330.320248,277.557978 C331.619075,277.697807 331.609133,275.666229 330.320248,275.528204 C325.35994,274.995953 320.576787,275.297261 315.719517,276.401458 L316.503152,278.257123 C324.288883,274.308536 332.072806,270.359046 339.857633,266.410459 C340.936825,265.862871 340.151383,264.340992 339.074902,264.554795 C326.68046,267.024804 314.262517,269.388363 301.575229,269.374832 C301.746056,270.005415 301.917787,270.635096 302.088613,271.266581 C321.302575,263.15831 339.167998,252.386074 355.332383,239.22953 C356.167537,238.551134 355.253748,237.316129 354.343575,237.533541 C324.552806,244.662107 294.569517,250.952602 264.423537,256.399614 C263.137363,256.632361 263.682383,258.589063 264.964037,258.357218" id="Fill-314" fill="#262626"></path>
                            <path d="M268.086915,217.134492 C262.758742,220.094354 260.001108,224.42544 260.437665,230.464244 C260.808242,235.595512 262.951262,239.789477 268.35355,241.242795 C276.920204,243.547716 280.260819,224.225169 268.193569,229.867039 C267.009531,230.421844 268.040819,232.171058 269.220338,231.620764 C274.142685,231.601819 275.493031,233.337502 273.270473,236.825104 C270.818338,239.167915 268.519858,239.586499 266.375935,238.079956 C263.258569,236.492221 262.695473,233.54499 262.471319,230.464244 C262.087185,225.213895 264.575473,221.407843 269.113685,218.887315 C270.25705,218.252221 269.233896,216.498496 268.086915,217.134492" id="Fill-316" fill="#262626"></path>
                            <path d="M280.701896,226.514213 C280.306012,230.53497 279.717608,234.522348 278.944819,238.488076 C278.695358,239.764578 280.654896,240.311264 280.905262,239.028447 C281.7133,234.884099 282.320685,230.715394 282.73555,226.514213 C282.8648,225.215158 280.830242,225.223277 280.701896,226.514213" id="Fill-318" fill="#262626"></path>
                            <path d="M280.422969,227.744978 C284.133258,230.417063 287.436815,233.545621 290.340873,237.072015 C291.172412,238.081489 292.604104,236.638095 291.777988,235.635837 C288.760046,231.971418 285.302835,228.767082 281.449738,225.993057 C280.386815,225.227156 279.369988,226.987196 280.422969,227.744978" id="Fill-320" fill="#262626"></path>
                            <path d="M281.88024,234.194607 C284.55924,233.858116 287.237337,233.522527 289.916337,233.186035 C291.19799,233.025458 291.213356,230.992977 289.916337,231.156261 C287.237337,231.492753 284.55924,231.828342 281.88024,232.164833 C280.598587,232.325411 280.582317,234.356989 281.88024,234.194607" id="Fill-322" fill="#262626"></path>
                            <path d="M292.049413,224.668562 C294.337952,229.382149 296.459279,234.164296 298.407067,239.029439 C298.88701,240.227457 300.854683,239.704226 300.368413,238.489068 C298.355548,233.463348 296.170952,228.515209 293.805587,223.643752 C293.23526,222.469189 291.480894,223.496706 292.049413,224.668562" id="Fill-324" fill="#262626"></path>
                            <path d="M294.594102,225.004242 C296.10714,224.882455 297.901275,224.480109 299.416121,224.617231 C300.107563,224.68038 300.921929,224.472892 301.043044,225.541004 C301.198506,226.910425 299.024756,228.218502 298.023294,228.51981 C297.163737,228.780523 297.048044,229.900057 297.78016,230.375475 C301.292506,232.656941 304.804852,234.938407 308.318102,237.219873 C309.417179,237.934353 310.437621,236.177922 309.343967,235.467952 C305.831621,233.185584 302.319275,230.904118 298.806025,228.623554 C298.725583,229.240606 298.644237,229.859461 298.563794,230.477415 C301.015025,229.738577 303.868467,227.126032 303.07941,224.216689 C302.229794,221.089033 296.785025,222.798554 294.594102,222.974468 C293.297987,223.078212 293.28714,225.108888 294.594102,225.004242" id="Fill-326" fill="#262626"></path>
                            <path d="M306.046646,222.684616 C307.155665,225.886246 308.553915,228.952558 310.259473,231.881748 C310.917473,233.010302 312.675454,231.990002 312.015646,230.857839 C310.396858,228.0775 309.060973,225.185297 308.007992,222.145147 C307.582281,220.918261 305.617319,221.445101 306.046646,222.684616" id="Fill-328" fill="#262626"></path>
                            <path d="M307.82876,222.343704 C309.924779,222.234547 312.141913,222.75868 313.739913,224.201173 C314.059875,224.48895 314.400625,224.831756 314.609413,225.211549 C315.151721,226.199373 314.661837,226.795675 313.874587,227.414531 C313.081913,228.039701 311.990971,228.50249 311.117856,229.004971 C309.983529,229.656303 311.006683,231.411832 312.142817,230.756892 C314.637433,229.32342 318.406471,227.667125 316.364683,224.186739 C314.706125,221.357685 310.93076,220.151548 307.82876,220.31393 C306.527221,220.382491 306.519087,222.412265 307.82876,222.343704" id="Fill-330" fill="#262626"></path>
                            <path d="M318.747312,219.031203 C319.700869,222.259897 320.784581,226.116468 322.693504,228.9365 C324.550004,231.678951 327.281427,230.323062 329.962235,230.031676 C331.249312,229.891847 331.264677,227.860269 329.962235,228.001902 C329.00235,228.106548 328.104831,228.357338 327.159408,228.531448 C325.095927,228.911241 324.211965,227.624815 323.457254,225.961303 C322.357273,223.537301 321.460658,221.042032 320.708658,218.490832 C320.339888,217.241393 318.375831,217.772743 318.747312,219.031203" id="Fill-332" fill="#262626"></path>
                            <path d="M321.310529,225.187463 C322.912144,225.009745 324.409817,224.57402 325.842413,223.833378 C327.00476,223.232565 325.977087,221.481546 324.815644,222.081457 C323.721087,222.647088 322.537952,223.021468 321.310529,223.157689 C320.024356,223.300224 320.010798,225.331802 321.310529,225.187463" id="Fill-334" fill="#262626"></path>
                            <path d="M332.549494,216.928357 C332.217783,220.159757 332.382283,223.339737 332.996898,226.527835 C333.244552,227.80975 335.204994,227.266673 334.958244,225.988366 C334.377071,222.977084 334.269513,219.974822 334.583148,216.928357 C334.716013,215.630204 332.681456,215.639225 332.549494,216.928357" id="Fill-336" fill="#262626"></path>
                            <path d="M333.176131,217.79692 C336.555612,221.127554 340.3364,223.952097 344.494092,226.244388 C345.641073,226.875874 346.668746,225.123953 345.520862,224.492468 C341.510496,222.281367 337.874323,219.575002 334.61415,216.361644 C333.682285,215.443284 332.243362,216.876756 333.176131,217.79692" id="Fill-338" fill="#262626"></path>
                            <path d="M346.233363,226.084352 C347.563825,222.67343 348.610479,219.188533 349.378748,215.609816 C349.652613,214.33602 347.693075,213.791138 347.41921,215.069445 C346.650037,218.649064 345.603383,222.133059 344.272017,225.544883 C343.797498,226.762748 345.76246,227.290489 346.233363,226.084352" id="Fill-340" fill="#262626"></path>
                            <path d="M319.613196,219.796744 C321.703792,219.671349 323.718465,219.253666 325.670773,218.494982 C326.877408,218.024976 326.352273,216.061057 325.130273,216.537378 C323.349696,217.229305 321.522119,217.6524 319.613196,217.76697 C318.313465,217.844552 318.304427,219.875228 319.613196,219.796744" id="Fill-342" fill="#262626"></path>
                        </g>
                    </g>
                </g>
            </g>
        </g>
    </g>
</svg>