<?xml version="1.0" encoding="UTF-8"?>
<svg width="860px" height="434px" viewBox="0 0 860 434" version="1.1" xmlns="http://www.w3.org/2000/svg" xmlns:xlink="http://www.w3.org/1999/xlink">
    <!-- Generator: Sketch 51.3 (57544) - http://www.bohemiancoding.com/sketch -->
    <title>Group 2</title>
    <desc>Created with Sketch.</desc>
    <defs>
        <polygon id="path-1" points="-0.000475947289 0.0504347826 157.966822 0.0504347826 157.966822 157.859258 -0.000475947289 157.859258"></polygon>
        <polygon id="path-3" points="0 0.498266667 146.371025 0.498266667 146.371025 302.00068 0 302.00068"></polygon>
    </defs>
    <g id="Page-1" stroke="none" stroke-width="1" fill="none" fill-rule="evenodd">
        <g id="Desktop-HD" transform="translate(-290.000000, -1262.000000)">
            <g id="Group-2" transform="translate(290.000000, 1262.000000)">
                <rect id="Rectangle-3-Copy-3" fill="#4FBF5C" x="0" y="0.5" width="860" height="433" rx="8"></rect>
                <g id="Group-91" transform="translate(64.000000, 7.500000)">
                    <path d="M279.54547,179.129732 L149.547199,198.966512 C147.967868,199.206887 146.491815,198.127508 146.250448,196.554664 L126.033626,65.1534776 C125.792259,63.5817898 126.876091,62.1106439 128.455421,61.8702681 L258.452532,42.0334883 C260.033023,41.7931125 261.507915,42.8724922 261.750443,44.4453356 L281.966104,175.846522 C282.208632,177.419366 281.12364,178.889356 279.54547,179.129732" id="Fill-1" fill="#2B8D36"></path>
                    <g id="Group-5" transform="translate(125.000000, 38.000000)">
                        <mask id="mask-2" fill="white">
                            <use xlink:href="#path-1"></use>
                        </mask>
                        <g id="Clip-4"></g>
                        <path d="M23.5503372,157.825391 C21.9707825,158.06771 20.4933591,156.983652 20.2519577,155.406841 L0.0334248175,23.5772754 C-0.209137226,21.9981449 0.876008759,20.5245217 2.45440292,20.2822029 L134.416279,0.083942029 C135.995834,-0.158376812 137.472096,0.925681159 137.713498,2.50249275 L157.933191,134.332058 C158.174593,135.911188 157.090607,137.384812 155.511053,137.62713 L23.5503372,157.825391 Z" id="Fill-3" fill="#FFF588" mask="url(#mask-2)"></path>
                    </g>
                    <path d="M322.54547,222.130507 L192.547199,241.966243 C190.967868,242.207776 189.491815,241.127234 189.249288,239.555538 L169.033626,108.153608 C168.792259,106.581912 169.876091,105.110758 171.455421,104.869225 L301.452532,85.0334885 C303.031862,84.7931114 304.507915,85.8724972 304.750443,87.4453495 L324.966104,218.846123 C325.208632,220.420131 324.12364,221.89013 322.54547,222.130507" id="Fill-6" fill="#2B8D36"></path>
                    <path d="M191.555286,238.966092 C189.976574,239.208704 188.498853,238.123335 188.257403,236.544617 L168.033638,104.555648 C167.792188,102.975769 168.876392,101.499203 170.456264,101.256592 L302.444714,81.0339077 C304.024587,80.7912959 305.501147,81.8766647 305.742597,83.4553829 L325.966362,215.444352 C326.207812,217.024231 325.123608,218.500797 323.543736,218.743408 L191.555286,238.966092 Z" id="Fill-8" fill="#FCF49C"></path>
                    <path d="M323.543736,218.743408 L191.555286,238.966092 C189.976574,239.208704 188.498853,238.123335 188.257403,236.544617 L168.033638,104.555648 C167.792188,102.975769 168.876392,101.499203 170.456264,101.256592 L302.444714,81.0339077 C304.024587,80.7912959 305.501147,81.8766647 305.742597,83.4553829 L325.966362,215.444352 C326.207812,217.024231 325.123608,218.500797 323.543736,218.743408 Z" id="Stroke-10" stroke="#666D0B" stroke-width="0.1"></path>
                    <path d="M121.829844,371 L25.1689996,371 C12.373782,371 2,360.602705 2,347.778487 L2,93.2226723 C2,80.3972947 12.373782,70 25.1689996,70 L121.829844,70 C134.626218,70 145,80.3972947 145,93.2226723 L145,347.778487 C145,360.602705 134.626218,371 121.829844,371" id="Fill-12" fill="#2B8D36"></path>
                    <g id="Group-16" transform="translate(0.000000, 65.000000)">
                        <mask id="mask-4" fill="white">
                            <use xlink:href="#path-3"></use>
                        </mask>
                        <g id="Clip-15"></g>
                        <path d="M23.1919701,302.00068 C10.3832929,302.00068 -0.000462992126,291.586071 -0.000462992126,278.739336 L-0.000462992126,23.7596115 C-0.000462992126,10.9128759 10.3832929,0.498266667 23.1919701,0.498266667 L123.17975,0.498266667 C135.987269,0.498266667 146.371025,10.9128759 146.371025,23.7596115 L146.371025,278.739336 C146.371025,291.586071 135.987269,302.00068 123.17975,302.00068 L23.1919701,302.00068 Z" id="Fill-14" fill="#F7F7F7" mask="url(#mask-4)"></path>
                    </g>
                    <path d="M136.289167,323 L9.71083338,323 C7.66084116,323 6,321.358506 6,319.336095 L6,115.665049 C6,113.641494 7.66084116,112 9.71083338,112 L136.289167,112 C138.339159,112 140,113.641494 140,115.665049 L140,319.336095 C140,321.358506 138.339159,323 136.289167,323" id="Fill-17" fill="#272C42"></path>
                    <path d="M10.8387669,320 C10.3757582,320 10,319.627214 10,319.166441 L10,115.832402 C10,115.372786 10.3757582,115 10.8387669,115 L135.162396,115 C135.624242,115 136,115.372786 136,115.832402 L136,319.166441 C136,319.627214 135.624242,320 135.162396,320 L10.8387669,320 Z" id="Fill-19" fill="#FFFFFF"></path>
                    <path d="M135.162396,136 L10.8387669,136 C10.3757582,136 10,135.617707 10,135.145183 L10,115.85363 C10,115.382293 10.3757582,115 10.8387669,115 L135.162396,115 C135.624242,115 136,115.382293 136,115.85363 L136,135.145183 C136,135.617707 135.624242,136 135.162396,136" id="Fill-21" fill="#CCCCCC"></path>
                    <path d="M97.475492,130 L48.524508,130 C46.5777916,130 45,128.447489 45,126.531963 L45,124.468037 C45,122.553653 46.5777916,121 48.524508,121 L97.475492,121 C99.4222084,121 101,122.553653 101,124.468037 L101,126.531963 C101,128.447489 99.4222084,130 97.475492,130" id="Fill-23" fill="#7F7F7F"></path>
                    <path d="M74.6773014,156 L22.3226986,156 C19.38335,156 17,153.63521 17,150.71875 L17,148.282404 C17,145.36479 19.38335,143 22.3226986,143 L74.6773014,143 C77.61665,143 80,145.36479 80,148.282404 L80,150.71875 C80,153.63521 77.61665,156 74.6773014,156" id="Fill-25" fill="#7F7F7F"></path>
                    <path d="M122.675947,175 L22.3240535,175 C19.3839566,175 17,172.63521 17,169.71875 L17,167.282404 C17,164.36479 19.3839566,162 22.3240535,162 L122.675947,162 C125.616043,162 128,164.36479 128,167.282404 L128,169.71875 C128,172.63521 125.616043,175 122.675947,175 Z" id="Stroke-27" stroke="#7F7F7F" stroke-width="2"></path>
                    <path d="M87,346.499417 C87,353.956182 80.9552761,360 73.5,360 C66.0447239,360 60,353.956182 60,346.499417 C60,339.042652 66.0447239,333 73.5,333 C80.9552761,333 87,339.042652 87,346.499417 Z" id="Stroke-29" stroke="#D0D7E2" stroke-width="2"></path>
                    <path d="M86,346.5 C86,353.404612 80.4043605,359 73.4994381,359 C66.5956395,359 61,353.404612 61,346.5 C61,339.596512 66.5956395,334 73.4994381,334 C80.4043605,334 86,339.596512 86,346.5" id="Fill-31" fill="#F7F7F7"></path>
                    <path d="M92.3483371,94 L64.6516629,94 C63.7390531,94 63,93.2716992 63,92.374894 L63,91.6239751 C63,90.7271699 63.7390531,90 64.6516629,90 L92.3483371,90 C93.2609469,90 94,90.7271699 94,91.6239751 L94,92.374894 C94,93.2716992 93.2609469,94 92.3483371,94" id="Fill-33" fill="#282828"></path>
                    <path d="M57,92.0005874 C57,93.1048458 56.1036711,94 54.9994126,94 C53.8939794,94 53,93.1048458 53,92.0005874 C53,90.8963289 53.8939794,90 54.9994126,90 C56.1036711,90 57,90.8963289 57,92.0005874" id="Fill-35" fill="#282828"></path>
                    <path d="M75,79.4994346 C75,80.3283076 74.3283076,81 73.4994346,81 C72.6705616,81 72,80.3283076 72,79.4994346 C72,78.6716924 72.6705616,78 73.4994346,78 C74.3283076,78 75,78.6716924 75,79.4994346" id="Fill-37" fill="#282828"></path>
                    <path d="M128,149.499411 C128,153.08964 125.089376,156 121.5,156 C117.909445,156 115,153.08964 115,149.499411 C115,145.91036 117.909445,143 121.5,143 C125.089376,143 128,145.91036 128,149.499411" id="Fill-39" fill="#7F7F7F"></path>
                    <path d="M47.4714912,230 L21.5273458,230 C19.0270136,230 17,227.95938 17,225.441093 L17,188.560077 C17,186.041791 19.0270136,184 21.5273458,184 L47.4714912,184 C49.9718235,184 52,186.041791 52,188.560077 L52,225.441093 C52,227.95938 49.9718235,230 47.4714912,230" id="Fill-41" fill="#D3D3D3"></path>
                    <path d="M47.3151797,226 L22.68365,226 C21.2019662,226 20,224.726709 20,223.155863 L20,221.844137 C20,220.274531 21.2019662,219 22.68365,219 L47.3151797,219 C48.7992042,219 50,220.274531 50,221.844137 L50,223.155863 C50,224.726709 48.7992042,226 47.3151797,226" id="Fill-43" fill="#81A577"></path>
                    <path d="M86.4714912,230 L60.5273458,230 C58.0270136,230 56,227.95938 56,225.441093 L56,188.560077 C56,186.041791 58.0270136,184 60.5273458,184 L86.4714912,184 C88.9718235,184 91,186.041791 91,188.560077 L91,225.441093 C91,227.95938 88.9718235,230 86.4714912,230" id="Fill-45" fill="#D3D3D3"></path>
                    <path d="M85.3152844,226 L60.6847156,226 C59.2030896,226 58,224.726709 58,223.155863 L58,221.844137 C58,220.274531 59.2030896,219 60.6847156,219 L85.3152844,219 C86.7980807,219 88,220.274531 88,221.844137 L88,223.155863 C88,224.726709 86.7980807,226 85.3152844,226" id="Fill-47" fill="#E2D67D"></path>
                    <path d="M124.471491,230 L98.5273458,230 C96.0270136,230 94,227.95938 94,225.441093 L94,188.560077 C94,186.041791 96.0270136,184 98.5273458,184 L124.471491,184 C126.971823,184 129,186.041791 129,188.560077 L129,225.441093 C129,227.95938 126.971823,230 124.471491,230" id="Fill-49" fill="#D3D3D3"></path>
                    <path d="M124.31635,226 L99.6848203,226 C98.2019662,226 97,224.726709 97,223.155863 L97,221.844137 C97,220.274531 98.2019662,219 99.6848203,219 L124.31635,219 C125.799204,219 127,220.274531 127,221.844137 L127,223.155863 C127,224.726709 125.799204,226 124.31635,226" id="Fill-51" fill="#BC7171"></path>
                    <path d="M47.4714912,280 L21.5273458,280 C19.0270136,280 17,277.95938 17,275.441093 L17,238.560077 C17,236.04062 19.0270136,234 21.5273458,234 L47.4714912,234 C49.9718235,234 52,236.04062 52,238.560077 L52,275.441093 C52,277.95938 49.9718235,280 47.4714912,280" id="Fill-53" fill="#D3D3D3"></path>
                    <path d="M47.3151797,276 L22.68365,276 C21.2019662,276 20,274.726709 20,273.155863 L20,271.844137 C20,270.274531 21.2019662,269 22.68365,269 L47.3151797,269 C48.7992042,269 50,270.274531 50,271.844137 L50,273.155863 C50,274.726709 48.7992042,276 47.3151797,276" id="Fill-55" fill="#81A577"></path>
                    <path d="M86.4714912,280 L60.5273458,280 C58.0270136,280 56,277.95938 56,275.441093 L56,238.560077 C56,236.04062 58.0270136,234 60.5273458,234 L86.4714912,234 C88.9718235,234 91,236.04062 91,238.560077 L91,275.441093 C91,277.95938 88.9718235,280 86.4714912,280" id="Fill-57" fill="#D3D3D3"></path>
                    <path d="M85.3152844,276 L60.6847156,276 C59.2030896,276 58,274.726709 58,273.155863 L58,271.844137 C58,270.274531 59.2030896,269 60.6847156,269 L85.3152844,269 C86.7980807,269 88,270.274531 88,271.844137 L88,273.155863 C88,274.726709 86.7980807,276 85.3152844,276" id="Fill-59" fill="#81A577"></path>
                    <path d="M124.471491,280 L98.5273458,280 C96.0270136,280 94,277.95938 94,275.441093 L94,238.560077 C94,236.04062 96.0270136,234 98.5273458,234 L124.471491,234 C126.971823,234 129,236.04062 129,238.560077 L129,275.441093 C129,277.95938 126.971823,280 124.471491,280" id="Fill-61" fill="#D3D3D3"></path>
                    <path d="M124.31635,276 L99.6848203,276 C98.2019662,276 97,274.726709 97,273.155863 L97,271.844137 C97,270.274531 98.2019662,269 99.6848203,269 L124.31635,269 C125.799204,269 127,270.274531 127,271.844137 L127,273.155863 C127,274.726709 125.799204,276 124.31635,276" id="Fill-63" fill="#E2D67D"></path>
                    <path d="M52,320 L17,320 L17,289.485585 C17,287.0078 19.0270136,285 21.5285088,285 L47.4714912,285 C49.9729864,285 52,287.0078 52,289.485585 L52,320 Z" id="Fill-65" fill="#D3D3D3"></path>
                    <path d="M91,320 L56,320 L56,289.485585 C56,287.0078 58.0270136,285 60.5285088,285 L86.4714912,285 C88.9729864,285 91,287.0078 91,289.485585 L91,320 Z" id="Fill-67" fill="#D3D3D3"></path>
                    <path d="M129,320 L94,320 L94,289.485585 C94,287.0078 96.0270136,285 98.5285088,285 L124.471491,285 C126.972986,285 129,287.0078 129,289.485585 L129,320 Z" id="Fill-69" fill="#D3D3D3"></path>
                    <path d="M229.61872,189.483153 C241.413141,186.200217 253.34958,183.535245 265.432693,181.487101 C264.879757,181.075882 264.326821,180.664663 263.775048,180.25458 C263.511967,184.087323 254.149301,188.329013 251.191383,190.374885 C247.82953,192.701339 244.755205,195.183421 242.161643,198.332314 C241.339805,199.331962 242.09529,200.721246 243.436306,200.469062 C250.423092,199.157024 257.388925,197.758652 264.339625,196.273947 C264.003207,195.494675 263.666789,194.71654 263.331535,193.938404 C261.118626,195.165246 259.598342,196.518179 258.057105,198.476581 C257.430832,199.27062 258.287592,200.404312 259.186259,200.398633 C261.363082,200.385001 263.537577,200.371369 265.713236,200.356602 C265.29184,199.818155 264.870444,199.278572 264.450213,198.738989 C264.166178,200.314571 264.133584,200.189615 264.314016,201.779965 C264.495612,203.397578 267.117112,203.415753 266.933188,201.779965 C266.945992,200.992742 266.961125,200.205519 266.975094,199.418295 C267.11944,198.618577 266.6282,197.793867 265.713236,197.800683 C263.537577,197.81545 261.363082,197.829082 259.186259,197.842713 C259.564584,198.484533 259.941745,199.125217 260.317742,199.765901 C261.457372,198.165327 262.901991,196.957797 264.652762,196.144447 C265.979809,195.409478 265.064845,193.505602 263.643508,193.81004 C256.693972,195.29361 249.725811,196.691982 242.739024,198.00402 C243.165076,198.71627 243.589964,199.428519 244.013688,200.139633 C248.124042,195.145934 253.624302,191.978866 258.899897,188.310838 C261.804267,186.291094 266.135795,184.019165 266.39422,180.25458 C266.455916,179.354897 265.51185,178.890287 264.736575,179.022059 C252.652299,181.071338 240.71586,183.735174 228.921438,187.018111 C227.304536,187.469088 227.992505,189.935267 229.61872,189.483153" id="Fill-71" fill="#000000"></path>
                    <path d="M235.27142,278.725288 C230.728213,289.092707 218.64146,293.814822 208.274132,289.271575 C197.906805,284.728329 193.184732,272.641468 197.729092,262.274049 C202.271145,251.907783 214.359052,247.185669 224.725226,251.727762 C235.093707,256.271008 239.814626,268.359023 235.27142,278.725288" id="Fill-73" fill="#2B8D36"></path>
                    <path d="M234.270901,277.725339 C229.727678,288.092715 217.642034,292.814811 207.273514,288.271583 C196.907303,283.728355 192.185212,271.641545 196.728435,261.274169 C201.270505,250.906793 213.358457,246.185851 223.725822,250.727925 C234.093188,255.271153 238.815279,267.359117 234.270901,277.725339" id="Fill-75" fill="#5660A5"></path>
                    <path d="M214.153709,257.792964 L217.110875,257.585812 C217.795522,257.538007 218.239617,258.284668 217.861442,258.850355 L216.067713,261.527409 L217.292445,264.500395 C217.551501,265.126407 216.967469,265.774044 216.303639,265.594208 L213.162589,264.741694 L210.666866,266.807532 C210.140659,267.242326 209.336893,266.895174 209.305667,266.219081 L209.157636,263.01504 L206.391291,261.319117 C205.80726,260.960583 205.893997,260.100102 206.538167,259.861079 L209.31145,258.835558 C209.484925,258.770681 209.614452,258.627267 209.659556,258.450846 L210.373115,255.620135 C210.538495,254.963392 211.396616,254.779003 211.825677,255.307129 L213.676075,257.585812 C213.791725,257.728087 213.969825,257.806623 214.153709,257.792964" id="Fill-77" fill="#3B4263"></path>
                    <path d="M220.407529,297.33069 C233.203469,299.489009 241.827298,311.611647 239.66903,324.409048 C237.510762,337.204139 225.388414,345.828173 212.591317,343.668698 C199.796532,341.510379 191.172703,329.387741 193.330971,316.592651 C195.490394,303.796405 207.612743,295.173526 220.407529,297.33069" id="Fill-79" fill="#2B8D36"></path>
                    <path d="M220.407529,296.330977 C233.203469,298.489283 241.827298,310.611846 239.66903,323.409169 C237.510762,336.204181 225.388414,344.828162 212.591317,342.6687 C199.796532,340.510394 191.172703,328.387831 193.330971,315.591664 C195.490394,302.796652 207.612743,294.172671 220.407529,296.330977" id="Fill-81" fill="#5660A5"></path>
                    <path d="M200.37113,311.629272 L199.304608,308.370464 C199.057501,307.614205 199.782503,306.902364 200.530816,307.165359 L204.081227,308.412543 L207.117609,306.187016 C207.758688,305.71713 208.656198,306.188185 208.638714,306.983016 L208.553626,310.754957 L211.602829,312.96412 C212.246239,313.42933 212.077227,314.431052 211.317258,314.66015 L207.714395,315.744861 L206.561619,319.334459 C206.319175,320.090717 205.314429,320.240332 204.863343,319.586934 L202.916795,316.766453 C202.795573,316.589953 202.59509,316.484755 202.382951,316.485924 L198.961922,316.495275 C198.16815,316.497613 197.717064,315.587063 198.19729,314.954705 L200.270888,312.226564 C200.399104,312.055909 200.437569,311.832655 200.37113,311.629272" id="Fill-83" fill="#3B4263"></path>
                    <path d="M270.846499,290.80567 C272.059894,299.557902 265.947174,307.63539 257.194948,308.846498 C248.442722,310.059894 240.366384,303.94717 239.152989,295.196082 C237.941881,286.44385 244.053457,278.366362 252.805683,277.152966 C261.557909,275.941858 269.634248,282.054582 270.846499,290.80567" id="Fill-85" fill="#2B8D36"></path>
                    <path d="M256.756918,307.842081 C247.915604,309.065655 239.742855,303.048509 238.239729,294.317523 C238.235149,294.292342 238.23057,294.267161 238.23286,294.244269 C238.231715,294.228245 238.225991,294.211076 238.224846,294.195052 C238.20195,294.054266 238.177909,293.913481 238.158448,293.765828 C236.965563,285.171049 242.632338,277.205799 250.973373,275.387035 C251.383213,275.295467 251.807935,275.221068 252.233802,275.161549 C252.487948,275.127211 252.737515,275.098596 252.995096,275.072271 C253.692281,275.008173 254.379162,274.986426 255.061465,275.008173 C255.878855,275.036788 256.679072,275.126067 257.467841,275.271431 C264.282854,276.512174 269.835149,282.005094 270.839141,289.240091 C270.859748,289.403769 270.880354,289.566302 270.900961,289.729979 C270.902105,289.760883 270.904395,289.791787 270.912409,289.82727 C271.819093,298.618919 265.589074,306.623085 256.756918,307.842081" id="Fill-87" fill="#5660A5"></path>
                    <path d="M259.510697,280.155359 L256.929249,280.916673 L256.081679,283.517132 C255.905591,284.07463 255.184805,284.171743 254.871368,283.690975 L253.361709,281.422618 L250.679304,281.405833 C250.112301,281.401037 249.798864,280.736835 250.143996,280.280046 L251.644265,278.31022 C251.735831,278.189129 251.759309,278.023678 251.719396,277.877409 L251.293263,276.501049 L250.981001,275.49995 C250.973957,275.465181 250.964566,275.429214 250.963392,275.395644 C251.381307,275.300929 251.818005,275.222999 252.254703,275.160655 C252.515313,275.124688 252.772401,275.093516 253.035359,275.06714 L254.1588,275.481966 C254.302018,275.535918 254.461671,275.511939 254.580237,275.419622 L255.154283,275 C255.993635,275.029973 256.813031,275.123489 257.623035,275.275752 L257.586643,276.387151 L257.557295,277.29953 L259.72435,278.922868 C260.173961,279.269356 260.053047,279.994703 259.510697,280.155359" id="Fill-89" fill="#3B4263"></path>
                    <path d="" id="Path-2" stroke="#979797"></path>
                </g>
                <g id="Group" transform="translate(451.000000, 120.000000)" font-family="Lato-Bold, Lato" font-size="32" font-weight="bold" letter-spacing="1.42999995" line-spacing="50">
                    <g id="Group-3">
                        <text id="Growing-a-Gardening-Copy" fill="#269525">
                            <tspan x="1.03200052" y="33">Growing a  Gardening</tspan>
                            <tspan x="79.0410002" y="83">Community</tspan>
                        </text>
                        <text id="Growing-a-Gardening" fill="#FFFFFF">
                            <tspan x="0.0320005245" y="32">Growing a  Gardening</tspan>
                            <tspan x="78.0410002" y="82">Community</tspan>
                        </text>
                    </g>
                </g>
                <g id="Group-4" transform="translate(437.000000, 259.000000)">
                    <rect id="Rectangle-2" fill="#77E484" x="0" y="0" width="366" height="56" rx="28"></rect>
                    <text id="Read-the-WeGrow-Case" font-family="Lato-Bold, Lato" font-size="18" font-weight="bold" letter-spacing="1.42999995" fill="#3C6E3E">
                        <tspan x="44.1925007" y="35">Read the WeGrow Case Study</tspan>
                    </text>
                </g>
            </g>
        </g>
    </g>
</svg>