<svg id="Layer_1" data-name="Layer 1" xmlns="http://www.w3.org/2000/svg" xmlns:xlink="http://www.w3.org/1999/xlink" viewBox="0 0 434.11 152.11"><defs><style>.cls-1{fill:#fff;}.cls-19,.cls-2{fill:#2b8d36;}.cls-2,.cls-6{opacity:0.51;}.cls-3{mask:url(#mask);}.cls-4{fill:#fff588;}.cls-5{fill:#fcf49c;}.cls-12,.cls-13,.cls-6{fill:none;}.cls-6{stroke:#666d0b;stroke-width:0.1px;}.cls-7{mask:url(#mask-2-2);}.cls-8{fill:#f7f7f7;}.cls-9{fill:#272c42;}.cls-10{fill:#ccc;}.cls-11{fill:#7f7f7f;}.cls-12{stroke:#7f7f7f;}.cls-12,.cls-13{stroke-width:2px;}.cls-13{stroke:#d0d7e2;}.cls-14{fill:#282828;}.cls-15{fill:#d3d3d3;}.cls-16{fill:#81a577;}.cls-17{fill:#e2d67d;}.cls-18{fill:#bc7171;}.cls-19{opacity:0.5;}.cls-20{fill:#5660a5;}.cls-21{fill:#3b4263;}</style><mask id="mask" x="202.75" y="1.64" width="69.46" height="69.39" maskUnits="userSpaceOnUse"><g id="mask-2"><polygon id="path-1" class="cls-1" points="202.75 1.64 272.21 1.64 272.21 71.04 202.75 71.04 202.75 1.64"/></g></mask><mask id="mask-2-2" x="147.78" y="13.71" width="64.37" height="132.58" maskUnits="userSpaceOnUse"><g id="mask-4"><polygon id="path-3" class="cls-1" points="147.78 13.71 212.15 13.71 212.15 146.29 147.78 146.29 147.78 13.71"/></g></mask></defs><title>wegrow-card-img</title><path id="Fill-1" class="cls-2" d="M270.71,63.68,213.54,72.4a1.27,1.27,0,0,1-1.45-1.06L203.2,13.56a1.27,1.27,0,0,1,1.07-1.44l57.16-8.73a1.27,1.27,0,0,1,1.45,1.06l8.89,57.79a1.26,1.26,0,0,1-1.06,1.44"/><g id="Group-5"><g class="cls-3"><path id="Fill-3" class="cls-4" d="M213.11,71A1.26,1.26,0,0,1,211.66,70l-8.89-58a1.27,1.27,0,0,1,1.06-1.45l58-8.88a1.27,1.27,0,0,1,1.45,1.06l8.89,58a1.27,1.27,0,0,1-1.07,1.45Z"/></g></g><path id="Fill-6" class="cls-2" d="M289.62,82.59l-57.17,8.72A1.27,1.27,0,0,1,231,90.25l-8.89-57.78A1.27,1.27,0,0,1,223.18,31l57.16-8.73a1.27,1.27,0,0,1,1.45,1.06l8.89,57.79a1.26,1.26,0,0,1-1.06,1.44"/><path id="Fill-8" class="cls-5" d="M232,90a1.26,1.26,0,0,1-1.45-1.06l-8.9-58a1.27,1.27,0,0,1,1.07-1.45l58-8.9a1.28,1.28,0,0,1,1.45,1.07l8.89,58a1.27,1.27,0,0,1-1.06,1.45Z"/><path id="Stroke-10" class="cls-6" d="M290.06,81.1,232,90a1.26,1.26,0,0,1-1.45-1.06l-8.9-58a1.27,1.27,0,0,1,1.07-1.45l58-8.9a1.28,1.28,0,0,1,1.45,1.07l8.89,58A1.27,1.27,0,0,1,290.06,81.1Z"/><path id="Fill-12" class="cls-2" d="M201.36,148.05H158.85a10.2,10.2,0,0,1-10.19-10.21V25.9a10.2,10.2,0,0,1,10.19-10.21h42.51A10.2,10.2,0,0,1,211.55,25.9V137.84a10.2,10.2,0,0,1-10.19,10.21"/><g id="Group-16"><g class="cls-7"><path id="Fill-14" class="cls-8" d="M158,146.29a10.21,10.21,0,0,1-10.2-10.22V23.94A10.22,10.22,0,0,1,158,13.71h44a10.22,10.22,0,0,1,10.2,10.23V136.07A10.21,10.21,0,0,1,202,146.29Z"/></g></g><path id="Fill-17" class="cls-9" d="M207.71,127H152.05a1.63,1.63,0,0,1-1.63-1.62V35.77a1.62,1.62,0,0,1,1.63-1.61h55.66a1.62,1.62,0,0,1,1.64,1.61v89.56a1.63,1.63,0,0,1-1.64,1.62"/><path id="Fill-19" class="cls-1" d="M152.55,125.63a.38.38,0,0,1-.37-.37V35.85a.37.37,0,0,1,.37-.37h54.67a.37.37,0,0,1,.37.37v89.41a.38.38,0,0,1-.37.37Z"/><path id="Fill-21" class="cls-10" d="M207.22,44.71H152.55a.37.37,0,0,1-.37-.37V35.86a.38.38,0,0,1,.37-.38h54.67a.38.38,0,0,1,.37.38v8.48a.37.37,0,0,1-.37.37"/><path id="Fill-23" class="cls-11" d="M190.65,42.08H169.12a1.55,1.55,0,0,1-1.55-1.53v-.91a1.54,1.54,0,0,1,1.55-1.52h21.53a1.54,1.54,0,0,1,1.55,1.52v.91a1.55,1.55,0,0,1-1.55,1.53"/><path id="Fill-25" class="cls-11" d="M180.62,53.51h-23a2.33,2.33,0,0,1-2.34-2.32V50.12a2.33,2.33,0,0,1,2.34-2.33h23A2.33,2.33,0,0,1,183,50.12v1.07a2.33,2.33,0,0,1-2.34,2.32"/><path id="Stroke-27" class="cls-12" d="M201.73,61.86H157.6a2.33,2.33,0,0,1-2.34-2.32V58.47a2.33,2.33,0,0,1,2.34-2.32h44.13a2.33,2.33,0,0,1,2.34,2.32v1.07A2.33,2.33,0,0,1,201.73,61.86Z"/><path id="Stroke-29" class="cls-13" d="M186,137.28a5.94,5.94,0,1,1-5.94-5.94A5.94,5.94,0,0,1,186,137.28Z"/><path id="Fill-31" class="cls-8" d="M185.6,137.28a5.5,5.5,0,1,1-5.5-5.5,5.5,5.5,0,0,1,5.5,5.5"/><path id="Fill-33" class="cls-14" d="M188.39,26.25H176.21a.72.72,0,0,1-.72-.72V25.2a.71.71,0,0,1,.72-.71h12.18a.72.72,0,0,1,.73.71v.33a.73.73,0,0,1-.73.72"/><path id="Fill-35" class="cls-14" d="M172.85,25.37a.88.88,0,1,1-1.76,0,.88.88,0,0,1,1.76,0"/><path id="Fill-37" class="cls-14" d="M180.76,19.87a.66.66,0,1,1-.66-.66.66.66,0,0,1,.66.66"/><path id="Fill-39" class="cls-11" d="M204.07,50.65a2.86,2.86,0,1,1-2.86-2.86,2.86,2.86,0,0,1,2.86,2.86"/><path id="Fill-41" class="cls-15" d="M168.66,86.05H157.25a2,2,0,0,1-2-2V67.83a2,2,0,0,1,2-2h11.41a2,2,0,0,1,2,2V84.05a2,2,0,0,1-2,2"/><path id="Fill-43" class="cls-16" d="M168.59,84.29H157.76A1.22,1.22,0,0,1,156.58,83v-.58a1.22,1.22,0,0,1,1.18-1.25h10.83a1.22,1.22,0,0,1,1.18,1.25V83a1.22,1.22,0,0,1-1.18,1.25"/><path id="Fill-45" class="cls-15" d="M185.81,86.05H174.4a2,2,0,0,1-2-2V67.83a2,2,0,0,1,2-2h11.41a2,2,0,0,1,2,2V84.05a2,2,0,0,1-2,2"/><path id="Fill-47" class="cls-17" d="M185.3,84.29H174.47A1.22,1.22,0,0,1,173.29,83v-.58a1.22,1.22,0,0,1,1.18-1.25H185.3a1.22,1.22,0,0,1,1.18,1.25V83a1.22,1.22,0,0,1-1.18,1.25"/><path id="Fill-49" class="cls-15" d="M202.52,86.05H191.11a2,2,0,0,1-2-2V67.83a2,2,0,0,1,2-2h11.41a2,2,0,0,1,2,2V84.05a2,2,0,0,1-2,2"/><path id="Fill-51" class="cls-18" d="M202.45,84.29H191.62A1.22,1.22,0,0,1,190.44,83v-.58a1.22,1.22,0,0,1,1.18-1.25h10.83a1.22,1.22,0,0,1,1.18,1.25V83a1.22,1.22,0,0,1-1.18,1.25"/><path id="Fill-53" class="cls-15" d="M168.66,108H157.25a2,2,0,0,1-2-2V89.81a2,2,0,0,1,2-2h11.41a2,2,0,0,1,2,2V106a2,2,0,0,1-2,2"/><path id="Fill-55" class="cls-16" d="M168.59,106.28H157.76a1.22,1.22,0,0,1-1.18-1.25v-.58a1.22,1.22,0,0,1,1.18-1.25h10.83a1.22,1.22,0,0,1,1.18,1.25V105a1.22,1.22,0,0,1-1.18,1.25"/><path id="Fill-57" class="cls-15" d="M185.81,108H174.4a2,2,0,0,1-2-2V89.81a2,2,0,0,1,2-2h11.41a2,2,0,0,1,2,2V106a2,2,0,0,1-2,2"/><path id="Fill-59" class="cls-16" d="M185.3,106.28H174.47a1.22,1.22,0,0,1-1.18-1.25v-.58a1.22,1.22,0,0,1,1.18-1.25H185.3a1.22,1.22,0,0,1,1.18,1.25V105a1.22,1.22,0,0,1-1.18,1.25"/><path id="Fill-61" class="cls-15" d="M202.52,108H191.11a2,2,0,0,1-2-2V89.81a2,2,0,0,1,2-2h11.41a2,2,0,0,1,2,2V106a2,2,0,0,1-2,2"/><path id="Fill-63" class="cls-17" d="M202.45,106.28H191.62a1.22,1.22,0,0,1-1.18-1.25v-.58a1.22,1.22,0,0,1,1.18-1.25h10.83a1.22,1.22,0,0,1,1.18,1.25V105a1.22,1.22,0,0,1-1.18,1.25"/><path id="Fill-65" class="cls-15" d="M170.65,125.63H155.26V112.21a2,2,0,0,1,2-2h11.41a2,2,0,0,1,2,2Z"/><path id="Fill-67" class="cls-15" d="M187.8,125.63H172.41V112.21a2,2,0,0,1,2-2h11.41a2,2,0,0,1,2,2Z"/><path id="Fill-69" class="cls-15" d="M204.51,125.63H189.12V112.21a2,2,0,0,1,2-2h11.41a2,2,0,0,1,2,2Z"/><path id="Fill-71" d="M248.76,68.23a156.2,156.2,0,0,1,15.74-3.51l-.72-.54c-.12,1.68-4.24,3.55-5.54,4.45a18.91,18.91,0,0,0-4,3.49.57.57,0,0,0,.56.94c3.07-.57,6.14-1.19,9.19-1.84-.14-.34-.29-.69-.44-1a7.33,7.33,0,0,0-2.32,2c-.27.35.1.85.5.84l2.87,0c-.19-.23-.37-.47-.56-.71a3,3,0,0,0-.06,1.34c.08.71,1.23.72,1.15,0,0-.35,0-.69,0-1a.57.57,0,0,0-.55-.71l-2.87,0c.16.28.33.56.49.85a4.84,4.84,0,0,1,1.91-1.6.56.56,0,0,0-.44-1c-3.06.65-6.12,1.26-9.2,1.84l.57.94c1.8-2.2,4.22-3.59,6.54-5.2,1.28-.89,3.18-1.89,3.3-3.54a.59.59,0,0,0-.73-.55,156.43,156.43,0,0,0-15.75,3.52.56.56,0,0,0,.31,1.08"/><path id="Fill-73" class="cls-19" d="M251.24,107.48A9,9,0,1,1,246.6,95.6a9,9,0,0,1,4.64,11.88"/><path id="Fill-75" class="cls-20" d="M250.8,107a9,9,0,1,1-4.64-11.87A9,9,0,0,1,250.8,107"/><path id="Fill-77" class="cls-21" d="M242,98.27l1.31-.09a.36.36,0,0,1,.33.56l-.79,1.17.53,1.31a.36.36,0,0,1-.43.48l-1.38-.37-1.1.91a.37.37,0,0,1-.6-.26l-.06-1.41-1.22-.75a.35.35,0,0,1,.07-.64l1.22-.45a.26.26,0,0,0,.15-.17l.31-1.24a.37.37,0,0,1,.64-.14l.81,1a.25.25,0,0,0,.21.09"/><path id="Fill-79" class="cls-19" d="M244.7,115.66a10.33,10.33,0,1,1-11.9,8.47,10.33,10.33,0,0,1,11.9-8.47"/><path id="Fill-81" class="cls-20" d="M244.7,115.22a10.33,10.33,0,1,1-11.9,8.47,10.33,10.33,0,0,1,11.9-8.47"/><path id="Fill-83" class="cls-21" d="M235.89,122l-.47-1.44A.43.43,0,0,1,236,120l1.57.55,1.33-1a.42.42,0,0,1,.67.35l0,1.66,1.34,1a.42.42,0,0,1-.12.75l-1.59.48-.5,1.57a.42.42,0,0,1-.75.12L237,124.2a.29.29,0,0,0-.23-.12h-1.51a.42.42,0,0,1-.33-.68l.91-1.2a.27.27,0,0,0,0-.26"/><path id="Fill-85" class="cls-19" d="M266.88,112.79a7,7,0,1,1-7.93-6,7,7,0,0,1,7.93,6"/><path id="Fill-87" class="cls-20" d="M260.69,120.28a7.25,7.25,0,0,1-8.14-6,0,0,0,0,1,0,0v0l0-.19a7.26,7.26,0,0,1,5.64-8.08l.55-.1.33,0a7,7,0,0,1,.91,0A6.26,6.26,0,0,1,261,106a7.24,7.24,0,0,1,5.88,6.14l0,.22v0a7.26,7.26,0,0,1-6.22,7.92"/><path id="Fill-89" class="cls-21" d="M261.9,108.11l-1.14.33-.37,1.14a.29.29,0,0,1-.53.08l-.66-1H258a.31.31,0,0,1-.24-.5l.66-.87a.21.21,0,0,0,0-.19l-.18-.6-.14-.44s0,0,0,0l.57-.1.34,0,.5.18a.19.19,0,0,0,.18,0l.25-.18a6.61,6.61,0,0,1,1.09.12l0,.49v.4l.95.71a.32.32,0,0,1-.09.55"/></svg>