<?xml version="1.0" encoding="utf-8"?>
<!-- Generator: Adobe Illustrator 22.1.0, SVG Export Plug-In . SVG Version: 6.00 Build 0)  -->
<svg version="1.1" id="Layer_1" xmlns="http://www.w3.org/2000/svg" xmlns:xlink="http://www.w3.org/1999/xlink" x="0px" y="0px"
	 viewBox="0 0 600 356" style="enable-background:new 0 0 600 356;" xml:space="preserve">
<style type="text/css">
	.st0{fill:#4FBF5C;}
	.st1{fill:#20912D;}
	.st2{fill:#F7F7F7;}
	.st3{fill:#272C42;}
	.st4{fill:#FFFFFF;}
	.st5{fill:#CCCCCC;}
	.st6{fill:#7F7F7F;}
	.st7{fill:none;stroke:#7F7F7F;stroke-width:2;}
	.st8{fill:none;stroke:#D0D7E2;stroke-width:2;}
	.st9{fill:#282828;}
	.st10{fill:#D3D3D3;}
	.st11{fill:#81A577;}
	.st12{fill:#E2D67D;}
	.st13{fill:#BC7171;}
	.st14{fill:#626B6A;}
	.st15{fill:#AAAAAA;}
	.st16{fill:#525252;}
	.st17{fill:#616A69;}
	.st18{fill:#FBEFDA;}
	.st19{fill:#FFE09B;}
	.st20{fill:#5660A5;}
	.st21{fill:#3B4263;}
	.st22{fill:#FCF49C;}
	.st23{fill:#08A300;}
	.st24{fill:#E05353;}
	.st25{fill:#F29999;}
	.st26{fill:#ED4343;}
	.st27{fill:#EDEA83;}
	.st28{fill:#262626;}
	.st29{fill:none;stroke:#777A03;stroke-width:0.1;}
</style>
<title>wegrow_splash</title>
<g id="Group-2">
	<rect id="Rectangle-4" class="st0" width="600" height="356"/>
</g>
<g id="Group-345">
	<polygon id="Fill-1" class="st1" points="325,84.1 325,84.1 325,84.1 	"/>
	<polygon id="Fill-2" class="st1" points="325,84.1 325,84.1 325,84.1 	"/>
	<path id="Fill-3" class="st1" d="M325,84.1L325,84.1z M325,84.2L325,84.2L325,84.2z"/>
	<polygon id="Fill-4" class="st1" points="325,84.1 325,84.1 325,84.1 	"/>
	<polygon id="Fill-5" class="st1" points="325,84.1 325,84.1 325,84.1 	"/>
	<polygon id="Fill-6" class="st1" points="325,84.1 325,84.1 325,84.1 	"/>
	<polygon id="Fill-7" class="st1" points="325,84.1 325,84.1 325,84.1 	"/>
	<g id="Group-344">
		<path id="Fill-8" class="st1" d="M211.3,83.4L211.3,83.4v-0.2C211.3,83.3,211.3,83.3,211.3,83.4"/>
		<path id="Fill-10" class="st1" d="M434,89.5c0.2-0.2,0.4-0.4,0.6-0.7C434.4,89.1,434.2,89.3,434,89.5z M388.5,70l2.8,0.3L388.5,70
			z M325.4,83.4L325.4,83.4L325.4,83.4z M325.4,83.4L325.4,83.4z M325.3,83.4L325.3,83.4L325.3,83.4z M325.3,83.5L325.3,83.5z
			 M549.1,83.4c-0.5-1.4-10.9-28.7-47.8-37.9c-7.2-1.8-14.6-2.6-22-2.6h-83.7c-5.5,0-10.1,4.3-10.4,9.8l-1,16.9l1,0.1l0.8,0.1
			l-0.8-0.1l-1-0.1c0,0-1.7,5.9-4.6,5.7c-1.6-0.1-7.2,1.3-12.1,2.6v-6.5c0-1.4-1.2-2.6-2.6-2.6H358c-1.4,0-2.6,1.2-2.6,2.6v3
			c0-5-6.4-9.1-14.3-9.1h-16.2c-5.3,0-10.2,1.7-13.2,4.4c-3.3,3.1-7.8,4.8-12.4,4.7c-4.1-0.1-8.1-1.4-11.5-3.9
			c-4.5-3.3-11.1-5.2-18.1-5.2h-30c-15.5,0-28.1,7.9-28.5,17.8c0,0.1,0,0.2,0,0.2s0,0.2,0,0.2c0.4,9.9,13,17.8,28.5,17.8h30
			c6.9,0,13.5-1.9,18.1-5.2c3.3-2.5,7.3-3.8,11.5-3.9c4.6-0.1,9,1.5,12.4,4.7c3,2.8,7.9,4.4,13.2,4.4h16.3c7.9,0,14.3-4.1,14.3-9.1
			v3.6c0,1.4,1.2,2.6,2.6,2.6c0,0,0,0,0,0h6.9c1.4,0,2.6-1.1,2.6-2.6c0,0,0,0,0,0V89c4.9,1.3,10.5,2.8,12.1,2.6
			c2.9-0.2,4.6,5.7,4.6,5.7l1,16.9c0.3,5.5,4.9,9.8,10.4,9.8h83.7c7.4,0,14.8-0.8,22-2.6C538.2,112.1,548.6,84.8,549.1,83.4
			L549.1,83.4C549.1,83.4,549.1,83.4,549.1,83.4L549.1,83.4z"/>
		<path id="Fill-12" class="st1" d="M211.3,83c0,0.1,0,0.2,0,0.2V83z"/>
		<polygon id="Fill-14" class="st1" points="325.3,83.4 325.3,83.4 325.3,83.4 		"/>
		<polygon id="Fill-16" class="st1" points="325.4,83.4 325.4,83.4 325.4,83.4 		"/>
		<polygon id="Fill-18" class="st1" points="325.4,83.5 325.4,83.5 325.4,83.5 		"/>
		<polygon id="Fill-20" class="st1" points="325.3,83.5 325.3,83.5 325.3,83.5 		"/>
		<path id="Fill-22" class="st1" d="M161.3,309.1H68.1c-8.1,0-14.7-6.6-14.8-14.7c0,0,0,0,0,0V63.2c0-8.1,6.6-14.7,14.8-14.7h0h93.1
			c8.1,0,14.7,6.6,14.7,14.7v231.2C176,302.6,169.4,309.2,161.3,309.1C161.2,309.2,161.2,309.2,161.3,309.1"/>
		<path id="Fill-24" class="st2" d="M163.5,305.3H65.9c-8.1,0-14.8-6.6-14.8-14.7c0,0,0,0,0,0V59.3c0-8.1,6.6-14.7,14.8-14.7
			c0,0,0,0,0,0h97.7c8.1,0,14.7,6.6,14.8,14.7v231.2C178.3,298.7,171.7,305.3,163.5,305.3"/>
		<path id="Fill-26" class="st3" d="M170.5,269.1H58.9c-1.3,0-2.4-1.1-2.4-2.4V86.3c0-1.3,1.1-2.4,2.4-2.4l0,0h111.6
			c1.3,0,2.4,1,2.4,2.3c0,0,0,0,0,0v180.4C172.9,268,171.8,269.1,170.5,269.1"/>
		<path id="Fill-28" class="st4" d="M168.6,265.4H60.8c-0.3,0-0.5-0.2-0.5-0.5V88.2c0-0.3,0.2-0.5,0.5-0.5h107.9
			c0.3,0,0.5,0.2,0.5,0.5v176.7C169.2,265.1,168.9,265.4,168.6,265.4"/>
		<path id="Fill-30" class="st5" d="M168.6,105.4H60.8c-0.3,0-0.5-0.2-0.5-0.5V88.2c0-0.3,0.2-0.5,0.5-0.5h107.9
			c0.3,0,0.5,0.2,0.5,0.5v16.7C169.2,105.1,168.9,105.4,168.6,105.4"/>
		<path id="Fill-32" class="st6" d="M136.7,100.4H92.7c-1.2,0-2.2-1-2.2-2.2c0,0,0,0,0,0v-3.4c0-1.2,1-2.2,2.2-2.2c0,0,0,0,0,0h44.1
			c1.2,0,2.2,1,2.3,2.2c0,0,0,0,0,0v3.4C139,99.5,138,100.5,136.7,100.4C136.8,100.5,136.8,100.5,136.7,100.4"/>
		<path id="Fill-34" class="st6" d="M116.1,122.7H70.7c-2.5,0-4.6-2-4.6-4.6v-2.2c0-2.5,2-4.6,4.6-4.6h45.3c2.5,0,4.6,2,4.6,4.5
			c0,0,0,0,0,0v2.2C120.6,120.6,118.6,122.7,116.1,122.7C116.1,122.7,116.1,122.7,116.1,122.7"/>
		<path id="Stroke-36" class="st7" d="M156.5,139.9H71.8c-3.1,0-5.6-2.5-5.6-5.6l0,0c0-3.1,2.5-5.6,5.6-5.6h84.7
			c3.1,0,5.6,2.5,5.6,5.6v0l0,0C162.1,137.4,159.6,139.9,156.5,139.9L156.5,139.9z"/>
		<path id="Stroke-38" class="st8" d="M126.3,288.1c0,6.4-5.2,11.7-11.6,11.7s-11.7-5.2-11.7-11.6c0-6.4,5.2-11.7,11.6-11.7
			c0,0,0,0,0,0C121.1,276.5,126.3,281.7,126.3,288.1z"/>
		<path id="Fill-40" class="st2" d="M125.9,288.1c0,6.2-5,11.2-11.2,11.2c-6.2,0-11.2-5-11.2-11.2c0-6.2,5-11.2,11.2-11.2
			c0,0,0,0,0,0C120.9,276.9,125.9,281.9,125.9,288.1"/>
		<path id="Fill-42" class="st9" d="M130.9,69.3h-23.6c-1,0-1.8-0.8-1.8-1.8l0,0c0-1,0.8-1.8,1.8-1.8h23.6c1,0,1.8,0.8,1.8,1.8l0,0
			C132.6,68.6,131.8,69.4,130.9,69.3"/>
		<path id="Fill-44" class="st9" d="M100.2,67.6c0,0.9-0.8,1.7-1.7,1.7s-1.7-0.8-1.7-1.7s0.8-1.7,1.7-1.7c0,0,0,0,0,0
			C99.4,65.9,100.2,66.6,100.2,67.6"/>
		<path id="Fill-46" class="st9" d="M116,56.7c0,0.7-0.6,1.3-1.3,1.3c-0.7,0-1.3-0.6-1.3-1.3s0.6-1.3,1.3-1.3c0,0,0,0,0,0
			C115.4,55.4,116,56,116,56.7"/>
		<path id="Fill-48" class="st6" d="M162.1,116.9c0,3.1-2.5,5.6-5.5,5.6c-3.1,0-5.6-2.5-5.6-5.5c0-3.1,2.5-5.6,5.5-5.6c0,0,0,0,0,0
			C159.6,111.3,162.1,113.8,162.1,116.9"/>
		<path id="Fill-50" class="st10" d="M93.2,186.5H68.7c-1.6,0-2.9-1.3-2.9-2.9v-33.7c0-1.6,1.3-2.9,2.8-2.9c0,0,0,0,0,0h24.5
			c1.6,0,2.9,1.3,2.9,2.8c0,0,0,0,0,0v33.7C96.1,185.2,94.8,186.5,93.2,186.5C93.2,186.5,93.2,186.5,93.2,186.5"/>
		<path id="Fill-52" class="st11" d="M91,183H70.9c-1.6,0-2.8-1.3-2.8-2.8c0,0,0,0,0,0l0,0c0-1.6,1.3-2.8,2.8-2.8c0,0,0,0,0,0H91
			c1.6,0,2.8,1.3,2.8,2.8l0,0C93.8,181.7,92.6,183,91,183"/>
		<path id="Fill-54" class="st10" d="M127,186.5h-24.6c-1.6,0-2.9-1.3-2.9-2.8c0,0,0,0,0,0v-33.7c0-1.6,1.3-2.9,2.8-2.9c0,0,0,0,0,0
			H127c1.6,0,2.9,1.3,2.9,2.9v33.7C129.9,185.2,128.6,186.5,127,186.5"/>
		<path id="Fill-56" class="st12" d="M124.8,183h-20.1c-1.6,0-2.8-1.3-2.8-2.8l0,0c0-1.6,1.3-2.8,2.8-2.8h20.1
			c1.6,0,2.8,1.3,2.8,2.8c0,0,0,0,0,0l0,0C127.6,181.7,126.3,183,124.8,183C124.8,183,124.8,183,124.8,183"/>
		<path id="Fill-58" class="st10" d="M160,186.5h-24.5c-1.6,0-2.9-1.3-2.9-2.8c0,0,0,0,0,0v-33.7c0-1.6,1.3-2.9,2.8-2.9c0,0,0,0,0,0
			H160c1.6,0,2.9,1.3,2.9,2.9v33.7C162.9,185.2,161.6,186.5,160,186.5"/>
		<path id="Fill-60" class="st13" d="M157.8,183h-20.1c-1.6,0-2.8-1.3-2.8-2.8l0,0c0-1.6,1.3-2.8,2.8-2.8h20.1
			c1.6,0,2.8,1.3,2.8,2.8l0,0C160.6,181.7,159.4,183,157.8,183"/>
		<path id="Fill-62" class="st10" d="M93.2,230.4H68.7c-1.6,0-2.9-1.3-2.9-2.9v-33.7c0-1.6,1.3-2.9,2.9-2.9h24.5
			c1.6,0,2.9,1.3,2.9,2.8c0,0,0,0,0,0v33.7C96.1,229.1,94.8,230.4,93.2,230.4C93.2,230.4,93.2,230.4,93.2,230.4"/>
		<path id="Fill-64" class="st11" d="M91,226.9H70.9c-1.6,0-2.8-1.3-2.8-2.8c0,0,0,0,0,0l0,0c0-1.6,1.3-2.8,2.8-2.8c0,0,0,0,0,0H91
			c1.6,0,2.8,1.3,2.8,2.8l0,0C93.8,225.6,92.6,226.9,91,226.9"/>
		<path id="Fill-66" class="st10" d="M127,230.4h-24.6c-1.6,0-2.9-1.3-2.9-2.8c0,0,0,0,0,0v-33.7c0-1.6,1.3-2.9,2.8-2.9c0,0,0,0,0,0
			H127c1.6,0,2.9,1.3,2.9,2.9v33.7C129.9,229.1,128.6,230.4,127,230.4"/>
		<path id="Fill-68" class="st11" d="M124.8,226.9h-20.1c-1.6,0-2.8-1.3-2.8-2.8l0,0c0-1.6,1.3-2.8,2.8-2.8h20.1
			c1.6,0,2.8,1.3,2.8,2.8c0,0,0,0,0,0l0,0C127.6,225.6,126.3,226.9,124.8,226.9C124.8,226.9,124.8,226.9,124.8,226.9"/>
		<path id="Fill-70" class="st10" d="M160,230.4h-24.5c-1.6,0-2.9-1.3-2.9-2.8c0,0,0,0,0,0v-33.7c0-1.6,1.3-2.9,2.8-2.9c0,0,0,0,0,0
			H160c1.6,0,2.9,1.3,2.9,2.9v33.7C162.9,229.1,161.6,230.4,160,230.4"/>
		<path id="Fill-72" class="st12" d="M157.8,226.9h-20.1c-1.6,0-2.8-1.3-2.8-2.8l0,0c0-1.6,1.3-2.8,2.8-2.8h20.1
			c1.6,0,2.8,1.3,2.8,2.8l0,0C160.6,225.6,159.4,226.9,157.8,226.9"/>
		<path id="Fill-74" class="st10" d="M96.1,265.4H65.8v-27.6c0-1.6,1.3-2.9,2.9-2.9h24.5c1.6,0,2.9,1.3,2.9,2.9L96.1,265.4z"/>
		<path id="Fill-76" class="st10" d="M129.8,265.4H99.6v-27.6c0-1.6,1.3-2.9,2.9-2.9H127c1.6,0,2.9,1.3,2.9,2.9L129.8,265.4z"/>
		<path id="Fill-78" class="st10" d="M162.9,265.4h-30.3v-27.6c0-1.6,1.3-2.9,2.9-2.9H160c1.6,0,2.9,1.3,2.9,2.9L162.9,265.4z"/>
		<polygon id="Fill-80" class="st14" points="325.3,80.9 325.3,80.9 325.3,80.9 		"/>
		<polygon id="Fill-82" class="st15" points="325.3,80.9 325.3,80.9 325.3,80.9 		"/>
		<path id="Fill-84" class="st16" d="M367.5,86.5c4.9,1.3,10.5,2.8,12.1,2.6c2.9-0.2,4.6,5.7,4.6,5.7s46.5-5.2,49.4-7.5
			S436,81,436,81c0,0,0,0,0-0.1c0-0.5,0.4-4.3-2.3-6.4c-2.9-2.3-49.4-7.6-49.4-7.6s-1.7,5.9-4.6,5.7c-1.6-0.1-7.2,1.3-12.1,2.6V86.5
			z M325.4,80.9L325.4,80.9L325.4,80.9z M325.4,80.9L325.4,80.9L325.4,80.9z"/>
		<polygon id="Fill-86" class="st15" points="325.3,81 325.3,81 325.3,80.9 		"/>
		<path id="Fill-88" class="st17" d="M479.3,121.5h-83.7c-5.5,0-10.1-4.3-10.4-9.8l-1-16.9c0,0,46.5-5.2,49.4-7.5S436,81,436,81
			c0,0,0,0,0-0.1c0.1-0.5,0.4-4.3-2.3-6.4c-2.9-2.3-49.5-7.6-49.5-7.6l1-16.9c0.3-5.5,4.9-9.8,10.4-9.8h83.7
			c7.4,0,14.8,0.9,21.9,2.7c36.9,9.2,47.3,36.5,47.8,37.9c0,0,0,0,0,0.1c-0.5,1.4-10.9,28.7-47.8,37.9
			C494.1,120.7,486.7,121.6,479.3,121.5"/>
		<polygon id="Fill-90" class="st14" points="325.3,81 325.3,81 325.3,80.9 		"/>
		<polygon id="Fill-92" class="st15" points="325.3,81 325.3,81 325.3,80.9 		"/>
		<polygon id="Fill-94" class="st15" points="325.3,80.9 325.3,80.9 325.3,80.9 		"/>
		<path id="Fill-96" class="st18" d="M364.9,95.8H358c-1.4,0-2.6-1.2-2.6-2.6V68.8c0-1.4,1.2-2.6,2.6-2.6h6.9c1.4,0,2.6,1.2,2.6,2.6
			v24.4C367.5,94.6,366.3,95.8,364.9,95.8"/>
		<path id="Fill-98" class="st19" d="M211.3,80.9L211.3,80.9v-0.2C211.3,80.8,211.3,80.8,211.3,80.9"/>
		<path id="Fill-100" class="st19" d="M325.3,81L325.3,81z M325.4,81L325.4,81L325.4,81z M325.3,80.9L325.3,80.9z M325.4,80.9
			L325.4,80.9z M324.9,98.7h16.3c7.9,0,14.3-4.1,14.3-9.1V71.8c0-5-6.4-9.1-14.3-9.1h-16.3c-5.3,0-10.2,1.7-13.2,4.4
			c-3.3,3.1-7.8,4.8-12.4,4.7c-4.1-0.1-8.1-1.4-11.5-3.9c-4.5-3.3-11.1-5.2-18.1-5.2h-30c-15.5,0-28.1,7.9-28.5,17.8
			c0,0.1,0,0.2,0,0.2s0,0.2,0,0.2c0.4,9.9,13,17.8,28.5,17.8h30c6.9,0,13.5-1.9,18.1-5.2c3.3-2.5,7.3-3.8,11.5-3.9
			c4.6-0.1,9,1.5,12.4,4.7C314.7,97,319.6,98.7,324.9,98.7L324.9,98.7z"/>
		<path id="Fill-102" class="st19" d="M211.3,80.4c0,0.1,0,0.2,0,0.2V80.4z"/>
		<polygon id="Fill-104" class="st19" points="325.3,80.9 325.3,80.9 325.3,80.9 		"/>
		<polygon id="Fill-106" class="st19" points="325.4,80.9 325.4,80.9 325.4,80.9 		"/>
		<polygon id="Fill-108" class="st19" points="325.4,81 325.4,80.9 325.4,81 		"/>
		<polygon id="Fill-110" class="st19" points="325.3,81 325.3,81 325.3,80.9 		"/>
		<path id="Fill-112" class="st1" d="M409.2,163.3c3.5,8.5-0.6,18.3-9.1,21.8c-8.5,3.5-18.3-0.6-21.8-9.1
			c-3.5-8.5,0.6-18.3,9.1-21.8C395.9,150.6,405.6,154.7,409.2,163.3C409.2,163.2,409.2,163.2,409.2,163.3"/>
		<path id="Fill-114" class="st20" d="M408.8,162.2c3.5,8.5-0.6,18.3-9.1,21.8c-8.5,3.5-18.3-0.6-21.8-9.1
			c-3.5-8.5,0.6-18.3,9.1-21.8C395.5,149.6,405.2,153.6,408.8,162.2C408.7,162.2,408.7,162.2,408.8,162.2"/>
		<path id="Fill-116" class="st21" d="M392.1,156.4l1.5-1.8c0.2-0.3,0.7-0.3,1-0.1c0.1,0.1,0.2,0.2,0.2,0.4l0.6,2.6l2.5,1
			c0.3,0.1,0.5,0.5,0.4,0.9c-0.1,0.1-0.2,0.2-0.3,0.3l-2.3,1.3l-0.2,2.6c0,0.4-0.3,0.7-0.7,0.6c-0.2,0-0.3-0.1-0.4-0.2l-2-1.8
			l-2.6,0.6c-0.4,0.1-0.7-0.1-0.8-0.5c-0.1-0.2,0-0.4,0.1-0.5l1-2.2c0.1-0.1,0.1-0.3,0-0.4l-1.3-2c-0.2-0.3-0.1-0.7,0.2-0.9
			c0.1-0.1,0.3-0.1,0.4-0.1l2.4,0.2C391.9,156.6,392.1,156.6,392.1,156.4"/>
		<path id="Fill-118" class="st1" d="M413.4,182.3c8.5-6.3,20.5-4.4,26.7,4.1c6.3,8.5,4.4,20.5-4.1,26.7c-8.5,6.3-20.5,4.4-26.7-4.1
			c0,0,0,0,0,0C403.1,200.5,404.9,188.5,413.4,182.3"/>
		<path id="Fill-120" class="st20" d="M412.9,181c8.5-6.3,20.5-4.4,26.7,4.1c6.3,8.5,4.4,20.5-4.1,26.7c-8.5,6.3-20.5,4.4-26.7-4.1
			c0,0,0,0,0,0C402.6,199.2,404.4,187.3,412.9,181"/>
		<path id="Fill-122" class="st21" d="M411,201.1l-2.5-1.2c-0.4-0.2-0.5-0.7-0.3-1c0.1-0.2,0.2-0.3,0.3-0.3l2.7-1.4l0.4-3
			c0.1-0.4,0.5-0.7,0.9-0.7c0.2,0,0.3,0.1,0.4,0.2l2.1,2.2l3-0.5c0.4-0.1,0.8,0.2,0.9,0.6c0,0.2,0,0.3-0.1,0.5l-1.4,2.7l1.4,2.7
			c0.2,0.4,0.1,0.8-0.3,1c-0.2,0.1-0.3,0.1-0.5,0.1l-2.7-0.4c-0.2,0-0.3,0-0.5,0.1l-1.9,2c-0.3,0.3-0.8,0.3-1.1,0
			c-0.1-0.1-0.2-0.3-0.2-0.4l-0.4-2.7C411.3,201.3,411.2,201.2,411,201.1"/>
		<path id="Fill-124" class="st1" d="M438.9,148.1c6,4.4,7.3,12.9,2.9,18.9c-4.4,6-12.9,7.3-18.9,2.9c-6-4.4-7.3-12.9-2.9-18.9
			c4.4-6,12.8-7.4,18.9-3C438.8,148.1,438.8,148.1,438.9,148.1"/>
		<path id="Fill-126" class="st20" d="M441.1,166.5c-4.3,5.9-12.5,7.3-18.6,3.2l0,0l0,0l-0.3-0.2c-5.7-4.2-7.3-12-3.5-18.1
			c0.2-0.3,0.4-0.6,0.6-0.9l0.4-0.5c0.4-0.4,0.7-0.9,1.1-1.2c0.5-0.5,1-0.9,1.5-1.3c4.8-3.4,11.2-3.4,15.9,0.1l0.3,0.2h0.1
			C444.4,152.4,445.5,160.7,441.1,166.5"/>
		<path id="Fill-128" class="st21" d="M426,149.1l-1,1.9l1,1.9c0.1,0.3,0,0.6-0.2,0.7c-0.1,0.1-0.2,0.1-0.4,0.1l-2.1-0.4l-1.5,1.5
			c-0.2,0.2-0.5,0.2-0.8,0c-0.1-0.1-0.2-0.2-0.2-0.3l-0.3-1.9c0-0.1-0.1-0.2-0.2-0.3l-1-0.5l-0.7-0.4c0,0,0,0-0.1-0.1
			c0.2-0.3,0.4-0.6,0.6-0.9l0.4-0.5l0.9-0.4c0.1-0.1,0.2-0.2,0.2-0.3l0.1-0.6c0.5-0.5,1-0.9,1.5-1.3l0.6,0.6l0.5,0.5l2.1-0.4
			c0.3-0.1,0.6,0.1,0.6,0.4C426.2,148.8,426.1,149,426,149.1"/>
		<path id="Fill-130" class="st1" d="M315.1,247.4l-94.5,14.4c-1,0.2-1.9-0.5-2.1-1.5c0,0,0,0,0,0l-14.9-96.9
			c-0.1-1,0.5-1.9,1.5-2.1l94.5-14.4c1-0.2,1.9,0.5,2.1,1.5l14.9,96.9C316.8,246.3,316.1,247.2,315.1,247.4
			C315.1,247.4,315.1,247.4,315.1,247.4"/>
		<path id="Fill-132" class="st22" d="M315.9,244.9l-97,14.8c-1,0.2-1.9-0.5-2.1-1.5c0,0,0,0,0,0l-14.9-96.9c-0.1-1,0.5-1.9,1.5-2.1
			l97-14.8c1-0.2,1.9,0.5,2.1,1.5l14.9,96.9C317.6,243.8,316.9,244.7,315.9,244.9C315.9,244.9,315.9,244.9,315.9,244.9"/>
		<path id="Fill-134" class="st23" d="M520.4,151.3c1.3,6.3-5.2,13-14.6,15s-18.1-1.5-19.4-7.8l12.7,1l4-6.2l6.1,3.9L520.4,151.3z"
			/>
		<path id="Fill-136" class="st1" d="M497.8,167.5l20.8-2.9c10.9-1.5,21,6,22.5,16.9c0.4,2.8,0.2,5.6-0.6,8.3l-10.1,34.7
			c-1.1,3.9-5.2,6.1-9.1,5c-0.8-0.2-1.6-0.6-2.3-1.2l-30.9-23.2c-6.6-4.9-9.5-13.5-7.2-21.4l0.6-2
			C483.7,174.2,490.1,168.7,497.8,167.5"/>
		<path id="Fill-138" class="st24" d="M497.1,166.1l20.8-3c10.9-1.6,21,6,22.5,16.9c0.4,2.8,0.2,5.6-0.6,8.4l-10.1,34.7
			c-1.1,3.9-5.2,6.1-9.1,5c-0.8-0.2-1.6-0.6-2.3-1.2l-30.9-23.2c-6.6-4.9-9.5-13.5-7.2-21.4l0.6-2
			C482.9,172.8,489.3,167.2,497.1,166.1"/>
		<path id="Fill-140" class="st25" d="M501.5,166l9.5-1.7c2.4-0.4,5,0.9,7.2,3.6c3.5,4.3,5.5,11.3,5.1,17.7l-2,27.9
			c-0.3,4-2.9,5.4-5.1,2.7l-16.3-20c-3.5-4.3-5.5-11.3-5.1-17.7l0.1-1.6C495.4,170.9,498,166.6,501.5,166"/>
		<path id="Fill-142" class="st26" d="M504.6,168.2l5.4-1c1.4-0.2,2.8,0.5,4.1,2.1c2.1,2.9,3.1,6.5,2.8,10.2l-1.1,16
			c-0.2,2.2-1.7,3-2.9,1.5l-9.3-11.4c-2.1-2.9-3.2-6.5-2.9-10.1l0.1-0.9C501.1,171,502.5,168.6,504.6,168.2"/>
		<g id="Group-146">
			<g>
				<path id="Fill-144" class="st1" d="M424.2,261.8l27.5-12.5c8.1-3.7,17.6-0.1,21.3,8c1.5,3.3,1.8,6.9,1,10.4l-0.7,2.8
					c-0.6,2.3-0.6,4.7-0.1,7l5,24.2c0.9,4.4-1.9,8.7-6.3,9.6c-1.6,0.3-3.2,0.2-4.7-0.4l-33.7-13.4c-0.9-0.3-1.7-0.8-2.5-1.2
					l-8.9-5.5c-5.7-3.5-8.6-10.2-7.3-16.8l0.1-0.6C416.1,268.2,419.5,264,424.2,261.8"/>
			</g>
		</g>
		<g id="Group-149">
			<g>
				<path id="Fill-147" class="st24" d="M423,261.8l27.5-12.5c8.1-3.7,17.6-0.1,21.3,8c1.5,3.3,1.8,6.9,1,10.4l-0.7,2.8
					c-0.5,2.3-0.6,4.7-0.1,7l5,24.2c0.9,4.4-1.9,8.7-6.3,9.6c-1.6,0.3-3.2,0.2-4.7-0.4l-33.7-13.4c-0.9-0.3-1.7-0.8-2.5-1.2
					l-8.9-5.5c-5.7-3.5-8.7-10.2-7.3-16.8l0.1-0.6C414.9,268.2,418.3,263.9,423,261.8"/>
			</g>
		</g>
		<polygon id="Fill-150" class="st27" points="420.8,266.9 420.3,268.9 421.6,270.4 421.6,268.6 		"/>
		<polygon id="Fill-152" class="st27" points="425.8,270.4 425.4,272.4 426.8,273.9 426.8,272.1 		"/>
		<polygon id="Fill-154" class="st27" points="432.4,276.1 431.9,278.2 433.3,279.6 433.3,277.9 		"/>
		<polygon id="Fill-156" class="st27" points="442.2,272.9 441.8,275 443.1,276.5 443.1,274.7 		"/>
		<polygon id="Fill-158" class="st27" points="446.4,265.1 445.9,267.2 447.3,268.6 447.3,266.9 		"/>
		<polygon id="Fill-160" class="st27" points="454.2,270.4 453.8,272.4 455.1,273.9 455.1,272.1 		"/>
		<polygon id="Fill-162" class="st27" points="466.6,271.2 466.2,273.2 467.5,274.7 467.5,272.9 		"/>
		<polygon id="Fill-164" class="st27" points="470.7,278.8 470.3,280.9 471.6,282.3 471.6,280.5 		"/>
		<polygon id="Fill-166" class="st27" points="437.9,263 437.5,265 438.8,266.5 438.8,264.7 		"/>
		<polygon id="Fill-168" class="st27" points="446.4,256.6 445.9,258.7 447.3,260.1 447.3,258.4 		"/>
		<polygon id="Fill-170" class="st27" points="453.6,250.2 453.1,252.3 454.5,253.8 454.5,252 		"/>
		<polygon id="Fill-172" class="st27" points="454.2,259.5 453.8,261.5 455.1,263 455.1,261.2 		"/>
		<polygon id="Fill-174" class="st27" points="464.4,261.2 463.9,263.3 465.3,264.7 465.3,263 		"/>
		<polygon id="Fill-176" class="st27" points="463.7,253.8 463.3,255.8 464.6,257.3 464.6,255.5 		"/>
		<polygon id="Fill-178" class="st27" points="430.9,264.7 430.5,266.8 431.8,268.2 431.8,266.5 		"/>
		<polygon id="Fill-180" class="st27" points="420.8,277 420.3,279.1 421.6,280.5 421.6,278.8 		"/>
		<polygon id="Fill-182" class="st27" points="428,282.2 427.5,284.3 428.9,285.7 428.9,284 		"/>
		<polygon id="Fill-184" class="st27" points="438.6,282.2 438.1,284.3 439.5,285.7 439.5,284 		"/>
		<polygon id="Fill-186" class="st27" points="451.5,280.4 451.1,282.5 452.4,283.9 452.4,282.2 		"/>
		<polygon id="Fill-188" class="st27" points="462.4,278.8 461.9,280.9 463.3,282.3 463.3,280.5 		"/>
		<polygon id="Fill-190" class="st27" points="459,287.4 458.6,289.5 459.9,290.9 459.9,289.2 		"/>
		<polygon id="Fill-192" class="st27" points="464.4,295.7 463.9,297.8 465.3,299.2 465.3,297.5 		"/>
		<polygon id="Fill-194" class="st27" points="472.9,299.1 472.4,301.2 473.8,302.7 473.8,300.9 		"/>
		<polygon id="Fill-196" class="st27" points="466,287.9 465.5,290 466.9,291.4 466.9,289.7 		"/>
		<polygon id="Fill-198" class="st27" points="472.9,290.5 472.4,292.5 473.8,294 473.8,292.2 		"/>
		<polygon id="Fill-200" class="st27" points="444.5,286.2 444,288.2 445.4,289.7 445.4,287.9 		"/>
		<polygon id="Fill-202" class="st27" points="442.2,294 441.8,296 443.1,297.5 443.1,295.7 		"/>
		<polygon id="Fill-204" class="st27" points="451.5,292.2 451.1,294.3 452.4,295.7 452.4,294 		"/>
		<polygon id="Fill-206" class="st27" points="450.9,299.1 450.4,301.2 451.8,302.7 451.8,300.9 		"/>
		<polygon id="Fill-208" class="st27" points="457.7,300 457.2,302.1 458.6,303.5 458.6,301.8 		"/>
		<polygon id="Fill-210" class="st27" points="467.3,305.2 466.9,307.2 468.2,308.7 468.2,306.9 		"/>
		<polygon id="Fill-212" class="st27" points="433.1,292.2 432.6,294.3 434,295.7 434,294 		"/>
		<polygon id="Fill-214" class="st27" points="425.2,287.4 424.7,289.5 426.1,290.9 426.1,289.2 		"/>
		<path id="Fill-216" class="st23" d="M444.9,238.7c4.2,8.6,0.6,19-8,23.2s-19,0.6-23.2-8l0,0l13.3-0.5l1.3-9.2l7.9,4.4L444.9,238.7
			z"/>
		<path id="Fill-218" class="st1" d="M522.1,257.3l-16.3-7.4c-4.8-2.2-10.4-0.1-12.6,4.7c-0.9,1.9-1.1,4.1-0.6,6.2l0.4,1.6
			c0.3,1.4,0.4,2.8,0.1,4.2l-3,14.3c-0.5,2.6,1.1,5.1,3.7,5.7c0.9,0.2,1.9,0.1,2.8-0.2l20-7.9c0.5-0.2,1-0.4,1.5-0.7l5.3-3.2
			c3.4-2.1,5.1-6.1,4.3-10l-0.1-0.4C526.9,261,524.9,258.5,522.1,257.3"/>
		<path id="Fill-220" class="st24" d="M522.8,257.3l-16.3-7.4c-4.8-2.2-10.4-0.1-12.6,4.7c-0.9,1.9-1.1,4.1-0.6,6.2l0.4,1.6
			c0.3,1.4,0.3,2.8,0.1,4.2l-3,14.3c-0.5,2.6,1.1,5.1,3.7,5.7c0.9,0.2,1.9,0.1,2.8-0.2l20-7.9c0.5-0.2,1-0.4,1.5-0.7l5.3-3.2
			c3.4-2.1,5.1-6.1,4.3-10l-0.1-0.4C527.6,261,525.6,258.5,522.8,257.3"/>
		<polygon id="Fill-222" class="st27" points="524.2,260.2 524.5,261.5 523.7,262.3 523.7,261.3 		"/>
		<polygon id="Fill-224" class="st27" points="521.2,262.3 521.4,263.5 520.6,264.4 520.6,263.4 		"/>
		<polygon id="Fill-226" class="st27" points="517.3,265.7 517.6,267 516.8,267.8 516.8,266.8 		"/>
		<polygon id="Fill-228" class="st27" points="511.5,263.9 511.7,265.1 510.9,265.9 510.9,264.9 		"/>
		<polygon id="Fill-230" class="st27" points="509,259.2 509.2,260.4 508.5,261.3 508.5,260.2 		"/>
		<polygon id="Fill-232" class="st27" points="504.3,262.3 504.6,263.5 503.8,264.4 503.8,263.4 		"/>
		<polygon id="Fill-234" class="st27" points="497,262.8 497.3,264 496.5,264.9 496.5,263.9 		"/>
		<polygon id="Fill-236" class="st27" points="494.6,267.3 494.8,268.5 494,269.4 494,268.4 		"/>
		<polygon id="Fill-238" class="st27" points="514,257.9 514.3,259.2 513.5,260 513.5,259 		"/>
		<polygon id="Fill-240" class="st27" points="509,254.2 509.2,255.4 508.5,256.2 508.5,255.2 		"/>
		<polygon id="Fill-242" class="st27" points="504.7,250.4 505,251.6 504.2,252.5 504.2,251.4 		"/>
		<polygon id="Fill-244" class="st27" points="504.3,255.9 504.6,257.1 503.8,257.9 503.8,256.9 		"/>
		<polygon id="Fill-246" class="st27" points="498.3,256.9 498.6,258.1 497.8,259 497.8,257.9 		"/>
		<polygon id="Fill-248" class="st27" points="498.7,252.5 499,253.7 498.2,254.6 498.2,253.5 		"/>
		<polygon id="Fill-250" class="st27" points="518.2,259 518.4,260.2 517.6,261.1 517.6,260 		"/>
		<polygon id="Fill-252" class="st27" points="524.2,266.3 524.5,267.5 523.7,268.4 523.7,267.3 		"/>
		<polygon id="Fill-254" class="st27" points="519.9,269.3 520.2,270.6 519.4,271.4 519.4,270.4 		"/>
		<polygon id="Fill-256" class="st27" points="513.6,269.3 513.9,270.6 513.1,271.4 513.1,270.4 		"/>
		<polygon id="Fill-258" class="st27" points="505.9,268.3 506.2,269.5 505.4,270.4 505.4,269.3 		"/>
		<polygon id="Fill-260" class="st27" points="499.5,267.3 499.8,268.5 499,269.4 499,268.4 		"/>
		<polygon id="Fill-262" class="st27" points="501.5,272.4 501.8,273.7 501,274.5 501,273.5 		"/>
		<polygon id="Fill-264" class="st27" points="498.3,277.4 498.6,278.6 497.8,279.4 497.8,278.4 		"/>
		<polygon id="Fill-266" class="st27" points="493.3,279.4 493.5,280.6 492.8,281.5 492.8,280.4 		"/>
		<polygon id="Fill-268" class="st27" points="497.4,272.7 497.7,274 496.9,274.8 496.9,273.8 		"/>
		<polygon id="Fill-270" class="st27" points="493.3,274.2 493.5,275.5 492.8,276.3 492.8,275.3 		"/>
		<polygon id="Fill-272" class="st27" points="510.1,271.7 510.4,272.9 509.6,273.8 509.6,272.7 		"/>
		<polygon id="Fill-274" class="st27" points="511.5,276.3 511.7,277.5 510.9,278.4 510.9,277.4 		"/>
		<polygon id="Fill-276" class="st27" points="505.9,275.3 506.2,276.5 505.4,277.4 505.4,276.3 		"/>
		<polygon id="Fill-278" class="st27" points="506.3,279.4 506.6,280.6 505.8,281.5 505.8,280.4 		"/>
		<polygon id="Fill-280" class="st27" points="502.3,279.9 502.6,281.1 501.8,282 501.8,280.9 		"/>
		<polygon id="Fill-282" class="st27" points="496.6,283 496.9,284.2 496,285 496,284 		"/>
		<polygon id="Fill-284" class="st27" points="516.9,275.3 517.2,276.5 516.3,277.4 516.3,276.3 		"/>
		<polygon id="Fill-286" class="st27" points="521.6,272.4 521.8,273.7 521,274.5 521,273.5 		"/>
		<path id="Fill-288" class="st23" d="M509.9,243.5c-2.3,5.2,0.1,11.3,5.3,13.6c4.9,2.1,10.6,0.2,13.2-4.6l-7.9-0.3l-0.8-5.5
			l-4.8,2.7L509.9,243.5z"/>
		<path id="Fill-290" class="st28" d="M312.2,219l6.7-1c1-0.2,0.6-1.8-0.5-1.6l-6.7,1C310.7,217.6,311.1,219.2,312.2,219"/>
		<path id="Fill-292" class="st28" d="M222.3,188c3.4,3,5.2,6.9,7.1,10.9c2,4.5,4.1,9,6.1,13.5c0.4,1,1.9,0.1,1.4-0.8
			c-2.2-4.9-4.4-9.8-6.7-14.7c-1.7-3.8-3.6-7.4-6.8-10.1C222.6,186.1,221.4,187.3,222.3,188"/>
		<path id="Fill-294" class="st28" d="M223.5,188.5l10.1-5.3c0.9-0.5,0.1-1.9-0.8-1.4l-10.1,5.3C221.7,187.6,222.6,189,223.5,188.5"
			/>
		<path id="Fill-296" class="st28" d="M223.4,199.6c3.5-1,7-2.3,10.4-3.8c1-0.4,0.1-1.8-0.8-1.4c-3.3,1.4-6.6,2.6-10,3.6
			c-0.4,0.1-0.7,0.6-0.6,1C222.6,199.5,223,199.7,223.4,199.6"/>
		<path id="Fill-298" class="st28" d="M244.4,188.8c-4.1,2.1-4.1,7.2-2.7,11.1c1.3,3.7,4.4,5.2,8.3,4.4c4.4-0.9,4.3-4.8,3-8.3
			c-1.4-3.7-3.8-7.6-8.3-6.7c-1.1,0.2-0.6,1.8,0.4,1.6c3.6-0.7,5.3,2.9,6.3,5.6c0.6,1.5,1.5,3.9,0.2,5.3c-0.9,0.7-2.1,1.1-3.3,1.1
			c-2.9,0.1-4.4-1.3-5.3-4.1c-0.9-3-1-6.8,2.2-8.4C246.1,189.7,245.3,188.3,244.4,188.8"/>
		<path id="Fill-300" class="st28" d="M262.2,184.8c-3.5,1.8-5.5,5.6-4.9,9.5c0.6,3.3,5.4,6.1,8.5,5.6c3.9-0.7,3.7-4.7,3.1-7.7
			c-0.5-2.2-1-5.1-2.8-6.6c-1.5-1.3-3.6-1.2-5.5-1c-1,0.1-1.1,1.8,0,1.7c1.5-0.1,3.4-0.4,4.6,0.8c1.1,1,1.5,3.4,1.9,4.7
			c0.6,2.6,1.5,7.6-3.1,6.5c-2.5-0.6-5.1-2.8-5.1-5.4c0.1-2.8,1.7-5.3,4.2-6.5C264.1,185.8,263.2,184.4,262.2,184.8"/>
		<path id="Fill-302" class="st28" d="M278.9,179.5c-3.5,0.8-7.8,4.9-8.1,8.6c-0.3,2.9,1.8,5.5,4.7,5.8c0.2,0,0.5,0,0.7,0
			c3.8-0.2,5.3-3.7,5.5-7c0.5-6.5-1.6-12.9-1.3-19.4c0-1.1-1.6-1.1-1.7,0c-0.2,5.8,1.2,11.4,1.3,17.1c0.1,1.3,0,2.7-0.2,4
			c-0.2,1.6-1.4,3-2.9,3.5l-4-1.5c-3.2-3.2,4.3-9.1,6.4-9.5C280.3,180.9,279.9,179.3,278.9,179.5"/>
		<path id="Fill-304" class="st28" d="M287.3,168.3c1.4-0.3,2.9-0.3,4.3-0.1c2.6,0.5,3,1.1,3.2,3.8s-0.3,3.5-2.3,5.1
			c-0.4,0.4-0.9,0.6-1.3,1c-0.7,0.6-1.2,1.5-1.5,2.4c-0.2,1.4,1.1,3.1-0.1,4.4c-0.7,0.8,0.5,2,1.2,1.2c0.6-0.6,1.1-1.3,1.2-2.2
			c0.2-2.4-1-2.9,1.7-5.7c1.6-1.7,3.2-2.9,3.5-5.4c0.7-6.1-6.1-6.6-10.4-6C285.8,166.8,286.3,168.4,287.3,168.3"/>
		<path id="Fill-306" class="st28" d="M294.6,199.9c0.5-0.1,0.8-0.5,0.7-0.9c0-0.4-0.3-0.7-0.7-0.7c-0.5,0.1-0.8,0.5-0.7,0.9
			C293.9,199.6,294.2,199.9,294.6,199.9"/>
		<path id="Fill-308" class="st1" d="M360.2,284L266,298.4c-1,0.1-1.9-0.5-2.1-1.5L249.1,200c-0.1-1,0.5-1.9,1.5-2.1l94.1-14.4
			c1-0.2,1.9,0.5,2.1,1.5c0,0,0,0,0,0l14.9,96.9C361.9,282.9,361.2,283.8,360.2,284"/>
		<path id="Fill-310" class="st22" d="M361,281.5l-97,14.8c-1,0.2-1.9-0.5-2.1-1.5L247,198c-0.2-1,0.5-1.9,1.5-2.1c0,0,0,0,0,0
			l97-14.9c1-0.2,1.9,0.5,2.1,1.5c0,0,0,0,0,0l14.9,96.9C362.7,280.4,362,281.3,361,281.5"/>
		<path id="Stroke-312" class="st29" d="M361,281.5l-97,14.8c-1,0.2-1.9-0.5-2.1-1.5L247,198c-0.2-1,0.5-1.9,1.5-2.1c0,0,0,0,0,0
			l97-14.9c1-0.2,1.9,0.5,2.1,1.5c0,0,0,0,0,0l14.9,96.9C362.7,280.4,362,281.3,361,281.5z"/>
		<path id="Fill-314" class="st28" d="M267.1,250.6c24.6-4.4,49-9.6,73.3-15.4l-0.8-1.4c-13.1,10.6-27.6,19.3-43.1,25.9
			c-0.8,0.3-0.3,1.5,0.4,1.5c10.5,0,20.8-1.9,31-4l-0.6-1.5l-19,9.7c-0.9,0.4-0.2,1.7,0.6,1.5c3.8-0.9,7.6-1.1,11.5-0.6
			c1.1,0.1,1-1.5,0-1.7c-4-0.4-8-0.2-11.9,0.7l0.6,1.5l19-9.7c0.9-0.4,0.2-1.7-0.6-1.5c-10.1,2-20.2,3.9-30.6,3.9
			c0.1,0.5,0.3,1,0.4,1.5c15.6-6.6,30.3-15.4,43.4-26.1c0.7-0.6-0.1-1.6-0.8-1.4c-24.3,5.8-48.7,10.9-73.3,15.4
			C265.6,249.2,266.1,250.8,267.1,250.6"/>
		<path id="Fill-316" class="st28" d="M269.7,217c-4.4,2.4-6.6,6-6.2,10.9c0.3,4.2,2,7.6,6.5,8.8c7,1.9,9.7-13.9-0.1-9.3
			c-1,0.4-0.1,1.9,0.8,1.4c4,0,5.1,1.4,3.3,4.2c-2,1.9-3.9,2.3-5.6,1c-2.5-1.3-3-3.7-3.2-6.2c-0.3-4.3,1.7-7.4,5.4-9.4
			c0.4-0.3,0.5-0.8,0.2-1.2C270.5,216.9,270,216.8,269.7,217"/>
		<path id="Fill-318" class="st28" d="M279.9,224.7c-0.3,3.3-0.8,6.5-1.4,9.8c-0.2,1,1.4,1.5,1.6,0.4c0.7-3.4,1.2-6.8,1.5-10.2
			C281.7,223.6,280,223.6,279.9,224.7"/>
		<path id="Fill-320" class="st28" d="M279.7,225.7c3,2.2,5.7,4.7,8.1,7.6c0.7,0.8,1.8-0.4,1.2-1.2c-2.5-3-5.3-5.6-8.4-7.9
			C279.7,223.6,278.8,225.1,279.7,225.7"/>
		<path id="Fill-322" class="st28" d="M280.9,231l6.5-0.8c1-0.1,1.1-1.8,0-1.7l-6.5,0.8C279.9,229.5,279.8,231.1,280.9,231"/>
		<path id="Fill-324" class="st28" d="M289.2,223.2c1.9,3.8,3.6,7.8,5.2,11.7c0.4,1,2,0.6,1.6-0.4c-1.6-4.1-3.4-8.1-5.4-12.1
			C290.2,221.3,288.7,222.2,289.2,223.2"/>
		<path id="Fill-326" class="st28" d="M291.3,223.5c1.3-0.2,2.6-0.3,3.9-0.3c0.6,0.1,1.2-0.1,1.3,0.8c0.1,1.1-1.6,2.2-2.5,2.4
			c-0.4,0.1-0.7,0.6-0.6,1c0.1,0.2,0.2,0.4,0.4,0.5l8.6,5.6c0.9,0.6,1.7-0.9,0.8-1.4l-8.6-5.6c-0.1,0.5-0.1,1-0.2,1.5
			c2-0.6,4.3-2.7,3.7-5.1c-0.7-2.6-5.1-1.2-6.9-1C290.2,221.9,290.2,223.6,291.3,223.5"/>
		<path id="Fill-328" class="st28" d="M300.6,221.6c0.9,2.6,2,5.1,3.4,7.5c0.2,0.4,0.7,0.5,1.1,0.3c0.4-0.2,0.5-0.7,0.3-1.1l0,0
			c-1.3-2.3-2.4-4.6-3.3-7.1C301.9,220.1,300.2,220.6,300.6,221.6"/>
		<path id="Fill-330" class="st28" d="M302,221.3c1.7-0.1,3.5,0.4,4.8,1.5c0.3,0.2,0.5,0.5,0.7,0.8c0.4,0.8,0,1.3-0.6,1.8
			c-0.7,0.5-1.5,0.9-2.2,1.3c-0.4,0.2-0.5,0.8-0.2,1.1c0.2,0.4,0.7,0.5,1.1,0.3c2-1.2,5.1-2.5,3.4-5.4c-1.4-2.3-4.4-3.3-7-3.2
			C300.9,219.7,300.9,221.3,302,221.3"/>
		<path id="Fill-332" class="st28" d="M311,218.6c0.8,2.6,1.7,5.8,3.2,8.1s3.7,1.1,5.9,0.9c1-0.1,1.1-1.8,0-1.7
			c-0.8,0.1-1.5,0.3-2.3,0.4c-1.7,0.3-2.4-0.7-3-2.1c-0.9-2-1.6-4-2.2-6.1c-0.1-0.4-0.6-0.7-1-0.6
			C311.2,217.7,310.9,218.2,311,218.6"/>
		<path id="Fill-334" class="st28" d="M313,223.6c1.3-0.1,2.5-0.5,3.7-1.1c1-0.5,0.1-1.9-0.8-1.4c-0.9,0.5-1.9,0.8-2.9,0.9
			C312,222.1,311.9,223.8,313,223.6"/>
		<path id="Fill-336" class="st28" d="M322.2,216.9c-0.3,2.6-0.1,5.3,0.4,7.8c0.2,1,1.8,0.6,1.6-0.4c-0.5-2.4-0.6-4.9-0.3-7.4
			C324,215.8,322.3,215.8,322.2,216.9"/>
		<path id="Fill-338" class="st28" d="M322.7,217.6c2.7,2.7,5.8,5,9.2,6.9c0.9,0.5,1.8-0.9,0.8-1.4c-3.3-1.8-6.2-4-8.9-6.6
			C323.1,215.7,322,216.8,322.7,217.6"/>
		<path id="Fill-340" class="st28" d="M333.4,224.3c1.1-2.8,1.9-5.6,2.6-8.5c0.2-1-1.4-1.5-1.6-0.4c-0.6,2.9-1.5,5.8-2.6,8.5
			C331.4,224.9,333,225.3,333.4,224.3"/>
		<path id="Fill-342" class="st28" d="M311.7,219.2c1.7-0.1,3.4-0.4,4.9-1.1c1-0.4,0.5-2-0.4-1.6c-1.4,0.6-3,0.9-4.5,1
			C310.6,217.6,310.6,219.3,311.7,219.2"/>
	</g>
</g>
</svg>
