<svg id="Layer_1" data-name="Layer 1" xmlns="http://www.w3.org/2000/svg" xmlns:xlink="http://www.w3.org/1999/xlink" viewBox="0 0 600 355.98"><defs><style>.cls-1{fill:#fff;}.cls-2{fill:#4fbf5c;}.cls-3{fill:#20912d;}.cls-4{fill:#f7f7f7;}.cls-5{fill:#272c42;}.cls-6{fill:#ccc;}.cls-7{fill:#7f7f7f;}.cls-32,.cls-8,.cls-9{fill:none;}.cls-8{stroke:#7f7f7f;}.cls-8,.cls-9{stroke-width:2px;}.cls-9{stroke:#d0d7e2;}.cls-10{fill:#282828;}.cls-11{fill:#d3d3d3;}.cls-12{fill:#81a577;}.cls-13{fill:#e2d67d;}.cls-14{fill:#bc7171;}.cls-15{fill:#626b6a;}.cls-16{fill:#aaa;}.cls-17{fill:#525252;}.cls-18{fill:#616a69;}.cls-19{fill:#fbefda;}.cls-20{fill:#ffe09b;}.cls-21{fill:#5660a5;}.cls-22{fill:#3b4263;}.cls-23{fill:#fcf49c;}.cls-24{fill:#08a300;}.cls-25{fill:#e05353;}.cls-26{fill:#f29999;}.cls-27{fill:#ed4343;}.cls-28{mask:url(#mask);}.cls-29{mask:url(#mask-2-2);}.cls-30{fill:#edea83;}.cls-31{fill:#262626;}.cls-32{stroke:#777a03;stroke-width:0.1px;}</style><mask id="mask" x="414.71" y="247.87" width="63.82" height="63.53" maskUnits="userSpaceOnUse"><g id="mask-2"><polygon id="path-1" class="cls-1" points="414.71 247.87 478.52 247.87 478.52 311.4 414.71 311.4 414.71 247.87"/></g></mask><mask id="mask-2-2" x="413.51" y="247.87" width="63.82" height="63.53" maskUnits="userSpaceOnUse"><g id="mask-4"><polygon id="path-3" class="cls-1" points="413.51 247.87 477.32 247.87 477.32 311.4 413.51 311.4 413.51 247.87"/></g></mask></defs><title>wegrow_splash</title><g id="Group-2"><rect id="Rectangle-4" class="cls-2" width="600" height="355.98"/></g><g id="Group-345"><polygon id="Fill-1" class="cls-3" points="325.02 84.06 325.02 84.1 325.02 84.06 325.02 84.06"/><polygon id="Fill-2" class="cls-3" points="325.02 84.06 325.02 84.1 325.02 84.06 325.02 84.06"/><path id="Fill-3" class="cls-3" d="M325,84.06v0Zm0,.11h0v0Z"/><polygon id="Fill-4" class="cls-3" points="325.02 84.1 325.02 84.1 325.02 84.06 325.02 84.1"/><polygon id="Fill-5" class="cls-3" points="325.02 84.1 325.02 84.1 325.02 84.06 325.02 84.1"/><polygon id="Fill-6" class="cls-3" points="325.02 84.1 325.02 84.1 325.02 84.06 325.02 84.1"/><polygon id="Fill-7" class="cls-3" points="325.02 84.06 325.02 84.1 325.02 84.06 325.02 84.06"/><g id="Group-344"><path id="Fill-8" class="cls-3" d="M211.28,83.43h0V83.2c0,.08,0,.15,0,.23"/><path id="Fill-10" class="cls-3" d="M434,89.53a7.8,7.8,0,0,0,.61-.68A5.59,5.59,0,0,1,434,89.53ZM388.45,70l2.78.33Zm-63.1,13.38v0h0Zm0,.06v0Zm-.06-.06v0h0Zm0,.08v0Zm223.81-.1c-.5-1.38-10.91-28.7-47.82-37.93a90.1,90.1,0,0,0-21.95-2.61H395.62a10.42,10.42,0,0,0-10.42,9.8l-1,16.89,1,.12.75.09-.75-.09-1-.11s-1.72,5.88-4.63,5.65c-1.57-.12-7.19,1.3-12.08,2.64V71.28a2.6,2.6,0,0,0-2.59-2.59H358a2.61,2.61,0,0,0-2.6,2.59v3c0-5-6.39-9.13-14.28-9.13H324.89c-5.27,0-10.17,1.67-13.19,4.43a17.44,17.44,0,0,1-12.36,4.66,19.74,19.74,0,0,1-11.46-3.9c-4.53-3.32-11.15-5.19-18.06-5.19h-30c-15.53,0-28.15,7.92-28.54,17.78,0,.08,0,.15,0,.24s0,.15,0,.23c.39,9.87,13,17.79,28.54,17.79h30c6.91,0,13.53-1.87,18.06-5.21a19.87,19.87,0,0,1,11.46-3.88,17.39,17.39,0,0,1,12.36,4.66c3,2.76,7.92,4.43,13.19,4.43h16.27c7.89,0,14.28-4.09,14.28-9.12v3.61a2.59,2.59,0,0,0,2.6,2.58h6.88a2.58,2.58,0,0,0,2.59-2.58V89c4.89,1.33,10.51,2.75,12.08,2.63,2.91-.23,4.63,5.66,4.63,5.66l1,16.89a10.41,10.41,0,0,0,10.42,9.8h83.71a90.59,90.59,0,0,0,21.95-2.61c36.91-9.23,47.32-36.54,47.82-37.94,0,0,0,0,0,0A.08.08,0,0,0,549.1,83.4Z"/><path id="Fill-12" class="cls-3" d="M211.28,83c0,.08,0,.15,0,.24V83Z"/><polygon id="Fill-14" class="cls-3" points="325.3 83.38 325.29 83.42 325.29 83.38 325.3 83.38"/><polygon id="Fill-16" class="cls-3" points="325.36 83.38 325.35 83.42 325.35 83.38 325.36 83.38"/><polygon id="Fill-18" class="cls-3" points="325.36 83.48 325.35 83.48 325.35 83.46 325.36 83.48"/><polygon id="Fill-20" class="cls-3" points="325.3 83.5 325.29 83.5 325.29 83.46 325.3 83.5"/><path id="Fill-22" class="cls-3" d="M161.26,309.15H68.14a14.74,14.74,0,0,1-14.76-14.73V63.19A14.75,14.75,0,0,1,68.14,48.45h93.12A14.75,14.75,0,0,1,176,63.19V294.42a14.75,14.75,0,0,1-14.77,14.73"/><path id="Fill-24" class="cls-4" d="M163.53,305.28H65.88a14.75,14.75,0,0,1-14.77-14.74V59.31A14.75,14.75,0,0,1,65.88,44.58h97.65a14.75,14.75,0,0,1,14.76,14.73V290.54a14.75,14.75,0,0,1-14.76,14.74"/><path id="Fill-26" class="cls-5" d="M170.52,269.07H58.88a2.36,2.36,0,0,1-2.36-2.36V86.27a2.36,2.36,0,0,1,2.36-2.36H170.52a2.35,2.35,0,0,1,2.36,2.36V266.71a2.36,2.36,0,0,1-2.36,2.36"/><path id="Fill-28" class="cls-1" d="M168.64,265.36H60.77a.53.53,0,0,1-.53-.53V88.15a.53.53,0,0,1,.53-.53H168.64a.53.53,0,0,1,.53.53V264.83a.53.53,0,0,1-.53.53"/><path id="Fill-30" class="cls-6" d="M168.64,105.37H60.77a.53.53,0,0,1-.53-.53V88.15a.53.53,0,0,1,.53-.53H168.64a.53.53,0,0,1,.53.53v16.69a.53.53,0,0,1-.53.53"/><path id="Fill-32" class="cls-7" d="M136.74,100.45H92.67a2.23,2.23,0,0,1-2.24-2.23V94.77a2.23,2.23,0,0,1,2.24-2.23h44.07A2.23,2.23,0,0,1,139,94.77v3.45a2.23,2.23,0,0,1-2.24,2.23"/><path id="Fill-34" class="cls-7" d="M116.06,122.65H70.72a4.56,4.56,0,0,1-4.56-4.55v-2.2a4.56,4.56,0,0,1,4.56-4.55h45.34a4.56,4.56,0,0,1,4.57,4.55v2.2a4.56,4.56,0,0,1-4.57,4.55"/><path id="Stroke-36" class="cls-8" d="M156.46,139.93H71.8a5.64,5.64,0,0,1-5.64-5.63v0a5.64,5.64,0,0,1,5.64-5.63h84.66a5.64,5.64,0,0,1,5.65,5.63v0A5.64,5.64,0,0,1,156.46,139.93Z"/><path id="Stroke-38" class="cls-9" d="M126.34,288.07a11.64,11.64,0,1,1-11.64-11.61A11.63,11.63,0,0,1,126.34,288.07Z"/><path id="Fill-40" class="cls-4" d="M125.89,288.07a11.19,11.19,0,1,1-11.19-11.16,11.18,11.18,0,0,1,11.19,11.16"/><path id="Fill-42" class="cls-10" d="M130.85,69.35H107.27a1.77,1.77,0,0,1-1.77-1.77h0a1.77,1.77,0,0,1,1.77-1.77h23.58a1.78,1.78,0,0,1,1.78,1.77h0a1.78,1.78,0,0,1-1.78,1.77"/><path id="Fill-44" class="cls-10" d="M100.21,67.58a1.72,1.72,0,1,1-1.72-1.71,1.72,1.72,0,0,1,1.72,1.71"/><path id="Fill-46" class="cls-10" d="M116,56.73a1.34,1.34,0,1,1-1.34-1.33A1.34,1.34,0,0,1,116,56.73"/><path id="Fill-48" class="cls-7" d="M162.11,116.88a5.55,5.55,0,1,1-5.55-5.53,5.55,5.55,0,0,1,5.55,5.53"/><path id="Fill-50" class="cls-11" d="M93.22,186.46H68.69a2.87,2.87,0,0,1-2.87-2.86V149.89A2.87,2.87,0,0,1,68.69,147H93.22a2.86,2.86,0,0,1,2.87,2.87V183.6a2.86,2.86,0,0,1-2.87,2.86"/><path id="Fill-52" class="cls-12" d="M91,183H70.9a2.82,2.82,0,0,1-2.83-2.82v0a2.82,2.82,0,0,1,2.83-2.82H91a2.83,2.83,0,0,1,2.83,2.82v0A2.83,2.83,0,0,1,91,183"/><path id="Fill-54" class="cls-11" d="M127,186.46H102.44a2.86,2.86,0,0,1-2.87-2.86V149.89a2.86,2.86,0,0,1,2.87-2.87H127a2.87,2.87,0,0,1,2.87,2.87V183.6a2.87,2.87,0,0,1-2.87,2.86"/><path id="Fill-56" class="cls-13" d="M124.76,183H104.64a2.83,2.83,0,0,1-2.83-2.82v0a2.83,2.83,0,0,1,2.83-2.82h20.12a2.82,2.82,0,0,1,2.83,2.82v0a2.82,2.82,0,0,1-2.83,2.82"/><path id="Fill-58" class="cls-11" d="M160,186.46H135.5a2.86,2.86,0,0,1-2.87-2.86V149.89A2.86,2.86,0,0,1,135.5,147H160a2.87,2.87,0,0,1,2.87,2.87V183.6a2.87,2.87,0,0,1-2.87,2.86"/><path id="Fill-60" class="cls-14" d="M157.82,183H137.7a2.83,2.83,0,0,1-2.83-2.82v0a2.83,2.83,0,0,1,2.83-2.82h20.12a2.83,2.83,0,0,1,2.83,2.82v0a2.83,2.83,0,0,1-2.83,2.82"/><path id="Fill-62" class="cls-11" d="M93.22,230.38H68.69a2.87,2.87,0,0,1-2.87-2.86V193.81a2.87,2.87,0,0,1,2.87-2.87H93.22a2.86,2.86,0,0,1,2.87,2.87v33.71a2.86,2.86,0,0,1-2.87,2.86"/><path id="Fill-64" class="cls-12" d="M91,226.91H70.9a2.82,2.82,0,0,1-2.83-2.82v0a2.82,2.82,0,0,1,2.83-2.82H91a2.83,2.83,0,0,1,2.83,2.82v0A2.83,2.83,0,0,1,91,226.91"/><path id="Fill-66" class="cls-11" d="M127,230.38H102.44a2.86,2.86,0,0,1-2.87-2.86V193.81a2.86,2.86,0,0,1,2.87-2.87H127a2.87,2.87,0,0,1,2.87,2.87v33.71a2.87,2.87,0,0,1-2.87,2.86"/><path id="Fill-68" class="cls-12" d="M124.76,226.91H104.64a2.83,2.83,0,0,1-2.83-2.82v0a2.83,2.83,0,0,1,2.83-2.82h20.12a2.82,2.82,0,0,1,2.83,2.82v0a2.82,2.82,0,0,1-2.83,2.82"/><path id="Fill-70" class="cls-11" d="M160,230.38H135.5a2.86,2.86,0,0,1-2.87-2.86V193.81a2.86,2.86,0,0,1,2.87-2.87H160a2.87,2.87,0,0,1,2.87,2.87v33.71a2.87,2.87,0,0,1-2.87,2.86"/><path id="Fill-72" class="cls-13" d="M157.82,226.91H137.7a2.83,2.83,0,0,1-2.83-2.82v0a2.83,2.83,0,0,1,2.83-2.82h20.12a2.83,2.83,0,0,1,2.83,2.82v0a2.83,2.83,0,0,1-2.83,2.82"/><path id="Fill-74" class="cls-11" d="M96.09,265.36H65.82V237.73a2.88,2.88,0,0,1,2.87-2.87H93.22a2.87,2.87,0,0,1,2.87,2.87Z"/><path id="Fill-76" class="cls-11" d="M129.84,265.36H99.57V237.73a2.87,2.87,0,0,1,2.87-2.87H127a2.88,2.88,0,0,1,2.87,2.87Z"/><path id="Fill-78" class="cls-11" d="M162.89,265.36H132.63V237.73a2.87,2.87,0,0,1,2.86-2.87H160a2.87,2.87,0,0,1,2.86,2.87Z"/><polygon id="Fill-80" class="cls-15" points="325.29 80.91 325.29 80.87 325.3 80.87 325.29 80.91"/><polygon id="Fill-82" class="cls-16" points="325.29 80.91 325.29 80.87 325.3 80.87 325.29 80.91"/><path id="Fill-84" class="cls-17" d="M367.51,86.51c4.89,1.34,10.51,2.75,12.07,2.64,2.91-.23,4.65,5.65,4.65,5.65s46.5-5.24,49.41-7.47S436,81,436,81a.15.15,0,0,0,0-.06c0-.51.38-4.29-2.33-6.37C430.73,72.28,384.23,67,384.23,67s-1.74,5.88-4.65,5.66c-1.56-.12-7.18,1.29-12.07,2.63Zm-42.15-5.64h0v0Zm0,.07v0h0Z"/><polygon id="Fill-86" class="cls-16" points="325.3 80.98 325.29 80.98 325.29 80.94 325.3 80.98"/><path id="Fill-88" class="cls-18" d="M479.33,121.5H395.61a10.42,10.42,0,0,1-10.41-9.81l-1-16.89s46.51-5.24,49.42-7.48S436,81,436,81a.15.15,0,0,0,0-.06c.06-.51.38-4.3-2.33-6.38C430.73,72.28,384.22,67,384.22,67l1-16.89a10.42,10.42,0,0,1,10.41-9.81h83.72A90.11,90.11,0,0,1,501.28,43c36.91,9.22,47.32,36.54,47.82,37.93a.05.05,0,0,1,0,.06c-.5,1.39-10.91,28.71-47.82,37.94a91.09,91.09,0,0,1-21.95,2.61"/><polygon id="Fill-90" class="cls-15" points="325.3 80.98 325.29 80.98 325.29 80.94 325.3 80.98"/><polygon id="Fill-92" class="cls-16" points="325.3 80.98 325.29 80.98 325.29 80.94 325.3 80.98"/><polygon id="Fill-94" class="cls-16" points="325.29 80.91 325.29 80.87 325.3 80.87 325.29 80.91"/><path id="Fill-96" class="cls-19" d="M364.92,95.78H358a2.6,2.6,0,0,1-2.6-2.59V68.77a2.6,2.6,0,0,1,2.6-2.59h6.88a2.59,2.59,0,0,1,2.59,2.59V93.19a2.59,2.59,0,0,1-2.59,2.59"/><path id="Fill-98" class="cls-20" d="M211.28,80.92h0v-.24c0,.08,0,.15,0,.24"/><path id="Fill-100" class="cls-20" d="M325.29,81v0Zm.07,0h0v0Zm-.06-.1v0Zm.06,0v0Zm-.47,17.84h16.27c7.89,0,14.28-4.1,14.28-9.13V71.79c0-5-6.39-9.12-14.28-9.12H324.89c-5.27,0-10.17,1.66-13.19,4.42a17.44,17.44,0,0,1-12.36,4.67,19.76,19.76,0,0,1-11.46-3.9c-4.53-3.33-11.15-5.19-18.06-5.19h-30c-15.53,0-28.15,7.92-28.54,17.78,0,.08,0,.15,0,.23s0,.16,0,.24c.39,9.86,13,17.79,28.54,17.79h30c6.91,0,13.53-1.88,18.06-5.21a19.9,19.9,0,0,1,11.46-3.88,17.39,17.39,0,0,1,12.36,4.66C314.72,97,319.62,98.71,324.89,98.71Z"/><path id="Fill-102" class="cls-20" d="M211.28,80.45c0,.08,0,.15,0,.23v-.23Z"/><polygon id="Fill-104" class="cls-20" points="325.3 80.87 325.29 80.91 325.29 80.87 325.3 80.87"/><polygon id="Fill-106" class="cls-20" points="325.36 80.87 325.35 80.91 325.35 80.87 325.36 80.87"/><polygon id="Fill-108" class="cls-20" points="325.35 80.97 325.35 80.94 325.36 80.97 325.35 80.97"/><polygon id="Fill-110" class="cls-20" points="325.3 80.98 325.29 80.98 325.29 80.94 325.3 80.98"/><path id="Fill-112" class="cls-3" d="M409.19,163.26a16.72,16.72,0,1,1-21.81-9.14,16.68,16.68,0,0,1,21.81,9.14"/><path id="Fill-114" class="cls-21" d="M408.76,162.23a16.71,16.71,0,1,1-21.8-9.14,16.67,16.67,0,0,1,21.8,9.14"/><path id="Fill-116" class="cls-22" d="M392.09,156.41l1.55-1.84a.68.68,0,0,1,1.18.28l.57,2.59,2.46,1a.68.68,0,0,1,.09,1.21L395.65,161l-.18,2.64a.67.67,0,0,1-1.12.46l-2-1.76-2.58.64A.67.67,0,0,1,389,162l1-2.21a.45.45,0,0,0,0-.42l-1.27-2a.67.67,0,0,1,.64-1l2.4.23a.48.48,0,0,0,.39-.16"/><path id="Fill-118" class="cls-3" d="M413.41,182.29A19.12,19.12,0,1,1,409.32,209a19.17,19.17,0,0,1,4.09-26.72"/><path id="Fill-120" class="cls-21" d="M412.87,181a19.12,19.12,0,1,1-4.09,26.71A19.17,19.17,0,0,1,412.87,181"/><path id="Fill-122" class="cls-22" d="M411.05,201.08l-2.49-1.21a.77.77,0,0,1,0-1.38l2.72-1.36.42-3a.78.78,0,0,1,1.32-.44l2.13,2.16,3-.53a.77.77,0,0,1,.82,1.12l-1.4,2.69,1.43,2.68a.77.77,0,0,1-.81,1.12l-2.72-.45a.52.52,0,0,0-.46.15l-1.92,2a.77.77,0,0,1-1.32-.42l-.41-2.72a.53.53,0,0,0-.29-.39"/><path id="Fill-124" class="cls-3" d="M438.88,148.13a13.55,13.55,0,1,1-19,2.92,13.52,13.52,0,0,1,19-2.92"/><path id="Fill-126" class="cls-21" d="M441.07,166.52a13.58,13.58,0,0,1-18.59,3.18l0,0,0,0-.29-.2a13.53,13.53,0,0,1-3.52-18.06c.19-.29.38-.58.59-.87l.39-.5a13.64,13.64,0,0,1,1.14-1.25,13.92,13.92,0,0,1,1.53-1.27,13.6,13.6,0,0,1,15.91.1l.32.25.07,0a13.51,13.51,0,0,1,2.53,18.63"/><path id="Fill-128" class="cls-22" d="M426.05,149.07l-1,1.9,1,1.9a.54.54,0,0,1-.58.79l-2.12-.37-1.51,1.53a.54.54,0,0,1-.93-.3l-.27-1.94a.41.41,0,0,0-.2-.28l-1-.5-.74-.37s-.05,0-.06-.05c.18-.29.37-.58.58-.87l.39-.5.86-.42a.37.37,0,0,0,.2-.27l.08-.56a13.92,13.92,0,0,1,1.53-1.27l.61.63.5.51,2.12-.36a.55.55,0,0,1,.58.8"/><path id="Fill-130" class="cls-3" d="M315.12,247.39l-94.5,14.45a1.83,1.83,0,0,1-2.09-1.54l-14.87-96.85a1.84,1.84,0,0,1,1.54-2.09l94.49-14.45a1.84,1.84,0,0,1,2.1,1.53l14.86,96.86a1.82,1.82,0,0,1-1.53,2.09"/><path id="Fill-132" class="cls-23" d="M315.9,244.88l-97,14.84a1.83,1.83,0,0,1-2.09-1.54l-14.87-96.85a1.84,1.84,0,0,1,1.54-2.09l97-14.84a1.84,1.84,0,0,1,2.1,1.53l14.86,96.86a1.83,1.83,0,0,1-1.53,2.09"/><path id="Fill-134" class="cls-24" d="M520.4,151.26c1.34,6.31-5.18,13-14.57,15s-18.09-1.52-19.43-7.83l12.69,1,4-6.19,6.13,3.87Z"/><path id="Fill-136" class="cls-3" d="M497.8,167.54l20.8-2.95a19.91,19.91,0,0,1,21.93,25.24L530.42,224.5A7.33,7.33,0,0,1,519,228.3l-30.91-23.16a19.86,19.86,0,0,1-7.18-21.4l.58-2a19.93,19.93,0,0,1,16.33-14.18"/><path id="Fill-138" class="cls-25" d="M497.09,166.12l20.79-3a19.9,19.9,0,0,1,21.93,25.24L529.7,223.07a7.33,7.33,0,0,1-11.43,3.81l-30.92-23.17a19.87,19.87,0,0,1-7.18-21.4l.59-2a19.88,19.88,0,0,1,16.33-14.18"/><path id="Fill-140" class="cls-26" d="M501.51,166l9.51-1.69c2.39-.43,5,.87,7.22,3.6,3.5,4.28,5.52,11.34,5.07,17.74l-2,27.94c-.28,4-2.9,5.36-5.06,2.71l-16.33-20c-3.49-4.27-5.51-11.32-5.07-17.71L495,177c.42-6.07,3-10.37,6.53-11"/><path id="Fill-142" class="cls-27" d="M504.6,168.18l5.43-1c1.36-.24,2.84.5,4.12,2.06A15.21,15.21,0,0,1,517,179.4l-1.13,16c-.16,2.25-1.65,3-2.89,1.54l-9.32-11.4a15.22,15.22,0,0,1-2.9-10.11l.07-.93c.24-3.46,1.7-5.92,3.73-6.28"/><g id="Group-146"><g class="cls-28"><path id="Fill-144" class="cls-3" d="M424.25,261.83l27.52-12.52a16.08,16.08,0,0,1,22.3,18.36l-.66,2.77a15.89,15.89,0,0,0-.11,7l5.05,24.16a8.11,8.11,0,0,1-11,9.18l-33.67-13.39a15.26,15.26,0,0,1-2.49-1.25l-8.89-5.47A16,16,0,0,1,415,273.87l.12-.61a16,16,0,0,1,9.1-11.43"/></g></g><g id="Group-149"><g class="cls-29"><path id="Fill-147" class="cls-25" d="M423,261.83l27.53-12.52a16.08,16.08,0,0,1,22.3,18.36l-.67,2.77a16,16,0,0,0-.1,7l5,24.16a8.11,8.11,0,0,1-10.95,9.18l-33.67-13.39a16.1,16.1,0,0,1-2.49-1.25l-8.88-5.47a16,16,0,0,1-7.32-16.83l.12-.61A16.06,16.06,0,0,1,423,261.83"/></g></g><polygon id="Fill-150" class="cls-30" points="420.75 266.85 420.3 268.92 421.65 270.36 421.65 268.6 420.75 266.85"/><polygon id="Fill-152" class="cls-30" points="425.84 270.36 425.39 272.43 426.75 273.87 426.75 272.11 425.84 270.36"/><polygon id="Fill-154" class="cls-30" points="432.39 276.13 431.94 278.19 433.29 279.63 433.29 277.88 432.39 276.13"/><polygon id="Fill-156" class="cls-30" points="442.23 272.94 441.78 275.01 443.13 276.45 443.13 274.69 442.23 272.94"/><polygon id="Fill-158" class="cls-30" points="446.39 265.09 445.94 267.16 447.29 268.6 447.29 266.85 446.39 265.09"/><polygon id="Fill-160" class="cls-30" points="454.25 270.36 453.79 272.43 455.15 273.87 455.15 272.11 454.25 270.36"/><polygon id="Fill-162" class="cls-30" points="466.63 271.18 466.18 273.25 467.53 274.69 467.53 272.94 466.63 271.18"/><polygon id="Fill-164" class="cls-30" points="470.74 278.78 470.29 280.85 471.64 282.29 471.64 280.54 470.74 278.78"/><polygon id="Fill-166" class="cls-30" points="437.9 262.97 437.45 265.04 438.8 266.48 438.8 264.72 437.9 262.97"/><polygon id="Fill-168" class="cls-30" points="446.39 256.61 445.94 258.68 447.29 260.12 447.29 258.36 446.39 256.61"/><polygon id="Fill-170" class="cls-30" points="453.57 250.25 453.12 252.32 454.47 253.76 454.47 252.01 453.57 250.25"/><polygon id="Fill-172" class="cls-30" points="454.25 259.46 453.79 261.53 455.15 262.97 455.15 261.21 454.25 259.46"/><polygon id="Fill-174" class="cls-30" points="464.39 261.21 463.94 263.28 465.29 264.72 465.29 262.97 464.39 261.21"/><polygon id="Fill-176" class="cls-30" points="463.71 253.76 463.26 255.83 464.61 257.27 464.61 255.52 463.71 253.76"/><polygon id="Fill-178" class="cls-30" points="430.93 264.72 430.48 266.79 431.83 268.23 431.83 266.48 430.93 264.72"/><polygon id="Fill-180" class="cls-30" points="420.75 277.03 420.3 279.1 421.65 280.54 421.65 278.78 420.75 277.03"/><polygon id="Fill-182" class="cls-30" points="427.99 282.19 427.54 284.26 428.89 285.7 428.89 283.95 427.99 282.19"/><polygon id="Fill-184" class="cls-30" points="438.57 282.19 438.12 284.26 439.48 285.7 439.48 283.95 438.57 282.19"/><polygon id="Fill-186" class="cls-30" points="451.54 280.44 451.09 282.5 452.44 283.94 452.44 282.19 451.54 280.44"/><polygon id="Fill-188" class="cls-30" points="462.36 278.78 461.91 280.85 463.26 282.29 463.26 280.54 462.36 278.78"/><polygon id="Fill-190" class="cls-30" points="459.03 287.42 458.58 289.49 459.94 290.93 459.94 289.17 459.03 287.42"/><polygon id="Fill-192" class="cls-30" points="464.39 295.71 463.94 297.78 465.29 299.22 465.29 297.46 464.39 295.71"/><polygon id="Fill-194" class="cls-30" points="472.88 299.15 472.43 301.22 473.78 302.66 473.78 300.91 472.88 299.15"/><polygon id="Fill-196" class="cls-30" points="465.95 287.92 465.5 289.99 466.86 291.43 466.86 289.68 465.95 287.92"/><polygon id="Fill-198" class="cls-30" points="472.88 290.45 472.43 292.51 473.78 293.95 473.78 292.2 472.88 290.45"/><polygon id="Fill-200" class="cls-30" points="444.48 286.17 444.02 288.24 445.38 289.68 445.38 287.92 444.48 286.17"/><polygon id="Fill-202" class="cls-30" points="442.23 293.95 441.78 296.02 443.13 297.46 443.13 295.71 442.23 293.95"/><polygon id="Fill-204" class="cls-30" points="451.54 292.2 451.09 294.27 452.44 295.71 452.44 293.96 451.54 292.2"/><polygon id="Fill-206" class="cls-30" points="450.86 299.15 450.41 301.22 451.76 302.66 451.76 300.91 450.86 299.15"/><polygon id="Fill-208" class="cls-30" points="457.68 300 457.23 302.07 458.58 303.51 458.58 301.76 457.68 300"/><polygon id="Fill-210" class="cls-30" points="467.31 305.17 466.86 307.24 468.21 308.68 468.21 306.92 467.31 305.17"/><polygon id="Fill-212" class="cls-30" points="433.06 292.2 432.61 294.27 433.96 295.71 433.96 293.96 433.06 292.2"/><polygon id="Fill-214" class="cls-30" points="425.17 287.42 424.72 289.49 426.07 290.93 426.07 289.17 425.17 287.42"/><path id="Fill-216" class="cls-24" d="M444.87,238.68a17.37,17.37,0,0,1-31.23,15.22l13.33-.48,1.27-9.21,7.94,4.43Z"/><path id="Fill-218" class="cls-3" d="M522.12,257.26l-16.32-7.42a9.53,9.53,0,0,0-13.22,10.88l.39,1.65a9.57,9.57,0,0,1,.07,4.16l-3,14.33a4.81,4.81,0,0,0,6.5,5.44l20-7.94a9.2,9.2,0,0,0,1.47-.74l5.27-3.24a9.51,9.51,0,0,0,4.34-10l-.07-.36a9.55,9.55,0,0,0-5.39-6.78"/><path id="Fill-220" class="cls-25" d="M522.83,257.26l-16.32-7.42a9.53,9.53,0,0,0-13.22,10.88l.4,1.65a9.57,9.57,0,0,1,.06,4.16l-3,14.33a4.8,4.8,0,0,0,6.49,5.44l20-7.94a9.29,9.29,0,0,0,1.48-.74l5.26-3.24a9.51,9.51,0,0,0,4.34-10l-.07-.36a9.53,9.53,0,0,0-5.39-6.78"/><polygon id="Fill-222" class="cls-30" points="524.19 260.24 524.46 261.46 523.65 262.32 523.65 261.28 524.19 260.24"/><polygon id="Fill-224" class="cls-30" points="521.17 262.32 521.44 263.55 520.63 264.4 520.63 263.36 521.17 262.32"/><polygon id="Fill-226" class="cls-30" points="517.29 265.74 517.56 266.96 516.75 267.82 516.75 266.78 517.29 265.74"/><polygon id="Fill-228" class="cls-30" points="511.45 263.85 511.72 265.07 510.92 265.93 510.92 264.89 511.45 263.85"/><polygon id="Fill-230" class="cls-30" points="508.99 259.2 509.25 260.42 508.45 261.28 508.45 260.24 508.99 259.2"/><polygon id="Fill-232" class="cls-30" points="504.33 262.32 504.6 263.55 503.8 264.4 503.8 263.36 504.33 262.32"/><polygon id="Fill-234" class="cls-30" points="496.99 262.81 497.26 264.03 496.45 264.89 496.45 263.85 496.99 262.81"/><polygon id="Fill-236" class="cls-30" points="494.56 267.31 494.82 268.54 494.02 269.39 494.02 268.35 494.56 267.31"/><polygon id="Fill-238" class="cls-30" points="514.02 257.94 514.29 259.16 513.49 260.02 513.49 258.98 514.02 257.94"/><polygon id="Fill-240" class="cls-30" points="508.99 254.17 509.25 255.39 508.45 256.25 508.45 255.21 508.99 254.17"/><polygon id="Fill-242" class="cls-30" points="504.73 250.4 505 251.62 504.2 252.48 504.2 251.44 504.73 250.4"/><polygon id="Fill-244" class="cls-30" points="504.33 255.85 504.6 257.08 503.8 257.94 503.8 256.9 504.33 255.85"/><polygon id="Fill-246" class="cls-30" points="498.32 256.9 498.59 258.12 497.78 258.98 497.78 257.94 498.32 256.9"/><polygon id="Fill-248" class="cls-30" points="498.72 252.48 498.99 253.71 498.19 254.56 498.19 253.52 498.72 252.48"/><polygon id="Fill-250" class="cls-30" points="518.15 258.98 518.42 260.2 517.62 261.06 517.62 260.02 518.15 258.98"/><polygon id="Fill-252" class="cls-30" points="524.19 266.27 524.46 267.5 523.65 268.35 523.65 267.31 524.19 266.27"/><polygon id="Fill-254" class="cls-30" points="519.9 269.33 520.17 270.56 519.37 271.41 519.37 270.37 519.9 269.33"/><polygon id="Fill-256" class="cls-30" points="513.62 269.33 513.89 270.56 513.09 271.41 513.09 270.37 513.62 269.33"/><polygon id="Fill-258" class="cls-30" points="505.94 268.29 506.2 269.52 505.4 270.37 505.4 269.33 505.94 268.29"/><polygon id="Fill-260" class="cls-30" points="499.52 267.31 499.79 268.54 498.99 269.39 498.99 268.35 499.52 267.31"/><polygon id="Fill-262" class="cls-30" points="501.49 272.43 501.76 273.66 500.96 274.51 500.96 273.47 501.49 272.43"/><polygon id="Fill-264" class="cls-30" points="498.32 277.35 498.59 278.57 497.78 279.43 497.78 278.39 498.32 277.35"/><polygon id="Fill-266" class="cls-30" points="493.29 279.39 493.55 280.61 492.75 281.47 492.75 280.43 493.29 279.39"/><polygon id="Fill-268" class="cls-30" points="497.39 272.73 497.66 273.96 496.86 274.81 496.86 273.77 497.39 272.73"/><polygon id="Fill-270" class="cls-30" points="493.29 274.23 493.55 275.45 492.75 276.31 492.75 275.27 493.29 274.23"/><polygon id="Fill-272" class="cls-30" points="510.12 271.69 510.39 272.92 509.59 273.77 509.59 272.73 510.12 271.69"/><polygon id="Fill-274" class="cls-30" points="511.45 276.31 511.72 277.53 510.92 278.39 510.92 277.35 511.45 276.31"/><polygon id="Fill-276" class="cls-30" points="505.94 275.27 506.2 276.49 505.4 277.35 505.4 276.31 505.94 275.27"/><polygon id="Fill-278" class="cls-30" points="506.34 279.39 506.6 280.61 505.8 281.47 505.8 280.43 506.34 279.39"/><polygon id="Fill-280" class="cls-30" points="502.3 279.89 502.56 281.12 501.76 281.97 501.76 280.93 502.3 279.89"/><polygon id="Fill-282" class="cls-30" points="496.59 282.95 496.86 284.18 496.05 285.03 496.05 283.99 496.59 282.95"/><polygon id="Fill-284" class="cls-30" points="516.89 275.27 517.16 276.49 516.35 277.35 516.35 276.31 516.89 275.27"/><polygon id="Fill-286" class="cls-30" points="521.57 272.43 521.84 273.66 521.03 274.51 521.03 273.47 521.57 272.43"/><path id="Fill-288" class="cls-24" d="M509.89,243.54a10.3,10.3,0,0,0,18.51,9l-7.9-.28-.75-5.46L515,249.45Z"/><path id="Fill-290" class="cls-31" d="M312.18,219l6.73-1c1-.16.6-1.75-.45-1.59l-6.72,1c-1.05.16-.6,1.76.44,1.6"/><path id="Fill-292" class="cls-31" d="M222.26,188c3.43,3,5.24,6.9,7.08,10.93q3.07,6.75,6.14,13.49c.44,1,1.87.13,1.43-.83-2.22-4.89-4.42-9.78-6.67-14.66-1.74-3.77-3.62-7.35-6.81-10.1-.8-.7-2,.47-1.17,1.17"/><path id="Fill-294" class="cls-31" d="M223.54,188.53l10.08-5.3c.94-.49.1-1.92-.84-1.43l-10.07,5.3c-1,.5-.11,1.92.83,1.43"/><path id="Fill-296" class="cls-31" d="M223.45,199.55a85.25,85.25,0,0,0,10.39-3.75c1-.42.13-1.84-.84-1.42A81.86,81.86,0,0,1,223,198a.83.83,0,0,0,.44,1.6"/><path id="Fill-298" class="cls-31" d="M244.37,188.78c-4.13,2.14-4.05,7.2-2.69,11.09,1.3,3.72,4.44,5.16,8.28,4.37,4.39-.9,4.3-4.83,3-8.32-1.36-3.7-3.77-7.63-8.3-6.7-1.05.21-.6,1.8.44,1.59,3.57-.73,5.26,2.85,6.26,5.55.56,1.51,1.54,3.88.21,5.33a4.91,4.91,0,0,1-3.28,1.07c-2.88.06-4.44-1.34-5.27-4.12-.89-3-1-6.76,2.17-8.44.94-.49.1-1.92-.84-1.42"/><path id="Fill-300" class="cls-31" d="M262.23,184.8a9.15,9.15,0,0,0-4.94,9.47c.58,3.27,5.35,6.14,8.54,5.59,3.86-.66,3.74-4.67,3.08-7.68-.48-2.18-1-5.13-2.8-6.65-1.53-1.28-3.63-1.19-5.51-1-1.05.09-1.06,1.75,0,1.66,1.52-.13,3.39-.36,4.64.79,1.06,1,1.51,3.35,1.85,4.73.64,2.58,1.45,7.59-3.14,6.48-2.47-.6-5.14-2.76-5.07-5.41a7.42,7.42,0,0,1,4.18-6.52c1-.45.13-1.88-.83-1.42"/><path id="Fill-302" class="cls-31" d="M278.9,179.54c-3.52.77-7.75,4.88-8.14,8.62a5.26,5.26,0,0,0,5.42,5.81c3.81-.18,5.29-3.73,5.51-7,.45-6.48-1.61-12.88-1.32-19.38,0-1.07-1.61-1.07-1.66,0-.25,5.76,1.16,11.35,1.33,17.08a15.61,15.61,0,0,1-.23,4,4.46,4.46,0,0,1-2.92,3.53l-4-1.54c-3.23-3.18,4.34-9.07,6.41-9.53,1-.23.6-1.82-.44-1.59"/><path id="Fill-304" class="cls-31" d="M287.31,168.31a12.74,12.74,0,0,1,4.31-.15c2.56.52,3,1.08,3.24,3.75s-.32,3.46-2.34,5.11c-.43.36-.89.65-1.29,1a4.57,4.57,0,0,0-1.47,2.39c-.25,1.39,1.07,3.09-.08,4.37-.71.79.46,2,1.17,1.17a3.52,3.52,0,0,0,1.17-2.16c.22-2.4-.95-2.86,1.73-5.68,1.61-1.7,3.24-2.89,3.52-5.43.67-6.09-6.07-6.63-10.4-6-1.05.15-.61,1.74.44,1.59"/><path id="Fill-306" class="cls-31" d="M294.61,199.92a.83.83,0,0,0,0-1.65.83.83,0,0,0,0,1.65"/><path id="Fill-308" class="cls-3" d="M360.19,284l-94.14,14.4a1.85,1.85,0,0,1-2.1-1.54L249.08,200a1.84,1.84,0,0,1,1.54-2.09l94.15-14.4a1.83,1.83,0,0,1,2.09,1.53l14.87,96.86a1.84,1.84,0,0,1-1.54,2.09"/><path id="Fill-310" class="cls-23" d="M361,281.5l-97,14.84a1.85,1.85,0,0,1-2.1-1.53L247,198a1.82,1.82,0,0,1,1.53-2.09L345.55,181a1.83,1.83,0,0,1,2.09,1.53l14.87,96.86A1.84,1.84,0,0,1,361,281.5"/><path id="Stroke-312" class="cls-32" d="M361,281.5l-97,14.84a1.85,1.85,0,0,1-2.1-1.53L247,198a1.82,1.82,0,0,1,1.53-2.09L345.55,181a1.83,1.83,0,0,1,2.09,1.53l14.87,96.86A1.84,1.84,0,0,1,361,281.5Z"/><path id="Fill-314" class="cls-31" d="M267.11,250.65Q304,244,340.41,235.27l-.8-1.39a177.34,177.34,0,0,1-43.07,25.86c-.79.34-.34,1.54.42,1.54,10.49,0,20.76-1.94,31-4l-.64-1.52-19,9.66c-.87.44-.25,1.71.64,1.51a34.24,34.24,0,0,1,11.46-.65c1.06.11,1.05-1.54,0-1.66a35.79,35.79,0,0,0-11.9.72l.63,1.51,19-9.66c.88-.44.24-1.69-.64-1.51-10.1,2-20.22,3.94-30.56,3.93.13.51.27,1,.41,1.54a178.63,178.63,0,0,0,43.41-26.12c.68-.55-.07-1.56-.81-1.38q-36.42,8.72-73.3,15.38c-1.05.19-.6,1.79.44,1.6"/><path id="Fill-316" class="cls-31" d="M269.66,217c-4.35,2.42-6.6,6-6.24,10.87.3,4.18,2.05,7.6,6.45,8.79,7,1.87,9.71-13.88-.13-9.28-1,.45-.12,1.88.84,1.43q6,0,3.3,4.24c-2,1.91-3.87,2.26-5.62,1-2.54-1.3-3-3.7-3.18-6.21-.32-4.28,1.71-7.38,5.41-9.44a.83.83,0,0,0-.83-1.43"/><path id="Fill-318" class="cls-31" d="M279.94,224.69q-.48,4.92-1.43,9.76c-.21,1,1.39,1.49,1.6.44q1-5.07,1.49-10.2c.1-1.06-1.56-1.05-1.66,0"/><path id="Fill-320" class="cls-31" d="M279.71,225.69a42.92,42.92,0,0,1,8.09,7.61c.67.82,1.84-.36,1.17-1.18a45.17,45.17,0,0,0-8.42-7.86c-.87-.62-1.7.81-.84,1.43"/><path id="Fill-322" class="cls-31" d="M280.9,231l6.55-.82c1.05-.13,1.06-1.79,0-1.66l-6.55.83c-1,.13-1.06,1.78,0,1.65"/><path id="Fill-324" class="cls-31" d="M289.19,223.18q2.81,5.77,5.18,11.71c.39,1,2,.55,1.6-.44q-2.46-6.15-5.35-12.1c-.46-1-1.89-.12-1.43.83"/><path id="Fill-326" class="cls-31" d="M291.26,223.46a24.92,24.92,0,0,1,3.94-.32c.56.05,1.22-.12,1.32.76.13,1.11-1.64,2.18-2.46,2.42a.84.84,0,0,0-.2,1.52l8.59,5.58c.9.58,1.73-.85.84-1.43l-8.59-5.58c-.07.5-.13,1-.2,1.51,2-.6,4.32-2.73,3.68-5.1-.69-2.55-5.13-1.16-6.92-1-1.05.09-1.06,1.74,0,1.66"/><path id="Fill-328" class="cls-31" d="M300.6,221.57a41.9,41.9,0,0,0,3.43,7.49.83.83,0,0,0,1.44-.83,40.37,40.37,0,0,1-3.27-7.1c-.35-1-1.95-.57-1.6.44"/><path id="Fill-330" class="cls-31" d="M302.05,221.29a6.67,6.67,0,0,1,4.82,1.51,3.51,3.51,0,0,1,.71.83c.44.8,0,1.29-.6,1.79a17.8,17.8,0,0,1-2.25,1.3.83.83,0,0,0,.84,1.43c2-1.17,5.11-2.52,3.44-5.36-1.35-2.3-4.43-3.29-7-3.16-1.06.06-1.06,1.71,0,1.66"/><path id="Fill-332" class="cls-31" d="M311,218.59c.78,2.63,1.66,5.77,3.22,8.07s3.74,1.13,5.93.9c1-.12,1.06-1.77,0-1.66-.79.09-1.52.29-2.29.43-1.68.31-2.4-.74-3-2.09a48.8,48.8,0,0,1-2.24-6.09.83.83,0,0,0-1.6.44"/><path id="Fill-334" class="cls-31" d="M313,223.61a10.43,10.43,0,0,0,3.7-1.11c.95-.49.11-1.91-.84-1.42A8.19,8.19,0,0,1,313,222c-1.05.12-1.06,1.77,0,1.66"/><path id="Fill-336" class="cls-31" d="M322.21,216.87a26.37,26.37,0,0,0,.36,7.83c.2,1,1.8.6,1.6-.44a25.43,25.43,0,0,1-.31-7.39c.11-1.05-1.55-1.05-1.65,0"/><path id="Fill-338" class="cls-31" d="M322.72,217.58a41.7,41.7,0,0,0,9.22,6.89c.94.51,1.78-.91.84-1.43a40.31,40.31,0,0,1-8.89-6.63c-.76-.75-1.93.42-1.17,1.17"/><path id="Fill-340" class="cls-31" d="M333.36,224.34a55.19,55.19,0,0,0,2.56-8.54c.23-1-1.37-1.48-1.59-.44a55.23,55.23,0,0,1-2.57,8.54c-.39,1,1.22,1.42,1.6.44"/><path id="Fill-342" class="cls-31" d="M311.66,219.21a16.11,16.11,0,0,0,4.94-1.06c1-.38.55-2-.44-1.59a15.07,15.07,0,0,1-4.5,1c-1.06.06-1.07,1.72,0,1.65"/></g></g></svg>